<svg version="1.1" id="Layer_1" xmlns="http://www.w3.org/2000/svg" xmlns:xlink="http://www.w3.org/1999/xlink" x="0px" y="0px"
	 width="100%" viewBox="0 0 400 400" enable-background="new 0 0 400 400" xml:space="preserve">
<path fill="#000001" opacity="1.000000" stroke="none" 
	d="
M194.000000,401.000000 
	C129.353378,401.000000 65.206764,401.000000 1.030073,401.000000 
	C1.030073,267.728394 1.030073,134.456757 1.030073,1.092563 
	C134.229919,1.092563 267.459900,1.092563 400.844971,1.092563 
	C400.844971,134.333191 400.844971,267.666565 400.844971,401.000000 
	C332.123505,401.000000 263.311737,401.000000 194.000000,401.000000 
M194.515869,163.378021 
	C193.857773,163.553955 193.199661,163.729904 191.904282,163.136612 
	C190.932983,163.111832 189.961685,163.087067 188.142975,162.806427 
	C186.091309,162.899307 184.039658,162.992172 181.081863,162.834030 
	C174.385849,162.919754 167.689850,163.005478 160.325684,162.821396 
	C158.938278,162.519699 157.550888,162.218018 156.290787,161.101151 
	C156.122803,159.743210 155.954819,158.385284 155.926270,156.393112 
	C155.783844,155.550018 155.641434,154.706909 155.670898,152.962906 
	C155.112076,148.306900 154.553238,143.650894 154.134613,138.130554 
	C153.745239,135.085678 153.355865,132.040817 153.102936,128.164764 
	C152.762787,125.766983 152.422638,123.369194 152.207550,120.092896 
	C151.774963,116.789223 151.434799,113.470314 150.893341,110.184586 
	C148.841644,97.734482 145.515869,85.749588 137.346298,75.722298 
	C132.922546,70.292595 127.712265,65.892273 120.497131,63.702053 
	C120.284180,66.379326 120.121162,68.428680 119.924355,70.903008 
	C117.989113,69.302155 116.561195,67.936165 114.949799,66.839874 
	C113.333023,65.739944 111.533287,64.908936 109.473457,63.772289 
	C110.023407,68.247246 110.678490,72.147636 110.946686,76.074448 
	C111.422157,83.035797 109.026802,85.990509 102.141403,87.327026 
	C101.169991,87.515594 100.154022,87.513359 99.157639,87.527657 
	C95.221573,87.584175 91.714615,88.622353 90.374176,92.735153 
	C88.911591,97.222687 89.561501,101.651001 93.751160,104.279762 
	C97.782814,106.809372 102.186401,109.006554 106.719597,110.388794 
	C109.969711,111.379799 111.574966,112.670738 111.154266,116.672417 
	C109.664619,120.743416 108.174965,124.814407 106.094826,129.397537 
	C105.938171,132.636597 105.781517,135.875671 105.284332,139.894104 
	C106.154640,145.943405 107.024956,151.992706 107.835197,158.563049 
	C107.938446,158.704147 108.041702,158.845230 108.086411,159.923569 
	C108.667740,168.609329 109.249062,177.295090 109.752228,186.732086 
	C110.088165,187.386215 110.424103,188.040344 110.704987,188.864670 
	C110.704987,188.864670 110.842049,188.979584 110.792442,189.690903 
	C111.134979,190.283646 111.477516,190.876373 111.780182,191.984894 
	C112.089523,192.361603 112.398857,192.738297 112.779755,193.769974 
	C113.278625,194.480606 113.777504,195.191223 114.141678,196.744354 
	C114.237350,198.154037 114.333023,199.563705 114.161804,201.876846 
	C114.145187,203.688171 114.197914,205.503220 114.100822,207.310226 
	C113.422150,219.942215 118.575539,229.908020 128.240662,238.502090 
	C128.872299,238.992020 129.503937,239.481949 130.316742,240.583862 
	C131.544388,241.391830 132.772049,242.199814 134.229431,243.578735 
	C134.765656,243.853622 135.301880,244.128510 136.048309,244.916977 
	C136.849091,245.336639 137.649887,245.756302 138.804779,246.799072 
	C140.273605,247.918884 141.742432,249.038696 143.234222,250.850601 
	C143.696762,251.475433 144.159317,252.100250 144.414642,253.515305 
	C144.481400,254.047974 144.548157,254.580643 144.119492,255.803299 
	C142.815277,262.932373 142.308716,270.025696 144.914276,277.636932 
	C144.927261,278.091309 144.940247,278.545715 144.534805,279.557556 
	C145.221802,283.354065 145.908798,287.150543 146.802124,291.688171 
	C146.805145,292.454010 146.808182,293.219849 146.347672,294.497070 
	C146.542923,296.005646 146.738159,297.514252 147.088181,299.717102 
	C147.233871,300.161499 147.379562,300.605896 147.315826,301.878937 
	C147.209259,303.584076 147.102692,305.289215 146.480713,307.524414 
	C146.524063,308.225983 146.567398,308.927582 146.589539,310.135834 
	C146.438889,310.434692 146.288223,310.733551 145.548294,311.379059 
	C143.121002,315.567902 139.180237,319.240112 140.638336,325.116394 
	C140.638336,325.116394 140.239319,325.150269 139.572403,325.028961 
	C139.084320,325.422882 138.596237,325.816833 137.885178,326.592987 
	C137.692261,326.826508 137.453430,326.994934 136.438904,327.179413 
	C134.367661,329.673065 132.170303,333.471252 135.792984,334.830475 
	C139.371262,336.173004 144.049484,334.583832 148.954636,334.025940 
	C149.546051,332.543152 150.137482,331.060333 150.762619,329.247467 
	C150.762619,329.247467 150.986801,329.002930 151.461288,328.643738 
	C151.515656,328.267822 151.570007,327.891876 151.695770,327.196075 
	C151.695770,327.196075 151.946106,326.984497 152.449448,326.652313 
	C152.505264,326.272552 152.561096,325.892792 152.675446,325.193512 
	C152.675446,325.193512 152.911682,324.970551 153.543762,324.684235 
	C154.400940,323.503418 155.698074,322.435913 156.036591,321.121552 
	C157.281509,316.287994 160.833954,311.992340 159.598602,306.010559 
	C159.756287,305.682983 159.913956,305.355438 160.768219,304.948151 
	C163.962570,303.701538 164.063293,305.914429 164.074341,308.007599 
	C164.114853,315.684296 165.316711,323.600830 158.506500,329.641785 
	C157.175598,330.822327 156.734100,333.165710 156.242874,335.065948 
	C155.992279,336.035278 156.187607,337.510132 156.799438,338.234375 
	C158.263412,339.967346 169.935852,338.871124 171.999466,336.998932 
	C171.999466,336.998932 172.008377,336.999329 172.722290,336.969971 
	C173.452209,335.621460 174.182129,334.272949 175.000000,333.000000 
	C175.000000,333.000000 174.912567,332.922760 175.621338,332.799713 
	C176.189926,329.859863 176.758514,326.919983 177.278015,323.204346 
	C177.364761,322.175018 177.451508,321.145660 178.173874,319.725677 
	C179.175720,310.925568 178.550797,301.902374 181.806534,293.402588 
	C182.002335,292.891388 181.584198,292.145020 181.511978,290.802277 
	C181.706711,289.877136 181.901443,288.951965 182.650864,287.524536 
	C182.821533,284.005798 182.992218,280.487061 183.001007,276.448334 
	C182.906616,276.293243 182.812241,276.138153 182.984955,275.289551 
	C183.102676,274.557587 183.220398,273.825623 184.020065,272.795624 
	C184.304443,271.897583 184.908279,270.966980 184.820602,270.106873 
	C184.308899,265.088257 186.678040,264.340302 190.994598,265.300842 
	C193.236923,265.799744 195.705307,265.282776 198.902893,265.180359 
	C200.555817,265.335419 202.208725,265.490509 204.292130,266.230774 
	C207.883957,265.922760 211.475769,265.614746 215.724609,265.142548 
	C216.175232,265.155121 216.625854,265.167694 217.657013,265.660706 
	C220.442596,265.138916 223.228195,264.617096 226.664383,263.906128 
	C227.767014,263.701752 228.869659,263.497375 230.532883,263.695984 
	C234.692673,263.135956 238.852463,262.575928 243.110504,262.671570 
	C243.049561,263.109009 242.988617,263.546478 242.546265,264.312164 
	C242.686249,264.880829 242.826233,265.449524 243.078094,266.666443 
	C243.062408,267.103638 243.046707,267.540863 242.563416,268.432220 
	C243.594345,271.516174 241.296494,276.302521 247.355820,277.330048 
	C247.547028,277.605896 247.738220,277.881775 248.008102,278.773071 
	C248.481491,279.095428 248.954880,279.417786 249.762878,279.894379 
	C249.762878,279.894379 249.922012,280.226715 249.912811,280.905731 
	C250.660599,281.578796 251.408386,282.251831 252.640167,283.322205 
	C253.321121,284.093109 254.002075,284.864014 254.751312,286.157532 
	C254.965515,286.427612 255.179718,286.697693 255.384232,287.550964 
	C255.865692,288.115326 256.347137,288.679688 257.103424,289.882294 
	C257.306396,289.993866 257.509399,290.105438 257.681335,290.568420 
	C257.606415,290.823059 257.664581,291.042664 257.605469,291.787598 
	C257.713196,292.168732 257.820953,292.549835 257.947998,292.874817 
	C257.947998,292.874817 257.889069,292.865173 257.688293,293.087158 
	C257.659790,293.423950 257.784271,293.670288 258.019287,294.778809 
	C259.269989,307.313690 256.543274,318.302094 246.401184,326.824677 
	C244.678604,328.272186 244.293381,331.311188 243.000275,334.281006 
	C248.867996,334.281006 253.583511,334.281006 258.557465,334.281006 
	C258.679352,332.496826 259.014862,331.005829 258.835663,329.579468 
	C258.259186,324.991760 259.891174,321.589203 262.912750,318.013214 
	C269.906952,309.735657 272.599274,299.637756 273.607330,288.310669 
	C273.615906,287.820190 273.624481,287.329712 274.386688,286.793213 
	C276.519958,289.029480 278.653229,291.265747 280.908356,293.936096 
	C281.071075,294.229218 281.320068,294.374359 281.672913,294.377930 
	C281.672913,294.377930 281.664825,294.396301 281.921204,294.994354 
	C283.897766,296.688354 285.874359,298.382324 288.139709,300.829559 
	C288.887085,304.566620 289.634460,308.303711 290.178864,312.886444 
	C290.223358,314.621826 290.267853,316.357178 289.976318,318.792206 
	C289.881653,321.543182 289.786987,324.294128 289.374146,327.736481 
	C288.188995,329.695129 287.003845,331.653778 285.206573,333.888397 
	C284.641724,334.906311 284.076874,335.924194 282.762970,338.292023 
	C288.852997,337.496490 293.574432,336.879730 298.048706,336.046509 
	C298.048706,336.046509 298.273712,336.285858 298.832733,335.871796 
	C299.711487,327.907593 300.548645,319.938477 301.493256,311.982086 
	C301.795135,309.439026 302.030792,306.801086 302.900696,304.427948 
	C306.161926,295.531097 305.476196,286.990204 301.211761,277.893982 
	C301.013611,276.931396 300.815460,275.968781 300.873291,274.126251 
	C300.785645,271.079773 300.697998,268.033325 300.869354,264.149628 
	C300.805420,262.115570 300.741486,260.081543 300.930267,257.274506 
	C299.873169,253.530365 298.816101,249.786209 297.855011,245.198410 
	C297.627716,243.817856 297.400421,242.437286 297.375183,240.139481 
	C297.363434,239.482590 297.354431,238.825653 297.339569,238.168839 
	C297.173004,230.812622 295.859161,222.980606 305.085510,219.518188 
	C305.187195,219.480026 305.207611,219.225327 305.868683,218.779678 
	C315.877258,206.784744 308.788208,181.136871 293.800964,176.301773 
	C290.697449,175.300522 286.855225,176.589035 283.174011,176.701981 
	C283.174011,176.701981 283.011292,176.844009 282.330139,176.759933 
	C281.900604,176.899796 281.471069,177.039673 280.261536,177.176971 
	C276.823853,177.733948 273.386139,178.290924 269.369843,178.442719 
	C266.388306,177.462387 263.393311,176.520996 260.427734,175.494568 
	C250.729172,172.137817 241.076233,168.642456 231.316269,165.476196 
	C229.615997,164.924591 227.481949,165.710114 224.942001,165.130951 
	C224.622360,165.104935 224.302704,165.078934 223.329056,164.954666 
	C222.894196,165.003967 222.459320,165.053268 221.391098,164.928223 
	C220.955002,164.889908 220.518906,164.851593 219.949554,164.297272 
	C218.961884,164.170639 217.974228,164.043991 216.259445,163.585312 
	C213.825043,163.430527 211.390625,163.275726 208.383392,162.796005 
	C206.629105,162.882996 204.874802,162.969971 202.262634,162.838837 
	C200.505951,162.919907 198.749283,163.000977 196.252533,162.848328 
	C195.834366,163.077667 195.416199,163.307007 194.515869,163.378021 
z"/>
<path fill="#FDA6E9" opacity="1.000000" stroke="none" 
	d="
M155.499008,153.863815 
	C155.641434,154.706909 155.783844,155.550018 155.636353,156.976929 
	C155.213730,158.707489 155.081024,159.854248 154.812805,161.102844 
	C154.778671,161.469498 154.880020,161.734329 154.987793,161.999496 
	C154.994186,161.999832 155.005219,162.007217 155.063950,162.334763 
	C156.878128,165.565079 158.879807,165.097107 160.993835,163.091202 
	C167.689850,163.005478 174.385849,162.919754 181.533661,163.375366 
	C181.955185,166.796417 182.416855,169.794205 181.761642,172.523911 
	C181.051117,175.484070 179.017029,178.100815 178.048584,181.028885 
	C171.109055,202.010132 159.750458,220.185883 143.939545,235.620575 
	C141.093414,238.398987 138.531326,241.468353 135.838104,244.403381 
	C135.301880,244.128510 134.765656,243.853622 134.078918,242.944824 
	C132.664124,241.531235 131.399841,240.751556 130.135559,239.971878 
	C129.503937,239.481949 128.872299,238.992020 128.129517,237.854080 
	C127.543228,236.176819 127.301895,234.920471 126.556831,234.153366 
	C118.857285,226.226364 114.883354,216.991348 115.902985,205.760910 
	C116.042679,204.222382 114.950516,202.571991 114.428696,200.973389 
	C114.333023,199.563705 114.237350,198.154037 114.408707,196.077866 
	C114.019882,194.645920 113.364044,193.880463 112.708199,193.115005 
	C112.398857,192.738297 112.089523,192.361603 111.828186,191.368530 
	C111.531471,190.161301 111.186760,189.570450 110.842049,188.979584 
	C110.842049,188.979584 110.704987,188.864670 110.780914,188.393738 
	C110.514687,187.275482 110.172531,186.628159 109.830383,185.980850 
	C109.249062,177.295090 108.667740,168.609329 108.303764,159.335602 
	C108.743584,158.541260 108.905792,158.295135 109.253616,157.761597 
	C109.256905,155.532501 109.014328,153.551086 108.809227,151.875748 
	C112.726440,152.246063 116.707619,152.828293 120.702972,152.951813 
	C126.684746,153.136734 132.679199,152.886826 138.663193,153.031570 
	C144.278564,153.167404 149.887329,153.575516 155.499008,153.863815 
z"/>
<path fill="#F4DCD5" opacity="1.000000" stroke="none" 
	d="
M111.473206,115.988419 
	C111.574966,112.670738 109.969711,111.379799 106.719597,110.388794 
	C102.186401,109.006554 97.782814,106.809372 93.751160,104.279762 
	C89.561501,101.651001 88.911591,97.222687 90.374176,92.735153 
	C91.714615,88.622353 95.221573,87.584175 99.157639,87.527657 
	C100.154022,87.513359 101.169991,87.515594 102.141403,87.327026 
	C109.026802,85.990509 111.422157,83.035797 110.946686,76.074448 
	C110.678490,72.147636 110.023407,68.247246 109.473457,63.772289 
	C111.533287,64.908936 113.333023,65.739944 114.949799,66.839874 
	C116.561195,67.936165 117.989113,69.302155 119.924355,70.903008 
	C120.121162,68.428680 120.284180,66.379326 120.497131,63.702053 
	C127.712265,65.892273 132.922546,70.292595 137.346298,75.722298 
	C145.515869,85.749588 148.841644,97.734482 150.893341,110.184586 
	C151.434799,113.470314 151.774963,116.789223 151.790192,120.471512 
	C148.009888,119.572685 144.714523,117.453835 141.271194,117.177261 
	C131.370560,116.382042 121.410133,116.331535 111.473206,115.988419 
z"/>
<path fill="#4BD7EE" opacity="1.000000" stroke="none" 
	d="
M152.911682,324.970551 
	C152.911682,324.970551 152.675446,325.193512 152.408081,325.526123 
	C152.075851,326.233978 152.010986,326.609222 151.946106,326.984497 
	C151.946106,326.984497 151.695770,327.196075 151.417816,327.528442 
	C151.088837,328.241516 151.037827,328.622223 150.986801,329.002930 
	C150.986801,329.002930 150.762619,329.247467 150.522797,329.460480 
	C150.074844,329.897461 149.840988,330.090149 149.228607,330.288513 
	C147.906784,331.530487 146.937698,332.735596 145.530289,334.035461 
	C142.411377,334.065094 139.730774,333.999969 137.012909,333.645630 
	C136.647110,332.898071 136.318558,332.439789 135.954010,331.696533 
	C136.111282,330.882568 136.304581,330.353516 136.844940,329.762695 
	C138.136261,328.482086 139.080536,327.263245 140.114700,325.829590 
	C140.204590,325.614746 140.239319,325.150269 140.239319,325.150269 
	C140.239319,325.150269 140.638336,325.116394 141.029251,325.081879 
	C141.587494,325.018921 141.754837,324.990448 142.216370,324.930298 
	C142.598160,324.233307 142.685776,323.567993 142.818237,322.622559 
	C143.132812,321.853577 143.402527,321.364716 144.013885,320.863800 
	C144.527115,319.875977 144.698669,318.900208 144.900726,317.602203 
	C145.213913,316.491455 145.496582,315.702911 146.016174,314.822601 
	C146.253296,314.157166 146.253494,313.583557 146.254333,312.676819 
	C146.215836,311.906616 146.176712,311.469543 146.137573,311.032440 
	C146.288223,310.733551 146.438889,310.434692 146.801315,309.755554 
	C147.013092,309.375305 147.357925,309.047180 147.675659,308.916138 
	C148.304855,306.171570 148.616302,303.558075 148.938782,300.558167 
	C148.953506,299.142029 148.957230,298.112244 149.117584,296.780090 
	C150.850769,293.986755 152.427307,291.495758 154.254211,288.753571 
	C154.672256,287.336151 154.839920,286.169891 155.371002,285.012512 
	C157.276978,285.781006 158.819504,286.540619 160.363480,287.300964 
	C163.806763,277.342834 173.260742,270.033661 182.832489,270.379852 
	C183.066116,271.541504 183.202118,272.317566 183.338120,273.093658 
	C183.220398,273.825623 183.102676,274.557587 182.499313,275.769470 
	C181.057144,283.286682 180.100616,290.324005 179.146469,297.530334 
	C179.148849,297.699402 178.940094,297.965424 178.590912,298.073792 
	C177.966171,299.025055 177.690628,299.867950 177.368622,301.131104 
	C177.394165,307.739685 177.466217,313.928009 177.538254,320.116333 
	C177.451508,321.145660 177.364761,322.175018 177.160934,323.958862 
	C176.333420,327.449829 175.622986,330.186279 174.912567,332.922760 
	C174.912567,332.922760 175.000000,333.000000 174.668335,333.104950 
	C173.560562,334.473022 172.784470,335.736176 172.008362,336.999329 
	C172.008377,336.999329 171.999466,336.998932 171.533249,337.016541 
	C166.539825,337.034119 162.012619,337.034119 157.215454,337.034119 
	C158.615204,329.343903 167.309738,325.935455 165.798264,317.231781 
	C164.606003,310.366302 165.902969,303.076324 163.258148,296.417389 
	C162.778183,296.424469 162.298233,296.431549 161.818268,296.438660 
	C161.236053,299.301727 160.653839,302.164795 160.071625,305.027863 
	C159.913956,305.355438 159.756287,305.682983 159.334564,306.552887 
	C157.017563,313.053650 154.964615,319.012115 152.911682,324.970551 
M149.256454,312.922638 
	C149.997787,312.796082 150.739120,312.669525 151.480453,312.542969 
	C151.194656,311.888519 150.908844,311.234039 150.623047,310.579590 
	C150.113449,311.152954 149.603867,311.726318 149.256454,312.922638 
z"/>
<path fill="#7ECEF3" opacity="1.000000" stroke="none" 
	d="
M144.953247,279.000092 
	C144.940247,278.545715 144.927261,278.091309 145.233932,277.045227 
	C146.747437,274.424744 147.630341,272.107483 149.194244,270.422058 
	C153.644012,265.626556 158.459946,261.172485 162.959290,256.420746 
	C166.100967,253.102798 169.235611,249.714569 171.890594,246.011597 
	C179.269272,235.720306 186.447235,225.283218 193.570190,214.812378 
	C194.724091,213.116150 195.191833,210.953156 196.227341,208.764450 
	C197.326950,206.347992 198.175980,204.172989 199.390060,201.990158 
	C201.832245,199.327087 203.909393,196.671844 205.994339,193.758102 
	C206.006882,193.327255 206.011642,193.154922 206.317505,192.811615 
	C208.102585,189.895859 209.256729,186.894928 211.144684,184.463882 
	C214.293503,180.409256 215.606247,176.042389 215.001968,171.009537 
	C215.002136,171.001984 215.017090,170.999878 215.367584,170.910522 
	C217.172989,168.818542 218.627899,166.815903 220.082794,164.813278 
	C220.518906,164.851593 220.955002,164.889908 221.867477,165.204193 
	C222.890244,165.337753 223.436630,165.195328 223.983032,165.052917 
	C224.302704,165.078934 224.622360,165.104935 225.500458,165.613892 
	C227.421387,166.381866 228.783875,166.666901 229.793274,167.025436 
	C227.655624,168.945328 224.224869,170.998703 224.425644,172.595459 
	C224.857422,176.029312 222.719482,177.605713 221.476685,179.910843 
	C220.229187,182.224731 219.155014,184.632050 218.002411,187.331299 
	C217.998749,188.108017 217.997543,188.551834 217.662064,189.066437 
	C216.886002,190.091125 216.444229,191.045044 215.880264,192.207764 
	C215.555328,192.677155 215.302429,192.872971 214.706390,193.165344 
	C211.943314,196.550812 209.473190,199.774948 206.696594,203.179123 
	C205.592819,205.239197 204.795486,207.119232 203.657257,209.044617 
	C201.878769,210.726349 200.441223,212.362717 198.836761,214.305359 
	C197.110489,218.072021 195.551102,221.532425 193.763641,225.174866 
	C193.351624,225.899277 193.167664,226.441620 192.633789,227.038971 
	C191.520569,228.394272 190.757233,229.694595 189.961533,231.286316 
	C189.616257,232.048218 189.303360,232.518707 188.619263,232.999115 
	C183.589920,233.306610 182.257004,237.179916 180.297394,240.389282 
	C173.624756,251.317459 166.264008,261.659454 156.049911,269.681641 
	C154.721970,270.724609 154.000000,272.539185 152.994675,274.328064 
	C152.989899,275.102081 152.987793,275.544403 152.611755,276.043213 
	C150.417633,277.287811 146.731461,276.012390 147.043182,280.354767 
	C147.033264,281.119049 147.032745,281.556000 146.811203,281.995972 
	C146.590195,281.998993 146.148132,282.003204 146.050903,281.681366 
	C145.620209,280.573059 145.286728,279.786560 144.953247,279.000092 
z"/>
<path fill="#FAB3E3" opacity="1.000000" stroke="none" 
	d="
M155.584961,153.413361 
	C149.887329,153.575516 144.278564,153.167404 138.663193,153.031570 
	C132.679199,152.886826 126.684746,153.136734 120.702972,152.951813 
	C116.707619,152.828293 112.726440,152.246063 108.809227,151.875748 
	C109.014328,153.551086 109.256905,155.532501 108.975319,157.765167 
	C108.265869,158.024933 108.080566,158.033478 107.895264,158.042007 
	C107.024956,151.992706 106.154640,145.943405 105.833054,139.425720 
	C107.710083,138.410858 109.042610,137.384125 110.365982,137.395798 
	C118.998184,137.471909 127.630737,137.708893 136.258453,138.023026 
	C142.174393,138.238434 148.082703,138.663528 153.994415,138.994888 
	C154.553238,143.650894 155.112076,148.306900 155.584961,153.413361 
z"/>
<path fill="#7ABBF2" opacity="1.000000" stroke="none" 
	d="
M273.633057,286.839233 
	C273.624481,287.329712 273.615906,287.820190 273.150757,288.776672 
	C272.138458,290.502808 271.582703,291.762878 270.705475,292.959045 
	C269.559998,292.424164 268.735992,291.953217 267.906433,291.479065 
	C264.575775,297.880341 264.575775,297.880341 259.764191,296.844971 
	C259.423126,296.102814 259.296021,295.553253 259.533783,294.999420 
	C260.693329,294.822266 261.882965,294.925049 262.224487,294.435822 
	C269.256500,284.362610 278.140900,275.811890 283.382050,264.166840 
	C287.242096,255.590363 289.824554,246.849030 290.677521,237.968658 
	C291.967224,224.541733 290.554108,211.122101 284.000702,198.665070 
	C281.692505,194.277527 277.891602,189.812347 280.555359,183.966583 
	C280.839233,183.343567 279.556000,182.006454 279.216278,180.776825 
	C281.007629,181.463165 283.390045,181.994614 284.023743,183.346039 
	C287.617645,191.010483 291.162720,198.740784 293.973969,206.713303 
	C295.690430,211.581009 296.059235,216.923904 297.010193,222.287994 
	C296.987122,222.522583 296.928070,222.991409 296.653564,223.037231 
	C296.270325,223.729858 296.161530,224.376663 296.049744,225.465881 
	C295.707062,230.927795 295.367432,235.947281 295.017761,241.386993 
	C295.011536,243.201630 295.015381,244.596008 294.862244,246.321442 
	C291.317963,254.075989 288.164154,261.618347 284.466858,268.884094 
	C281.671204,274.377991 278.181427,279.518677 274.726074,284.861847 
	C274.178741,285.551178 273.905914,286.195190 273.633057,286.839233 
z"/>
<path fill="#60CAF2" opacity="1.000000" stroke="none" 
	d="
M255.393921,286.967773 
	C255.179718,286.697693 254.965515,286.427612 254.805710,285.453613 
	C254.885437,283.850616 254.910782,282.951508 255.155060,281.921570 
	C255.582275,281.526703 255.790573,281.262756 256.383545,280.998108 
	C258.511383,279.983978 261.203949,279.377594 261.841675,277.890228 
	C265.624542,269.067261 273.114594,262.021057 274.192230,251.911407 
	C275.012512,244.216568 276.931610,236.519333 276.712097,228.870499 
	C276.531738,222.586624 274.911621,215.887329 272.141541,210.250961 
	C268.734070,203.317612 263.459930,197.305832 263.682404,188.951050 
	C263.693085,188.549881 263.216125,187.800659 262.920319,187.776520 
	C258.303711,187.399841 256.956604,184.950302 257.014862,180.446671 
	C257.029388,179.325424 253.149139,178.045929 250.962479,177.051575 
	C249.938705,176.586029 248.685226,176.625641 246.278000,176.229095 
	C248.717453,175.071747 249.889618,174.515640 251.442749,173.971741 
	C253.685471,174.847290 255.527313,175.757080 257.413208,176.563934 
	C260.917847,178.063263 264.448120,179.502563 267.927490,181.322327 
	C267.714996,183.737152 266.820618,186.074860 267.489441,187.809998 
	C271.385925,197.918640 276.888275,207.576782 279.482941,217.977158 
	C282.919891,231.754059 282.578186,246.246216 276.733826,259.415314 
	C272.782623,268.318481 266.444733,276.178131 260.987854,284.380463 
	C260.173126,285.605103 258.333557,286.147858 256.705750,286.991882 
	C256.093567,286.974365 255.743744,286.971069 255.393921,286.967773 
z"/>
<path fill="#6AC5F4" opacity="1.000000" stroke="none" 
	d="
M256.968079,287.006073 
	C258.333557,286.147858 260.173126,285.605103 260.987854,284.380463 
	C266.444733,276.178131 272.782623,268.318481 276.733826,259.415314 
	C282.578186,246.246216 282.919891,231.754059 279.482941,217.977158 
	C276.888275,207.576782 271.385925,197.918640 267.489441,187.809998 
	C266.820618,186.074860 267.714996,183.737152 268.252869,181.316925 
	C269.050262,180.959564 269.482056,180.963089 270.298553,180.971863 
	C271.452484,180.995499 272.221710,181.013885 272.990845,181.409546 
	C272.811127,184.151855 271.851593,188.276657 272.577576,188.598389 
	C277.567627,190.809937 278.165253,195.399948 279.188538,199.577469 
	C281.978912,210.969040 285.107666,222.352142 286.690399,233.931610 
	C287.409760,239.194641 284.718079,244.899475 283.707886,250.428436 
	C281.628082,261.810974 276.928223,271.795624 268.599762,280.005920 
	C267.105499,281.478973 266.303314,283.630035 265.025055,285.351837 
	C263.088654,287.960297 261.015015,290.466858 258.731781,292.997131 
	C258.285492,292.962067 258.107086,292.946533 257.928680,292.930969 
	C257.820953,292.549835 257.713196,292.168732 257.784851,291.330261 
	C257.992676,290.611023 257.908752,290.392365 257.712372,290.217010 
	C257.509399,290.105438 257.306396,289.993866 257.012756,289.192566 
	C256.937408,288.003906 256.952759,287.505005 256.968079,287.006073 
z"/>
<path fill="#EBA6E5" opacity="1.000000" stroke="none" 
	d="
M135.943207,244.660187 
	C138.531326,241.468353 141.093414,238.398987 143.939545,235.620575 
	C159.750458,220.185883 171.109055,202.010132 178.048584,181.028885 
	C179.017029,178.100815 181.051117,175.484070 181.761642,172.523911 
	C182.416855,169.794205 181.955185,166.796417 181.986725,163.500870 
	C184.039658,162.992172 186.091309,162.899307 188.565491,163.313477 
	C188.414520,166.777405 187.765839,169.722000 187.280167,172.693253 
	C184.815201,187.773438 176.356094,200.143524 168.566467,212.647888 
	C162.748795,221.986771 155.701157,230.601791 148.739151,239.163406 
	C146.169235,242.323792 143.969635,246.954163 138.450668,246.175964 
	C137.649887,245.756302 136.849091,245.336639 135.943207,244.660187 
z"/>
<path fill="#F8C3DE" opacity="1.000000" stroke="none" 
	d="
M154.064514,138.562714 
	C148.082703,138.663528 142.174393,138.238434 136.258453,138.023026 
	C127.630737,137.708893 118.998184,137.471909 110.365982,137.395798 
	C109.042610,137.384125 107.710083,138.410858 106.003319,139.036041 
	C105.781517,135.875671 105.938171,132.636597 106.762993,129.130127 
	C108.308739,128.008926 109.092010,127.015793 110.090179,126.340134 
	C111.107346,125.651619 112.396713,124.730103 113.462219,124.848976 
	C121.731995,125.771561 129.964462,127.027359 138.233261,127.960426 
	C143.121048,128.511963 148.053909,128.664154 152.966492,128.995941 
	C153.355865,132.040817 153.745239,135.085678 154.064514,138.562714 
z"/>
<path fill="#9CC3EF" opacity="1.000000" stroke="none" 
	d="
M199.025024,201.998001 
	C198.175980,204.172989 197.326950,206.347992 195.886948,208.813721 
	C188.206772,218.403427 181.308395,227.855972 173.979874,236.962341 
	C164.903885,248.240097 155.471252,259.230804 146.192673,270.345520 
	C145.877258,270.050934 145.561844,269.756378 145.246429,269.461823 
	C145.246429,267.302795 145.246429,265.143799 145.587280,262.979919 
	C147.417969,262.018799 149.200287,261.327972 150.349030,260.062164 
	C156.644897,253.124664 163.381332,246.477570 168.849960,238.922562 
	C178.918716,225.012405 188.169632,210.512009 197.840820,196.311707 
	C204.499557,186.534622 208.903397,176.024658 208.973526,163.778992 
	C208.976852,163.559494 208.956223,163.120941 208.956223,163.120941 
	C211.390625,163.275726 213.825043,163.430527 216.422318,164.027588 
	C213.383224,166.003128 214.259415,168.515732 215.017090,170.999878 
	C215.017090,170.999878 215.002136,171.001984 214.646774,171.084229 
	C211.533066,178.438492 208.774734,185.710541 206.016388,192.982574 
	C206.011642,193.154922 206.006882,193.327255 205.654022,193.802765 
	C203.212280,196.736603 201.118652,199.367294 199.025024,201.998001 
z"/>
<path fill="#DEABE6" opacity="1.000000" stroke="none" 
	d="
M138.627716,246.487518 
	C143.969635,246.954163 146.169235,242.323792 148.739151,239.163406 
	C155.701157,230.601791 162.748795,221.986771 168.566467,212.647888 
	C176.356094,200.143524 184.815201,187.773438 187.280167,172.693253 
	C187.765839,169.722000 188.414520,166.777405 188.989197,163.441406 
	C189.961685,163.087067 190.932983,163.111832 192.291718,163.605606 
	C192.679153,164.074600 193.093887,164.266876 193.064423,164.642487 
	C193.287659,166.643860 194.179428,168.501114 193.688156,169.857422 
	C190.747147,177.976913 187.856216,186.152267 184.222992,193.971802 
	C181.103058,200.686600 177.195404,207.063156 173.299057,213.381454 
	C169.588730,219.398087 165.853119,225.484360 161.374619,230.918625 
	C156.697815,236.593475 151.078018,241.485657 145.988617,246.832474 
	C145.291122,247.565262 145.275803,248.947357 144.652740,250.023346 
	C143.977646,250.064728 143.594452,250.111618 143.211258,250.158508 
	C141.742432,249.038696 140.273605,247.918884 138.627716,246.487518 
z"/>
<path fill="#F5D1D9" opacity="1.000000" stroke="none" 
	d="
M153.034714,128.580353 
	C148.053909,128.664154 143.121048,128.511963 138.233261,127.960426 
	C129.964462,127.027359 121.731995,125.771561 113.462219,124.848976 
	C112.396713,124.730103 111.107346,125.651619 110.090179,126.340134 
	C109.092010,127.015793 108.308739,128.008926 107.058243,128.874069 
	C108.174965,124.814407 109.664619,120.743416 111.313736,116.330414 
	C121.410133,116.331535 131.370560,116.382042 141.271194,117.177261 
	C144.714523,117.453835 148.009888,119.572685 151.727661,120.910774 
	C152.422638,123.369194 152.762787,125.766983 153.034714,128.580353 
z"/>
<path fill="#84B2ED" opacity="1.000000" stroke="none" 
	d="
M272.990936,181.032257 
	C272.221710,181.013885 271.452484,180.995499 270.312317,180.619446 
	C269.943726,179.790482 269.946075,179.319183 269.948425,178.847900 
	C273.386139,178.290924 276.823853,177.733948 280.834412,177.355942 
	C281.941956,177.304611 282.476624,177.074310 283.011292,176.844009 
	C283.011292,176.844009 283.174011,176.701981 283.741638,176.814026 
	C287.441284,177.677628 291.875244,177.414749 293.422821,179.400909 
	C296.271271,183.056549 298.919067,187.288116 298.246613,192.890549 
	C297.844482,196.240891 299.677124,199.913361 300.731964,203.371902 
	C302.279510,208.445953 306.477112,212.944473 303.599213,218.914688 
	C301.175720,219.995789 299.104523,221.024582 297.033295,222.053391 
	C296.059235,216.923904 295.690430,211.581009 293.973969,206.713303 
	C291.162720,198.740784 287.617645,191.010483 284.023743,183.346039 
	C283.390045,181.994614 281.007629,181.463165 278.787415,180.776443 
	C276.424988,181.010651 274.707977,181.021439 272.990936,181.032257 
z"/>
<path fill="#85A3DA" opacity="1.000000" stroke="none" 
	d="
M257.938354,292.902893 
	C258.107086,292.946533 258.285492,292.962067 258.741272,293.329468 
	C259.068726,294.122162 259.118805,294.562897 259.168915,295.003662 
	C259.296021,295.553253 259.423126,296.102814 259.766174,297.291382 
	C260.333618,301.343018 260.553467,304.781433 261.209900,308.134399 
	C261.288391,308.535248 263.742340,308.471008 265.095245,308.622314 
	C265.155182,302.976562 268.405060,298.624207 270.997253,294.000610 
	C271.138641,293.748444 271.022980,293.352173 271.026978,293.022980 
	C271.582703,291.762878 272.138458,290.502808 272.953796,289.093445 
	C272.599274,299.637756 269.906952,309.735657 262.912750,318.013214 
	C259.891174,321.589203 258.259186,324.991760 258.835663,329.579468 
	C259.014862,331.005829 258.679352,332.496826 258.557465,334.281006 
	C253.583511,334.281006 248.867996,334.281006 243.000275,334.281006 
	C244.293381,331.311188 244.678604,328.272186 246.401184,326.824677 
	C256.543274,318.302094 259.269989,307.313690 258.005341,294.060791 
	C257.991394,293.342743 257.889069,292.865173 257.889069,292.865173 
	C257.889069,292.865173 257.947998,292.874817 257.938354,292.902893 
z"/>
<path fill="#8EA4E3" opacity="1.000000" stroke="none" 
	d="
M303.951477,218.862396 
	C306.477112,212.944473 302.279510,208.445953 300.731964,203.371902 
	C299.677124,199.913361 297.844482,196.240891 298.246613,192.890549 
	C298.919067,187.288116 296.271271,183.056549 293.422821,179.400909 
	C291.875244,177.414749 287.441284,177.677628 283.831360,176.874146 
	C286.855225,176.589035 290.697449,175.300522 293.800964,176.301773 
	C308.788208,181.136871 315.877258,206.784744 305.238647,218.872803 
	C304.389587,218.931412 304.170532,218.896896 303.951477,218.862396 
z"/>
<path fill="#B78FE4" opacity="1.000000" stroke="none" 
	d="
M290.312378,318.092560 
	C290.267853,316.357178 290.223358,314.621826 290.603088,312.351990 
	C291.679169,310.362579 292.251190,308.865021 293.000183,307.461914 
	C294.366669,304.902069 295.590149,302.198822 297.385254,299.967255 
	C298.122314,299.050964 300.186218,299.202026 301.646576,298.867554 
	C301.726196,300.308960 302.070099,301.796844 301.826721,303.181458 
	C301.407104,305.568420 300.258667,307.860260 300.055634,310.246399 
	C299.318176,318.914001 298.845947,327.604187 298.273712,336.285858 
	C298.273712,336.285858 298.048706,336.046509 297.707489,336.078430 
	C294.581696,336.127136 291.765778,336.390839 289.027374,336.043610 
	C287.873596,335.897278 286.883301,334.461853 285.818695,333.612427 
	C287.003845,331.653778 288.188995,329.695129 289.832214,327.208740 
	C290.297607,323.818176 290.304993,320.955383 290.312378,318.092560 
z"/>
<path fill="#C3B8EF" opacity="1.000000" stroke="none" 
	d="
M144.614899,255.113312 
	C144.548157,254.580643 144.481400,254.047974 144.654892,253.035492 
	C145.026489,252.382950 145.136887,252.197708 145.573242,251.988556 
	C147.037354,251.354477 148.483994,250.994446 149.221603,250.069183 
	C158.140732,238.880722 167.418915,227.936188 175.659775,216.261856 
	C183.129715,205.679718 189.867569,194.550583 194.526794,182.275330 
	C196.809128,176.262253 198.392807,170.401779 196.972260,163.777832 
	C196.986267,163.546173 196.992599,163.082062 196.992599,163.082062 
	C198.749283,163.000977 200.505951,162.919907 202.664124,163.171951 
	C203.065613,163.505066 203.065460,163.956161 202.990936,164.341370 
	C201.870117,168.897903 201.179123,173.198837 199.713272,177.217102 
	C194.580963,191.285843 187.928329,204.548676 178.509094,216.346542 
	C176.517487,218.841095 175.481293,222.098450 173.776581,225.186722 
	C173.364761,225.912460 173.181274,226.455811 172.666901,227.062454 
	C167.990234,231.457336 163.162109,235.453598 161.998413,241.998260 
	C162.000000,242.000000 161.995499,241.996750 161.648560,242.044556 
	C158.532730,244.717926 155.896622,247.505417 152.953598,249.918594 
	C150.536209,251.900787 147.754150,253.438232 145.007416,255.128250 
	C144.881119,255.083694 144.614899,255.113312 144.614899,255.113312 
z"/>
<path fill="#8ABFE6" opacity="1.000000" stroke="none" 
	d="
M144.367188,255.458313 
	C144.614899,255.113312 144.881119,255.083694 144.973572,255.526794 
	C145.123596,257.316132 145.181168,258.662354 145.192413,260.379639 
	C145.179504,261.495392 145.212967,262.240082 145.246429,262.984772 
	C145.246429,265.143799 145.246429,267.302795 145.246429,269.461823 
	C145.561844,269.756378 145.877258,270.050934 146.192673,270.345520 
	C155.471252,259.230804 164.903885,248.240097 173.979874,236.962341 
	C181.308395,227.855972 188.206772,218.403427 195.636368,209.055176 
	C195.191833,210.953156 194.724091,213.116150 193.570190,214.812378 
	C186.447235,225.283218 179.269272,235.720306 171.890594,246.011597 
	C169.235611,249.714569 166.100967,253.102798 162.959290,256.420746 
	C158.459946,261.172485 153.644012,265.626556 149.194244,270.422058 
	C147.630341,272.107483 146.747437,274.424744 145.311188,276.713013 
	C142.308716,270.025696 142.815277,262.932373 144.367188,255.458313 
z"/>
<path fill="#9F88D0" opacity="1.000000" stroke="none" 
	d="
M298.553223,336.078827 
	C298.845947,327.604187 299.318176,318.914001 300.055634,310.246399 
	C300.258667,307.860260 301.407104,305.568420 301.826721,303.181458 
	C302.070099,301.796844 301.726196,300.308960 301.646576,298.867554 
	C300.186218,299.202026 298.122314,299.050964 297.385254,299.967255 
	C295.590149,302.198822 294.366669,304.902069 293.000183,307.461914 
	C292.251190,308.865021 291.679169,310.362579 290.704590,311.929169 
	C289.634460,308.303711 288.887085,304.566620 288.348206,300.478516 
	C289.652954,300.729309 290.749176,301.331177 291.728210,301.868683 
	C297.283478,294.866608 303.027283,288.263275 301.214447,278.634399 
	C305.476196,286.990204 306.161926,295.531097 302.900696,304.427948 
	C302.030792,306.801086 301.795135,309.439026 301.493256,311.982086 
	C300.548645,319.938477 299.711487,327.907593 298.553223,336.078827 
z"/>
<path fill="#A29CEA" opacity="1.000000" stroke="none" 
	d="
M301.213104,278.264191 
	C303.027283,288.263275 297.283478,294.866608 291.728210,301.868683 
	C290.749176,301.331177 289.652954,300.729309 288.203857,300.101868 
	C285.874359,298.382324 283.897766,296.688354 282.164551,294.629089 
	C284.169708,293.847717 286.291351,293.902588 287.604370,292.899231 
	C289.338501,291.574097 290.591461,289.514221 291.778473,287.600952 
	C293.982849,284.047821 295.922699,280.330505 298.130371,276.779602 
	C298.626526,275.981567 299.771179,275.586670 300.617279,275.006195 
	C300.815460,275.968781 301.013611,276.931396 301.213104,278.264191 
z"/>
<path fill="#8CADEF" opacity="1.000000" stroke="none" 
	d="
M300.677551,258.047485 
	C300.741486,260.081543 300.805420,262.115570 300.389923,264.586914 
	C298.891571,265.934967 297.587311,266.670502 296.902405,267.786255 
	C293.685303,273.027039 290.692963,278.405396 287.508759,283.667053 
	C285.781647,286.520966 283.831299,289.239777 281.746063,292.015747 
	C281.510437,292.011932 281.038696,292.006012 280.884155,291.697815 
	C279.475128,289.269104 278.220703,287.148590 277.377563,285.019348 
	C280.837402,285.350891 282.651917,284.285095 283.593201,281.091278 
	C284.207001,279.008575 285.968079,277.276917 287.143036,275.344116 
	C289.759766,271.039581 292.811981,266.910339 294.751465,262.314972 
	C296.035431,259.272644 295.655853,255.540146 296.117676,252.129715 
	C296.219635,251.376617 296.729279,250.678711 297.286499,250.199310 
	C298.573700,252.977966 299.625641,255.512726 300.677551,258.047485 
z"/>
<path fill="#96A5EC" opacity="1.000000" stroke="none" 
	d="
M281.981689,292.019531 
	C283.831299,289.239777 285.781647,286.520966 287.508759,283.667053 
	C290.692963,278.405396 293.685303,273.027039 296.902405,267.786255 
	C297.587311,266.670502 298.891571,265.934967 300.260437,265.005554 
	C300.697998,268.033325 300.785645,271.079773 300.745300,274.566223 
	C299.771179,275.586670 298.626526,275.981567 298.130371,276.779602 
	C295.922699,280.330505 293.982849,284.047821 291.778473,287.600952 
	C290.591461,289.514221 289.338501,291.574097 287.604370,292.899231 
	C286.291351,293.902588 284.169708,293.847717 282.036377,294.330048 
	C281.664825,294.396301 281.672913,294.377930 281.757812,293.988068 
	C281.889038,293.071991 281.935364,292.545746 281.981689,292.019531 
z"/>
<path fill="#0D313B" opacity="1.000000" stroke="none" 
	d="
M160.419922,304.988007 
	C160.653839,302.164795 161.236053,299.301727 161.818268,296.438660 
	C162.298233,296.431549 162.778183,296.424469 163.258148,296.417389 
	C165.902969,303.076324 164.606003,310.366302 165.798264,317.231781 
	C167.309738,325.935455 158.615204,329.343903 157.215454,337.034119 
	C162.012619,337.034119 166.539825,337.034119 171.532593,337.020569 
	C169.935852,338.871124 158.263412,339.967346 156.799438,338.234375 
	C156.187607,337.510132 155.992279,336.035278 156.242874,335.065948 
	C156.734100,333.165710 157.175598,330.822327 158.506500,329.641785 
	C165.316711,323.600830 164.114853,315.684296 164.074341,308.007599 
	C164.063293,305.914429 163.962570,303.701538 160.419922,304.988007 
z"/>
<path fill="#50C2D6" opacity="1.000000" stroke="none" 
	d="
M269.659119,178.645309 
	C269.946075,179.319183 269.943726,179.790482 269.927612,180.614197 
	C269.482056,180.963089 269.050262,180.959564 268.293091,180.961456 
	C264.448120,179.502563 260.917847,178.063263 257.413208,176.563934 
	C255.527313,175.757080 253.685471,174.847290 251.371368,173.662476 
	C249.929413,172.603592 248.939835,171.866180 247.714310,171.093018 
	C247.478348,171.057297 247.001419,171.038559 246.628876,171.018570 
	C245.510956,170.989273 244.765579,170.979965 243.783417,170.962860 
	C243.546616,170.955063 243.072906,170.967300 242.974182,170.610840 
	C238.632416,169.153564 234.389389,168.052734 230.146362,166.951920 
	C228.783875,166.666901 227.421387,166.381866 225.803574,165.987457 
	C227.481949,165.710114 229.615997,164.924591 231.316269,165.476196 
	C241.076233,168.642456 250.729172,172.137817 260.427734,175.494568 
	C263.393311,176.520996 266.388306,177.462387 269.659119,178.645309 
z"/>
<path fill="#EBA6E5" opacity="1.000000" stroke="none" 
	d="
M114.295242,201.425110 
	C114.950516,202.571991 116.042679,204.222382 115.902985,205.760910 
	C114.883354,216.991348 118.857285,226.226364 126.556831,234.153366 
	C127.301895,234.920471 127.543228,236.176819 128.021942,237.566162 
	C118.575539,229.908020 113.422150,219.942215 114.100822,207.310226 
	C114.197914,205.503220 114.145187,203.688171 114.295242,201.425110 
z"/>
<path fill="#7D9CCD" opacity="1.000000" stroke="none" 
	d="
M303.599213,218.914688 
	C304.170532,218.896896 304.389587,218.931412 304.937317,219.018829 
	C305.207611,219.225327 305.187195,219.480026 305.085510,219.518188 
	C295.859161,222.980606 297.173004,230.812622 297.339569,238.168839 
	C297.354431,238.825653 297.363434,239.482590 297.005554,240.590698 
	C296.099884,241.016861 295.563873,240.991821 295.027832,240.966766 
	C295.367432,235.947281 295.707062,230.927795 296.263611,225.272614 
	C296.629730,224.088425 296.778900,223.539917 296.928070,222.991409 
	C296.928070,222.991409 296.987122,222.522583 297.010193,222.287994 
	C299.104523,221.024582 301.175720,219.995789 303.599213,218.914688 
z"/>
<path fill="#0D313B" opacity="1.000000" stroke="none" 
	d="
M178.940094,297.965424 
	C178.940094,297.965424 179.148849,297.699402 179.389725,297.266785 
	C180.237656,295.058777 180.844696,293.283447 181.451752,291.508087 
	C181.584198,292.145020 182.002335,292.891388 181.806534,293.402588 
	C178.550797,301.902374 179.175720,310.925568 177.856064,319.921021 
	C177.466217,313.928009 177.394165,307.739685 177.637665,300.938507 
	C178.282166,299.538910 178.611130,298.752167 178.940094,297.965424 
z"/>
<path fill="#51D8F3" opacity="1.000000" stroke="none" 
	d="
M154.003845,289.004761 
	C152.427307,291.495758 150.850769,293.986755 148.911972,296.663879 
	C148.181000,296.555206 147.812286,296.260437 147.356430,295.627289 
	C147.116592,294.854492 146.963898,294.420105 146.811218,293.985687 
	C146.808182,293.219849 146.805145,292.454010 146.835999,291.415588 
	C146.869873,291.143005 147.189896,291.037659 147.402954,290.827576 
	C147.753128,289.415710 147.890259,288.213898 148.023987,286.676727 
	C148.028732,285.894226 148.036850,285.447113 148.350800,284.867432 
	C149.441971,285.358673 150.228699,285.980743 151.012314,286.606720 
	C152.010818,287.404388 153.006790,288.205261 154.003845,289.004761 
z"/>
<path fill="#50C2D6" opacity="1.000000" stroke="none" 
	d="
M243.031006,267.978058 
	C243.046707,267.540863 243.062408,267.103638 243.136597,266.007568 
	C243.105972,264.893799 243.016846,264.438843 242.927704,263.983917 
	C242.988617,263.546478 243.049561,263.109009 243.209961,262.152802 
	C243.444458,261.168304 243.579483,260.702576 243.825089,260.150452 
	C243.935654,260.064026 244.159958,259.895386 244.356659,260.169983 
	C245.009094,263.652008 245.464828,266.859497 246.012024,270.412262 
	C248.041000,271.523560 249.978531,272.289581 251.890656,273.363007 
	C251.559509,274.428131 251.253784,275.185791 250.710098,276.132660 
	C249.936081,276.915222 249.400009,277.508606 248.629761,278.106445 
	C248.395584,278.110962 247.929428,278.157623 247.929428,278.157623 
	C247.738220,277.881775 247.547028,277.605896 247.079926,276.829834 
	C245.546356,273.545776 244.288681,270.761902 243.031006,267.978058 
z"/>
<path fill="#50C2D6" opacity="1.000000" stroke="none" 
	d="
M229.972290,263.292999 
	C228.869659,263.497375 227.767014,263.701752 226.065399,263.883423 
	C225.279724,263.793213 225.093018,263.725708 225.036011,263.335510 
	C230.033005,261.221100 234.839233,259.215027 239.813171,257.797302 
	C240.968872,257.467926 242.695847,259.142761 244.159958,259.895386 
	C244.159958,259.895386 243.935654,260.064026 243.454330,260.000305 
	C238.639435,261.055420 234.305862,262.174225 229.972290,263.292999 
z"/>
<path fill="#0D313B" opacity="1.000000" stroke="none" 
	d="
M183.679092,272.944641 
	C183.202118,272.317566 183.066116,271.541504 182.940628,270.057678 
	C182.922180,268.900909 182.893234,268.451935 182.986877,267.619995 
	C183.274765,265.669647 183.440094,264.102295 183.943390,262.522156 
	C187.198532,262.970581 190.115707,263.431763 193.334335,264.017578 
	C194.067993,264.155548 194.500198,264.168976 195.210129,264.369659 
	C196.349106,264.779541 197.210327,265.002136 198.071564,265.224731 
	C195.705307,265.282776 193.236923,265.799744 190.994598,265.300842 
	C186.678040,264.340302 184.308899,265.088257 184.820602,270.106873 
	C184.908279,270.966980 184.304443,271.897583 183.679092,272.944641 
z"/>
<path fill="#0D313B" opacity="1.000000" stroke="none" 
	d="
M137.050186,333.934814 
	C139.730774,333.999969 142.411377,334.065094 145.837936,334.099976 
	C146.990494,333.970642 147.397079,333.871643 147.914429,333.899323 
	C148.025192,334.026031 148.245178,334.280792 148.245178,334.280792 
	C144.049484,334.583832 139.371262,336.173004 135.792984,334.830475 
	C132.170303,333.471252 134.367661,329.673065 136.762833,327.488953 
	C136.890457,328.473846 136.694168,329.149139 136.497864,329.824463 
	C136.304581,330.353516 136.111282,330.882568 135.845795,332.034180 
	C136.199127,333.082764 136.624649,333.508789 137.050186,333.934814 
z"/>
<path fill="#0D313B" opacity="1.000000" stroke="none" 
	d="
M153.227722,324.827393 
	C154.964615,319.012115 157.017563,313.053650 159.314087,306.827271 
	C160.833954,311.992340 157.281509,316.287994 156.036591,321.121552 
	C155.698074,322.435913 154.400940,323.503418 153.227722,324.827393 
z"/>
<path fill="#50C2D6" opacity="1.000000" stroke="none" 
	d="
M181.481857,291.155182 
	C180.844696,293.283447 180.237656,295.058777 179.387344,297.097717 
	C180.100616,290.324005 181.057144,283.286682 182.365784,276.116241 
	C182.812241,276.138153 182.906616,276.293243 182.914703,277.088135 
	C182.584335,281.160919 182.340271,284.593872 182.096191,288.026825 
	C181.901443,288.951965 181.706711,289.877136 181.481857,291.155182 
z"/>
<path fill="#9F88D0" opacity="1.000000" stroke="none" 
	d="
M285.512634,333.750427 
	C286.883301,334.461853 287.873596,335.897278 289.027374,336.043610 
	C291.765778,336.390839 294.581696,336.127136 297.831055,336.186646 
	C293.574432,336.879730 288.852997,337.496490 282.762970,338.292023 
	C284.076874,335.924194 284.641724,334.906311 285.512634,333.750427 
z"/>
<path fill="#0D313B" opacity="1.000000" stroke="none" 
	d="
M145.842941,311.205750 
	C146.176712,311.469543 146.215836,311.906616 146.108124,312.974304 
	C145.900620,314.041382 145.839935,314.477875 145.779266,314.914398 
	C145.496582,315.702911 145.213913,316.491455 144.665756,317.829712 
	C144.157593,319.211578 143.914917,320.043732 143.672241,320.875854 
	C143.402527,321.364716 143.132812,321.853577 142.599915,322.814758 
	C142.198547,323.845337 142.060379,324.403625 141.922211,324.961945 
	C141.754837,324.990448 141.587494,325.018921 141.183228,324.953888 
	C139.180237,319.240112 143.121002,315.567902 145.842941,311.205750 
z"/>
<path fill="#0D313B" opacity="1.000000" stroke="none" 
	d="
M230.252594,263.494507 
	C234.305862,262.174225 238.639435,261.055420 243.343765,260.086731 
	C243.579483,260.702576 243.444458,261.168304 243.160828,261.824951 
	C238.852463,262.575928 234.692673,263.135956 230.252594,263.494507 
z"/>
<path fill="#85A3DA" opacity="1.000000" stroke="none" 
	d="
M276.966248,285.028076 
	C278.220703,287.148590 279.475128,289.269104 280.833984,292.073975 
	C280.887787,293.006256 280.837128,293.254120 280.786499,293.502014 
	C278.653229,291.265747 276.519958,289.029480 274.009888,286.816223 
	C273.905914,286.195190 274.178741,285.551178 275.049927,284.928345 
	C276.087616,284.975708 276.526917,285.001892 276.966248,285.028076 
z"/>
<path fill="#50C2D6" opacity="1.000000" stroke="none" 
	d="
M198.487228,265.202545 
	C197.210327,265.002136 196.349106,264.779541 195.425323,264.100769 
	C196.243210,263.438110 197.123657,263.231659 198.420792,263.044403 
	C202.890411,263.374023 206.943375,263.684479 211.278641,264.022614 
	C212.039215,264.317566 212.517487,264.584839 212.555176,264.984009 
	C209.363632,265.292511 206.612640,265.469055 203.861649,265.645569 
	C202.208725,265.490509 200.555817,265.335419 198.487228,265.202545 
z"/>
<path fill="#8ABFE6" opacity="1.000000" stroke="none" 
	d="
M215.367584,170.910522 
	C214.259415,168.515732 213.383224,166.003128 216.785873,164.193604 
	C217.974228,164.043991 218.961884,164.170639 220.016174,164.555267 
	C218.627899,166.815903 217.172989,168.818542 215.367584,170.910522 
z"/>
<path fill="#0D313B" opacity="1.000000" stroke="none" 
	d="
M204.076889,265.938171 
	C206.612640,265.469055 209.363632,265.292511 212.906433,265.045044 
	C214.154694,265.085022 214.611145,265.195892 215.067596,265.306732 
	C211.475769,265.614746 207.883957,265.922760 204.076889,265.938171 
z"/>
<path fill="#7D9CCD" opacity="1.000000" stroke="none" 
	d="
M300.803894,257.661011 
	C299.625641,255.512726 298.573700,252.977966 297.276489,249.803726 
	C296.968231,248.105438 296.905273,247.046631 297.072876,245.977722 
	C297.303467,245.967636 297.759033,246.042068 297.759033,246.042068 
	C298.816101,249.786209 299.873169,253.530365 300.803894,257.661011 
z"/>
<path fill="#51D8F3" opacity="1.000000" stroke="none" 
	d="
M148.927765,300.944550 
	C148.616302,303.558075 148.304855,306.171570 147.618881,308.570709 
	C147.161621,307.902344 147.078873,307.448334 146.996124,306.994354 
	C147.102692,305.289215 147.209259,303.584076 147.656006,301.473785 
	C148.305496,301.017944 148.616013,300.976593 148.927765,300.944550 
z"/>
<path fill="#0D313B" opacity="1.000000" stroke="none" 
	d="
M242.797211,268.205139 
	C244.288681,270.761902 245.546356,273.545776 246.879593,276.674713 
	C241.296494,276.302521 243.594345,271.516174 242.797211,268.205139 
z"/>
<path fill="#0D313B" opacity="1.000000" stroke="none" 
	d="
M182.373535,287.775696 
	C182.340271,284.593872 182.584335,281.160919 182.995651,277.348145 
	C182.992218,280.487061 182.821533,284.005798 182.373535,287.775696 
z"/>
<path fill="#9F88D0" opacity="1.000000" stroke="none" 
	d="
M290.144348,318.442383 
	C290.304993,320.955383 290.297607,323.818176 289.991272,326.863037 
	C289.786987,324.294128 289.881653,321.543182 290.144348,318.442383 
z"/>
<path fill="#0D313B" opacity="1.000000" stroke="none" 
	d="
M144.744019,279.278809 
	C145.286728,279.786560 145.620209,280.573059 145.986862,282.062134 
	C146.245499,284.240417 146.470978,285.716125 146.700836,287.581543 
	C146.866791,288.993439 147.028351,290.015533 147.189896,291.037659 
	C147.189896,291.037659 146.869873,291.143005 146.732834,291.045044 
	C145.908798,287.150543 145.221802,283.354065 144.744019,279.278809 
z"/>
<path fill="#51D8F3" opacity="1.000000" stroke="none" 
	d="
M215.396103,265.224640 
	C214.611145,265.195892 214.154694,265.085022 213.346985,264.913116 
	C212.517487,264.584839 212.039215,264.317566 211.371674,263.668732 
	C213.132980,263.216614 215.083588,263.146057 217.013092,263.339478 
	C216.954391,263.955139 216.916779,264.306854 216.852676,264.817657 
	C216.826202,264.976746 217.076477,265.180237 217.076477,265.180237 
	C216.625854,265.167694 216.175232,265.155121 215.396103,265.224640 
z"/>
<path fill="#8CADEF" opacity="1.000000" stroke="none" 
	d="
M297.807007,245.620239 
	C297.759033,246.042068 297.303467,245.967636 296.770630,245.981400 
	C295.831573,245.993576 295.425385,245.991989 295.019196,245.990402 
	C295.015381,244.596008 295.011536,243.201630 295.017761,241.387009 
	C295.563873,240.991821 296.099884,241.016861 296.904541,241.049316 
	C297.400421,242.437286 297.627716,243.817856 297.807007,245.620239 
z"/>
<path fill="#0D313B" opacity="1.000000" stroke="none" 
	d="
M224.906311,263.658173 
	C225.093018,263.725708 225.279724,263.793213 225.740112,263.978027 
	C223.228195,264.617096 220.442596,265.138916 217.366745,265.420471 
	C217.076477,265.180237 216.826202,264.976746 217.237106,264.882507 
	C219.429825,264.486755 221.211655,264.185211 223.318222,263.912231 
	C224.064072,263.846558 224.485199,263.752380 224.906311,263.658173 
z"/>
<path fill="#0D313B" opacity="1.000000" stroke="none" 
	d="
M175.266953,332.861237 
	C175.622986,330.186279 176.333420,327.449829 177.185486,324.346741 
	C176.758514,326.919983 176.189926,329.859863 175.266953,332.861237 
z"/>
<path fill="#EBA6E5" opacity="1.000000" stroke="none" 
	d="
M160.659760,162.956299 
	C158.879807,165.097107 156.878128,165.565079 155.353806,162.316055 
	C155.777786,161.951981 155.970627,161.934158 156.163483,161.916336 
	C157.550888,162.218018 158.938278,162.519699 160.659760,162.956299 
z"/>
<path fill="#8ABFE6" opacity="1.000000" stroke="none" 
	d="
M203.065460,163.956161 
	C203.065460,163.956161 203.065613,163.505066 203.093063,163.281006 
	C204.874802,162.969971 206.629105,162.882996 208.669800,162.958466 
	C208.956223,163.120941 208.976852,163.559494 208.606873,163.775574 
	C207.502045,163.998322 206.767166,164.004990 205.660553,163.994476 
	C204.547699,163.970230 203.806580,163.963196 203.065460,163.956161 
z"/>
<path fill="#4FDAF7" opacity="1.000000" stroke="none" 
	d="
M248.863953,278.101959 
	C249.400009,277.508606 249.936081,276.915222 250.970184,276.395020 
	C251.646988,277.901398 251.825775,279.334595 251.918488,280.902710 
	C251.832428,281.037659 251.733398,281.342041 251.502319,281.201660 
	C250.821503,280.783081 250.371750,280.504913 249.922012,280.226715 
	C249.922012,280.226715 249.762878,279.894379 249.548126,279.529205 
	C249.176910,278.809998 249.020432,278.455994 248.863953,278.101959 
z"/>
<path fill="#0D313B" opacity="1.000000" stroke="none" 
	d="
M149.581360,330.251587 
	C149.840988,330.090149 150.074844,329.897461 150.505920,329.625488 
	C150.137482,331.060333 149.546051,332.543152 148.599915,334.153381 
	C148.245178,334.280792 148.025192,334.026031 148.054810,333.599487 
	C148.583405,332.199158 149.082397,331.225372 149.581360,330.251587 
z"/>
<path fill="#50C2D6" opacity="1.000000" stroke="none" 
	d="
M148.938782,300.558167 
	C148.616013,300.976593 148.305496,301.017944 147.760727,301.059448 
	C147.379562,300.605896 147.233871,300.161499 147.140533,299.001099 
	C147.276459,297.511963 147.360001,296.738800 147.443558,295.965668 
	C147.812286,296.260437 148.181000,296.555206 148.755341,296.966217 
	C148.957230,298.112244 148.953506,299.142029 148.938782,300.558167 
z"/>
<path fill="#50C2D6" opacity="1.000000" stroke="none" 
	d="
M254.936127,282.052429 
	C254.910782,282.951508 254.885437,283.850616 254.771576,285.192322 
	C254.002075,284.864014 253.321121,284.093109 252.372513,282.848755 
	C251.981033,282.030914 251.857208,281.686462 251.733398,281.342041 
	C251.733398,281.342041 251.832428,281.037659 252.184387,281.098755 
	C253.336288,281.457367 254.136200,281.754913 254.936127,282.052429 
z"/>
<path fill="#0D313B" opacity="1.000000" stroke="none" 
	d="
M172.365326,336.984650 
	C172.784470,335.736176 173.560562,334.473022 174.624359,333.067169 
	C174.182129,334.272949 173.452209,335.621460 172.365326,336.984650 
z"/>
<path fill="#50C2D6" opacity="1.000000" stroke="none" 
	d="
M136.844940,329.762695 
	C136.694168,329.149139 136.890457,328.473846 137.127716,327.448364 
	C137.453430,326.994934 137.692261,326.826508 138.318909,326.386597 
	C139.176697,326.134918 139.600754,326.089661 140.024811,326.044403 
	C139.080536,327.263245 138.136261,328.482086 136.844940,329.762695 
z"/>
<path fill="#EBA6E5" opacity="1.000000" stroke="none" 
	d="
M130.226151,240.277863 
	C131.399841,240.751556 132.664124,241.531235 133.964050,242.659348 
	C132.772049,242.199814 131.544388,241.391830 130.226151,240.277863 
z"/>
<path fill="#8ABFE6" opacity="1.000000" stroke="none" 
	d="
M145.226303,251.999969 
	C145.136887,252.197708 145.026489,252.382950 144.758499,252.640381 
	C144.159317,252.100250 143.696762,251.475433 143.222748,250.504547 
	C143.594452,250.111618 143.977646,250.064728 144.689850,250.353241 
	C145.088013,251.125748 145.157150,251.562851 145.226303,251.999969 
z"/>
<path fill="#8ABFE6" opacity="1.000000" stroke="none" 
	d="
M193.093887,164.266876 
	C193.093887,164.266876 192.679153,164.074600 192.610352,163.990219 
	C193.199661,163.729904 193.857773,163.553955 194.798645,163.508514 
	C195.081421,163.639023 195.100555,163.770416 194.774323,163.887268 
	C193.996674,164.091705 193.545288,164.179291 193.093887,164.266876 
z"/>
<path fill="#EBA6E5" opacity="1.000000" stroke="none" 
	d="
M112.743973,193.442490 
	C113.364044,193.880463 114.019882,194.645920 114.476059,195.656616 
	C113.777504,195.191223 113.278625,194.480606 112.743973,193.442490 
z"/>
<path fill="#0D313B" opacity="1.000000" stroke="none" 
	d="
M147.356430,295.627289 
	C147.360001,296.738800 147.276459,297.511963 147.063156,298.653961 
	C146.738159,297.514252 146.542923,296.005646 146.579437,294.241394 
	C146.963898,294.420105 147.116592,294.854492 147.356430,295.627289 
z"/>
<path fill="#DEABE6" opacity="1.000000" stroke="none" 
	d="
M156.227142,161.508743 
	C155.970627,161.934158 155.777786,161.951981 155.295074,161.988510 
	C155.005219,162.007217 154.994186,161.999832 154.985809,161.749786 
	C154.977448,161.499741 154.948318,161.001007 154.948318,161.001007 
	C155.081024,159.854248 155.213730,158.707489 155.566650,157.294037 
	C155.954819,158.385284 156.122803,159.743210 156.227142,161.508743 
z"/>
<path fill="#0D313B" opacity="1.000000" stroke="none" 
	d="
M251.502319,281.201660 
	C251.857208,281.686462 251.981033,282.030914 252.130524,282.650116 
	C251.408386,282.251831 250.660599,281.578796 249.917419,280.566223 
	C250.371750,280.504913 250.821503,280.783081 251.502319,281.201660 
z"/>
<path fill="#50C2D6" opacity="1.000000" stroke="none" 
	d="
M256.705750,286.991882 
	C256.952759,287.505005 256.937408,288.003906 256.875336,288.873444 
	C256.347137,288.679688 255.865692,288.115326 255.389069,287.259399 
	C255.743744,286.971069 256.093567,286.974365 256.705750,286.991882 
z"/>
<path fill="#0D313B" opacity="1.000000" stroke="none" 
	d="
M248.629761,278.106445 
	C249.020432,278.455994 249.176910,278.809998 249.380829,279.452087 
	C248.954880,279.417786 248.481491,279.095428 247.968765,278.465332 
	C247.929428,278.157623 248.395584,278.110962 248.629761,278.106445 
z"/>
<path fill="#EBA6E5" opacity="1.000000" stroke="none" 
	d="
M109.791306,186.356476 
	C110.172531,186.628159 110.514687,187.275482 110.808434,188.308624 
	C110.424103,188.040344 110.088165,187.386215 109.791306,186.356476 
z"/>
<path fill="#8EA4E3" opacity="1.000000" stroke="none" 
	d="
M282.670715,176.801971 
	C282.476624,177.074310 281.941956,177.304611 281.224426,177.357224 
	C281.471069,177.039673 281.900604,176.899796 282.670715,176.801971 
z"/>
<path fill="#0D313B" opacity="1.000000" stroke="none" 
	d="
M140.114700,325.829590 
	C139.600754,326.089661 139.176697,326.134918 138.430389,326.195465 
	C138.596237,325.816833 139.084320,325.422882 139.905853,325.089600 
	C140.239319,325.150269 140.204590,325.614746 140.114700,325.829590 
z"/>
<path fill="#8ABFE6" opacity="1.000000" stroke="none" 
	d="
M223.656036,165.003784 
	C223.436630,165.195328 222.890244,165.337753 222.184158,165.291351 
	C222.459320,165.053268 222.894196,165.003967 223.656036,165.003784 
z"/>
<path fill="#0D313B" opacity="1.000000" stroke="none" 
	d="
M242.736984,264.148041 
	C243.016846,264.438843 243.105972,264.893799 243.080673,265.683472 
	C242.826233,265.449524 242.686249,264.880829 242.736984,264.148041 
z"/>
<path fill="#0D313B" opacity="1.000000" stroke="none" 
	d="
M146.738419,307.259399 
	C147.078873,307.448334 147.161621,307.902344 147.301147,308.701752 
	C147.357925,309.047180 147.013092,309.375305 146.811920,309.502228 
	C146.567398,308.927582 146.524063,308.225983 146.738419,307.259399 
z"/>
<path fill="#B9BAEE" opacity="1.000000" stroke="none" 
	d="
M195.100555,163.770416 
	C195.100555,163.770416 195.081421,163.639023 195.039734,163.587692 
	C195.416199,163.307007 195.834366,163.077667 196.622559,162.965195 
	C196.992599,163.082062 196.986267,163.546173 196.659576,163.764404 
	C195.922104,163.911911 195.511337,163.841156 195.100555,163.770416 
z"/>
<path fill="#A29CEA" opacity="1.000000" stroke="none" 
	d="
M280.847412,293.719055 
	C280.837128,293.254120 280.887787,293.006256 280.988556,292.382202 
	C281.038696,292.006012 281.510437,292.011932 281.746063,292.015747 
	C281.935364,292.545746 281.889038,293.071991 281.749023,293.984863 
	C281.320068,294.374359 281.071075,294.229218 280.847412,293.719055 
z"/>
<path fill="#EBA6E5" opacity="1.000000" stroke="none" 
	d="
M110.817245,189.335236 
	C111.186760,189.570450 111.531471,190.161301 111.848114,191.110641 
	C111.477516,190.876373 111.134979,190.283646 110.817245,189.335236 
z"/>
<path fill="#0D313B" opacity="1.000000" stroke="none" 
	d="
M151.224045,328.823334 
	C151.037827,328.622223 151.088837,328.241516 151.382111,327.688385 
	C151.570007,327.891876 151.515656,328.267822 151.224045,328.823334 
z"/>
<path fill="#EBA6E5" opacity="1.000000" stroke="none" 
	d="
M107.865234,158.302521 
	C108.080566,158.033478 108.265869,158.024933 108.729462,158.012848 
	C108.905792,158.295135 108.743584,158.541260 108.333038,158.866989 
	C108.041702,158.845230 107.938446,158.704147 107.865234,158.302521 
z"/>
<path fill="#0D313B" opacity="1.000000" stroke="none" 
	d="
M152.197784,326.818420 
	C152.010986,326.609222 152.075851,326.233978 152.378830,325.685852 
	C152.561096,325.892792 152.505264,326.272552 152.197784,326.818420 
z"/>
<path fill="#50C2D6" opacity="1.000000" stroke="none" 
	d="
M257.696838,290.392700 
	C257.908752,290.392365 257.992676,290.611023 257.910034,291.050110 
	C257.664581,291.042664 257.606415,290.823059 257.696838,290.392700 
z"/>
<path fill="#50C2D6" opacity="1.000000" stroke="none" 
	d="
M257.788696,292.976166 
	C257.889069,292.865173 257.991394,293.342743 258.026581,293.584473 
	C257.784271,293.670288 257.659790,293.423950 257.788696,292.976166 
z"/>
<path fill="#FAB3E3" opacity="1.000000" stroke="none" 
	d="
M154.812805,161.102844 
	C154.948318,161.001007 154.977448,161.499741 154.979416,161.749451 
	C154.880020,161.734329 154.778671,161.469498 154.812805,161.102844 
z"/>
<path fill="#51D8F3" opacity="1.000000" stroke="none" 
	d="
M182.864288,268.002930 
	C182.893234,268.451935 182.922180,268.900909 182.842987,269.672119 
	C173.260742,270.033661 163.806763,277.342834 160.363480,287.300964 
	C158.819504,286.540619 157.276978,285.781006 155.148727,284.801392 
	C156.042221,282.387634 157.521423,280.193817 159.000305,278.000000 
	C159.000000,278.000000 159.000610,278.000000 159.362213,277.951721 
	C161.687256,276.811615 164.026779,276.088654 165.535385,274.550629 
	C168.622009,271.403839 171.500122,267.982788 173.995987,264.352753 
	C175.461441,262.221375 176.026352,259.470825 176.998169,256.999390 
	C177.000000,257.000000 176.998642,256.996338 177.360489,257.093811 
	C178.184143,258.924988 178.623795,260.666046 179.185440,262.366791 
	C179.208939,262.437927 180.370468,262.133240 181.269196,262.009521 
	C181.714645,262.024567 181.892700,262.033722 182.055176,262.437866 
	C182.314484,264.556183 182.589371,266.279572 182.864288,268.002930 
z"/>
<path fill="#5AD9F7" opacity="1.000000" stroke="none" 
	d="
M159.000610,278.000000 
	C157.521423,280.193817 156.042221,282.387634 154.785309,284.792542 
	C154.839920,286.169891 154.672256,287.336151 154.254227,288.753571 
	C153.006790,288.205261 152.010818,287.404388 151.012314,286.606720 
	C150.228699,285.980743 149.441971,285.358673 148.337830,284.535583 
	C148.021469,283.893738 148.023880,283.451141 148.323959,282.873657 
	C149.894958,281.529663 153.566757,284.146576 152.997391,279.747559 
	C152.998444,279.498779 153.002441,279.001221 153.379501,278.947754 
	C155.504578,278.596161 157.252594,278.298096 159.000610,278.000000 
z"/>
<path fill="#51D8F3" opacity="1.000000" stroke="none" 
	d="
M149.175354,312.611145 
	C149.603867,311.726318 150.113449,311.152954 150.623047,310.579590 
	C150.908844,311.234039 151.194656,311.888519 151.480453,312.542969 
	C150.739120,312.669525 149.997787,312.796082 149.175354,312.611145 
z"/>
<path fill="#50C2D6" opacity="1.000000" stroke="none" 
	d="
M149.228607,330.288513 
	C149.082397,331.225372 148.583405,332.199158 147.944046,333.472778 
	C147.397079,333.871643 146.990494,333.970642 146.276260,334.005188 
	C146.937698,332.735596 147.906784,331.530487 149.228607,330.288513 
z"/>
<path fill="#50C2D6" opacity="1.000000" stroke="none" 
	d="
M144.013901,320.863800 
	C143.914917,320.043732 144.157593,319.211578 144.635254,318.151947 
	C144.698669,318.900208 144.527115,319.875977 144.013901,320.863800 
z"/>
<path fill="#50C2D6" opacity="1.000000" stroke="none" 
	d="
M142.216370,324.930298 
	C142.060379,324.403625 142.198547,323.845337 142.555054,323.094849 
	C142.685776,323.567993 142.598160,324.233307 142.216370,324.930298 
z"/>
<path fill="#50C2D6" opacity="1.000000" stroke="none" 
	d="
M178.590912,298.073792 
	C178.611130,298.752167 178.282166,299.538910 177.684143,300.518250 
	C177.690628,299.867950 177.966171,299.025055 178.590912,298.073792 
z"/>
<path fill="#50C2D6" opacity="1.000000" stroke="none" 
	d="
M146.016174,314.822601 
	C145.839935,314.477875 145.900620,314.041382 146.107483,313.307373 
	C146.253494,313.583557 146.253296,314.157166 146.016174,314.822601 
z"/>
<path fill="#50C2D6" opacity="1.000000" stroke="none" 
	d="
M137.012909,333.645599 
	C136.624649,333.508789 136.199127,333.082764 135.881805,332.319092 
	C136.318558,332.439789 136.647110,332.898071 137.012909,333.645599 
z"/>
<path fill="#62D6F6" opacity="1.000000" stroke="none" 
	d="
M159.000305,278.000000 
	C157.252594,278.298096 155.504578,278.596161 153.378082,278.571045 
	C152.994965,277.494110 152.990326,276.740387 152.985672,275.986694 
	C152.987793,275.544403 152.989899,275.102081 153.363129,274.320312 
	C156.548401,272.094849 159.843079,270.653748 162.082336,268.235413 
	C167.720627,262.146149 173.110275,255.790634 178.163040,249.206818 
	C182.111786,244.061584 185.405640,238.413712 188.990463,232.989182 
	C189.303360,232.518707 189.616257,232.048218 190.314224,231.237015 
	C191.460754,229.592194 192.222214,228.288086 192.983673,226.983978 
	C193.167664,226.441620 193.351624,225.899277 194.119644,225.122452 
	C195.250824,224.543381 195.969971,224.322128 196.318954,223.835434 
	C200.633698,217.817871 204.829941,211.714569 209.190384,205.730789 
	C212.451187,201.255997 215.901443,196.919083 219.275986,192.527451 
	C220.782364,190.567032 222.372604,188.667938 223.814026,186.661453 
	C226.286835,183.219269 228.461899,179.536362 231.187073,176.314041 
	C232.482346,174.782501 234.725937,174.021606 236.597519,173.019089 
	C238.016983,172.258713 239.527527,171.668411 241.343048,171.000397 
	C242.150009,170.987991 242.611450,170.977646 243.072906,170.967285 
	C243.072906,170.967300 243.546616,170.955063 243.775238,171.337433 
	C243.002167,173.145920 242.000488,174.572037 240.655930,176.044525 
	C238.608688,177.608490 236.724426,178.968582 235.232651,180.672318 
	C230.126297,186.504211 225.107880,192.415222 220.148834,198.373413 
	C213.490585,206.373199 206.662674,214.250610 200.375656,222.535721 
	C192.731400,232.609375 185.548401,243.034393 178.247284,253.364960 
	C177.538116,254.368378 177.401184,255.776215 176.998642,256.996338 
	C176.998642,256.996338 177.000000,257.000000 176.653259,257.046417 
	C174.722031,258.694916 173.109283,260.270172 171.558807,261.904510 
	C168.085938,265.565155 164.523560,269.152557 161.255112,272.989136 
	C160.114532,274.327972 159.730270,276.311096 159.000610,278.000000 
	C159.000610,278.000000 159.000000,278.000000 159.000305,278.000000 
z"/>
<path fill="#6DD3F3" opacity="1.000000" stroke="none" 
	d="
M240.997559,171.002441 
	C239.527527,171.668411 238.016983,172.258713 236.597519,173.019089 
	C234.725937,174.021606 232.482346,174.782501 231.187073,176.314041 
	C228.461899,179.536362 226.286835,183.219269 223.814026,186.661453 
	C222.372604,188.667938 220.782364,190.567032 219.275986,192.527451 
	C215.901443,196.919083 212.451187,201.255997 209.190384,205.730789 
	C204.829941,211.714569 200.633698,217.817871 196.318954,223.835434 
	C195.969971,224.322128 195.250824,224.543381 194.347717,224.940399 
	C195.551102,221.532425 197.110489,218.072021 199.177444,214.260132 
	C201.122742,212.272186 202.560455,210.635727 203.998169,208.999268 
	C204.795486,207.119232 205.592819,205.239197 207.039566,203.133331 
	C211.457733,200.589539 214.767563,197.932816 214.999359,193.004013 
	C215.302429,192.872971 215.555328,192.677155 216.214920,192.138092 
	C217.113297,190.904984 217.554825,189.950333 217.996338,188.995667 
	C217.997543,188.551834 217.998749,188.108017 218.333389,187.267731 
	C221.004791,184.148346 223.678757,181.642532 225.608734,178.655960 
	C229.300156,172.943619 233.260422,168.334518 240.997559,171.002441 
z"/>
<path fill="#6DD3F3" opacity="1.000000" stroke="none" 
	d="
M188.619263,232.999115 
	C185.405640,238.413712 182.111786,244.061584 178.163040,249.206818 
	C173.110275,255.790634 167.720627,262.146149 162.082336,268.235413 
	C159.843079,270.653748 156.548401,272.094849 153.365784,273.988586 
	C154.000000,272.539185 154.721970,270.724609 156.049911,269.681641 
	C166.264008,261.659454 173.624756,251.317459 180.297394,240.389282 
	C182.257004,237.179916 183.589920,233.306610 188.619263,232.999115 
z"/>
<path fill="#6ED0F0" opacity="1.000000" stroke="none" 
	d="
M241.343048,171.000397 
	C233.260422,168.334518 229.300156,172.943619 225.608734,178.655960 
	C223.678757,181.642532 221.004791,184.148346 218.335846,186.934860 
	C219.155014,184.632050 220.229187,182.224731 221.476685,179.910843 
	C222.719482,177.605713 224.857422,176.029312 224.425644,172.595459 
	C224.224869,170.998703 227.655624,168.945328 229.793274,167.025436 
	C234.389389,168.052734 238.632416,169.153564 242.974182,170.610840 
	C242.611450,170.977646 242.150009,170.987991 241.343048,171.000397 
z"/>
<path fill="#8ABFE6" opacity="1.000000" stroke="none" 
	d="
M206.317505,192.811615 
	C208.774734,185.710541 211.533066,178.438492 214.646606,171.091766 
	C215.606247,176.042389 214.293503,180.409256 211.144684,184.463882 
	C209.256729,186.894928 208.102585,189.895859 206.317505,192.811615 
z"/>
<path fill="#6ED0F0" opacity="1.000000" stroke="none" 
	d="
M214.706390,193.165344 
	C214.767563,197.932816 211.457733,200.589539 207.346008,202.953278 
	C209.473190,199.774948 211.943314,196.550812 214.706390,193.165344 
z"/>
<path fill="#8ABFE6" opacity="1.000000" stroke="none" 
	d="
M199.390060,201.990158 
	C201.118652,199.367294 203.212280,196.736603 205.646225,194.061249 
	C203.909393,196.671844 201.832245,199.327087 199.390060,201.990158 
z"/>
<path fill="#6DD3F3" opacity="1.000000" stroke="none" 
	d="
M152.611755,276.043213 
	C152.990326,276.740387 152.994965,277.494110 153.001038,278.624512 
	C153.002441,279.001221 152.998444,279.498779 152.571747,279.748413 
	C150.447571,280.007843 148.750076,280.017639 147.052582,280.027405 
	C146.731461,276.012390 150.417633,277.287811 152.611755,276.043213 
z"/>
<path fill="#62D6F6" opacity="1.000000" stroke="none" 
	d="
M147.043182,280.354797 
	C148.750076,280.017639 150.447571,280.007843 152.570709,279.997192 
	C153.566757,284.146576 149.894958,281.529663 148.200531,282.665405 
	C147.580795,282.329437 147.331711,282.129730 147.032211,281.992920 
	C147.032745,281.556000 147.033264,281.119049 147.043182,280.354797 
z"/>
<path fill="#6ED0F0" opacity="1.000000" stroke="none" 
	d="
M203.657257,209.044632 
	C202.560455,210.635727 201.122742,212.272186 199.344360,213.953857 
	C200.441223,212.362717 201.878769,210.726349 203.657257,209.044632 
z"/>
<path fill="#6DD3F3" opacity="1.000000" stroke="none" 
	d="
M192.633789,227.038971 
	C192.222214,228.288086 191.460754,229.592194 190.346603,230.945602 
	C190.757233,229.694595 191.520569,228.394272 192.633789,227.038971 
z"/>
<path fill="#6DD3F3" opacity="1.000000" stroke="none" 
	d="
M146.811203,281.995972 
	C147.331711,282.129730 147.580795,282.329437 147.902863,282.800293 
	C148.023880,283.451141 148.021469,283.893738 148.032013,284.668152 
	C148.036850,285.447113 148.028732,285.894226 147.689346,286.708435 
	C147.137543,287.114288 146.916992,287.153046 146.696442,287.191803 
	C146.470978,285.716125 146.245499,284.240417 146.084076,282.383972 
	C146.148132,282.003204 146.590195,281.998993 146.811203,281.995972 
z"/>
<path fill="#6ED0F0" opacity="1.000000" stroke="none" 
	d="
M217.662064,189.066437 
	C217.554825,189.950333 217.113297,190.904984 216.337112,191.929306 
	C216.444229,191.045044 216.886002,190.091125 217.662064,189.066437 
z"/>
<path fill="#72C0F3" opacity="1.000000" stroke="none" 
	d="
M259.533783,294.999420 
	C259.118805,294.562897 259.068726,294.122162 259.009155,293.349060 
	C261.015015,290.466858 263.088654,287.960297 265.025055,285.351837 
	C266.303314,283.630035 267.105499,281.478973 268.599762,280.005920 
	C276.928223,271.795624 281.628082,261.810974 283.707886,250.428436 
	C284.718079,244.899475 287.409760,239.194641 286.690399,233.931610 
	C285.107666,222.352142 281.978912,210.969040 279.188538,199.577469 
	C278.165253,195.399948 277.567627,190.809937 272.577576,188.598389 
	C271.851593,188.276657 272.811127,184.151855 272.990845,181.409546 
	C274.707977,181.021439 276.424988,181.010651 278.570923,181.000229 
	C279.556000,182.006454 280.839233,183.343567 280.555359,183.966583 
	C277.891602,189.812347 281.692505,194.277527 284.000702,198.665070 
	C290.554108,211.122101 291.967224,224.541733 290.677521,237.968658 
	C289.824554,246.849030 287.242096,255.590363 283.382050,264.166840 
	C278.140900,275.811890 269.256500,284.362610 262.224487,294.435822 
	C261.882965,294.925049 260.693329,294.822266 259.533783,294.999420 
z"/>
<path fill="#84B2ED" opacity="1.000000" stroke="none" 
	d="
M294.862244,246.321442 
	C295.425385,245.991989 295.831573,245.993576 296.540039,245.991486 
	C296.905273,247.046631 296.968231,248.105438 297.041199,249.559814 
	C296.729279,250.678711 296.219635,251.376617 296.117676,252.129715 
	C295.655853,255.540146 296.035431,259.272644 294.751465,262.314972 
	C292.811981,266.910339 289.759766,271.039581 287.143036,275.344116 
	C285.968079,277.276917 284.207001,279.008575 283.593201,281.091278 
	C282.651917,284.285095 280.837402,285.350891 277.377563,285.019348 
	C276.526917,285.001892 276.087616,284.975708 275.324402,284.883057 
	C278.181427,279.518677 281.671204,274.377991 284.466858,268.884094 
	C288.164154,261.618347 291.317963,254.075989 294.862244,246.321442 
z"/>
<path fill="#84B2ED" opacity="1.000000" stroke="none" 
	d="
M270.705444,292.959045 
	C271.022980,293.352173 271.138641,293.748444 270.997253,294.000610 
	C268.405060,298.624207 265.155182,302.976562 265.095245,308.622314 
	C263.742340,308.471008 261.288391,308.535248 261.209900,308.134399 
	C260.553467,304.781433 260.333618,301.343018 259.980103,297.483948 
	C264.575775,297.880341 264.575775,297.880341 267.906433,291.479065 
	C268.735992,291.953217 269.559998,292.424164 270.705444,292.959045 
z"/>
<path fill="#84B2ED" opacity="1.000000" stroke="none" 
	d="
M296.653564,223.037231 
	C296.778900,223.539917 296.629730,224.088425 296.266663,224.830200 
	C296.161530,224.376663 296.270325,223.729858 296.653564,223.037231 
z"/>
<path fill="#56D5F6" opacity="1.000000" stroke="none" 
	d="
M255.155060,281.921570 
	C254.136200,281.754913 253.336288,281.457367 252.270462,280.963806 
	C251.825775,279.334595 251.646988,277.901398 251.208130,276.205811 
	C251.253784,275.185791 251.559509,274.428131 252.247986,273.336609 
	C253.421280,272.335144 254.211853,271.667572 255.371338,270.990875 
	C257.493073,268.654480 259.245911,266.327240 261.047546,263.637756 
	C262.397522,259.183441 263.698761,255.091431 265.204407,250.843216 
	C265.272949,250.124802 265.137085,249.562576 265.001221,248.667084 
	C265.001221,247.889389 265.001221,247.445007 265.365662,246.902939 
	C266.153015,244.870255 266.575897,242.935242 266.999176,240.571716 
	C266.999298,238.428726 266.999054,236.714218 266.997131,234.594437 
	C266.330292,231.459641 265.665131,228.730118 265.000000,225.572113 
	C264.999603,223.429062 264.999176,221.714539 264.944275,219.688049 
	C264.260254,218.917191 263.630737,218.458282 263.000916,217.624435 
	C263.000000,216.499573 262.999390,215.749649 262.988586,214.615601 
	C259.641083,207.786179 255.921234,201.504257 253.079071,194.847595 
	C250.475616,188.749954 246.651123,185.808777 240.044128,186.654373 
	C241.391571,184.206436 242.696091,182.103516 244.389771,180.001724 
	C247.229324,181.414673 250.142227,182.386017 252.012833,184.350067 
	C254.340225,186.793716 255.795624,190.064362 257.647247,192.965317 
	C265.019867,204.516281 270.285217,216.984680 272.532440,230.482269 
	C274.165436,240.290619 272.278931,249.948517 267.986237,258.877167 
	C264.356445,266.427002 260.021637,273.637878 255.998871,280.998779 
	C255.790573,281.262756 255.582275,281.526703 255.155060,281.921570 
z"/>
<path fill="#5BD1F5" opacity="1.000000" stroke="none" 
	d="
M256.383545,280.998108 
	C260.021637,273.637878 264.356445,266.427002 267.986237,258.877167 
	C272.278931,249.948517 274.165436,240.290619 272.532440,230.482269 
	C270.285217,216.984680 265.019867,204.516281 257.647247,192.965317 
	C255.795624,190.064362 254.340225,186.793716 252.012833,184.350067 
	C250.142227,182.386017 247.229324,181.414673 244.334198,179.684723 
	C242.925919,178.243790 241.962372,177.120987 240.998810,175.998169 
	C242.000488,174.572037 243.002167,173.145920 244.012024,171.345215 
	C244.765579,170.979965 245.510956,170.989273 246.717255,171.153168 
	C247.178207,171.307739 247.598373,171.423584 247.598373,171.423584 
	C247.598373,171.423584 247.950272,171.128754 247.950272,171.128754 
	C248.939835,171.866180 249.929413,172.603592 250.990372,173.650269 
	C249.889618,174.515640 248.717453,175.071747 246.278000,176.229095 
	C248.685226,176.625641 249.938705,176.586029 250.962479,177.051575 
	C253.149139,178.045929 257.029388,179.325424 257.014862,180.446671 
	C256.956604,184.950302 258.303711,187.399841 262.920319,187.776520 
	C263.216125,187.800659 263.693085,188.549881 263.682404,188.951050 
	C263.459930,197.305832 268.734070,203.317612 272.141541,210.250961 
	C274.911621,215.887329 276.531738,222.586624 276.712097,228.870499 
	C276.931610,236.519333 275.012512,244.216568 274.192230,251.911407 
	C273.114594,262.021057 265.624542,269.067261 261.841675,277.890228 
	C261.203949,279.377594 258.511383,279.983978 256.383545,280.998108 
z"/>
<path fill="#ACBFF0" opacity="1.000000" stroke="none" 
	d="
M206.032303,164.011673 
	C206.767166,164.004990 207.502045,163.998322 208.603546,163.995056 
	C208.903397,176.024658 204.499557,186.534622 197.840820,196.311707 
	C188.169632,210.512009 178.918716,225.012405 168.849960,238.922562 
	C163.381332,246.477570 156.644897,253.124664 150.349030,260.062164 
	C149.200287,261.327972 147.417969,262.018799 145.587280,262.979919 
	C145.212967,262.240082 145.179504,261.495392 145.537567,260.365723 
	C148.045837,258.061249 150.377182,256.327271 152.232803,254.181885 
	C155.635132,250.248260 158.756805,246.071899 161.995514,241.996765 
	C161.995499,241.996750 162.000000,242.000000 162.297302,241.841354 
	C166.062347,236.788193 169.530060,231.893692 172.997772,226.999176 
	C173.181274,226.455811 173.364761,225.912460 174.122803,225.136215 
	C175.257202,224.572388 176.050064,224.380585 176.342819,223.890198 
	C183.567368,211.788727 192.445419,200.840195 198.271881,187.666290 
	C201.722733,179.863815 204.274933,172.173447 206.032303,164.011673 
z"/>
<path fill="#D1B4EE" opacity="1.000000" stroke="none" 
	d="
M194.774323,163.887268 
	C195.511337,163.841156 195.922104,163.911911 196.645569,163.996063 
	C198.392807,170.401779 196.809128,176.262253 194.526794,182.275330 
	C189.867569,194.550583 183.129715,205.679718 175.659775,216.261856 
	C167.418915,227.936188 158.140732,238.880722 149.221603,250.069183 
	C148.483994,250.994446 147.037354,251.354477 145.573242,251.988556 
	C145.157150,251.562851 145.088013,251.125748 144.981750,250.358734 
	C145.275803,248.947357 145.291122,247.565262 145.988617,246.832474 
	C151.078018,241.485657 156.697815,236.593475 161.374619,230.918625 
	C165.853119,225.484360 169.588730,219.398087 173.299057,213.381454 
	C177.195404,207.063156 181.103058,200.686600 184.222992,193.971802 
	C187.856216,186.152267 190.747147,177.976913 193.688156,169.857422 
	C194.179428,168.501114 193.287659,166.643860 193.064423,164.642487 
	C193.545288,164.179291 193.996674,164.091705 194.774323,163.887268 
z"/>
<path fill="#B9BAEE" opacity="1.000000" stroke="none" 
	d="
M205.660553,163.994476 
	C204.274933,172.173447 201.722733,179.863815 198.271881,187.666290 
	C192.445419,200.840195 183.567368,211.788727 176.342819,223.890198 
	C176.050064,224.380585 175.257202,224.572388 174.351120,224.953827 
	C175.481293,222.098450 176.517487,218.841095 178.509094,216.346542 
	C187.928329,204.548676 194.580963,191.285843 199.713272,177.217102 
	C201.179123,173.198837 201.870117,168.897903 202.990936,164.341370 
	C203.806580,163.963196 204.547699,163.970230 205.660553,163.994476 
z"/>
<path fill="#B9BAEE" opacity="1.000000" stroke="none" 
	d="
M161.648560,242.044556 
	C158.756805,246.071899 155.635132,250.248260 152.232803,254.181885 
	C150.377182,256.327271 148.045837,258.061249 145.583908,259.994690 
	C145.181168,258.662354 145.123596,257.316132 145.099884,255.571350 
	C147.754150,253.438232 150.536209,251.900787 152.953598,249.918594 
	C155.896622,247.505417 158.532730,244.717926 161.648560,242.044556 
z"/>
<path fill="#B9BAEE" opacity="1.000000" stroke="none" 
	d="
M172.666916,227.062454 
	C169.530060,231.893692 166.062347,236.788193 162.295715,241.839615 
	C163.162109,235.453598 167.990234,231.457336 172.666916,227.062454 
z"/>
<path fill="#62D6F6" opacity="1.000000" stroke="none" 
	d="
M247.714310,171.093018 
	C247.950272,171.128754 247.598373,171.423584 247.598373,171.423584 
	C247.598373,171.423584 247.178207,171.307739 247.089813,171.173157 
	C247.001419,171.038559 247.478348,171.057297 247.714310,171.093018 
z"/>
<path fill="#50C2D6" opacity="1.000000" stroke="none" 
	d="
M146.700836,287.581543 
	C146.916992,287.153046 147.137543,287.114288 147.692749,287.043823 
	C147.890259,288.213898 147.753128,289.415710 147.402954,290.827576 
	C147.028351,290.015533 146.866791,288.993439 146.700836,287.581543 
z"/>
<path fill="#48DEF7" opacity="1.000000" stroke="none" 
	d="
M225.036011,263.335510 
	C224.485199,263.752380 224.064072,263.846558 223.027649,263.670166 
	C220.619614,263.291565 218.826889,263.183533 217.034180,263.075500 
	C215.083588,263.146057 213.132980,263.216614 211.089355,263.641022 
	C206.943375,263.684479 202.890411,263.374023 198.339417,262.696320 
	C196.211304,262.242126 194.581253,262.155243 192.539490,262.060516 
	C189.754349,261.695587 187.380936,261.338470 185.005402,260.609375 
	C185.000366,259.492401 184.997437,258.747406 185.040588,257.651733 
	C187.063873,254.694626 188.966827,252.027618 191.033508,249.494202 
	C195.547195,243.961121 199.835510,238.329254 201.346619,230.954315 
	C203.127304,229.593903 204.668350,228.377472 205.978912,226.949509 
	C210.758392,221.741882 215.493103,216.492126 220.178818,211.199921 
	C222.524155,208.550964 224.449066,205.462204 227.068085,203.140945 
	C230.049255,200.498734 233.353561,197.186356 236.950272,196.527237 
	C241.779587,195.642212 245.567245,198.816498 247.192795,203.949051 
	C247.831039,205.964294 248.857635,208.027924 250.235367,209.609604 
	C258.910919,219.569305 259.369629,231.863525 258.917816,243.831390 
	C258.639130,251.213913 255.348938,258.482727 253.410797,265.802612 
	C252.804962,265.847198 252.199127,265.891785 251.593292,265.936371 
	C250.430130,264.678497 249.266968,263.420624 247.966339,262.014130 
	C247.262329,264.785370 246.591461,267.426147 245.920593,270.066956 
	C245.464828,266.859497 245.009094,263.652008 244.356659,260.169983 
	C242.695847,259.142761 240.968872,257.467926 239.813171,257.797302 
	C234.839233,259.215027 230.033005,261.221100 225.036011,263.335510 
z"/>
<path fill="#4FDAF7" opacity="1.000000" stroke="none" 
	d="
M246.012024,270.412262 
	C246.591461,267.426147 247.262329,264.785370 247.966339,262.014130 
	C249.266968,263.420624 250.430130,264.678497 251.593292,265.936371 
	C252.199127,265.891785 252.804962,265.847198 253.410797,265.802612 
	C255.348938,258.482727 258.639130,251.213913 258.917816,243.831390 
	C259.369629,231.863525 258.910919,219.569305 250.235367,209.609604 
	C248.857635,208.027924 247.831039,205.964294 247.192795,203.949051 
	C245.567245,198.816498 241.779587,195.642212 236.950272,196.527237 
	C233.353561,197.186356 230.049255,200.498734 227.068085,203.140945 
	C224.449066,205.462204 222.524155,208.550964 220.178818,211.199921 
	C215.493103,216.492126 210.758392,221.741882 205.978912,226.949509 
	C204.668350,228.377472 203.127304,229.593903 201.346008,230.953705 
	C201.000000,231.000000 200.997559,230.998077 200.998016,230.665268 
	C200.998169,229.888702 200.997864,229.444946 200.998718,228.750427 
	C201.000824,228.332520 201.001770,228.165344 201.342178,227.953247 
	C202.786743,226.605789 203.891846,225.303238 205.127365,223.708527 
	C205.506195,222.610168 205.754623,221.803955 206.314514,220.943161 
	C207.082947,220.259201 207.539948,219.629822 208.154144,218.704117 
	C210.541855,215.937927 212.772369,213.468048 215.314331,210.943542 
	C216.083054,210.259659 216.540298,209.630432 216.998672,208.750473 
	C217.000671,208.332626 217.001556,208.165482 217.348404,207.951782 
	C220.114471,205.962250 222.977936,204.373093 224.866791,202.006180 
	C229.475281,196.231262 234.037933,191.140076 242.109863,189.864777 
	C246.541107,189.164688 248.447296,190.109406 250.189163,193.859253 
	C251.758118,197.236847 254.049896,200.273422 255.940140,203.508743 
	C257.434814,206.067047 258.743408,208.734604 260.253845,211.282974 
	C261.035126,212.601135 262.075500,213.765747 262.998779,214.999741 
	C262.999390,215.749649 263.000000,216.499573 263.055389,217.936462 
	C263.739716,219.082291 264.369232,219.541153 264.998779,220.000000 
	C264.999176,221.714539 264.999603,223.429062 264.744080,225.837463 
	C265.325012,229.354126 266.161896,232.176926 266.998779,234.999725 
	C266.999054,236.714218 266.999298,238.428726 266.634735,240.669174 
	C265.847015,243.130295 265.424103,245.065445 265.001221,247.000610 
	C265.001221,247.445007 265.001221,247.889389 264.796570,248.823151 
	C264.727936,249.874817 264.863983,250.437119 265.000000,250.999405 
	C263.698761,255.091431 262.397522,259.183441 260.693604,263.687378 
	C257.373932,265.515045 254.352341,266.850616 255.002441,271.000000 
	C254.211853,271.667572 253.421280,272.335144 252.273392,273.029175 
	C249.978531,272.289581 248.041000,271.523560 246.012024,270.412262 
z"/>
<path fill="#50C2D6" opacity="1.000000" stroke="none" 
	d="
M185.007523,260.981384 
	C187.380936,261.338470 189.754349,261.695587 192.557983,262.363647 
	C193.003098,263.080750 193.017975,263.486877 193.032867,263.892975 
	C190.115707,263.431763 187.198532,262.970581 183.786346,262.379456 
	C183.291306,262.249542 182.973679,261.973297 182.996384,261.748505 
	C183.019089,261.523712 183.038635,261.071747 183.366272,261.050995 
	C184.131775,261.013947 184.569656,260.997681 185.007523,260.981384 
z"/>
<path fill="#51D8F3" opacity="1.000000" stroke="none" 
	d="
M193.334335,264.017578 
	C193.017975,263.486877 193.003098,263.080750 192.969711,262.371521 
	C194.581253,262.155243 196.211304,262.242126 197.922729,262.677124 
	C197.123657,263.231659 196.243210,263.438110 195.147583,263.913452 
	C194.500198,264.168976 194.067993,264.155548 193.334335,264.017578 
z"/>
<path fill="#50C2D6" opacity="1.000000" stroke="none" 
	d="
M182.986862,267.619995 
	C182.589371,266.279572 182.314484,264.556183 182.280746,262.423218 
	C182.521896,262.013641 182.973679,261.973297 182.973679,261.973297 
	C182.973679,261.973297 183.291306,262.249542 183.448364,262.392212 
	C183.440094,264.102295 183.274765,265.669647 182.986862,267.619995 
z"/>
<path fill="#50C2D6" opacity="1.000000" stroke="none" 
	d="
M217.013092,263.339478 
	C218.826889,263.183533 220.619614,263.291565 222.702911,263.641632 
	C221.211655,264.185211 219.429825,264.486755 217.263580,264.723450 
	C216.916779,264.306854 216.954391,263.955139 217.013092,263.339478 
z"/>
<path fill="#5AD9F7" opacity="1.000000" stroke="none" 
	d="
M215.002869,210.998169 
	C212.772369,213.468048 210.541855,215.937927 207.842834,218.759033 
	C206.917236,219.739441 206.460144,220.368591 206.003052,220.997757 
	C205.754623,221.803955 205.506195,222.610168 204.787964,223.753662 
	C203.212997,225.393372 202.107849,226.695770 201.002701,227.998169 
	C201.001770,228.165344 201.000824,228.332520 200.664459,228.819824 
	C199.885803,230.092087 199.442596,231.044220 198.790314,232.118118 
	C198.320450,232.442856 198.125687,232.696518 197.652863,233.047302 
	C192.206482,240.395401 187.104172,247.697098 181.948090,255.313660 
	C181.596832,257.753571 181.299332,259.878601 181.001831,262.003662 
	C180.370468,262.133240 179.208939,262.437927 179.185440,262.366791 
	C178.623795,260.666046 178.184143,258.924988 177.360489,257.093811 
	C177.401184,255.776215 177.538116,254.368378 178.247284,253.364960 
	C185.548401,243.034393 192.731400,232.609375 200.375656,222.535721 
	C206.662674,214.250610 213.490585,206.373199 220.148834,198.373413 
	C225.107880,192.415222 230.126297,186.504211 235.232651,180.672318 
	C236.724426,178.968582 238.608688,177.608490 240.655945,176.044525 
	C241.962372,177.120987 242.925919,178.243790 243.945038,179.683609 
	C242.696091,182.103516 241.391571,184.206436 239.646118,186.654831 
	C237.151398,187.819672 234.623245,188.137360 233.129807,189.549408 
	C227.975266,194.423019 223.141327,199.640686 218.293884,204.828796 
	C217.566208,205.607635 217.418472,206.928314 217.002441,207.998337 
	C217.001556,208.165482 217.000671,208.332626 216.687195,208.805115 
	C215.917374,209.739700 215.460129,210.368927 215.002869,210.998169 
z"/>
<path fill="#4FDAF7" opacity="1.000000" stroke="none" 
	d="
M181.269196,262.009521 
	C181.299332,259.878601 181.596832,257.753571 182.291626,255.265045 
	C186.359894,250.105118 190.127686,245.378525 193.659531,240.481735 
	C195.337357,238.155472 196.565247,235.504669 197.996948,233.000885 
	C198.125687,232.696518 198.320450,232.442856 199.045990,232.005249 
	C200.006348,231.513092 200.501953,231.255585 200.997559,230.998077 
	C200.997559,230.998077 201.000000,231.000000 201.000610,231.000610 
	C199.835510,238.329254 195.547195,243.961121 191.033508,249.494202 
	C188.966827,252.027618 187.063873,254.694626 184.703125,257.723511 
	C183.892609,259.121216 183.465622,260.096497 183.038635,261.071747 
	C183.038635,261.071747 183.019089,261.523712 182.996384,261.748505 
	C182.973679,261.973297 182.521896,262.013641 182.296326,262.028259 
	C181.892700,262.033722 181.714645,262.024567 181.269196,262.009521 
z"/>
<path fill="#5AD9F7" opacity="1.000000" stroke="none" 
	d="
M159.362213,277.951721 
	C159.730270,276.311096 160.114532,274.327972 161.255112,272.989136 
	C164.523560,269.152557 168.085938,265.565155 171.558807,261.904510 
	C173.109283,260.270172 174.722031,258.694916 176.651428,257.045807 
	C176.026352,259.470825 175.461441,262.221375 173.995987,264.352753 
	C171.500122,267.982788 168.622009,271.403839 165.535385,274.550629 
	C164.026779,276.088654 161.687256,276.811615 159.362213,277.951721 
z"/>
<path fill="#51D8F3" opacity="1.000000" stroke="none" 
	d="
M217.348404,207.951782 
	C217.418472,206.928314 217.566208,205.607635 218.293884,204.828796 
	C223.141327,199.640686 227.975266,194.423019 233.129807,189.549408 
	C234.623245,188.137360 237.151398,187.819672 239.603210,186.999847 
	C246.651123,185.808777 250.475616,188.749954 253.079071,194.847595 
	C255.921234,201.504257 259.641083,207.786179 262.988586,214.615601 
	C262.075500,213.765747 261.035126,212.601135 260.253845,211.282974 
	C258.743408,208.734604 257.434814,206.067047 255.940140,203.508743 
	C254.049896,200.273422 251.758118,197.236847 250.189163,193.859253 
	C248.447296,190.109406 246.541107,189.164688 242.109863,189.864777 
	C234.037933,191.140076 229.475281,196.231262 224.866791,202.006180 
	C222.977936,204.373093 220.114471,205.962250 217.348404,207.951782 
z"/>
<path fill="#51D8F3" opacity="1.000000" stroke="none" 
	d="
M255.371338,270.990875 
	C254.352341,266.850616 257.373932,265.515045 260.644806,264.049622 
	C259.245911,266.327240 257.493073,268.654480 255.371338,270.990875 
z"/>
<path fill="#51D8F3" opacity="1.000000" stroke="none" 
	d="
M266.997131,234.594437 
	C266.161896,232.176926 265.325012,229.354126 264.744080,226.265961 
	C265.665131,228.730118 266.330292,231.459641 266.997131,234.594437 
z"/>
<path fill="#51D8F3" opacity="1.000000" stroke="none" 
	d="
M265.365662,246.902939 
	C265.424103,245.065445 265.847015,243.130295 266.634338,241.097672 
	C266.575897,242.935242 266.153015,244.870255 265.365662,246.902939 
z"/>
<path fill="#51D8F3" opacity="1.000000" stroke="none" 
	d="
M265.204407,250.843216 
	C264.863983,250.437119 264.727936,249.874817 264.796570,249.156448 
	C265.137085,249.562576 265.272949,250.124802 265.204407,250.843216 
z"/>
<path fill="#51D8F3" opacity="1.000000" stroke="none" 
	d="
M264.944275,219.688049 
	C264.369232,219.541153 263.739716,219.082291 263.055695,218.311417 
	C263.630737,218.458282 264.260254,218.917191 264.944275,219.688049 
z"/>
<path fill="#51D8F3" opacity="1.000000" stroke="none" 
	d="
M183.366272,261.050995 
	C183.465622,260.096497 183.892609,259.121216 184.657043,258.074219 
	C184.997437,258.747406 185.000366,259.492401 185.005402,260.609375 
	C184.569656,260.997681 184.131775,261.013947 183.366272,261.050995 
z"/>
<path fill="#51D8F3" opacity="1.000000" stroke="none" 
	d="
M201.342178,227.953247 
	C202.107849,226.695770 203.212997,225.393372 204.657547,224.045837 
	C203.891846,225.303238 202.786743,226.605789 201.342178,227.953247 
z"/>
<path fill="#51D8F3" opacity="1.000000" stroke="none" 
	d="
M200.998016,230.665268 
	C200.501953,231.255585 200.006348,231.513092 199.255066,231.883484 
	C199.442596,231.044220 199.885803,230.092087 200.663284,229.070587 
	C200.997864,229.444946 200.998169,229.888702 200.998016,230.665268 
z"/>
<path fill="#51D8F3" opacity="1.000000" stroke="none" 
	d="
M206.314514,220.943161 
	C206.460144,220.368591 206.917236,219.739441 207.685638,219.055359 
	C207.539948,219.629822 207.082947,220.259201 206.314514,220.943161 
z"/>
<path fill="#51D8F3" opacity="1.000000" stroke="none" 
	d="
M215.314331,210.943542 
	C215.460129,210.368927 215.917374,209.739700 216.686096,209.055832 
	C216.540298,209.630432 216.083054,210.259659 215.314331,210.943542 
z"/>
<path fill="#51D8F3" opacity="1.000000" stroke="none" 
	d="
M197.652863,233.047302 
	C196.565247,235.504669 195.337357,238.155472 193.659531,240.481735 
	C190.127686,245.378525 186.359894,250.105118 182.345383,254.950180 
	C187.104172,247.697098 192.206482,240.395401 197.652863,233.047302 
z"/>
</svg>