<?xml version="1.0" encoding="UTF-8"?>
<svg version="1.1" xmlns="http://www.w3.org/2000/svg" width="400" height="400">
<path d="M0 0 C132 0 264 0 400 0 C400 132 400 264 400 400 C268 400 136 400 0 400 C0 268 0 136 0 0 Z " fill="#FDFDFD" transform="translate(0,0)"/>
<path d="M0 0 C132 0 264 0 400 0 C400 132 400 264 400 400 C377.89 400 355.78 400 333 400 C333.33 396.7 333.66 393.4 334 390 C334.88760446 371.42296083 332.90252603 355.37248623 326.63256836 337.90014648 C324.81607927 332.44366844 324.81607927 332.44366844 325.890625 329.8515625 C326.33921875 329.11679687 326.7878125 328.38203125 327.25 327.625 C335.54081505 313.82323142 337.38560659 301.17406005 337.375 285.3125 C337.37729614 283.35389038 337.37729614 283.35389038 337.37963867 281.35571289 C337.21033124 266.37247822 335.34333327 252.37588112 327.890625 239.2265625 C326.83399307 236.58498267 326.93731861 235.6035694 328 233 C328.7425 231.9275 329.485 230.855 330.25 229.75 C334.32267292 223.45801546 335.99363215 216.14677015 338 209 C338.25007813 208.195625 338.50015625 207.39125 338.7578125 206.5625 C343.17680102 190.62924562 339.78791114 170.3776821 332 156 C331.35417969 154.700625 331.35417969 154.700625 330.6953125 153.375 C325.35162418 142.97647138 317.84807734 132.5653849 308 126 C307.92578125 123.2890625 307.92578125 123.2890625 308.3125 119.625 C310.56875096 93.57191939 312.3337583 60.36238319 295.08203125 38.578125 C290.41128442 33.62731405 286.06997734 30.33102482 279.0703125 29.76171875 C269.94051089 29.54965734 264.99875385 31.35056426 258.27734375 37.53515625 C246.25522788 50.54708612 241.99860276 69.81714554 241 87 C237.78184082 86.33722122 235.20775581 85.16354173 232.3125 83.625 C216.80725807 75.74715315 195.78235781 73.90813912 179 79 C173.90308107 80.84652646 168.94637983 82.78708002 164.3359375 85.66015625 C162 87 162 87 159 87 C158.89042969 86.05640625 158.78085938 85.1128125 158.66796875 84.140625 C156.33075777 65.21491659 152.07098071 45.99126186 136.7734375 33.15625 C130.86408499 29.3034563 124.84132916 29.30427161 118 30 C111.32972814 31.80772376 106.12826377 36.61530813 102 42 C92.35897378 58.84459209 90.83886814 77.00991575 90.8125 96 C90.80899536 97.8257959 90.80899536 97.8257959 90.80541992 99.68847656 C90.83621299 105.6055446 91.08413384 111.33891377 91.87207031 117.20068359 C92.84337591 124.83049535 92.84337591 124.83049535 90.12109375 128.60546875 C87.5625 130.875 87.5625 130.875 84.765625 132.94140625 C70.25466373 143.74264437 62.80935128 163.71688722 60.25195312 180.98779297 C58.10890152 198.10313338 61.17728803 217.00591831 71.3125 231.25 C73 234 73 234 72.75390625 235.85546875 C71.8749446 238.35572753 70.78358114 240.67863153 69.625 243.0625 C60.2080017 263.52950208 58.99245647 293.92238062 66.4921875 315.296875 C68.36551731 319.89769537 70.38556479 324.35344475 72.765625 328.71484375 C74 331 74 331 75 334 C74.109375 336.49609375 74.109375 336.49609375 72.75 339.4375 C67.19670551 352.21007733 65.82041446 364.65465006 65.875 378.4375 C65.87113281 379.41009766 65.86726563 380.38269531 65.86328125 381.38476562 C65.86457031 382.34962891 65.86585937 383.31449219 65.8671875 384.30859375 C65.86887939 385.58947876 65.86887939 385.58947876 65.87060547 386.89624023 C66.05321882 391.27654874 66.56376441 395.63764413 67 400 C44.89 400 22.78 400 0 400 C0 268 0 136 0 0 Z " fill="#FEFEFE" transform="translate(0,0)"/>
<path d="M0 0 C13.80185333 8.24118928 19.65076276 24.08858128 23.4375 38.9375 C24.74448766 44.83660648 25.01322482 50.41762278 24.6875 56.4375 C26.04681641 55.73173828 26.04681641 55.73173828 27.43359375 55.01171875 C46.52414203 45.20647703 67.43220696 41.67127207 88.37109375 48.28515625 C94.75459556 50.4720147 100.72920716 53.28386995 106.6875 56.4375 C106.64109375 55.8290625 106.5946875 55.220625 106.546875 54.59375 C105.86826826 38.11330069 112.08099829 20.02613125 122.6875 7.4375 C128.84035825 1.13888876 132.59144679 -1.65728626 141.4375 -1.875 C149.7489569 -1.75410608 154.23132145 0.87057216 160.3125 6.375 C177.43691415 24.35563486 176.1531043 53.21486089 175.80224609 76.22021484 C175.6760527 79.75846279 175.33231591 83.22658659 174.91699219 86.73999023 C174.1307773 92.45787102 174.1307773 92.45787102 176.12109375 97.6328125 C178.20677826 99.44609767 180.38660672 100.91004888 182.6875 102.4375 C193.33592149 112.44119284 200.24756713 125.36504733 203.6875 139.4375 C203.98398437 140.46101562 204.28046875 141.48453125 204.5859375 142.5390625 C209.36801253 160.21957845 207.09196801 179.41583352 198.69165039 195.7019043 C197.69207754 197.42958808 196.53219409 199.06117316 195.375 200.6875 C193.45364059 203.17030662 193.45364059 203.17030662 193.93359375 205.29296875 C194.8125554 207.79322753 195.90391886 210.11613153 197.0625 212.5 C206.4794983 232.96700208 207.69504353 263.35988062 200.1953125 284.734375 C198.32198269 289.33519537 196.30193521 293.79094475 193.921875 298.15234375 C192.57389938 300.49055908 192.57389938 300.49055908 191.6875 303.4375 C192.31052813 305.51358693 192.31052813 305.51358693 193.375 307.75 C198.97508428 321.05020016 200.86556982 333.58828384 200.875 347.875 C200.88724609 348.84759766 200.89949219 349.82019531 200.91210938 350.82226562 C200.91404297 351.78712891 200.91597656 352.75199219 200.91796875 353.74609375 C200.92207764 354.60001709 200.92618652 355.45394043 200.93041992 356.33374023 C200.58464449 360.75167293 199.55657754 365.09211231 198.6875 369.4375 C191.0975 369.4375 183.5075 369.4375 175.6875 369.4375 C176.3475 367.7875 177.0075 366.1375 177.6875 364.4375 C181.642807 347.18026884 179.32622949 324.91957747 169.9375 309.8125 C167.20396721 305.08861364 166.29682645 300.79159316 167.6875 295.4375 C169.23308825 293.18631712 170.93973965 291.37276487 172.87109375 289.4453125 C175.79299601 286.21551086 177.16185239 282.46492048 178.6875 278.4375 C179.0278125 277.66664063 179.368125 276.89578125 179.71875 276.1015625 C185.39390976 260.49487315 184.05201372 239.15866886 178.296875 223.83984375 C176.03646972 219.06117143 173.30325517 214.75524486 170.26171875 210.4375 C168.31283575 206.72349963 168.10145277 204.58169115 168.6875 200.4375 C170.48046875 197.55078125 170.48046875 197.55078125 172.875 194.75 C177.47829399 188.96693098 180.30758103 183.4072627 182.6875 176.4375 C182.93242187 175.77621094 183.17734375 175.11492187 183.4296875 174.43359375 C188.01017759 159.90779299 183.58450695 143.73151391 177 130.5625 C169.65361166 118.23106243 159.1308437 109.41598481 145.6875 104.4375 C142.9988813 104.08173328 140.50282581 103.84139524 137.8125 103.75 C136.76195435 103.69658447 136.76195435 103.69658447 135.69018555 103.64208984 C131.94993361 103.46623086 128.24102792 103.4430386 124.5 103.5625 C120.32300673 103.4255494 118.9604551 102.91717064 115.6875 100.4375 C114.203125 97.8359375 114.203125 97.8359375 112.9375 94.8125 C106.88884172 82.05337096 95.45039981 74.76722332 82.85546875 69.1640625 C77.2667006 67.29106993 71.63960046 67.25486402 65.8125 67.25 C65.04808594 67.23775391 64.28367188 67.22550781 63.49609375 67.21289062 C48.2457875 67.17405283 36.00154995 74.5068419 25.2109375 84.69140625 C21.66340833 88.5519527 19.15490364 92.23850805 17.25 97.125 C15.42059832 101.00333157 14.55833575 101.73310018 10.6875 103.4375 C7.77821954 103.74213477 4.91869408 103.62224263 2 103.5 C-14.1695909 103.1819948 -24.90533489 107.45085386 -36.671875 118.69140625 C-47.70268244 130.22193148 -53.31693258 145.07576689 -53.8125 161 C-53.37279602 174.58827128 -48.72006142 187.68812989 -39.375 197.75 C-37.3125 200.4375 -37.3125 200.4375 -36.75 203.9375 C-37.4214479 208.11539804 -38.80289825 210.04614629 -41.3125 213.4375 C-52.1403425 230.20870085 -53.06467396 250.56332581 -50.1015625 269.8828125 C-48.06831061 279.04251159 -44.22115953 286.24660937 -38.3125 293.4375 C-35.57381494 297.5455276 -35.46395285 300.60955932 -36.3125 305.4375 C-37.61695917 308.23276965 -39.1413057 310.82033325 -40.71484375 313.47265625 C-46.52359261 324.25221709 -47.4913978 335.94603464 -47.5 347.9375 C-47.51224609 348.83597656 -47.52449219 349.73445313 -47.53710938 350.66015625 C-47.55187948 357.42486512 -46.45563976 363.00808072 -44.3125 369.4375 C-51.9025 369.4375 -59.4925 369.4375 -67.3125 369.4375 C-69.56646825 358.16765873 -69.56646825 358.16765873 -69.578125 353.88671875 C-69.58231445 352.94747559 -69.58650391 352.00823242 -69.59082031 351.04052734 C-69.58147461 350.07840332 -69.57212891 349.1162793 -69.5625 348.125 C-69.55234863 346.6083374 -69.55234863 346.6083374 -69.54199219 345.06103516 C-69.36420385 332.18378473 -67.44528244 319.81686441 -62.2109375 307.9375 C-60.34517282 303.60807816 -60.34517282 303.60807816 -61.13671875 299.09765625 C-62.3907356 296.75876936 -62.3907356 296.75876936 -63.8203125 294.67578125 C-71.97259146 282.44736281 -72.69701631 268.98111753 -72.6875 254.75 C-72.68903076 253.44426025 -72.69056152 252.13852051 -72.69213867 250.79321289 C-72.52283124 235.80997822 -70.65583327 221.81338112 -63.203125 208.6640625 C-62.14649307 206.02248267 -62.24981861 205.0410694 -63.3125 202.4375 C-64.055 201.365 -64.7975 200.2925 -65.5625 199.1875 C-69.63517292 192.89551546 -71.30613215 185.58427015 -73.3125 178.4375 C-73.56257813 177.633125 -73.81265625 176.82875 -74.0703125 176 C-78.48930102 160.06674562 -75.10041114 139.8151821 -67.3125 125.4375 C-66.88195312 124.57125 -66.45140625 123.705 -66.0078125 122.8125 C-61.12861861 113.31785242 -53.20374987 100.38312494 -43.3125 95.4375 C-43.3846875 94.60734375 -43.456875 93.7771875 -43.53125 92.921875 C-48.25969122 30.13868331 -48.25969122 30.13868331 -30.171875 7.79296875 C-22.08218628 -0.72321716 -11.44510967 -5.16588608 0 0 Z " fill="#040404" transform="translate(134.3125,30.5625)"/>
<path d="M0 0 C3.59392466 2.78118091 6.84109838 5.73702604 10 9 C10.78117187 9.76763672 10.78117187 9.76763672 11.578125 10.55078125 C19.29891953 18.8064501 20.38433196 30.05855882 20.203125 40.765625 C19.82550099 51.31146639 14.65714176 59.7039524 6.98046875 66.890625 C-5.32877206 76.50494326 -19.14534119 79.70250006 -34.4621582 79.57641602 C-36.79979922 79.5625752 -39.13339902 79.59670678 -41.47070312 79.63476562 C-56.87684004 79.71389804 -71.57269559 75.93391278 -83.08984375 65.01953125 C-90.69497598 56.70694486 -94.40147575 47.93254633 -94.3125 36.625 C-94.30686035 35.87476563 -94.3012207 35.12453125 -94.29541016 34.3515625 C-94.03854657 22.63247936 -89.22080651 14.22986898 -81.1875 5.8125 C-59.34581466 -15.07413066 -24.75193326 -16.72641528 0 0 Z " fill="#FBFBFB" transform="translate(237,195)"/>
<path d="M0 0 C3.59392466 2.78118091 6.84109838 5.73702604 10 9 C10.78117187 9.76763672 10.78117187 9.76763672 11.578125 10.55078125 C19.29891953 18.8064501 20.38433196 30.05855882 20.203125 40.765625 C19.82550099 51.31146639 14.65714176 59.7039524 6.98046875 66.890625 C-5.32877206 76.50494326 -19.14534119 79.70250006 -34.4621582 79.57641602 C-36.79979922 79.5625752 -39.13339902 79.59670678 -41.47070312 79.63476562 C-56.87684004 79.71389804 -71.57269559 75.93391278 -83.08984375 65.01953125 C-90.69497598 56.70694486 -94.40147575 47.93254633 -94.3125 36.625 C-94.30686035 35.87476563 -94.3012207 35.12453125 -94.29541016 34.3515625 C-94.03854657 22.63247936 -89.22080651 14.22986898 -81.1875 5.8125 C-59.34581466 -15.07413066 -24.75193326 -16.72641528 0 0 Z M-75 20 C-79.65226444 27.15814324 -80.75428042 33.55453229 -80 42 C-78.05611944 49.04656702 -73.0017008 55.38123992 -66.875 59.390625 C-64.93914733 60.37321689 -63.02504673 61.21989218 -61 62 C-60.29319092 62.33862061 -59.58638184 62.67724121 -58.8581543 63.02612305 C-55.31621951 64.23298884 -52.01124504 64.32416043 -48.3125 64.3359375 C-47.57354492 64.3425943 -46.83458984 64.3492511 -46.07324219 64.35610962 C-44.50995354 64.36620929 -42.94662202 64.37092747 -41.38330078 64.37060547 C-39.03471987 64.37493598 -36.68808727 64.4111605 -34.33984375 64.44921875 C-21.73708801 64.54540516 -10.2207413 63.35046759 -0.80859375 54.09375 C4.5269132 47.91700761 6.37990348 41.99092383 6.2734375 33.91015625 C5.51244458 25.81101737 0.9062489 19.36210313 -5 14 C-26.38216898 -2.04589111 -57.29529923 -0.42352136 -75 20 Z " fill="#070707" transform="translate(237,195)"/>
<path d="M0 0 C2.49728123 0.2871617 3.67882174 0.64333746 5.37890625 2.53125 C15.98852048 20.17892516 16.70058196 45.15528319 13 65 C11.2365625 64.5359375 11.2365625 64.5359375 9.4375 64.0625 C3.75335394 62.73891894 -1.93480158 62.71297735 -7.7421875 62.63671875 C-11 62 -11 62 -12.92578125 59.9453125 C-14.25592164 56.29830938 -14.40891819 53.01543315 -14.3125 49.1875 C-14.30049561 48.44193848 -14.28849121 47.69637695 -14.27612305 46.92822266 C-13.86966282 30.52798493 -12.18911781 12.18911781 0 0 Z " fill="#FBFBFB" transform="translate(275,50)"/>
<path d="M0 0 C4.28500119 0.84807315 5.51600012 2.35162518 8 6 C15.71923693 19.10813818 17.10023502 34.26575809 17.3125 49.1875 C17.33014404 49.89398682 17.34778809 50.60047363 17.3659668 51.32836914 C17.36019582 55.68441066 17.03149863 58.76558159 14 62 C10.7421875 62.63671875 10.7421875 62.63671875 6.875 62.6875 C1.0026949 62.85681848 -4.31306678 63.50343863 -10 65 C-13.38609491 46.84174937 -13.60732441 21.0267509 -3.62890625 4.765625 C-2.47733338 3.13450195 -1.24730851 1.55913564 0 0 Z " fill="#FCFCFC" transform="translate(122,50)"/>
<path d="M0 0 C4.08303043 2.39187426 7.02836817 5.42109828 9.5 9.4375 C10.55848008 14.86221042 10.82351015 18.44121294 8.25 23.3125 C5.53217213 26.5587944 3.65164858 28.72677646 -0.62109375 29.43359375 C-8.19720109 29.44410153 -8.19720109 29.44410153 -11.9375 27.375 C-12.618125 26.59125 -13.29875 25.8075 -14 25 C-14.763125 24.154375 -15.52625 23.30875 -16.3125 22.4375 C-18.69965531 17.57477623 -19.04622875 13.31576517 -18 8 C-13.77245407 0.6404612 -8.27788392 -1.484227 0 0 Z " fill="#060606" transform="translate(276,187)"/>
<path d="M0 0 C3.70800529 1.77339384 6.12719777 3.66552944 7.875 7.375 C8.84355949 12.14497343 8.87331793 16.38799423 6.66015625 20.79296875 C4.14977553 24.29983647 1.95986888 26.79571984 -2.125 28.375 C-6.18142561 29.0109083 -10.31035769 29.30454126 -14.0390625 27.39453125 C-16.83322105 25.15782798 -19.13903816 22.82586645 -20.125 19.375 C-20.5779394 13.75855148 -20.36024321 10.17568347 -17.125 5.375 C-11.78521693 -0.64087964 -7.95603827 -1.59120765 0 0 Z " fill="#050505" transform="translate(134.125,187.625)"/>
<path d="M0 0 C2.27413438 0.67947896 2.27413438 0.67947896 4.25 -0.5625 C8.30142119 -0.82110135 9.79337669 -0.86691554 13.25 1.4375 C13.75 4.8125 13.75 4.8125 13.25 8.4375 C10.875 10.875 10.875 10.875 8.25 12.4375 C7.59 12.4375 6.93 12.4375 6.25 12.4375 C6.34539062 13.19675781 6.44078125 13.95601562 6.5390625 14.73828125 C6.64992187 15.73214844 6.76078125 16.72601563 6.875 17.75 C7.04902344 19.22919922 7.04902344 19.22919922 7.2265625 20.73828125 C7.25 23.4375 7.25 23.4375 5.25 26.4375 C3.0859375 26.73046875 3.0859375 26.73046875 0.625 26.625 C-0.60089844 26.58439453 -0.60089844 26.58439453 -1.8515625 26.54296875 C-2.47804687 26.50816406 -3.10453125 26.47335938 -3.75 26.4375 C-5.77907167 23.1228333 -5.87742133 21.0059021 -5.375 17.1875 C-5.26414063 16.29546875 -5.15328125 15.4034375 -5.0390625 14.484375 C-4.89597656 13.47117188 -4.89597656 13.47117188 -4.75 12.4375 C-5.925625 12.06625 -5.925625 12.06625 -7.125 11.6875 C-9.75 10.4375 -9.75 10.4375 -11.125 8.6875 C-11.97084786 5.64244772 -11.55741303 3.46529885 -10.75 0.4375 C-7.29128554 -1.29185723 -3.70960716 -0.75878328 0 0 Z " fill="#090909" transform="translate(198.75,218.5625)"/>
<path d="M0 0 C1.32 1.65 2.64 3.3 4 5 C3.01 5 2.02 5 1 5 C0.67 5.66 0.34 6.32 0 7 C-0.66 6.67 -1.32 6.34 -2 6 C-1.49396008 3.83125748 -1.00016187 2.00032373 0 0 Z " fill="#E7E7E7" transform="translate(154,121)"/>
</svg>
