<svg width="32" height="32" viewBox="0 0 32 32" fill="none" xmlns="http://www.w3.org/2000/svg">
<path fill-rule="evenodd" clip-rule="evenodd" d="M6.00002 8.66667C6.7364 8.66667 7.33335 8.06971 7.33335 7.33333C7.33335 6.59695 6.7364 6 6.00002 6C5.26364 6 4.66669 6.59695 4.66669 7.33333C4.66669 8.06971 5.26364 8.66667 6.00002 8.66667ZM6.00002 16.6667C6.7364 16.6667 7.33335 16.0697 7.33335 15.3333C7.33335 14.597 6.7364 14 6.00002 14C5.26364 14 4.66669 14.597 4.66669 15.3333C4.66669 16.0697 5.26364 16.6667 6.00002 16.6667ZM7.33335 23.3333C7.33335 24.0697 6.7364 24.6667 6.00002 24.6667C5.26364 24.6667 4.66669 24.0697 4.66669 23.3333C4.66669 22.597 5.26364 22 6.00002 22C6.7364 22 7.33335 22.597 7.33335 23.3333ZM26 8H11.3334C10.9654 8 10.6667 7.70133 10.6667 7.33333C10.6667 6.96533 10.9654 6.66667 11.3334 6.66667H26C26.368 6.66667 26.6667 6.96533 26.6667 7.33333C26.6667 7.70133 26.368 8 26 8ZM11.3334 14.6667H26C26.368 14.6667 26.6667 14.9653 26.6667 15.3333C26.6667 15.7013 26.368 16 26 16H11.3334C10.9654 16 10.6667 15.7013 10.6667 15.3333C10.6667 14.9653 10.9654 14.6667 11.3334 14.6667ZM26 22.6667H11.3334C10.9654 22.6667 10.6667 22.9653 10.6667 23.3333C10.6667 23.7013 10.9654 24 11.3334 24H26C26.368 24 26.6667 23.7013 26.6667 23.3333C26.6667 22.9653 26.368 22.6667 26 22.6667Z" fill="#6D7C88"/>
</svg>
