<svg viewBox="0 0 14 14" fill="none" xmlns="http://www.w3.org/2000/svg">
<path d="M6.98677 1.75C7.52436 1.75 8.02248 2.02072 8.31281 2.46407L8.36806 2.55501L12.6121 9.87982C12.9034 10.3674 12.9072 10.9729 12.6221 11.464C12.3548 11.9244 11.8725 12.2172 11.3426 12.2475L11.2361 12.25H2.73746C2.17106 12.2461 1.64996 11.942 1.37129 11.4526C1.1112 10.9958 1.09934 10.4428 1.33379 9.97801L1.3878 9.87982L5.60548 2.55501C5.88481 2.05802 6.41333 1.75 6.98677 1.75Z" fill="currentColor"/>
<path fill-rule="evenodd" clip-rule="evenodd" d="M6.99996 10.5C6.67779 10.5 6.41663 10.2388 6.41663 9.91667C6.41663 9.5945 6.67779 9.33333 6.99996 9.33333C7.32213 9.33333 7.58329 9.5945 7.58329 9.91667C7.58329 10.2388 7.32213 10.5 6.99996 10.5ZM6.99996 8.75C6.67779 8.75 6.41663 8.48883 6.41663 8.16667V5.25C6.41663 4.92783 6.67779 4.66667 6.99996 4.66667C7.32213 4.66667 7.58329 4.92783 7.58329 5.25V8.16667C7.58329 8.48883 7.32213 8.75 6.99996 8.75Z" fill="#E9EEF2"/>
</svg>
