<svg width="16" height="16" viewBox="0 0 16 16" fill="none" xmlns="http://www.w3.org/2000/svg">
<path d="M7.98509 2C8.59948 2 9.16876 2.30939 9.50057 2.81608L9.5637 2.92001L14.414 11.2912C14.747 11.8484 14.7513 12.5404 14.4255 13.1017C14.12 13.6279 13.5687 13.9625 12.9632 13.9971L12.8414 14H3.12873C2.48142 13.9955 1.88588 13.648 1.5674 13.0887C1.27015 12.5667 1.2566 11.9347 1.52454 11.4034L1.58627 11.2912L6.40647 2.92001C6.72571 2.35202 7.32973 2 7.98509 2Z" fill="#13A868"/>
<path fill-rule="evenodd" clip-rule="evenodd" d="M8.00016 12C7.63197 12 7.3335 11.7015 7.3335 11.3333C7.3335 10.9651 7.63197 10.6667 8.00016 10.6667C8.36835 10.6667 8.66683 10.9651 8.66683 11.3333C8.66683 11.7015 8.36835 12 8.00016 12ZM8.00016 10C7.63197 10 7.3335 9.70152 7.3335 9.33333V6C7.3335 5.63181 7.63197 5.33333 8.00016 5.33333C8.36835 5.33333 8.66683 5.63181 8.66683 6V9.33333C8.66683 9.70152 8.36835 10 8.00016 10Z" fill="white"/>
</svg>
