<svg xmlns="http://www.w3.org/2000/svg" width="24" height="24" viewBox="0 0 24 24">
  <g fill="none" fill-rule="evenodd">
    <polygon points="0 0 24 0 24 24 0 24"/>
    <path fill="currentColor" d="M11.9457759,2 C13.5067759,2 14.8637759,3.534 15.7187759,5.936 C16.4017759,5.799 17.0487759,5.722 17.6327759,5.722 C19.4797759,5.722 20.2687759,6.418 20.6057759,7.001 C21.3377759,8.269 20.6247759,10.118 18.8857759,12.01 C19.1037759,12.247 19.3117759,12.485 19.4987759,12.723 C20.8287759,14.413 21.2217759,15.932 20.6047759,17 C20.2677759,17.583 19.4797759,18.278 17.6337759,18.278 C17.0497759,18.278 16.4027759,18.201 15.7187759,18.064 C14.8647759,20.466 13.5077759,22 11.9457759,22 C10.3847759,22 9.0277759,20.467 8.1727759,18.065 C7.4887759,18.201 6.8417759,18.279 6.2577759,18.279 C4.4117759,18.279 3.6227759,17.584 3.2857759,17.001 C2.6687759,15.933 3.0617759,14.414 4.3917759,12.724 C4.5817759,12.482 4.7937759,12.241 5.0147759,12 C4.7937759,11.758 4.5817759,11.517 4.3917759,11.276 C3.0607759,9.587 2.6677759,8.068 3.2847759,7 C3.6217759,6.417 4.4107759,5.721 6.2577759,5.721 C6.8417759,5.721 7.4887759,5.799 8.1727759,5.936 C9.0277759,3.533 10.3847759,2 11.9457759,2 Z M11.9477759,16.821 C10.9867759,17.251 10.0387759,17.591 9.1367759,17.837 C9.8637759,19.831 10.9247759,21 11.9457759,21 C12.9667759,21 14.0277759,19.83 14.7557759,17.836 C13.8547759,17.59 12.9077759,17.251 11.9477759,16.821 Z M5.7167759,12.712 C5.5257759,12.922 5.3427759,13.133 5.1777759,13.343 C4.1327759,14.67 3.7587759,15.821 4.1517759,16.501 C4.4417759,17.003 5.1897759,17.279 6.2577759,17.279 C6.7517759,17.279 7.2947759,17.222 7.8717759,17.112 C7.6167759,16.188 7.4267759,15.172 7.3217759,14.078 C6.7397759,13.636 6.2037759,13.178 5.7167759,12.712 Z M18.1847759,12.722 C17.6997759,13.182 17.1617759,13.64 16.5667759,14.09 C16.4617759,15.178 16.2717759,16.191 16.0177759,17.111 C16.5957759,17.22 17.1387759,17.278 17.6327759,17.278 C18.6997759,17.278 19.4477759,17.002 19.7377759,16.5 C20.1317759,15.82 19.7577759,14.669 18.7127759,13.341 C18.5507759,13.135 18.3717759,12.928 18.1847759,12.722 Z M8.4177759,14.859 C8.5207759,15.592 8.6657759,16.267 8.8377759,16.888 C9.4537759,16.721 10.0957759,16.505 10.7517759,16.242 C10.4317759,16.077 10.1127759,15.904 9.7967759,15.722 C9.3197759,15.447 8.8617759,15.157 8.4177759,14.859 Z M15.4727759,14.862 C15.0327759,15.156 14.5777759,15.445 14.0957759,15.722 C13.7797759,15.905 13.4607759,16.076 13.1427759,16.241 C13.7977759,16.503 14.4387759,16.72 15.0537759,16.886 C15.2247759,16.266 15.3687759,15.593 15.4727759,14.862 Z M11.9447759,8.284 C11.3957759,8.544 10.8437759,8.827 10.2957759,9.143 C9.5827759,9.555 8.9107759,9.996 8.2827759,10.453 C8.2467759,10.952 8.2227759,11.465 8.2227759,12 C8.2227759,12.535 8.2467759,13.048 8.2827759,13.546 C8.9107759,14.004 9.5827759,14.446 10.2957759,14.857 C10.8437759,15.173 11.3967759,15.456 11.9467759,15.717 C12.4957759,15.457 13.0477759,15.174 13.5947759,14.859 C14.3267759,14.436 14.9947759,13.994 15.6077759,13.547 C15.6437759,13.048 15.6677759,12.535 15.6677759,12 C15.6677759,11.465 15.6437759,10.952 15.6067759,10.453 C14.9787759,9.996 14.3067759,9.554 13.5937759,9.143 C13.0467759,8.827 12.4947759,8.545 11.9447759,8.284 Z M11.9457759,10.444 C12.8027759,10.444 13.5017759,11.142 13.5017759,12 C13.5017759,12.858 12.8037759,13.556 11.9457759,13.556 C11.0887759,13.556 10.3907759,12.858 10.3907759,12 C10.3907759,11.142 11.0887759,10.444 11.9457759,10.444 Z M16.6507759,11.265 C16.6587759,11.508 16.6677759,11.751 16.6677759,12 C16.6677759,12.249 16.6587759,12.493 16.6507759,12.737 C16.9457759,12.49 17.2167759,12.244 17.4727759,11.999 C17.2127759,11.752 16.9407759,11.507 16.6507759,11.265 Z M7.2397759,11.265 C6.9497759,11.507 6.6757759,11.753 6.4167759,12 C6.6767759,12.247 6.9497759,12.493 7.2397759,12.735 C7.2317759,12.492 7.2227759,12.249 7.2227759,12 C7.2227759,11.751 7.2317759,11.508 7.2397759,11.265 Z M11.9457759,11.444 C11.6397759,11.444 11.3907759,11.693 11.3907759,12 C11.3907759,12.307 11.6397759,12.556 11.9457759,12.556 C12.2517759,12.556 12.5017759,12.307 12.5017759,12 C12.5017759,11.693 12.2517759,11.444 11.9457759,11.444 Z M6.2567759,6.721 C5.1887759,6.721 4.4407759,6.998 4.1507759,7.5 C3.7577759,8.18 4.1327759,9.331 5.1767759,10.658 C5.3427759,10.868 5.5247759,11.078 5.7157759,11.288 C6.2027759,10.823 6.7387759,10.364 7.3217759,9.921 C7.4267759,8.828 7.6167759,7.812 7.8717759,6.888 C7.2947759,6.779 6.7507759,6.721 6.2567759,6.721 Z M17.6327759,6.722 C17.1387759,6.722 16.5967759,6.78 16.0187759,6.889 C16.2737759,7.812 16.4637759,8.828 16.5687759,9.921 C17.1507759,10.363 17.6857759,10.821 18.1727759,11.286 C19.6087759,9.706 20.1867759,8.274 19.7397759,7.501 C19.4497759,6.999 18.7017759,6.722 17.6327759,6.722 Z M8.8377759,7.114 C8.6657759,7.734 8.5217759,8.408 8.4177759,9.141 C8.8617759,8.844 9.3187759,8.554 9.7957759,8.28 C10.1127759,8.097 10.4317759,7.925 10.7507759,7.759 C10.0947759,7.497 9.4527759,7.28 8.8377759,7.114 Z M15.0537759,7.112 C14.4387759,7.278 13.7967759,7.495 13.1407759,7.757 C13.4597759,7.924 13.7787759,8.095 14.0947759,8.278 C14.5717759,8.554 15.0297759,8.844 15.4737759,9.139 C15.3697759,8.407 15.2257759,7.732 15.0537759,7.112 Z M11.9457759,3 C10.9247759,3 9.8627759,4.169 9.1357759,6.164 C10.0377759,6.409 10.9857759,6.749 11.9457759,7.18 C12.9057759,6.75 13.8537759,6.41 14.7557759,6.164 C14.0287759,4.169 12.9667759,3 11.9457759,3 Z"/>
  </g>
</svg>
