<svg xmlns="http://www.w3.org/2000/svg" width="24" height="24" viewBox="0 0 24 24">
  <g fill="none" fill-rule="evenodd">
    <rect width="24" height="24"/>
    <path fill="#000" d="M11,0 C14.883,0 18.1555,2.85107143 18.6318,6.56464286 C20.5799,7.02428571 22,8.7375 22,10.7142857 C22,13.0083403 20.1409753,14.8865509 17.812897,14.9950494 L17.6,15 L4.95,15 C2.2209,15 0,12.8367857 0,10.1785714 C0,8.03785714 1.4806,6.14357143 3.5673,5.55214286 C4.4616,2.31535714 7.5339,0 11,0 Z M11,1 C8.0760892,1 5.46093785,2.89599712 4.60234864,5.5796488 L4.53118615,5.81845749 L4.38133763,6.3608119 L3.83998661,6.51424577 C2.17009331,6.98753978 1,8.49902855 1,10.1785714 C1,12.2129018 2.65864528,13.8920382 4.74663722,13.9949976 L4.95,14 L17.6,14 C19.4801194,14 21,12.5195968 21,10.7142857 C21,9.28281114 20.0061153,8.00624099 18.589313,7.58760085 L18.4021612,7.53791878 L17.7280397,7.37886374 L17.6399251,6.69186002 C17.2263177,3.46708422 14.3691976,1 11,1 Z M11,5 C11.276,5 11.5,5.224 11.5,5.5 L11.5,5.5 L11.5,10.293 L13.646,8.146 C13.842,7.951 14.159,7.952 14.354,8.147 C14.549,8.342 14.549,8.659 14.354,8.854 L14.354,8.854 L11.354,11.853 C11.308,11.9 11.253,11.937 11.191,11.962 C11.13,11.986 11.065,12 11,12 C10.935,12 10.87,11.986 10.81,11.962 C10.749,11.937 10.693,11.9 10.647,11.853 L10.647,11.853 L7.647,8.854 C7.452,8.659 7.452,8.342 7.647,8.147 C7.842,7.952 8.159,7.952 8.354,8.147 L8.354,8.147 L10.5,10.293 L10.5,5.5 C10.5,5.224 10.724,5 11,5 Z" transform="translate(1 4)"/>
  </g>
</svg>
