<svg xmlns="http://www.w3.org/2000/svg" width="24" height="24" viewBox="0 0 24 24">
  <g fill="none" fill-rule="evenodd">
    <path fill="currentColor" d="M11,0 C14.883,0 18.1555,2.85107143 18.6318,6.56464286 C20.5799,7.02428571 22,8.7375 22,10.7142857 C22,13.0778571 20.0266,15 17.6,15 L17.6,15 L4.95,15 C2.2209,15 0,12.8367857 0,10.1785714 C0,8.03785714 1.4806,6.14357143 3.5673,5.55214286 C4.4616,2.31535714 7.5339,0 11,0 Z M15.1331728,6.95679458 C14.9302351,6.73621234 14.567254,6.74081377 14.3731647,6.98758418 L14.3731647,6.98758418 L14.398,6.958 L14.3817501,6.97561574 L14.3817501,6.97561574 L14.3627558,6.99752975 L12.9523779,8.79401117 L12.9031476,8.86963456 C12.7922267,9.0791437 12.8433434,9.34437663 13.0362777,9.49612286 L13.0362777,9.49612286 L13.1119011,9.5453532 C13.3214102,9.6562741 13.5866432,9.60515739 13.7383894,9.4122231 L13.7383894,9.4122231 L14.1910045,8.83870878 C13.8900508,10.0802514 12.9713999,11.0951028 11.7425049,11.4074528 C10.6571147,11.680879 9.51370356,11.3403285 8.71410222,10.5007267 C8.52366163,10.3007592 8.20717336,10.2930361 8.00720588,10.4834767 C7.80723839,10.6739173 7.79951532,10.9904055 7.98995591,11.190373 C9.03618747,12.2889429 10.5487139,12.7394298 11.9878163,12.3768965 C13.6454907,11.9555639 14.8557881,10.5745868 15.1984316,8.91523707 L15.1984316,8.91523707 L15.5772466,9.51738048 L15.6320482,9.58906949 C15.7923904,9.76367736 16.0594444,9.80421841 16.2669824,9.67315148 C16.5004626,9.52570118 16.5702037,9.21689597 16.4227534,8.98341573 L16.4227534,8.98341573 L15.1889238,7.02970777 Z M14.2052012,5.03129668 C13.1642824,3.77949809 11.5504581,3.23545995 10.0109626,3.62291929 C8.85852575,3.91459918 7.86765363,4.68067659 7.25696036,5.74746971 C6.9682897,6.25173574 6.77568299,6.80370933 6.68336569,7.37322797 L6.68336569,7.37322797 L6.42260867,6.95889685 L6.36776829,6.88723754 C6.20733153,6.71271656 5.94025559,6.6723202 5.73278863,6.80349955 C5.49938831,6.95107631 5.42981457,7.25991926 5.57739133,7.49331958 L5.57739133,7.49331958 L6.81210691,9.44608645 L6.86788439,9.51895494 C7.07089245,9.73938977 7.43377351,9.73466116 7.62777587,9.48791166 L7.62777587,9.48791166 L9.04767663,7.68195522 L9.09689362,7.60632314 C9.20777752,7.39679442 9.15661399,7.13157052 8.96365292,6.97985835 L8.96365292,6.97985835 L8.88802084,6.93064136 C8.67849212,6.81975745 8.41326822,6.87092099 8.26155605,7.06388206 L8.26155605,7.06388206 L7.63114788,7.86512386 C7.67406569,7.29612259 7.84092409,6.7402044 8.12481873,6.24428138 C8.60225694,5.41026565 9.37003652,4.81666878 10.2556776,4.5925141 C11.4176485,4.30007039 12.6389565,4.71178688 13.4363016,5.67066627 C13.6128586,5.88299202 13.9281104,5.91198829 14.1404362,5.73543125 C14.3527619,5.55887422 14.3817582,5.24362243 14.2052012,5.03129668 Z" transform="translate(1 4)"/>
  </g>
</svg>
