<svg xmlns="http://www.w3.org/2000/svg" width="24" height="24" viewBox="0 0 24 24">
  <g fill="none" fill-rule="evenodd">
    <polygon points="0 0 24 0 24 24 0 24"/>
    <path fill="currentColor" d="M12.1235,3 C13.3544525,3 14.4196732,3.81477434 14.7605494,4.9693154 L14.7605494,4.9693154 L14.774,5.02062943 L14.997515,5.11836834 C17.3417537,6.19548498 18.8944072,8.50468923 18.9948236,11.0974439 L18.9948236,11.0974439 L19,11.3576294 L19,16.2326294 C19,17.1991277 19.7835017,17.9826294 20.75,17.9826294 L20.75,17.9826294 L20.8549383,17.9915458 C21.3816872,18.0848242 21.3816872,18.8804346 20.8549383,18.9737131 L20.8549383,18.9737131 L20.75,18.9826294 L14.8295889,18.9829944 C14.5943146,20.2628728 13.4729067,21.2326294 12.125,21.2326294 C10.7770933,21.2326294 9.65568539,20.2628728 9.42041112,18.9829944 L3.5,18.9826294 L3.39506173,18.9737131 C2.83539095,18.8746047 2.87037037,17.9826294 3.5,17.9826294 L3.5,17.9826294 L3.64352721,17.9768282 C4.54288973,17.9038218 5.25,17.1508028 5.25,16.2326294 L5.25,16.2326294 L5.25000003,11.357454 C5.25094615,8.66047254 6.82729352,6.23122676 9.24953637,5.11832355 L9.24953637,5.11832355 L9.472,5.02062943 L9.48645059,4.9693154 C9.81109456,3.86975249 10.7927405,3.078368 11.9488374,3.00549139 L11.9488374,3.00549139 Z M13.8024055,18.9830488 L10.4475945,18.9830488 C10.662866,19.7057055 11.3323982,20.2326294 12.125,20.2326294 C12.9176018,20.2326294 13.587134,19.7057055 13.8024055,18.9830488 Z M12.1235,4 C11.2655634,4 10.5341378,4.62195617 10.39625,5.46873956 C10.367348,5.64622961 10.2453598,5.79452788 10.0767756,5.85711718 C7.77708808,6.71090929 6.25086052,8.90474081 6.25,11.3576294 L6.25,11.3576294 L6.25,16.2326294 C6.25,16.8513929 6.04564163,17.4224259 5.70073627,17.8819171 L5.70073627,17.8819171 L5.62,17.9826294 L18.629,17.9826294 L18.5492637,17.8819171 C18.2357134,17.4641978 18.0383176,16.9542952 18.0050188,16.4001518 L18.0050188,16.4001518 L18,16.2326294 L18.0000003,11.3581785 C17.997306,8.90467982 16.4702278,6.71121019 14.1701915,5.85710497 C14.0016235,5.79450821 13.87965,5.64621723 13.85075,5.46873956 C13.7128622,4.62195617 12.9814366,4 12.1235,4 Z"/>
  </g>
</svg>
