<svg xmlns="http://www.w3.org/2000/svg" width="24" height="24" viewBox="0 0 24 24">
  <g fill="none" fill-rule="evenodd">
    <polygon points="0 0 24 0 24 24 0 24"/>
    <path fill="currentColor" d="M12.7047495,2.00077049 L12.8314265,2.01532783 C13.0892887,2.06432948 13.2797684,2.22281919 13.3233592,2.41509323 L13.332816,2.49934411 L13.332816,9.99959638 L19.3334885,9.99959638 C19.5681815,9.99959638 19.7868727,10.0925995 19.9068861,10.2446046 C20.0028969,10.3654087 20.0246593,10.5105336 19.9721734,10.642602 L19.9188875,10.7386212 L11.9179908,21.7389912 C11.7993108,21.9019967 11.5726188,22 11.3325919,22 C11.2779191,22 11.2219128,21.9949998 11.16724,21.9839995 C10.9093778,21.9349978 10.7188981,21.7765081 10.6753073,21.5842341 L10.6658505,21.4999832 L10.6658505,13.9997309 L4.66517799,13.9997309 C4.43048503,13.9997309 4.21179385,13.9067278 4.09311388,13.7547227 C3.99710312,13.6339186 3.97534068,13.4887937 4.02782657,13.3567253 L4.08111254,13.2607061 L12.0820092,2.26033607 C12.2065946,2.08890173 12.4516833,1.99020454 12.7047495,2.00077049 Z M12.332,3.615 L5.507,12.999 L11.6658505,12.9997309 L11.665,20.386 L18.492,10.999 L12.332816,10.9995964 L12.332,3.615 Z"/>
  </g>
</svg>
