<svg width="17" height="20" viewBox="0 0 17 20" fill="none" xmlns="http://www.w3.org/2000/svg">
<path d="M15.7003 18.6423H3.22031C2.42639 18.6423 1.78031 17.9963 1.78031 17.2023C1.78031 16.4084 2.42639 15.7623 3.22031 15.7623H14.7403C15.0053 15.7623 15.2203 15.5473 15.2203 15.2823V2.80234C15.2203 1.4785 14.1432 0.402344 12.8203 0.402344H3.22031C1.89743 0.402344 0.820312 1.4785 0.820312 2.80234V17.2023C0.820312 18.5262 1.89743 19.6023 3.22031 19.6023H15.7003C15.9653 19.6023 16.1803 19.3873 16.1803 19.1223C16.1803 18.8574 15.9653 18.6423 15.7003 18.6423ZM1.78031 2.80234C1.78031 2.00842 2.42639 1.36234 3.22031 1.36234H12.8203C13.6142 1.36234 14.2603 2.00842 14.2603 2.80234V14.8023H3.22031C2.68079 14.8023 2.18159 14.9819 1.78031 15.2833V2.80234Z" fill="#2B59C3"/>
<path d="M10.9002 7.12305H5.14016C4.8752 7.12305 4.66016 7.33809 4.66016 7.60305C4.66016 7.86801 4.8752 8.08305 5.14016 8.08305H10.9002C11.1651 8.08305 11.3802 7.86801 11.3802 7.60305C11.3802 7.33809 11.1651 7.12305 10.9002 7.12305Z" fill="#2B59C3"/>
<path d="M10.9002 9.78906H5.14016C4.8752 9.78906 4.66016 10.0041 4.66016 10.2691C4.66016 10.534 4.8752 10.7491 5.14016 10.7491H10.9002C11.1651 10.7491 11.3802 10.534 11.3802 10.2691C11.3802 10.0041 11.1651 9.78906 10.9002 9.78906Z" fill="#2B59C3"/>
<path d="M10.9002 4.45703H5.14016C4.8752 4.45703 4.66016 4.67207 4.66016 4.93703C4.66016 5.20199 4.8752 5.41703 5.14016 5.41703H10.9002C11.1651 5.41703 11.3802 5.20199 11.3802 4.93703C11.3802 4.67207 11.1651 4.45703 10.9002 4.45703Z" fill="#2B59C3"/>
<path d="M10.9002 9.78906H5.14016C4.8752 9.78906 4.66016 10.0041 4.66016 10.2691C4.66016 10.534 4.8752 10.7491 5.14016 10.7491H10.9002C11.1651 10.7491 11.3802 10.534 11.3802 10.2691C11.3802 10.0041 11.1651 9.78906 10.9002 9.78906Z" fill="#2B59C3"/>
</svg>
