<svg width="20" height="20" viewBox="0 0 20 20" fill="none" xmlns="http://www.w3.org/2000/svg">
  <path fill-rule="evenodd" clip-rule="evenodd" d="M17.5 3H15V0.5C15 0.224001 14.776 0 14.5 0C14.224 0 14 0.224001 14 0.5V3H6V0.5C6 0.224001 5.776 0 5.5 0C5.224 0 5 0.224001 5 0.5V3H2.5C1.122 3 0 4.121 0 5.5V17.5C0 18.879 1.122 20 2.5 20H17.5C18.878 20 20 18.879 20 17.5V5.5C20 4.121 18.878 3 17.5 3ZM2.5 4H17.5C18.327 4 19 4.673 19 5.5V7H1V5.5C1 4.673 1.673 4 2.5 4ZM2.5 19H17.5C18.327 19 19 18.327 19 17.5V8H1V17.5C1 18.327 1.673 19 2.5 19Z" fill="#97A5B0"/>
</svg>
