<svg xmlns="http://www.w3.org/2000/svg" width="24" height="24" viewBox="0 0 24 24" fill="none">
  <path d="M12 2C14.6522 2 17.1959 3.05335 19.0713 4.92871C20.9467 6.80407 22 9.34784 22 12C22 17.5228 17.5228 22 12 22C6.47715 22 2 17.5228 2 12C2 6.47715 6.47715 2 12 2ZM12 3C7.02944 3 3 7.02944 3 12C3 16.9706 7.02944 21 12 21C16.9706 21 21 16.9706 21 12C21 9.61305 20.0521 7.32357 18.3643 5.63574C16.6764 3.94791 14.3869 3 12 3ZM10.1465 7.14648C10.3201 6.97292 10.5893 6.95387 10.7842 7.08887L10.8535 7.14648L14.6465 10.9395C15.1955 11.4886 15.2294 12.3571 14.749 12.9463L14.6465 13.0605L10.8535 16.8535C10.6583 17.0488 10.3417 17.0488 10.1465 16.8535C9.97292 16.6799 9.95387 16.4107 10.0889 16.2158L10.1465 16.1465L13.9395 12.3535C14.1129 12.18 14.132 11.9106 13.9971 11.7158L13.9395 11.6465L10.1465 7.85352C9.95122 7.65825 9.95122 7.34175 10.1465 7.14648Z" fill="#2B59C3"/>
</svg>