<svg width="20" height="20" viewBox="0 0 20 20" fill="none" xmlns="http://www.w3.org/2000/svg">
<path fill-rule="evenodd" clip-rule="evenodd" d="M10 0C12.6522 0 15.1957 1.05357 17.0711 2.92893C18.9464 4.8043 20 7.34784 20 10C20 15.5228 15.5228 20 10 20C4.47715 20 0 15.5228 0 10C0 4.47715 4.47715 0 10 0ZM10 1C5.02944 1 1 5.02944 1 10C1 14.9706 5.02944 19 10 19C14.9706 19 19 14.9706 19 10C19 7.61305 18.0518 5.32387 16.364 3.63604C14.6761 1.94821 12.3869 1 10 1ZM8.08859 14.2157C7.9536 14.4106 7.97288 14.68 8.14645 14.8536C8.34171 15.0488 8.65829 15.0488 8.85355 14.8536L12.6466 11.0606L12.7495 10.9466C13.2299 10.3575 13.1956 9.48864 12.6466 8.9395L8.85355 5.14645L8.78431 5.08859C8.58944 4.9536 8.32001 4.97288 8.14645 5.14645C7.95118 5.34171 7.95118 5.65829 8.14645 5.85355L11.9394 9.64655L11.9973 9.71578C12.1322 9.91059 12.1129 10.1799 11.9394 10.3535L8.14645 14.1464L8.08859 14.2157Z" fill="#6D7C88"/>
</svg>
