<svg width="32" height="32" viewBox="0 0 32 32" fill="none" xmlns="http://www.w3.org/2000/svg">
    <circle cx="16" cy="16" r="16" fill="#CDEFE1"/>
    <path fillRule="evenodd" clipRule="evenodd" d="M18.8796 12.5768L14.3036 17.1634L12.5436 15.4034C12.2829 15.099 11.8736 14.9665 11.484 15.0602C11.0943 15.1539 10.7901 15.4581 10.6964 15.8478C10.6026 16.2375 10.7352 16.6468 11.0396 16.9074L13.5463 19.4248C13.7476 19.6244 14.0201 19.7358 14.3036 19.7341C14.5835 19.7329 14.8516 19.6218 15.0503 19.4248L20.3836 14.0914C20.5856 13.8912 20.6991 13.6185 20.6991 13.3341C20.6991 13.0497 20.5856 12.7771 20.3836 12.5768C19.9676 12.1632 19.2957 12.1632 18.8796 12.5768Z" fill="#13A868"/>
</svg>