<svg xmlns="http://www.w3.org/2000/svg" width="26" height="26" viewBox="0 0 24 24">
  <g fill="none" fill-rule="evenodd">
    <polygon points="0 0 24 0 24 24 0 24"/>
    <path fill="currentColor" d="M14.72,8.79 L10.43,13.09 L8.78,11.44 C8.53561012,11.1546238 8.1518816,11.0303181 7.78658103,11.1181899 C7.42128045,11.2060617 7.13606167,11.4912805 7.04818987,11.856581 C6.96031806,12.2218816 7.08462384,12.6056101 7.37,12.85 L9.72,15.21 C9.90871883,15.3971865 10.164197,15.5015368 10.43,15.5000167 C10.6923399,15.4988954 10.9437394,15.3947442 11.13,15.21 L16.13,10.21 C16.3193127,10.0222334 16.4257983,9.76663754 16.4257983,9.5 C16.4257983,9.23336246 16.3193127,8.9777666 16.13,8.79 C15.7399625,8.40227641 15.1100375,8.40227641 14.72,8.79 L14.72,8.79 Z"/>
  </g>
</svg>
