<svg width="8" height="6" viewBox="0 0 8 6" fill="none" xmlns="http://www.w3.org/2000/svg">
<path fill-rule="evenodd" clip-rule="evenodd" d="M6.04031 0.593095L2.82281 3.81809L1.58531 2.58059C1.40201 2.36656 1.11422 2.27333 0.840242 2.33924C0.566267 2.40514 0.352353 2.61906 0.286449 2.89303C0.220545 3.16701 0.313774 3.4548 0.527807 3.63809L2.29031 5.40809C2.43185 5.54848 2.62345 5.62675 2.82281 5.62559C3.01956 5.62477 3.20811 5.54665 3.34781 5.40809L7.09781 1.65809C7.23979 1.51727 7.31966 1.32557 7.31966 1.12559C7.31966 0.925616 7.23979 0.73392 7.09781 0.593095C6.80528 0.302302 6.33283 0.302302 6.04031 0.593095V0.593095Z" fill="#097345"/>
</svg>
