<svg xmlns="http://www.w3.org/2000/svg" viewBox="0 0 24 24">
  <g fill="none" fill-rule="evenodd">
    <polygon points="0 0 24 0 24 24 0 24"/>
    <path fill="currentColor" d="M10,-4.4408921e-16 C4.4771525,-4.4408921e-16 1.77635684e-15,4.4771525 1.77635684e-15,10 C1.77635684e-15,15.5228475 4.4771525,20 10,20 C15.5228475,20 20,15.5228475 20,10 C20,7.3478351 18.9464316,4.80429597 17.0710678,2.92893219 C15.195704,1.0535684 12.6521649,-4.4408921e-16 10,-4.4408921e-16 Z" transform="translate(2 2)"/>
    <path fill="#E9EEF2" d="M14.7125951,9.30868115 L10.5188369,13.2591229 L9.20569801,11.9723983 C8.93010041,11.7023237 8.4823887,11.7023237 8.20673802,11.9724503 C7.93108733,12.242577 7.93108733,12.6813166 8.20673802,12.9514432 L10.0906848,14.7976358 C10.2248914,14.927773 10.40394,15 10.5906623,15 L10.6515087,14.9977044 C10.8723625,14.9746941 11.0620064,14.8632621 11.1787067,14.6910307 L15.8589092,10.111076 C16.1047848,9.75842611 16.0168243,9.32786627 15.6918874,9.11604427 C15.3657538,8.90436203 14.9287393,8.99026983 14.7125951,9.30868115 Z"/>
  </g>
</svg>
