<svg xmlns="http://www.w3.org/2000/svg" width="24" height="24" viewBox="0 0 24 24">
  <g fill="none" fill-rule="evenodd">
    <polygon points="0 0 24 0 24 24 0 24"/>
    <path fill="#6D7C88" d="M12,2 C17.5136842,2 22,6.48631579 22,12 C22,17.5136842 17.5136842,22 12,22 C6.48631579,22 2,17.5136842 2,12 C2,6.48631579 6.48631579,2 12,2 Z M12,3 C7.03729412,3 3,7.03729412 3,12 C3,16.9627059 7.03729412,21 12,21 C16.9627059,21 21,16.9627059 21,12 C21,7.03729412 16.9627059,3 12,3 Z M14.7125951,9.30868115 C14.9287393,8.99026983 15.3657538,8.90436203 15.6918874,9.11604427 C16.0168243,9.32786627 16.1047848,9.75842611 15.8589092,10.111076 L15.8589092,10.111076 L11.1787067,14.6910307 C11.0620064,14.8632621 10.8723625,14.9746941 10.6515087,14.9977044 L10.6515087,14.9977044 L10.5906623,15 C10.40394,15 10.2248914,14.927773 10.0906848,14.7976358 L10.0906848,14.7976358 L8.20673802,12.9514432 C7.93108733,12.6813166 7.93108733,12.242577 8.20673802,11.9724503 C8.4823887,11.7023237 8.93010041,11.7023237 9.20569801,11.9723983 L9.20569801,11.9723983 L10.5188369,13.2591229 Z"/>
  </g>
</svg>
