<svg xmlns="http://www.w3.org/2000/svg" viewBox="0 0 32 32">
    <g fill="none" fill-rule="evenodd">
      <circle fill="currentColor" cx="16" cy="16" r="16" />
      <polygon id="Path" points="0 0 32 0 32 32 0 32" />
      <path d="M19.6266667,11.72 L13.9066667,17.4533333 L11.7066667,15.2533333 C11.3808135,14.8728318 10.8691755,14.7070907 10.382108,14.8242532 C9.8950406,14.9414156 9.5147489,15.3217073 9.39758649,15.8087747 C9.28042407,16.2958421 9.44616512,16.8074802 9.82666667,17.1333333 L12.96,20.28 C13.2116251,20.529582 13.5522627,20.6687157 13.9066667,20.666689 C14.2564532,20.6651938 14.5916525,20.5263256 14.84,20.28 L21.5066667,13.6133333 C21.7590835,13.3629779 21.9010644,13.0221834 21.9010644,12.6666667 C21.9010644,12.31115 21.7590835,11.9703555 21.5066667,11.72 C20.9866167,11.2030352 20.1467166,11.2030352 19.6266667,11.72 L19.6266667,11.72 Z" id="Path" fill="#FFFFFF" />
    </g>
</svg>
