<svg xmlns="http://www.w3.org/2000/svg" width="21" height="20" viewBox="0 0 21 20" fill="none">
    <path fill-rule="evenodd" clip-rule="evenodd"
          d="M0.666626 10C0.666626 4.47715 5.14378 0 10.6666 0C13.3188 0 15.8623
          1.05357 17.7377 2.92893C19.6131 4.8043 20.6666 7.34784 20.6666 10C20.6666
          15.5228 16.1895 20 10.6666 20C5.14378 20 0.666626 15.5228 0.666626 10ZM9.18546
          11.2591L13.3792 7.30868C13.5954 6.99027 14.0324 6.90436 14.3585 7.11604C14.6835
          7.32787 14.7714 7.75843 14.5255 8.11108L9.84533 12.691C9.72863 12.8633 9.53899
          12.9747 9.31813 12.9977L9.25729 13C9.07057 13 8.89152 12.9278 8.75731 12.7976L6.87336
          10.9514C6.59771 10.6813 6.59771 10.2426 6.87336 9.97245C7.14901 9.70232 7.59673
          9.70232 7.87232 9.9724L9.18546 11.2591Z" fill="#13A868"/>
  </svg>
