<svg width="24" height="24" viewBox="0 0 24 24" fill="none" xmlns="http://www.w3.org/2000/svg">
  <circle cx="12" cy="12" r="8" fill="#E9EEF2"/>
  <path fill-rule="evenodd" clip-rule="evenodd"
        d="M14.8664 9.13183C14.6907 8.95606 14.405 8.95606 14.2293 9.13183L11.9991 11.3628L9.76887 9.13183C9.59315 8.95606 9.3075 8.95606 9.13179 9.13183C8.95607 9.30761 8.95607 9.59335 9.13179 9.76913L11.362 12.0001L9.13179 14.2311C8.95607 14.4069 8.95607 14.6926 9.13179 14.8684C9.22009 14.9567 9.33544 15 9.45078 15C9.56612 15 9.68146 14.9558 9.76977 14.8684L12 12.6374L14.2302 14.8684C14.3185 14.9567 14.4339 15 14.5492 15C14.6646 15 14.7799 14.9558 14.8682 14.8684C15.0439 14.6926 15.0439 14.4069 14.8682 14.2311L12.6362 12.0001L14.8664 9.76913C15.0421 9.59335 15.0421 9.30851 14.8664 9.13183Z"
        fill="#4E5F6D"/>
</svg>
