<svg width="11" height="14" viewBox="0 0 11 14" fill="none" xmlns="http://www.w3.org/2000/svg">
<path fill-rule="evenodd" clip-rule="evenodd" d="M9.90271 4.56937C10.0327 4.43937 10.0327 4.22804 9.90271 4.09804C9.77271 3.96804 9.56137 3.96804 9.43137 4.09804L8.62071 4.90871C7.81937 4.20671 6.79404 3.75871 5.66671 3.68337V1.00004H7.33337C7.51737 1.00004 7.66671 0.850707 7.66671 0.666707C7.66671 0.482707 7.51737 0.333374 7.33337 0.333374H3.33337C3.14937 0.333374 3.00004 0.482707 3.00004 0.666707C3.00004 0.850707 3.14937 1.00004 3.33337 1.00004H5.00004V3.68337C2.39871 3.85604 0.333374 6.02204 0.333374 8.66671C0.333374 11.424 2.57604 13.6667 5.33337 13.6667C8.09071 13.6667 10.3334 11.424 10.3334 8.66671C10.3334 7.40737 9.86204 6.26004 9.09204 5.37937L9.90271 4.56937ZM5.33337 13C2.94404 13 1.00004 11.056 1.00004 8.66671C1.00004 6.27737 2.94404 4.33337 5.33337 4.33337C7.72271 4.33337 9.66671 6.27737 9.66671 8.66671C9.66671 11.056 7.72271 13 5.33337 13ZM5.76137 7.76671L7.09737 6.43071C7.22804 6.30071 7.43937 6.30071 7.56937 6.43071C7.69937 6.56071 7.69937 6.77204 7.56937 6.90204L6.23337 8.23804C6.29537 8.36871 6.33337 8.51337 6.33337 8.66671C6.33337 9.21804 5.88404 9.66671 5.33271 9.66671C4.78137 9.66671 4.33271 9.21804 4.33271 8.66671C4.33271 8.11537 4.78137 7.66671 5.33271 7.66671C5.48671 7.66671 5.63137 7.70404 5.76137 7.76671ZM5.55137 8.91404C5.54318 8.92124 5.53486 8.9282 5.5263 8.93481C5.53481 8.92824 5.54315 8.92128 5.55137 8.91404ZM5.49559 8.95606C5.50615 8.94962 5.51635 8.94248 5.5263 8.93481C5.51645 8.94241 5.50628 8.94955 5.49559 8.95606ZM5.46071 8.97404C5.47282 8.96895 5.48441 8.9629 5.49559 8.95606C5.48458 8.96278 5.47302 8.96883 5.46071 8.97404ZM5.08804 8.44537C5.0808 8.45335 5.07387 8.46154 5.06733 8.46994C5.07391 8.4615 5.08084 8.45333 5.08804 8.44537ZM5.06733 8.46994C5.0589 8.48074 5.05111 8.49189 5.0441 8.50338C5.05118 8.49175 5.05898 8.48063 5.06733 8.46994ZM5.0441 8.50338C5.037 8.51502 5.0307 8.52702 5.02537 8.53937C5.03082 8.52682 5.03712 8.51485 5.0441 8.50338ZM5.08804 8.88804C5.06683 8.86459 5.04795 8.83927 5.03376 8.81091C5.04755 8.83831 5.06641 8.86364 5.08804 8.88804ZM5.03376 8.81091C5.031 8.80541 5.02842 8.79978 5.02604 8.79404C5.02839 8.79976 5.03097 8.80538 5.03376 8.81091ZM5.11537 8.91404C5.13919 8.93502 5.16396 8.95358 5.19134 8.96728C5.16295 8.95316 5.13819 8.93457 5.11537 8.91404ZM5.20604 8.97404C5.20103 8.97192 5.19614 8.96966 5.19134 8.96728C5.19616 8.96969 5.20106 8.97195 5.20604 8.97404Z" fill="#9D6C00"/>
</svg>
