<svg xmlns="http://www.w3.org/2000/svg" width="18" height="18" viewBox="0 0 18 18" fill="none">
    <path fill-rule="evenodd" clip-rule="evenodd"
          d="M13.286 5.23574C13.3873 5.08959 13.3728 4.88752 13.2426 4.75735C13.0962
          4.6109 12.8588 4.6109 12.7123 4.75735L9 8.46966L5.28769 4.75735L5.23575
          4.71396C5.0896 4.61271 4.88753 4.62718 4.75736 4.75735C4.61091 4.9038
          4.61091 5.14123 4.75736 5.28768L8.46967 8.99999L4.75736 12.7123L4.71397
          12.7642C4.61272 12.9104 4.62718 13.1125 4.75736 13.2426C4.90381 13.3891
          5.14124 13.3891 5.28769 13.2426L9 9.53032L12.7123 13.2426L12.7642 13.286C12.9104
          13.3873 13.1125 13.3728 13.2426 13.2426C13.3891 13.0962 13.3891 12.8587
          13.2426 12.7123L9.53033 8.99999L13.2426 5.28768L13.286 5.23574Z"
          fill="#4E5F6D"/>
  </svg>
