<svg viewBox="0 0 48 48" fill="none" xmlns="http://www.w3.org/2000/svg">
<path fill-rule="evenodd" clip-rule="evenodd" d="M24 9C31.766 9 38.311 14.7021 39.2636 22.1293C43.1598 23.0486 46 26.475 46 30.4286C46 35.0167 42.282 38.7731 37.6258 38.9901L37.2 39H11.9C6.4418 39 2 34.6736 2 29.3571C2 25.0757 4.9612 21.2871 9.1346 20.1043C10.9232 13.6307 17.0678 9 24 9ZM24 11C18.1522 11 12.9219 14.792 11.2047 20.1593L11.0624 20.6369L10.7627 21.7216L9.67997 22.0285C6.34019 22.9751 4 25.9981 4 29.3571C4 33.4258 7.31729 36.7841 11.4933 36.99L11.9 37H37.2C40.9602 37 44 34.0392 44 30.4286C44 27.5656 42.0122 25.0125 39.1786 24.1752L38.8043 24.0758L37.4561 23.7577L37.2799 22.3837C36.4526 15.9342 30.7384 11 24 11Z" fill="#6D7C88"/>
<path fill-rule="evenodd" clip-rule="evenodd" d="M18.6035 23.6875H30.3956C31.8335 23.6875 32.9991 24.8531 32.9991 26.291V36.3969C32.9991 37.8347 31.8335 39.0003 30.3956 39.0003H18.6035C17.1656 39.0003 16 37.8347 16 36.3969V26.291C16 24.8531 17.1656 23.6875 18.6035 23.6875ZM30.3959 25.5232H18.6038C18.1809 25.5232 17.838 25.866 17.838 26.2889V36.3948C17.838 36.8177 18.1809 37.1605 18.6038 37.1605H30.3959C30.8188 37.1605 31.1617 36.8177 31.1617 36.3948V26.2889C31.1617 25.866 30.8188 25.5232 30.3959 25.5232Z" fill="#6D7C88"/>
<path fill-rule="evenodd" clip-rule="evenodd" d="M21.4746 31.4504C21.4746 29.7799 22.8288 28.4258 24.4992 28.4258C26.1697 28.4258 27.5238 29.7799 27.5238 31.4504C27.5238 33.1208 26.1697 34.475 24.4992 34.475C22.8288 34.475 21.4746 33.1208 21.4746 31.4504ZM25.6864 31.4483C25.6864 30.7928 25.155 30.2614 24.4995 30.2614C23.844 30.2614 23.3126 30.7928 23.3126 31.4483C23.3126 32.1038 23.844 32.6352 24.4995 32.6352C25.155 32.6352 25.6864 32.1038 25.6864 31.4483Z" fill="#6D7C88"/>
<path fill-rule="evenodd" clip-rule="evenodd" d="M19.3672 22.0796C19.3672 19.2462 21.6641 16.9492 24.4975 16.9492C27.331 16.9492 29.6279 19.2462 29.6279 22.0796V24.6065C29.6279 25.114 29.2165 25.5253 28.709 25.5253H20.2861C19.7786 25.5253 19.3672 25.114 19.3672 24.6065V22.0796ZM27.7893 22.0775C27.7893 20.35 26.4589 18.9332 24.7667 18.7958L24.4967 18.7849C22.6782 18.7849 21.2041 20.259 21.2041 22.0775L21.2028 23.6841H27.7893V22.0775Z" fill="#6D7C88"/>
</svg>
