<svg width="24" height="24" viewBox="0 0 24 24" fill="none" xmlns="http://www.w3.org/2000/svg">
<path fill-rule="evenodd" clip-rule="evenodd" d="M11.8245 4.33008C15.6455 4.33008 18.8658 7.33212 19.3345 11.2423C21.2515 11.7263 22.6489 13.5303 22.6489 15.6117C22.6489 18.0273 20.8196 20.0049 18.5286 20.1192L18.3191 20.1244H5.87101C3.18546 20.1244 1 17.8466 1 15.0476C1 12.7936 2.45697 10.799 4.51037 10.1762C5.3904 6.76804 8.41367 4.33008 11.8245 4.33008ZM7.51942 10.6622C7.68957 10.4786 7.9537 10.4582 8.14473 10.601L8.21262 10.6622L10.4592 13.0861C10.6294 13.2697 10.6483 13.5547 10.5159 13.7608L10.4592 13.834L8.21262 16.258C8.0212 16.4645 7.71084 16.4645 7.51942 16.258C7.34927 16.0744 7.33036 15.7894 7.4627 15.5833L7.51942 15.51L9.41854 13.4597L7.51942 11.4101C7.34927 11.2265 7.33036 10.9415 7.4627 10.7354L7.51942 10.6622ZM17.3425 13.9448C17.3425 13.6527 17.1231 13.416 16.8524 13.416H13.2578L13.1697 13.4245C12.9411 13.4693 12.7677 13.6852 12.7677 13.9448C12.7677 14.2369 12.9871 14.4737 13.2578 14.4737H16.8524L16.9405 14.4652C17.1691 14.4204 17.3425 14.2045 17.3425 13.9448Z" fill="currentColor"/>
</svg>
