<svg fill="#000000" height="200px" width="200px" version="1.1" xmlns="http://www.w3.org/2000/svg"
  viewBox="0 0 512 512" xmlns:xlink="http://www.w3.org/1999/xlink"
  enable-background="new 0 0 512 512">
  <g id="SVGRepo_bgCarrier" stroke-width="0"></g>
  <g id="SVGRepo_tracerCarrier" stroke-linecap="round" stroke-linejoin="round"></g>
  <g id="SVGRepo_iconCarrier">
    <g>
      <g>
        <g>
          <path
            d="m199.3,114.3c-47.4,0-86,37.3-86,83.2 0,6.4 0.8,12.7 2.5,19.5 2.4,9.7-2.6,
            19.7-11.8,23.7-31.1,13.3-51.2,43.2-51.2,76 0,45.9 38.6,83.2 86,83.2h236.3c47.4,
            0 86-37.3 86-83.2 0-22.9-9.6-44.4-26.9-60.3-4.1-3.8-6.5-9-6.6-14.6-1-44.8-39.6-81.3-85.9-81.3-13.4,0-26.3,3-38.4,8.9-9.9,4.8-21.9,0.8-27-9-14.8-28.5-44.2-46.1-77-46.1zm175.8,326.3h-236.2c-70,0-126.9-55.6-126.9-124 0-43.7 23.6-83.8 61.2-106-0.5-4.4-0.8-8.8-0.8-13.1 0-68.4 56.9-124 126.9-124 41.6,0 79.8,19.6 103.4,52.2 12.6-4 25.6-6.1 39-6.1 65.4,0 120.3,49.8 126.2,112.7 21.7,22.8 34,53.1 34,84.4 0.1,68.2-56.8,123.9-126.8,123.9z"></path>
        </g>
      </g>
    </g>
  </g>
</svg>