<svg width="36" height="36" viewBox="0 0 36 36" fill="none" xmlns="http://www.w3.org/2000/svg">
<rect x="0.5" y="0.5" width="35" height="35" rx="17.5" fill="white"/>
<rect x="0.5" y="0.5" width="35" height="35" rx="17.5" stroke="#D7DEE4"/>
<path fill-rule="evenodd" clip-rule="evenodd" d="M15.5273 24.4708C15.2959 24.2393 15.2702 23.8801 15.4502 23.6203L15.5273 23.5279L20.5846 18.4707C20.8159 18.2393 20.8416 17.8801 20.6617 17.6204L20.5846 17.5281L15.5273 12.4708C15.2669 12.2104 15.2669 11.7883 15.5273 11.5279C15.7587 11.2965 16.1179 11.2708 16.3778 11.4508L16.4701 11.5279L21.5275 16.5853C22.2595 17.3175 22.3052 18.476 21.6647 19.2615L21.5274 19.4134L16.4701 24.4708C16.2098 24.7311 15.7876 24.7311 15.5273 24.4708Z" fill="black"/>
</svg>
