<svg xmlns="http://www.w3.org/2000/svg" width="24" height="24" viewBox="0 0 24 24">
  <g fill="none" fill-rule="evenodd">
    <polygon points="0 0 24 0 24 24 0 24"/>
    <path fill="currentColor" d="M10.7943514,14.4585702 L10.7950806,18.0500973 C11.9359842,18.2819003 12.7946461,19.2906746 12.7946461,20.5 C12.7946461,21.8254834 11.7631101,22.9100387 10.4590218,22.9946823 L10.2946461,23 C8.9139342,23 7.79464607,21.8807119 7.79464607,20.5 C7.79464607,19.2906746 8.6533079,18.2819003 9.79421159,18.0500973 L9.79406646,14.4584235 C9.95685335,14.4857668 10.1240875,14.5 10.2946461,14.5 C10.4648993,14.5 10.63184,14.4858178 10.7943514,14.4585702 Z M10.2946461,19 C9.46621895,19 8.79464607,19.6715729 8.79464607,20.5 C8.79464607,21.3284271 9.46621895,22 10.2946461,22 C11.1230732,22 11.7946461,21.3284271 11.7946461,20.5 C11.7946461,19.6715729 11.1230732,19 10.2946461,19 Z M10.2946461,0 C11.6753579,0 12.7946461,1.11928813 12.7946461,2.5 C12.7946461,3.70932545 11.9359842,4.71809967 10.7950806,4.94990271 L10.7943514,8.5414298 C10.63184,8.51418225 10.4648993,8.5 10.2946461,8.5 C11.2324256,8.5 12.0697067,8.9302848 12.6198303,9.6041953 L12.6056043,9.5868997 L12.6056043,9.5868997 L15.7168913,7.79129888 C15.3473457,6.6874107 15.7916515,5.43955111 16.8388747,4.83493649 C17.1876297,4.63358268 17.5647337,4.52580898 17.9411104,4.50382445 L18.1022854,4.49963219 C18.9607436,4.505044 19.7937009,4.95284563 20.2539382,5.75 C20.9442942,6.94573156 20.5346063,8.47470757 19.3388747,9.16506351 C18.9901197,9.36641732 18.6130157,9.47419102 18.236639,9.49617555 L18.0754641,9.50036781 C17.3768274,9.49596353 16.6950804,9.198558 16.2173775,8.65829909 L13.1072085,10.4538744 L13.0752995,10.3718487 C13.2167368,10.7201149 13.2946461,11.1009591 13.2946461,11.5 C13.2946461,11.8846269 13.2222635,12.2523479 13.090377,12.5902846 L13.1072085,12.5461256 L13.1072085,12.5461256 L16.2172868,14.3418035 C16.6583096,13.8429726 17.2732737,13.551152 17.9148867,13.5058084 L18.0754641,13.4995826 C18.5046932,13.4969263 18.9402975,13.6048178 19.3388747,13.8349365 C20.5346063,14.5252924 20.9442942,16.0542684 20.2539382,17.25 C19.8224658,17.9973322 19.0634073,18.4376161 18.2628627,18.4941916 L18.1022854,18.5004174 C17.6730562,18.5030737 17.2374519,18.3951822 16.8388747,18.1650635 C15.7916515,17.5604489 15.3473457,16.3125893 15.7168913,15.2087011 L12.6056043,13.4131003 L12.6198303,13.3958047 C12.0697067,14.0697152 11.2324256,14.5 10.2946461,14.5 C9.35449963,14.5 8.51535954,14.0675404 7.96530185,13.3906972 L7.98284755,13.4120859 L7.98284755,13.4120859 L4.87240089,15.2087011 C5.24194649,16.3125893 4.79764067,17.5604489 3.75041744,18.1650635 C3.4016624,18.3664173 3.02455844,18.474191 2.64818177,18.4961756 L2.48700678,18.5003678 C1.62854855,18.494956 0.79559122,18.0471544 0.335353929,17.25 C-0.355002009,16.0542684 0.0546858795,14.5252924 1.25041744,13.8349365 C1.59917248,13.6335827 1.97627643,13.525809 2.3526531,13.5038244 L2.51382809,13.4996322 C3.21246472,13.5040365 3.89421173,13.801442 4.37191464,14.3417009 L7.48208367,12.5461256 L7.49503057,12.5802778 C7.36560798,12.2450934 7.29464607,11.8808337 7.29464607,11.5 C7.29464607,11.1153731 7.36702861,10.7476521 7.49891516,10.4097154 L7.48208367,10.4538744 L7.48208367,10.4538744 L4.37200536,8.65819649 C3.93098251,9.15702738 3.3160184,9.44884802 2.6744054,9.49419155 L2.51382809,9.50041744 C2.08459897,9.50307371 1.64899462,9.39518216 1.25041744,9.16506351 C0.0546858795,8.47470757 -0.355002009,6.94573156 0.335353929,5.75 C0.766826389,5.00266778 1.52588482,4.56238386 2.32642947,4.50580845 L2.48700678,4.49958256 C2.9162359,4.49692629 3.35184025,4.60481784 3.75041744,4.83493649 C4.79764067,5.43955111 5.24194649,6.6874107 4.87240089,7.79129888 L7.98284755,9.5879141 L7.96530185,9.60930276 C8.48073859,8.9750605 9.2500129,8.55540665 10.1183733,8.50509269 L10.2946461,8.5 L10.2946461,8.5 C10.1240875,8.5 9.95685335,8.51423316 9.79406646,8.54157652 L9.79421159,4.94990271 C8.6533079,4.71809967 7.79464607,3.70932545 7.79464607,2.5 C7.79464607,1.1745166 8.82618201,0.089961328 10.1302704,0.00531767968 L10.2946461,0 Z M16.7898366,15.25 C16.375623,15.9674389 16.6214358,16.8848245 17.3388747,17.2990381 C18.0563136,17.7132517 18.9736992,17.4674389 19.3879128,16.75 C19.8021264,16.0325611 19.5563136,15.1151755 18.8388747,14.7009619 C18.1214358,14.2867483 17.2040502,14.5325611 16.7898366,15.25 Z M1.75041744,14.7009619 C1.0329785,15.1151755 0.78716577,16.0325611 1.20137933,16.75 C1.61559289,17.4674389 2.5329785,17.7132517 3.25041744,17.2990381 C3.96785637,16.8848245 4.21366911,15.9674389 3.79945554,15.25 C3.38524198,14.5325611 2.46785637,14.2867483 1.75041744,14.7009619 Z M10.2946461,9.5 C9.19007657,9.5 8.29464607,10.3954305 8.29464607,11.5 C8.29464607,12.6045695 9.19007657,13.5 10.2946461,13.5 C11.3992156,13.5 12.2946461,12.6045695 12.2946461,11.5 C12.2946461,10.3954305 11.3992156,9.5 10.2946461,9.5 Z M1.20137933,6.25 C0.78716577,6.96743894 1.0329785,7.88482454 1.75041744,8.29903811 C2.46785637,8.71325167 3.38524198,8.46743894 3.79945554,7.75 C4.21366911,7.03256106 3.96785637,6.11517546 3.25041744,5.70096189 C2.5329785,5.28674833 1.61559289,5.53256106 1.20137933,6.25 Z M17.3388747,5.70096189 C16.6214358,6.11517546 16.375623,7.03256106 16.7898366,7.75 C17.2040502,8.46743894 18.1214358,8.71325167 18.8388747,8.29903811 C19.5563136,7.88482454 19.8021264,6.96743894 19.3879128,6.25 C18.9736992,5.53256106 18.0563136,5.28674833 17.3388747,5.70096189 Z M10.2946461,1 C9.46621895,1 8.79464607,1.67157288 8.79464607,2.5 C8.79464607,3.32842712 9.46621895,4 10.2946461,4 C11.1230732,4 11.7946461,3.32842712 11.7946461,2.5 C11.7946461,1.67157288 11.1230732,1 10.2946461,1 Z" transform="translate(1.705 .5)"/>
  </g>
</svg>
