<svg xmlns="http://www.w3.org/2000/svg" width="24" height="24" viewBox="0 0 24 24">
  <g fill="none" fill-rule="evenodd">
    <polygon points="0 0 24 0 24 24 0 24"/>
    <path fill="currentColor" d="M11.9995417,0.959774327 C12.9381645,0.959774327 13.7752376,1.5504063 14.0899146,2.43475503 L14.0899146,2.43475503 L14.5024937,3.59456116 C14.6178785,3.91940702 14.8655314,4.18013308 15.1840175,4.3120614 C15.5025037,4.44398972 15.8619822,4.43475919 16.173001,4.28679145 L16.173001,4.28679145 L17.2845178,3.75714887 C18.1329869,3.35192661 19.144743,3.52551651 19.8096132,4.19038676 C20.4744835,4.855257 20.6480734,5.86701311 20.2430419,6.71508234 L20.2430419,6.71508234 L19.7133404,7.8267221 C19.5652408,8.13801779 19.5560103,8.49749634 19.6879386,8.81598245 C19.8198669,9.13446857 20.080593,9.38212146 20.4056616,9.49758545 L20.4056616,9.49758545 L21.5649107,9.90996667 C22.4500798,10.2241416 23.0415154,11.0616456 23.0415154,12.0009167 C23.0415154,12.9401878 22.4500798,13.7776917 21.565245,14.0917479 L21.565245,14.0917479 L20.4054388,14.5043271 C20.080593,14.6197119 19.8198669,14.8673648 19.6879386,15.1858509 C19.5560103,15.504337 19.5652408,15.8638155 19.7130706,16.174545 L19.7130706,16.174545 L20.2428511,17.2845178 C20.6480734,18.1329869 20.4744835,19.144743 19.8096132,19.8096132 C19.144743,20.4744835 18.1329869,20.6480734 17.2855248,20.2433307 L17.2855248,20.2433307 L16.1732779,19.7151737 C15.8619822,19.5670741 15.5025037,19.5578436 15.1840175,19.6897719 C14.8655314,19.8217003 14.6178785,20.0824263 14.5024146,20.407495 L14.5024146,20.407495 L14.0899,21.5671192 C13.7752376,22.451427 12.9381645,23.042059 11.9995417,23.042059 C11.0609189,23.042059 10.2238457,22.451427 9.90916878,21.5670783 L9.90916878,21.5670783 L9.49665,20.4074422 C9.38109284,20.0824828 9.13326206,19.8216996 8.81460568,19.6897521 C8.49594929,19.5578046 8.1363071,19.5670486 7.82484748,19.7151934 L7.82484748,19.7151934 L6.71616439,20.2425247 C5.86754919,20.6493942 4.85455244,20.47638 4.18908623,19.8109138 C3.52362001,19.1454476 3.35060579,18.1324508 3.75666933,17.2855248 L3.75666933,17.2855248 L4.28482627,16.1732779 C4.43292585,15.8619822 4.44215639,15.5025037 4.31022806,15.1840175 C4.17829974,14.8655314 3.91757369,14.6178785 3.59250503,14.5024146 L3.59250503,14.5024146 L2.43325599,14.0900333 C1.5480869,13.7758584 0.956651296,12.9383544 0.956651296,11.9990833 C0.956651296,11.0598122 1.5480869,10.2223083 2.4329217,9.90825212 L2.4329217,9.90825212 L3.59251092,9.49575002 C3.9170096,9.38032027 4.17745807,9.13288517 4.30935453,8.81472366 C4.44125099,8.49656214 4.43226041,8.13742888 4.28466933,7.82639191 L4.28466933,7.82639191 L3.75747531,6.71616439 C3.35060579,5.86754919 3.52362001,4.85455244 4.18908623,4.18908623 C4.85455244,3.52362001 5.86754919,3.35060579 6.71447524,3.75666933 L6.71447524,3.75666933 L7.82638981,4.28466833 C8.13754458,4.43242019 8.49669158,4.44160464 8.81499161,4.3099498 C9.13329163,4.17829497 9.38101695,3.91809679 9.49666878,3.59433837 L9.49666878,3.59433837 L9.90918333,2.43471414 C10.2238457,1.5504063 11.0609189,0.959774327 11.9995417,0.959774327 Z M11.9995417,1.95977433 C11.4839601,1.95977433 11.0241594,2.28420598 10.8513312,2.76991163 L10.8513312,2.76991163 L10.4386102,3.930115 C10.2276622,4.52065014 9.77667505,4.99434426 9.19720578,5.23402357 C8.6177365,5.47370289 7.96390477,5.45698248 7.39744143,5.18799734 L7.39744143,5.18799734 L6.28383561,4.65919136 C5.81785295,4.43577544 5.26160682,4.53077919 4.89619301,4.89619301 C4.53077919,5.26160682 4.43577544,5.81785295 4.65999734,6.28552476 L4.65999734,6.28552476 L5.1880573,7.39756775 C5.45694911,7.96423668 5.47332213,8.6182652 5.23312147,9.19767881 C4.99292081,9.77709242 4.51861018,10.227704 3.92766163,10.4379146 L3.92766163,10.4379146 L2.76774401,10.8505333 C2.28152438,11.0231083 1.9566513,11.4831457 1.9566513,11.9990833 C1.9566513,12.515021 2.28152438,12.9750584 2.7680783,13.1477521 L2.7680783,13.1477521 L3.92743884,13.5601729 C4.51902554,13.7703037 4.99384168,14.2213119 5.23410036,14.8013167 C5.47435904,15.3813214 5.45754904,16.0359787 5.18799734,16.6025586 L5.18799734,16.6025586 L4.65919136,17.7161644 C4.43577544,18.182147 4.53077919,18.7383932 4.89619301,19.103807 C5.26160682,19.4692208 5.81785295,19.5642246 6.28523585,19.34014 L6.28523585,19.34014 L7.39531666,18.8121412 C7.9623283,18.5424439 8.61706152,18.525615 9.19717956,18.7658272 C9.77729759,19.0060394 10.2284767,19.4807985 10.4388312,20.0723384 L10.4388312,20.0723384 L10.8513167,21.2318808 C11.0241594,21.7176274 11.4839601,22.042059 11.9995417,22.042059 C12.5151232,22.042059 12.9749239,21.7176274 13.1477521,21.2319217 L13.1477521,21.2319217 L13.5601729,20.0725612 C13.7703037,19.4809745 14.2213119,19.0061583 14.8013167,18.7658996 C15.3813214,18.525641 16.0359787,18.542451 16.6025586,18.8120027 L16.6025586,18.8120027 L17.7154822,19.3404822 C18.1815427,19.5630691 18.737296,19.4677169 19.1025065,19.1025065 C19.4677169,18.737296 19.5630691,18.1815427 19.3404294,17.7153717 L19.3404294,17.7153717 L18.8103263,16.6047221 C18.5406176,16.0378121 18.5238076,15.3831547 18.7640663,14.80315 C19.004325,14.2231452 19.4791411,13.772137 20.070505,13.5620854 L20.070505,13.5620854 L21.2304227,13.1494667 C21.7166423,12.9768917 22.0415154,12.5168543 22.0415154,12.0009167 C22.0415154,11.484979 21.7166423,11.0249416 21.2300884,10.8522479 L21.2300884,10.8522479 L20.0707278,10.4398271 C19.4791411,10.2296963 19.004325,9.77868811 18.7640663,9.19868335 C18.5238076,8.61867859 18.5406176,7.96402127 18.8104581,7.39683433 L18.8104581,7.39683433 L19.3404822,6.2845178 C19.5630691,5.81845731 19.4677169,5.26270395 19.1025065,4.89749354 C18.737296,4.53228312 18.1815427,4.43693092 17.7150823,4.65970855 L17.7150823,4.65970855 L16.6028888,5.18967373 C16.0359787,5.45938238 15.3813214,5.47619238 14.8013167,5.2359337 C14.2213119,4.99567502 13.7703037,4.52085887 13.5602521,3.92949497 L13.5602521,3.92949497 L13.1477667,2.76995253 C12.9749239,2.28420598 12.5151232,1.95977433 11.9995417,1.95977433 Z M11.9990833,7.37591667 C14.5534003,7.37591667 16.6240833,9.4465997 16.6240833,12.0009167 C16.6240833,14.5552336 14.5534003,16.6259167 11.9990833,16.6259167 C9.44476637,16.6259167 7.37408333,14.5552336 7.37408333,12.0009167 C7.37408333,9.4465997 9.44476637,7.37591667 11.9990833,7.37591667 Z M11.9990833,8.37591667 C9.99705112,8.37591667 8.37408333,9.99888445 8.37408333,12.0009167 C8.37408333,14.0029489 9.99705112,15.6259167 11.9990833,15.6259167 C14.0011156,15.6259167 15.6240833,14.0029489 15.6240833,12.0009167 C15.6240833,9.99888445 14.0011156,8.37591667 11.9990833,8.37591667 Z"/>
  </g>
</svg>
