<svg width="18" height="18" viewBox="0 0 18 18" fill="none" xmlns="http://www.w3.org/2000/svg">
    <path d="M6.21967 11.25H2.625C2.41789 11.25 2.25 11.0821 2.25
          10.875C2.25 10.6679 2.41789 10.5 2.625 10.5H7.125C7.33211
          10.5 7.5 10.6679 7.5 10.875V15.375C7.5 15.5821 7.33211
          15.75 7.125 15.75C6.91789 15.75 6.75 15.5821 6.75 15.375V11.7803L2.89016
          15.6402C2.74372 15.7866 2.50628 15.7866 2.35984 15.6402C2.21339
          15.4937 2.21339 15.2563 2.35984 15.1098L6.21967 11.25ZM6.75
          6.21967V2.625C6.75 2.41789 6.91789 2.25 7.125 2.25C7.33211
          2.25 7.5 2.41789 7.5 2.625V7.125C7.5 7.33211 7.33211 7.5
          7.125 7.5H2.625C2.41789 7.5 2.25 7.33211 2.25 7.125C2.25
          6.91789 2.41789 6.75 2.625 6.75H6.21967L2.35984 2.89016C2.21339
          2.74372 2.21339 2.50628 2.35984 2.35984C2.50628 2.21339 2.74372
          2.21339 2.89016 2.35984L6.75 6.21967ZM11.7803 6.75H15.375C15.5821
          6.75 15.75 6.91789 15.75 7.125C15.75 7.33211 15.5821 7.5
          15.375 7.5H10.875C10.6679 7.5 10.5 7.33211 10.5 7.125V2.625C10.5
          2.41789 10.6679 2.25 10.875 2.25C11.0821 2.25 11.25 2.41789
          11.25 2.625V6.21967L15.1098 2.35984C15.2563 2.21339 15.4937
          2.21339 15.6402 2.35984C15.7866 2.50628 15.7866 2.74372
          15.6402 2.89016L11.7803 6.75ZM11.7803 11.25L15.6402 15.1098C15.7866
          15.2563 15.7866 15.4937 15.6402 15.6402C15.4937 15.7866 15.2563
          15.7866 15.1098 15.6402L11.25 11.7803V15.3906C11.25 15.5977
          11.0821 15.7656 10.875 15.7656C10.6679 15.7656 10.5 15.5977
          10.5 15.3906V10.875C10.5 10.6679 10.6679 10.5 10.875 10.5H15.375C15.5821
          10.5 15.75 10.6679 15.75 10.875C15.75 11.0821 15.5821 11.25
          15.375 11.25H11.7803Z" fill="#6D7C88"/>
  </svg>
