<svg width="15" height="16" viewBox="0 0 15 16" fill="none" xmlns="http://www.w3.org/2000/svg">
<path fill-rule="evenodd" clip-rule="evenodd" d="M8 4.70711L11.1464 7.85355C11.3417 8.04882 11.6583 8.04882 11.8536 7.85355C12.0488 7.65829 12.0488 7.34171 11.8536 7.14645L7.85355 3.14645C7.65829 2.95118 7.34171 2.95118 7.14645 3.14645L3.14645 7.14645C2.95118 7.34171 2.95118 7.65829 3.14645 7.85355C3.34171 8.04882 3.65829 8.04882 3.85355 7.85355L7 4.70711L7 15.5C7 15.7761 7.22386 16 7.5 16C7.77614 16 8 15.7761 8 15.5L8 4.70711ZM14.5 1C14.7761 1 15 0.776142 15 0.5C15 0.223858 14.7761 -9.78513e-09 14.5 -2.18557e-08L0.500001 -6.33815e-07C0.223859 -6.45886e-07 6.89597e-07 0.223857 6.77527e-07 0.499999C6.65456e-07 0.776141 0.223859 0.999999 0.500001 0.999999L14.5 1Z" fill="#2B59C3"/>
</svg>
