<svg xmlns="http://www.w3.org/2000/svg" width="24" height="24" viewBox="0 0 24 24">
  <path fill="currentColor" fill-rule="evenodd" d="M8,7.00100238 L8,8.00100238 L6.5,8.00100238 C5.67157288,8.00100238 5,8.67257526 5,9.50100238 L5,18.5010024 C5,19.3294295 5.67157288,20.0010024 6.5,20.0010024 L13.5,20.0010024 C14.3284271,20.0010024 15,19.3294295 15,18.5010024 L15,17.0010024 L16,17.0010024 L16,18.5010024 C16,19.8817143 14.8807119,21.0010024 13.5,21.0010024 L6.5,21.0010024 C5.11928813,21.0010024 4,19.8817143 4,18.5010024 L4,9.50100238 C4,8.12029051 5.11928813,7.00100238 6.5,7.00100238 L8,7.00100238 Z M16,4.00100238 L10.5,4.00100238 C9.67157288,4.00100238 9,4.67257526 9,5.50100238 L9,14.5010024 C9,15.3294295 9.67157288,16.0010024 10.5,16.0010024 L17.5,16.0010024 C18.3284271,16.0010024 19,15.3294295 19,14.5010024 L19,7.00100238 L16.5,7.00100238 C16.2238576,7.00100238 16,6.77714475 16,6.50100238 L16,4.00100238 Z M20,6.52897986 L20,14.5010024 C20,15.8817143 18.8807119,17.0010024 17.5,17.0010024 L10.5,17.0010024 C9.11928813,17.0010024 8,15.8817143 8,14.5010024 L8,5.50100238 C8,4.12029051 9.11928813,3.00100238 10.5,3.00100238 L16.4720225,3.00100238 C16.6047688,2.99258291 16.7429463,3.03684187 16.8535534,3.14744899 L19.8535534,6.14744899 C19.9641605,6.25805611 20.0084195,6.39623363 20,6.52897986 Z M17,6.00100238 L18.2928932,6.00100238 L17,4.70810916 L17,6.00100238 Z M11.5,13.0010024 C11.2238576,13.0010024 11,12.7771448 11,12.5010024 C11,12.22486 11.2238576,12.0010024 11.5,12.0010024 L13.5,12.0010024 C13.7761424,12.0010024 14,12.22486 14,12.5010024 C14,12.7771448 13.7761424,13.0010024 13.5,13.0010024 L11.5,13.0010024 Z M11.5,11.0010024 C11.2238576,11.0010024 11,10.7771448 11,10.5010024 C11,10.22486 11.2238576,10.0010024 11.5,10.0010024 L16.5,10.0010024 C16.7761424,10.0010024 17,10.22486 17,10.5010024 C17,10.7771448 16.7761424,11.0010024 16.5,11.0010024 L11.5,11.0010024 Z M11.5,9.00100238 C11.2238576,9.00100238 11,8.77714475 11,8.50100238 C11,8.22486001 11.2238576,8.00100238 11.5,8.00100238 L16.5,8.00100238 C16.7761424,8.00100238 17,8.22486001 17,8.50100238 C17,8.77714475 16.7761424,9.00100238 16.5,9.00100238 L11.5,9.00100238 Z"/>
</svg>
