<?xml version="1.0" encoding="UTF-8"?>
<svg width="24px" height="24px" viewBox="0 0 24 24" version="1.1" xmlns="http://www.w3.org/2000/svg" xmlns:xlink="http://www.w3.org/1999/xlink">
    <title>3EB4EB2D-F321-447C-BEEC-BCF7A97D353A</title>
    <defs>
        <rect id="path-1" x="0" y="0" width="1112" height="48"></rect>
        <filter x="-0.0%" y="-1.0%" width="100.1%" height="102.1%" filterUnits="objectBoundingBox" id="filter-2">
            <feOffset dx="0" dy="-1" in="SourceAlpha" result="shadowOffsetInner1"></feOffset>
            <feComposite in="shadowOffsetInner1" in2="SourceAlpha" operator="arithmetic" k2="-1" k3="1" result="shadowInnerInner1"></feComposite>
            <feColorMatrix values="0 0 0 0 0.91372549   0 0 0 0 0.933333333   0 0 0 0 0.949019608  0 0 0 1 0" type="matrix" in="shadowInnerInner1"></feColorMatrix>
        </filter>
    </defs>
    <g id="Admin" stroke="none" stroke-width="1" fill="none" fill-rule="evenodd">
        <g id="Admin/Billing-(Sub)" transform="translate(-1284.000000, -740.000000)">
            <g id="Layout/Admin">
                <rect id="Rectangle" fill="#FFFFFF" x="0" y="0" width="1456" height="1024"></rect>
                <rect id="Rectangle" fill="#F7FAFC" x="0" y="0" width="1456" height="1024"></rect>
            </g>
            <g id="Billing/Credits" transform="translate(296.000000, 728.000000)">
                <rect id="Rectangle-Copy" stroke="#E9EEF2" fill="#FFFFFF" x="0.5" y="0.5" width="1143" height="255" rx="8"></rect>
                <g id="Header" transform="translate(16.000000, 0.000000)">
                    <g id="Group" fill="black" fill-opacity="1">
                        <g id="BG">
                            <use filter="url(#filter-2)" xlink:href="#path-1"></use>
                        </g>
                    </g>
                    <g id="Button/Secondary/Icon-Responsive-(R)" transform="translate(964.000000, 8.000000)">
                        <rect id="Rectangle" x="0" y="0" width="148" height="32" rx="8"></rect>
                        <g id="Icon/Share" transform="translate(8.000000, 4.000000)">
                            <polygon id="Path" points="0 0 24 0 24 24 0 24"></polygon>
                            <g id="check-badge-medal-honor-quality" transform="translate(2.000000, 2.000000)" fill="#2B59C3">
                                <path d="M11.178,0.354633166 C11.821,0.107633166 12.545,-0.120366834 13.144,0.0716331659 C13.832,0.295633166 14.243,0.931633166 14.606,1.49263317 C14.839,1.85263317 15.059,2.19263317 15.307,2.37363317 C15.56,2.55663317 15.955,2.66363317 16.373,2.77563317 C17.015,2.94763317 17.743,3.14263317 18.163,3.72063317 C18.579,4.29363317 18.541,5.04063317 18.508,5.69963317 C18.486,6.13563317 18.465,6.54763317 18.564,6.85263317 C18.656,7.13563317 18.907,7.44463317 19.174,7.77163317 C19.599,8.29463317 20.08,8.88663317 20.081,9.62263317 C20.081,10.3606332 19.599,10.9526332 19.174,11.4736332 C18.907,11.8006332 18.656,12.1106332 18.564,12.3926332 C18.465,12.6966332 18.486,13.1086332 18.508,13.5456332 C18.541,14.2056332 18.579,14.9536332 18.163,15.5246332 C17.742,16.1026332 17.015,16.2976332 16.374,16.4696332 C15.955,16.5816332 15.56,16.6876332 15.307,16.8726332 C15.058,17.0536332 14.838,17.3936332 14.606,17.7526332 C14.243,18.3146332 13.831,18.9496332 13.143,19.1736332 C12.98,19.2266332 12.803,19.2536332 12.618,19.2536332 C12.129,19.2536332 11.645,19.0696332 11.178,18.8906332 C10.763,18.7316332 10.372,18.5826332 10.04,18.5826332 C9.708,18.5826332 9.317,18.7326332 8.902,18.8906332 C8.258,19.1356332 7.533,19.3646332 6.936,19.1736332 C6.248,18.9496332 5.837,18.3136332 5.474,17.7526332 C5.241,17.3926332 5.021,17.0526332 4.773,16.8716332 C4.52,16.6886332 4.125,16.5816332 3.707,16.4696332 C3.065,16.2976332 2.337,16.1026332 1.917,15.5246332 C1.501,14.9516332 1.539,14.2046332 1.572,13.5456332 C1.594,13.1096332 1.615,12.6976332 1.516,12.3926332 C1.424,12.1096332 1.173,11.8006332 0.906,11.4736332 C0.481,10.9506332 0,10.3586332 0,9.62263317 C0,8.88563317 0.482,8.29363317 0.907,7.77163317 C1.174,7.44463317 1.425,7.13463317 1.517,6.85263317 C1.615,6.54863317 1.595,6.13663317 1.572,5.69963317 C1.539,5.04063317 1.501,4.29263317 1.917,3.72163317 C2.338,3.14363317 3.065,2.94763317 3.706,2.77563317 C4.124,2.66363317 4.519,2.55763317 4.773,2.37263317 C5.021,2.19163317 5.241,1.85163317 5.473,1.49263317 C5.836,0.930633166 6.248,0.295633166 6.936,0.0716331659 C7.534,-0.120366834 8.258,0.108633166 8.902,0.354633166 C9.317,0.513633166 9.708,0.662633166 10.04,0.662633166 C10.372,0.662633166 10.763,0.513633166 11.178,0.354633166 Z M8.546,1.28863317 C8.039,1.09463317 7.553,0.920633166 7.246,1.02263317 C6.894,1.13763317 6.612,1.57363317 6.314,2.03463317 C6.042,2.45563317 5.76,2.89063317 5.362,3.18063317 C4.959,3.47463317 4.454,3.61063317 3.966,3.74163317 C3.438,3.88263317 2.939,4.01663317 2.727,4.30863317 C2.519,4.59463317 2.545,5.10663317 2.572,5.64863317 C2.597,6.15663317 2.624,6.68163317 2.468,7.16163317 C2.318,7.62263317 1.995,8.01863317 1.682,8.40263317 C1.332,8.83463317 1,9.24163317 1,9.62263317 C1,10.0036332 1.332,10.4106332 1.681,10.8406332 C1.993,11.2256332 2.317,11.6226332 2.466,12.0826332 C2.622,12.5636332 2.596,13.0876332 2.57,13.5956332 C2.542,14.1366332 2.517,14.6496332 2.725,14.9356332 C2.938,15.2276332 3.437,15.3606332 3.965,15.5026332 C4.453,15.6336332 4.958,15.7696332 5.361,16.0626332 C5.76,16.3526332 6.041,16.7886332 6.313,17.2096332 C6.612,17.6716332 6.894,18.1086332 7.245,18.2226332 C7.555,18.3246332 8.039,18.1486332 8.546,17.9566332 C9.027,17.7726332 9.524,17.5826332 10.04,17.5826332 C10.556,17.5826332 11.053,17.7726332 11.534,17.9576332 C12.041,18.1506332 12.527,18.3266332 12.834,18.2236332 C13.185,18.1086332 13.467,17.6726332 13.766,17.2106332 C14.038,16.7896332 14.32,16.3546332 14.718,16.0646332 C15.121,15.7706332 15.626,15.6346332 16.114,15.5036332 C16.642,15.3626332 17.141,15.2286332 17.353,14.9366332 C17.561,14.6506332 17.535,14.1386332 17.508,13.5966332 C17.483,13.0886332 17.456,12.5636332 17.612,12.0836332 C17.762,11.6226332 18.085,11.2266332 18.398,10.8426332 C18.748,10.4106332 19.081,10.0036332 19.081,9.62263317 C19.081,9.24163317 18.75,8.83463317 18.399,8.40363317 C18.087,8.01863317 17.763,7.62163317 17.614,7.16163317 C17.458,6.68063317 17.484,6.15663317 17.51,5.64863317 C17.538,5.10763317 17.563,4.59463317 17.355,4.30863317 C17.142,4.01663317 16.643,3.88363317 16.115,3.74163317 C15.627,3.61063317 15.122,3.47463317 14.719,3.18163317 C14.321,2.89163317 14.039,2.45663317 13.767,2.03563317 C13.468,1.57363317 13.186,1.13663317 12.835,1.02263317 C12.525,0.921633166 12.041,1.09563317 11.534,1.28863317 C11.053,1.47263317 10.556,1.66263317 10.04,1.66263317 C9.524,1.66263317 9.027,1.47263317 8.546,1.28863317 Z M10.04,4.12263317 C10.316,4.12263317 10.54,4.34663317 10.54,4.62263317 C10.54,4.89863317 10.316,5.12263317 10.04,5.12263317 C7.559,5.12263317 5.54,7.14163317 5.54,9.62263317 C5.54,12.1036332 7.559,14.1226332 10.04,14.1226332 C12.521,14.1226332 14.54,12.1036332 14.54,9.62263317 C14.54,9.34663317 14.764,9.12263317 15.04,9.12263317 C15.316,9.12263317 15.54,9.34663317 15.54,9.62263317 C15.54,12.6546332 13.073,15.1226332 10.04,15.1226332 C7.007,15.1226332 4.54,12.6546332 4.54,9.62263317 C4.54,6.59063317 7.007,4.12263317 10.04,4.12263317 Z M12.64,6.32363317 C12.806,6.10263317 13.119,6.05663317 13.34,6.22263317 C13.561,6.38863317 13.606,6.70163317 13.44,6.92263317 L13.44,6.92263317 L10.44,10.9226332 C10.353,11.0386332 10.221,11.1106332 10.076,11.1216332 C10.063,11.1226332 10.052,11.1226332 10.04,11.1226332 C9.908,11.1226332 9.781,11.0696332 9.687,10.9756332 L9.687,10.9756332 L8.687,9.97563317 C8.492,9.78063317 8.492,9.46363317 8.687,9.26863317 C8.882,9.07363317 9.199,9.07363317 9.394,9.26863317 L9.394,9.26863317 L9.986,9.86263317 Z" id="Combined-Shape"></path>
                            </g>
                        </g>
                    </g>
                </g>
            </g>
        </g>
    </g>
</svg>