<svg xmlns="http://www.w3.org/2000/svg" width="24" height="24" viewBox="0 0 24 24">
  <g fill="none" fill-rule="evenodd">
    <polygon points="0 0 24 0 24 24 0 24"/>
    <path fill="currentColor" d="M19,5 L19,4 L1,4 L1,5 L19,5 Z M19,6 L1,6 L1,11.5 C1,12.3284271 1.67157288,13 2.5,13 L17.5,13 C18.3284271,13 19,12.3284271 19,11.5 L19,6 Z M19,3 L19,2.5 C19,1.67157288 18.3284271,1 17.5,1 L2.5,1 C1.67157288,1 1,1.67157288 1,2.5 L1,3 L19,3 Z M15.0001277,11.7325095 C14.2296154,12.1783089 13.2351019,12.063529 12.5857864,11.4142136 C11.8047379,10.633165 11.8047379,9.366835 12.5857864,8.5857864 C13.2340286,7.9375443 14.2281989,7.8209143 15.0001033,8.2675046 C15.2942533,8.0973715 15.6357555,8 16,8 C17.1045695,8 18,8.8954305 18,10 C18,11.1045695 17.1045695,12 16,12 C15.6357656,12 15.2942722,11.9026339 15.0001277,11.7325095 L15.0001277,11.7325095 Z M14.2498202,10.9686777 C14.090641,10.6816907 14,10.3514305 14,10 C14,9.6485599 14.090646,9.3182912 14.2498333,9.0312988 C13.916851,8.9458211 13.5502017,9.0355847 13.2928932,9.2928932 C12.9023689,9.6834175 12.9023689,10.3165825 13.2928932,10.7071068 C13.5505379,10.9647514 13.9171928,11.0540405 14.2498202,10.9686777 L14.2498202,10.9686777 Z M0,2.5 C0,1.11928813 1.11928813,0 2.5,0 L17.5,0 C18.8807119,0 20,1.11928813 20,2.5 L20,11.5 C20,12.8807119 18.8807119,14 17.5,14 L2.5,14 C1.11928813,14 0,12.8807119 0,11.5 L0,2.5 Z M16,11 C16.5522847,11 17,10.5522847 17,10 C17,9.4477153 16.5522847,9 16,9 C15.4477153,9 15,9.4477153 15,10 C15,10.5522847 15.4477153,11 16,11 Z" transform="translate(2 5)"/>
  </g>
</svg>
