<svg xmlns="http://www.w3.org/2000/svg" width="24" height="24" viewBox="0 0 24 24">
  <g fill="none" fill-rule="evenodd">
    <polygon points="0 0 24 0 24 24 0 24"/>
    <path fill="#000" d="M20,4 C20.5522847,4 21,4.44771525 21,5 L21,19 C21,19.5522847 20.5522847,20 20,20 L4,20 C3.44771525,20 3,19.5522847 3,19 L3,5 C3,4.44771525 3.44771525,4 4,4 L20,4 Z M20,5 L4,5 L4,19 L20,19 L20,5 Z M10.9394861,9.00197415 L11.031,9.00247415 C11.209,9.01247415 11.367,9.11847415 11.447,9.27747415 L11.447,9.27747415 L13.137,12.6574741 L13.646,12.1474741 C13.74,12.0544741 13.867,12.0014741 14,12.0014741 L14,12.0014741 L18.5,12.0014741 C18.776,12.0014741 19,12.2254741 19,12.5014741 C19,12.7774741 18.776,13.0014741 18.5,13.0014741 L18.5,13.0014741 L14.208,13.0014741 L13.354,13.8554741 C13.259,13.9494741 13.131,14.0014741 13,14.0014741 C12.974,14.0014741 12.947,13.9994741 12.92,13.9944741 C12.761,13.9684741 12.625,13.8684741 12.553,13.7244741 L12.553,13.7244741 L10.938,10.4954741 L9.416,12.7784741 C9.323,12.9174741 9.167,13.0014741 9,13.0014741 L9,13.0014741 L5.5,13.0014741 C5.224,13.0014741 5,12.7774741 5,12.5014741 C5,12.2254741 5.224,12.0014741 5.5,12.0014741 L5.5,12.0014741 L8.732,12.0014741 L10.584,9.22447415 C10.683,9.07547415 10.843,8.98347415 11.031,9.00247415 Z"/>
  </g>
</svg>
