<svg xmlns="http://www.w3.org/2000/svg" width="24" height="24" viewBox="0 0 24 24">
  <g fill="none" fill-rule="evenodd">
    <polygon points="0 0 24 0 24 24 0 24"/>
    <path fill="currentColor" d="M19,10.999 C20.6568542,10.999 22,12.3421458 22,13.999 L22,13.999 L22,14.999 L22.5,14.999 C23.2796961,14.999 23.9204487,15.5938881 23.9931334,16.35454 L24,16.499 L24,22.499 C24,23.3274271 23.3284271,23.999 22.5,23.999 L22.5,23.999 L15.5,23.999 C14.6715729,23.999 14,23.3274271 14,22.499 L14,22.499 L14,16.499 C14,15.6705729 14.6715729,14.999 15.5,14.999 L15.5,14.999 L16,14.999 L16,13.999 C16,12.4013191 17.24892,11.0953391 18.8237272,11.0040927 Z M22.5,15.999 L15.5,15.999 C15.2238576,15.999 15,16.2228576 15,16.499 L15,16.499 L15,22.499 C15,22.7751424 15.2238576,22.999 15.5,22.999 L15.5,22.999 L22.5,22.999 C22.7761424,22.999 23,22.7751424 23,22.499 L23,22.499 L23,16.499 C23,16.2228576 22.7761424,15.999 22.5,15.999 L22.5,15.999 Z M10.001,-1.0125234e-13 C15.4969158,-1.0125234e-13 20.001,1.89645651 20.001,4.5 C20.001,4.51008083 20.0009325,4.52015107 20.0007976,4.53021063 L20,9 C20,9.27614237 19.7761424,9.5 19.5,9.5 C19.2545401,9.5 19.0503916,9.32312484 19.0080557,9.08987563 L19,9 L19.001521,6.51067937 C17.3766134,8.02381311 13.9440757,9 10.001,9 C6.05711131,9 2.62397112,8.02341051 0.999474183,6.50974334 L1,8.5 L1,8.5 C1,10.3151683 5.00227553,12 10,12 C10.335821,12 10.659841,11.9929455 10.9772962,11.9785157 C11.2531537,11.9659768 11.4869453,12.1794386 11.4994843,12.4552962 C11.5120232,12.7311537 11.2985614,12.9649453 11.0227038,12.9774843 C10.6897959,12.9926165 10.3506618,13 10,13 C8.62595616,13 7.31393424,12.881502 6.11880102,12.663067 L5.57570065,12.5552223 C3.5890964,12.1284391 1.97143418,11.4158704 0.999832449,10.5112631 L1,13 L1,13 C1,14.8151683 5.00227553,16.5 10,16.5 C10.335821,16.5 10.659841,16.4929455 10.9772962,16.4785157 C11.2531537,16.4659768 11.4869453,16.6794386 11.4994843,16.9552962 C11.5120232,17.2311537 11.2985614,17.4649453 11.0227038,17.4774843 C10.6897959,17.4926165 10.3506618,17.5 10,17.5 C8.62595616,17.5 7.31393424,17.381502 6.11880102,17.163067 L5.57570065,17.0552223 C3.5890964,16.6284391 1.97143418,15.9158704 0.999832449,15.0112631 L1,17.499 C1,19.3141683 5.00227553,20.999 10,20.999 C10.3365593,20.999 10.6623977,20.9919166 10.977158,20.977522 C11.2530121,20.9649068 11.4868627,21.178304 11.499478,21.454158 C11.5120932,21.7300121 11.298696,21.9638627 11.022842,21.976478 C10.6924752,21.9915862 10.3514407,21.999 10,21.999 C8.62595616,21.999 7.31393424,21.880502 6.11880102,21.662067 L5.57570065,21.5542223 C2.36929462,20.8653885 0.123997152,19.432072 0.00497187336,17.6484386 L0,17.499 L0,4.499 L0.00108012549,4.48098671 C0.0229488594,1.88722861 4.51847169,-1.0125234e-13 10.001,-1.0125234e-13 Z M19,17.813 C19.9664983,17.813 20.75,18.5965017 20.75,19.563 C20.75,20.5294983 19.9664983,21.313 19,21.313 C18.0335017,21.313 17.25,20.5294983 17.25,19.563 C17.25,18.5965017 18.0335017,17.813 19,17.813 Z M19,18.813 C18.5857864,18.813 18.25,19.1487864 18.25,19.563 C18.25,19.9772136 18.5857864,20.313 19,20.313 C19.4142136,20.313 19.75,19.9772136 19.75,19.563 C19.75,19.1487864 19.4142136,18.813 19,18.813 Z M19,11.999 C17.8954305,11.999 17,12.8944305 17,13.999 L17,13.999 L17,14.999 L21,14.999 L21,13.999 C21,12.9446382 20.1841222,12.0808349 19.1492623,12.0044857 L19.1492623,12.0044857 Z M10.001,1 C5.00350555,1 1.001,2.6852655 1.001,4.5 C1.001,6.3147345 5.00350555,8 10.001,8 C14.9984944,8 19.001,6.3147345 19.001,4.5 L19,4.519 L19,4.5 C18.9892946,2.68034142 14.9911882,1 10.001,1 Z"/>
  </g>
</svg>
