<svg width="68" height="77" viewBox="0 0 68 77" fill="none" xmlns="http://www.w3.org/2000/svg">
    <g opacity="0.5" filter="url(#filter0_f_1956_226898)">
    <ellipse cx="43" cy="62" rx="17" ry="7" fill="#B7C3CB"/>
    </g>
    <rect opacity="0.6" x="26.0786" y="-2" width="46.4606" height="39.3905"
    rx="6" transform="rotate(45 26.0786 -2)" fill="#E9E9F2"/>
    <path fill-rule="evenodd" clip-rule="evenodd" d="M24.1877 36.7241C24.3842 36.9206
    24.7028 36.9206 24.8992 36.7241L26.9955
    34.6278C27.192 34.4314 27.192 34.1128 26.9955 33.9163L24.8992 31.8201C24.7028 31.6236
    24.3842 31.6236 24.1877
    31.8201C23.9913 32.0165 23.9913 32.3351 24.1877 32.5316L25.4252 33.769H23.9565C23.2438
    33.769 22.7395 33.7686
    22.3453 33.7364C21.957 33.7046 21.7199 33.6446 21.5336 33.5496C21.1549 33.3567
    20.8471 33.0488 20.6541
    32.6702C20.5592 32.4839 20.4991 32.2468 20.4674 31.8585C20.4352 31.4642 20.4348
    30.96 20.4348 30.2472V29.6603C20.4348 29.3824 20.2096 29.1572 19.9317 29.1572C19.6538
    29.1572 19.4286 29.3824 19.4286 29.6603L19.4286 30.2693C19.4286 30.955 19.4286 31.5004
    19.4645 31.9404C19.5013 32.391 19.5784 32.7752 19.7576 33.127C20.047 33.695 20.5088
    34.1568 21.0768 34.4462C21.4286 34.6254 21.8128 34.7024 22.2634 34.7392C22.7034 34.7752
    23.2488 34.7752 23.9345 34.7752H25.4252L24.1877 36.0126C23.9913 36.2091 23.9913 36.5276
    24.1877 36.7241Z"
    fill="url(#paint0_linear_1956_226898)"
    stroke="url(#paint1_linear_1956_226898)" stroke-width="0.3"
    stroke-linecap="round" stroke-linejoin="round"/>
    <path fill-rule="evenodd" clip-rule="evenodd" d="M53.9821
     34.427V40.2157C53.4012 40.744 52.6239 41.2431 51.657 41.6893C49.3371 42.7601
     46.0969 43.4357 42.4911 43.4357C38.8852 43.4357 35.6451 42.7601 33.3251
     41.6893C32.3582 41.2431 31.5809 40.744 31 40.2157V34.427C31.5609 34.8343
     32.2045 35.2021 32.9061 35.5259C35.3849 36.6699 38.7742 37.3642 42.4911
     37.3642C46.2079 37.3642 49.5973 36.6699 52.0761 35.5259C52.7776 35.2021 53.4213
     34.8343 53.9821 34.427ZM53.9821 33.1443V29.9286C53.9821 26.9996 48.8374 24.6251
     42.4911 24.6251C36.1447 24.6251 31 26.9996 31 29.9286V33.1443C31.5809 33.6726
     32.3582 34.1716 33.3251 34.6179C35.6451 35.6887 38.8852 36.3642 42.4911
     36.3642C46.0969 36.3642 49.3371 35.6887 51.657 34.6179C52.6239 34.1716 53.4012
     33.6726 53.9821 33.1443ZM52.0761 42.5973C52.7776 42.2735 53.4213 41.9058 53.9821
     41.4985V45.8393C53.9821 48.7684 48.8374 51.1429 42.4911 51.1429C36.1447 51.1429 31
     48.7684 31 45.8393V41.4984C31.5609 41.9058 32.2045 42.2735 32.9061 42.5973C35.3849
     43.7414 38.7742 44.4357 42.4911 44.4357C46.2079 44.4357 49.5973 43.7414 52.0761
     42.5973Z" fill="url(#paint2_linear_1956_226898)"/>
    <path fill-rule="evenodd" clip-rule="evenodd" d="M31 28.1608C31 28.1608 31 28.1607
    31 28.1607C31 25.2317 36.1447 22.8572 42.4911 22.8572C48.8374 22.8572 53.9821 25.2317
    53.9821 28.1607V44.0715C53.9821 47.0005 48.8374 49.375 42.4911 49.375C36.1447 49.375
    31 47.0005 31 44.0715V28.1608Z" fill="#EEEEF3"/>
    <path fill-rule="evenodd" clip-rule="evenodd" d="M31 28.1608V28.1607C31 25.2317
    36.1447 22.8572 42.4911 22.8572C48.8374 22.8572 53.9821 25.2317 53.9821
    28.1607V30.6707C53.4475 31.2624 52.6185 31.8556 51.4475 32.396C49.207
    33.4301 46.0414 34.0964 42.4911 34.0964C38.9408 34.0964 35.7752 33.4301
    33.5347 32.396C32.3637 31.8556 31.5346 31.2624 31 30.6707V28.1608ZM31
    33.268V39.0279C31.5346 39.6196 32.3637 40.2127 33.5347 40.7532C35.7752
    41.7873 38.9408 42.4535 42.4911 42.4535C46.0414 42.4535 49.207 41.7873 51.4475
    40.7532C52.6185 40.2127 53.4475 39.6196 53.9821 39.0279V33.268C53.4596 33.6193
    52.8868 33.9345 52.2856 34.212C49.7274 35.3927 46.2635 36.0964 42.4911 36.0964C38.7187
    36.0964 35.2548 35.3927 32.6965 34.212C32.0953 33.9345 31.5226 33.6193 31 33.268ZM52.2856
    42.5691C52.8868 42.2916 53.4596 41.9765 53.9821 41.6252V44.0715C53.9821 47.0005 48.8374
    49.375 42.4911 49.375C36.1447 49.375 31 47.0005 31 44.0715V41.6252C31.5226 41.9765 32.0953
    42.2916 32.6965 42.5691C35.2548 43.7498 38.7187 44.4535 42.4911 44.4535C46.2635 44.4535
    49.7274 43.7498 52.2856 42.5691Z" fill="url(#paint3_linear_1956_226898)"/>
    <path fill-rule="evenodd" clip-rule="evenodd" d="M13 13.3428V13.3429V15.4004C13.2061
    15.8095 13.7182 16.3136 14.7525 16.7909C16.1059 17.4156 18.0461 17.8286 20.2428
    17.8286C22.4395 17.8286 24.3796 17.4156 25.7331 16.7909C26.7676 16.3135 27.2797
    15.8093 27.4857 15.4001V13.3429V13.3428C27.4857 11.4966 24.2429 10 20.2429 10C16.2428
    10 13.0001 11.4966 13 13.3428ZM27.4857 18.1159C27.1932 18.2984 26.885 18.462 26.5712
    18.6069C24.9 19.3782 22.6616 19.8286 20.2428 19.8286C17.824 19.8286 15.5855 19.3782
    13.9143 18.6069C13.6006 18.4621 13.2925 18.2984 13 18.116V23.3714V23.3716C13 25.2178
    16.2427 26.7145 20.2429 26.7145C24.243 26.7145 27.4857 25.2178 27.4857
    23.3716V23.3714V18.1159Z" fill="url(#paint4_linear_1956_226898)"/>
    <defs>
    <filter id="filter0_f_1956_226898" x="18" y="47" width="50" height="30"
    filterUnits="userSpaceOnUse" color-interpolation-filters="sRGB">
    <feFlood flood-opacity="0" result="BackgroundImageFix"/>
    <feBlend mode="normal" in="SourceGraphic" in2="BackgroundImageFix" result="shape"/>
    <feGaussianBlur stdDeviation="4" result="effect1_foregroundBlur_1956_226898"/>
    </filter>
    <linearGradient id="paint0_linear_1956_226898" x1="19.6977" y1="37.1562" x2="25.9416"
    y2="28.5019" gradientUnits="userSpaceOnUse">
    <stop stop-color="#D74FEE"/>
    <stop offset="1" stop-color="#FF6E42"/>
    </linearGradient>
    <linearGradient id="paint1_linear_1956_226898" x1="19.6977" y1="37.1562" x2="25.9416"
    y2="28.5019" gradientUnits="userSpaceOnUse">
    <stop stop-color="#D74FEE"/>
    <stop offset="1" stop-color="#FF6E42"/>
    </linearGradient>
    <linearGradient id="paint2_linear_1956_226898" x1="31" y1="28.1608" x2="56.6842"
    y2="40.3099" gradientUnits="userSpaceOnUse">
    <stop stop-color="#B72FCE"/>
    <stop offset="1" stop-color="#DE542A"/>
    </linearGradient>
    <linearGradient id="paint3_linear_1956_226898" x1="31.8016" y1="21.8784" x2="54.044"
    y2="48.5968" gradientUnits="userSpaceOnUse">
    <stop stop-color="#D74FEE"/>
    <stop offset="1" stop-color="#FF6E42"/>
    </linearGradient>
    <linearGradient id="paint4_linear_1956_226898" x1="13" y1="12.2286" x2="29.1889"
    y2="19.8862" gradientUnits="userSpaceOnUse">
    <stop stop-color="#FF971C"/>
    <stop offset="1" stop-color="#F75656" stop-opacity="0.98"/>
    </linearGradient>
    </defs>
    </svg>
