<svg width="24" height="24" viewBox="0 0 24 24" fill="none" xmlns="http://www.w3.org/2000/svg">
<path fill-rule="evenodd" clip-rule="evenodd" d="M3 6.875C3 4.60968 7.02421 3 11.9375 3C16.8508 3 20.875 4.60968 20.875 6.875V11.9368V16.9993C20.875 19.2644 16.8505 20.8743 11.9375 20.8743C7.12685 20.8743 3.16807 19.3308 3.00521 17.14L3 16.9993V11.9368V6.875ZM4 13.7711V16.9993C4 18.4617 7.53127 19.8743 11.9375 19.8743C16.2436 19.8743 19.714 18.5252 19.8696 17.0989L19.875 16.9993V13.7714C18.3831 15.0225 15.3785 15.8118 11.9375 15.8118C8.4969 15.8118 5.49206 15.0222 4 13.7711ZM19.875 11.9368V8.70942C18.383 9.96059 15.3783 10.75 11.9375 10.75C8.49675 10.75 5.49201 9.96059 4 8.70942V11.9368C4 13.3992 7.53127 14.8118 11.9375 14.8118C16.2442 14.8118 19.7141 13.4631 19.8696 12.0364L19.875 11.9368ZM11.9375 9.75C7.53099 9.75 4 8.33761 4 6.875C4 5.41239 7.53099 4 11.9375 4C16.344 4 19.875 5.41239 19.875 6.875C19.875 8.33761 16.344 9.75 11.9375 9.75Z" fill="currentColor"/>
</svg>
