<svg xmlns="http://www.w3.org/2000/svg" width="24" height="24" viewBox="0 0 24 24">
  <g fill="none" fill-rule="evenodd">
    <polygon points="0 0 24 0 24 24 0 24"/>
    <path fill="currentColor" d="M18.2843055,7.08859116 L18.3535534,7.14644661 L22.9368867,11.7297799 C23.1104531,11.9033463 23.1297382,12.1727707 22.9947422,12.3676388 L22.9368867,12.4368867 L18.3535534,17.0202201 C18.1582912,17.2154822 17.8417088,17.2154822 17.6464466,17.0202201 C17.4728803,16.8466537 17.4535951,16.5772293 17.5885912,16.3823612 L17.6464466,16.3131133 L21.8756667,12.083 L17.6464466,7.85355339 C17.4728803,7.67998704 17.4535951,7.41056264 17.5885912,7.2156945 L17.6464466,7.14644661 C17.820013,6.97288026 18.0894374,6.95359511 18.2843055,7.08859116 Z M6.43688672,7.14644661 C6.61045308,7.32001296 6.62973823,7.58943736 6.49474217,7.7843055 L6.43688672,7.85355339 L2.20666667,12.083 L6.43688672,16.3131133 C6.61045308,16.4866796 6.62973823,16.756104 6.49474217,16.9509722 L6.43688672,17.0202201 C6.26332037,17.1937864 5.99389597,17.2130716 5.79902783,17.0780755 L5.72977994,17.0202201 L1.14644661,12.4368867 C0.972880258,12.2633204 0.953595107,11.993896 1.08859116,11.7990278 L1.14644661,11.7297799 L5.72977994,7.14644661 C5.92504209,6.95118446 6.24162458,6.95118446 6.43688672,7.14644661 Z M12.0416667,10.6666667 C12.8240701,10.6666667 13.4583333,11.3009299 13.4583333,12.0833333 C13.4583333,12.8657367 12.8240701,13.5 12.0416667,13.5 C11.2592633,13.5 10.625,12.8657367 10.625,12.0833333 C10.625,11.3009299 11.2592633,10.6666667 12.0416667,10.6666667 Z M16.625,10.6666667 C17.4074034,10.6666667 18.0416667,11.3009299 18.0416667,12.0833333 C18.0416667,12.8657367 17.4074034,13.5 16.625,13.5 C15.8425966,13.5 15.2083333,12.8657367 15.2083333,12.0833333 C15.2083333,11.3009299 15.8425966,10.6666667 16.625,10.6666667 Z M7.45833333,10.6666667 C8.24073673,10.6666667 8.875,11.3009299 8.875,12.0833333 C8.875,12.8657367 8.24073673,13.5 7.45833333,13.5 C6.67592994,13.5 6.04166667,12.8657367 6.04166667,12.0833333 C6.04166667,11.3009299 6.67592994,10.6666667 7.45833333,10.6666667 Z M12.0416667,11.6666667 C11.811548,11.6666667 11.625,11.8532147 11.625,12.0833333 C11.625,12.313452 11.811548,12.5 12.0416667,12.5 C12.2717853,12.5 12.4583333,12.313452 12.4583333,12.0833333 C12.4583333,11.8532147 12.2717853,11.6666667 12.0416667,11.6666667 Z M16.625,11.6666667 C16.3948814,11.6666667 16.2083333,11.8532147 16.2083333,12.0833333 C16.2083333,12.313452 16.3948814,12.5 16.625,12.5 C16.8551186,12.5 17.0416667,12.313452 17.0416667,12.0833333 C17.0416667,11.8532147 16.8551186,11.6666667 16.625,11.6666667 Z M7.45833333,11.6666667 C7.22821469,11.6666667 7.04166667,11.8532147 7.04166667,12.0833333 C7.04166667,12.313452 7.22821469,12.5 7.45833333,12.5 C7.68845198,12.5 7.875,12.313452 7.875,12.0833333 C7.875,11.8532147 7.68845198,11.6666667 7.45833333,11.6666667 Z"/>
  </g>
</svg>
