<svg width="24" height="16" viewBox="0 0 24 16" fill="none" xmlns="http://www.w3.org/2000/svg">
<g clip-path="url(#clip0)">
<path d="M21.9972 15.7499L21.9994 15.7499C22.9545 15.7581 23.7381 14.9773 23.75 14.0042L23.75 2.0063C23.7462 1.53569 23.5589 1.08617 23.2297 0.756802C22.9014 0.428269 22.4589 0.246149 21.9972 0.250071L2.00064 0.250062C1.54109 0.246149 1.09858 0.428269 0.770279 0.756802C0.441145 1.08617 0.253838 1.53569 0.250008 2.00426L0.25 13.9937C0.253838 14.4643 0.441145 14.9138 0.770279 15.2432C1.09858 15.5717 1.54109 15.7538 2.00277 15.7499H21.9972ZM21.9962 16.2499C21.9958 16.2499 21.9955 16.2499 21.9951 16.2499L21.9972 16.2499H21.9962Z" fill="white" stroke="black" stroke-opacity="0.2" stroke-width="0.5"/>
<path d="M12.6123 15.9999H21.9971C22.5239 16.0043 23.0309 15.7993 23.4065 15.4299C23.7821 15.0605 23.9955 14.557 23.9999 14.0303V11.6716C20.4561 13.7059 16.6127 15.1668 12.6123 15.9999Z" fill="#F27712"/>
<path d="M23.1725 9.29649H22.32L21.3601 8.03029H21.269V9.29649H20.5738V6.15167H21.6C22.4028 6.15167 22.8663 6.4827 22.8663 7.07856C22.8663 7.56684 22.5766 7.88132 22.0552 7.98063L23.1725 9.29649ZM22.1463 7.10339C22.1463 6.79718 21.9145 6.63994 21.4842 6.63994H21.269V7.59167H21.4676C21.9145 7.59167 22.1463 7.42615 22.1463 7.10339ZM18.1407 6.15167H20.1104V6.68132H18.8359V7.38477H20.0607V7.9227H18.8359V8.77512H20.1104V9.30477H18.1407V6.15167ZM15.9063 9.37925L14.4001 6.14339H15.1614L16.1132 8.26201L17.0732 6.14339H17.818L16.2952 9.37925H15.9228H15.9063ZM9.60833 9.37098C8.54902 9.37098 7.72143 8.65098 7.72143 7.71581C7.72143 6.80546 8.56557 6.06891 9.62488 6.06891C9.92281 6.06891 10.1711 6.12684 10.4773 6.25925V6.98753C10.2454 6.75971 9.9334 6.63194 9.60833 6.63167C8.94626 6.63167 8.44143 7.11167 8.44143 7.71581C8.44143 8.35305 8.93798 8.80822 9.64143 8.80822C9.95591 8.80822 10.1959 8.70891 10.4773 8.46063V9.18891C10.1628 9.32132 9.89798 9.37098 9.60833 9.37098ZM7.50626 8.33649C7.50626 8.94891 7.00143 9.37098 6.27315 9.37098C5.7435 9.37098 5.36281 9.18891 5.04005 8.77512L5.49522 8.38615C5.65246 8.66753 5.91729 8.80822 6.24833 8.80822C6.56281 8.80822 6.78626 8.61787 6.78626 8.3696C6.78626 8.22891 6.72005 8.12132 6.57936 8.03856C6.4251 7.96371 6.26446 7.90277 6.09936 7.85649C5.44557 7.6496 5.22212 7.42615 5.22212 6.98753C5.22212 6.47443 5.70212 6.08546 6.33109 6.08546C6.72833 6.08546 7.08419 6.2096 7.38212 6.44132L7.01798 6.85512C6.87366 6.6969 6.66938 6.60677 6.45522 6.60684C6.15729 6.60684 5.94212 6.75581 5.94212 6.95443C5.94212 7.11994 6.06626 7.21098 6.48005 7.35167C7.27453 7.59994 7.50626 7.83167 7.50626 8.34477V8.33649ZM4.08833 6.15167H4.7835V9.30477H4.08833V6.15167ZM1.85384 9.30477H0.827637V6.15167H1.85384C2.97936 6.15167 3.75729 6.79718 3.75729 7.72408C3.75729 8.19581 3.52557 8.6427 3.12005 8.94063C2.77246 9.18891 2.3835 9.30477 1.84557 9.30477H1.85384ZM2.66488 6.93787C2.43315 6.75581 2.16833 6.6896 1.71315 6.6896H1.52281V8.77512H1.71315C2.16005 8.77512 2.44143 8.69236 2.66488 8.52684C2.90488 8.32822 3.04557 8.03029 3.04557 7.72408C3.04557 7.41787 2.90488 7.12822 2.66488 6.93787Z" fill="black"/>
<path d="M12.414 6.06891C11.5036 6.06891 10.7588 6.79718 10.7588 7.69925C10.7588 8.65925 11.4705 9.37925 12.414 9.37925C13.3409 9.37925 14.0691 8.65098 14.0691 7.72408C14.0691 6.79718 13.3491 6.06891 12.414 6.06891Z" fill="#F27712"/>
</g>
<defs>
<clipPath id="clip0">
<rect width="24" height="16" fill="white"/>
</clipPath>
</defs>
</svg>
