<svg id="logoHorizontal" viewBox="-5.724 -43.601 800 600" fill="currentColor">           
    <path d="M1919.081,436.342v-0.185c1.512-0.292,2.65-1.544,2.8-3.076c0.057-1.175-0.432-2.311-1.323-3.077
      c-1.445-0.765-3.076-1.106-4.707-0.984c-1.743-0.024-3.484,0.12-5.2,0.431v13.538h3.077v-5.446h1.477
      c1.754,0,2.554,0.646,2.83,2.154c0.184,1.143,0.536,2.252,1.047,3.292h3.415c-0.53-1.062-0.873-2.207-1.016-3.385
      c-0.138-1.473-1.088-2.744-2.462-3.292 M1915.296,435.327h-1.508v-3.908c0.583-0.069,1.172-0.069,1.754,0
      c1.97,0,2.893,0.831,2.893,2.062s-1.415,2-3.076,2"></path>
    <path d="M707.494,193.557c-1.938-1.539-20.029-15.199-58.181-15.199c-10.074,0.044-20.127,0.908-30.061,2.584
      c-7.384-50.612-49.228-75.288-51.104-76.395l-10.245-5.908l-6.738,9.723c-8.438,13.061-14.598,27.459-18.214,42.582
      c-6.831,28.891-2.677,56.027,11.999,79.226c-17.722,9.876-46.151,12.307-51.904,12.522H22.367
      c-12.294,0.017-22.27,9.952-22.337,22.245c-0.549,41.234,6.437,82.222,20.614,120.946c16.214,42.521,40.336,73.842,71.719,93.01
      c35.167,21.537,92.302,33.844,157.067,33.844c29.258,0.092,58.461-2.556,87.226-7.907c39.986-7.342,78.463-21.318,113.839-41.352
      c29.149-16.88,55.383-38.354,77.688-63.596c37.29-42.213,59.505-89.226,76.026-131.007c2.215,0,4.431,0,6.584,0
      c40.828,0,65.935-16.338,79.78-30.029c9.201-8.732,16.384-19.369,21.045-31.167l2.923-8.553L707.494,193.557z"></path>
    <path d="M65.995,228.909h63.073c3.042,0,5.507-2.466,5.507-5.507l0,0V167.22c0.017-3.042-2.435-5.521-5.476-5.538
      c-0.01,0-0.021,0-0.031,0H65.995c-3.042,0-5.507,2.466-5.507,5.507c0,0.01,0,0.021,0,0.031v56.181
      C60.488,226.443,62.953,228.909,65.995,228.909L65.995,228.909"></path>
    <path d="M152.913,228.909h63.073c3.042,0,5.507-2.466,5.507-5.507l0,0V167.22c0.017-3.042-2.435-5.521-5.477-5.538
      c-0.01,0-0.021,0-0.031,0h-63.073c-3.059,0-5.538,2.479-5.538,5.538v56.181C147.392,226.448,149.866,228.909,152.913,228.909"></path>
    <path d="M241.153,228.909h63.073c3.042,0,5.507-2.466,5.507-5.507l0,0V167.22c0.017-3.042-2.435-5.521-5.477-5.538
      c-0.01,0-0.021,0-0.031,0h-63.073c-3.042,0-5.507,2.466-5.507,5.507c0,0.01,0,0.021,0,0.031v56.181
      C235.646,226.443,238.112,228.909,241.153,228.909L241.153,228.909"></path>
    <path d="M328.348,228.909h63.073c3.047,0,5.521-2.46,5.538-5.507V167.22c0-3.059-2.479-5.538-5.538-5.538l0,0h-63.073
      c-3.042,0-5.507,2.466-5.507,5.507c0,0.01,0,0.021,0,0.031v56.181C322.841,226.443,325.307,228.909,328.348,228.909L328.348,228.909
      "></path>
    <path d="M152.913,148.083h63.073c3.046-0.017,5.507-2.492,5.507-5.538V86.364c0-3.042-2.466-5.507-5.507-5.507l0,0h-63.073
      c-3.046,0-5.521,2.46-5.538,5.507v56.181C147.392,145.597,149.861,148.066,152.913,148.083"></path>
    <path d="M241.153,148.083h63.073c3.046-0.017,5.507-2.492,5.507-5.538V86.364c0-3.042-2.466-5.507-5.507-5.507l0,0h-63.073
      c-3.042,0-5.507,2.466-5.507,5.507l0,0v56.181C235.646,145.591,238.107,148.066,241.153,148.083"></path>
    <path d="M328.348,148.083h63.073c3.052-0.017,5.521-2.486,5.538-5.538V86.364c-0.017-3.047-2.491-5.507-5.538-5.507h-63.073
      c-3.042,0-5.507,2.466-5.507,5.507l0,0v56.181C322.841,145.591,325.302,148.066,328.348,148.083"></path>
    <path d="M328.348,67.227h63.073c3.047,0,5.521-2.461,5.538-5.507V5.507C396.942,2.46,394.468,0,391.421,0h-63.073
      c-3.042,0-5.507,2.465-5.507,5.507l0,0v56.212C322.841,64.761,325.307,67.227,328.348,67.227"></path>
    <path d="M416.312,228.909h63.073c3.047,0,5.521-2.46,5.538-5.507V167.22c0-3.059-2.479-5.538-5.538-5.538l0,0h-63.073
      c-3.041,0-5.507,2.466-5.507,5.507c0,0.01,0,0.021,0,0.031v56.181C410.805,226.443,413.271,228.909,416.312,228.909"></path>
  </svg>