<svg width="24" height="24" viewBox="0 0 14 16" fill="none" xmlns="http://www.w3.org/2000/svg">
<path d="M12.9999 15.1999H2.59991C1.93831 15.1999 1.39991 14.6615 1.39991 13.9999C1.39991 13.3383 1.93831 12.7999 2.59991 12.7999H12.1999C12.4207 12.7999 12.5999 12.6207 12.5999 12.3999V1.99987C12.5999 0.89667 11.7023 -0.0001297 10.5999 -0.0001297H2.59991C1.49751 -0.0001297 0.599915 0.89667 0.599915 1.99987V13.9999C0.599915 15.1031 1.49751 15.9999 2.59991 15.9999H12.9999C13.2207 15.9999 13.3999 15.8207 13.3999 15.5999C13.3999 15.3791 13.2207 15.1999 12.9999 15.1999ZM1.39991 1.99987C1.39991 1.33827 1.93831 0.79987 2.59991 0.79987H10.5999C11.2615 0.79987 11.7999 1.33827 11.7999 1.99987V11.9999H2.59991C2.15031 11.9999 1.73431 12.1495 1.39991 12.4007V1.99987Z" fill="currentColor"/>
<path d="M8.99999 5.59997H4.19999C3.97919 5.59997 3.79999 5.77917 3.79999 5.99997C3.79999 6.22077 3.97919 6.39997 4.19999 6.39997H8.99999C9.22079 6.39997 9.39999 6.22077 9.39999 5.99997C9.39999 5.77917 9.22079 5.59997 8.99999 5.59997Z" fill="currentColor"/>
<path d="M8.99981 7.8222H4.1998C3.979 7.8222 3.7998 8.00141 3.7998 8.22221C3.7998 8.44301 3.979 8.62221 4.1998 8.62221H8.99981C9.22061 8.62221 9.39981 8.44301 9.39981 8.22221C9.39981 8.00141 9.22061 7.8222 8.99981 7.8222Z" fill="currentColor"/>
<path d="M8.99981 3.37765H4.1998C3.979 3.37765 3.7998 3.55685 3.7998 3.77765C3.7998 3.99845 3.979 4.17765 4.1998 4.17765H8.99981C9.22061 4.17765 9.39981 3.99845 9.39981 3.77765C9.39981 3.55685 9.22061 3.37765 8.99981 3.37765Z" fill="currentColor"/>
<path d="M8.99981 7.8222H4.1998C3.979 7.8222 3.7998 8.00141 3.7998 8.22221C3.7998 8.44301 3.979 8.62221 4.1998 8.62221H8.99981C9.22061 8.62221 9.39981 8.44301 9.39981 8.22221C9.39981 8.00141 9.22061 7.8222 8.99981 7.8222Z" fill="currentColor"/>
</svg>
