<svg width="12" height="12" viewBox="0 0 12 12" fill="none" xmlns="http://www.w3.org/2000/svg">
<path d="M10.5385 9.07142C10.756 9.30729 10.7266 9.6624 10.4728 9.86457C10.219 10.0667 9.83694 10.0394 9.6194 9.80356L5.98782 5.86607C5.79353 5.65542 5.79353 5.34458 5.98782 5.13393L9.6194 1.19644C9.83694 0.960569 10.219 0.933254 10.4728 1.13543C10.7266 1.3376 10.756 1.69271 10.5385 1.92858L7.24455 5.5L10.5385 9.07142ZM5.69639 9.07142C5.91394 9.30729 5.88454 9.6624 5.63074 9.86457C5.37694 10.0667 4.99484 10.0394 4.77729 9.80356L1.14571 5.86607C0.951429 5.65542 0.951429 5.34458 1.14571 5.13393L4.77729 1.19644C4.99484 0.960569 5.37694 0.933254 5.63074 1.13543C5.88454 1.3376 5.91394 1.69271 5.69639 1.92858L2.40244 5.5L5.69639 9.07142Z" fill="#6D7C88"/>
</svg>
