<svg xmlns="http://www.w3.org/2000/svg" width="24" height="24" viewBox="0 0 24 24">
  <g fill="none" fill-rule="evenodd">
    <rect width="24" height="24"/>
    <path fill="currentColor" d="M11.80925,9.0375 C11.93125,8.9875 12.06925,8.9875 12.19125,9.0375 C12.25225,9.0625 12.30825,9.0995 12.35425,9.1465 L12.35425,9.1465 L15.35425,12.1455 C15.54925,12.3405 15.54925,12.6575 15.35425,12.8525 C15.25625,12.9495 15.12825,12.9985 15.00025,12.9985 C14.87225,12.9985 14.74425,12.9495 14.64625,12.8515 L14.64625,12.8515 L12.50025,10.7055 L12.50025,18.9985 C12.50025,19.2745 12.27625,19.4985 12.00025,19.4985 C11.72425,19.4985 11.50025,19.2745 11.50025,18.9985 L11.50025,18.9985 L11.50025,10.7055 L9.35425,12.8525 C9.15825,13.0475 8.84125,13.0475 8.64625,12.8525 C8.45125,12.6575 8.45125,12.3405 8.64625,12.1455 L8.64625,12.1455 L11.64625,9.1465 C11.69225,9.0995 11.74725,9.0625 11.80925,9.0375 Z M18,4.5 L18.1643757,4.50531768 C19.4684641,4.58996133 20.5,5.6745166 20.5,7 L20.5,7 L20.5,13 L20.4919443,13.0898756 C20.4496084,13.3231248 20.2454599,13.5 20,13.5 C19.7238576,13.5 19.5,13.2761424 19.5,13 L19.5,13 L19.5,7 L19.4931334,6.85553999 C19.4204487,6.09488808 18.7796961,5.5 18,5.5 L18,5.5 L6,5.5 L5.85553999,5.50686658 C5.09488808,5.57955132 4.5,6.22030388 4.5,7 L4.5,7 L4.5,13 L4.49194433,13.0898756 C4.44960837,13.3231248 4.24545989,13.5 4,13.5 C3.72385763,13.5 3.5,13.2761424 3.5,13 L3.5,13 L3.5,7 L3.50531768,6.83562431 C3.58996133,5.53153594 4.6745166,4.5 6,4.5 L6,4.5 L18,4.5 Z" transform="rotate(180 12 12)"/>
  </g>
</svg>
