<svg xmlns="http://www.w3.org/2000/svg" width="24" height="24" viewBox="0 0 24 24">
  <g fill="none" fill-rule="evenodd">
    <rect width="24" height="24"/>
    <path fill="currentColor" d="M21.5,20 C21.7761424,20 22,20.2238576 22,20.5 C22,20.7454599 21.8231248,20.9496084 21.5898756,20.9919443 L21.5,21 L2.5,21 C2.22385763,21 2,20.7761424 2,20.5 C2,20.2545401 2.17687516,20.0503916 2.41012437,20.0080557 L2.5,20 L21.5,20 Z M15.7561129,2 C15.9782299,2 16.1926818,2.07392144 16.3666175,2.20807794 L16.4658542,2.29569056 L20.7043094,6.58412757 C20.8935531,6.77182576 21,7.0273285 21,7.2938689 C21,7.51598589 20.9260786,7.73043785 20.7919221,7.90437355 L20.7043094,8.00361022 L17.8653441,10.7825974 L10.9478653,17.7100726 C10.7906569,17.8660045 10.5871048,17.9644322 10.3698558,17.9920307 L10.238124,17.9999836 L5.99966877,17.9999836 C5.48701977,17.9999836 5.06448802,17.6140697 5.00674189,17.1169101 L5,17.0003312 L5,12.761876 C4.99875015,12.5404542 5.07097816,12.3261998 5.20337539,12.1517598 L5.28992744,12.0521347 L12.227399,5.1246595 L15.0463716,2.29569056 C15.2340698,2.10644688 15.4895725,2 15.7561129,2 Z M13.028984,5.736 L12.9339958,5.8322759 L5.99991073,12.7563532 L5.99991073,16.999 L10.243,17 L17.1658264,10.0679821 L17.263984,9.971 L13.028984,5.736 Z M15.756,3 L13.734984,5.028 L17.977984,9.271 L19.9991483,7.29312774 L15.756,3 Z"/>
  </g>
</svg>
