<svg width="40" height="40" viewBox="0 0 40 40" fill="none" xmlns="http://www.w3.org/2000/svg">
  <path d="M36 12C36 9.7936 34.2048 8 32 8H8C5.7952 8 4 9.7936 4 12C4 13.0368 4.3936 14.0144 5.1056 14.7504C5.68 15.3424 6.408 15.7104 7.2 15.8416V20C7.2 22.2064 8.9952 24 11.2 24H22.4C24.6048 24 26.4 22.2064 26.4 20V15.9008L31.2 15.8992V27.6688L28.2336 30.6352C27.9216 30.9472 27.9216 31.4544 28.2336 31.7664C28.5456 32.0784 29.0528 32.0784 29.3648 31.7664L32 29.1312L34.6336 31.7648C34.7904 31.9216 34.9952 32 35.2 32C35.4048 32 35.6096 31.9216 35.7664 31.7664C36.0784 31.4544 36.0784 30.9472 35.7664 30.6352L32.8 27.6688V15.84C34.6112 15.5328 36 13.9344 36 12ZM5.6 12C5.6 10.6768 6.6768 9.6 8 9.6H32C33.3232 9.6 34.4 10.6768 34.4 12C34.4 13.2704 33.4016 14.304 32.1744 14.304L8 14.3008C7.9856 14.3008 7.84 14.3056 7.8256 14.3056C7.2304 14.3056 6.6736 14.0688 6.2544 13.6368C5.8336 13.2016 5.6 12.6208 5.6 12ZM24.8 20C24.8 21.3232 23.7232 22.4 22.4 22.4H11.2C9.8768 22.4 8.8 21.3232 8.8 20V15.904L24.8 15.8992V20Z" fill="#5D5FEF"/>
</svg>
