<svg width="15" height="16" viewBox="0 0 15 16" fill="none" xmlns="http://www.w3.org/2000/svg">
<path fill-rule="evenodd" clip-rule="evenodd" d="M8 11.2929L11.1464 8.14645C11.3417 7.95118 11.6583 7.95118 11.8536 8.14645C12.0488 8.34171 12.0488 8.65829 11.8536 8.85355L7.85355 12.8536C7.65829 13.0488 7.34171 13.0488 7.14645 12.8536L3.14645 8.85355C2.95118 8.65829 2.95118 8.34171 3.14645 8.14645C3.34171 7.95118 3.65829 7.95118 3.85355 8.14645L7 11.2929L7 0.5C7 0.223857 7.22386 -3.39906e-07 7.5 -3.27835e-07C7.77614 -3.15765e-07 8 0.223857 8 0.5L8 11.2929ZM14.5 15C14.7761 15 15 15.2239 15 15.5C15 15.7761 14.7761 16 14.5 16L0.499999 16C0.223857 16 -6.89597e-07 15.7761 -6.77527e-07 15.5C-6.65456e-07 15.2239 0.223857 15 0.499999 15L14.5 15Z" fill="#2B59C3"/>
</svg>
