<svg xmlns="http://www.w3.org/2000/svg" width="24" height="24" viewBox="0 0 24 24">
  <g fill="none" fill-rule="evenodd" transform="scale(.8)">
    <rect width="24" height="24"/>
    <path fill="currentColor" d="M4.5,5 C4.74545989,5 4.94960837,5.17687516 4.99194433,5.41012437 L5,5.5 L5,17.5 C5,18.2796961 5.59488808,18.9204487 6.35553999,18.9931334 L6.5,19 L18.5,19 C18.7761424,19 19,19.2238576 19,19.5 C19,19.7454599 18.8231248,19.9496084 18.5898756,19.9919443 L18.5,20 L6.5,20 C5.1745166,20 4.08996133,18.9684641 4.00531768,17.6643757 L4,17.5 L4,5.5 C4,5.22385763 4.22385763,5 4.5,5 Z M18.501,5.002 C18.566,5.002 18.631,5.016 18.692,5.04 C18.814,5.091 18.912,5.188 18.963,5.311 C18.989,5.372 19.002,5.437 19.002,5.502 L19.002,5.502 L19.002,9.502 C19.002,9.778 18.778,10.002 18.502,10.002 C18.226,10.002 18.002,9.778 18.002,9.502 L18.002,9.502 L18.002,6.709 L10.856,13.855 C10.758,13.952 10.63,14.001 10.502,14.001 C10.374,14.001 10.246,13.953 10.148,13.855 C9.953,13.66 9.953,13.343 10.148,13.148 L10.148,13.148 L17.294,6.002 L14.501,6.002 C14.225,6.002 14.001,5.778 14.001,5.502 C14.001,5.226 14.225,5.002 14.501,5.002 L14.501,5.002 Z"/>
  </g>
</svg>
