<svg xmlns="http://www.w3.org/2000/svg" width="24" height="24" viewBox="0 0 24 24">
  <g fill="none" fill-rule="evenodd">
    <rect width="24" height="24"/>
    <path fill="#6D7C88" d="M20.386,9.183 C20.263,9.034 18.334,6.73 15.606,5.102 L19.354,1.354 C19.549,1.159 19.549,0.842 19.354,0.647 C19.159,0.452 18.842,0.452 18.647,0.647 L14.691,4.602 C13.401,3.956 11.978,3.5 10.5,3.5 C5.353,3.5 0.805,8.95 0.614,9.183 C0.462,9.368 0.462,9.633 0.614,9.818 C0.737,9.967 2.666,12.271 5.394,13.899 L1.646,17.647 C1.451,17.842 1.451,18.159 1.646,18.354 C1.744,18.451 1.872,18.5 2,18.5 C2.128,18.5 2.256,18.451 2.354,18.354 L6.31,14.399 C7.6,15.045 9.023,15.501 10.501,15.501 C15.648,15.501 20.196,10.051 20.387,9.818 C20.538,9.633 20.538,9.367 20.386,9.183 Z M1.666,9.5 C2.707,8.353 6.503,4.5 10.5,4.5 C11.688,4.5 12.855,4.845 13.94,5.353 L12.232,7.06 C11.743,6.711 11.147,6.5 10.5,6.5 C8.846,6.5 7.5,7.846 7.5,9.5 C7.5,10.146 7.71,10.742 8.06,11.233 L6.129,13.164 C3.994,11.938 2.307,10.207 1.666,9.5 Z M12.5,9.5 C12.5,10.603 11.603,11.5 10.5,11.5 C10.13,11.5 9.788,11.393 9.49,11.217 L12.217,8.49 C12.392,8.788 12.5,9.13 12.5,9.5 Z M8.5,9.5 C8.5,8.397 9.397,7.5 10.5,7.5 C10.87,7.5 11.212,7.607 11.51,7.783 L8.783,10.51 C8.608,10.212 8.5,9.87 8.5,9.5 Z M10.5,14.5 C9.312,14.5 8.145,14.155 7.06,13.647 L8.768,11.94 C9.258,12.289 9.854,12.5 10.501,12.5 C12.155,12.5 13.501,11.154 13.501,9.5 C13.501,8.854 13.291,8.258 12.941,7.767 L14.872,5.836 C17.007,7.063 18.694,8.793 19.335,9.5 C18.293,10.647 14.498,14.5 10.5,14.5 Z" transform="translate(2 3)"/>
  </g>
</svg>
