<svg xmlns="http://www.w3.org/2000/svg" width="24" height="24" viewBox="0 0 24 24">
  <g fill="none" fill-rule="evenodd">
    <polygon points="0 0 24 0 24 24 0 24"/>
    <path fill="currentColor" d="M15.5,2 C15.633,2 15.76,2.053 15.854,2.146 L15.854,2.146 L19.854,6.146 C19.947,6.24 20,6.367 20,6.5 L20,6.5 L20,19.5 C20,20.879 18.878,22 17.5,22 L17.5,22 L6.5,22 C5.122,22 4,20.879 4,19.5 L4,19.5 L4,4.5 C4,3.121 5.122,2 6.5,2 L6.5,2 Z M15.293,3 L6.5,3 C5.673,3 5,3.673 5,4.5 L5,4.5 L5,19.5 C5,20.327 5.673,21 6.5,21 L6.5,21 L17.5,21 C18.327,21 19,20.327 19,19.5 L19,19.5 L19,6.707 L15.293,3 Z M16,15 C16.276,15 16.5,15.224 16.5,15.5 C16.5,15.776 16.276,16 16,16 L16,16 L8,16 C7.724,16 7.5,15.776 7.5,15.5 C7.5,15.224 7.724,15 8,15 L8,15 Z M16,11 C16.276,11 16.5,11.224 16.5,11.5 C16.5,11.776 16.276,12 16,12 L16,12 L8,12 C7.724,12 7.5,11.776 7.5,11.5 C7.5,11.224 7.724,11 8,11 L8,11 Z M14,7 C14.276,7 14.5,7.224 14.5,7.5 C14.5,7.776 14.276,8 14,8 L14,8 L8,8 C7.724,8 7.5,7.776 7.5,7.5 C7.5,7.224 7.724,7 8,7 L8,7 Z"/>
  </g>
</svg>
