<svg width="24" height="24" viewBox="0 0 24 24" fill="none" xmlns="http://www.w3.org/2000/svg">
<path fill-rule="evenodd" clip-rule="evenodd" d="M4 7.5C4 7.77614 3.77614 8 3.5 8C3.22386 8 3 7.77614 3 7.5V5.5C3 4.11929 4.11929 3 5.5 3H7.5C7.77614 3 8 3.22386 8 3.5C8 3.77614 7.77614 4 7.5 4H5.5C4.67157 4 4 4.67157 4 5.5V7.5ZM16.5 4C16.2239 4 16 3.77614 16 3.5C16 3.22386 16.2239 3 16.5 3H18.5C19.8807 3 21 4.11929 21 5.5V7.5C21 7.77614 20.7761 8 20.5 8C20.2239 8 20 7.77614 20 7.5V5.5C20 4.67157 19.3284 4 18.5 4H16.5ZM20 16.5C20 16.2239 20.2239 16 20.5 16C20.7761 16 21 16.2239 21 16.5V18.5C21 19.8807 19.8807 21 18.5 21H16.5C16.2239 21 16 20.7761 16 20.5C16 20.2239 16.2239 20 16.5 20H18.5C19.3284 20 20 19.3284 20 18.5V16.5ZM7.5 20C7.77614 20 8 20.2239 8 20.5C8 20.7761 7.77614 21 7.5 21H5.5C4.11929 21 3 19.8807 3 18.5V16.5C3 16.2239 3.22386 16 3.5 16C3.77614 16 4 16.2239 4 16.5V18.5C4 19.3284 4.67157 20 5.5 20H7.5Z" fill="#6D7C88"/>
</svg>
