<svg width="24" height="16" viewBox="0 0 24 16" fill="none" xmlns="http://www.w3.org/2000/svg">
<path opacity="0.2" d="M19.935 15.4762H1.815C1.57862 15.4782 1.34416 15.4329 1.12502 15.3429C0.905875 15.2528 0.706336 15.1198 0.537796 14.9514C0.369256 14.783 0.235016 14.5826 0.14274 14.3615C0.050465 14.1404 0.00196164 13.903 0 13.6629L0 2.81334C0.00196164 2.5732 0.050465 2.33581 0.14274 2.11472C0.235016 1.89363 0.369256 1.69317 0.537796 1.52479C0.706336 1.3564 0.905875 1.22339 1.12502 1.13335C1.34416 1.0433 1.57862 0.997994 1.815 1H19.935C20.1714 0.997994 20.4058 1.0433 20.625 1.13335C20.8441 1.22339 21.0437 1.3564 21.2122 1.52479C21.3807 1.69317 21.515 1.89363 21.6073 2.11472C21.6995 2.33581 21.748 2.5732 21.75 2.81334V13.6705C21.7441 14.1541 21.5497 14.6157 21.2096 14.9541C20.8694 15.2925 20.4111 15.4803 19.935 15.4762V15.4762ZM7.5 5.44191C7.5 5.09143 7.2375 4.80953 6.915 4.80953H2.835C2.5125 4.80953 2.25 5.09143 2.25 5.44191V7.98667C2.25 8.33715 2.5125 8.61905 2.835 8.61905H6.915C7.2375 8.61905 7.5 8.33715 7.5 7.98667V5.44191Z" fill="black"/>
<path opacity="0.3" d="M18.75 12.4286H16.5C16.0125 12.4286 15.75 12.2 15.75 11.6667C15.75 11.1334 16.0125 10.9048 16.5 10.9048H18.75C19.2375 10.9048 19.5 11.1334 19.5 11.6667C19.5 12.2 19.2375 12.4286 18.75 12.4286ZM14.25 12.4286H12C11.5125 12.4286 11.25 12.2 11.25 11.6667C11.25 11.1334 11.5125 10.9048 12 10.9048H14.25C14.7375 10.9048 15 11.1334 15 11.6667C15 12.2 14.7375 12.4286 14.25 12.4286ZM9.75 12.4286H7.5C7.0125 12.4286 6.75 12.2 6.75 11.6667C6.75 11.1334 7.0125 10.9048 7.5 10.9048H9.75C10.2375 10.9048 10.5 11.1334 10.5 11.6667C10.5 12.2 10.2375 12.4286 9.75 12.4286ZM5.25 12.4286H3C2.5125 12.4286 2.25 12.2 2.25 11.6667C2.25 11.1334 2.5125 10.9048 3 10.9048H5.25C5.7375 10.9048 6 11.1334 6 11.6667C6 12.2 5.7375 12.4286 5.25 12.4286Z" fill="black"/>
</svg>
