<svg width="12" height="12" viewBox="0 0 12 12" fill="none" xmlns="http://www.w3.org/2000/svg">
<path fill-rule="evenodd" clip-rule="evenodd" d="M5.76161 11.8289C5.74444 11.832 5.72674 11.8337 5.70866 11.8337C5.68005 11.8337 5.65239 11.8295 5.62627 11.8219C2.57891 11.629 0.166992 9.09633 0.166992 6.00033C0.166992 2.77866 2.77866 0.166992 6.00033 0.166992C9.22199 0.166992 11.8337 2.77866 11.8337 6.00033C11.8337 9.22199 9.22199 11.8337 6.00033 11.8337C5.92037 11.8337 5.84079 11.8321 5.76161 11.8289ZM5.41699 10.4961V11.2183C2.79202 10.9281 0.750325 8.70265 0.750325 6.00033C0.750325 5.42215 0.843787 4.86581 1.01643 4.34557L2.58575 5.9149C2.69966 6.0288 2.88433 6.0288 2.99823 5.9149L3.58156 5.33156C3.63626 5.27687 3.66699 5.20268 3.66699 5.12533V4.83366H4.54199C5.02524 4.83366 5.41699 4.44191 5.41699 3.95866V3.37533C5.41699 3.21424 5.54758 3.08366 5.70866 3.08366H6.29199C7.09741 3.08366 7.75033 2.43074 7.75033 1.62533V1.04906C9.78941 1.76977 11.2503 3.71444 11.2503 6.00033C11.2503 7.07958 10.9247 8.08277 10.3663 8.91699H9.20866C9.04757 8.91699 8.91699 8.78641 8.91699 8.62533C8.91699 8.14208 8.52524 7.75033 8.04199 7.75033C7.88091 7.75033 7.75033 7.61974 7.75033 7.45866V6.87533C7.75033 6.39208 7.35857 6.00033 6.87533 6.00033H3.95866C3.79758 6.00033 3.66699 6.13091 3.66699 6.29199V6.87533C3.66699 6.95268 3.69772 7.02687 3.75242 7.08156L4.25033 7.57947V9.20866C4.25033 9.28601 4.28105 9.3602 4.33575 9.4149L5.41699 10.4961ZM9.91351 9.50033C8.9522 10.5744 7.5552 11.2503 6.00033 11.2503V10.3753C6.00033 10.298 5.9696 10.2238 5.9149 10.1691L4.83366 9.08785V7.45866C4.83366 7.3813 4.80293 7.30712 4.74823 7.25242L4.25033 6.75451V6.58366H6.87533C7.03641 6.58366 7.16699 6.71424 7.16699 6.87533V7.45866C7.16699 7.94191 7.55874 8.33366 8.04199 8.33366C8.20308 8.33366 8.33366 8.46424 8.33366 8.62533C8.33366 9.10857 8.72541 9.50033 9.20866 9.50033H9.91351ZM2.79199 5.29618L1.25252 3.75671C2.09381 1.97956 3.90352 0.750325 6.00032 0.750325C6.4013 0.750325 6.79178 0.795278 7.16699 0.880418V1.62533C7.16699 2.10857 6.77524 2.50033 6.29199 2.50033H5.70866C5.22541 2.50033 4.83366 2.89208 4.83366 3.37533V3.95866C4.83366 4.11974 4.70307 4.25033 4.54199 4.25033H3.37533C3.21424 4.25033 3.08366 4.38091 3.08366 4.54199V5.00451L2.79199 5.29618Z" fill="#6D7C88"/>
</svg>
