<svg width="18" height="16" viewBox="0 0 18 16" fill="none" xmlns="http://www.w3.org/2000/svg">
<path d="M6.6 7.33335L8.2 8.93335L11.8 5.33335M8.99452 2.642C7.39504 0.77207 4.7278 0.269064 2.72376 1.98136C0.719715 3.69366 0.437574 6.55653 2.01136 8.58167C3.20007 10.1113 6.57703 13.1821 8.15841 14.5933C8.44911 14.8527 8.59446 14.9824 8.76466 15.0334C8.91242 15.0778 9.07662 15.0778 9.22438 15.0334C9.39458 14.9824 9.53993 14.8527 9.83064 14.5933C11.412 13.1821 14.789 10.1113 15.9777 8.58167C17.5515 6.55653 17.3038 3.67565 15.2653 1.98136C13.2268 0.287075 10.594 0.77207 8.99452 2.642Z" stroke="#13A868" stroke-width="1.5" stroke-linecap="round" stroke-linejoin="round"/>
</svg>
