<svg xmlns="http://www.w3.org/2000/svg" width="20" height="20" viewBox="0 0 20 20" fill="none">
  <path fill-rule="evenodd" clip-rule="evenodd" d="M1.6665 10C1.6665 5.39762 5.39746 1.66666 9.99984 1.66666C14.6022 1.66666 18.3332 5.39762 18.3332 10C18.3332 14.6024 14.6022 18.3333 9.99984 18.3333C5.39746 18.3333 1.6665 14.6024 1.6665 10ZM17.6085 10C17.6085 5.79783 14.202 2.3913 9.99984 2.3913C5.79767 2.3913 2.39114 5.79783 2.39114 10C2.39114 14.2022 5.79767 17.6087 9.99984 17.6087C14.202 17.6087 17.6085 14.2022 17.6085 10ZM9.99984 13.2602L10.0736 13.2651C10.3389 13.3011 10.5433 13.5285 10.5433 13.8036C10.5433 14.1038 10.3 14.3471 9.99984 14.3471C9.69968 14.3471 9.45636 14.1038 9.45636 13.8036C9.45636 13.5285 9.66082 13.3011 9.92609 13.2651L9.99984 13.2602ZM12.4413 7.86695C12.0982 6.64764 10.9081 5.86841 9.65328 6.04149C8.3985 6.21457 7.4638 7.28689 7.46361 8.55355C7.46357 8.75365 7.62577 8.91589 7.82587 8.91592C8.02597 8.91595 8.18821 8.75376 8.18824 8.55366C8.18838 7.6489 8.85603 6.88296 9.7523 6.75933C10.6486 6.6357 11.4986 7.1923 11.7437 8.06323C11.9888 8.93417 11.5537 9.85238 10.7245 10.2143L10.6035 10.2725C10.0126 10.5842 9.63753 11.1993 9.63752 11.8746V12.1732L9.64336 12.2383C9.67403 12.4073 9.82197 12.5355 9.99984 12.5355C10.1999 12.5355 10.3622 12.3733 10.3622 12.1732V11.8746L10.3674 11.7675C10.4058 11.3788 10.6512 11.0369 11.0143 10.8784C12.1752 10.3718 12.7844 9.08626 12.4413 7.86695Z" fill="currentColor"/>
</svg>