<svg xmlns="http://www.w3.org/2000/svg" width="24" height="24" viewBox="0 0 24 24">
  <g fill="none" fill-rule="evenodd">
    <polygon points="0 0 24 0 24 24 0 24"/>
    <path fill="currentColor" d="M12,0.5 C18.3512746,0.5 23.5,5.64872538 23.5,12 C23.5,18.3512746 18.3512746,23.5 12,23.5 C5.64872538,23.5 0.5,18.3512746 0.5,12 C0.5,5.64872538 5.64872538,0.5 12,0.5 Z M12,1.5 C6.20101013,1.5 1.5,6.20101013 1.5,12 C1.5,17.7989899 6.20101013,22.5 12,22.5 C17.7989899,22.5 22.5,17.7989899 22.5,12 C22.5,6.20101013 17.7989899,1.5 12,1.5 Z M12,16.499 L12.1017706,16.5058466 C12.4678461,16.555509 12.75,16.8693042 12.75,17.249 C12.75,17.6632136 12.4142136,17.999 12,17.999 C11.5857864,17.999 11.25,17.6632136 11.25,17.249 C11.25,16.8693042 11.5321539,16.555509 11.8982294,16.5058466 L12,16.499 Z M15.3691583,9.0564185 C15.8426324,10.7390647 15.0020611,12.5130607 13.4,13.2122576 C12.8989202,13.4309467 12.5602443,13.902715 12.5072711,14.4392176 L12.5,14.587 L12.5,14.999 C12.5,15.2751424 12.2761424,15.499 12,15.499 C11.7545401,15.499 11.5503916,15.3221248 11.5080557,15.0888756 L11.5,14.999 L11.5,14.5869924 C11.5000141,13.6550784 12.0176299,12.806177 12.8330173,12.3760786 L13,12.2957424 C14.1443294,11.7963161 14.7447374,10.5291761 14.4065416,9.32728596 C14.0683458,8.1253958 12.8952486,7.35729645 11.6583939,7.52790351 C10.4215391,7.69851058 9.50018919,8.75551006 9.50000001,10.0040758 C9.49995815,10.2802181 9.27606661,10.5040418 8.99992423,10.504 C8.72378186,10.5039581 8.50000001,10.2800666 8.50000001,10.0039242 C8.50026488,8.25593224 9.79015482,6.77613297 11.5217514,6.53728308 C13.253348,6.29843319 14.8956841,7.37377228 15.3691583,9.0564185 Z"/>
  </g>
</svg>
