<svg width="34" height="34" viewBox="0 0 34 34" fill="none" xmlns="http://www.w3.org/2000/svg">
  <circle cx="17" cy="17" r="17" fill="#F0F4F7"/>
  <path d="M14.2197 19.25H10.625C10.4179 19.25 10.25 19.0821 10.25 18.875C10.25 18.6679 10.4179 18.5 10.625 18.5H15.125C15.3321 18.5 15.5 18.6679 15.5 18.875V23.375C15.5 23.5821 15.3321 23.75 15.125 23.75C14.9179 23.75 14.75 23.5821 14.75 23.375V19.7803L10.8902 23.6402C10.7437 23.7866 10.5063 23.7866 10.3598 23.6402C10.2134 23.4937 10.2134 23.2563 10.3598 23.1098L14.2197 19.25ZM14.75 14.2197V10.625C14.75 10.4179 14.9179 10.25 15.125 10.25C15.3321 10.25 15.5 10.4179 15.5 10.625V15.125C15.5 15.3321 15.3321 15.5 15.125 15.5H10.625C10.4179 15.5 10.25 15.3321 10.25 15.125C10.25 14.9179 10.4179 14.75 10.625 14.75H14.2197L10.3598 10.8902C10.2134 10.7437 10.2134 10.5063 10.3598 10.3598C10.5063 10.2134 10.7437 10.2134 10.8902 10.3598L14.75 14.2197ZM19.7803 14.75H23.375C23.5821 14.75 23.75 14.9179 23.75 15.125C23.75 15.3321 23.5821 15.5 23.375 15.5H18.875C18.6679 15.5 18.5 15.3321 18.5 15.125V10.625C18.5 10.4179 18.6679 10.25 18.875 10.25C19.0821 10.25 19.25 10.4179 19.25 10.625V14.2197L23.1098 10.3598C23.2563 10.2134 23.4937 10.2134 23.6402 10.3598C23.7866 10.5063 23.7866 10.7437 23.6402 10.8902L19.7803 14.75ZM19.7803 19.25L23.6402 23.1098C23.7866 23.2563 23.7866 23.4937 23.6402 23.6402C23.4937 23.7866 23.2563 23.7866 23.1098 23.6402L19.25 19.7803V23.3906C19.25 23.5977 19.0821 23.7656 18.875 23.7656C18.6679 23.7656 18.5 23.5977 18.5 23.3906V18.875C18.5 18.6679 18.6679 18.5 18.875 18.5H23.375C23.5821 18.5 23.75 18.6679 23.75 18.875C23.75 19.0821 23.5821 19.25 23.375 19.25H19.7803Z" fill="#6D7C88"/>
</svg>
