<svg width="16" height="16" viewBox="0 0 16 16" fill="none" xmlns="http://www.w3.org/2000/svg">
<path fill-rule="evenodd" clip-rule="evenodd" d="M8.00011 0L12.2549 2.38388V6.72292L16 8.82124V13.6161L11.7452 16L8 13.9016L4.25478 16L0 13.6161V8.82124L3.74533 6.72279V2.38388L8.00011 0ZM4.25478 7.55536L0.985616 9.38702V13.0503L4.25478 14.882L7.52395 13.0503V9.38702L4.25478 7.55536ZM8.47605 9.38702V13.0503L11.7452 14.882L15.0144 13.0503V9.38702L11.7452 7.55536L8.47605 9.38702ZM4.73095 2.94967L8.00011 1.11801L11.2693 2.94967V6.61298L8.00011 8.44464L4.73095 6.61298V2.94967Z" fill="#25323D"/>
</svg>
