<svg width="23" height="16" viewBox="0 0 23 16" fill="none" xmlns="http://www.w3.org/2000/svg">
<path d="M0.205566 16H4.72342C5.75124 16 6.98235 14.8053 6.98235 13.8667V0H2.46449C1.43668 0 0.205566 1.19467 0.205566 3.2V16Z" fill="#047AB1"/>
<path d="M2.76945 10.816C1.90211 10.8161 1.03905 10.7012 0.205566 10.4746V9.30131C0.852355 9.67902 1.59167 9.89215 2.35155 9.91998C3.22124 9.91998 3.70691 9.34398 3.70691 8.55465V5.33331H5.85289V8.55465C5.85289 9.81331 5.15262 10.816 2.76945 10.816V10.816Z" fill="white"/>
<path d="M8.11182 16H12.6297C13.6575 16 14.8886 14.8053 14.8886 13.8667V0H10.3707C9.34293 0 8.11182 1.19467 8.11182 3.2V16Z" fill="#D42D06"/>
<path d="M8.11182 6.07999C8.76691 5.48266 9.89637 5.10933 11.7261 5.19466C12.72 5.23733 13.7591 5.51466 13.7591 5.51466V6.69866C13.1648 6.35918 12.4968 6.15131 11.8052 6.09066C10.4159 5.97333 9.56882 6.70933 9.56882 7.99999C9.56882 9.29066 10.4159 10.0267 11.8052 9.91999C12.4972 9.85393 13.1648 9.64255 13.7591 9.30133V10.4747C13.7591 10.4747 12.72 10.7627 11.7261 10.8053C9.89637 10.8907 8.76691 10.5173 8.11182 9.91999V6.07999Z" fill="white"/>
<path d="M16.0181 16H20.5359C21.5637 16 22.7949 14.8053 22.7949 13.8667V0H18.277C17.2492 0 16.0181 1.19467 16.0181 3.2V16Z" fill="#67B637"/>
<path d="M21.6654 9.27998C21.6654 10.1333 20.9651 10.6666 20.0277 10.6666H16.0181V5.33331H19.6662L19.926 5.34398C20.7505 5.38665 21.3604 5.84531 21.3604 6.63465C21.3604 7.25331 20.9425 7.78665 20.1858 7.91465V7.94665C21.0216 7.99998 21.6654 8.50131 21.6654 9.27998ZM18.7853 6.17598C18.7366 6.16911 18.6876 6.16555 18.6384 6.16531H17.2831V7.50931H18.7853C19.0676 7.44531 19.3048 7.19998 19.3048 6.83731C19.3048 6.47465 19.0676 6.22931 18.7853 6.17598V6.17598ZM18.9547 8.35198C18.8949 8.34312 18.8344 8.33955 18.774 8.34131H17.2831V9.80265H18.774L18.9547 9.78131C19.237 9.71731 19.4742 9.43998 19.4742 9.06665C19.4742 8.69331 19.2483 8.42665 18.9547 8.35198V8.35198Z" fill="white"/>
</svg>
