<svg width="17" height="18" viewBox="0 0 17 18" fill="none" xmlns="http://www.w3.org/2000/svg">
<path d="M16.1959 14.9099L8.47543 7.18948C9.54552 5.57256 9.36874 3.36874 7.94628 1.94628C6.32229 0.32229 3.67889 0.321111 2.05372 1.94628C0.428554 3.57145 0.429732 6.21485 2.05372 7.83884C3.47618 9.2613 5.68 9.43808 7.29692 8.36799L9.71404 10.7851L7.94628 12.5529C7.62101 12.8781 7.62101 13.4061 7.94628 13.7314C8.27155 14.0567 8.79952 14.0567 9.12479 13.7314L10.8926 11.9636L13.2496 14.3206L11.4818 16.0884C11.1565 16.4137 11.1565 16.9417 11.4818 17.2669C11.8071 17.5922 12.3351 17.5922 12.6603 17.2669L14.4281 15.4992L15.0173 16.0884C15.3426 16.4137 15.8706 16.4137 16.1959 16.0884C16.5211 15.7631 16.5211 15.2352 16.1959 14.9099ZM3.23223 6.66032C2.2576 5.6857 2.2576 4.09942 3.23223 3.12479C4.20686 2.15016 5.79314 2.15016 6.76777 3.12479C7.7424 4.09942 7.7424 5.68569 6.76777 6.66032C5.79314 7.63495 4.20686 7.63495 3.23223 6.66032Z" fill="#6D7C88"/>
</svg>
