<svg width="27" height="28" viewBox="0 0 27 28" fill="none" xmlns="http://www.w3.org/2000/svg">
<path d="M13.4363 6.22296C9.53807 6.22296 6.36572 9.36363 6.36572 13.223C6.36572 15.5361 7.5583 17.7154 9.50821 19.0127V21.0007C9.50821 23.1458 11.2712 24.8896 13.4363 24.8896C15.6015 24.8896 17.3644 23.1458 17.3644 21.0007V19.0127C19.3144 17.7154 20.5069 15.5376 20.5069 13.223C20.5069 9.36363 17.3346 6.22296 13.4363 6.22296ZM16.1844 17.9114C15.9425 18.0498 15.7932 18.3065 15.7932 18.5834V21.0007C15.7932 22.2872 14.7357 23.3341 13.4363 23.3341C12.1369 23.3341 11.0795 22.2872 11.0795 21.0007V18.5818C11.0795 18.305 10.9302 18.0483 10.6882 17.9098C8.96613 16.9158 7.93697 15.1643 7.93697 13.223C7.93697 10.2207 10.4038 7.77852 13.4363 7.77852C16.4688 7.77852 18.9357 10.2207 18.9357 13.223C18.9357 15.1643 17.9065 16.9158 16.1844 17.9114Z" fill="#6D7C88"/>
<path d="M26.0073 12.4453H24.436C24.0023 12.4453 23.6504 12.7938 23.6504 13.2231C23.6504 13.6524 24.0023 14.0009 24.436 14.0009H26.0073C26.4409 14.0009 26.7929 13.6524 26.7929 13.2231C26.7929 12.7938 26.4409 12.4453 26.0073 12.4453Z" fill="#6D7C88"/>
<path d="M2.43792 12.4453H0.866678C0.433014 12.4453 0.0810547 12.7938 0.0810547 13.2231C0.0810547 13.6524 0.433014 14.0009 0.866678 14.0009H2.43792C2.87159 14.0009 3.22355 13.6524 3.22355 13.2231C3.22355 12.7938 2.87159 12.4453 2.43792 12.4453Z" fill="#6D7C88"/>
<path d="M13.437 3.11111C13.8707 3.11111 14.2226 2.76267 14.2226 2.33333V0.777778C14.2226 0.348444 13.8707 0 13.437 0C13.0033 0 12.6514 0.348444 12.6514 0.777778V2.33333C12.6514 2.76267 13.0033 3.11111 13.437 3.11111Z" fill="#6D7C88"/>
<path d="M6.21472 4.97083L5.10385 3.87105C4.79746 3.56772 4.29937 3.56772 3.99298 3.87105C3.68659 4.17439 3.68659 4.6675 3.99298 4.97083L5.10385 6.07061C5.25626 6.22305 5.45738 6.29928 5.6585 6.29928C5.85962 6.29928 6.06074 6.22305 6.21472 6.07217C6.52111 5.76728 6.52111 5.27572 6.21472 4.97083Z" fill="#6D7C88"/>
<path d="M21.7689 3.87105L20.658 4.97083C20.3516 5.27417 20.3516 5.76728 20.658 6.07061C20.812 6.22306 21.0131 6.29772 21.2142 6.29772C21.4154 6.29772 21.6165 6.2215 21.7705 6.07061L22.8813 4.97083C23.1877 4.6675 23.1877 4.17439 22.8813 3.87105C22.5749 3.56772 22.0768 3.56772 21.7689 3.87105Z" fill="#6D7C88"/>
<path d="M15.0082 26.4453H11.8657C11.432 26.4453 11.0801 26.7938 11.0801 27.2231C11.0801 27.6524 11.432 28.0009 11.8657 28.0009H15.0082C15.4419 28.0009 15.7938 27.6524 15.7938 27.2231C15.7938 26.7938 15.4419 26.4453 15.0082 26.4453Z" fill="#6D7C88"/>
</svg>
