<svg width="48" height="48" viewBox="0 0 48 48" fill="none" xmlns="http://www.w3.org/2000/svg">
<g id="Icon/Lock (Locked)">
<path id="Combined Shape" fill-rule="evenodd" clip-rule="evenodd" d="M35 20H39C39.552 20 40 20.448 40 21V43C40 43.552 39.552 44 39 44H9C8.448 44 8 43.552 8 43V21C8 20.448 8.448 20 9 20H13V15C13 8.936 17.934 4 24 4C30.066 4 35 8.936 35 15V20ZM24 6C19.038 6 15 10.038 15 15V20H33V15C33 10.038 28.962 6 24 6ZM10 42V22H38V42H10ZM24 26C21.244 26 19 28.242 19 31C19 33.416 20.72 35.434 23 35.898V39C23 39.552 23.448 40 24 40C24.552 40 25 39.552 25 39V35.898C27.28 35.434 29 33.416 29 31C29 28.242 26.756 26 24 26ZM24 34C22.346 34 21 32.654 21 31C21 29.346 22.346 28 24 28C25.654 28 27 29.346 27 31C27 32.654 25.654 34 24 34Z" fill="#6D7C88"/>
</g>
</svg>
