<svg version="1.2" baseProfile="tiny-ps" xmlns="http://www.w3.org/2000/svg" viewBox="0 0 314 314">
	<title>logo-aws-svg</title>
	<style>
		tspan { white-space:pre }
		.shp0 { fill: #252f3e }
		.shp1 { fill: #ffffff }
		.shp2 { fill: #ff9900 }
	</style>
	<g >
		<path class="shp0" d="M157 314C70.18 314 0 243.82 0 157C0 70.18 70.18 0 157 0C243.82 0 314 70.18 314 157C314 243.82 243.82 314 157 314Z" />
		<g >
			<path fill-rule="evenodd" class="shp1" d="M105.41 148.1C105.41 151.05 105.73 153.45 106.28 155.2C106.92 156.96 107.71 158.87 108.82 160.95C109.22 161.59 109.38 162.22 109.38 162.78C109.38 163.58 108.9 164.38 107.87 165.18L102.87 168.53C102.15 169.01 101.44 169.24 100.8 169.24C100.01 169.24 99.22 168.85 98.42 168.13C97.31 166.93 96.36 165.65 95.56 164.38C94.77 163.02 93.98 161.51 93.1 159.67C86.91 167.01 79.13 170.68 69.76 170.68C63.09 170.68 57.77 168.77 53.88 164.94C49.99 161.11 48 156 48 149.62C48 142.84 50.38 137.33 55.23 133.18C60.07 129.03 66.5 126.96 74.68 126.96C77.38 126.96 80.16 127.2 83.1 127.6C86.04 127.99 89.05 128.63 92.23 129.35L92.23 123.53C92.23 117.46 90.96 113.23 88.5 110.76C85.96 108.29 81.67 107.09 75.55 107.09C72.77 107.09 69.92 107.41 66.98 108.13C64.04 108.85 61.18 109.72 58.4 110.84C57.13 111.4 56.18 111.72 55.62 111.88C55.07 112.04 54.67 112.12 54.35 112.12C53.24 112.12 52.68 111.32 52.68 109.64L52.68 105.73C52.68 104.46 52.84 103.5 53.24 102.94C53.64 102.38 54.35 101.82 55.46 101.27C58.24 99.83 61.58 98.63 65.47 97.68C69.36 96.64 73.49 96.16 77.86 96.16C87.31 96.16 94.21 98.31 98.66 102.62C103.03 106.93 105.25 113.47 105.25 122.25L105.25 148.1L105.41 148.1ZM73.17 160.23C75.79 160.23 78.49 159.75 81.35 158.79C84.21 157.84 86.75 156.08 88.89 153.69C90.16 152.17 91.12 150.49 91.59 148.58C92.07 146.66 92.39 144.35 92.39 141.64L92.39 138.29C90.08 137.73 87.62 137.25 85.08 136.93C82.54 136.61 80.08 136.45 77.62 136.45C72.3 136.45 68.41 137.49 65.79 139.64C63.17 141.8 61.9 144.83 61.9 148.82C61.9 152.57 62.85 155.36 64.83 157.28C66.74 159.27 69.52 160.23 73.17 160.23ZM136.93 168.85C135.5 168.85 134.55 168.61 133.92 168.05C133.28 167.57 132.73 166.45 132.25 164.94L113.59 103.26C113.11 101.66 112.87 100.63 112.87 100.07C112.87 98.79 113.51 98.07 114.78 98.07L122.56 98.07C124.07 98.07 125.1 98.31 125.66 98.87C126.29 99.35 126.77 100.47 127.25 101.98L140.59 154.8L152.97 101.98C153.37 100.39 153.85 99.35 154.48 98.87C155.12 98.39 156.23 98.07 157.66 98.07L164.01 98.07C165.52 98.07 166.55 98.31 167.19 98.87C167.82 99.35 168.38 100.47 168.7 101.98L181.24 155.44L194.98 101.98C195.46 100.39 196.01 99.35 196.57 98.87C197.2 98.39 198.23 98.07 199.66 98.07L207.05 98.07C208.32 98.07 209.03 98.71 209.03 100.07C209.03 100.47 208.95 100.87 208.88 101.35C208.8 101.82 208.64 102.46 208.32 103.34L189.18 165.02C188.71 166.61 188.15 167.65 187.52 168.13C186.88 168.61 185.85 168.93 184.5 168.93L177.67 168.93C176.16 168.93 175.13 168.69 174.49 168.13C173.86 167.57 173.3 166.53 172.98 164.94L160.68 113.47L148.45 164.86C148.05 166.45 147.57 167.49 146.94 168.05C146.3 168.61 145.19 168.85 143.76 168.85L136.93 168.85ZM226.74 169.56C222.77 168.61 219.67 167.57 217.61 166.37C216.34 165.65 215.47 164.86 215.15 164.14C214.83 163.42 214.67 162.62 214.67 161.9L214.67 157.84C214.67 156.16 215.31 155.36 216.5 155.36C216.97 155.36 217.45 155.44 217.93 155.6C218.4 155.76 219.12 156.08 219.91 156.4C222.61 157.6 225.55 158.55 228.65 159.19C231.82 159.83 234.92 160.15 238.1 160.15C243.1 160.15 246.99 159.27 249.69 157.52C252.39 155.76 253.82 153.21 253.82 149.94C253.82 147.7 253.1 145.87 251.67 144.35C250.25 142.84 247.55 141.48 243.65 140.2L232.14 136.61C226.34 134.78 222.06 132.06 219.44 128.47C216.82 124.96 215.47 121.05 215.47 116.9C215.47 113.55 216.18 110.6 217.61 108.05C219.04 105.49 220.94 103.26 223.33 101.51C225.71 99.67 228.41 98.31 231.59 97.36C234.76 96.4 238.1 96 241.59 96C243.34 96 245.16 96.08 246.91 96.32C248.74 96.56 250.4 96.88 252.07 97.2C253.66 97.6 255.17 97.99 256.6 98.47C258.03 98.95 259.14 99.43 259.93 99.91C261.04 100.55 261.84 101.19 262.32 101.9C262.79 102.54 263.03 103.42 263.03 104.54L263.03 108.29C263.03 109.96 262.39 110.84 261.2 110.84C260.57 110.84 259.54 110.52 258.19 109.88C253.66 107.81 248.58 106.77 242.94 106.77C238.41 106.77 234.84 107.49 232.38 109.01C229.92 110.52 228.65 112.84 228.65 116.11C228.65 118.34 229.44 120.26 231.03 121.77C232.62 123.29 235.56 124.8 239.76 126.16L251.04 129.75C256.76 131.59 260.89 134.14 263.35 137.41C265.81 140.68 267 144.43 267 148.58C267 152.01 266.29 155.12 264.94 157.84C263.51 160.55 261.6 162.94 259.14 164.86C256.68 166.85 253.74 168.29 250.32 169.32C246.75 170.44 243.02 171 238.97 171C234.84 171 230.71 170.52 226.74 169.56Z" />
			<g >
				<path fill-rule="evenodd" class="shp2" d="M253.56 209.38C227.41 228.68 189.42 238.92 156.76 238.92C110.99 238.92 69.74 222.01 38.59 193.89C36.13 191.67 38.35 188.65 41.29 190.4C74.99 209.94 116.55 221.77 159.54 221.77C188.55 221.77 220.42 215.73 249.74 203.34C254.11 201.36 257.85 206.2 253.56 209.38L253.56 209.38Z" />
				<path fill-rule="evenodd" class="shp2" d="M264.44 196.99C261.11 192.7 242.35 194.93 233.85 195.96C231.3 196.28 230.91 194.05 233.21 192.39C248.15 181.9 272.71 184.92 275.57 188.41C278.43 191.99 274.77 216.53 260.79 228.28C258.64 230.11 256.58 229.15 257.53 226.77C260.71 218.91 267.78 201.2 264.44 196.99L264.44 196.99Z" />
			</g>
		</g>
	</g>
</svg>
