<svg xmlns="http://www.w3.org/2000/svg" width="24" height="24" viewBox="0 0 24 24">
  <g fill="none" fill-rule="evenodd">
    <polygon points="0 0 24 0 24 24 0 24"/>
    <path fill="#6D7C88" d="M18.50025,2 C19.87825,2 21.00025,3.121 21.00025,4.5 L21.00025,4.5 L21.00025,19.5 C21.00025,20.879 19.87825,22 18.50025,22 L18.50025,22 L10.50025,22 C9.12225,22 8.00025,20.879 8.00025,19.5 L8.00025,19.5 L8,14 L9,14 L9.00025,19.5 C9.00025,20.2783529 9.59640225,20.9202907 10.3560131,20.9931195 L10.50025,21 L18.50025,21 C19.32725,21 20.00025,20.327 20.00025,19.5 L20.00025,19.5 L20.00025,4.5 C20.00025,3.673 19.32725,3 18.50025,3 L18.50025,3 L10.50025,3 C9.67325,3 9.00025,3.673 9.00025,4.5 L9.00025,4.5 L9,9 L8,9 L8.00025,4.5 C8.00025,3.17616 9.0342852,2.0900928 10.3361742,2.00532557 L10.50025,2 Z M14.50025,11 C14.77625,11 15.00025,11.224 15.00025,11.5 C15.00025,11.776 14.77625,12 14.50025,12 L14.50025,12 L4.70725,12 L6.85425,14.147 C7.04925,14.342 7.04925,14.659 6.85425,14.854 C6.75625,14.951 6.62825,15 6.50025,15 C6.37225,15 6.24425,14.951 6.14625,14.854 L6.14625,14.854 L3.14625,11.855 C3.10025,11.808 3.06325,11.753 3.03825,11.692 C2.98725,11.569 2.98725,11.432 3.03825,11.309 C3.06325,11.249 3.10025,11.193 3.14625,11.146 L3.14625,11.146 L6.14625,8.147 C6.34125,7.952 6.65825,7.952 6.85325,8.147 C7.04825,8.342 7.04825,8.659 6.85325,8.854 L6.85325,8.854 L4.70725,11 Z" transform="matrix(-1 0 0 1 24 0)"/>
  </g>
</svg>
