<svg version="1.2" baseProfile="tiny-ps" xmlns="http://www.w3.org/2000/svg" viewBox="0 0 435 435">
	<title>logo-gcp-svg</title>
	<style>
		tspan { white-space:pre }
		.shp0 { fill: #f8bb16 }
		.shp1 { fill: #ea4334 }
		.shp2 { fill: #0074bc }
		.shp3 { fill: #e2e3e4 }
	</style>
	<g >
		<path class="shp0" d="M284.4 102.9L240.3 26.1L124.6 26.1C114.3 26.1 104.7 31.6 99.7 40.6L6.1 203.7C1 212.6 1 223.4 6.1 232.4L41.7 294.5L85.7 218.1L151.9 102.9L284.4 102.9L284.4 102.9Z" />
		<path class="shp1" d="M430.2 203.7L336.6 40.6C331.4 31.7 321.9 26.1 311.7 26.1L240.3 26.1L284.4 102.9L350.6 218.1L284.4 333.3L372.4 333.3L430.2 232.4C435.2 223.5 435.2 212.6 430.2 203.7" />
		<path class="shp2" d="M372.3 333.2L151.7 333.2L85.5 218L41.5 294.4L99.5 395.4C104.7 404.3 114.2 409.9 124.4 409.9L311.5 409.9C321.8 409.9 331.4 404.4 336.4 395.4L372.3 333.2L372.3 333.2Z" />
		<path fill-rule="evenodd" class="shp3" d="M151.6 333.2L85.5 218L151.7 102.8L284.2 102.8L350.6 218L284.2 333.2L151.6 333.2ZM160.4 218.1C160.4 250 186.1 275.7 218 275.7C249.9 275.7 275.6 250 275.6 218.1C275.6 186.2 249.8 160.5 218 160.5C186.1 160.5 160.4 186.2 160.4 218.1Z" />
	</g>
</svg>
