<?xml version="1.0" encoding="UTF-8"?>
<svg xmlns="http://www.w3.org/2000/svg" xmlns:xlink="http://www.w3.org/1999/xlink" width="48px" height="48px" viewBox="0 0 48 48" version="1.1">
<g id="surface1">
<path style=" stroke:none;fill-rule:evenodd;fill:rgb(4.313725%,6.666667%,9.019608%);fill-opacity:1;" d="M 25.890625 20.425781 C 23.78125 21.386719 22.902344 22.535156 22.902344 23.480469 C 22.902344 24.425781 23.78125 25.574219 25.890625 26.535156 C 27.917969 27.464844 30.785156 28.058594 34 28.058594 C 37.214844 28.058594 40.082031 27.464844 42.113281 26.535156 C 44.222656 25.574219 45.101562 24.425781 45.101562 23.480469 C 45.101562 22.535156 44.222656 21.386719 42.113281 20.425781 C 40.082031 19.5 37.214844 18.902344 34 18.902344 C 30.785156 18.902344 27.917969 19.5 25.890625 20.425781 Z M 45.101562 26.804688 C 44.460938 27.339844 43.691406 27.796875 42.859375 28.175781 C 40.546875 29.230469 37.414062 29.859375 34 29.859375 C 30.589844 29.859375 27.457031 29.230469 25.140625 28.175781 C 24.3125 27.796875 23.542969 27.339844 22.902344 26.804688 L 22.902344 32.003906 C 22.902344 32.949219 23.78125 34.097656 25.890625 35.058594 C 27.917969 35.988281 30.785156 36.585938 34 36.585938 C 37.214844 36.585938 40.082031 35.988281 42.113281 35.058594 C 44.222656 34.097656 45.101562 32.949219 45.101562 32.003906 Z M 46.902344 23.480469 C 46.902344 21.398438 45.09375 19.808594 42.859375 18.789062 C 40.546875 17.730469 37.414062 17.101562 34 17.101562 C 30.589844 17.101562 27.457031 17.730469 25.140625 18.789062 C 22.910156 19.808594 21.101562 21.398438 21.101562 23.480469 L 21.101562 40.480469 C 21.101562 40.488281 21.101562 40.496094 21.101562 40.5 C 21.101562 40.507812 21.101562 40.515625 21.101562 40.523438 C 21.101562 42.601562 22.910156 44.195312 25.140625 45.214844 C 27.457031 46.273438 30.589844 46.902344 34 46.902344 C 37.414062 46.902344 40.546875 46.273438 42.859375 45.214844 C 45.09375 44.195312 46.902344 42.601562 46.902344 40.523438 Z M 45.101562 35.328125 C 44.460938 35.863281 43.691406 36.320312 42.859375 36.699219 C 40.546875 37.753906 37.414062 38.382812 34 38.382812 C 30.589844 38.382812 27.457031 37.753906 25.140625 36.699219 C 24.3125 36.320312 23.542969 35.863281 22.902344 35.328125 L 22.902344 40.480469 C 22.902344 40.488281 22.902344 40.496094 22.902344 40.5 C 22.902344 40.507812 22.902344 40.515625 22.902344 40.523438 C 22.902344 41.46875 23.78125 42.613281 25.890625 43.578125 C 27.917969 44.503906 30.785156 45.101562 34 45.101562 C 37.214844 45.101562 40.082031 44.503906 42.113281 43.578125 C 44.222656 42.613281 45.101562 41.46875 45.101562 40.523438 Z M 45.101562 35.328125 "/>
<path style=" stroke:none;fill-rule:evenodd;fill:rgb(4.313725%,6.666667%,9.019608%);fill-opacity:1;" d="M 9.613281 38.636719 C 9.964844 38.988281 10.535156 38.988281 10.886719 38.636719 L 14.636719 34.886719 C 14.988281 34.535156 14.988281 33.964844 14.636719 33.613281 L 10.886719 29.863281 C 10.535156 29.511719 9.964844 29.511719 9.613281 29.863281 C 9.265625 30.214844 9.265625 30.785156 9.613281 31.136719 L 11.828125 33.347656 L 9.203125 33.347656 C 7.925781 33.347656 7.023438 33.347656 6.320312 33.289062 C 5.625 33.234375 5.199219 33.125 4.867188 32.957031 C 4.191406 32.609375 3.640625 32.058594 3.292969 31.382812 C 3.125 31.050781 3.015625 30.625 2.960938 29.929688 C 2.902344 29.226562 2.902344 28.324219 2.902344 27.046875 L 2.902344 26 C 2.902344 25.5 2.5 25.097656 2 25.097656 C 1.503906 25.097656 1.101562 25.5 1.101562 26 L 1.101562 27.085938 C 1.101562 28.316406 1.101562 29.289062 1.164062 30.078125 C 1.230469 30.882812 1.371094 31.570312 1.691406 32.199219 C 2.207031 33.214844 3.035156 34.042969 4.050781 34.558594 C 4.679688 34.878906 5.367188 35.019531 6.171875 35.085938 C 6.960938 35.148438 7.933594 35.148438 9.164062 35.148438 L 11.828125 35.148438 L 9.613281 37.363281 C 9.265625 37.714844 9.265625 38.285156 9.613281 38.636719 Z M 9.613281 38.636719 "/>
<path style=" stroke:none;fill-rule:evenodd;fill:rgb(4.313725%,6.666667%,9.019608%);fill-opacity:1;" d="M 4.441406 5.800781 C 3.257812 6.371094 2.902344 6.988281 2.902344 7.375 C 2.902344 7.765625 3.257812 8.382812 4.441406 8.953125 C 5.5625 9.492188 7.171875 9.851562 9 9.851562 C 10.828125 9.851562 12.441406 9.492188 13.558594 8.953125 C 14.746094 8.382812 15.101562 7.765625 15.101562 7.375 C 15.101562 6.988281 14.746094 6.371094 13.558594 5.800781 C 12.441406 5.261719 10.828125 4.902344 9 4.902344 C 7.171875 4.902344 5.5625 5.261719 4.441406 5.800781 Z M 15.101562 10.148438 C 14.859375 10.304688 14.601562 10.449219 14.34375 10.574219 C 12.929688 11.253906 11.039062 11.652344 9 11.652344 C 6.964844 11.652344 5.074219 11.253906 3.660156 10.574219 C 3.398438 10.449219 3.144531 10.304688 2.902344 10.148438 L 2.902344 14.625 C 2.902344 15.015625 3.257812 15.632812 4.441406 16.203125 C 5.5625 16.742188 7.171875 17.101562 9 17.101562 C 10.828125 17.101562 12.441406 16.742188 13.558594 16.203125 C 14.746094 15.632812 15.101562 15.015625 15.101562 14.625 Z M 16.902344 7.375 C 16.902344 5.902344 15.691406 4.832031 14.34375 4.179688 C 12.929688 3.496094 11.039062 3.101562 9 3.101562 C 6.964844 3.101562 5.074219 3.496094 3.660156 4.179688 C 2.3125 4.832031 1.101562 5.902344 1.101562 7.375 L 1.101562 14.945312 C 1.101562 15.101562 1.140625 15.246094 1.210938 15.375 C 1.535156 16.46875 2.550781 17.289062 3.660156 17.824219 C 5.074219 18.503906 6.964844 18.902344 9 18.902344 C 11.039062 18.902344 12.929688 18.503906 14.34375 17.824219 C 15.453125 17.289062 16.46875 16.46875 16.792969 15.375 C 16.863281 15.246094 16.902344 15.101562 16.902344 14.945312 Z M 16.902344 7.375 "/>
</g>
</svg>
