<svg width="24" height="24" viewBox="0 0 24 24" fill="none" xmlns="http://www.w3.org/2000/svg">
<path fill-rule="evenodd" clip-rule="evenodd" d="M12.9451 10.2126C11.8904 10.6942 11.4508 11.2678 11.4508 11.7405C11.4508 12.2132 11.8904 12.7869 12.9451 13.2684C13.9598 13.7318 15.3933 14.0302 17.0008 14.0302C18.6083 14.0302 20.0418 13.7318 21.0565 13.2684C22.1112 12.7869 22.5508 12.2132 22.5508 11.7405C22.5508 11.2678 22.1112 10.6941 21.0565 10.2126C20.0418 9.74921 18.6083 9.45078 17.0008 9.45078C15.3933 9.45078 13.9598 9.74921 12.9451 10.2126ZM22.5508 13.4029C22.2303 13.669 21.845 13.8978 21.4303 14.0871C20.2735 14.6154 18.707 14.9302 17.0008 14.9302C15.2946 14.9302 13.728 14.6154 12.5712 14.0871C12.1566 13.8978 11.7713 13.669 11.4508 13.4029V16.0022C11.4508 16.4749 11.8904 17.0486 12.9451 17.5302C13.9598 17.9935 15.3933 18.292 17.0008 18.292C18.6083 18.292 20.0418 17.9935 21.0565 17.5302C22.1112 17.0486 22.5508 16.4749 22.5508 16.0022V13.4029ZM23.4508 11.7405C23.4508 10.7001 22.5473 9.90389 21.4303 9.39388C20.2735 8.86566 18.707 8.55078 17.0008 8.55078C15.2946 8.55078 13.728 8.86566 12.5712 9.39388C11.4543 9.90389 10.5508 10.7001 10.5508 11.7405V20.2407C10.5508 20.2441 10.5508 20.2475 10.5509 20.2509C10.5508 20.2543 10.5508 20.2577 10.5508 20.2611C10.5508 21.3015 11.4543 22.0977 12.5712 22.6077C13.728 23.1359 15.2946 23.4508 17.0008 23.4508C18.707 23.4508 20.2735 23.1359 21.4303 22.6077C22.5473 22.0977 23.4508 21.3015 23.4508 20.2611V11.7405ZM22.5508 17.6646C22.2303 17.9307 21.845 18.1595 21.4303 18.3489C20.2735 18.8771 18.707 19.192 17.0008 19.192C15.2946 19.192 13.728 18.8771 12.5712 18.3489C12.1566 18.1595 11.7713 17.9307 11.4508 17.6646V20.2407C11.4508 20.2441 11.4507 20.2475 11.4507 20.2509C11.4507 20.2543 11.4508 20.2577 11.4508 20.2611C11.4508 20.7337 11.8904 21.3074 12.9451 21.789C13.9598 22.2523 15.3933 22.5508 17.0008 22.5508C18.6083 22.5508 20.0418 22.2523 21.0565 21.789C22.1112 21.3074 22.5508 20.7337 22.5508 20.2611V17.6646Z" fill="#0B1117"/>
<path fill-rule="evenodd" clip-rule="evenodd" d="M4.80758 19.3174C4.98332 19.4932 5.26824 19.4932 5.44398 19.3174L7.31898 17.4424C7.49472 17.2667 7.49472 16.9818 7.31898 16.806L5.44398 14.931C5.26824 14.7553 4.98332 14.7553 4.80758 14.931C4.63185 15.1068 4.63185 15.3917 4.80758 15.5674L5.91439 16.6742H4.60078C3.9633 16.6742 3.51225 16.6739 3.15963 16.6451C2.81227 16.6167 2.60024 16.5629 2.4336 16.478C2.09491 16.3055 1.81954 16.0301 1.64697 15.6914C1.56206 15.5248 1.50832 15.3127 1.47994 14.9654C1.45113 14.6128 1.45078 14.1617 1.45078 13.5242V12.9992C1.45078 12.7507 1.24931 12.5492 1.00078 12.5492C0.752253 12.5492 0.550781 12.7507 0.550781 12.9992L0.550781 13.5439C0.550778 14.1573 0.550775 14.6451 0.58293 15.0387C0.615858 15.4417 0.684736 15.7853 0.845064 16.1C1.10392 16.608 1.51697 17.0211 2.02501 17.2799C2.33967 17.4403 2.68332 17.5091 3.08634 17.5421C3.47991 17.5742 3.96772 17.5742 4.5811 17.5742H5.91439L4.80758 18.681C4.63185 18.8568 4.63185 19.1417 4.80758 19.3174Z" fill="#0B1117"/>
<path fill-rule="evenodd" clip-rule="evenodd" d="M2.22134 2.90039C1.62947 3.18576 1.45078 3.4932 1.45078 3.68829C1.45078 3.88338 1.62947 4.19083 2.22134 4.4762C2.78142 4.74624 3.58678 4.9258 4.50078 4.9258C5.41478 4.9258 6.22014 4.74624 6.78022 4.4762C7.37209 4.19083 7.55078 3.88338 7.55078 3.68829C7.55078 3.4932 7.37209 3.18576 6.78022 2.90039C6.22014 2.63035 5.41478 2.45078 4.50078 2.45078C3.58678 2.45078 2.78142 2.63035 2.22134 2.90039ZM7.55078 5.0746C7.42941 5.15319 7.30156 5.22398 7.17109 5.28689C6.46442 5.62761 5.51978 5.8258 4.50078 5.8258C3.48179 5.8258 2.53714 5.62761 1.83047 5.28689C1.7 5.22398 1.57215 5.15319 1.45078 5.0746V7.31327C1.45078 7.50836 1.62947 7.81581 2.22134 8.10118C2.78142 8.37122 3.58678 8.55078 4.50078 8.55078C5.41478 8.55078 6.22014 8.37122 6.78022 8.10118C7.37209 7.81581 7.55078 7.50836 7.55078 7.31327V5.0746ZM8.45078 3.68829C8.45078 2.95139 7.84597 2.41509 7.17109 2.0897C6.46442 1.74898 5.51978 1.55078 4.50078 1.55078C3.48179 1.55078 2.53714 1.74898 1.83047 2.0897C1.15559 2.41509 0.550781 2.95139 0.550781 3.68829V7.47268C0.550781 7.55038 0.570473 7.62348 0.605139 7.68726C0.768075 8.23422 1.27559 8.64433 1.83047 8.91187C2.53714 9.25258 3.48179 9.45078 4.50078 9.45078C5.51978 9.45078 6.46442 9.25258 7.17109 8.91187C7.72597 8.64433 8.23349 8.23422 8.39642 7.68726C8.43109 7.62348 8.45078 7.55038 8.45078 7.47268V3.68829Z" fill="#0B1117"/>
</svg>
