<svg xmlns="http://www.w3.org/2000/svg" width="24" height="24" viewBox="0 0 24 24">
  <path fill="#6D7C88" d="M6,5 L6,5.5 C6,6.88071187 4.88071187,8 3.5,8 L3,8 L3,12 L3.54138127,12 C4.92209314,12 6.04138127,13.1192881 6.04138127,14.5 L6.04138127,15 L18,15 L18,14.5 C18,13.1192881 19.1192881,12 20.5,12 L21,12 L21,8 L20.5,8 C19.1192881,8 18,6.88071187 18,5.5 L18,5 L6,5 Z M5,5 L4.5,5 C3.67157288,5 3,5.67157288 3,6.5 L3,7 L3.5,7 C4.32842712,7 5,6.32842712 5,5.5 L5,5 Z M5.04138127,15 L5.04138127,14.5 C5.04138127,13.6715729 4.36980839,13 3.54138127,13 L3,13 L3,13.5 C3,14.3284271 3.67157288,15 4.5,15 L5.04138127,15 L5.04138127,15 Z M5.72515192,16 C5.66826565,16.0224932 5.60626682,16.0348527 5.54138127,16.0348527 C5.47649571,16.0348527 5.41449688,16.0224932 5.35761061,16 L4.5,16 C3.11928813,16 2,14.8807119 2,13.5 L2,6.5 C2,5.11928813 3.11928813,4 4.5,4 L19.5,4 C20.8807119,4 22,5.11928813 22,6.5 L22,13.5 C22,14.8807119 20.8807119,16 19.5,16 L5.72515192,16 L5.72515192,16 Z M19,15 L19.5,15 C20.3284271,15 21,14.3284271 21,13.5 L21,13 L20.5,13 C19.6715729,13 19,13.6715729 19,14.5 L19,15 Z M19,5 L19,5.5 C19,6.32842712 19.6715729,7 20.5,7 L21,7 L21,6.5 C21,5.67157288 20.3284271,5 19.5,5 L19,5 Z M12,14 C9.790861,14 8,12.209139 8,10 C8,7.790861 9.790861,6 12,6 C14.209139,6 16,7.790861 16,10 C16,12.209139 14.209139,14 12,14 Z M12,13 C13.6568542,13 15,11.6568542 15,10 C15,8.34314575 13.6568542,7 12,7 C10.3431458,7 9,8.34314575 9,10 C9,11.6568542 10.3431458,13 12,13 Z M2.5,18 C2.22385763,18 2,17.7761424 2,17.5 C2,17.2238576 2.22385763,17 2.5,17 L21.5,17 C21.7761424,17 22,17.2238576 22,17.5 C22,17.7761424 21.7761424,18 21.5,18 L2.5,18 Z M2.5,20 C2.22385763,20 2,19.7761424 2,19.5 C2,19.2238576 2.22385763,19 2.5,19 L21.5,19 C21.7761424,19 22,19.2238576 22,19.5 C22,19.7761424 21.7761424,20 21.5,20 L2.5,20 Z"/>
</svg>