<svg xmlns="http://www.w3.org/2000/svg" width="24" height="24" viewBox="0 0 24 24">
  <g fill="none" fill-rule="evenodd">
    <polygon points="0 0 24 0 24 24 0 24"/>
    <circle cx="12" cy="12" r="12"/>
    <path fill="currentColor" d="M8,0.5 C7.17157288,0.5 6.5,1.17157288 6.5,2 C6.5,2.82842712 7.17157288,3.5 8,3.5 C8.82842712,3.5 9.5,2.82842712 9.5,2 C9.5,1.17157288 8.82842712,0.5 8,0.5 Z M2,0.5 C1.17157288,0.5 0.5,1.17157288 0.5,2 C0.5,2.82842712 1.17157288,3.5 2,3.5 C2.82842712,3.5 3.5,2.82842712 3.5,2 C3.5,1.17157288 2.82842712,0.5 2,0.5 Z M14,0.5 C13.1715729,0.5 12.5,1.17157288 12.5,2 C12.5,2.82842712 13.1715729,3.5 14,3.5 C14.8284271,3.5 15.5,2.82842712 15.5,2 C15.5,1.17157288 14.8284271,0.5 14,0.5 Z" transform="translate(4 10)"/>
  </g>
</svg>
