<svg width="13" height="12" viewBox="0 0 13 12" fill="none" xmlns="http://www.w3.org/2000/svg">
<path fill-rule="evenodd" clip-rule="evenodd" d="M0.48421 2.57362L5.91684 0.211264C6.05209 0.152235 6.20583 0.152235 6.34108 0.211264L11.7743 2.5739C11.9673 2.65839 12.0919 2.84905 12.0919 3.05966C12.0919 3.27027 11.9673 3.46092 11.7737 3.54569L6.34108 5.90805C6.20583 5.96708 6.05209 5.96708 5.91716 5.90819L0.483573 3.54542C0.290651 3.46092 0.166016 3.27027 0.166016 3.05966C0.166016 2.84905 0.290651 2.65839 0.48421 2.57362ZM6.12896 0.697295L0.696319 3.05966L6.12896 5.42202L11.5616 3.05966L6.12896 0.697295ZM10.4597 5.20764C10.5116 5.08829 10.6408 5.02645 10.7632 5.05522L10.8086 5.07032L11.7743 5.49057C11.9673 5.57506 12.0919 5.76571 12.0919 5.97633C12.0919 6.16354 11.9934 6.33498 11.8356 6.4303L11.7737 6.46236L6.34108 8.82472C6.22837 8.87391 6.10283 8.88211 5.98602 8.8494L5.91716 8.82486L0.483573 6.46208C0.290651 6.37759 0.166016 6.18694 0.166016 5.97633C0.166016 5.78911 0.264493 5.61767 0.422274 5.52237L0.484145 5.49032L1.4493 5.07032C1.58357 5.01189 1.73979 5.07337 1.79823 5.20764C1.85017 5.327 1.80736 5.4637 1.7029 5.53364L1.6609 5.55657L0.696377 5.97633L6.129 8.33867L11.5622 5.97657L10.597 5.55657C10.4627 5.49814 10.4013 5.34192 10.4597 5.20764ZM10.7632 7.97188C10.6408 7.94311 10.5116 8.00495 10.4597 8.12431L10.4446 8.16972C10.4158 8.2921 10.4777 8.4213 10.597 8.47324L11.561 8.89241L6.12929 11.2552L0.695681 8.89271L1.6609 8.47324L1.7029 8.45031C1.80736 8.38036 1.85017 8.24367 1.79823 8.12431C1.73979 7.99004 1.58357 7.92855 1.4493 7.98698L0.484145 8.40698L0.422274 8.43904C0.264493 8.53434 0.166016 8.70578 0.166016 8.89299C0.166016 9.1036 0.290651 9.29426 0.483573 9.37875L5.91716 11.7415L5.98602 11.7661C6.10283 11.7988 6.22837 11.7906 6.34108 11.7414L11.7737 9.37903L11.8356 9.34697C11.9934 9.25164 12.0919 9.0802 12.0919 8.89299C12.0919 8.68238 11.9673 8.49173 11.7743 8.40723L10.8086 7.98698L10.7632 7.97188Z" fill="#6D7C88"/>
</svg>
