<svg xmlns="http://www.w3.org/2000/svg" width="24" height="24" viewBox="0 0 24 24">
  <g fill="none" fill-rule="evenodd">
    <polygon points="0 0 24 0 24 24 0 24"/>
    <path fill="currentColor" d="M22.5312448,8.64422522 C22.6152057,8.90729397 22.4700102,9.18861714 22.2069414,9.27257811 C21.9438727,9.35653908 21.6625495,9.21134353 21.5785886,8.94827478 C21.3017081,8.0807456 20.9164916,7.27475776 20.4419266,6.54161981 L16.3833881,6.54172957 C16.6360328,7.24004103 16.8387547,7.95831782 16.9888391,8.69137871 C17.0442266,8.96190936 16.8698186,9.22611824 16.599288,9.28150575 C16.3287573,9.33689326 16.0645484,9.16248528 16.0091609,8.89195463 C15.8442881,8.08666211 15.6114807,7.30045012 15.314855,6.54117481 L8.67585566,6.54186212 C8.1051123,7.9892822 7.79964612,9.49679995 7.75920129,11.0420016 L12,11.0416667 C12.2761424,11.0416667 12.5,11.2655243 12.5,11.5416667 C12.5,11.7871266 12.3231248,11.991275 12.0898756,12.033611 L12,12.0416667 L7.76979118,12.0421189 C7.83919952,13.5190587 8.14600392,15.0254504 8.68998743,16.5422859 L12.01375,16.5416667 C12.2898924,16.5416667 12.51375,16.7655243 12.51375,17.0416667 C12.51375,17.2871266 12.3368748,17.491275 12.1036256,17.533611 L12.01375,17.5416667 L9.08236802,17.5421672 C9.70075587,18.9930368 10.5350528,20.4496177 11.5850704,21.8953955 L11.829456,22.2264791 C11.8465697,22.2492124 11.8617763,22.2734295 11.8748536,22.2988823 L11.8298333,22.227 C11.9594888,22.3998739 11.960267,22.6293838 11.8486117,22.8004242 C11.8426035,22.8095309 11.8360653,22.8188332 11.8292281,22.8278915 C11.8016079,22.8646383 11.7684056,22.8980708 11.7298333,22.927 C11.6889234,22.9576825 11.6448417,22.9811477 11.5991137,22.9976134 C11.591964,23.0001959 11.5841223,23.0028137 11.5762006,23.005239 C11.5464889,23.0142905 11.5168223,23.0204001 11.4869869,23.023804 L11.4022049,23.0262361 L11.4022049,23.0262361 C7.50753954,22.8106999 4.15325322,20.5876618 2.36056482,17.3673317 C2.3153785,17.3148253 2.28115936,17.2532342 2.26086646,17.1856196 C1.54707983,15.8432493 1.10100213,14.3348597 0.994795816,12.7310213 C0.975387154,12.437928 0.967649946,12.1464978 0.971208787,11.8572158 L0.976472336,11.6315423 C0.971180341,11.6023861 0.968416667,11.5723492 0.968416667,11.5416667 C0.968416667,11.4983502 0.97392489,11.4563203 0.984279107,11.4162391 C1.09138622,9.3864196 1.75308163,7.4762586 2.83759729,5.85773003 C2.86456747,5.78951277 2.90621721,5.72855988 2.95863074,5.67884387 C4.5607337,3.38760004 7.02323651,1.70946793 9.95378142,1.15336235 C15.4369012,0.112875466 20.8343536,3.32748039 22.5312448,8.64422522 Z M8.00168855,17.5417046 L3.63696245,17.542593 C5.14712056,19.8220452 7.56178033,21.4456163 10.3707672,21.9086313 C9.37573235,20.4605603 8.58616327,18.9996817 8.00168855,17.5417046 Z M18.4413004,10.5 C19.051225,10.5 19.5938677,10.8720724 19.8176943,11.4268072 L19.8635727,11.5579793 L20.1910544,12.6322898 C20.221467,12.7308083 20.3109821,12.7958163 20.409534,12.7986716 L20.469349,12.7926974 L21.563278,12.5390274 C22.2017457,12.395006 22.8595339,12.6839157 23.1854508,13.2515083 C23.4862972,13.7754399 23.439519,14.4238969 23.0816994,14.8948652 L22.9857856,15.0087348 L22.2194044,15.8443129 C22.1508496,15.9180138 22.1371387,16.0240606 22.1786648,16.1111236 L22.2201725,16.1720594 L22.9826775,16.9955256 C23.4275127,17.4745234 23.5087392,18.1873112 23.1830791,18.7541117 C22.8806803,19.2804264 22.2928437,19.5670413 21.6955581,19.4897983 L21.5576809,19.4654574 L20.4727011,19.2099288 C20.3722437,19.1867095 20.2710545,19.2314278 20.2191897,19.3147624 L20.1943903,19.3691625 L19.8642344,20.4473767 C19.6758634,21.0756117 19.0976684,21.5058717 18.4418004,21.5058717 C17.8327801,21.5058717 17.290733,21.1348822 17.0661143,20.580636 L17.0200281,20.4495654 L16.6925464,19.3752549 C16.6621337,19.2767364 16.5726187,19.2117284 16.4740668,19.208873 L16.4142518,19.2148473 L15.3197298,19.4686506 C14.6818825,19.6117175 14.0251819,19.3229122 13.6995217,18.7561117 C13.3989123,18.2329113 13.4449993,17.5853193 13.8033539,17.1124607 L13.8994283,16.9980594 L14.6631964,16.1732318 C14.7317511,16.0995308 14.7454621,15.9934841 14.7040413,15.9065347 L14.662634,15.8457073 L13.9005163,15.0236565 C13.4542922,14.5448379 13.372233,13.8311009 13.6981499,13.2635083 C14.0007871,12.7364581 14.5895785,12.4497007 15.1856856,12.5272724 L15.3232518,12.5516974 L16.4138996,12.8046159 C16.514357,12.8278352 16.6155462,12.7831169 16.6669767,12.701214 L16.69146,12.6478561 L17.0181126,11.5610172 C17.2056477,10.9315159 17.7844585,10.5 18.4413004,10.5 Z M18.4413004,11.5 C18.2574226,11.5 18.0922684,11.6035425 18.0100446,11.7633279 L17.9761408,11.8476885 L17.6480544,12.9392549 C17.4696611,13.5171412 16.9029852,13.8748746 16.3146246,13.8012934 L16.188349,13.7788473 L15.100278,13.5265172 C14.8897377,13.4790249 14.6728263,13.5742954 14.5653524,13.761464 C14.4732319,13.9218942 14.4799524,14.1177311 14.5769718,14.2704403 L14.6329668,14.3428374 L15.3954044,15.1652318 C15.8065289,15.6072183 15.8358949,16.2743582 15.4841175,16.7478469 L15.3961725,16.8534852 L14.6326775,17.6780191 C14.4859892,17.8359728 14.459204,18.0710207 14.5665933,18.2579281 C14.6586412,18.4181345 14.8308909,18.5109905 15.0084649,18.5050476 L15.097349,18.4936974 L16.1887011,18.2406159 C16.7779605,18.104417 17.3720274,18.4145448 17.6044392,18.9612773 L17.6485727,19.0819793 L17.9772344,20.160168 C18.0387562,20.3653491 18.2275943,20.5058717 18.4418004,20.5058717 C18.6254056,20.5058717 18.7903731,20.4026306 18.8730338,20.2421686 L18.9072105,20.1573822 L19.2385464,19.0752898 C19.4169397,18.4974035 19.9836156,18.1396701 20.5733324,18.2135682 L20.6999199,18.2360872 L21.7817298,18.4908941 C21.9920655,18.5380716 22.2086182,18.4428355 22.3160075,18.2559281 C22.4080554,18.0957218 22.4015262,17.9001469 22.3050954,17.7477323 L22.2494283,17.6754852 L21.4871964,16.8523129 C21.0760719,16.4103264 21.0467059,15.7431864 21.3971917,15.2710993 L21.4848151,15.1658099 L22.2515163,14.3298882 C22.3986626,14.1719936 22.4257223,13.9366326 22.3182484,13.749464 C22.2261278,13.5890338 22.0536043,13.4961205 21.8754512,13.5023338 L21.7862518,13.5138473 L20.6948996,13.7669288 C20.1056403,13.9031277 19.5115733,13.5929999 19.2791615,13.0462674 L19.2350281,12.9255654 L18.9061126,11.8465275 C18.8448637,11.6409328 18.6558245,11.5 18.4413004,11.5 Z M18.4413004,14.0677723 C19.5110759,14.0677723 20.3783004,14.9349968 20.3783004,16.0047723 C20.3783004,17.0745479 19.5110759,17.9417723 18.4413004,17.9417723 C17.3715248,17.9417723 16.5043004,17.0745479 16.5043004,16.0047723 C16.5043004,14.9349968 17.3715248,14.0677723 18.4413004,14.0677723 Z M18.4413004,15.0677723 C17.9238096,15.0677723 17.5043004,15.4872815 17.5043004,16.0047723 C17.5043004,16.5222631 17.9238096,16.9417723 18.4413004,16.9417723 C18.9587912,16.9417723 19.3783004,16.5222631 19.3783004,16.0047723 C19.3783004,15.4872815 18.9587912,15.0677723 18.4413004,15.0677723 Z M6.76898264,12.0420855 L1.9705063,12.0415916 C1.97147144,12.2483071 1.9787848,12.4561626 1.99261045,12.664946 C2.08462612,14.0544893 2.45716345,15.3652514 3.05403483,16.5416504 L7.63280212,16.5418359 C7.1228248,15.0285748 6.83462578,13.5225084 6.76898264,12.0420855 Z M7.6053524,6.54148289 L3.58480394,6.54113547 C2.72298956,7.87024067 2.17114224,9.40766395 2.01557009,11.0418697 L6.75861258,11.0414444 C6.79543353,9.50154213 7.07738088,7.99445502 7.6053524,6.54148289 Z M10.1034494,2.14286228 L10.1402162,2.13582968 C7.78800745,2.58218914 5.76736371,3.82340179 4.32407453,5.54183486 L8.01138415,5.54182647 C8.54096076,4.36465997 9.23814778,3.22768451 10.1034494,2.14286228 Z M11.5628436,1.96894759 L11.6973184,1.82130672 C10.6139078,2.99500147 9.75393632,4.24094351 9.11720639,5.54183543 L14.879957,5.54142344 C14.2539279,4.23943918 13.4327017,3.03332772 12.4392835,1.96699549 C12.1480012,1.95515338 11.856112,1.95556518 11.5628436,1.96894759 Z M13.908824,2.13888645 L14.1560645,2.45406641 C14.8837959,3.40999375 15.4960665,4.44646239 15.9814229,5.54161295 L19.7021523,5.54137779 C18.2213503,3.78008367 16.1704481,2.57457393 13.908824,2.13888645 Z"/>
  </g>
</svg>
