<svg width="80" height="80" viewBox="0 0 80 80" fill="none" xmlns="http://www.w3.org/2000/svg">
  <g clip-path="url(#clip0_1020_2931)">
    <g opacity="0.2" filter="url(#filter0_f_1020_2931)">
      <ellipse cx="36" cy="67" rx="17" ry="7" fill="#805F17"/>
    </g>
    <rect opacity="0.6" x="37.5771" y="2" width="46" height="39" rx="6" transform="rotate(45 37.5771 2)" fill="#E9E9F2"/>
    <g clip-path="url(#clip1_1020_2931)">
      <rect x="27" y="38" width="22" height="22" rx="6" fill="url(#paint0_linear_1020_2931)"/>
    </g>
    <g clip-path="url(#clip2_1020_2931)">
      <rect x="31.627" y="19.373" width="24.4014" height="24.4014" rx="6" transform="rotate(45 31.627 19.373)" fill="url(#paint1_linear_1020_2931)"/>
    </g>
    <g clip-path="url(#clip3_1020_2931)">
      <rect x="30.627" y="18.373" width="24.4014" height="24.4014" rx="6" transform="rotate(45 30.627 18.373)" fill="url(#paint2_linear_1020_2931)"/>
      <g style="mix-blend-mode:screen" opacity="0.5" filter="url(#filter1_f_1020_2931)">
        <ellipse cx="31" cy="30.5" rx="6" ry="5.5" fill="#FCDDEC"/>
      </g>
    </g>
  </g>
  <defs>
    <filter id="filter0_f_1020_2931" x="11" y="52" width="50" height="30" filterUnits="userSpaceOnUse" color-interpolation-filters="sRGB">
      <feFlood flood-opacity="0" result="BackgroundImageFix"/>
      <feBlend mode="normal" in="SourceGraphic" in2="BackgroundImageFix" result="shape"/>
      <feGaussianBlur stdDeviation="4" result="effect1_foregroundBlur_1020_2931"/>
    </filter>
    <filter id="filter1_f_1020_2931" x="17" y="17" width="28" height="27" filterUnits="userSpaceOnUse" color-interpolation-filters="sRGB">
      <feFlood flood-opacity="0" result="BackgroundImageFix"/>
      <feBlend mode="normal" in="SourceGraphic" in2="BackgroundImageFix" result="shape"/>
      <feGaussianBlur stdDeviation="4" result="effect1_foregroundBlur_1020_2931"/>
    </filter>
    <linearGradient id="paint0_linear_1020_2931" x1="27" y1="40.9333" x2="50.1821" y2="53.5859" gradientUnits="userSpaceOnUse">
      <stop stop-color="#FFB837"/>
      <stop offset="1" stop-color="#FFF27E" stop-opacity="0.98"/>
    </linearGradient>
    <linearGradient id="paint1_linear_1020_2931" x1="31.627" y1="22.6266" x2="57.3394" y2="36.6602" gradientUnits="userSpaceOnUse">
      <stop stop-color="#B72FCE"/>
      <stop offset="1" stop-color="#DE542A"/>
    </linearGradient>
    <linearGradient id="paint2_linear_1020_2931" x1="30.627" y1="21.6266" x2="56.3394" y2="35.6602" gradientUnits="userSpaceOnUse">
      <stop stop-color="#D74FEE"/>
      <stop offset="1" stop-color="#FF6E42"/>
    </linearGradient>
    <clipPath id="clip0_1020_2931">
      <rect width="80" height="80" fill="white"/>
    </clipPath>
    <clipPath id="clip1_1020_2931">
      <rect x="27" y="38" width="22" height="22" rx="6" fill="white"/>
    </clipPath>
    <clipPath id="clip2_1020_2931">
      <rect x="31.627" y="19.373" width="24.4014" height="24.4014" rx="6" transform="rotate(45 31.627 19.373)" fill="white"/>
    </clipPath>
    <clipPath id="clip3_1020_2931">
      <rect x="30.627" y="18.373" width="24.4014" height="24.4014" rx="6" transform="rotate(45 30.627 18.373)" fill="white"/>
    </clipPath>
  </defs>
</svg>
