<svg width="100" height="100" viewBox="0 0 100 100" fill="none" xmlns="http://www.w3.org/2000/svg">
  <g filter="url(#filter0_d_258_13610)">
    <rect x="30" y="15" width="60" height="60" rx="30" fill="white"/>
    <path fill-rule="evenodd" clip-rule="evenodd" d="M68.5 40H57.5C57.224 40 57 39.776 57 39.5C57 39.224 57.224 39 57.5 39H68.5C68.776 39 69 39.224 69 39.5C69 39.776 68.776 40 68.5 40ZM57.5 45H68.5C68.776 45 69 45.224 69 45.5C69 45.776 68.776 46 68.5 46H57.5C57.224 46 57 45.776 57 45.5C57 45.224 57.224 45 57.5 45ZM68.5 51H57.5C57.224 51 57 51.224 57 51.5C57 51.776 57.224 52 57.5 52H68.5C68.776 52 69 51.776 69 51.5C69 51.224 68.776 51 68.5 51ZM54.5 45.5C54.5 46.0523 54.0523 46.5 53.5 46.5C52.9477 46.5 52.5 46.0523 52.5 45.5C52.5 44.9477 52.9477 44.5 53.5 44.5C54.0523 44.5 54.5 44.9477 54.5 45.5ZM54.5 51.5C54.5 52.0523 54.0523 52.5 53.5 52.5C52.9477 52.5 52.5 52.0523 52.5 51.5C52.5 50.9477 52.9477 50.5 53.5 50.5C54.0523 50.5 54.5 50.9477 54.5 51.5Z" fill="#7879F1"/>
    <path d="M57.5 40.5H68.5V39.5H57.5V40.5ZM56.5 39.5C56.5 40.0521 56.9479 40.5 57.5 40.5V39.5H56.5ZM57.5 38.5C56.9479 38.5 56.5 38.9479 56.5 39.5H57.5V38.5ZM68.5 38.5H57.5V39.5H68.5V38.5ZM69.5 39.5C69.5 38.9479 69.0521 38.5 68.5 38.5V39.5H69.5ZM68.5 40.5C69.0521 40.5 69.5 40.0521 69.5 39.5H68.5V40.5ZM68.5 44.5H57.5V45.5H68.5V44.5ZM69.5 45.5C69.5 44.9479 69.0521 44.5 68.5 44.5V45.5H69.5ZM68.5 46.5C69.0521 46.5 69.5 46.0521 69.5 45.5H68.5V46.5ZM57.5 46.5H68.5V45.5H57.5V46.5ZM56.5 45.5C56.5 46.0521 56.9479 46.5 57.5 46.5V45.5H56.5ZM57.5 44.5C56.9479 44.5 56.5 44.9479 56.5 45.5H57.5V44.5ZM57.5 51.5H68.5V50.5H57.5V51.5ZM57.5 51.5V50.5C56.9479 50.5 56.5 50.9479 56.5 51.5H57.5ZM57.5 51.5H56.5C56.5 52.0521 56.9479 52.5 57.5 52.5V51.5ZM68.5 51.5H57.5V52.5H68.5V51.5ZM68.5 51.5V52.5C69.0521 52.5 69.5 52.0521 69.5 51.5H68.5ZM68.5 51.5H69.5C69.5 50.9479 69.0521 50.5 68.5 50.5V51.5ZM53.5 47C54.3284 47 55 46.3284 55 45.5H54C54 45.7761 53.7761 46 53.5 46V47ZM52 45.5C52 46.3284 52.6716 47 53.5 47V46C53.2239 46 53 45.7761 53 45.5H52ZM53.5 44C52.6716 44 52 44.6716 52 45.5H53C53 45.2239 53.2239 45 53.5 45V44ZM55 45.5C55 44.6716 54.3284 44 53.5 44V45C53.7761 45 54 45.2239 54 45.5H55ZM53.5 53C54.3284 53 55 52.3284 55 51.5H54C54 51.7761 53.7761 52 53.5 52V53ZM52 51.5C52 52.3284 52.6716 53 53.5 53V52C53.2239 52 53 51.7761 53 51.5H52ZM53.5 50C52.6716 50 52 50.6716 52 51.5H53C53 51.2239 53.2239 51 53.5 51V50ZM55 51.5C55 50.6716 54.3284 50 53.5 50V51C53.7761 51 54 51.2239 54 51.5H55Z" fill="#7879F1"/>
    <path fill-rule="evenodd" clip-rule="evenodd" d="M56.6987 32.2908L52.4092 36.5903L50.7594 34.9405C50.515 34.6551 50.1313 34.5308 49.7661 34.6187C49.4008 34.7065 49.1156 34.9917 49.0278 35.357C48.9399 35.7222 49.0642 36.1059 49.3495 36.3503L51.6993 38.71C51.888 38.8972 52.1434 39.0015 52.4092 39C52.6715 38.9989 52.9229 38.8947 53.1091 38.71L58.1085 33.7106C58.2978 33.5229 58.4043 33.2673 58.4043 33.0007C58.4043 32.7341 58.2978 32.4785 58.1085 32.2908C57.7185 31.9031 57.0887 31.9031 56.6987 32.2908Z" fill="#7879F1"/>
    <rect x="31.5" y="16.5" width="57" height="57" rx="28.5" stroke="#C6C6FE" stroke-width="3"/>
  </g>
  <defs>
    <filter id="filter0_d_258_13610" x="0" y="0" width="100" height="100" filterUnits="userSpaceOnUse" color-interpolation-filters="sRGB">
      <feFlood flood-opacity="0" result="BackgroundImageFix"/>
      <feColorMatrix in="SourceAlpha" type="matrix" values="0 0 0 0 0 0 0 0 0 0 0 0 0 0 0 0 0 0 127 0" result="hardAlpha"/>
      <feOffset dx="-10" dy="5"/>
      <feGaussianBlur stdDeviation="10"/>
      <feComposite in2="hardAlpha" operator="out"/>
      <feColorMatrix type="matrix" values="0 0 0 0 0 0 0 0 0 0 0 0 0 0 0 0 0 0 0.15 0"/>
      <feBlend mode="normal" in2="BackgroundImageFix" result="effect1_dropShadow_258_13610"/>
      <feBlend mode="normal" in="SourceGraphic" in2="effect1_dropShadow_258_13610" result="shape"/>
    </filter>
  </defs>
</svg>
