<svg width="60" height="60" viewBox="0 0 60 60" fill="none" xmlns="http://www.w3.org/2000/svg">
  <path fill-rule="evenodd" clip-rule="evenodd" d="M30.3454 7.79746C30.2631 7.34392 29.8662 7 29.3889 7C28.8519 7 28.4167 7.43528 28.4167 7.97222V10.8889L28.4323 11.0636C28.5147 11.5172 28.9116 11.8611 29.3889 11.8611C29.9258 11.8611 30.3611 11.4258 30.3611 10.8889V7.97222L30.3454 7.79746ZM43.486 28.3759C43.5551 33.5448 40.7322 38.3063 36.1944 40.7333V44.4306C36.1944 46.4653 34.6318 48.135 32.6411 48.3052L32.3056 48.3194H30.3611V51.7222C30.3611 52.2592 29.9258 52.6944 29.3889 52.6944C28.9116 52.6944 28.5147 52.3505 28.4323 51.897L28.4167 51.7222V48.3194H26.4722C24.4375 48.3194 22.7677 46.7568 22.5976 44.7661L22.5833 44.4306V40.7333C18.0482 38.3077 15.2258 33.55 15.2918 28.38C15.4243 20.6581 21.6498 14.4289 29.3716 14.2918H29.4061C37.1248 14.4288 43.349 20.653 43.486 28.3759ZM29.3861 46.375L29.3889 46.375L29.3916 46.375H32.3056C33.2968 46.375 34.1149 45.6332 34.2348 44.6745L34.25 44.4306V41.0278H29.3916L29.3889 41.0278L29.3861 41.0278H24.5278V44.4306C24.5278 45.4218 25.2696 46.2399 26.2283 46.3599L26.4722 46.375H29.3861ZM28.4167 33.1666V39.0826H23.631L23.6391 39.0869L23.6282 39.086C19.6573 37.0236 17.1788 32.8956 17.236 28.4091C17.3475 21.9143 22.4521 16.6387 28.882 16.2562L29.3873 16.2346C36.0434 16.3543 41.4235 21.7344 41.5418 28.4061L41.5366 28.9512C41.4013 33.1147 39.084 36.9082 35.4382 38.931L35.146 39.0826H30.3611V33.1666L34.4514 29.0764L34.5759 28.9238C34.8251 28.5465 34.7836 28.0336 34.4514 27.7014C34.0717 27.3217 33.4561 27.3217 33.0764 27.7014L29.3897 31.3896L25.7014 27.7014L25.5488 27.5768C25.1715 27.3277 24.6586 27.3692 24.3264 27.7014C23.9467 28.0811 23.9467 28.6967 24.3264 29.0764L28.4167 33.1666ZM11.8889 27.4167C12.4258 27.4167 12.8611 27.8519 12.8611 28.3889C12.8611 28.8662 12.5172 29.2631 12.0636 29.3454L11.8889 29.3611H8.97222C8.43528 29.3611 8 28.9258 8 28.3889C8 27.9116 8.34392 27.5147 8.79746 27.4323L8.97222 27.4167H11.8889ZM13.8659 12.983C13.4836 12.7414 12.9717 12.7932 12.6462 13.1319C12.2742 13.5191 12.2864 14.1346 12.6736 14.5066L14.8125 16.5619L14.9675 16.6834C15.3497 16.925 15.8616 16.8732 16.1871 16.5345C16.5592 16.1473 16.5469 15.5318 16.1597 15.1598L14.0208 13.1045L13.8659 12.983ZM49.8056 27.4167C50.3425 27.4167 50.7778 27.8519 50.7778 28.3889C50.7778 28.8662 50.4339 29.2631 49.9803 29.3454L49.8056 29.3611H46.8889C46.3519 29.3611 45.9167 28.9258 45.9167 28.3889C45.9167 27.9116 46.2606 27.5147 46.7141 27.4323L46.8889 27.4167H49.8056ZM46.1316 13.1319C45.7596 12.7448 45.1441 12.7325 44.7569 13.1045L42.618 15.1598L42.4904 15.3098C42.2338 15.6821 42.2651 16.1957 42.5906 16.5345C42.9627 16.9216 43.5781 16.9339 43.9653 16.5619L46.1042 14.5066L46.2318 14.3566C46.4884 13.9843 46.4571 13.4707 46.1316 13.1319Z" fill="#B7C3CB"/>
</svg>
