<svg width="60" height="60" viewBox="0 0 60 60" fill="none" xmlns="http://www.w3.org/2000/svg">
  <path d="M45.2 11.6C45.6416 11.6 46 11.2416 46 10.8C46 10.3584 45.6416 10 45.2 10H18C15.7952 10 14 11.7936 14 14V17.2C14 19.4064 15.7952 21.2 18 21.2H45.2C45.6416 21.2 46 20.8416 46 20.4C46 19.9584 45.6416 19.6 45.2 19.6C43.8768 19.6 42.8 18.5232 42.8 17.2V14C42.8 12.6768 43.8768 11.6 45.2 11.6ZM42.0016 19.6H18C16.6768 19.6 15.6 18.5232 15.6 17.2V14C15.6 12.6768 16.6768 11.6 18 11.6H42.0016C41.4992 12.2688 41.2 13.1008 41.2 14V17.2C41.2 18.0992 41.4992 18.9312 42.0016 19.6Z" fill="#B7C3CB"/>
  <path d="M37.1998 14.8008H19.5998C19.1582 14.8008 18.7998 15.1592 18.7998 15.6008C18.7998 16.0424 19.1582 16.4008 19.5998 16.4008H37.1998C37.6414 16.4008 37.9998 16.0424 37.9998 15.6008C37.9998 15.1592 37.6414 14.8008 37.1998 14.8008Z" fill="#B7C3CB"/>
  <path d="M38 24.5996H10.8C10.3584 24.5996 10 24.958 10 25.3996C10 25.8412 10.3584 26.1996 10.8 26.1996C12.1232 26.1996 13.2 27.2764 13.2 28.5996V31.7996C13.2 33.1228 12.1232 34.1996 10.8 34.1996C10.3584 34.1996 10 34.558 10 34.9996C10 35.4412 10.3584 35.7996 10.8 35.7996H38C40.2048 35.7996 42 34.006 42 31.7996V28.5996C42 26.3932 40.2048 24.5996 38 24.5996ZM40.4 31.7996C40.4 33.1228 39.3232 34.1996 38 34.1996H13.9984C14.5008 33.5308 14.8 32.6988 14.8 31.7996V28.5996C14.8 27.7004 14.5008 26.8684 13.9984 26.1996H38C39.3232 26.1996 40.4 27.2764 40.4 28.5996V31.7996Z" fill="#B7C3CB"/>
  <path d="M36.3992 29.4004H17.9992C17.5576 29.4004 17.1992 29.7588 17.1992 30.2004C17.1992 30.642 17.5576 31.0004 17.9992 31.0004H36.3992C36.8408 31.0004 37.1992 30.642 37.1992 30.2004C37.1992 29.7588 36.8408 29.4004 36.3992 29.4004Z" fill="#B7C3CB"/>
  <path d="M42 39.5996H14.8C14.3584 39.5996 14 39.958 14 40.3996C14 40.8412 14.3584 41.1996 14.8 41.1996C16.1232 41.1996 17.2 42.2764 17.2 43.5996V46.7996C17.2 48.1228 16.1232 49.1996 14.8 49.1996C14.3584 49.1996 14 49.558 14 49.9996C14 50.4412 14.3584 50.7996 14.8 50.7996H42C44.2048 50.7996 46 49.006 46 46.7996V43.5996C46 41.3932 44.2048 39.5996 42 39.5996ZM44.4 46.7996C44.4 48.1228 43.3232 49.1996 42 49.1996H17.9984C18.5008 48.5308 18.8 47.6988 18.8 46.7996V43.5996C18.8 42.7004 18.5008 41.8684 17.9984 41.1996H42C43.3232 41.1996 44.4 42.2764 44.4 43.5996V46.7996Z" fill="#B7C3CB"/>
  <path d="M40.3992 44.4004H21.9992C21.5576 44.4004 21.1992 44.7588 21.1992 45.2004C21.1992 45.642 21.5576 46.0004 21.9992 46.0004H40.3992C40.8408 46.0004 41.1992 45.642 41.1992 45.2004C41.1992 44.7588 40.8408 44.4004 40.3992 44.4004Z" fill="#B7C3CB"/>
</svg>
