<svg width="60" height="60" viewBox="0 0 60 60" fill="none" xmlns="http://www.w3.org/2000/svg">
  <path d="M25.2371 10.9082H22.7964H21.9829H12.2201H11.4066H8.9659C8.51682 10.9082 8.15234 11.2992 8.15234 11.7809C8.15234 12.2627 8.51682 12.6537 8.9659 12.6537H10.593V39.7082C10.593 43.0769 13.5121 45.8173 17.1015 45.8173C20.6909 45.8173 23.61 43.0769 23.61 39.7082V12.6537H25.2371C25.6862 12.6537 26.0507 12.2627 26.0507 11.7809C26.0507 11.2992 25.6862 10.9082 25.2371 10.9082ZM17.1015 44.0718C14.4102 44.0718 12.2201 42.1152 12.2201 39.7082V28.3627H21.9829V39.7082C21.9829 42.1152 19.7928 44.0718 17.1015 44.0718ZM21.9829 26.6173H12.2201V12.6537H21.9829V26.6173Z" fill="#B7C3CB"/>
  <path d="M19.8802 20.146C20.5156 20.8276 20.5156 21.9328 19.8802 22.6144C19.2448 23.2961 18.2145 23.2961 17.5791 22.6144C16.9437 21.9328 16.9437 20.8276 17.5791 20.146C18.2145 19.4644 19.2448 19.4644 19.8802 20.146Z" fill="#B7C3CB"/>
  <path d="M16.6243 16.6558C17.2598 17.3374 17.2598 18.4426 16.6243 19.1242C15.9889 19.8058 14.9587 19.8058 14.3233 19.1242C13.6878 18.4426 13.6878 17.3374 14.3233 16.6558C14.9587 15.9741 15.9889 15.9741 16.6243 16.6558Z" fill="#B7C3CB"/>
  <path d="M38.6438 32.2441C37.2982 32.2441 36.2031 33.3725 36.2031 34.7628C36.2031 36.1497 37.2982 37.2815 38.6438 37.2815C39.9894 37.2815 41.0845 36.1497 41.0845 34.7628C41.0845 33.3708 39.9894 32.2441 38.6438 32.2441ZM38.6438 35.6023C38.1947 35.6023 37.8302 35.2246 37.8302 34.7628C37.8302 34.301 38.1947 33.9232 38.6438 33.9232C39.0929 33.9232 39.4574 34.301 39.4574 34.7628C39.4574 35.2246 39.0929 35.6023 38.6438 35.6023Z" fill="#B7C3CB"/>
  <path d="M45.4886 26.023C46.124 26.6788 46.124 27.7419 45.4886 28.3977C44.8532 29.0534 43.8229 29.0534 43.1875 28.3977C42.5521 27.7419 42.5521 26.6788 43.1875 26.023C43.8229 25.3673 44.8532 25.3673 45.4886 26.023Z" fill="#B7C3CB"/>
  <path d="M47.1155 34.4176C47.751 35.0733 47.751 36.1365 47.1155 36.7922C46.4801 37.4479 45.4499 37.4479 44.8145 36.7922C44.179 36.1365 44.179 35.0733 44.8145 34.4176C45.4499 33.7618 46.4801 33.7618 47.1155 34.4176Z" fill="#B7C3CB"/>
  <path d="M45.9654 19.5338V12.5873H48.4061C48.8552 12.5873 49.2197 12.2129 49.2197 11.7478C49.2197 11.286 48.8552 10.9082 48.4061 10.9082H45.9654C45.8141 10.9082 45.6807 10.9636 45.5587 11.0358C45.4366 10.9653 45.3032 10.9082 45.1519 10.9082H40.2705C40.1192 10.9082 39.9858 10.9636 39.8637 11.0358C39.7417 10.9636 39.6083 10.9082 39.457 10.9082H37.0163C36.5672 10.9082 36.2027 11.286 36.2027 11.7478C36.2027 12.2129 36.5672 12.5873 37.0163 12.5873H39.457V19.5338C34.9173 21.1742 30.5078 25.6507 30.5078 31.4067C30.5078 38.3498 35.9814 44 42.7112 44C49.441 44 54.9146 38.3498 54.9146 31.4067C54.9146 25.6507 50.5051 21.1742 45.9654 19.5338ZM42.7112 42.3209C36.8796 42.3209 32.1349 37.4246 32.1349 31.4067C32.1349 26.2284 36.3443 22.227 40.5032 20.9509C40.8482 20.8435 41.0841 20.5177 41.0841 20.145V12.589H44.3383V20.145C44.3383 20.5194 44.5759 20.8435 44.9192 20.9509C49.0781 22.227 53.2875 26.2284 53.2875 31.4067C53.2875 37.4246 48.5428 42.3209 42.7112 42.3209Z" fill="#B7C3CB"/>
</svg>
