<svg xmlns="http://www.w3.org/2000/svg" width="24" height="24" viewBox="0 0 24 24">
  <g fill="none" fill-rule="evenodd">
    <rect width="24" height="24"/>
    <path fill="currentColor" d="M13.9499909,16 C13.7183558,17.1411202 12.709479,18 11.5,18 L2.5,18 C1.11928813,18 0,16.8807119 0,15.5 L0,8.5 C0,7.290521 0.85887984,6.28164422 2,6.05000906 L2,5 C2,2.23857625 4.23857625,0 7,0 C9.7614237,0 12,2.23857625 12,5 L12,6.05000906 C13.1411202,6.28164422 14,7.290521 14,8.5 L14,10 L15.5,10 C16.8807119,10 18,11.1192881 18,12.5 L18,13.5 C18,14.8807119 16.8807119,16 15.5,16 L13.9499909,16 L13.9499909,16 Z M12.9146471,16 L8.5,16 C7.1192881,16 6,14.8807119 6,13.5 L6,12.5 C6,11.1192881 7.1192881,10 8.5,10 L13,10 L13,8.5 C13,7.710487 12.3900375,7.0634383 11.6156506,7.0043921 C11.5785296,7.0131823 11.5398081,7.0178344 11.5,7.0178344 C11.4540106,7.0178344 11.4094714,7.0116254 11.367175,7 L2.5,7 C1.67157288,7 1,7.6715729 1,8.5 L1,15.5 C1,16.3284271 1.67157288,17 2.5,17 L11.5,17 C12.1531094,17 12.7087289,16.5825962 12.9146471,16 L12.9146471,16 Z M3,6 L11,6 L11,5 C11,2.790861 9.209139,1 7,1 C4.790861,1 3,2.790861 3,5 L3,6 Z M17,13.5 L17,12.5 C17,11.6715729 16.3284271,11 15.5,11 L8.5,11 C7.6715729,11 7,11.6715729 7,12.5 L7,13.5 C7,14.3284271 7.6715729,15 8.5,15 L15.5,15 C16.3284271,15 17,14.3284271 17,13.5 Z M8.5,12 L9.5,12 C9.7761424,12 10,12.2238576 10,12.5 L10,13.5 C10,13.7761424 9.7761424,14 9.5,14 L8.5,14 C8.2238576,14 8,13.7761424 8,13.5 L8,12.5 C8,12.2238576 8.2238576,12 8.5,12 Z M11.5,12 L12.5,12 C12.7761424,12 13,12.2238576 13,12.5 L13,13.5 C13,13.7761424 12.7761424,14 12.5,14 L11.5,14 C11.2238576,14 11,13.7761424 11,13.5 L11,12.5 C11,12.2238576 11.2238576,12 11.5,12 Z M14.5,12 L15.5,12 C15.7761424,12 16,12.2238576 16,12.5 L16,13.5 C16,13.7761424 15.7761424,14 15.5,14 L14.5,14 C14.2238576,14 14,13.7761424 14,13.5 L14,12.5 C14,12.2238576 14.2238576,12 14.5,12 Z" transform="translate(3 3)"/>
  </g>
</svg>
