<svg width="48" height="48" viewBox="0 0 48 48" fill="none" xmlns="http://www.w3.org/2000/svg">
<path fill-rule="evenodd" clip-rule="evenodd" d="M35.2929 14.2929C35.64 13.9458 36.1789 13.9072 36.5686 14.1772L36.7071 14.2929L45.8738 23.4596C46.2209 23.8067 46.2595 24.3455 45.9895 24.7353L45.8738 24.8738L36.7071 34.0404C36.3166 34.431 35.6834 34.431 35.2929 34.0404C34.9458 33.6933 34.9072 33.1545 35.1772 32.7647L35.2929 32.6262L43.7513 24.166L35.2929 15.7071C34.9458 15.36 34.9072 14.8211 35.1772 14.4314L35.2929 14.2929ZM11.4596 14.2929C11.8501 13.9024 12.4832 13.9024 12.8738 14.2929C13.2209 14.64 13.2595 15.1789 12.9895 15.5686L12.8738 15.7071L4.41333 24.166L12.8738 32.6262C13.2209 32.9734 13.2595 33.5122 12.9895 33.9019L12.8738 34.0404C12.5266 34.3876 11.9878 34.4261 11.5981 34.1562L11.4596 34.0404L2.29289 24.8738C1.94576 24.5266 1.90719 23.9878 2.17718 23.5981L2.29289 23.4596L11.4596 14.2929ZM24.0833 21.3333C22.5185 21.3333 21.25 22.6019 21.25 24.1667C21.25 25.7315 22.5185 27 24.0833 27C25.6481 27 26.9167 25.7315 26.9167 24.1667C26.9167 22.6019 25.6481 21.3333 24.0833 21.3333ZM24.0833 23.3333C24.5436 23.3333 24.9167 23.7064 24.9167 24.1667C24.9167 24.6269 24.5436 25 24.0833 25C23.6231 25 23.25 24.6269 23.25 24.1667C23.25 23.7064 23.6231 23.3333 24.0833 23.3333ZM30.4167 24.1667C30.4167 22.6019 31.6852 21.3333 33.25 21.3333C34.8148 21.3333 36.0833 22.6019 36.0833 24.1667C36.0833 25.7315 34.8148 27 33.25 27C31.6852 27 30.4167 25.7315 30.4167 24.1667ZM34.0833 24.1667C34.0833 23.7064 33.7102 23.3333 33.25 23.3333C32.7898 23.3333 32.4167 23.7064 32.4167 24.1667C32.4167 24.6269 32.7898 25 33.25 25C33.7102 25 34.0833 24.6269 34.0833 24.1667ZM14.9167 21.3333C13.3519 21.3333 12.0833 22.6019 12.0833 24.1667C12.0833 25.7315 13.3519 27 14.9167 27C16.4815 27 17.75 25.7315 17.75 24.1667C17.75 22.6019 16.4815 21.3333 14.9167 21.3333ZM14.9167 23.3333C15.3769 23.3333 15.75 23.7064 15.75 24.1667C15.75 24.6269 15.3769 25 14.9167 25C14.4564 25 14.0833 24.6269 14.0833 24.1667C14.0833 23.7064 14.4564 23.3333 14.9167 23.3333Z" fill="#6D7C88"/>
</svg>
