<svg viewBox="0 0 32 32" fill="none" xmlns="http://www.w3.org/2000/svg">
<path fill-rule="evenodd" clip-rule="evenodd" d="M26.6667 5.33333C27.403 5.33333 28 5.93029 28 6.66667V25.3333C28 26.0697 27.403 26.6667 26.6667 26.6667H5.33333C4.59695 26.6667 4 26.0697 4 25.3333V6.66667C4 5.93029 4.59695 5.33333 5.33333 5.33333H26.6667ZM26.6667 6.66667H5.33333V25.3333H26.6667V6.66667ZM18.6667 16.002H24.6667C25.0347 16.002 25.3333 16.3006 25.3333 16.6686C25.3333 17.0366 25.0347 17.3353 24.6667 17.3353H18.944L17.8053 18.474C17.6787 18.5993 17.508 18.6686 17.3333 18.6686C17.2987 18.6686 17.2627 18.666 17.2267 18.6593C17.0147 18.6246 16.8333 18.4913 16.7373 18.2993L14.584 13.994L12.5547 17.038C12.4307 17.2233 12.2227 17.3353 12 17.3353H7.33333C6.96533 17.3353 6.66667 17.0366 6.66667 16.6686C6.66667 16.3006 6.96533 16.002 7.33333 16.002H11.6427L14.112 12.2993C14.244 12.1006 14.4573 11.978 14.708 12.0033C14.9453 12.0166 15.156 12.158 15.2627 12.37L17.516 16.8766L18.1947 16.1966C18.32 16.0726 18.4893 16.002 18.6667 16.002Z" fill="#6D7C88"/>
</svg>
