<svg xmlns="http://www.w3.org/2000/svg" width="24" height="24" viewBox="0 0 24 24">
  <g fill="none" fill-rule="evenodd">
    <polygon points="0 0 24 0 24 24 0 24"/>
    <path fill="currentColor" d="M12,2 C14.6521649,2 17.195704,3.0535684 19.0710678,4.92893219 C20.9464316,6.80429597 22,9.3478351 22,12 C22,17.5228475 17.5228475,22 12,22 C6.4771525,22 2,17.5228475 2,12 C2,6.4771525 6.4771525,2 12,2 Z M12,3 C7.02943725,3 3,7.02943725 3,12 C3,16.9705627 7.02943725,21 12,21 C14.3869484,21 16.6761336,20.0517884 18.363961,18.363961 C20.0517884,16.6761336 21,14.3869484 21,12 C21,7.02943725 16.9705627,3 12,3 Z M12,7 C12.2454599,7 12.4496084,7.17687516 12.4919443,7.41012437 L12.5,7.5 L12.5,11.5 L16.5,11.5 C16.7761424,11.5 17,11.7238576 17,12 C17,12.2454599 16.8231248,12.4496084 16.5898756,12.4919443 L16.5,12.5 L12.5,12.5 L12.5,16.5 C12.5,16.7761424 12.2761424,17 12,17 C11.7545401,17 11.5503916,16.8231248 11.5080557,16.5898756 L11.5,16.5 L11.5,12.5 L7.5,12.5 C7.22385763,12.5 7,12.2761424 7,12 C7,11.7545401 7.17687516,11.5503916 7.41012437,11.5080557 L7.5,11.5 L11.5,11.5 L11.5,7.5 C11.5,7.22385763 11.7238576,7 12,7 Z"/>
  </g>
</svg>
