<svg width="12" height="12" viewBox="0 0 12 12" fill="none" xmlns="http://www.w3.org/2000/svg">
<path fill-rule="evenodd" clip-rule="evenodd" d="M6.57389 0.645226C6.5245 0.373102 6.28633 0.166748 5.99996 0.166748C5.67779 0.166748 5.41663 0.427915 5.41663 0.750081V5.41675H0.749959L0.645104 5.42615C0.37298 5.47554 0.166626 5.71371 0.166626 6.00008C0.166626 6.32225 0.427793 6.58342 0.749959 6.58342H5.41663V11.2501L5.42602 11.3549C5.47542 11.6271 5.71359 11.8334 5.99996 11.8334C6.32213 11.8334 6.58329 11.5722 6.58329 11.2501V6.58342H11.25L11.3548 6.57402C11.6269 6.52462 11.8333 6.28645 11.8333 6.00008C11.8333 5.67792 11.5721 5.41675 11.25 5.41675H6.58329V0.750081L6.57389 0.645226Z" fill="currentColor"/>
</svg>
