<svg xmlns="http://www.w3.org/2000/svg" width="24" height="24" viewBox="0 0 24 24" fill="none">
  <path d="M12 7C12.2455 7 12.4499 7.17691 12.4922 7.41016L12.5 7.5V11.5H16.5C16.7761 11.5 17 11.7239 17 12C17 12.2455 16.8231 12.4499 16.5898 12.4922L16.5 12.5H12.5V16.5C12.5 16.7761 12.2761 17 12 17C11.7545 17 11.5501 16.8231 11.5078 16.5898L11.5 16.5V12.5H7.5C7.22386 12.5 7 12.2761 7 12C7 11.7545 7.17691 11.5501 7.41016 11.5078L7.5 11.5H11.5V7.5C11.5 7.22386 11.7239 7 12 7Z" fill="#0B1117"/>
</svg>
