<svg width="84" height="64" viewBox="0 0 84 64" fill="none" xmlns="http://www.w3.org/2000/svg">
    <rect opacity="0.7" x="34.1504" y="9" width="35.479"
    height="30.08" rx="6"
    transform="rotate(45 34.1504 9)" fill="#F0F4F7"/>
    <path fill-rule="evenodd" clip-rule="evenodd" d="M39.1017 30.9137C37.8712 31.4756 37.3583
    32.1449
    37.3583 32.6963C37.3583 33.2478 37.8712
    33.9171 39.1017 34.4789C40.2856 35.0195
    41.9579 35.3677 43.8333 35.3677C45.7088
    35.3677 47.3811 35.0195 48.565 34.4789C49.7955
    33.9171 50.3083 33.2478 50.3083 32.6963C50.3083
    32.1449 49.7955 31.4756 48.565 30.9137C47.3811
    30.3731 45.7088 30.025 43.8333 30.025C41.9579
    30.025 40.2856 30.3731 39.1017 30.9137ZM50.3083
    34.6358C49.9344 34.9462 49.4849 35.2131 49.0012
    35.434C47.6515 36.0503 45.8239 36.4177 43.8333
    36.4177C41.8428 36.4177 40.0152 36.0503 38.6655
    35.434C38.1818 35.2131 37.7323 34.9462 37.3583
    34.6358V37.6683C37.3583 38.2198 37.8712 38.8891
    39.1017 39.4509C40.2856 39.9915 41.9579 40.3397
    43.8333 40.3397C45.7088 40.3397 47.3811 39.9915
    48.565 39.4509C49.7955 38.8891 50.3083 38.2198
    50.3083
    37.6683V34.6358ZM51.3583 32.6963C51.3583 31.4825
    50.3042 30.5536 49.0012 29.9586C47.6515 29.3423
    45.8239 28.975 43.8333 28.975C41.8428 28.975 40.0152
    29.3423 38.6655 29.9586C37.3625 30.5536 36.3083
    31.4825 36.3083 32.6963V42.6132C36.3083
    42.6172 36.3084 42.6211 36.3085 42.6251C36.3084
    42.629 36.3083 42.633
    36.3083 42.637C36.3083 43.8508 37.3625 44.7797 38.6655
    45.3747C40.0152 45.991 41.8428 46.3583
    43.8333 46.3583C45.8239 46.3583 47.6515
    45.991 49.0012 45.3747C50.3042
    44.7797 51.3583 43.8508 51.3583
    42.637V32.6963ZM50.3083 39.6078C49.9344
    39.9183 49.4849 40.1852 49.0012
    40.4061C47.6515 41.0223 45.8239 41.3897
    43.8333 41.3897C41.8428 41.3897 40.0152 41.0223 38.6655
    40.4061C38.1818 40.1852 37.7323 39.9183
    37.3583 39.6078V42.6132C37.3583
    42.6172 37.3583 42.6211 37.3582
    42.6251C37.3583 42.629 37.3583 42.633
    37.3583 42.637C37.3583 43.1884 37.8712
    43.8577 39.1017 44.4196C40.2856 44.9601 41.9579 45.3083
    43.8333 45.3083C45.7088 45.3083
    47.3811 44.9601 48.565 44.4196C49.7955
    43.8577 50.3083 43.1884 50.3083
    42.637V39.6078Z" fill="#5D5FEF"/>
    <path fill-rule="evenodd" clip-rule="evenodd"
    d="M29.608 41.5379C29.813 41.7429 30.1454 41.7429
    30.3505 41.5379L32.538 39.3504C32.743 39.1454 32.743
    38.8129 32.538 38.6079L30.3505 36.4204C30.1454 36.2154
    29.813 36.2154 29.608 36.4204C29.403
    36.6254 29.403 36.9579 29.608 37.1629L30.8993
    38.4542H29.3667C28.623
    38.4542 28.0968 38.4537 27.6854 38.4201C27.2801 38.387
    27.0328 38.3243 26.8383 38.2253C26.4432 38.0239
    26.1219 37.7027 25.9206 37.3075C25.8216 37.1131
    25.7589 36.8658 25.7257 36.4605C25.6921 36.0491
    25.6917 35.5229 25.6917 34.7792V34.1667C25.6917
    33.8767 25.4567 33.6417 25.1667 33.6417C24.8768
    33.6417 24.6417 33.8767 24.6417 34.1667L24.6417
    34.8021C24.6417 35.5177 24.6417 36.0868 24.6792
    36.546C24.7176 37.0162 24.798 37.4171 24.9851
    37.7842C25.2871 38.3769 25.7689 38.8588 26.3617
    39.1608C26.7288 39.3479 27.1297 39.4282 27.5999
    39.4666C28.059 39.5042 28.6282 39.5042 29.3438
    39.5042H30.8993L29.608 40.7954C29.403 41.0004
    29.403 41.3329 29.608 41.5379Z" fill="#5D5FEF"/>
    <path fill-rule="evenodd" clip-rule="evenodd"
    d="M26.5907 22.3829C25.9002 22.7158 25.6917
    23.0745 25.6917 23.3021C25.6917 23.5297 25.9002
    23.8884 26.5907 24.2213C27.2441 24.5364 28.1837
    24.7459 29.2501 24.7459C30.3164 24.7459 31.256
    24.5364 31.9094 24.2213C32.5999 23.8884 32.8084
    23.5297 32.8084 23.3021C32.8084 23.0745 32.5999
    22.7158 31.9094 22.3829C31.256 22.0678 30.3164
    21.8583 29.2501 21.8583C28.1837 21.8583 27.2441
    22.0678 26.5907 22.3829ZM32.8084 24.9195C32.6668
    25.0112 32.5176 25.0938 32.3654 25.1671C31.541
    25.5646 30.4389 25.7959 29.2501 25.7959C28.0612
    25.7959 26.9591 25.5646 26.1347 25.1671C25.9825
    25.0938 25.8333 25.0112 25.6917
    24.9195V27.5313C25.6917 27.7589 25.9002 28.1175 26.5907
    28.4505C27.2441
    28.7655 28.1837 28.975 29.2501 28.975C30.3164
    28.975 31.256 28.7655 31.9094
    28.4505C32.5999 28.1175 32.8084
    27.7589 32.8084 27.5313V24.9195ZM33.8584
    23.3021C33.8584 22.4424 33.1528
    21.8167 32.3654 21.4371C31.541 21.0396
    30.4389 20.8083 29.2501 20.8083C28.0612 20.8083
    26.9591 21.0396 26.1347 21.4371C25.3473
    21.8167 24.6417 22.4424 24.6417
    23.3021V27.7172C24.6417 27.8079 24.6647
    27.8932 24.7051 27.9676C24.8952 28.6057 25.4873
    29.0842 26.1347 29.3963C26.9591 29.7938 28.0612
    30.025 29.2501 30.025C30.4389 30.025 31.541 29.7938
    32.3654 29.3963C33.0128 29.0842 33.6049 28.6057 33.795
    27.9676C33.8354 27.8932 33.8584 27.8079
    33.8584 27.7172V23.3021Z" fill="#5D5FEF"/>
    </svg>
