<svg xmlns="http://www.w3.org/2000/svg" width="18" height="18" viewBox="0 0 18 18" fill="none">
<path d="M16 3.34222V0.5C16 0.223858 16.2239 0 16.5 0C16.7761 0 17 0.223858 17 0.5V4.5C17 4.77614 16.7761 5 16.5 5H12.5C12.2239 5 12 4.77614 12 4.5C12 4.22386 12.2239 4 12.5 4H15.2457C13.746 2.12713 11.4694 1 9 1C4.58172 1 1 4.58172 1 9C1 13.4183 4.58172 17 9 17C13.235 17 16.7299 13.6991 16.9851 9.49248C17.0018 9.21685 17.2388 9.00696 17.5145 9.02368C17.7901 9.0404 18 9.27741 17.9833 9.55304C17.6961 14.2867 13.7645 18 9 18C4.02944 18 0 13.9706 0 9C0 4.02944 4.02944 0 9 0C11.7633 0 14.313 1.25541 16 3.34222Z" fill="black"/>
</svg> 