<svg xmlns="http://www.w3.org/2000/svg" width="24" height="24" viewBox="0 0 24 24">
  <g fill="none" fill-rule="evenodd">
    <polygon points="0 0 24 0 24 24 0 24"/>
    <path fill="currentColor" d="M12.0812071,15.6200635 C12.0812071,15.9514343 11.8125775,16.2200635 11.4812066,16.2200635 L7.56120664,16.2200635 C4.9986054,16.2200635 2.92120664,14.1426647 2.92120664,11.5800635 L2.92120664,2.05006346 L0.981206642,3.96006346 C0.741632151,4.15716923 0.391303654,4.13913491 0.173235262,3.91847047 C-0.0448331305,3.69780603 -0.0587204273,3.34728864 0.141206642,3.11006346 L3.08120664,0.18006346 C3.19378777,0.0670907484 3.34671576,0.0035903182 3.50620664,0.0035903182 C3.66569753,0.0035903182 3.81862552,0.0670907484 3.93120664,0.18006346 L6.86120664,3.11006346 C7.09592766,3.34478448 7.09592766,3.72534244 6.86120664,3.96006346 C6.62648562,4.19478448 6.24592766,4.19478448 6.01120664,3.96006346 L4.10120664,2.05006346 L4.10120664,11.5900635 C4.10384841,12.5041497 4.47019165,13.3795982 5.11935911,14.0231371 C5.76852657,14.6666759 6.64713206,15.0253818 7.56120664,15.0200635 L11.5112066,15.0200635 C11.8308067,15.0360632 12.0816069,15.3000634 12.0812071,15.6200635 Z M18.5562066,12.0835903 C18.3967158,12.0835903 18.2437878,12.1470907 18.1312066,12.2600635 L16.2112066,14.1800635 L16.2112066,4.64006346 C16.2112095,3.40772438 15.7209813,2.22600422 14.8486485,1.35554739 C13.9763157,0.485090567 12.7935429,-0.00259244365 11.5612066,1.03652742e-05 L7.64120664,1.03652742e-05 C7.30983579,1.03652742e-05 7.04120664,0.26869261 7.04120664,0.60006346 C7.04120664,0.931434309 7.30983579,1.20006346 7.64120664,1.20006346 L11.5612066,1.20006346 C13.4610662,1.20006346 15.0012066,2.74020392 15.0012066,4.64006346 L15.0012066,14.1800635 L13.0812066,12.2600635 C12.9293688,12.1082256 12.7080602,12.0489261 12.5006458,12.1045026 C12.2932314,12.1600792 12.1312223,12.3220882 12.0756458,12.5295026 C12.0200693,12.7369171 12.0793687,12.9582256 12.2312066,13.1100635 L15.1712066,16.0500635 C15.2837878,16.1630362 15.4367158,16.2265366 15.5962066,16.2265366 C15.7556975,16.2265366 15.9086255,16.1630362 16.0212066,16.0500635 L18.9812066,13.1100635 C19.0941794,12.9974823 19.1576798,12.8445543 19.1576798,12.6850635 C19.1576798,12.5255726 19.0941794,12.3726446 18.9812066,12.2600635 C18.8686255,12.1470907 18.7156975,12.0835903 18.5562066,12.0835903 Z" transform="translate(2.439 3.89)"/>
  </g>
</svg>
