<?xml version="1.0" encoding="UTF-8"?>
<svg width="25px" height="24px" viewBox="0 0 25 24" version="1.1" xmlns="http://www.w3.org/2000/svg" xmlns:xlink="http://www.w3.org/1999/xlink">
    <title>7FC82813-3A5A-43C0-BCCF-EB54CD858046</title>
    <g id="Style-Guide" stroke="none" stroke-width="1" fill="none" fill-rule="evenodd">
        <g id="Style-Guide:-Icons" transform="translate(-719.000000, -180.000000)">
            <rect fill="#FFFFFF" x="0" y="0" width="1456" height="1024"></rect>
            <g id="Icons" transform="translate(15.533333, 80.000000)">
                <g id="2" transform="translate(0.000000, 100.000000)">
                    <g id="Icon/Re-Open" transform="translate(704.000000, 0.000000)">
                        <polygon id="Shape" points="0 0 24 0 24 24 0 24"></polygon>
                        <path d="M16.5,2 C17.878,2 19,3.121 19,4.5 L19,4.5 L19,15.5 C19,16.879 17.878,18 16.5,18 L16.5,18 L6.5,18 C5.673,18 5,18.673 5,19.5 C5,20.327 5.673,21 6.5,21 L6.5,21 L19.5,21 C19.776,21 20,21.224 20,21.5 C20,21.776 19.776,22 19.5,22 L19.5,22 L6.5,22 C5.122,22 4,20.879 4,19.5 L4,19.5 L4,4.5 C4,3.121 5.122,2 6.5,2 L6.5,2 Z M16.5,3 L6.5,3 C5.673,3 5,3.673 5,4.5 L5,4.5 L5,17.501 C5.418,17.187 5.938,17 6.5,17 L6.5,17 L16.5,17 C17.327,17 18,16.327 18,15.5 L18,15.5 L18,4.5 C18,3.673 17.327,3 16.5,3 L16.5,3 Z M9.5,6 C10.878,6 12,7.121 12,8.5 C12,9.009 11.846,9.481 11.584,9.877 L11.584,9.877 L14.354,12.647 C14.549,12.842 14.549,13.159 14.354,13.354 C14.256,13.451 14.128,13.5 14,13.5 C13.872,13.5 13.744,13.451 13.646,13.354 L13.646,13.354 L10.876,10.584 C10.481,10.846 10.009,11 9.5,11 C8.122,11 7,9.879 7,8.5 C7,7.121 8.122,6 9.5,6 Z M9.5,7 C8.673,7 8,7.673 8,8.5 C8,9.327 8.673,10 9.5,10 C10.327,10 11,9.327 11,8.5 C11,7.673 10.327,7 9.5,7 Z" id="Combined-Shape" fill="currentColor"></path>
                    </g>
                </g>
            </g>
        </g>
    </g>
</svg>