<svg xmlns="http://www.w3.org/2000/svg" width="24" height="24" viewBox="0 0 24 24">
  <defs>
    <filter id="restart-a" color-interpolation-filters="auto">
      <feColorMatrix in="SourceGraphic" values="0 0 0 0 0.000000 0 0 0 0 0.000000 0 0 0 0 0.000000 0 0 0 1.000000 0"/>
    </filter>
  </defs>
  <g fill="none" fill-rule="evenodd">
    <polygon points="0 0 24 0 24 24 0 24"/>
    <path fill="currentColor" fill-rule="nonzero" d="M16,3.3422181 L16,0.5 C16,0.22385763 16.2238576,0 16.5,0 C16.7761424,0 17,0.22385763 17,0.5 L17,4.5 C17,4.77614237 16.7761424,5 16.5,5 L12.5,5 C12.2238576,5 12,4.77614237 12,4.5 C12,4.22385763 12.2238576,4 12.5,4 L15.2457493,4 C13.7460485,2.12713252 11.4694199,1 9,1 C4.581722,1 1,4.581722 1,9 C1,13.418278 4.581722,17 9,17 C13.2349934,17 16.7298815,13.6990708 16.9851052,9.4924824 C17.0018287,9.2168469 17.2388325,9.0069572 17.514468,9.0236806 C17.7901035,9.0404041 18,9.2774079 17.9832697,9.5530434 C17.6960701,14.2866561 13.7645343,18 9,18 C4.02943725,18 0,13.9705627 0,9 C0,4.02943725 4.02943725,0 9,0 C11.7632657,0 14.3130274,1.25541041 16,3.3422181 L16,3.3422181 Z" transform="translate(3 3)"/>
  </g>
</svg>
