<?xml version="1.0" encoding="UTF-8"?>
<svg xmlns="http://www.w3.org/2000/svg" xmlns:xlink="http://www.w3.org/1999/xlink" width="14px" height="14px" viewBox="0 0 14 14" version="1.1">
<g id="surface1">
<path style=" stroke:none;fill-rule:nonzero;fill:rgb(0%,0%,0%);fill-opacity:1;" d="M 11.082031 3.699219 L 11.082031 2.042969 C 11.082031 1.878906 11.214844 1.75 11.375 1.75 C 11.535156 1.75 11.667969 1.878906 11.667969 2.042969 L 11.667969 4.375 C 11.667969 4.535156 11.535156 4.667969 11.375 4.667969 L 9.042969 4.667969 C 8.878906 4.667969 8.75 4.535156 8.75 4.375 C 8.75 4.214844 8.878906 4.082031 9.042969 4.082031 L 10.644531 4.082031 C 9.769531 2.992188 8.441406 2.332031 7 2.332031 C 4.421875 2.332031 2.332031 4.421875 2.332031 7 C 2.332031 9.578125 4.421875 11.667969 7 11.667969 C 9.46875 11.667969 11.507812 9.742188 11.65625 7.289062 C 11.667969 7.125 11.804688 7.003906 11.964844 7.015625 C 12.128906 7.023438 12.25 7.160156 12.242188 7.324219 C 12.074219 10.082031 9.78125 12.25 7 12.25 C 4.101562 12.25 1.75 9.898438 1.75 7 C 1.75 4.101562 4.101562 1.75 7 1.75 C 8.613281 1.75 10.097656 2.480469 11.082031 3.699219 Z M 11.082031 3.699219 "/>
</g>
</svg>
