<svg xmlns="http://www.w3.org/2000/svg" width="24" height="24" viewBox="0 0 24 24">
  <g fill="none" fill-rule="evenodd">
    <rect width="24" height="24"/>
    <path fill="currentColor" d="M11,0 C14.883,0 18.1555,2.85107143 18.6318,6.56464286 C20.5799,7.02428571 22,8.7375 22,10.7142857 C22,13.0778571 20.0266,15 17.6,15 L17.6,15 L4.95,15 C2.2209,15 0,12.8367857 0,10.1785714 C0,8.03785714 1.4806,6.14357143 3.5673,5.55214286 C4.4616,2.31535714 7.5339,0 11,0 Z M11.001,5 C10.936,5 10.871,5.014 10.81,5.038 C10.748,5.063 10.693,5.1 10.647,5.147 L7.647,8.146 C7.452,8.341 7.452,8.658 7.647,8.853 C7.842,9.048 8.159,9.049 8.355,8.854 L10.501,6.707 L10.501,11.5 C10.501,11.776 10.725,12 11.001,12 C11.277,12 11.501,11.776 11.501,11.5 L11.501,6.707 L13.647,8.853 C13.842,9.048 14.159,9.048 14.354,8.853 C14.549,8.658 14.549,8.341 14.354,8.146 L11.354,5.147 C11.308,5.1 11.252,5.063 11.191,5.038 C11.131,5.014 11.066,5 11.001,5 Z" transform="translate(1 4)"/>
  </g>
</svg>
