<svg width="24" height="24" viewBox="0 0 24 24" fill="none" xmlns="http://www.w3.org/2000/svg">
  <path d="M8.95306 17.9847C8.72738 19.1334 7.71489 20 6.5 20H4.5C4.22386 20 4 19.7762 4 19.5V17.5C4 16.2851 4.86658 15.2726 6.01533 15.047L6.02715 14.7042C6.04714 14.1245 6.10683 13.5557 6.20353 13H2.5C2.14627 13 1.90439 12.6428 2.03577 12.3143L4.03577 7.31432C4.1117 7.12449 4.29555 7.00001 4.5 7.00001H9C9.02539 7.00001 9.05033 7.00191 9.0747 7.00556C11.4291 4.32148 14.9247 2.67698 18.7713 2.80962C19.382 2.83068 19.9902 2.89711 20.5911 3.00837C20.7946 3.04608 20.9539 3.20537 20.9916 3.40897C21.8122 7.83991 20.1523 12.1558 16.9947 14.9271C16.9982 14.9509 17 14.9753 17 15V19.5C17 19.7045 16.8755 19.8883 16.6857 19.9643L11.6857 21.9643C11.3573 22.0956 11 21.8537 11 21.5V17.795C10.4368 17.8937 9.8674 17.9532 9.29586 17.9729L8.95306 17.9847ZM7.9875 17.6946L6.30541 16.0125C5.56891 16.1079 5 16.7375 5 17.5V19H6.5C7.26249 19 7.89209 18.4311 7.9875 17.6946ZM12 17.577V20.7615L16 19.1615V15.7132C14.8179 16.5521 13.4714 17.1926 12 17.577ZM6.42079 12C6.80203 10.5415 7.44258 9.19146 8.28873 8.00001H4.83852L3.23852 12H6.42079ZM8.69992 16.9928L9.2614 16.9735C9.82253 16.9541 10.3814 16.8931 10.9335 16.7908C16.9702 15.6729 20.9957 9.95999 20.0665 3.93365C19.6262 3.86601 19.1822 3.82438 18.7368 3.80902C12.485 3.59344 7.24214 8.48679 7.02656 14.7386L7.0072 15.3001L8.69992 16.9928ZM14 13C12.3432 13 11 11.6569 11 10C11 8.34316 12.3432 7.00001 14 7.00001C15.6569 7.00001 17 8.34316 17 10C17 11.6569 15.6569 13 14 13ZM14 12C15.1046 12 16 11.1046 16 10C16 8.89544 15.1046 8.00001 14 8.00001C12.8954 8.00001 12 8.89544 12 10C12 11.1046 12.8954 12 14 12Z" fill="#171755"/>
</svg>
