<svg xmlns="http://www.w3.org/2000/svg" width="24" height="24" viewBox="0 0 24 24">
  <g fill="none" fill-rule="evenodd">
    <rect width="24" height="24"/>
    <path fill="currentColor" d="M19,3 C19.6903559,3 20.25,3.55964406 20.25,4.25 L20.25,4.25 L20.25,7.25 C20.25,7.94035594 19.6903559,8.5 19,8.5 L19,8.5 L12.75,8.5 L12.75,10.748 L18.25,10.748 C19.268347,10.748 20.1568347,11.3063802 20.2431376,12.1178195 L20.25,12.248 L20.250365,14.7934111 C21.5302434,15.0286854 22.5,16.1500933 22.5,17.498 C22.5,19.0167831 21.2687831,20.248 19.75,20.248 C18.2312169,20.248 17,19.0167831 17,17.498 C17,16.1497395 17.9702658,15.0280967 19.2506429,14.793226 L19.25,12.248 C19.25,12.0433328 18.9012091,11.7937499 18.3925477,11.7535741 L18.25,11.748 L12.75,11.748 L12.750365,14.7934111 C13.9768311,15.0188669 14.9185196,16.0580387 14.9949812,17.3304777 L15,17.498 C15,19.0167831 13.7687831,20.248 12.25,20.248 C10.7312169,20.248 9.5,19.0167831 9.5,17.498 C9.5,16.1497395 10.4702658,15.0280967 11.7506429,14.793226 L11.75,11.748 L6.25,11.748 C5.71383247,11.748 5.32036097,11.9805273 5.25850577,12.1912591 L5.25,12.248 L5.25036495,14.7934111 C6.53024337,15.0286854 7.5,16.1500933 7.5,17.498 C7.5,19.0167831 6.26878306,20.248 4.75,20.248 C3.23121694,20.248 2,19.0167831 2,17.498 C2,16.1497395 2.97026575,15.0280967 4.25064289,14.793226 L4.25,12.248 C4.25,11.4107687 5.08757034,10.8105269 6.09038555,10.7525958 L6.25,10.748 L11.75,10.748 L11.75,8.5 L5.5,8.5 C4.80964406,8.5 4.25,7.94035594 4.25,7.25 L4.25,7.25 L4.25,4.25 C4.25,3.55964406 4.80964406,3 5.5,3 L5.5,3 Z M4.75,15.748 C3.78350169,15.748 3,16.5315017 3,17.498 C3,18.4644983 3.78350169,19.248 4.75,19.248 C5.71649831,19.248 6.5,18.4644983 6.5,17.498 C6.5,16.5315017 5.71649831,15.748 4.75,15.748 Z M12.25,15.748 C11.2835017,15.748 10.5,16.5315017 10.5,17.498 C10.5,18.4644983 11.2835017,19.248 12.25,19.248 C13.2164983,19.248 14,18.4644983 14,17.498 C14,16.5315017 13.2164983,15.748 12.25,15.748 Z M19.75,15.748 C18.7835017,15.748 18,16.5315017 18,17.498 C18,18.4644983 18.7835017,19.248 19.75,19.248 C20.7164983,19.248 21.5,18.4644983 21.5,17.498 C21.5,16.5315017 20.7164983,15.748 19.75,15.748 Z M19,4 L5.5,4 C5.36192881,4 5.25,4.11192881 5.25,4.25 L5.25,4.25 L5.25,7.25 C5.25,7.38807119 5.36192881,7.5 5.5,7.5 L5.5,7.5 L19,7.5 C19.1380712,7.5 19.25,7.38807119 19.25,7.25 L19.25,7.25 L19.25,4.25 C19.25,4.11192881 19.1380712,4 19,4 L19,4 Z"/>
  </g>
</svg>
