<svg xmlns="http://www.w3.org/2000/svg" width="24" height="24" viewBox="0 0 24 24">
  <g fill="none" fill-rule="evenodd">
    <polygon points="0 0 24 0 24 24 0 24"/>
    <path fill="#6D7C88" d="M10,4 C13.3137085,4 16,6.6862915 16,10 C16,11.4770479 15.4662797,12.8294388 14.5811745,13.8748373 L19.3535534,18.6464466 C19.5488155,18.8417088 19.5488155,19.1582912 19.3535534,19.3535534 C19.179987,19.5271197 18.9105626,19.5464049 18.7156945,19.4114088 L18.6464466,19.3535534 L13.8748373,14.5811745 C12.8294388,15.4662797 11.4770479,16 10,16 C6.6862915,16 4,13.3137085 4,10 C4,6.6862915 6.6862915,4 10,4 Z M10,5 C7.23857625,5 5,7.23857625 5,10 C5,12.7614237 7.23857625,15 10,15 C12.7614237,15 15,12.7614237 15,10 C15,7.23857625 12.7614237,5 10,5 Z"/>
  </g>
</svg>
