<svg xmlns="http://www.w3.org/2000/svg" width="24" height="24" viewBox="0 0 24 24">
  <g fill="none" fill-rule="evenodd">
    <polygon points="0 0 24 0 24 24 0 24"/>
    <path fill="currentColor" d="M21.4667854,3.0018472 C21.6075394,2.98952859 21.7340018,3.0397499 21.8287804,3.12479436 L21.8676961,3.16313637 C21.8691861,3.16471487 21.8706661,3.16630318 21.8721362,3.16790121 C21.8782,3.17547458 21.8842976,3.18278316 21.8901952,3.19024985 C21.9314928,3.23900652 21.9628486,3.29656501 21.9815283,3.3602193 L21.9838053,3.37184855 C22.011152,3.46648518 22.0114866,3.56912999 21.9767577,3.6669518 L18.6400716,19.1551812 C18.5500209,19.5650953 18.2602496,19.9032314 17.8677808,20.0599145 C17.4781607,20.2154604 17.0357584,20.1729416 16.6820952,19.9445817 L16.6820952,19.9445817 L12.555,17.256 L10.5944454,20.5415005 C10.3766758,20.9054457 9.94141413,21.0798199 9.53060251,20.9714382 C9.15409359,20.8721063 8.87922274,20.5565792 8.8317095,20.1781585 L8.82440198,20.0628988 L8.824,14.936 L1.80721318,13.0305978 C1.39634295,12.915915 1.09103678,12.5793622 1.01718231,12.1690269 L1.0020954,12.0438609 C0.973110568,11.5770988 1.24706607,11.1455697 1.68485663,10.9649635 L1.68485663,10.9649635 L21.2957234,3.04516832 C21.3489712,3.02066128 21.4041338,3.00690978 21.4590814,3.00268594 Z M9.824,15.477 L9.82400868,19.881262 L11.716,16.709 L9.824,15.477 Z M20.683,4.92 L16.268,8.927 L10.1400087,14.489262 L17.2262473,19.1055976 C17.2859223,19.1441288 17.358243,19.1592784 17.4282835,19.1494303 L17.4282835,19.1494303 L17.4970111,19.1311897 C17.5833115,19.0967364 17.6448371,19.0249418 17.6629273,18.9426139 L17.6629273,18.9426139 L20.683,4.92 Z M19.0900087,5.01526198 L2.06275625,11.8908024 C2.02124985,11.9079269 1.99786756,11.9447582 2.00001704,11.9818826 C2.00252729,12.0197969 2.03141211,12.0549526 2.07269973,12.0664895 L2.07269973,12.0664895 L9.19100868,13.999262 L19.0900087,5.01526198 Z"/>
  </g>
</svg>
