<svg width="20" height="18" viewBox="0 0 20 18" fill="none" xmlns="http://www.w3.org/2000/svg">
<path fill-rule="evenodd" clip-rule="evenodd" d="M2.5 0H17.5C18.878 0 20 1.121 20 2.5V12.5C20 13.879 18.878 15 17.5 15H15V17.5C15 17.677 14.907 17.84 14.755 17.93C14.677 17.977 14.588 18 14.5 18C14.417 18 14.335 17.979 14.261 17.938C14.261 17.938 9.651 15.423 8.873 15H2.5C1.122 15 0 13.879 0 12.5V2.5C0 1.121 1.122 0 2.5 0ZM1 12.5C1 13.327 1.673 14 2.5 14H9C9.122 14 9.128 14 14 16.657V14.5C14 14.224 14.224 14 14.5 14H17.5C18.327 14 19 13.327 19 12.5V2.5C19 1.673 18.327 1 17.5 1H2.5C1.673 1 1 1.673 1 2.5V12.5ZM15.5 4H4.5C4.224 4 4 4.224 4 4.5C4 4.776 4.224 5 4.5 5H15.5C15.776 5 16 4.776 16 4.5C16 4.224 15.776 4 15.5 4ZM15.5 7H4.5C4.224 7 4 7.224 4 7.5C4 7.776 4.224 8 4.5 8H15.5C15.776 8 16 7.776 16 7.5C16 7.224 15.776 7 15.5 7ZM4.5 10H15.5C15.776 10 16 10.224 16 10.5C16 10.776 15.776 11 15.5 11H4.5C4.224 11 4 10.776 4 10.5C4 10.224 4.224 10 4.5 10Z" fill="#6D7C88"/>
</svg>
