<svg xmlns="http://www.w3.org/2000/svg" width="24" height="24" viewBox="0 0 24 24">
  <g fill="none" fill-rule="evenodd">
    <polygon points="0 0 24 0 24 24 0 24"/>
    <path fill="currentColor" d="M9.9499909,13 C9.7183558,14.1411202 8.709479,15 7.5,15 C6.29052104,15 5.28164422,14.1411202 5.05000906,13 L0.5,13 C0.22385763,13 0,12.7761424 0,12.5 C0,12.2238576 0.22385763,12 0.5,12 L5.05000906,12 C5.28164422,10.8588798 6.29052104,10 7.5,10 C8.709479,10 9.7183558,10.8588798 9.9499909,12 L17.5,12 C17.7761424,12 18,12.2238576 18,12.5 C18,12.7761424 17.7761424,13 17.5,13 L9.9499909,13 Z M15.9499909,8 C15.7183558,9.1411202 14.709479,10 13.5,10 C12.290521,10 11.2816442,9.1411202 11.0500091,8 L0.5,8 C0.22385763,8 0,7.7761424 0,7.5 C0,7.2238576 0.22385763,7 0.5,7 L11.0500091,7 C11.2816442,5.85887984 12.290521,5 13.5,5 C14.709479,5 15.7183558,5.85887984 15.9499909,7 L17.5,7 C17.7761424,7 18,7.2238576 18,7.5 C18,7.7761424 17.7761424,8 17.5,8 L15.9499909,8 L15.9499909,8 Z M6.94999094,3 C6.71835578,4.14112016 5.70947896,5 4.5,5 C3.29052104,5 2.28164422,4.14112016 2.05000906,3 L0.5,3 C0.22385763,3 0,2.77614237 0,2.5 C0,2.22385763 0.22385763,2 0.5,2 L2.05000906,2 C2.28164422,0.85887984 3.29052104,0 4.5,0 C5.70947896,0 6.71835578,0.85887984 6.94999094,2 L17.5,2 C17.7761424,2 18,2.22385763 18,2.5 C18,2.77614237 17.7761424,3 17.5,3 L6.94999094,3 L6.94999094,3 Z M4.5,4 C5.32842712,4 6,3.32842712 6,2.5 C6,1.67157288 5.32842712,1 4.5,1 C3.67157288,1 3,1.67157288 3,2.5 C3,3.32842712 3.67157288,4 4.5,4 Z M13.5,9 C14.3284271,9 15,8.3284271 15,7.5 C15,6.6715729 14.3284271,6 13.5,6 C12.6715729,6 12,6.6715729 12,7.5 C12,8.3284271 12.6715729,9 13.5,9 Z M7.5,14 C8.3284271,14 9,13.3284271 9,12.5 C9,11.6715729 8.3284271,11 7.5,11 C6.67157288,11 6,11.6715729 6,12.5 C6,13.3284271 6.67157288,14 7.5,14 Z" transform="translate(3 5)"/>
  </g>
</svg>
