<svg xmlns="http://www.w3.org/2000/svg" width="24" height="24" viewBox="0 0 24 24">
  <g fill="none" fill-rule="evenodd">
    <rect width="24" height="24"/>
    <path fill="currentColor" d="M20,11 C20.2454599,11 20.4496084,11.1768752 20.4919443,11.4101244 L20.5,11.5 L20.5,17.5 C20.5,18.8254834 19.4684641,19.9100387 18.1643757,19.9946823 L18,20 L6,20 C4.6745166,20 3.58996133,18.9684641 3.50531768,17.6643757 L3.5,17.5 L3.5,11.5 C3.5,11.2238576 3.72385763,11 4,11 C4.24545989,11 4.44960837,11.1768752 4.49194433,11.4101244 L4.5,11.5 L4.5,17.5 C4.5,18.2796961 5.09488808,18.9204487 5.85553999,18.9931334 L6,19 L18,19 C18.7796961,19 19.4204487,18.4051119 19.4931334,17.64446 L19.5,17.5 L19.5,11.5 C19.5,11.2238576 19.7238576,11 20,11 Z M11.80925,3.5375 C11.93125,3.4875 12.06925,3.4875 12.19125,3.5375 C12.25225,3.5625 12.30825,3.5995 12.35425,3.6465 L12.35425,3.6465 L15.35425,6.6455 C15.54925,6.8405 15.54925,7.1575 15.35425,7.3525 C15.25625,7.4495 15.12825,7.4985 15.00025,7.4985 C14.87225,7.4985 14.74425,7.4495 14.64625,7.3515 L14.64625,7.3515 L12.50025,5.2055 L12.50025,13.4985 C12.50025,13.7745 12.27625,13.9985 12.00025,13.9985 C11.72425,13.9985 11.50025,13.7745 11.50025,13.4985 L11.50025,13.4985 L11.50025,5.2055 L9.35425,7.3525 C9.15825,7.5475 8.84125,7.5475 8.64625,7.3525 C8.45125,7.1575 8.45125,6.8405 8.64625,6.6455 L8.64625,6.6455 L11.64625,3.6465 C11.69225,3.5995 11.74725,3.5625 11.80925,3.5375 Z"/>
  </g>
</svg>
