<svg width="16" height="17" viewBox="0 0 16 17" fill="none" xmlns="http://www.w3.org/2000/svg">
  <path d="M3.36156 10.4232C3.36156 11.3483 2.60586 12.104 1.68078 12.104C0.755699 12.104 0 11.3483 0 10.4232C0 9.49813 0.755699 8.74243 1.68078 8.74243H3.36156V10.4232Z" fill="#E01E5A"/>
  <path d="M4.2085 10.4232C4.2085 9.49813 4.9642 8.74243 5.88928 8.74243C6.81436 8.74243 7.57005 9.49813 7.57005 10.4232V14.6317C7.57005 15.5568 6.81436 16.3125 5.88928 16.3125C4.9642 16.3125 4.2085 15.5568 4.2085 14.6317V10.4232Z" fill="#E01E5A"/>
  <path d="M5.88928 3.67406C4.9642 3.67406 4.2085 2.91836 4.2085 1.99328C4.2085 1.0682 4.9642 0.3125 5.88928 0.3125C6.81436 0.3125 7.57005 1.0682 7.57005 1.99328V3.67406H5.88928Z" fill="#36C5F0"/>
  <path d="M5.88924 4.52094C6.81432 4.52094 7.57002 5.27663 7.57002 6.20171C7.57002 7.12679 6.81432 7.88249 5.88924 7.88249H1.68078C0.7557 7.88249 0 7.12679 0 6.20171C0 5.27663 0.7557 4.52094 1.68078 4.52094H5.88924Z" fill="#36C5F0"/>
  <path d="M12.6385 6.20171C12.6385 5.27663 13.3942 4.52094 14.3192 4.52094C15.2443 4.52094 16 5.27663 16 6.20171C16 7.12679 15.2443 7.88249 14.3192 7.88249H12.6385V6.20171Z" fill="#2EB67D"/>
  <path d="M11.7915 6.20174C11.7915 7.12682 11.0358 7.88252 10.1107 7.88252C9.1856 7.88252 8.4299 7.12682 8.4299 6.20174V1.99328C8.4299 1.0682 9.1856 0.3125 10.1107 0.3125C11.0358 0.3125 11.7915 1.0682 11.7915 1.99328V6.20174Z" fill="#2EB67D"/>
  <path d="M10.1107 12.9509C11.0358 12.9509 11.7915 13.7066 11.7915 14.6317C11.7915 15.5568 11.0358 16.3125 10.1107 16.3125C9.18563 16.3125 8.42993 15.5568 8.42993 14.6317V12.9509H10.1107Z" fill="#ECB22E"/>
  <path d="M10.1107 12.104C9.1856 12.104 8.4299 11.3483 8.4299 10.4232C8.4299 9.49813 9.1856 8.74243 10.1107 8.74243H14.3191C15.2442 8.74243 15.9999 9.49813 15.9999 10.4232C15.9999 11.3483 15.2442 12.104 14.3191 12.104H10.1107Z" fill="#ECB22E"/>
</svg>
