<svg width="18" height="18" viewBox="0 0 18 18" fill="none" xmlns="http://www.w3.org/2000/svg">
<path d="M14.7273 17.1818C14.7273 17.6337 14.361 18 13.9091 18C13.4572 18 13.0909 17.6337 13.0909 17.1818C13.0909 16.7299 13.4572 16.3636 13.9091 16.3636C14.361 16.3636 14.7273 16.7299 14.7273 17.1818Z" fill="#5D5FEF"/>
<path d="M18 13.9091C18 14.361 17.6337 14.7273 17.1818 14.7273C16.7299 14.7273 16.3636 14.361 16.3636 13.9091C16.3636 13.4572 16.7299 13.0909 17.1818 13.0909C17.6337 13.0909 18 13.4572 18 13.9091Z" fill="#5D5FEF"/>
<path d="M1.63636 4.09091C1.63636 4.54278 1.27005 4.90909 0.818182 4.90909C0.366313 4.90909 0 4.54278 0 4.09091C0 3.63904 0.366313 3.27273 0.818182 3.27273C1.27005 3.27273 1.63636 3.63904 1.63636 4.09091Z" fill="#5D5FEF"/>
<path d="M4.90909 0.818182C4.90909 1.27005 4.54278 1.63636 4.09091 1.63636C3.63904 1.63636 3.27273 1.27005 3.27273 0.818182C3.27273 0.366312 3.63904 0 4.09091 0C4.54278 0 4.90909 0.366312 4.90909 0.818182Z" fill="#5D5FEF"/>
<path fill-rule="evenodd" clip-rule="evenodd" d="M9 4.48602L8.46638 6.68665C8.25308 7.56628 7.56628 8.25308 6.68665 8.46638L4.48602 9L6.68665 9.53362C7.56628 9.74692 8.25308 10.4337 8.46638 11.3133L9 13.514L9.53362 11.3133C9.74692 10.4337 10.4337 9.74692 11.3133 9.53362L13.514 9L11.3133 8.46638C10.4337 8.25308 9.74692 7.56628 9.53362 6.68665L9 4.48602ZM10.0679 3.29446C9.79637 2.17457 8.20363 2.17457 7.93208 3.29446L7.18487 6.3759C7.08792 6.77574 6.77574 7.08792 6.3759 7.18487L3.29446 7.93208C2.17457 8.20363 2.17457 9.79637 3.29446 10.0679L6.3759 10.8151C6.77574 10.9121 7.08792 11.2243 7.18487 11.6241L7.93208 14.7055C8.20363 15.8254 9.79637 15.8254 10.0679 14.7055L10.8151 11.6241C10.9121 11.2243 11.2243 10.9121 11.6241 10.8151L14.7055 10.0679C15.8254 9.79637 15.8254 8.20363 14.7055 7.93208L11.6241 7.18487C11.2243 7.08792 10.9121 6.77574 10.8151 6.3759L10.0679 3.29446Z" fill="#5D5FEF"/>
<path fill-rule="evenodd" clip-rule="evenodd" d="M6.54924 17.4393C6.40703 17.8203 5.98288 18.0139 5.60187 17.8717C3.13388 16.9505 1.15145 15.0383 0.138874 12.6187C-0.0181249 12.2435 0.158727 11.8121 0.533884 11.6551C0.909039 11.4981 1.34044 11.675 1.49743 12.0501C2.35326 14.0952 4.0308 15.7133 6.11685 16.4919C6.49786 16.6341 6.69144 17.0583 6.54924 17.4393Z" fill="#5D5FEF"/>
<path fill-rule="evenodd" clip-rule="evenodd" d="M17.4398 6.56244C17.0589 6.70495 16.6346 6.51169 16.4921 6.13079C15.7074 4.03326 14.0703 2.34877 12.0022 1.49932C11.626 1.34481 11.4463 0.914597 11.6008 0.538409C11.7553 0.162222 12.1855 -0.017483 12.5617 0.137027C15.0076 1.14164 16.9426 3.13198 17.8715 5.61474C18.014 5.99564 17.8207 6.41994 17.4398 6.56244Z" fill="#5D5FEF"/>
</svg>
