<svg xmlns="http://www.w3.org/2000/svg" width="24" height="24" viewBox="0 0 24 24">
  <g fill="none" fill-rule="evenodd">
    <polygon points="0 0 24 0 24 24 0 24"/>
    <path fill="currentColor" d="M1,0.5 C1.27614237,0.5 1.5,0.723857625 1.5,1 L1.5,20.5 L21,20.5 C21.2761424,20.5 21.5,20.7238576 21.5,21 C21.5,21.2761424 21.2761424,21.5 21,21.5 L1,21.5 C0.723857625,21.5 0.5,21.2761424 0.5,21 L0.5,1 C0.5,0.723857625 0.723857625,0.5 1,0.5 Z M19.8781089,6.77189111 C20.0489207,6.81766001 20.18234,6.95107925 20.2281089,7.12189111 C20.2738778,7.29270296 20.225043,7.47495704 20.1,7.6 L13.23,14.48 C13.0321863,14.6717833 12.7178137,14.6717833 12.52,14.48 L9.75,11.71 L5.75,15.71 C5.65637122,15.8165942 5.52186647,15.8783937 5.38,15.88 C5.23796578,15.8851335 5.10023217,15.830765 5,15.73 C4.90165096,15.6340234 4.84619517,15.5024192 4.84619517,15.365 C4.84619517,15.2275808 4.90165096,15.0959766 5,15 L9.38,10.63 C9.47073333,10.5333228 9.59741409,10.4784814 9.73,10.4784814 C9.86258591,10.4784814 9.98926667,10.5333228 10.08,10.63 L12.86,13.4 L19.4,6.9 C19.525043,6.77495704 19.707297,6.72612221 19.8781089,6.77189111 Z" transform="translate(1 1)"/>
  </g>
</svg>
