<svg width="45" height="21" viewBox="0 0 45 21" fill="none" xmlns="http://www.w3.org/2000/svg">
<path fill-rule="evenodd" clip-rule="evenodd" d="M33.7929 0.292893C34.14 -0.0542395 34.6789 -0.0928098 35.0686 0.177182L35.2071 0.292893L44.3738 9.45956C44.7209 9.80669 44.7595 10.3455 44.4895 10.7353L44.3738 10.8738L35.2071 20.0404C34.8166 20.431 34.1834 20.431 33.7929 20.0404C33.4458 19.6933 33.4072 19.1545 33.6772 18.7647L33.7929 18.6262L42.2513 10.166L33.7929 1.70711C33.4458 1.35997 33.4072 0.821125 33.6772 0.431389L33.7929 0.292893ZM9.95956 0.292893C10.3501 -0.0976311 10.9832 -0.0976311 11.3738 0.292893C11.7209 0.640026 11.7595 1.17887 11.4895 1.56861L11.3738 1.70711L2.91333 10.166L11.3738 18.6262C11.7209 18.9734 11.7595 19.5122 11.4895 19.9019L11.3738 20.0404C11.0266 20.3876 10.4878 20.4261 10.0981 20.1562L9.95956 20.0404L0.792893 10.8738C0.445761 10.5266 0.40719 9.98779 0.677182 9.59806L0.792893 9.45956L9.95956 0.292893ZM22.5833 7.33333C21.0185 7.33333 19.75 8.60186 19.75 10.1667C19.75 11.7315 21.0185 13 22.5833 13C24.1481 13 25.4167 11.7315 25.4167 10.1667C25.4167 8.60186 24.1481 7.33333 22.5833 7.33333ZM22.5833 9.33333C23.0436 9.33333 23.4167 9.70643 23.4167 10.1667C23.4167 10.6269 23.0436 11 22.5833 11C22.1231 11 21.75 10.6269 21.75 10.1667C21.75 9.70643 22.1231 9.33333 22.5833 9.33333ZM28.9167 10.1667C28.9167 8.60186 30.1852 7.33333 31.75 7.33333C33.3148 7.33333 34.5833 8.60186 34.5833 10.1667C34.5833 11.7315 33.3148 13 31.75 13C30.1852 13 28.9167 11.7315 28.9167 10.1667ZM32.5833 10.1667C32.5833 9.70643 32.2102 9.33333 31.75 9.33333C31.2898 9.33333 30.9167 9.70643 30.9167 10.1667C30.9167 10.6269 31.2898 11 31.75 11C32.2102 11 32.5833 10.6269 32.5833 10.1667ZM13.4167 7.33333C11.8519 7.33333 10.5833 8.60186 10.5833 10.1667C10.5833 11.7315 11.8519 13 13.4167 13C14.9815 13 16.25 11.7315 16.25 10.1667C16.25 8.60186 14.9815 7.33333 13.4167 7.33333ZM13.4167 9.33333C13.8769 9.33333 14.25 9.70643 14.25 10.1667C14.25 10.6269 13.8769 11 13.4167 11C12.9564 11 12.5833 10.6269 12.5833 10.1667C12.5833 9.70643 12.9564 9.33333 13.4167 9.33333Z" fill="#4E5F6D"/>
</svg>
