<svg xmlns="http://www.w3.org/2000/svg" width="24" height="24" viewBox="0 0 24 24">
  <g fill="none" fill-rule="evenodd">
    <polygon points="0 0 24 0 24 24 0 24"/>
    <path fill="currentColor" d="M16.947125,8.763 C16.368125,8.184 15.701125,7.727 14.982125,7.387 L14.982125,5.357 C14.982125,4.057 14.015125,3 12.825125,3 L11.169125,3 C9.97912502,3 9.01212502,4.057 9.01212502,5.357 L9.01212502,7.387 C8.29312502,7.726 7.62712502,8.183 7.04912502,8.762 C7.04912502,8.762 7.04812502,8.762 7.04712502,8.763 C7.04612502,8.764 7.04612502,8.764 7.04512502,8.765 C4.31812502,11.494 4.31812502,15.935 7.04612502,18.663 C8.36712502,19.985 10.125125,20.713 11.995125,20.713 C11.995125,20.713 11.995125,20.713 11.995125,20.713 C13.865125,20.713 15.623125,19.985 16.945125,18.663 C19.675125,15.934 19.675125,11.493 16.947125,8.763 Z M16.557125,17.567 L14.639125,15.649 C15.051125,15.089 15.283125,14.421 15.282125,13.713 C15.282125,13.005 15.050125,12.338 14.639125,11.779 L16.557125,9.859 C18.437125,12.086 18.436125,15.34 16.557125,17.567 Z M11.997125,7.713 C13.432125,7.713 14.787125,8.216 15.869125,9.134 L13.929125,11.075 C12.797125,10.267 11.194125,10.268 10.065125,11.076 L8.12512502,9.134 C9.20612502,8.216 10.562125,7.713 11.997125,7.713 Z M10.380125,15.33 C9.94812502,14.898 9.71112502,14.324 9.71112502,13.714 C9.71112502,13.104 9.94912502,12.53 10.381125,12.1 C10.812125,11.667 11.386125,11.429 11.997125,11.429 C12.607125,11.429 13.181125,11.667 13.613125,12.099 C13.613125,12.099 13.613125,12.1 13.613125,12.1 C13.613125,12.1 13.614125,12.1 13.614125,12.101 C14.045125,12.532 14.282125,13.104 14.282125,13.714 C14.282125,14.325 14.045125,14.899 13.613125,15.33 C12.749125,16.195 11.244125,16.195 10.380125,15.33 Z M10.012125,5.357 C10.012125,4.609 10.531125,4 11.169125,4 L12.825125,4 C13.463125,4 13.982125,4.609 13.982125,5.357 L13.982125,7 C13.345125,6.813 12.679125,6.713 11.997125,6.713 C11.315125,6.713 10.648125,6.813 10.012125,6.999 L10.012125,5.357 Z M7.43612502,9.86 L9.35312502,11.78 C8.94112502,12.34 8.71012502,13.007 8.71012502,13.714 C8.71012502,14.422 8.94112502,15.09 9.35312502,15.65 L7.43612502,17.567 C5.55712502,15.34 5.55712502,12.086 7.43612502,9.86 Z M11.996125,19.713 C10.561125,19.713 9.20612502,19.21 8.12512502,18.292 L10.061125,16.355 C10.621125,16.767 11.289125,17 11.997125,17 C12.705125,17 13.373125,16.768 13.933125,16.355 L15.869125,18.292 C14.787125,19.211 13.431125,19.713 11.996125,19.713 Z"/>
  </g>
</svg>
