<svg width="24" height="24" viewBox="0 0 24 24" fill="none" xmlns="http://www.w3.org/2000/svg">
<path fill-rule="evenodd" clip-rule="evenodd" d="M12 4.5C15.883 4.5 19.1555 7.35107 19.6318 11.0646C21.5799 11.5243 23 13.2375 23 15.2143C23 17.5083 21.141 19.3866 18.8129 19.495L18.6 19.5H5.95C3.2209 19.5 1 17.3368 1 14.6786C1 12.5379 2.4806 10.6436 4.5673 10.0521C5.4616 6.81536 8.5339 4.5 12 4.5ZM12 5.5C9.07609 5.5 6.46094 7.396 5.60235 10.0796L5.53119 10.3185L5.38134 10.8608L4.83999 11.0142C3.17009 11.4875 2 12.999 2 14.6786C2 16.7129 3.65865 18.392 5.74664 18.495L5.95 18.5H18.6C20.4801 18.5 22 17.0196 22 15.2143C22 13.7828 21.0061 12.5062 19.5893 12.0876L19.4022 12.0379L18.728 11.8789L18.6399 11.1919C18.2263 7.96708 15.3692 5.5 12 5.5Z" fill="#6D7C88"/>
<path d="M17 13.3441H13.707L12.854 12.4901C12.749 12.3831 12.604 12.3401 12.451 12.3451C12.302 12.3611 12.167 12.4411 12.084 12.5661L10.562 14.8491L9.947 13.6191C9.862 13.4511 9.689 13.3441 9.5 13.3441H6C5.724 13.3441 5.5 13.5671 5.5 13.8441C5.5 14.1191 5.724 14.3441 6 14.3441H9.191L10.053 16.0671C10.133 16.2271 10.291 16.3331 10.469 16.3421C10.48 16.3441 10.49 16.3441 10.5 16.3441C10.667 16.3441 10.823 16.2601 10.916 16.1211L12.578 13.6291L13.147 14.1971C13.241 14.2911 13.368 14.3431 13.501 14.3431H17C17.276 14.3431 17.5 14.1181 17.5 13.8431C17.5 13.5661 17.276 13.3441 17 13.3441Z" fill="#6D7C88"/>
</svg>
