<?xml version="1.0" encoding="UTF-8"?>
<svg xmlns="http://www.w3.org/2000/svg" xmlns:xlink="http://www.w3.org/1999/xlink" width="16px" height="16px" viewBox="0 0 16 16" version="1.1">
<g id="surface1">
<path style=" stroke:none;fill-rule:evenodd;fill:rgb(30.588235%,37.254902%,42.745098%);fill-opacity:1;" d="M 5.246094 7.53125 L 2.542969 8.925781 C 2.210938 9.097656 2 9.4375 2 9.8125 L 2 10.335938 C 2 10.886719 2.449219 11.335938 3 11.335938 C 3.183594 11.335938 3.332031 11.484375 3.332031 11.667969 C 3.332031 11.851562 3.183594 12 3 12 C 2.078125 12 1.332031 11.253906 1.332031 10.335938 L 1.332031 9.8125 C 1.332031 9.191406 1.683594 8.617188 2.238281 8.332031 L 4.476562 7.179688 C 3.761719 6.558594 3.332031 5.648438 3.332031 4.667969 C 3.332031 2.828125 4.824219 1.335938 6.667969 1.335938 C 7.785156 1.335938 8.808594 1.886719 9.425781 2.796875 C 9.527344 2.949219 9.488281 3.15625 9.335938 3.257812 C 9.183594 3.363281 8.976562 3.324219 8.875 3.171875 C 8.378906 2.445312 7.5625 2 6.667969 2 C 5.195312 2 4 3.195312 4 4.667969 C 4 5.609375 4.492188 6.464844 5.28125 6.945312 C 5.4375 7.042969 5.488281 7.246094 5.390625 7.402344 C 5.355469 7.460938 5.304688 7.507812 5.246094 7.53125 Z M 7.972656 10.378906 L 5.253906 11.617188 C 4.894531 11.777344 4.667969 12.132812 4.667969 12.527344 L 4.667969 13 C 4.667969 13.554688 5.113281 14 5.667969 14 L 13 14 C 13.550781 14 14 13.554688 14 13 L 14 12.527344 C 14 12.132812 13.769531 11.777344 13.414062 11.617188 L 10.691406 10.378906 C 10.277344 10.5625 9.816406 10.667969 9.332031 10.667969 C 8.847656 10.667969 8.390625 10.5625 7.972656 10.378906 Z M 7.28125 9.960938 C 6.5 9.351562 6 8.402344 6 7.335938 C 6 5.492188 7.492188 4 9.332031 4 C 11.175781 4 12.667969 5.492188 12.667969 7.335938 C 12.667969 8.402344 12.164062 9.351562 11.386719 9.960938 L 13.691406 11.007812 C 14.285156 11.277344 14.667969 11.871094 14.667969 12.527344 L 14.667969 13 C 14.667969 13.921875 13.921875 14.667969 13 14.667969 L 5.667969 14.667969 C 4.746094 14.667969 4 13.921875 4 13 L 4 12.527344 C 4 11.871094 4.382812 11.277344 4.976562 11.007812 Z M 9.332031 10 C 10.804688 10 12 8.808594 12 7.335938 C 12 5.859375 10.804688 4.667969 9.332031 4.667969 C 7.859375 4.667969 6.667969 5.859375 6.667969 7.335938 C 6.667969 8.808594 7.859375 10 9.332031 10 Z M 9.332031 10 "/>
</g>
</svg>
