<svg width="14" height="14" viewBox="0 0 14 14" fill="none" xmlns="http://www.w3.org/2000/svg">
<path fill-rule="evenodd" clip-rule="evenodd" d="M5.62304 1.91915C7.43627 1.44454 9.36449 1.98522 10.6666 3.3334C12.0148 4.6355 12.5555 6.56373 12.0808 8.37696C11.6062 10.1902 10.1902 11.6062 8.37696 12.0808C6.56373 12.5555 4.6355 12.0148 3.3334 10.6666C1.98522 9.36449 1.44454 7.43627 1.91915 5.62304C2.39376 3.80981 3.80981 2.39376 5.62304 1.91915ZM6.41667 9.33333C6.41667 9.6555 6.67783 9.91667 7 9.91667C7.32217 9.91667 7.58333 9.6555 7.58333 9.33333C7.58333 9.01117 7.32217 8.75 7 8.75C6.67783 8.75 6.41667 9.01117 6.41667 9.33333ZM6.41667 7.58333C6.41667 7.9055 6.67783 8.16667 7 8.16667C7.32217 8.16667 7.58333 7.9055 7.58333 7.58333V4.66667C7.58333 4.3445 7.32217 4.08333 7 4.08333C6.67783 4.08333 6.41667 4.3445 6.41667 4.66667V7.58333Z" fill="#2B59C3"/>
</svg>
