<svg width="74" height="74" viewBox="0 0 74 74" fill="none" xmlns="http://www.w3.org/2000/svg">
<path d="M61.6667 46.25V16.9583C61.6667 14.404 59.596 12.3333 57.0417 12.3333H16.9583C14.404 12.3333 12.3333 14.404 12.3333 16.9583V46.25H29.2917C30.1431 46.25 30.8333 46.9402 30.8333 47.7917C30.8333 50.346 32.904 52.4167 35.4583 52.4167H38.5417C41.096 52.4167 43.1667 50.346 43.1667 47.7917C43.1667 46.9402 43.8569 46.25 44.7083 46.25H61.6667ZM61.6667 49.3333H46.0958C45.3816 52.8518 42.2709 55.5 38.5417 55.5H35.4583C31.7291 55.5 28.6184 52.8518 27.9042 49.3333H12.3333V57.0417C12.3333 59.596 14.404 61.6667 16.9583 61.6667H57.0417C59.596 61.6667 61.6667 59.596 61.6667 57.0417V49.3333ZM16.9583 9.25H57.0417C61.2989 9.25 64.75 12.7011 64.75 16.9583V57.0417C64.75 61.2989 61.2989 64.75 57.0417 64.75H16.9583C12.7011 64.75 9.25 61.2989 9.25 57.0417V16.9583C9.25 12.7011 12.7011 9.25 16.9583 9.25Z" fill="#2B59C3"/>
</svg>
