<svg width="24" height="16" viewBox="0 0 24 16" fill="none" xmlns="http://www.w3.org/2000/svg">
<path d="M4.54586 6.10352e-05H10.3396C11.1484 6.10352e-05 11.6514 0.725726 11.4627 1.61897L8.76533 14.3675C8.57497 15.2577 7.76522 15.984 6.9559 15.984H1.16269C0.35506 15.984 -0.149091 15.2577 0.0395775 14.3675L2.73812 1.61897C2.92679 0.725726 3.73612 6.10352e-05 4.54586 6.10352e-05" fill="#DD2423"/>
<path d="M9.85751 6.10352e-05H16.5202C17.3288 6.10352e-05 16.9642 0.725726 16.774 1.61897L14.077 14.3675C13.8877 15.2577 13.9468 15.984 13.1365 15.984H6.47377C5.66346 15.984 5.16199 15.2577 5.35236 14.3675L8.04921 1.61897C8.2407 0.725726 9.04833 6.10352e-05 9.85751 6.10352e-05" fill="#16315E"/>
<path d="M16.2562 6.10352e-05H22.0499C22.8598 6.10352e-05 23.3628 0.725726 23.1726 1.61897L20.4756 14.3675C20.2853 15.2577 19.475 15.984 18.6652 15.984H12.8741C12.0638 15.984 11.5612 15.2577 11.751 14.3675L14.4484 1.61897C14.6371 0.725726 15.4459 6.10352e-05 16.2562 6.10352e-05" fill="#036862"/>
<path d="M6.05887 4.08562C5.46307 4.0923 5.28711 4.08562 5.2309 4.07101C5.2093 4.18402 4.80725 6.22562 4.80612 6.22733C4.71955 6.64037 4.65657 6.9348 4.44262 7.12492C4.32117 7.23545 4.17939 7.28877 4.01501 7.28877C3.75079 7.28877 3.59686 7.14436 3.57102 6.87044L3.56608 6.77639C3.56608 6.77639 3.64657 6.22313 3.64657 6.22002C3.64657 6.22002 4.06853 4.35953 4.14409 4.1136C4.14804 4.09961 4.14917 4.0923 4.15016 4.08562C3.32883 4.09355 3.18323 4.08562 3.17321 4.07101C3.1677 4.09106 3.14737 4.20641 3.14737 4.20641L2.71651 6.30334L2.67951 6.48118L2.60791 7.0629C2.60791 7.23545 2.6387 7.37629 2.69998 7.49537C2.89628 7.87297 3.45621 7.92956 3.77296 7.92956C4.18109 7.92956 4.56393 7.83411 4.82264 7.65984C5.27172 7.36774 5.38921 6.91117 5.49399 6.50543L5.54257 6.29728C5.54257 6.29728 5.97724 4.36497 6.0511 4.1136C6.05393 4.09961 6.05506 4.0923 6.05887 4.08562V4.08562ZM7.53781 5.64443C7.43302 5.64443 7.24153 5.67241 7.06953 5.76522C7.00711 5.80051 6.94808 5.84124 6.8858 5.88181L6.94201 5.65842L6.91122 5.6208C6.54645 5.7021 6.46483 5.71299 6.12788 5.76522L6.09964 5.78589C6.06052 6.14298 6.02578 6.41145 5.88075 7.11333C5.82553 7.372 5.7682 7.63317 5.71072 7.89122L5.72626 7.92403C6.07154 7.90397 6.17632 7.90397 6.47641 7.90941L6.5007 7.88034C6.53883 7.66535 6.54377 7.61498 6.62822 7.17955C6.6679 6.97311 6.75066 6.51949 6.79147 6.35797C6.86646 6.31973 6.94045 6.28211 7.01106 6.28211C7.17925 6.28211 7.15878 6.44363 7.15228 6.50798C7.14508 6.61603 7.08379 6.96891 7.02095 7.27189L6.97901 7.46745C6.94977 7.61187 6.91772 7.75225 6.88848 7.89542L6.90119 7.92403C7.24153 7.90397 7.34533 7.90397 7.63595 7.90941L7.67013 7.88034C7.72266 7.54456 7.73806 7.45471 7.83126 6.9658L7.87815 6.74117C7.96923 6.30154 8.01499 6.07862 7.94607 5.89705C7.8732 5.69355 7.69837 5.64443 7.53781 5.64443V5.64443ZM9.18995 6.10472C9.00905 6.14296 8.89368 6.16845 8.77901 6.18493C8.66533 6.20499 8.55447 6.22317 8.37964 6.24991L8.3658 6.26375L8.35309 6.27479C8.33487 6.41812 8.32216 6.54201 8.29802 6.68767C8.27754 6.83831 8.24605 7.00947 8.19479 7.2554C8.1551 7.44365 8.13463 7.50926 8.11203 7.57548C8.09 7.6417 8.06571 7.70606 8.02109 7.89121L8.03154 7.90831L8.04029 7.92401C8.20368 7.91546 8.31058 7.9094 8.42045 7.90831C8.53018 7.90396 8.64386 7.90831 8.81982 7.9094L8.83521 7.89556L8.85173 7.88033C8.87715 7.71337 8.88097 7.66844 8.8965 7.58698C8.91189 7.49962 8.93844 7.37867 9.00354 7.05564C9.03433 6.90391 9.06865 6.75266 9.10056 6.59782C9.13375 6.44361 9.16849 6.29173 9.20153 6.14001L9.19659 6.12166L9.18995 6.10472ZM9.19381 5.48411C9.02943 5.37731 8.74092 5.4112 8.54674 5.55873C8.35313 5.7033 8.3311 5.9085 8.49492 6.0167C8.65647 6.12054 8.94611 6.08961 9.13859 5.94084C9.33178 5.79316 9.35593 5.58982 9.19381 5.48411V5.48411ZM10.1879 7.95748C10.5205 7.95748 10.8614 7.85659 11.118 7.55718C11.3154 7.31436 11.4059 6.95308 11.4373 6.80431C11.5394 6.31121 11.4599 6.08098 11.36 5.94076C11.2084 5.72701 10.9403 5.65845 10.6623 5.65845C10.4951 5.65845 10.0968 5.67664 9.78573 5.99237C9.56232 6.22011 9.45909 6.52916 9.39681 6.82545C9.33397 7.12735 9.26166 7.67082 9.71568 7.87307C9.85577 7.93929 10.0577 7.95748 10.1879 7.95748V7.95748ZM10.1619 6.848C10.2386 6.47459 10.3291 6.16119 10.5602 6.16119C10.7412 6.16119 10.7543 6.39438 10.6738 6.76902C10.6594 6.85219 10.5934 7.16139 10.504 7.29306C10.4415 7.39022 10.3677 7.44914 10.2861 7.44914C10.2618 7.44914 10.1173 7.44914 10.115 7.213C10.1139 7.09641 10.1355 6.97733 10.1619 6.848ZM12.2686 7.90946L12.2946 7.88039C12.3315 7.66539 12.3375 7.61487 12.4192 7.1796C12.46 6.97315 12.5444 6.51953 12.5841 6.35802C12.6592 6.31962 12.732 6.282 12.8048 6.282C12.9719 6.282 12.9516 6.44352 12.9449 6.50788C12.9389 6.61607 12.8776 6.9688 12.8136 7.27178L12.7739 7.46734C12.7435 7.61192 12.7105 7.75214 12.6813 7.89547L12.694 7.92407C13.0354 7.90402 13.1353 7.90402 13.4276 7.90946L13.4629 7.88039C13.5142 7.54445 13.528 7.4546 13.624 6.96585L13.6698 6.74106C13.7613 6.30143 13.8076 6.07866 13.7398 5.89709C13.6649 5.6936 13.4889 5.64448 13.3306 5.64448C13.2257 5.64448 13.0332 5.6723 12.8622 5.76527C12.801 5.80055 12.7397 5.84113 12.6796 5.88186L12.732 5.65847L12.7039 5.62069C12.3392 5.70215 12.2559 5.71303 11.9194 5.76527L11.8936 5.78594C11.8527 6.14302 11.8196 6.41134 11.6745 7.11337C11.6193 7.37205 11.562 7.63322 11.5046 7.89127L11.52 7.92407C11.8659 7.90402 11.9691 7.90402 12.2686 7.90946V7.90946ZM14.7774 7.92399C14.7989 7.80865 14.9264 7.12495 14.9276 7.12495C14.9276 7.12495 15.0362 6.6233 15.0428 6.60511C15.0428 6.60511 15.077 6.55288 15.1111 6.5322H15.1614C15.6358 6.5322 16.1714 6.5322 16.5913 6.19222C16.8769 5.95904 17.0723 5.61471 17.1594 5.19622C17.182 5.09362 17.1986 4.97159 17.1986 4.84956C17.1986 4.68928 17.1694 4.53072 17.085 4.40682C16.8709 4.0771 16.4445 4.07104 15.9524 4.06855C15.9508 4.06855 15.7098 4.07104 15.7098 4.07104C15.0798 4.07959 14.8272 4.0771 14.7234 4.06311C14.7146 4.11363 14.6981 4.20349 14.6981 4.20349C14.6981 4.20349 14.4724 5.35479 14.4724 5.35665C14.4724 5.35665 13.9324 7.80445 13.907 7.9198C14.457 7.91249 14.6826 7.91249 14.7774 7.92399V7.92399ZM15.1956 5.87883C15.1956 5.87883 15.4355 4.72986 15.4344 4.73421L15.4422 4.67529L15.4456 4.63037L15.5414 4.64125C15.5414 4.64125 16.0363 4.68804 16.0479 4.68928C16.2432 4.77245 16.3237 4.98682 16.2674 5.26664C16.2162 5.52237 16.0655 5.73736 15.8719 5.84121C15.7125 5.92919 15.5172 5.9365 15.3159 5.9365H15.1857L15.1956 5.87883ZM16.6895 6.86928C16.6261 7.16682 16.5532 7.71029 17.0049 7.90399C17.149 7.97145 17.2781 7.99151 17.4093 7.9842C17.5478 7.97596 17.6762 7.89948 17.7951 7.78942C17.7843 7.83465 17.7736 7.87989 17.7629 7.92528L17.7833 7.95435C18.1083 7.93928 18.2091 7.93928 18.5612 7.94223L18.5931 7.91549C18.6445 7.58282 18.6929 7.25978 18.8265 6.62335C18.8916 6.3185 18.9566 6.01661 19.0234 5.713L19.0129 5.67958C18.6494 5.75373 18.5523 5.76959 18.2026 5.82415L18.1761 5.84794C18.1725 5.87887 18.1689 5.90856 18.1655 5.93826C18.1111 5.84156 18.0323 5.75902 17.9107 5.70756C17.7552 5.64025 17.39 5.72699 17.0761 6.04163C16.8555 6.26627 16.7496 6.57407 16.6895 6.86928V6.86928ZM17.4529 6.88747C17.5307 6.52075 17.6201 6.21046 17.8517 6.21046C17.9981 6.21046 18.0752 6.35923 18.0596 6.61293C18.0471 6.6762 18.0337 6.74289 18.0178 6.81829C17.9946 6.92726 17.9695 7.0353 17.945 7.1435C17.9202 7.2175 17.8912 7.2873 17.8595 7.33378C17.7999 7.42674 17.6581 7.48441 17.5765 7.48441C17.5533 7.48441 17.4104 7.48441 17.4054 7.25247C17.4043 7.13697 17.4259 7.01805 17.4529 6.88747ZM21.4396 5.67661L21.4115 5.64132C21.0518 5.72154 20.9867 5.73428 20.6562 5.78341L20.6319 5.81015C20.6308 5.8145 20.6298 5.82118 20.6281 5.82725L20.627 5.82118C20.381 6.44596 20.3882 6.31118 20.1879 6.80304C20.1868 6.78065 20.1868 6.76666 20.1857 6.74288L20.1355 5.67661L20.1041 5.64132C19.7273 5.72154 19.7184 5.73428 19.3704 5.78341L19.3433 5.81015C19.3395 5.82289 19.3395 5.83688 19.3372 5.85212L19.3395 5.85756C19.383 6.10225 19.3725 6.04768 19.4162 6.43383C19.4365 6.62333 19.4636 6.81392 19.484 7.00109C19.5183 7.31433 19.5375 7.46854 19.5794 7.94657C19.3444 8.37345 19.2888 8.53496 19.0626 8.90961L19.0641 8.91334L18.9048 9.19067C18.8866 9.2199 18.8701 9.23995 18.8469 9.2485C18.8215 9.26234 18.7885 9.26483 18.7426 9.26483H18.6543L18.5231 9.74518L18.9732 9.75373C19.2374 9.75249 19.4035 9.61647 19.4929 9.43365L19.7759 8.89982H19.7713L19.8011 8.8622C19.9915 8.41107 21.4396 5.67661 21.4396 5.67661V5.67661ZM16.6894 11.9854H16.4985L17.2052 9.41243H17.4396L17.514 9.14738L17.5212 9.44212C17.5125 9.62432 17.6427 9.78583 17.9847 9.7591H18.3803L18.5164 9.26366H18.3675C18.282 9.26366 18.2423 9.23987 18.2472 9.18889L18.24 8.88901H17.5075V8.89057C17.2707 8.89601 16.5635 8.9156 16.4203 8.95757C16.247 9.00669 16.0644 9.15127 16.0644 9.15127L16.1362 8.8859H15.451L15.3082 9.41243L14.5921 12.0247H14.4531L14.3168 12.5166H15.6816L15.6358 12.6806H16.3083L16.3529 12.5166H16.5416L16.6894 11.9854ZM16.1295 9.93523C16.0198 9.96865 15.8156 10.07 15.8156 10.07L15.9972 9.41243H16.5416L16.4103 9.89154C16.4103 9.89154 16.2421 9.90242 16.1295 9.93523ZM16.14 10.8746C16.14 10.8746 15.969 10.8983 15.8564 10.9263C15.7455 10.9633 15.5377 11.0798 15.5377 11.0798L15.7252 10.3955H16.2724L16.14 10.8746ZM15.8349 11.9914H15.2888L15.4472 11.4139H15.9915L15.8349 11.9914ZM17.15 10.3955H17.9372L17.8241 10.7988H17.0265L16.9067 11.2396H17.6046L17.0762 12.0587C17.0392 12.1189 17.006 12.1402 16.9691 12.1571C16.9321 12.1778 16.8836 12.2021 16.8274 12.2021H16.6338L16.5007 12.6849H17.0071C17.2704 12.6849 17.4258 12.5531 17.5407 12.3801L17.903 11.8341L17.9808 12.3885C17.9974 12.4923 18.0651 12.5531 18.111 12.5767C18.1617 12.6047 18.2141 12.6527 18.2881 12.6599C18.3675 12.6636 18.4248 12.6666 18.463 12.6666H18.7118L18.8612 12.1262H18.763C18.7067 12.1262 18.6097 12.1158 18.5932 12.0964C18.5766 12.0727 18.5766 12.0364 18.5677 11.981L18.4888 11.4254H18.1656L18.3073 11.2396H19.1034L19.2258 10.7988H18.4888L18.6036 10.3955H19.3384L19.4746 9.89823H17.2841L17.15 10.3955ZM10.5017 12.1037L10.6855 11.4309H11.4406L11.5785 10.9305H10.8227L10.9381 10.5164H11.6767L11.8135 10.0318H9.96552L9.83151 10.5164H10.2514L10.1394 10.9305H9.71839L9.57887 11.4395H9.99857L9.7537 12.3296C9.72065 12.4474 9.76923 12.4924 9.80002 12.5471C9.83151 12.6004 9.86342 12.6357 9.93516 12.6557C10.0092 12.6739 10.0599 12.6848 10.1288 12.6848H10.98L11.1317 12.1305L10.7544 12.1875C10.6815 12.1875 10.4797 12.1779 10.5017 12.1037V12.1037ZM10.5883 8.88287L10.397 9.26358C10.356 9.34675 10.3192 9.39836 10.286 9.42215C10.2568 9.4422 10.1989 9.45059 10.115 9.45059H10.0151L9.88168 9.93764H10.2133C10.3727 9.93764 10.4951 9.87328 10.5536 9.8411C10.6164 9.8041 10.633 9.82524 10.6815 9.77363L10.7935 9.66683H11.8289L11.9664 9.15974H11.2084L11.3408 8.88287H10.5883ZM12.1169 12.1135C12.0993 12.0855 12.112 12.0362 12.139 11.9336L12.422 10.9025H13.4287C13.5755 10.9002 13.6814 10.8983 13.7503 10.8929C13.8243 10.8843 13.9048 10.8552 13.9925 10.803C14.083 10.7483 14.1293 10.6906 14.1684 10.6244C14.2121 10.5583 14.2821 10.4137 14.3423 10.1908L14.698 8.88593L13.6533 8.89262C13.6533 8.89262 13.3316 8.94485 13.1899 9.00253C13.047 9.06688 12.8428 9.24659 12.8428 9.24659L12.9371 8.88889H12.2918L11.3883 12.1875C11.3562 12.3156 11.3347 12.4085 11.3298 12.4644C11.3281 12.5245 11.3987 12.5841 11.4445 12.629C11.4986 12.6739 11.5785 12.6666 11.6552 12.6739C11.7358 12.6806 11.8505 12.6848 12.0088 12.6848H12.5047L12.657 12.1189L12.213 12.1651C12.1655 12.1651 12.1312 12.1371 12.1169 12.1135ZM12.6046 10.2061H13.662L13.5948 10.438C13.5853 10.4434 13.5627 10.4265 13.4551 10.4405H12.5395L12.6046 10.2061ZM12.8164 9.42816H13.8827L13.8061 9.70751C13.8061 9.70751 13.3035 9.70207 13.223 9.7184C12.8688 9.78586 12.6619 9.99417 12.6619 9.99417L12.8164 9.42816ZM13.6185 11.2147C13.6097 11.2494 13.5959 11.2705 13.5765 11.2864C13.5551 11.3016 13.5203 11.307 13.4685 11.307H13.3178L13.3267 11.0246H12.7L12.6746 12.4055C12.6736 12.5051 12.6823 12.5628 12.7486 12.609C12.8148 12.6667 13.0189 12.674 13.2935 12.674H13.6863L13.828 12.1571L13.4861 12.1777L13.3725 12.1851C13.3569 12.1777 13.3421 12.1711 13.3256 12.1529C13.3112 12.1372 13.2869 12.1468 13.2908 12.0472L13.2935 11.6932L13.6521 11.6769C13.8457 11.6769 13.9284 11.6075 13.9991 11.5415C14.0664 11.4782 14.0884 11.4054 14.1139 11.307L14.174 10.9936H13.6813L13.6185 11.2147Z" fill="#FEFEFE"/>
</svg>
