<svg xmlns="http://www.w3.org/2000/svg" width="24" height="24" viewBox="0 0 24 24">
  <g fill="none" fill-rule="evenodd">
    <polygon points="0 0 24 0 24 24 0 24"/>
    <path fill="#6D7C88" d="M14.328,11.332 C15.624,10.541 16.5,9.127 16.5,7.5 C16.5,5.019 14.481,3 12,3 C9.519,3 7.5,5.019 7.5,7.5 C7.5,9.127 8.376,10.541 9.672,11.332 C6.115,12.348 3.5,15.621 3.5,19.5 L3.5,20 L20.5,20 L20.5,19.5 C20.5,15.621 17.885,12.348 14.328,11.332 Z M8.5,7.5 C8.5,5.57 10.07,4 12,4 C13.93,4 15.5,5.57 15.5,7.5 C15.5,9.43 13.93,11 12,11 C10.07,11 8.5,9.43 8.5,7.5 Z M4.517,19 C4.775,15.097 8.033,12 12,12 C15.967,12 19.225,15.097 19.483,19 L4.517,19 Z"/>
  </g>
</svg>
