<svg width="24" height="24" viewBox="0 0 24 24" fill="none" xmlns="http://www.w3.org/2000/svg">
  <path fill="currentColor" d="M12 21C7.02944 21 3 16.9706 3 12C3 7.02944 7.02944 3 12 3C16.9706 3 21 7.02944 21 12C21 16.9706 16.9706 21 12 21ZM12 20.1C16.4735 20.1 20.1 16.4735 20.1 12C20.1 7.52649 16.4735 3.9 12 3.9C7.52649 3.9 3.9 7.52649 3.9 12C3.9 16.4735 7.52649 20.1 12 20.1ZM8.4 9.13618C8.4 8.83809 8.48225 8.54578 8.63768 8.29143C9.10423 7.528 10.1013 7.28732 10.8647 7.75386L15.8023 10.7713C15.9973 10.8904 16.1611 11.0542 16.2802 11.2491C16.6949 11.9277 16.4809 12.814 15.8023 13.2287L10.8647 16.2461C10.6104 16.4016 10.3181 16.4838 10.02 16.4838C9.1253 16.4838 8.4 15.7585 8.4 14.8638V9.13618ZM9.3 9.13618V14.8638C9.3 15.2615 9.62235 15.5838 10.02 15.5838C10.1525 15.5838 10.2824 15.5473 10.3954 15.4782L15.333 12.4608C15.5875 12.3053 15.6677 11.9729 15.5122 11.7184C15.4675 11.6453 15.4061 11.5839 15.333 11.5392L10.3954 8.52181C10.0561 8.31446 9.61299 8.42143 9.40564 8.76073C9.33655 8.87378 9.3 9.00369 9.3 9.13618Z" />
</svg>
