<svg xmlns="http://www.w3.org/2000/svg" width="24" height="24" viewBox="0 0 24 24" fill="none">
<path fill-rule="evenodd" clip-rule="evenodd" d="M9.81408 15.9118C9.94908 16.0926 9.92979 16.3427 9.75623 16.5037C9.56097 16.6849 9.24438 16.6849 9.04912 16.5037L5.25612 12.9837L5.15318 12.878C4.67278 12.3313 4.70709 11.525 5.25607 11.0153L9.04912 7.49528L9.11837 7.44159C9.31324 7.31631 9.58266 7.33421 9.75623 7.49528C9.95149 7.67649 9.95149 7.97029 9.75623 8.15149L5.96323 11.6715L5.90541 11.7357C5.7705 11.9165 5.78978 12.1665 5.96328 12.3276L9.75623 15.8475L9.81408 15.9118ZM14.1857 15.9118C14.0508 16.0926 14.07 16.3427 14.2436 16.5037C14.4389 16.6849 14.7554 16.6849 14.9507 16.5037L18.7437 12.9837L18.8467 12.878C19.327 12.3313 19.2927 11.525 18.7438 11.0153L14.9507 7.49528L14.8815 7.44159C14.6866 7.31631 14.4172 7.33421 14.2436 7.49528C14.0483 7.67649 14.0483 7.97029 14.2436 8.15149L18.0366 11.6715L18.0944 11.7357C18.2293 11.9165 18.2101 12.1665 18.0366 12.3276L14.2436 15.8475L14.1857 15.9118Z" fill="#2B59C3"/>
</svg>
