<svg xmlns="http://www.w3.org/2000/svg" width="20" height="20" viewBox="0 0 20 20" fill="none">
<path d="M9.98115 2.5C10.7491 2.5 11.4607 2.88674 11.8755 3.5201L11.9544 3.65002L18.0173 14.114C18.4335 14.8105 18.439 15.6755 18.0316 16.3771C17.6498 17.0349 16.9607 17.4532 16.2038 17.4964L16.0516 17.5H3.91071C3.10157 17.4944 2.35715 17.0599 1.95904 16.3608C1.58748 15.7084 1.57055 14.9183 1.90547 14.2543L1.98263 14.114L8.00788 3.65002C8.40693 2.94003 9.16196 2.5 9.98115 2.5Z" fill="#FFA400"/>
<path fill-rule="evenodd" clip-rule="evenodd" d="M10 15C9.53976 15 9.16667 14.6269 9.16667 14.1667C9.16667 13.7064 9.53976 13.3333 10 13.3333C10.4602 13.3333 10.8333 13.7064 10.8333 14.1667C10.8333 14.6269 10.4602 15 10 15ZM10 12.5C9.53976 12.5 9.16667 12.1269 9.16667 11.6667V7.5C9.16667 7.03976 9.53976 6.66667 10 6.66667C10.4602 6.66667 10.8333 7.03976 10.8333 7.5V11.6667C10.8333 12.1269 10.4602 12.5 10 12.5Z" fill="#FFEEC8"/>
</svg>
