<svg width="339" height="254" viewBox="0 0 339 254" fill="none" xmlns="http://www.w3.org/2000/svg">
  <g opacity="0.07">
    <g style="mix-blend-mode:multiply">
      <path d="M313.159 166.729C313.159 209.969 280.113 245.49 237.898 249.415C235.335 249.654 111.627 249.776 109.002 249.776C63.1365 249.776 25.9551 212.594 25.9551 166.729C25.9551 120.863 63.1365 83.6816 109.002 83.6816C111.627 83.6816 235.335 83.8035 237.898 84.0418C280.113 87.9668 313.159 123.488 313.159 166.729Z" fill="url(#paint0_linear_223_2440)"/>
    </g>
    <circle cx="95.1612" cy="166.371" r="83.047" fill="url(#paint1_linear_223_2440)"/>
    <circle cx="166.962" cy="83.3224" r="83.047" fill="url(#paint2_linear_223_2440)"/>
    <circle cx="243.953" cy="166.371" r="83.047" fill="url(#paint3_linear_223_2440)"/>
  </g>
  <g style="mix-blend-mode:multiply">
    <path fill-rule="evenodd" clip-rule="evenodd" d="M279 77.0352C289.031 77.0352 297.485 84.044 298.715 93.1732C303.748 94.3032 307.416 98.5148 307.416 103.374C307.416 109.014 302.614 113.631 296.6 113.898L296.05 113.91H263.371C256.32 113.91 250.583 108.592 250.583 102.057C250.583 96.7949 254.408 92.1381 259.799 90.6842C262.109 82.7271 270.046 77.0352 279 77.0352ZM278.999 79.4932C271.446 79.4932 264.69 84.1542 262.472 90.7515L262.288 91.3386L261.901 92.6719L260.503 93.0491C256.189 94.2126 253.166 97.9283 253.166 102.057C253.166 107.058 257.451 111.186 262.845 111.439L263.37 111.452H296.049C300.906 111.452 304.833 107.812 304.833 103.374C304.833 99.8551 302.265 96.7169 298.605 95.6877L298.122 95.5656L296.38 95.1746L296.153 93.4857C295.084 85.5581 287.703 79.4932 278.999 79.4932Z" fill="#D7DEE4"/>
  </g>
  <g style="mix-blend-mode:multiply">
    <path fill-rule="evenodd" clip-rule="evenodd" d="M119.438 48C129.452 48 137.891 54.9858 139.119 64.0849C144.143 65.2111 147.805 69.4089 147.805 74.2525C147.805 79.8735 143.011 84.4755 137.007 84.7414L136.458 84.7535H103.837C96.7994 84.7535 91.0723 79.4531 91.0723 72.9399C91.0723 67.6946 94.8904 63.0532 100.271 61.604C102.578 53.6732 110.5 48 119.438 48ZM119.438 50.4499C111.898 50.4499 105.154 55.0956 102.94 61.6712L102.757 62.2563L102.37 63.5852L100.974 63.9611C96.6682 65.1208 93.6508 68.8243 93.6508 72.9396C93.6508 77.9242 97.928 82.0384 103.312 82.2907L103.837 82.303H136.458C141.306 82.303 145.226 78.6756 145.226 74.2522C145.226 70.7448 142.663 67.6169 139.009 66.5911L138.527 66.4694L136.788 66.0797L136.561 64.3963C135.494 56.4949 128.127 50.4499 119.438 50.4499Z" fill="#D7DEE4"/>
  </g>
  <g style="mix-blend-mode:multiply">
    <path fill-rule="evenodd" clip-rule="evenodd" d="M172.5 165.848C182.369 165.848 190.687 172.738 191.897 181.712C196.849 182.823 200.458 186.963 200.458 191.741C200.458 197.284 195.733 201.823 189.816 202.086L189.275 202.098H157.123C150.186 202.098 144.542 196.87 144.542 190.446C144.542 185.272 148.305 180.695 153.608 179.265C155.881 171.443 163.69 165.848 172.5 165.848ZM172.5 168.264C165.068 168.264 158.421 172.846 156.239 179.332L156.058 179.909L155.677 181.219L154.301 181.59C150.057 182.734 147.083 186.387 147.083 190.446C147.083 195.362 151.299 199.42 156.606 199.669L157.123 199.681H189.275C194.053 199.681 197.916 196.103 197.916 191.74C197.916 188.281 195.39 185.196 191.789 184.184L191.313 184.064L189.6 183.68L189.376 182.019C188.325 174.226 181.063 168.264 172.5 168.264Z" fill="#D7DEE4"/>
  </g>
  <g style="mix-blend-mode:multiply">
    <path fill-rule="evenodd" clip-rule="evenodd" d="M30.9997 115.035C41.0308 115.035 49.4847 122.044 50.7152 131.173C55.7478 132.303 59.4163 136.515 59.4163 141.374C59.4163 147.014 54.6139 151.631 48.5997 151.898L48.0497 151.91H15.3705C8.32033 151.91 2.58301 146.592 2.58301 140.057C2.58301 134.795 6.40789 130.138 11.7985 128.684C14.1088 120.727 22.0456 115.035 30.9997 115.035ZM30.9995 117.493C23.4461 117.493 16.6902 122.154 14.4722 128.752L14.2884 129.339L13.9013 130.672L12.5028 131.049C8.1889 132.213 5.16616 135.928 5.16616 140.057C5.16616 145.058 9.45099 149.186 14.845 149.439L15.3703 149.452H48.0495C52.9065 149.452 56.8328 145.812 56.8328 141.374C56.8328 137.855 54.2653 134.717 50.6052 133.688L50.1217 133.566L48.3803 133.175L48.1526 131.486C47.0841 123.558 39.7033 117.493 30.9995 117.493Z" fill="#D7DEE4"/>
  </g>
  <g style="mix-blend-mode:multiply">
    <path fill-rule="evenodd" clip-rule="evenodd" d="M11.8755 164.86C11.8796 160.614 19.7587 157.598 29.3781 157.598C38.9997 157.598 46.8803 160.616 46.8807 164.863V164.863V174.354C46.8807 174.354 46.8807 174.354 46.8807 174.354V183.846C46.8807 188.093 38.9994 191.112 29.3781 191.112C19.9572 191.112 12.2046 188.218 11.8857 184.11L11.8755 183.846V174.354C11.8755 174.354 11.8755 174.354 11.8755 174.354V164.863V164.863V164.86ZM13.8338 177.793V183.846C13.8338 186.588 20.7492 189.237 29.3781 189.237C37.8109 189.237 44.6071 186.707 44.9117 184.033L44.9224 183.846V177.794C42.0006 180.14 36.1166 181.619 29.3781 181.619C22.6403 181.619 16.7558 180.139 13.8338 177.793ZM44.9224 174.354V174.354V168.303C42.0005 170.649 36.1162 172.129 29.3781 172.129C22.6399 172.129 16.7557 170.649 13.8338 168.303V174.354C13.8338 177.096 20.7492 179.744 29.3781 179.744C37.8121 179.744 44.6072 177.216 44.9117 174.541L44.9224 174.354ZM29.3785 159.473C37.9843 159.473 44.8849 162.107 44.9226 164.841L44.9224 164.863V164.9C44.8608 167.63 37.9693 170.254 29.3785 170.254C20.7491 170.254 13.8342 167.606 13.8342 164.864C13.8342 162.121 20.7491 159.473 29.3785 159.473Z" fill="#D7DEE4"/>
  </g>
  <g style="mix-blend-mode:multiply">
    <path fill-rule="evenodd" clip-rule="evenodd" d="M256.875 127.86C256.879 123.614 264.758 120.598 274.378 120.598C283.999 120.598 291.88 123.616 291.88 127.863V127.863V137.354C291.88 137.354 291.88 137.354 291.88 137.354V146.846C291.88 151.093 283.999 154.112 274.378 154.112C264.957 154.112 257.204 151.218 256.885 147.11L256.875 146.846V137.354C256.875 137.354 256.875 137.354 256.875 137.354V127.863V127.863V127.86ZM258.833 140.793V146.846C258.833 149.588 265.749 152.237 274.378 152.237C282.81 152.237 289.607 149.707 289.911 147.033L289.922 146.846V140.794C287 143.14 281.116 144.619 274.378 144.619C267.64 144.619 261.755 143.139 258.833 140.793ZM289.922 137.354V137.354V131.303C287 133.649 281.116 135.129 274.378 135.129C267.639 135.129 261.755 133.649 258.833 131.303V137.354C258.833 140.096 265.749 142.744 274.378 142.744C282.812 142.744 289.607 140.216 289.911 137.541L289.922 137.354ZM274.378 122.473C282.984 122.473 289.885 125.107 289.922 127.841L289.922 127.863V127.9C289.861 130.63 282.969 133.254 274.378 133.254C265.749 133.254 258.834 130.606 258.834 127.864C258.834 125.121 265.749 122.473 274.378 122.473Z" fill="#D7DEE4"/>
  </g>
  <g style="mix-blend-mode:multiply">
    <path fill-rule="evenodd" clip-rule="evenodd" d="M297.875 127.86C297.879 123.614 305.758 120.598 315.378 120.598C324.999 120.598 332.88 123.616 332.88 127.863V127.863V137.354C332.88 137.354 332.88 137.354 332.88 137.354V146.846C332.88 151.093 324.999 154.112 315.378 154.112C305.957 154.112 298.204 151.218 297.885 147.11L297.875 146.846V137.354C297.875 137.354 297.875 137.354 297.875 137.354V127.863V127.863V127.86ZM299.833 140.793V146.846C299.833 149.588 306.749 152.237 315.378 152.237C323.81 152.237 330.607 149.707 330.911 147.033L330.922 146.846V140.794C328 143.14 322.116 144.619 315.378 144.619C308.64 144.619 302.755 143.139 299.833 140.793ZM330.922 137.354V137.354V131.303C328 133.649 322.116 135.129 315.378 135.129C308.639 135.129 302.755 133.649 299.833 131.303V137.354C299.833 140.096 306.749 142.744 315.378 142.744C323.812 142.744 330.607 140.216 330.911 137.541L330.922 137.354ZM315.378 122.473C323.984 122.473 330.885 125.107 330.922 127.841L330.922 127.863V127.9C330.861 130.63 323.969 133.254 315.378 133.254C306.749 133.254 299.834 130.606 299.834 127.864C299.834 125.121 306.749 122.473 315.378 122.473Z" fill="#D7DEE4"/>
  </g>
  <g style="mix-blend-mode:multiply">
    <path fill-rule="evenodd" clip-rule="evenodd" d="M201.958 219.226C201.958 214.997 209.865 211.992 219.519 211.992C229.17 211.992 237.076 214.996 237.079 219.224L237.079 219.224V228.674C237.079 228.674 237.079 228.675 237.079 228.675V238.126C237.079 242.355 229.171 245.36 219.519 245.36C210.067 245.36 202.289 242.479 201.969 238.389L201.959 238.126V228.675C201.959 228.675 201.959 228.674 201.959 228.674L201.959 228.674V219.233L201.958 219.226ZM203.923 232.098V238.126C203.923 240.856 210.861 243.493 219.519 243.493C227.979 243.493 234.798 240.975 235.103 238.312L235.114 238.126V232.099C232.182 234.434 226.279 235.908 219.519 235.908C212.759 235.908 206.855 234.434 203.923 232.098ZM235.114 219.224L235.114 219.203C235.075 216.481 228.152 213.859 219.519 213.859C210.861 213.859 203.924 216.496 203.924 219.227C203.924 221.957 210.861 224.594 219.519 224.594C228.138 224.594 235.052 221.98 235.114 219.263V219.224ZM235.114 228.674V222.651C232.182 224.987 226.279 226.46 219.519 226.46C212.758 226.46 206.855 224.987 203.923 222.651V228.674C203.923 231.404 210.861 234.041 219.519 234.041C227.98 234.041 234.798 231.523 235.103 228.86L235.114 228.674Z" fill="#D7DEE4"/>
  </g>
  <g style="mix-blend-mode:multiply">
    <path fill-rule="evenodd" clip-rule="evenodd" d="M121.404 230.073V224.049C124.335 226.385 130.239 227.859 136.999 227.859C143.759 227.859 149.663 226.385 152.594 224.049V230.073L152.584 230.259C152.278 232.923 145.461 235.44 136.999 235.44C128.342 235.44 121.404 232.803 121.404 230.073ZM152.594 220.604C152.594 220.602 152.595 220.6 152.595 220.598C152.549 217.877 145.629 215.258 137 215.258C128.342 215.258 121.404 217.894 121.404 220.625C121.404 223.355 128.342 225.992 137 225.992C145.611 225.992 152.52 223.384 152.594 220.669V220.624C152.594 220.617 152.594 220.611 152.594 220.604ZM154.559 230.073V220.66L154.559 220.625C154.559 216.396 146.653 213.391 136.999 213.391C127.363 213.391 119.467 216.385 119.439 220.602L119.439 220.624V230.073L119.439 230.073C119.439 230.074 119.439 230.074 119.439 230.074V239.525L119.449 239.788C119.769 243.878 127.547 246.759 136.999 246.759C146.652 246.759 154.559 243.754 154.559 239.525V230.074C154.559 230.074 154.559 230.073 154.559 230.073ZM152.594 233.498C149.663 235.834 143.76 237.307 136.999 237.307C130.239 237.307 124.335 235.833 121.404 233.497V239.525C121.404 242.255 128.342 244.892 136.999 244.892C145.459 244.892 152.278 242.374 152.584 239.711L152.594 239.525V233.498Z" fill="#D7DEE4"/>
  </g>
  <g style="mix-blend-mode:multiply">
    <path fill-rule="evenodd" clip-rule="evenodd" d="M162.664 230.073V224.049C165.596 226.385 171.499 227.859 178.26 227.859C185.02 227.859 190.924 226.385 193.855 224.049V230.073L193.844 230.259C193.539 232.923 186.721 235.44 178.26 235.44C169.603 235.44 162.664 232.803 162.664 230.073ZM193.855 220.624L193.855 220.602C193.816 217.88 186.893 215.258 178.26 215.258C169.602 215.258 162.665 217.894 162.665 220.625C162.665 223.355 169.602 225.992 178.26 225.992C186.879 225.992 193.792 223.379 193.855 220.662V220.624ZM195.82 230.073V220.632L195.82 220.625C195.82 216.396 187.913 213.391 178.26 213.391C168.611 213.391 160.708 216.392 160.7 220.618L160.7 220.624V230.073L160.7 230.073C160.7 230.074 160.7 230.074 160.7 230.074V239.525L160.71 239.788C161.03 243.878 168.808 246.759 178.26 246.759C187.913 246.759 195.82 243.754 195.82 239.525V230.074C195.82 230.074 195.82 230.073 195.82 230.073ZM193.855 233.498C190.924 235.834 185.02 237.307 178.26 237.307C171.5 237.307 165.596 235.833 162.664 233.497V239.525C162.664 242.255 169.603 244.892 178.26 244.892C186.72 244.892 193.539 242.374 193.844 239.711L193.855 239.525V233.498Z" fill="#D7DEE4"/>
  </g>
  <g style="mix-blend-mode:multiply" opacity="0.5">
    <path d="M147.143 80.9648C170.678 87.6998 186.542 115.208 178.671 160.996" stroke="#B7C3CB" stroke-width="2" stroke-dasharray="4 4"/>
    <path d="M255.744 113.281C232.332 106.17 202.864 120.308 182.064 162.283" stroke="#B7C3CB" stroke-width="2" stroke-dasharray="4 4"/>
    <path d="M61.2305 141.982C82.5972 115.846 149.202 72.1157 244.69 106.279" stroke="#B7C3CB" stroke-width="2" stroke-dasharray="4 4"/>
    <path d="M61.9697 145.484C81.1261 135.45 129.754 124.202 171.014 159.485" stroke="#B7C3CB" stroke-width="2" stroke-dasharray="4 4"/>
    <path d="M151.857 71.9767C172.732 68.4764 220.083 68.6164 242.481 97.1791" stroke="#B7C3CB" stroke-width="2" stroke-dasharray="4 4"/>
    <path d="M206.377 192.387C217.674 188.42 242.185 174.745 249.847 151.783" stroke="#B7C3CB" stroke-width="2" stroke-dasharray="4 4"/>
    <path d="M90.7024 85.2773C75.9667 109.78 64.6202 163.825 137.12 183.987" stroke="#B7C3CB" stroke-width="2" stroke-dasharray="4 4"/>
    <path d="M60.4946 151.783C61.477 163.451 77.7354 187.627 134.91 190.987" stroke="#B7C3CB" stroke-width="2" stroke-dasharray="4 4"/>
  </g>
  <defs>
    <linearGradient id="paint0_linear_223_2440" x1="506.07" y1="154.258" x2="334.786" y2="154.258" gradientUnits="userSpaceOnUse">
      <stop stop-color="#E9AFFF"/>
      <stop offset="1" stop-color="#4387FF"/>
    </linearGradient>
    <linearGradient id="paint1_linear_223_2440" x1="178.208" y1="154.26" x2="6.92382" y2="154.26" gradientUnits="userSpaceOnUse">
      <stop stop-color="#437AFF"/>
      <stop offset="1" stop-color="#3FCAFF"/>
    </linearGradient>
    <linearGradient id="paint2_linear_223_2440" x1="250.009" y1="71.2113" x2="78.7246" y2="71.2113" gradientUnits="userSpaceOnUse">
      <stop stop-color="#D3FFA7"/>
      <stop offset="1" stop-color="#34FFFF"/>
    </linearGradient>
    <linearGradient id="paint3_linear_223_2440" x1="327" y1="154.26" x2="155.716" y2="154.26" gradientUnits="userSpaceOnUse">
      <stop stop-color="#E9AFFF"/>
      <stop offset="1" stop-color="#3FCAFF"/>
    </linearGradient>
  </defs>
</svg>
