<svg width="244" height="149" viewBox="0 0 244 149" fill="none" xmlns="http://www.w3.org/2000/svg">
<g clip-path="url(#clip0)">
<path d="M135.808 140C204.624 140 225.276 102.474 227 83.7113C227 38.6804 165.298 25.6357 134.447 24.7423C126.934 20.4536 123.831 10 92.7983 10C44.6164 10 34 55.0309 34 75.134C34 95.2371 49.7884 140 135.808 140Z" fill="#F2F6FF"/>
<path fill-rule="evenodd" clip-rule="evenodd" d="M197 22.875C203.795 22.875 209.522 27.8644 210.356 34.3631C213.765 35.1675 216.25 38.1656 216.25 41.625C216.25 45.6396 212.997 48.9265 208.923 49.1163L208.55 49.125H186.412C181.637 49.125 177.75 45.3394 177.75 40.6875C177.75 36.9413 180.341 33.6262 183.993 32.5912C185.558 26.9269 190.934 22.875 197 22.875ZM197 24.6251C191.883 24.6251 187.307 27.943 185.804 32.6394L185.68 33.0574L185.417 34.0065L184.47 34.275C181.548 35.1032 179.5 37.7484 179.5 40.6876C179.5 44.2476 182.403 47.1861 186.057 47.3663L186.413 47.375H208.55C211.84 47.375 214.5 44.7843 214.5 41.6251C214.5 39.12 212.761 36.886 210.281 36.1534L209.954 36.0664L208.774 35.7881L208.62 34.5858C207.896 28.9424 202.896 24.6251 197 24.6251Z" fill="#8DABF0"/>
<path fill-rule="evenodd" clip-rule="evenodd" d="M89 1.875C95.7952 1.875 101.522 6.86438 102.356 13.3631C105.765 14.1675 108.25 17.1656 108.25 20.625C108.25 24.6396 104.997 27.9265 100.923 28.1163L100.55 28.125H78.4125C73.6366 28.125 69.75 24.3394 69.75 19.6875C69.75 15.9413 72.3411 12.6262 75.9928 11.5912C77.5578 5.92687 82.9343 1.875 89 1.875ZM89.0001 3.62505C83.8832 3.62505 79.3067 6.94305 77.8042 11.6394L77.6796 12.0574L77.4174 13.0065L76.47 13.275C73.5477 14.1032 71.5001 16.7484 71.5001 19.6876C71.5001 23.2476 74.4027 26.1861 78.0567 26.3663L78.4126 26.375H100.55C103.84 26.375 106.5 23.7843 106.5 20.6251C106.5 18.12 104.761 15.886 102.281 15.1534L101.954 15.0664L100.774 14.7881L100.62 13.5858C99.8961 7.94245 94.8961 3.62505 89.0001 3.62505Z" fill="#8DABF0"/>
<path fill-rule="evenodd" clip-rule="evenodd" d="M125 85.875C131.795 85.875 137.522 90.8644 138.356 97.3631C141.765 98.1675 144.25 101.166 144.25 104.625C144.25 108.64 140.997 111.926 136.923 112.116L136.55 112.125H114.412C109.637 112.125 105.75 108.339 105.75 103.688C105.75 99.9413 108.341 96.6262 111.993 95.5912C113.558 89.9269 118.934 85.875 125 85.875ZM125 87.6251C119.883 87.6251 115.307 90.943 113.804 95.6394L113.68 96.0574L113.417 97.0065L112.47 97.275C109.548 98.1032 107.5 100.748 107.5 103.688C107.5 107.248 110.403 110.186 114.057 110.366L114.413 110.375H136.55C139.84 110.375 142.5 107.784 142.5 104.625C142.5 102.12 140.761 99.886 138.281 99.1534L137.954 99.0664L136.774 98.7881L136.62 97.5858C135.896 91.9424 130.896 87.6251 125 87.6251Z" fill="#8DABF0"/>
<path fill-rule="evenodd" clip-rule="evenodd" d="M29 49.875C35.7952 49.875 41.5221 54.8644 42.3556 61.3631C45.7648 62.1675 48.25 65.1656 48.25 68.625C48.25 72.6396 44.9967 75.9265 40.9226 76.1163L40.55 76.125H18.4125C13.6366 76.125 9.75 72.3394 9.75 67.6875C9.75 63.9413 12.3411 60.6262 15.9928 59.5912C17.5578 53.9269 22.9343 49.875 29 49.875ZM29.0001 51.6251C23.8832 51.6251 19.3067 54.943 17.8042 59.6394L17.6796 60.0574L17.4174 61.0065L16.47 61.275C13.5477 62.1032 11.5001 64.7484 11.5001 67.6876C11.5001 71.2476 14.4027 74.1861 18.0567 74.3663L18.4126 74.375H40.5501C43.8403 74.375 46.5001 71.7843 46.5001 68.6251C46.5001 66.12 44.7608 63.886 42.2813 63.1534L41.9538 63.0664L40.7741 62.7881L40.6199 61.5858C39.8961 55.9424 34.8961 51.6251 29.0001 51.6251Z" fill="#8DABF0"/>
<path fill-rule="evenodd" clip-rule="evenodd" d="M16 85.1667C16 82.1462 21.3656 80 27.9167 80C34.4677 80 39.8333 82.1462 39.8333 85.1667V91.9156V91.9157V98.6656C39.8333 101.686 34.4673 103.832 27.9167 103.832C21.5025 103.832 16.2241 101.774 16.0069 98.8532L16 98.6656V91.9157V91.9156V85.1667ZM17.3333 91.9156V91.9157C17.3333 93.8656 22.0417 95.749 27.9167 95.749C33.659 95.749 38.2854 93.9508 38.4927 92.0485L38.5 91.9157V91.9156V87.6126C36.5107 89.2808 32.5043 90.3333 27.9167 90.3333C23.329 90.3333 19.3227 89.2808 17.3333 87.6126V91.9156ZM38.5 94.3618C36.5107 96.03 32.5046 97.0823 27.9167 97.0823C23.3292 97.0823 19.3227 96.0297 17.3333 94.3614V98.6656C17.3333 100.616 22.0417 102.499 27.9167 102.499C33.6581 102.499 38.2854 100.7 38.4927 98.7984L38.5 98.6656V94.3618ZM27.9167 81.3333C33.792 81.3333 38.5 83.2165 38.5 85.1667C38.5 87.1168 33.792 89 27.9167 89C22.0413 89 17.3333 87.1168 17.3333 85.1667C17.3333 83.2165 22.0413 81.3333 27.9167 81.3333Z" fill="#2B59C3"/>
<path fill-rule="evenodd" clip-rule="evenodd" d="M182 59.1667C182 56.1462 187.366 54 193.917 54C200.468 54 205.833 56.1462 205.833 59.1667V65.9156V65.9157V72.6656C205.833 75.6858 200.467 77.8323 193.917 77.8323C187.502 77.8323 182.224 75.7743 182.007 72.8532L182 72.6656V65.9157V65.9156V59.1667ZM183.333 65.9156V65.9157C183.333 67.8656 188.042 69.749 193.917 69.749C199.659 69.749 204.285 67.9508 204.493 66.0485L204.5 65.9157V65.9156V61.6126C202.511 63.2808 198.504 64.3333 193.917 64.3333C189.329 64.3333 185.323 63.2808 183.333 61.6126V65.9156ZM204.5 68.3618C202.511 70.03 198.505 71.0823 193.917 71.0823C189.329 71.0823 185.323 70.0297 183.333 68.3614V72.6656C183.333 74.6155 188.042 76.4989 193.917 76.4989C199.658 76.4989 204.285 74.7002 204.493 72.7984L204.5 72.6656V68.3618ZM193.917 55.3333C199.792 55.3333 204.5 57.2165 204.5 59.1667C204.5 61.1168 199.792 63 193.917 63C188.041 63 183.333 61.1168 183.333 59.1667C183.333 57.2165 188.041 55.3333 193.917 55.3333Z" fill="#2B59C3"/>
<path fill-rule="evenodd" clip-rule="evenodd" d="M210 59.1667C210 56.1462 215.366 54 221.917 54C228.468 54 233.833 56.1462 233.833 59.1667V65.9156V65.9157V72.6656C233.833 75.6858 228.467 77.8323 221.917 77.8323C215.502 77.8323 210.224 75.7743 210.007 72.8532L210 72.6656V65.9157V65.9156V59.1667ZM211.333 65.9156V65.9157C211.333 67.8656 216.042 69.749 221.917 69.749C227.659 69.749 232.285 67.9508 232.493 66.0485L232.5 65.9157V65.9156V61.6126C230.511 63.2808 226.504 64.3333 221.917 64.3333C217.329 64.3333 213.323 63.2808 211.333 61.6126V65.9156ZM232.5 68.3618C230.511 70.03 226.505 71.0823 221.917 71.0823C217.329 71.0823 213.323 70.0297 211.333 68.3614V72.6656C211.333 74.6155 216.042 76.4989 221.917 76.4989C227.658 76.4989 232.285 74.7002 232.493 72.7984L232.5 72.6656V68.3618ZM221.917 55.3333C227.792 55.3333 232.5 57.2165 232.5 59.1667C232.5 61.1168 227.792 63 221.917 63C216.041 63 211.333 61.1168 211.333 59.1667C211.333 57.2165 216.041 55.3333 221.917 55.3333Z" fill="#2B59C3"/>
<path fill-rule="evenodd" clip-rule="evenodd" d="M145 124.167C145 121.146 150.366 119 156.917 119C163.468 119 168.833 121.146 168.833 124.167V130.916V130.916V137.666C168.833 140.686 163.467 142.832 156.917 142.832C150.502 142.832 145.224 140.774 145.007 137.853L145 137.666V130.916V130.916V124.167ZM146.333 130.916V130.916C146.333 132.866 151.042 134.749 156.917 134.749C162.659 134.749 167.285 132.951 167.493 131.049L167.5 130.916V130.916V126.613C165.511 128.281 161.504 129.333 156.917 129.333C152.329 129.333 148.323 128.281 146.333 126.613V130.916ZM167.5 133.362C165.511 135.03 161.505 136.082 156.917 136.082C152.329 136.082 148.323 135.03 146.333 133.361V137.666C146.333 139.616 151.042 141.499 156.917 141.499C162.658 141.499 167.285 139.7 167.493 137.798L167.5 137.666V133.362ZM156.917 120.333C162.792 120.333 167.5 122.217 167.5 124.167C167.5 126.117 162.792 128 156.917 128C151.041 128 146.333 126.117 146.333 124.167C146.333 122.217 151.041 120.333 156.917 120.333Z" fill="#2B59C3"/>
<path fill-rule="evenodd" clip-rule="evenodd" d="M89 125.167C89 122.146 94.3656 120 100.917 120C107.468 120 112.833 122.146 112.833 125.167V131.916V131.916V138.666C112.833 141.686 107.467 143.832 100.917 143.832C94.5025 143.832 89.2241 141.774 89.0069 138.853L89 138.666V131.916V131.916V125.167ZM90.3333 131.916V131.916C90.3333 133.866 95.0417 135.749 100.917 135.749C106.659 135.749 111.285 133.951 111.493 132.049L111.5 131.916V131.916V127.613C109.511 129.281 105.504 130.333 100.917 130.333C96.329 130.333 92.3227 129.281 90.3333 127.613V131.916ZM111.5 134.362C109.511 136.03 105.505 137.082 100.917 137.082C96.3292 137.082 92.3227 136.03 90.3333 134.361V138.666C90.3333 140.616 95.0417 142.499 100.917 142.499C106.658 142.499 111.285 140.7 111.493 138.798L111.5 138.666V134.362ZM100.917 121.333C106.792 121.333 111.5 123.217 111.5 125.167C111.5 127.117 106.792 129 100.917 129C95.0413 129 90.3333 127.117 90.3333 125.167C90.3333 123.217 95.0413 121.333 100.917 121.333Z" fill="#2B59C3"/>
<path fill-rule="evenodd" clip-rule="evenodd" d="M117 125.167C117 122.146 122.366 120 128.917 120C135.468 120 140.833 122.146 140.833 125.167V131.916V131.916V138.666C140.833 141.686 135.467 143.832 128.917 143.832C122.502 143.832 117.224 141.774 117.007 138.853L117 138.666V131.916V131.916V125.167ZM118.333 131.916V131.916C118.333 133.866 123.042 135.749 128.917 135.749C134.659 135.749 139.285 133.951 139.493 132.049L139.5 131.916V131.916V127.613C137.511 129.281 133.504 130.333 128.917 130.333C124.329 130.333 120.323 129.281 118.333 127.613V131.916ZM139.5 134.362C137.511 136.03 133.505 137.082 128.917 137.082C124.329 137.082 120.323 136.03 118.333 134.361V138.666C118.333 140.616 123.042 142.499 128.917 142.499C134.658 142.499 139.285 140.7 139.493 138.798L139.5 138.666V134.362ZM128.917 121.333C134.792 121.333 139.5 123.217 139.5 125.167C139.5 127.117 134.792 129 128.917 129C123.041 129 118.333 127.117 118.333 125.167C118.333 123.217 123.041 121.333 128.917 121.333Z" fill="#2B59C3"/>
<g opacity="0.5">
<path d="M107.802 25.4199C123.774 30.2302 134.539 49.8769 129.198 82.5796" stroke="#797AF2"/>
<path d="M181.501 48.501C165.613 43.422 145.615 53.5197 131.499 83.499" stroke="#797AF2"/>
<path d="M49.5 69.0001C64 50.3335 109.2 19.1001 174 43.5001" stroke="#797AF2"/>
<path d="M50 71.4999C63 64.3332 96 56.2999 124 81.4999" stroke="#797AF2"/>
<path d="M111 19.0001C125.167 16.5001 157.3 16.6001 172.5 37.0001" stroke="#797AF2"/>
<path d="M148 105C155.667 102.167 172.3 92.4 177.5 76" stroke="#797AF2"/>
<path d="M69.4999 28.5C59.4999 46 51.7999 84.6 101 99" stroke="#797AF2"/>
<path d="M49 76C49.6667 84.3333 60.7 101.6 99.5 104" stroke="#797AF2"/>
</g>
</g>
<defs>
<clipPath id="clip0">
<rect width="244" height="149" fill="white"/>
</clipPath>
</defs>
</svg>
