<svg xmlns="http://www.w3.org/2000/svg" width="24" height="24" viewBox="0 0 24 24">
  <g fill="none" fill-rule="evenodd">
    <polygon points="0 0 24 0 24 24 0 24"/>
    <path fill="currentColor" d="M12,4 C12.2454599,4 12.4496084,4.17687516 12.4919443,4.41012437 L12.5,4.5 L12.5,11.5 L19.5,11.5 C19.7761424,11.5 20,11.7238576 20,12 C20,12.2454599 19.8231248,12.4496084 19.5898756,12.4919443 L19.5,12.5 L12.5,12.5 L12.5,19.5 C12.5,19.7761424 12.2761424,20 12,20 C11.7545401,20 11.5503916,19.8231248 11.5080557,19.5898756 L11.5,19.5 L11.5,12.5 L4.5,12.5 C4.22385763,12.5 4,12.2761424 4,12 C4,11.7545401 4.17687516,11.5503916 4.41012437,11.5080557 L4.5,11.5 L11.5,11.5 L11.5,4.5 C11.5,4.22385763 11.7238576,4 12,4 Z" transform="rotate(45 12 12)"/>
  </g>
</svg>
