<?xml version="1.0" encoding="utf-8"?>
<!-- Generator: Adobe Illustrator 25.2.3, SVG Export Plug-In . SVG Version: 6.00 Build 0)  -->
<svg version="1.1" id="Layer_1" xmlns="http://www.w3.org/2000/svg" xmlns:xlink="http://www.w3.org/1999/xlink" x="0px" y="0px"
	 viewBox="0 0 250 250" style="enable-background:new 0 0 250 250;" xml:space="preserve">
<style type="text/css">
	.st0{fill:#322965;}
	.st1{fill:#FF6E42;}
</style>
<path class="st0" d="M187.2,63.4L187.2,63.4c-16.6-16.6-38.7-25.7-62.2-25.7c0,0,0,0-0.1,0c-23.5,0-45.6,9.2-62.2,25.8
	C46.2,80.1,37,102.2,37,125.7c0,10.9,2,21.5,5.8,31.5c-6,6-11.3,11.8-16.2,17.8c-3.5,4.4-6.3,8.2-8.6,12c-1.6,2.6-2.7,4.8-3.5,6.9
	c-0.6,1.4-1,2.8-1.2,4.2c-0.2,1.4-0.5,3.2,0.1,5.3c0.1,0.5,0.3,0.9,0.5,1.3l0.1,0.3c0,0.1,0.1,0.2,0.2,0.3c0.2,0.4,0.6,0.9,0.9,1.3
	c0.7,0.8,1.6,1.5,2.8,2.1c2,0.9,3.9,1,5.2,1c3,0,5.7-0.7,8.1-1.4c5.2-1.5,10-3.6,14-5.5c6.4-3.1,13.1-6.8,21-11.6
	c16.2,14.5,37,22.5,58.7,22.5c0,0,0,0,0.1,0c23.5,0,45.6-9.2,62.2-25.8c16.6-16.6,25.7-38.7,25.7-62.2
	C213,102.1,203.8,80,187.2,63.4z M44.9,161.9c3.7,8.3,8.7,15.9,14.8,22.6c-6.6,4-12.6,7.4-18.2,10.2h0c-3.4,1.7-7.9,3.8-12.5,5.3
	c-2.4,0.7-4.3,1.1-5.9,1.2c-0.9,0-1.5-0.1-1.7-0.2c-0.2-0.1-0.2-0.1-0.2-0.1c-0.1-0.2-0.2-0.8,0-1.7c0.1-0.9,0.4-1.8,0.7-2.8
	c0.6-1.9,1.6-3.7,2.7-6c1.9-3.5,4.2-7.2,7.4-11.7C36,173.1,40.5,167.3,44.9,161.9z M125,204.6c-18.6,0-36.6-6.6-50.8-18.5
	c6.9-4.5,13.7-9.2,20.3-14c9-6.7,16.3-12.3,22.8-17.6c7.1-5.8,14.5-12.1,21.9-18.8l1-0.9c6.5-6.1,13.3-12.5,19.8-18.9
	c0.8-0.7,0.8-1.9,0.1-2.7c-0.7-0.8-1.9-0.9-2.7-0.3c-7.2,5.6-14.4,11.4-21.3,17l-1.1,0.9c-6.4,5.1-13.4,10.5-22.6,17.4l-0.9,0.6
	c-7.2,5.4-14.7,10.9-22.2,16.1c-8.4,5.9-15.4,10.6-21.9,14.8c-13.8-14.7-21.4-33.8-21.4-54c0-21.1,8.2-40.9,23.1-55.8
	C84.1,55,103.9,46.8,125,46.7c0,0,0,0,0.1,0c21.1,0,40.9,8.2,55.8,23.1c14.9,14.9,23.1,34.7,23.2,55.8c0,21.1-8.2,40.9-23.1,55.8
	C166,196.3,146.2,204.5,125,204.6C125.1,204.6,125,204.6,125,204.6z"/>
<path class="st1" d="M237.4,39.9c0,0-21.7-3.5-29,2.9c0,0-6.1,5.3-13.3,11.6l-1.2,1.1c-0.2,0.2-0.4,0.4-0.6,0.5
	c0,0-22.7-1.5-27.6,2.8c-1.8,1.6-3.6,3.1-5.1,4.4l0,0l-1.9,1.6c-0.9,0.8-1.6,1.4-2,1.8l-0.5,0.5l10.5,12.1
	c-3.2,2.8-0.9,10.8,5.2,17.8c6.1,7,13.7,10.4,17,7.6l10.5,12.1c0,0,0.1-0.1,0.3-0.3l4.1-3.6h0c1.5-1.3,3.3-2.8,5.1-4.4
	c4.9-4.3,6.6-27,6.6-27c0.4-0.4,0.8-0.7,1.3-1.1l1-0.9c7-6.1,12.9-11.2,12.9-11.2C237.9,61.9,237.4,39.9,237.4,39.9z M172,74.5
	l0.7-0.6C172.5,74.1,172.2,74.3,172,74.5z M212.6,83.9l-0.7,0.6C212.1,84.3,212.4,84.1,212.6,83.9z"/>
</svg>
