<?xml version="1.0" encoding="UTF-8"?>
<svg xmlns="http://www.w3.org/2000/svg" xmlns:xlink="http://www.w3.org/1999/xlink" width="38px" height="38px" viewBox="0 0 38 38" version="1.1">
<defs>
<filter id="alpha" filterUnits="objectBoundingBox" x="0%" y="0%" width="100%" height="100%">
  <feColorMatrix type="matrix" in="SourceGraphic" values="0 0 0 0 1 0 0 0 0 1 0 0 0 0 1 0 0 0 1 0"/>
</filter>
<mask id="mask0">
  <g filter="url(#alpha)">
<rect x="0" y="0" width="38" height="38" style="fill:rgb(0%,0%,0%);fill-opacity:0.956863;stroke:none;"/>
  </g>
</mask>
<clipPath id="clip1">
  <rect x="0" y="0" width="38" height="38"/>
</clipPath>
<g id="surface5" clip-path="url(#clip1)">
<path style=" stroke:none;fill-rule:evenodd;fill:rgb(99.607843%,37.254902%,22.745098%);fill-opacity:1;" d="M -0.0976562 10.589844 C -0.0976562 7.816406 -0.0976562 5.046875 -0.0976562 2.277344 C 0.191406 2.085938 0.453125 1.855469 0.691406 1.582031 C 4.386719 1.453125 8.082031 1.453125 11.777344 1.582031 C 12.148438 1.890625 12.445312 2.25 12.667969 2.671875 C 12.796875 7.355469 12.796875 12.039062 12.667969 16.722656 C 12.320312 18.003906 11.496094 18.433594 10.191406 18.011719 C 7.589844 16.808594 5.015625 15.554688 2.472656 14.25 C 1.246094 13.277344 0.390625 12.058594 -0.0976562 10.589844 Z M -0.0976562 10.589844 "/>
</g>
<mask id="mask1">
  <g filter="url(#alpha)">
<rect x="0" y="0" width="38" height="38" style="fill:rgb(0%,0%,0%);fill-opacity:0.952941;stroke:none;"/>
  </g>
</mask>
<clipPath id="clip2">
  <rect x="0" y="0" width="38" height="38"/>
</clipPath>
<g id="surface8" clip-path="url(#clip2)">
<path style=" stroke:none;fill-rule:evenodd;fill:rgb(99.607843%,36.862745%,23.137255%);fill-opacity:1;" d="M 37.902344 2.277344 C 37.902344 5.046875 37.902344 7.816406 37.902344 10.589844 C 37.414062 12.058594 36.554688 13.277344 35.328125 14.25 C 32.148438 15.90625 28.917969 17.457031 25.628906 18.902344 C 25.464844 24.308594 25.367188 29.71875 25.332031 35.128906 C 25.109375 35.550781 24.8125 35.914062 24.441406 36.21875 C 20.75 36.351562 17.054688 36.351562 13.359375 36.21875 C 12.988281 35.914062 12.691406 35.550781 12.46875 35.128906 C 12.289062 32.480469 12.355469 29.84375 12.667969 27.214844 C 13.171875 25.457031 14.191406 24.105469 15.734375 23.15625 C 18.746094 21.683594 21.78125 20.265625 24.839844 18.902344 C 24.941406 13.34375 25.105469 7.800781 25.332031 2.277344 C 25.5625 2.046875 25.796875 1.8125 26.027344 1.582031 C 29.71875 1.453125 33.414062 1.453125 37.109375 1.582031 C 37.347656 1.855469 37.613281 2.085938 37.902344 2.277344 Z M 37.902344 2.277344 "/>
</g>
</defs>
<g id="surface1">
<use xlink:href="#surface5" mask="url(#mask0)"/>
<use xlink:href="#surface8" mask="url(#mask1)"/>
</g>
</svg>
