<?xml version="1.0" encoding="utf-8"?>
<!-- Generator: Adobe Illustrator 24.2.1, SVG Export Plug-In . SVG Version: 6.00 Build 0)  -->
<svg version="1.1" id="Layer_1" xmlns="http://www.w3.org/2000/svg" xmlns:xlink="http://www.w3.org/1999/xlink" x="0px" y="0px"
	 viewBox="0 0 1084 186" style="enable-background:new 0 0 1084 186;" xml:space="preserve">
<style type="text/css">
	.st0{fill:#FFFFFF;}
	.st1{clip-path:url(#SVGID_2_);}
	.st2{fill:#B2B3BA;}
	.st3{fill:#F26E46;}
	.st4{fill:#F4896A;}
	.st5{fill:#EC5735;}
	.st6{fill:#FF6E42;}
	.st7{fill:#FFFFFF;stroke:#FFFFFF;stroke-width:2;stroke-miterlimit:10;}
	.st8{fill:#ED5735;}
	.st9{fill:#322965;}
	.st10{stroke:#000000;stroke-width:4;stroke-linejoin:round;stroke-miterlimit:10;}
	.st11{fill:#322965;stroke:#322965;stroke-width:4;stroke-linecap:round;stroke-linejoin:round;stroke-miterlimit:10;}
	.st12{fill:#312965;}
	.st13{clip-path:url(#SVGID_4_);}
	.st14{fill:#5B5480;}
	.st15{clip-path:url(#SVGID_6_);}
	.st16{clip-path:url(#SVGID_8_);}
	.st17{clip-path:url(#SVGID_10_);}
	.st18{clip-path:url(#SVGID_12_);}
	.st19{clip-path:url(#SVGID_14_);}
	.st20{clip-path:url(#SVGID_16_);}
	.st21{clip-path:url(#SVGID_18_);}
	.st22{fill:#322965;stroke:#322965;stroke-width:4;stroke-linejoin:round;stroke-miterlimit:10;}
</style>
<g>
	<g>
		<path class="st9" d="M323.6,148c-0.6-0.5-0.8-1.1-0.8-1.8c0-0.6,0.2-1.3,0.5-2l10.1-23.7l-24.6-58c-0.3-0.8-0.5-1.4-0.5-1.8
			c0.1-0.8,0.4-1.4,0.9-2c0.5-0.6,1.2-0.8,1.9-0.8h10.6c1.5,0,2.6,0.8,3.3,2.4l17,41.8l17.3-41.8c0.9-1.6,2-2.4,3.6-2.4h10.4
			c0.8,0,1.4,0.3,1.9,0.8c0.5,0.5,0.8,1.1,0.8,1.8c0,0.6-0.2,1.3-0.5,2l-36.3,83.9c-0.7,1.6-1.9,2.4-3.6,2.4h-10.2
			C324.8,148.7,324.1,148.5,323.6,148z"/>
		<path class="st9" d="M393.2,118c-4.5-5.1-6.8-12.2-6.8-21.1v-36c0-0.9,0.3-1.7,0.9-2.2c0.6-0.6,1.3-0.8,2.2-0.8H401
			c0.9,0,1.6,0.3,2.2,0.9c0.6,0.6,0.9,1.3,0.9,2.2v35.2c0,10.5,4.6,15.8,13.7,15.8c4.4,0,8-1.4,10.6-4.2c2.6-2.8,3.9-6.7,3.9-11.5
			V60.8c0-0.9,0.3-1.7,0.9-2.2c0.6-0.6,1.3-0.8,2.2-0.8h11.4c0.9,0,1.7,0.3,2.2,0.8c0.6,0.6,0.8,1.3,0.8,2.2v60.5
			c0,0.9-0.3,1.6-0.8,2.2c-0.6,0.6-1.3,0.9-2.2,0.9h-10.6c-0.9,0-1.6-0.3-2.2-0.9c-0.6-0.6-0.9-1.3-0.9-2.2v-5.3
			c-4.7,6.4-11.8,9.6-21.3,9.6C403.9,125.7,397.7,123.1,393.2,118z"/>
		<path class="st9" d="M478.4,148.8c-4.7-2.5-8-5.4-10-8.6c-2-3.2-2.9-6-2.9-8.3c0-0.9,0.3-1.6,0.9-2.1c0.6-0.6,1.3-0.8,2.2-0.8
			h11.4c0.8,0,1.4,0.2,2,0.6c0.6,0.4,1,1.1,1.3,2.1c0.9,2.2,2.3,4.1,4.2,5.7c1.9,1.6,4.8,2.4,8.7,2.4c5.1,0,8.9-1.1,11.3-3.4
			c2.4-2.3,3.6-6.2,3.6-11.8v-8.7c-4.6,5.5-11.1,8.2-19.6,8.2c-8.9,0-15.6-2.7-20-8.1c-4.5-5.4-6.9-12.7-7.2-22l-0.1-3.5l0.1-3.5
			c0.3-9.1,2.8-16.5,7.3-22c4.5-5.6,11.2-8.3,20-8.3c4.5,0,8.5,0.9,11.9,2.6c3.4,1.7,6.2,4,8.5,6.9v-5c0-0.9,0.3-1.7,1-2.3
			c0.6-0.6,1.4-0.9,2.2-0.9h10.5c0.9,0,1.6,0.3,2.2,0.9c0.6,0.6,0.9,1.4,0.9,2.3l0.1,61.7c0,9.5-2.6,16.8-7.9,22
			c-5.3,5.2-13.3,7.8-24,7.8C489.2,152.6,483.1,151.3,478.4,148.8z M507.1,105.7c2.4-3.1,3.7-6.8,4-11.3c0.1-0.7,0.1-2,0.1-4.1
			s0-3.4-0.1-4.1c-0.3-4.4-1.6-8.2-4-11.3c-2.4-3.1-6-4.6-10.8-4.6c-9.2,0-14.1,5.6-14.6,16.9l-0.1,3.1c0,13.3,4.9,20,14.7,20
			C501.1,110.3,504.7,108.8,507.1,105.7z"/>
		<path class="st9" d="M553,123c-3.6-1.7-6.5-4.1-8.6-7.1c-2.1-3-3.1-6.3-3.1-9.9c0-5.8,2.3-10.5,7-14.1c4.7-3.6,11.1-6,19.3-7.3
			l17.5-2.6v-2.7c0-3.7-0.9-6.4-2.8-8.3c-1.9-1.9-4.9-2.8-9-2.8c-2.8,0-5.1,0.5-6.8,1.5c-1.7,1-3.1,2.1-4.2,3.1
			c-1.1,1.1-1.8,1.8-2.1,2.1c-0.3,1-1,1.5-1.9,1.5h-10c-0.8,0-1.4-0.3-2-0.8c-0.6-0.5-0.8-1.2-0.8-2c0.1-2.1,1.1-4.5,3.1-7.2
			c2-2.7,5.1-5,9.3-7c4.2-2,9.4-3,15.5-3c10.1,0,17.4,2.3,22,6.8c4.6,4.5,6.9,10.5,6.9,17.8v40.2c0,0.9-0.3,1.6-0.8,2.2
			c-0.6,0.6-1.3,0.9-2.2,0.9h-10.6c-0.9,0-1.6-0.3-2.2-0.9c-0.6-0.6-0.9-1.3-0.9-2.2v-5c-1.9,2.7-4.5,5-7.9,6.7
			c-3.4,1.7-7.7,2.6-12.8,2.6C560.6,125.7,556.7,124.8,553,123z M580.9,108.8c3-3.1,4.5-7.5,4.5-13.3v-2.6l-12.8,2
			c-9.8,1.5-14.7,4.8-14.7,9.9c0,2.7,1.1,4.8,3.4,6.3c2.3,1.5,5,2.2,8.1,2.2C574.1,113.4,577.9,111.8,580.9,108.8z"/>
		<path class="st9" d="M635.6,116.6v4.7c0,0.9-0.3,1.6-0.9,2.2c-0.6,0.6-1.4,0.9-2.3,0.9h-10.2c-0.9,0-1.6-0.3-2.2-0.9
			c-0.6-0.6-0.9-1.3-0.9-2.2V36.5c0-0.9,0.3-1.7,0.9-2.2c0.6-0.6,1.3-0.8,2.2-0.8h11.1c0.9,0,1.7,0.3,2.2,0.8
			c0.6,0.6,0.8,1.3,0.8,2.2v28.4c4.8-5.6,11.3-8.5,19.6-8.5c8.6,0,15.3,2.8,19.9,8.4c4.7,5.6,7.1,12.9,7.4,22c0.1,1,0.1,2.4,0.1,4.2
			c0,1.7,0,3.1-0.1,4.2c-0.3,9.2-2.8,16.6-7.4,22.1c-4.6,5.5-11.2,8.3-19.9,8.3C647.1,125.7,640.3,122.6,635.6,116.6z M665.7,94.9
			c0.1-0.9,0.1-2.1,0.1-3.8c0-1.7,0-3-0.1-3.8c-0.6-11.3-5.5-16.9-14.6-16.9c-4.7,0-8.3,1.5-10.8,4.5c-2.5,3-3.8,6.6-4,10.9
			c-0.1,1-0.1,2.7-0.1,5c0,2.2,0,3.8,0.1,4.9c0.2,4.5,1.5,8.4,3.8,11.5c2.4,3.2,6,4.7,10.9,4.7C660.2,111.8,665.1,106.2,665.7,94.9z
			"/>
		<path class="st9" d="M705.2,148c-0.6-0.5-0.8-1.1-0.8-1.8c0-0.6,0.2-1.3,0.5-2l10.1-23.7l-24.6-58c-0.3-0.8-0.5-1.4-0.5-1.8
			c0.1-0.8,0.4-1.4,0.9-2c0.5-0.6,1.2-0.8,1.9-0.8h10.6c1.5,0,2.6,0.8,3.3,2.4l17,41.8L741,60.2c0.9-1.6,2-2.4,3.6-2.4H755
			c0.8,0,1.4,0.3,1.9,0.8c0.5,0.5,0.8,1.1,0.8,1.8c0,0.6-0.2,1.3-0.5,2l-36.3,83.9c-0.7,1.6-1.9,2.4-3.6,2.4h-10.2
			C706.4,148.7,705.8,148.5,705.2,148z"/>
		<path class="st9" d="M781.4,118.3c-3.9-4.1-5.9-10-5.9-17.9v-29h-10.1c-0.9,0-1.6-0.3-2.2-0.9c-0.6-0.6-0.9-1.3-0.9-2.2v-7.6
			c0-0.9,0.3-1.6,0.9-2.2c0.6-0.6,1.3-0.9,2.2-0.9h10.1V36.5c0-0.9,0.3-1.7,0.9-2.2c0.6-0.6,1.3-0.8,2.2-0.8h10.6
			c0.9,0,1.7,0.3,2.2,0.8c0.6,0.6,0.8,1.3,0.8,2.2v21.3h16c0.9,0,1.6,0.3,2.2,0.9c0.6,0.6,0.9,1.3,0.9,2.2v7.6
			c0,0.9-0.3,1.6-0.9,2.2c-0.6,0.6-1.3,0.9-2.2,0.9h-16V99c0,3.7,0.6,6.4,1.9,8.3c1.3,1.9,3.4,2.8,6.3,2.8h9c0.9,0,1.7,0.3,2.2,0.8
			c0.6,0.6,0.8,1.3,0.8,2.2v8.1c0,0.9-0.3,1.6-0.8,2.2c-0.6,0.6-1.3,0.9-2.2,0.9h-10.5C791.1,124.4,785.3,122.4,781.4,118.3z"/>
		<path class="st9" d="M830,117.5c-5.6-5.5-8.6-13.2-8.9-23.3l-0.1-3.2c0-10.7,2.8-19.1,8.4-25.2c5.6-6.1,13.3-9.2,23.3-9.2
			c10.2,0,18,3.1,23.5,9.2c5.5,6.1,8.3,14.3,8.3,24.6V93c0,0.9-0.3,1.6-0.9,2.2c-0.6,0.6-1.4,0.9-2.3,0.9h-42.5v1
			c0.2,4.8,1.5,8.7,3.9,11.8c2.4,3.1,5.8,4.7,10.1,4.7c4.9,0,8.8-2,11.9-5.9c0.8-0.9,1.4-1.5,1.8-1.7c0.4-0.2,1.2-0.3,2.2-0.3h11.3
			c0.8,0,1.4,0.2,2,0.6c0.6,0.4,0.8,1,0.8,1.8c0,2-1.2,4.5-3.7,7.2c-2.4,2.8-5.9,5.2-10.4,7.2c-4.5,2-9.8,3.1-15.8,3.1
			C843.2,125.7,835.6,122.9,830,117.5z M866.7,85.2v-0.3c0-5-1.3-9.1-3.8-12.1c-2.5-3-6-4.5-10.3-4.5c-4.4,0-7.8,1.5-10.2,4.5
			c-2.5,3-3.7,7.1-3.7,12.1v0.3H866.7z"/>
		<g>
			<path class="st6" d="M902,123.4c-0.6-0.6-1-1.4-1-2.2V38c0-0.9,0.3-1.7,0.9-2.4c0.6-0.6,1.4-1,2.3-1h33.7c12.6,0,22.5,3,29.5,9
				c7,6,10.7,14.7,11,25.9c0.1,2.5,0.1,5.8,0.1,9.9c0,4.1,0,7.3-0.1,9.7c-0.9,23.4-14.1,35.1-39.8,35.1h-34.3
				C903.4,124.4,902.6,124.1,902,123.4z M937.9,105.2c5.4,0,9.4-1.3,11.9-3.8c2.6-2.6,3.9-6.7,4.1-12.3c0.2-2.5,0.3-5.7,0.3-9.6
				c0-3.9-0.1-7.1-0.3-9.5c-0.2-5.5-1.6-9.5-4.4-12.1c-2.8-2.6-6.9-3.9-12.2-3.9h-12.2v51.2H937.9z"/>
			<path class="st6" d="M994.1,123.4c-0.6-0.6-1-1.4-1-2.2V38c0-0.9,0.3-1.7,0.9-2.4c0.6-0.6,1.4-1,2.3-1h39.6
				c10.8,0,18.9,2.2,24.2,6.7c5.3,4.4,7.9,10.8,7.9,19c0,4.1-1.1,7.6-3.3,10.6c-2.2,3-4.6,5.2-7.2,6.5c3.5,1.5,6.4,4.1,8.8,7.6
				c2.4,3.5,3.6,7.5,3.6,12c0,8.6-2.8,15.3-8.5,20.1c-5.7,4.8-13.8,7.2-24.4,7.2h-40.7C995.5,124.4,994.7,124.1,994.1,123.4z
				 M1033.2,70.2c3.2,0,5.6-0.9,7.3-2.6c1.7-1.7,2.6-3.9,2.6-6.7c0-2.6-0.8-4.8-2.5-6.5c-1.7-1.7-4.1-2.5-7.4-2.5h-16v18.2H1033.2z
				 M1034.4,107.1c3.3,0,5.9-1,7.7-2.9c1.8-1.9,2.8-4.3,2.8-7.1c0-2.9-0.9-5.3-2.8-7.2c-1.9-1.9-4.4-2.9-7.7-2.9h-17.2v20.1H1034.4z
				"/>
		</g>
	</g>
	<g>
		<path class="st11" d="M182.5,29.1c-16.3-16.4-39-26.5-63.9-26.5c-25,0-47.6,10.1-63.9,26.5C38.3,45.4,28.2,68,28.2,93
			c0,11.9,2.3,23.2,6.5,33.7c-6.3,6.2-12.2,12.6-17.8,19.5c-3.2,3.9-6.2,8-8.9,12.4c-1.3,2.2-2.6,4.5-3.6,7c-0.5,1.2-0.9,2.5-1.2,4
			c-0.3,1.4-0.4,3,0.1,4.7c0.1,0.4,0.3,0.8,0.5,1.3c0.2,0.4,0.5,0.8,0.8,1.2c0.6,0.7,1.4,1.2,2.2,1.6c1.6,0.7,3.2,0.9,4.6,0.9
			c2.9,0,5.5-0.6,8-1.4c5-1.5,9.7-3.5,14.4-5.6c8-3.8,15.7-8.3,23.2-12.9c16.1,15,37.8,24.2,61.6,24.2c25,0,47.6-10.1,63.9-26.5
			C198.9,140.6,209,118,209,93h0C209,68,198.9,45.4,182.5,29.1z M31.6,167.5c-4.4,2.2-8.9,4.3-13.5,5.7c-2.3,0.7-4.6,1.3-6.8,1.4
			c-1.1,0.1-2.1-0.1-2.8-0.3c-0.7-0.3-1.1-0.6-1.3-1.4c-0.2-0.7-0.3-1.7-0.1-2.8c0.2-1.1,0.4-2.2,0.8-3.3c0.8-2.2,1.9-4.4,3-6.6
			c2.3-4.3,5.1-8.5,7.9-12.5c5-7.1,10.4-13.9,15.9-20.6c4.3,10.6,10.5,20.2,18.3,28.3C46.1,159.7,39,163.9,31.6,167.5z M178.8,153.1
			c-15.4,15.4-36.7,24.9-60.1,24.9c-21.9,0-41.8-8.3-56.9-21.8c8-5.2,15.9-10.6,23.6-16.2c8.1-6,16.1-12.1,23.9-18.5
			c7.8-6.3,15.5-12.9,22.9-19.6c7.3-6.9,14.7-13.7,21.9-20.8c-8,6.2-15.8,12.5-23.5,18.8c-7.9,6.2-15.8,12.3-23.8,18.3
			c-8,6-16.1,11.9-24.3,17.6c-8.1,5.7-16.2,11.2-24.6,16.5c-15-15.3-24.2-36.3-24.2-59.4c0-23.5,9.5-44.7,24.9-60.1
			C73.9,17.5,95.1,7.9,118.6,7.9c23.5,0,44.7,9.5,60.1,24.9c15.4,15.4,24.9,36.7,24.9,60.1C203.7,116.5,194.2,137.7,178.8,153.1z"/>
		<path class="st8" d="M234.7,6.8c0,0-22.1-3.5-29.5,2.9c0,0-6.2,5.4-13.5,11.8l-1.3,1.1c-0.2,0.2-0.4,0.4-0.6,0.6
			c0,0-23.1-1.5-28.1,2.8c-1.8,1.6-3.6,3.1-5.1,4.5l0,0l-1.9,1.7c-0.9,0.8-1.6,1.4-2.1,1.8l-0.5,0.5l10.7,12.3
			c-3.3,2.9-0.9,11,5.3,18.2c6.2,7.2,14,10.6,17.3,7.8l10.7,12.3c0,0,0.1-0.1,0.3-0.3l4.2-3.6h0c1.5-1.3,3.3-2.9,5.1-4.5
			c5-4.3,6.7-27.4,6.7-27.4c0.4-0.4,0.9-0.7,1.3-1.1l1-0.9c7.2-6.2,13.1-11.4,13.1-11.4C235.1,29.2,234.7,6.8,234.7,6.8z
			 M168.1,41.9l0.7-0.7C168.5,41.5,168.3,41.7,168.1,41.9z M209.4,51.6l-0.7,0.6C208.9,52,209.1,51.8,209.4,51.6z"/>
	</g>
</g>
</svg>
