<svg version="1.1" id="Layer_1" xmlns="http://www.w3.org/2000/svg" xmlns:xlink="http://www.w3.org/1999/xlink" x="0px" y="0px"
     viewBox="0 0 261.02 35" xml:space="preserve">
    <g id="Yugabyte-Logo-Dark_BG-RGB_00000167373402416010803990000005445657258390182841_">
	<g id="Yugabyte-Wordmark-Dark_BG-RGB">
		<path fill="#1E154B" d="M256.42,12.2c1.66-0.86,3.25-2.76,3.25-5.33c0-4.41-3.49-6.87-8.4-6.87h-10.42v26.85h10.79
			c5.64,0,9.38-2.94,9.38-7.97C261.02,15.32,258.94,13.12,256.42,12.2L256.42,12.2z M245.88,4.04h4.96c2.76,0,4.11,1.16,4.11,3.25
			c0,2.09-1.35,3.19-4.05,3.19h-5.03V4.04z M251.09,22.43h-5.21v-7.66h5.21c3.43,0,5.09,1.41,5.09,3.86
			C256.18,21.09,254.52,22.43,251.09,22.43z"/>
        <path fill="#1E154B" d="M223.08,0h-8.7v26.85h8.7c7.48,0,13.79-4.47,13.79-13.42C236.88,4.47,230.56,0,223.08,0L223.08,0z
			 M222.72,22.43h-3.25V4.35h3.25c4.6,0,9.01,2.39,9.01,9.07S227.31,22.43,222.72,22.43L222.72,22.43z"/>
        <path fill="#1E154B" d="M206.17,20.41c-0.49,1.84-2.08,2.82-4.54,2.82c-2.94,0-4.97-1.96-5.33-5.08h14.28
			c0.08-0.53,0.12-1.06,0.12-1.59c0-4.66-2.94-9.38-9.44-9.38s-9.5,4.84-9.5,9.93c0,5.09,3.55,10.05,9.87,10.05
			c4.78,0,8.4-2.63,9.13-6.74H206.17L206.17,20.41z M201.26,10.73c2.82,0,4.47,1.84,4.72,4.29h-9.56
			C196.91,12.14,198.63,10.73,201.26,10.73L201.26,10.73z"/>
        <path fill="#1E154B" d="M190.17,11.46V7.48h-5.33V1.65h-4.72v5.82h-3.8v3.98h3.8v8.64c0,4.29,2.76,6.74,6.99,6.74h3.07v-3.98h-2.57
			c-1.72,0-2.76-0.98-2.76-2.94v-8.46H190.17z"/>
        <path fill="#1E154B" d="M170.43,7.48l-4.41,13.3l-4.53-13.3h-4.78l7.05,19.37l-2.7,7.84h4.47l3-8.77l6.74-18.45H170.43L170.43,7.48z"
        />
        <path fill="#1E154B" d="M147.02,7.17c-2.51,0-4.6,1.1-5.7,2.7V0.01h-4.72v26.84h4.72v-2.39c1.1,1.66,3.25,2.7,5.58,2.7
			c5.82,0,9.26-4.04,9.26-9.99C156.15,11.21,152.72,7.17,147.02,7.17L147.02,7.17z M146.22,23.11c-3.13,0-5.21-2.39-5.21-5.95
			c0-3.56,2.08-5.88,5.21-5.88c3.13,0,5.21,2.33,5.21,5.88C151.43,20.72,149.35,23.11,146.22,23.11z"/>
        <path fill="#1E154B" d="M124.03,7.17c-5.03,0-8.27,3-8.52,6.87h4.23c0.06-1.72,1.59-3.31,4.11-3.31c2.51,0,3.92,1.35,3.92,3.25
			c0,0.74-0.43,1.29-1.41,1.29h-3.56c-4.35,0-7.29,2.33-7.29,6.13c0,3.31,2.63,5.76,6.43,5.76c2.82,0,5.02-1.29,5.82-3.19v2.88h4.66
			V14.41C132.43,10.05,128.94,7.17,124.03,7.17L124.03,7.17z M127.77,18.7c0,2.88-1.71,4.96-4.66,4.96c-1.78,0-3-0.98-3-2.51
			c0-1.65,1.35-2.76,3.31-2.76h4.35V18.7z"/>
        <path fill="#1E154B" d="M84.01,7.48v10.6c0,2.82-1.9,4.9-4.54,4.9s-4.04-1.84-4.04-4.47V7.48h-4.66v12.01c0,4.53,2.7,7.66,7.17,7.66
			c2.76,0,4.96-1.16,6.07-3.31v3h4.72V7.48H84.01z"/>
        <path fill="#1E154B" d="M63.47,7.48L59,20.78l-4.47-13.3h-4.78l7.05,19.37l-2.7,7.84h4.47l3-8.77l6.74-18.45H63.47L63.47,7.48z"/>
        <path fill="#1E154B" d="M106.93,7.48v2.21c-1.1-1.47-3.19-2.51-5.64-2.51c-5.76,0-9.13,4.11-9.13,9.99c0,5.88,3.37,9.99,9.19,9.99
			c2.82,0,4.66-0.98,5.64-2.45v0.31c0,3.62-1.16,6.07-4.96,6.07c-2.39,0-3.62-0.98-4.41-2.88H92.9c1.04,4.72,4.23,6.8,9.13,6.8
			c6.13,0,9.44-3.68,9.44-9.99l0.18-17.53L106.93,7.48L106.93,7.48z M102.03,23.11c-3.13,0-5.21-2.39-5.21-5.95
			c0-3.56,2.08-5.88,5.21-5.88c3.13,0,5.27,2.33,5.27,5.88C107.3,20.71,105.22,23.11,102.03,23.11z"/>
	</g>
        <g id="Yugabyte-Logomark-Dark_BG-RGB">
		<path fill="#FF5F3B" d="M10.27,0c0.88,0,1.31,0,1.65,0.17c0.29,0.15,0.53,0.39,0.68,0.68c0.17,0.33,0.17,0.77,0.17,1.65v10.99
			c0,1.3,0,1.96-0.27,2.36c-0.24,0.35-0.61,0.59-1.03,0.66c-0.48,0.08-1.07-0.2-2.25-0.75l-3.08-1.44
			c-2.22-1.04-3.33-1.56-4.15-2.36c-0.72-0.71-1.27-1.57-1.61-2.52C0,8.37,0,7.15,0,4.69V2.5c0-0.88,0-1.31,0.17-1.65
			c0.15-0.29,0.39-0.53,0.68-0.68C1.19,0,1.63,0,2.5,0H10.27z"/>
            <path fill="#FF5F3B" d="M35.82,0c0.88,0,1.31,0,1.65,0.17c0.29,0.15,0.53,0.39,0.68,0.68c0.17,0.33,0.17,0.77,0.17,1.65v2.19
			c0,2.45,0,3.68-0.38,4.76c-0.34,0.95-0.89,1.81-1.61,2.52c-0.81,0.8-1.93,1.32-4.15,2.36l-6.64,3.09V2.5c0-0.88,0-1.31,0.17-1.65
			c0.15-0.29,0.39-0.53,0.68-0.68C26.73,0,27.17,0,28.05,0H35.82z"/>
            <path fill="#FF5F3B" d="M25.54,17.42v14.92c0,0.88,0,1.31-0.17,1.65c-0.15,0.29-0.39,0.53-0.68,0.68c-0.33,0.17-0.77,0.17-1.65,0.17
			h-7.77c-0.88,0-1.31,0-1.65-0.17c-0.29-0.15-0.53-0.39-0.68-0.68c-0.17-0.33-0.17-0.77-0.17-1.65v-2.2c0-2.45,0-3.68,0.38-4.76
			c0.34-0.95,0.89-1.81,1.61-2.52c0.81-0.8,1.93-1.32,4.15-2.35L25.54,17.42z"/>
	</g>
</g>
</svg>
