<svg width="24" height="24" viewBox="0 0 24 24" fill="none" xmlns="http://www.w3.org/2000/svg">
<path fill-rule="evenodd" clip-rule="evenodd" d="M14.2506 4.22412C13.7529 3.46409 12.899 3 11.9774 3C10.9944 3 10.0883 3.52803 9.60946 4.38002L2.37916 16.9368L2.28657 17.1052C1.88466 17.902 1.90498 18.85 2.35085 19.633C2.82858 20.4719 3.72188 20.9933 4.69285 21H19.2619L19.4446 20.9957C20.3529 20.9438 21.1797 20.4418 21.638 19.6525C22.1267 18.8106 22.1202 17.7726 21.6208 16.9368L14.3453 4.38002L14.2506 4.22412ZM10.5581 4.74715C10.8784 4.28032 11.407 4 11.9774 4C12.559 4 13.0996 4.29184 13.414 4.77196L13.4906 4.89921L20.7555 17.4382L20.8349 17.5868C21.0735 18.0906 21.0516 18.6709 20.7731 19.1505C20.4856 19.6458 19.9641 19.9644 19.3875 19.9973L19.2382 20.0003L4.69285 20L4.54193 19.9922C3.99279 19.9395 3.49554 19.6223 3.21984 19.1382C2.94138 18.6492 2.92694 18.0561 3.17942 17.5555L3.25535 17.4188L10.4761 4.87902L10.5581 4.74715ZM11 17C11 17.5523 11.4477 18 12 18C12.5523 18 13 17.5523 13 17C13 16.4477 12.5523 16 12 16C11.4477 16 11 16.4477 11 17ZM11 14C11 14.5523 11.4477 15 12 15C12.5523 15 13 14.5523 13 14V9C13 8.44771 12.5523 8 12 8C11.4477 8 11 8.44772 11 9V14Z" fill="#C88900"/>
</svg>
