<svg width="23" height="24" viewBox="0 0 23 24" fill="none" xmlns="http://www.w3.org/2000/svg">
<path d="M11.4471 5.33398C8.10579 5.33398 5.38672 8.0259 5.38672 11.3338C5.38672 13.3164 6.40889 15.1843 8.0802 16.2963V18.0003C8.0802 19.8389 9.59124 21.3335 11.4471 21.3335C13.3029 21.3335 14.8139 19.8389 14.8139 18.0003V16.2963C16.4852 15.1843 17.5074 13.3177 17.5074 11.3338C17.5074 8.0259 14.7883 5.33398 11.4471 5.33398ZM13.8025 15.3523C13.5951 15.471 13.4672 15.691 13.4672 15.9283V18.0003C13.4672 19.1029 12.5608 20.0002 11.4471 20.0002C10.3333 20.0002 9.42694 19.1029 9.42694 18.0003V15.927C9.42694 15.6897 9.299 15.4697 9.0916 15.351C7.61557 14.499 6.73346 12.9977 6.73346 11.3338C6.73346 8.76055 8.84784 6.66728 11.4471 6.66728C14.0463 6.66728 16.1606 8.76055 16.1606 11.3338C16.1606 12.9977 15.2785 14.499 13.8025 15.3523Z" fill="#4E5F6D"/>
<path d="M22.2232 10.667H20.8765C20.5048 10.667 20.2031 10.9656 20.2031 11.3336C20.2031 11.7016 20.5048 12.0003 20.8765 12.0003H22.2232C22.5949 12.0003 22.8966 11.7016 22.8966 11.3336C22.8966 10.9656 22.5949 10.667 22.2232 10.667Z" fill="#4E5F6D"/>
<path d="M2.02011 10.667H0.673371C0.30167 10.667 0 10.9656 0 11.3336C0 11.7016 0.30167 12.0003 0.673371 12.0003H2.02011C2.39181 12.0003 2.69348 11.7016 2.69348 11.3336C2.69348 10.9656 2.39181 10.667 2.02011 10.667Z" fill="#4E5F6D"/>
<path d="M11.4468 2.66658C11.8185 2.66658 12.1202 2.36793 12.1202 1.99994V0.666646C12.1202 0.298657 11.8185 0 11.4468 0C11.0751 0 10.7734 0.298657 10.7734 0.666646V1.99994C10.7734 2.36793 11.0751 2.66658 11.4468 2.66658Z" fill="#4E5F6D"/>
<path d="M5.2575 4.26068L4.30536 3.31804C4.04274 3.05805 3.61582 3.05805 3.35321 3.31804C3.0906 3.57803 3.0906 4.00069 3.35321 4.26068L4.30536 5.20332C4.43599 5.33398 4.60837 5.39931 4.78075 5.39931C4.95314 5.39931 5.12552 5.33398 5.2575 5.20465C5.52011 4.94332 5.52011 4.522 5.2575 4.26068Z" fill="#4E5F6D"/>
<path d="M18.5905 3.31804L17.6384 4.26068C17.3758 4.52067 17.3758 4.94332 17.6384 5.20332C17.7703 5.33398 17.9427 5.39798 18.1151 5.39798C18.2875 5.39798 18.4599 5.33265 18.5919 5.20332L19.544 4.26068C19.8066 4.00069 19.8066 3.57803 19.544 3.31804C19.2814 3.05805 18.8545 3.05805 18.5905 3.31804Z" fill="#4E5F6D"/>
<path d="M12.7965 22.667H10.1031C9.73136 22.667 9.42969 22.9656 9.42969 23.3336C9.42969 23.7016 9.73136 24.0003 10.1031 24.0003H12.7965C13.1682 24.0003 13.4699 23.7016 13.4699 23.3336C13.4699 22.9656 13.1682 22.667 12.7965 22.667Z" fill="#4E5F6D"/>
</svg>
