<svg width="25" height="24" viewBox="0 0 25 24" fill="none" xmlns="http://www.w3.org/2000/svg">
    <path d="M17.5909 19.2727C17.5909 19.6744 17.2653 20 16.8636 20C16.462 20 16.1364 19.6744 16.1364 19.2727C16.1364 18.8711 16.462 18.5455 16.8636 18.5455C17.2653 18.5455 17.5909 18.8711 17.5909 19.2727Z" fill="#5D5FEF"/>
    <path d="M20.5 16.3636C20.5 16.7653 20.1744 17.0909 19.7727 17.0909C19.3711 17.0909 19.0455 16.7653 19.0455 16.3636C19.0455 15.962 19.3711 15.6364 19.7727 15.6364C20.1744 15.6364 20.5 15.962 20.5 16.3636Z" fill="#5D5FEF"/>
    <path d="M5.95455 7.63636C5.95455 8.03803 5.62893 8.36364 5.22727 8.36364C4.82561 8.36364 4.5 8.03803 4.5 7.63636C4.5 7.2347 4.82561 6.90909 5.22727 6.90909C5.62893 6.90909 5.95455 7.2347 5.95455 7.63636Z" fill="#5D5FEF"/>
    <path d="M8.86364 4.72727C8.86364 5.12893 8.53803 5.45455 8.13636 5.45455C7.7347 5.45455 7.40909 5.12893 7.40909 4.72727C7.40909 4.32561 7.7347 4 8.13636 4C8.53803 4 8.86364 4.32561 8.86364 4.72727Z" fill="#5D5FEF"/>
    <path fill-rule="evenodd" clip-rule="evenodd" d="M12.5 7.98758L12.0257 9.94369C11.8361 10.7256 11.2256 11.3361 10.4437 11.5257L8.48758 12L10.4437 12.4743C11.2256 12.6639 11.8361 13.2744 12.0257 14.0563L12.5 16.0124L12.9743 14.0563C13.1639 13.2744 13.7744 12.6639 14.5563 12.4743L16.5124 12L14.5563 11.5257C13.7744 11.3361 13.1639 10.7256 12.9743 9.94369L12.5 7.98758ZM13.4493 6.92841C13.2079 5.93295 11.7921 5.93295 11.5507 6.92841L10.8866 9.66747C10.8004 10.0229 10.5229 10.3004 10.1675 10.3866L7.42841 11.0507C6.43295 11.2921 6.43295 12.7079 7.42841 12.9493L10.1675 13.6134C10.5229 13.6996 10.8004 13.9771 10.8866 14.3325L11.5507 17.0716C11.7921 18.067 13.2079 18.067 13.4493 17.0716L14.1134 14.3325C14.1996 13.9771 14.4771 13.6996 14.8325 13.6134L17.5716 12.9493C18.567 12.7079 18.567 11.2921 17.5716 11.0507L14.8325 10.3866C14.4771 10.3004 14.1996 10.0229 14.1134 9.66747L13.4493 6.92841Z" fill="#5D5FEF"/>
    <path fill-rule="evenodd" clip-rule="evenodd" d="M10.3215 19.5016C10.1951 19.8403 9.81812 20.0124 9.47944 19.8859C7.28567 19.0671 5.52351 17.3674 4.62344 15.2166C4.48389 14.8831 4.64109 14.4997 4.97456 14.3601C5.30804 14.2206 5.6915 14.3778 5.83105 14.7112C6.59178 16.529 8.08294 17.9674 9.9372 18.6595C10.2759 18.7859 10.448 19.1629 10.3215 19.5016Z" fill="#5D5FEF"/>
    <path fill-rule="evenodd" clip-rule="evenodd" d="M20.0021 9.83328C19.6635 9.95995 19.2863 9.78817 19.1597 9.44959C18.4621 7.58512 17.007 6.08779 15.1686 5.33273C14.8342 5.19539 14.6745 4.81298 14.8118 4.47859C14.9492 4.1442 15.3316 3.98446 15.666 4.1218C17.8401 5.01479 19.5601 6.78398 20.3858 8.99088C20.5124 9.32946 20.3406 9.70661 20.0021 9.83328Z" fill="#5D5FEF"/>
</svg>
