<svg width="24" height="24" viewBox="0 0 24 24" fill="none" xmlns="http://www.w3.org/2000/svg">
<g clip-path="url(#clip0_3165_40773)">
<path fill-rule="evenodd" clip-rule="evenodd" d="M5.34616 16.8672C4.66991 16.0491 4.31693 14.9159 4.51875 13.7511C4.70763 12.6609 5.39191 11.4962 6.84759 10.5192L11.8636 16.5875C10.63 17.8332 9.35714 18.2858 8.25089 18.2662C7.06888 18.2452 6.0224 17.6853 5.34616 16.8672ZM6.6027 9.51693C4.76291 10.6504 3.81276 12.1131 3.55783 13.5846C3.32588 14.9233 3.67799 16.2255 4.38994 17.2225C3.46749 17.8292 2.8496 18.8075 2.59448 19.8173C2.32209 20.8955 2.44516 22.0939 3.16059 22.9594L3.91227 22.3381C3.45003 21.7789 3.31965 20.9284 3.54 20.0562C3.75599 19.2013 4.29157 18.4068 5.045 17.9631C5.8736 18.7244 6.99277 19.2192 8.23359 19.2412C9.72669 19.2677 11.3421 18.6098 12.8016 17.0163C13.0105 16.7881 13.0108 16.4447 12.8211 16.2152L7.39193 9.64704C7.19643 9.41053 6.85832 9.35945 6.6027 9.51693ZM18.3484 6.11948C19.0246 6.93759 19.3776 8.07077 19.1758 9.23563C18.9869 10.3258 18.3026 11.4905 16.8469 12.4675L11.831 6.39925C13.0645 5.15345 14.3374 4.7009 15.4436 4.72053C16.6256 4.7415 17.6721 5.30138 18.3484 6.11948ZM17.0918 13.4698C18.9316 12.3363 19.8818 10.8735 20.1367 9.40211C20.3198 8.34512 20.1389 7.31091 19.7042 6.43173C20.4853 5.82155 21.0128 4.93407 21.2435 4.02078C21.5159 2.94262 21.3928 1.74422 20.6774 0.878696L19.9257 1.50003C20.3879 2.05925 20.5183 2.9097 20.298 3.7819C20.1213 4.48133 19.7306 5.14032 19.1818 5.59988C19.155 5.56556 19.1277 5.53164 19.1001 5.49814C18.253 4.47336 16.9438 3.77175 15.4609 3.74545C13.9678 3.71896 12.3524 4.37689 10.893 5.97046C10.684 6.19859 10.6837 6.54204 10.8734 6.77152L11.8248 7.92252C11.8056 7.93435 11.7869 7.94765 11.769 7.96245L9.87574 9.52744C9.66817 9.69901 9.63899 10.0064 9.81057 10.2139C9.98214 10.4215 10.2895 10.4507 10.4971 10.2791L12.3904 8.71413C12.4083 8.69933 12.4249 8.68353 12.4401 8.66686L14.4481 11.0961C14.429 11.1079 14.4104 11.1211 14.3927 11.1358L12.4994 12.7008C12.2918 12.8723 12.2626 13.1797 12.4342 13.3873C12.6058 13.5949 12.9131 13.624 13.1207 13.4525L15.014 11.8875C15.0318 11.8728 15.0483 11.8571 15.0634 11.8405L16.3026 13.3396C16.4981 13.5762 16.8362 13.6272 17.0918 13.4698Z" fill="#0B1117"/>
</g>
<defs>
<clipPath id="clip0_3165_40773">
<rect width="24" height="24" fill="white"/>
</clipPath>
</defs>
</svg>
