<svg width="24" height="24" viewBox="0 0 24 24" fill="none" xmlns="http://www.w3.org/2000/svg">
<path fill-rule="evenodd" clip-rule="evenodd" d="M10.1641 5.22553C12.5817 4.59272 15.1527 5.31363 16.8888 7.1112C18.6864 8.84734 19.4073 11.4183 18.7745 13.8359C18.1417 16.2536 16.2536 18.1417 13.8359 18.7745C11.4183 19.4073 8.84734 18.6864 7.1112 16.8888C5.31363 15.1527 4.59272 12.5817 5.22553 10.1641C5.85835 7.74642 7.74642 5.85835 10.1641 5.22553ZM13.7985 9.68615C13.9402 9.54435 14.1707 9.54435 14.3124 9.68615C14.4542 9.82868 14.4542 10.0585 14.3124 10.2003L12.5132 12.0001L14.3139 13.7999C14.4556 13.9417 14.4556 14.1722 14.3139 14.314C14.2426 14.3846 14.1496 14.4202 14.0565 14.4202C13.9635 14.4202 13.8704 14.3853 13.7992 14.314L12 12.5142L10.2008 14.314C10.1295 14.3846 10.0365 14.4202 9.94344 14.4202C9.85039 14.4202 9.75734 14.3853 9.6861 14.314C9.54435 14.1722 9.54435 13.9417 9.6861 13.7999L11.4853 12.0001L9.6861 10.2003C9.54435 10.0585 9.54435 9.82796 9.6861 9.68615C9.82786 9.54435 10.0583 9.54435 10.2001 9.68615L11.9993 11.486L13.7985 9.68615Z" fill="#6D7C88"/>
</svg>
