<svg width="32" height="32" viewBox="0 0 32 32" fill="none" xmlns="http://www.w3.org/2000/svg">
<path fill-rule="evenodd" clip-rule="evenodd" d="M16 6C21.1774 6 25.5407 9.80143 26.1758 14.7529C28.7732 15.3657 30.6667 17.65 30.6667 20.2857C30.6667 23.3445 28.188 25.8487 25.0839 25.9934L24.8 26H7.93337C4.29457 26 1.33337 23.1157 1.33337 19.5714C1.33337 16.7171 3.30751 14.1914 6.08977 13.4029C7.28217 9.08714 11.3786 6 16 6ZM16 7.33333C12.1015 7.33333 8.61462 9.86133 7.46984 13.4395L7.37496 13.7579L7.17516 14.4811L6.45336 14.6857C4.22683 15.3167 2.66671 17.332 2.66671 19.5714C2.66671 22.2839 4.87823 24.5227 7.66222 24.66L7.93337 24.6667H24.8C27.3069 24.6667 29.3334 22.6928 29.3334 20.2857C29.3334 18.3771 28.0082 16.675 26.1191 16.1168L25.8696 16.0506L24.9708 15.8385L24.8533 14.9225C24.3018 10.6228 20.4923 7.33333 16 7.33333Z" fill="#4E5F6D"/>
</svg>
