<svg width="22" height="16" viewBox="0 0 22 16" fill="none" xmlns="http://www.w3.org/2000/svg">
<path fill-rule="evenodd" clip-rule="evenodd" d="M11 0.5C14.883 0.5 18.1555 3.35107 18.6318 7.06464C20.5799 7.52429 22 9.2375 22 11.2143C22 13.5083 20.141 15.3866 17.8129 15.495L17.6 15.5H4.95C2.2209 15.5 0 13.3368 0 10.6786C0 8.53786 1.4806 6.64357 3.5673 6.05214C4.4616 2.81536 7.5339 0.5 11 0.5ZM11 1.5C8.07609 1.5 5.46094 3.396 4.60235 6.07965L4.53119 6.31846L4.38134 6.86081L3.83999 7.01425C2.17009 7.48754 1 8.99903 1 10.6786C1 12.7129 2.65865 14.392 4.74664 14.495L4.95 14.5H17.6C19.4801 14.5 21 13.0196 21 11.2143C21 9.78281 20.0061 8.50624 18.5893 8.0876L18.4022 8.03792L17.728 7.87886L17.6399 7.19186C17.2263 3.96708 14.3692 1.5 11 1.5Z" fill="#0B1117"/>
</svg>
