<svg width="18" height="18" viewBox="0 0 18 18" fill="none" xmlns="http://www.w3.org/2000/svg">
<path fill-rule="evenodd" clip-rule="evenodd" d="M10.025 1.65606C9.89453 1.55544 9.73369 1.5 9.5671 1.5C9.3672 1.5 9.17557 1.57984 9.03479 1.72177L6.92057 3.84349L1.71746 9.0391L1.65255 9.11382C1.55325 9.24465 1.49908 9.40534 1.50003 9.57141V12.7502L1.50507 12.8377C1.54838 13.2106 1.86528 13.5 2.24977 13.5H5.42861L5.52741 13.494C5.69034 13.4733 5.84301 13.3995 5.96092 13.2826L11.149 8.08695L13.2782 6.00271L13.344 5.92828C13.4446 5.79783 13.5 5.63699 13.5 5.4704C13.5 5.2705 13.4202 5.07887 13.2782 4.9381L10.0994 1.72177L10.025 1.65606ZM8.05143 3.77109L9.56701 2.25L12.7494 5.46985L11.2341 6.9538L10.7892 6.50888L8.49113 4.21079L8.05143 3.77109ZM7.52207 4.30239L7.45051 4.37421L2.24994 9.56726L2.25001 12.7492L5.43226 12.75L10.6244 7.55099L10.6983 7.47861L10.2589 7.03921L7.9608 4.74112L7.52207 4.30239ZM16.125 15C16.3321 15 16.5 15.1679 16.5 15.375C16.5 15.5591 16.3673 15.7122 16.1924 15.744L16.125 15.75H1.875C1.66789 15.75 1.5 15.5821 1.5 15.375C1.5 15.1909 1.63266 15.0378 1.80759 15.006L1.875 15H16.125Z" fill="#4E5F6D"/>
</svg>
