<svg width="16" height="19" viewBox="0 0 16 19" fill="none" xmlns="http://www.w3.org/2000/svg">
<path fill-rule="evenodd" clip-rule="evenodd" d="M4 4.501V5.501H2.5C1.67157 5.501 1 6.17257 1 7.001V16.001C1 16.8294 1.67157 17.501 2.5 17.501H9.5C10.3284 17.501 11 16.8294 11 16.001V14.501H12V16.001C12 17.3817 10.8807 18.501 9.5 18.501H2.5C1.11929 18.501 0 17.3817 0 16.001V7.001C0 5.62029 1.11929 4.501 2.5 4.501H4ZM12 1.501H6.5C5.67157 1.501 5 2.17258 5 3.001V12.001C5 12.8294 5.67157 13.501 6.5 13.501H13.5C14.3284 13.501 15 12.8294 15 12.001V4.501H12.5C12.2239 4.501 12 4.27714 12 4.001V1.501ZM16 4.02898V12.001C16 13.3817 14.8807 14.501 13.5 14.501H6.5C5.11929 14.501 4 13.3817 4 12.001V3.001C4 1.62029 5.11929 0.501002 6.5 0.501002H12.472C12.6048 0.492583 12.7429 0.536842 12.8536 0.647449L15.8536 3.64745C15.9642 3.75806 16.0084 3.89623 16 4.02898ZM13 3.501H14.2929L13 2.20811V3.501ZM7.5 10.501C7.22386 10.501 7 10.2771 7 10.001C7 9.72486 7.22386 9.501 7.5 9.501H9.5C9.77614 9.501 10 9.72486 10 10.001C10 10.2771 9.77614 10.501 9.5 10.501H7.5ZM7.5 8.501C7.22386 8.501 7 8.27714 7 8.001C7 7.72486 7.22386 7.501 7.5 7.501H12.5C12.7761 7.501 13 7.72486 13 8.001C13 8.27714 12.7761 8.501 12.5 8.501H7.5ZM7.5 6.501C7.22386 6.501 7 6.27714 7 6.001C7 5.72486 7.22386 5.501 7.5 5.501H12.5C12.7761 5.501 13 5.72486 13 6.001C13 6.27714 12.7761 6.501 12.5 6.501H7.5Z" fill="#2B59C3"/>
</svg>
