<svg width="24" height="24" viewBox="0 0 24 24" fill="none" xmlns="http://www.w3.org/2000/svg">
<path fill-rule="evenodd" clip-rule="evenodd" d="M15.3441 8.6538C15.1391 8.44873 14.8059 8.44873 14.6009 8.6538L11.9989 11.2566L9.39701 8.6538C9.19201 8.44873 8.85875 8.44873 8.65375 8.6538C8.44875 8.85887 8.44875 9.19224 8.65375 9.39731L11.2557 12.0001L8.65375 14.6029C8.44875 14.808 8.44875 15.1414 8.65375 15.3465C8.75678 15.4495 8.89134 15.5 9.02591 15.5C9.16047 15.5 9.29504 15.4485 9.39806 15.3465L12 12.7436L14.6019 15.3465C14.705 15.4495 14.8395 15.5 14.9741 15.5C15.1087 15.5 15.2432 15.4485 15.3462 15.3465C15.5513 15.1414 15.5513 14.808 15.3462 14.6029L12.7422 12.0001L15.3441 9.39731C15.5491 9.19224 15.5491 8.85992 15.3441 8.6538Z" fill="#0B1117"/>
</svg>
