<svg width="32" height="32" viewBox="0 0 32 32" fill="none" xmlns="http://www.w3.org/2000/svg">
<path fill-rule="evenodd" clip-rule="evenodd" d="M4 9.16667C4 6.14624 9.36561 4 15.9167 4C22.4677 4 27.8333 6.14624 27.8333 9.16667V15.9157V22.6657C27.8333 25.6859 22.4673 27.8323 15.9167 27.8323C9.50246 27.8323 4.2241 25.7744 4.00695 22.8533L4 22.6657V15.9157V9.16667ZM5.33333 18.3614V22.6657C5.33333 24.6156 10.0417 26.499 15.9167 26.499C21.6581 26.499 26.2854 24.7002 26.4927 22.7985L26.5 22.6657V18.3618C24.5107 20.03 20.5046 21.0823 15.9167 21.0823C11.3292 21.0823 7.32274 20.0297 5.33333 18.3614ZM26.5 15.9157V11.6126C24.5107 13.2808 20.5043 14.3333 15.9167 14.3333C11.329 14.3333 7.32268 13.2808 5.33333 11.6126V15.9157C5.33333 17.8656 10.0417 19.749 15.9167 19.749C21.659 19.749 26.2854 17.9508 26.4927 16.0485L26.5 15.9157ZM15.9167 5.33333C21.792 5.33333 26.5 7.21653 26.5 9.16667C26.5 11.1168 21.792 13 15.9167 13C10.0413 13 5.33333 11.1168 5.33333 9.16667C5.33333 7.21653 10.0413 5.33333 15.9167 5.33333Z" fill="#4E5F6D"/>
</svg>
