<svg width="25" height="25" viewBox="0 0 25 25" fill="none" xmlns="http://www.w3.org/2000/svg">
<path d="M6 9C4.07 9 2.5 10.57 2.5 12.5C2.5 14.43 4.07 16 6 16C7.93 16 9.5 14.43 9.5 12.5C9.5 10.57 7.93 9 6 9ZM6 15C4.621 15 3.5 13.878 3.5 12.5C3.5 11.122 4.621 10 6 10C7.379 10 8.5 11.122 8.5 12.5C8.5 13.878 7.379 15 6 15Z" fill="#0B1117"/>
<path d="M16.5 5C16.5 4.724 16.276 4.5 16 4.5L11 4.5C10.724 4.5 10.5 4.724 10.5 5L10.5 20C10.5 20.276 10.724 20.5 11 20.5L16 20.5C16.276 20.5 16.5 20.276 16.5 20C16.5 19.724 16.276 19.5 16 19.5L11.5 19.5L11.5 13L16 13C16.276 13 16.5 12.776 16.5 12.5C16.5 12.224 16.276 12 16 12L11.5 12L11.5 5.5L16 5.5C16.276 5.5 16.5 5.276 16.5 5Z" fill="#0B1117"/>
<path d="M17.5 5C17.5 6.378 18.621 7.5 20 7.5C21.379 7.5 22.5 6.378 22.5 5C22.5 3.622 21.379 2.5 20 2.5C18.621 2.5 17.5 3.622 17.5 5ZM21.5 5C21.5 5.827 20.827 6.5 20 6.5C19.173 6.5 18.5 5.827 18.5 5C18.5 4.173 19.173 3.5 20 3.5C20.827 3.5 21.5 4.173 21.5 5Z" fill="#0B1117"/>
<path d="M17.5 20C17.5 21.378 18.621 22.5 20 22.5C21.379 22.5 22.5 21.378 22.5 20C22.5 18.622 21.379 17.5 20 17.5C18.621 17.5 17.5 18.622 17.5 20ZM21.5 20C21.5 20.827 20.827 21.5 20 21.5C19.173 21.5 18.5 20.827 18.5 20C18.5 19.173 19.173 18.5 20 18.5C20.827 18.5 21.5 19.173 21.5 20Z" fill="#0B1117"/>
<path d="M17.5 12.5C17.5 13.878 18.621 15 20 15C21.379 15 22.5 13.878 22.5 12.5C22.5 11.122 21.379 10 20 10C18.621 10 17.5 11.122 17.5 12.5ZM21.5 12.5C21.5 13.327 20.827 14 20 14C19.173 14 18.5 13.327 18.5 12.5C18.5 11.673 19.173 11 20 11C20.827 11 21.5 11.673 21.5 12.5Z" fill="#0B1117"/>
</svg>
