<svg width="16" height="16" viewBox="0 0 16 16" fill="none" xmlns="http://www.w3.org/2000/svg">
<path fill-rule="evenodd" clip-rule="evenodd" d="M2.99996 2H13C13.9186 2 14.6666 2.74733 14.6666 3.66667V10.3333C14.6666 11.2527 13.9186 12 13 12H11.3333V13.6667C11.3333 13.7847 11.2713 13.8933 11.17 13.9533C11.118 13.9847 11.0586 14 11 14C10.9446 14 10.89 13.986 10.8406 13.9587C10.8406 13.9587 7.76729 12.282 7.24863 12H2.99996C2.08129 12 1.33329 11.2527 1.33329 10.3333V3.66667C1.33329 2.74733 2.08129 2 2.99996 2ZM1.99996 10.3333C1.99996 10.8847 2.44863 11.3333 2.99996 11.3333H7.33329C7.41463 11.3333 7.41863 11.3333 10.6666 13.1047V11.6667C10.6666 11.4827 10.816 11.3333 11 11.3333H13C13.5513 11.3333 14 10.8847 14 10.3333V3.66667C14 3.11533 13.5513 2.66667 13 2.66667H2.99996C2.44863 2.66667 1.99996 3.11533 1.99996 3.66667V10.3333ZM11.6666 4.66667H4.33329C4.14929 4.66667 3.99996 4.816 3.99996 5C3.99996 5.184 4.14929 5.33333 4.33329 5.33333H11.6666C11.8506 5.33333 12 5.184 12 5C12 4.816 11.8506 4.66667 11.6666 4.66667ZM11.6666 6.66667H4.33329C4.14929 6.66667 3.99996 6.816 3.99996 7C3.99996 7.184 4.14929 7.33333 4.33329 7.33333H11.6666C11.8506 7.33333 12 7.184 12 7C12 6.816 11.8506 6.66667 11.6666 6.66667ZM4.33329 8.66667H11.6666C11.8506 8.66667 12 8.816 12 9C12 9.184 11.8506 9.33333 11.6666 9.33333H4.33329C4.14929 9.33333 3.99996 9.184 3.99996 9C3.99996 8.816 4.14929 8.66667 4.33329 8.66667Z" fill="#4E5F6D"/>
</svg>
