<svg width="32" height="32" viewBox="0 0 32 32" fill="none" xmlns="http://www.w3.org/2000/svg">
<path d="M20 3.27706C18.7372 2.88046 17.3936 2.66666 16 2.66666C8.63616 2.66666 2.66663 8.63619 2.66663 16C2.66663 23.3638 8.63616 29.3333 16 29.3333C23.3638 29.3333 29.3333 23.3638 29.3333 16C29.3333 13.7129 28.7574 11.5603 27.7428 9.67925M22.6666 7.66666H22.6733M14 29.1843L14.0002 26.2466C14.0002 26.0874 14.0571 25.9336 14.1607 25.8127L17.475 21.9459C17.7474 21.6281 17.663 21.1408 17.2996 20.9332L13.4913 18.757C13.3879 18.6978 13.3021 18.6121 13.2431 18.5086L10.7606 14.1582C10.6314 13.9317 10.3821 13.8014 10.1224 13.8245L2.7522 14.481M28 7.99999C28 10.9455 25.3333 13.3333 22.6666 16C20 13.3333 17.3333 10.9455 17.3333 7.99999C17.3333 5.05447 19.7211 2.66666 22.6666 2.66666C25.6121 2.66666 28 5.05447 28 7.99999ZM23 7.66666C23 7.85075 22.8507 7.99999 22.6666 7.99999C22.4825 7.99999 22.3333 7.85075 22.3333 7.66666C22.3333 7.48256 22.4825 7.33332 22.6666 7.33332C22.8507 7.33332 23 7.48256 23 7.66666Z" stroke="#4E5F6D" stroke-width="1.5" stroke-linecap="round" stroke-linejoin="round"/>
</svg>
