<svg width="24" height="24" viewBox="0 0 24 24" fill="none" xmlns="http://www.w3.org/2000/svg">
<path fill-rule="evenodd" clip-rule="evenodd" d="M11.6865 12.8596C11.8823 12.6649 11.8832 12.3483 11.6884 12.1525C10.7792 11.2384 10.7795 9.76144 11.6889 8.84759L13.7776 6.7489C14.7404 5.78141 16.3006 5.76258 17.2865 6.70655C17.3182 6.7369 17.349 6.76817 17.3789 6.8003C18.2378 7.72325 18.1859 9.16771 17.2629 10.0266L14.9987 12.1337C14.7966 12.3218 14.7852 12.6382 14.9733 12.8403C15.1614 13.0425 15.4778 13.0538 15.68 12.8657L17.9442 10.7587C19.2714 9.52352 19.3461 7.4463 18.111 6.11905C18.068 6.07285 18.0237 6.02789 17.9781 5.98424C16.5987 4.66354 14.4159 4.68988 13.0688 6.0435L10.9801 8.14218C9.68249 9.44608 9.68215 11.5534 10.9794 12.8577C11.1741 13.0535 11.4907 13.0544 11.6865 12.8596ZM12.1534 11.1396C11.9576 11.3344 11.9567 11.6509 12.1515 11.8467C13.0601 12.7603 13.0588 14.2365 12.1488 15.1486L9.98099 17.321C9.07622 18.2278 7.60913 18.2339 6.69657 17.3346C5.78739 16.4383 5.77692 14.9747 6.67318 14.0655L8.85663 11.8506C9.05049 11.6539 9.04823 11.3374 8.85157 11.1435C8.65492 10.9496 8.33834 10.9519 8.14448 11.1486L5.96103 13.3635C4.67705 14.666 4.69205 16.7627 5.99487 18.047C7.29883 19.3321 9.3957 19.3233 10.6889 18.0274L12.8566 15.8549C14.1558 14.553 14.1575 12.4456 12.8605 11.1415C12.6658 10.9458 12.3492 10.9449 12.1534 11.1396Z" fill="#4E5F6D"/>
</svg>
