<svg width="16" height="16" viewBox="0 0 16 16" fill="none" xmlns="http://www.w3.org/2000/svg">
<path fill-rule="evenodd" clip-rule="evenodd" d="M0.333374 7.99992C0.333374 3.76574 3.76586 0.333252 8.00004 0.333252C12.2342 0.333252 15.6667 3.76574 15.6667 7.99992C15.6667 12.2341 12.2342 15.6666 8.00004 15.6666C3.76586 15.6666 0.333374 12.2341 0.333374 7.99992ZM15 7.99992C15 4.13393 11.866 0.999919 8.00004 0.999919C4.13405 0.999919 1.00004 4.13393 1.00004 7.99992C1.00004 11.8659 4.13405 14.9999 8.00004 14.9999C11.866 14.9999 15 11.8659 15 7.99992ZM8.00004 10.9993L8.06789 11.0038C8.31194 11.0369 8.50004 11.2461 8.50004 11.4993C8.50004 11.7754 8.27618 11.9993 8.00004 11.9993C7.7239 11.9993 7.50004 11.7754 7.50004 11.4993C7.50004 11.2461 7.68814 11.0369 7.93219 11.0038L8.00004 10.9993ZM10.2461 6.03753C9.9305 4.91577 8.83561 4.19887 7.68121 4.35811C6.52681 4.51734 5.66688 5.50387 5.66671 6.6692C5.66668 6.8533 5.8159 7.00256 5.99999 7.00258C6.18408 7.00261 6.33335 6.8534 6.33337 6.6693C6.3335 5.83693 6.94773 5.13226 7.7723 5.01852C8.59687 4.90478 9.37894 5.41685 9.6044 6.21811C9.82987 7.01937 9.42959 7.86413 8.66671 8.19708L8.55538 8.25064C8.01179 8.53737 7.66672 9.1033 7.66671 9.72458V9.99925L7.67208 10.0592C7.7003 10.2147 7.8364 10.3326 8.00004 10.3326C8.18413 10.3326 8.33337 10.1833 8.33337 9.99925V9.72458L8.33822 9.62606C8.37354 9.26839 8.59932 8.95388 8.93337 8.80809C10.0014 8.34196 10.5618 7.15929 10.2461 6.03753Z" fill="#6D7C88"/>
</svg>
