<svg width="24" height="24" viewBox="0 0 24 24" fill="none" xmlns="http://www.w3.org/2000/svg">
    <path fill-rule="evenodd" clip-rule="evenodd"
          d="M12.1526 3.11085C12.2942 2.98416 12.498 2.96607 12.6574 3.05656L12.7329 3.11085L20.1265 9.72616L20.133 9.73197L22.7405 12.065C22.9196 12.2253 22.9349 12.5004 22.7747 12.6794C22.6344 12.8361 22.4063 12.8674 22.2315 12.7655L22.1603 12.7136L20.2748 11.0267V19.7862C20.2748 20.4254 19.7523 20.9329 19.1013 20.9938L18.9695 21H15.0588C15.057 21 15.0552 21 15.0534 21H9.83205C9.83026 21 9.82847 21 9.82668 21H5.91604C5.24967 21 4.68547 20.5324 4.61755 19.9122L4.6107 19.7862V11.0266L2.72525 12.7136C2.56855 12.8538 2.33836 12.8596 2.17591 12.7389L2.11085 12.6794C1.97065 12.5227 1.96482 12.2926 2.08553 12.1301L2.14499 12.065L4.75344 9.73117L4.75816 9.72695L12.1526 3.11085ZM15.4885 20.1298V15.1145C15.4885 14.4327 14.894 13.9008 14.1832 13.9008H10.7023C9.99148 13.9008 9.39694 14.4327 9.39694 15.1145V20.1298H5.91604L5.82545 20.1223C5.62233 20.0882 5.48093 19.9422 5.48093 19.7862V10.248L12.4427 4.01918L19.4046 10.2481V19.7862L19.3962 19.8522C19.3574 20.0032 19.1886 20.1298 18.9695 20.1298H15.4885ZM14.1832 14.7711L14.2738 14.7785C14.4769 14.8126 14.6183 14.9586 14.6183 15.1146L14.618 20.1294H10.2663L10.2672 15.1146C10.2672 14.9363 10.4518 14.7711 10.7023 14.7711H14.1832Z"
          fill="#507CE1"/>
</svg>
