<svg width="24" height="18" viewBox="0 0 24 18" fill="none" xmlns="http://www.w3.org/2000/svg">
<path fill-rule="evenodd" clip-rule="evenodd" d="M4.5 4.875C5.05228 4.875 5.5 4.53921 5.5 4.125C5.5 3.71079 5.05228 3.375 4.5 3.375C3.94772 3.375 3.5 3.71079 3.5 4.125C3.5 4.53921 3.94772 4.875 4.5 4.875ZM4.5 9.375C5.05228 9.375 5.5 9.03921 5.5 8.625C5.5 8.21079 5.05228 7.875 4.5 7.875C3.94772 7.875 3.5 8.21079 3.5 8.625C3.5 9.03921 3.94772 9.375 4.5 9.375ZM5.5 13.125C5.5 13.5392 5.05228 13.875 4.5 13.875C3.94772 13.875 3.5 13.5392 3.5 13.125C3.5 12.7108 3.94772 12.375 4.5 12.375C5.05228 12.375 5.5 12.7108 5.5 13.125ZM19.5 4.5H8.5C8.224 4.5 8 4.332 8 4.125C8 3.918 8.224 3.75 8.5 3.75H19.5C19.776 3.75 20 3.918 20 4.125C20 4.332 19.776 4.5 19.5 4.5ZM8.5 8.25H19.5C19.776 8.25 20 8.418 20 8.625C20 8.832 19.776 9 19.5 9H8.5C8.224 9 8 8.832 8 8.625C8 8.418 8.224 8.25 8.5 8.25ZM19.5 12.75H8.5C8.224 12.75 8 12.918 8 13.125C8 13.332 8.224 13.5 8.5 13.5H19.5C19.776 13.5 20 13.332 20 13.125C20 12.918 19.776 12.75 19.5 12.75Z" fill="#4E5F6D"/>
</svg>
