<svg width="24" height="24" viewBox="0 0 24 24" fill="none" xmlns="http://www.w3.org/2000/svg">
<path fill-rule="evenodd" clip-rule="evenodd" d="M12.9441 10.2116C11.8894 10.6932 11.4498 11.2669 11.4498 11.7395C11.4498 12.2122 11.8894 12.7859 12.9441 13.2675C13.9588 13.7308 15.3923 14.0293 16.9998 14.0293C18.6073 14.0293 20.0408 13.7308 21.0555 13.2675C22.1102 12.7859 22.5498 12.2122 22.5498 11.7395C22.5498 11.2669 22.1102 10.6932 21.0555 10.2116C20.0408 9.74824 18.6073 9.4498 16.9998 9.4498C15.3923 9.4498 13.9588 9.74824 12.9441 10.2116ZM22.5498 13.4019C22.2293 13.668 21.844 13.8968 21.4294 14.0862C20.2725 14.6144 18.706 14.9293 16.9998 14.9293C15.2936 14.9293 13.7271 14.6144 12.5702 14.0862C12.1556 13.8968 11.7703 13.668 11.4498 13.4019V16.0013C11.4498 16.4739 11.8894 17.0476 12.9441 17.5292C13.9588 17.9926 15.3923 18.291 16.9998 18.291C18.6073 18.291 20.0408 17.9926 21.0555 17.5292C22.1102 17.0476 22.5498 16.4739 22.5498 16.0013V13.4019ZM23.4498 11.7395C23.4498 10.6991 22.5463 9.90292 21.4294 9.39291C20.2725 8.86468 18.706 8.5498 16.9998 8.5498C15.2936 8.5498 13.7271 8.86468 12.5702 9.39291C11.4533 9.90292 10.5498 10.6991 10.5498 11.7395V20.2397C10.5498 20.2431 10.5498 20.2465 10.5499 20.2499C10.5498 20.2533 10.5498 20.2567 10.5498 20.2601C10.5498 21.3005 11.4533 22.0967 12.5702 22.6067C13.7271 23.1349 15.2936 23.4498 16.9998 23.4498C18.706 23.4498 20.2725 23.1349 21.4294 22.6067C22.5463 22.0967 23.4498 21.3005 23.4498 20.2601V11.7395ZM22.5498 17.6637C22.2293 17.9298 21.844 18.1585 21.4294 18.3479C20.2725 18.8761 18.706 19.191 16.9998 19.191C15.2936 19.191 13.7271 18.8761 12.5702 18.3479C12.1556 18.1585 11.7703 17.9298 11.4498 17.6637V20.2397C11.4498 20.2431 11.4498 20.2465 11.4497 20.2499C11.4498 20.2533 11.4498 20.2567 11.4498 20.2601C11.4498 20.7327 11.8894 21.3064 12.9441 21.788C13.9588 22.2514 15.3923 22.5498 16.9998 22.5498C18.6073 22.5498 20.0408 22.2514 21.0555 21.788C22.1102 21.3064 22.5498 20.7327 22.5498 20.2601V17.6637Z" fill="#0B1117"/>
<path fill-rule="evenodd" clip-rule="evenodd" d="M4.80661 19.3184C4.98234 19.4941 5.26727 19.4941 5.443 19.3184L7.318 17.4434C7.49374 17.2677 7.49374 16.9827 7.318 16.807L5.443 14.932C5.26727 14.7563 4.98234 14.7563 4.80661 14.932C4.63087 15.1077 4.63087 15.3927 4.80661 15.5684L5.91341 16.6752H4.5998C3.96232 16.6752 3.51127 16.6748 3.15865 16.646C2.81129 16.6177 2.59926 16.5639 2.43262 16.479C2.09393 16.3064 1.81857 16.0311 1.64599 15.6924C1.56109 15.5257 1.50735 15.3137 1.47896 14.9663C1.45015 14.6137 1.4498 14.1627 1.4498 13.5252V13.0002C1.4498 12.7517 1.24833 12.5502 0.999805 12.5502C0.751277 12.5502 0.549805 12.7517 0.549805 13.0002L0.549805 13.5449C0.549801 14.1583 0.549798 14.6461 0.581954 15.0396C0.614882 15.4427 0.683759 15.7863 0.844087 16.101C1.10295 16.609 1.51599 17.0221 2.02403 17.2809C2.33869 17.4412 2.68234 17.5101 3.08536 17.543C3.47893 17.5752 3.96675 17.5752 4.58012 17.5752H5.91341L4.80661 18.682C4.63087 18.8577 4.63087 19.1427 4.80661 19.3184Z" fill="#0B1117"/>
<path fill-rule="evenodd" clip-rule="evenodd" d="M2.22037 2.89941C1.62849 3.18478 1.4498 3.49223 1.4498 3.68732C1.4498 3.8824 1.62849 4.18985 2.22037 4.47522C2.78045 4.74526 3.5858 4.92483 4.4998 4.92483C5.41381 4.92483 6.21916 4.74526 6.77924 4.47522C7.37112 4.18985 7.5498 3.8824 7.5498 3.68732C7.5498 3.49223 7.37112 3.18478 6.77924 2.89941C6.21916 2.62937 5.41381 2.4498 4.4998 2.4498C3.5858 2.4498 2.78045 2.62937 2.22037 2.89941ZM7.5498 5.07362C7.42844 5.15222 7.30058 5.22301 7.17011 5.28591C6.46344 5.62663 5.5188 5.82483 4.4998 5.82483C3.48081 5.82483 2.53617 5.62663 1.8295 5.28591C1.69903 5.22301 1.57117 5.15222 1.4498 5.07362V7.31229C1.4498 7.50738 1.62849 7.81483 2.22037 8.1002C2.78045 8.37024 3.5858 8.5498 4.4998 8.5498C5.41381 8.5498 6.21916 8.37024 6.77924 8.1002C7.37112 7.81483 7.5498 7.50738 7.5498 7.31229V5.07362ZM8.4498 3.68732C8.4498 2.95042 7.84499 2.41411 7.17011 2.08872C6.46344 1.748 5.5188 1.5498 4.4998 1.5498C3.48081 1.5498 2.53617 1.748 1.8295 2.08872C1.15462 2.41411 0.549805 2.95042 0.549805 3.68732V7.47171C0.549805 7.54941 0.569497 7.62251 0.604162 7.68629C0.767099 8.23324 1.27461 8.64336 1.8295 8.91089C2.53617 9.25161 3.48081 9.4498 4.4998 9.4498C5.5188 9.4498 6.46344 9.25161 7.17011 8.91089C7.72499 8.64336 8.23251 8.23324 8.39545 7.68629C8.43011 7.62251 8.4498 7.54941 8.4498 7.47171V3.68732Z" fill="#0B1117"/>
</svg>
