<svg width="19" height="18" viewBox="0 0 19 18" fill="none" xmlns="http://www.w3.org/2000/svg">
<path d="M14.8755 17.1818C14.8755 17.6337 14.5092 18 14.0573 18C13.6054 18 13.2391 17.6337 13.2391 17.1818C13.2391 16.7299 13.6054 16.3636 14.0573 16.3636C14.5092 16.3636 14.8755 16.7299 14.8755 17.1818Z" fill="#5D5FEF"/>
<path d="M18.1482 13.9091C18.1482 14.361 17.7819 14.7273 17.33 14.7273C16.8781 14.7273 16.5118 14.361 16.5118 13.9091C16.5118 13.4572 16.8781 13.0909 17.33 13.0909C17.7819 13.0909 18.1482 13.4572 18.1482 13.9091Z" fill="#5D5FEF"/>
<path d="M1.78456 4.09091C1.78456 4.54278 1.41824 4.90909 0.966375 4.90909C0.514506 4.90909 0.148193 4.54278 0.148193 4.09091C0.148193 3.63904 0.514506 3.27273 0.966375 3.27273C1.41824 3.27273 1.78456 3.63904 1.78456 4.09091Z" fill="#5D5FEF"/>
<path d="M5.05728 0.818182C5.05728 1.27005 4.69097 1.63636 4.2391 1.63636C3.78723 1.63636 3.42092 1.27005 3.42092 0.818182C3.42092 0.366312 3.78723 0 4.2391 0C4.69097 0 5.05728 0.366312 5.05728 0.818182Z" fill="#5D5FEF"/>
<path fill-rule="evenodd" clip-rule="evenodd" d="M9.14819 4.48602L8.61457 6.68665C8.40127 7.56628 7.71448 8.25308 6.83484 8.46638L4.63422 9L6.83484 9.53362C7.71448 9.74692 8.40127 10.4337 8.61457 11.3133L9.14819 13.514L9.68181 11.3133C9.89511 10.4337 10.5819 9.74692 11.4615 9.53362L13.6622 9L11.4615 8.46638C10.5819 8.25308 9.89511 7.56628 9.68181 6.68665L9.14819 4.48602ZM10.2161 3.29446C9.94456 2.17457 8.35183 2.17457 8.08027 3.29446L7.33306 6.3759C7.23611 6.77574 6.92393 7.08792 6.5241 7.18487L3.44265 7.93208C2.32277 8.20363 2.32277 9.79637 3.44265 10.0679L6.5241 10.8151C6.92393 10.9121 7.23611 11.2243 7.33307 11.6241L8.08027 14.7055C8.35183 15.8254 9.94456 15.8254 10.2161 14.7055L10.9633 11.6241C11.0603 11.2243 11.3725 10.9121 11.7723 10.8151L14.8537 10.0679C15.9736 9.79637 15.9736 8.20363 14.8537 7.93208L11.7723 7.18487C11.3725 7.08792 11.0603 6.77574 10.9633 6.3759L10.2161 3.29446Z" fill="#5D5FEF"/>
<path fill-rule="evenodd" clip-rule="evenodd" d="M6.69743 17.4393C6.55522 17.8203 6.13107 18.0139 5.75006 17.8717C3.28207 16.9505 1.29964 15.0383 0.287067 12.6187C0.130068 12.2435 0.306921 11.8121 0.682077 11.6551C1.05723 11.4981 1.48863 11.675 1.64563 12.0501C2.50145 14.0952 4.179 15.7133 6.26504 16.4919C6.64605 16.6341 6.83964 17.0583 6.69743 17.4393Z" fill="#5D5FEF"/>
<path fill-rule="evenodd" clip-rule="evenodd" d="M17.588 6.56244C17.2071 6.70495 16.7828 6.51169 16.6403 6.13079C15.8556 4.03326 14.2185 2.34877 12.1504 1.49932C11.7742 1.34481 11.5945 0.914597 11.749 0.538409C11.9035 0.162222 12.3337 -0.017483 12.7099 0.137027C15.1558 1.14164 17.0908 3.13198 18.0197 5.61474C18.1622 5.99564 17.9689 6.41994 17.588 6.56244Z" fill="#5D5FEF"/>
</svg>
