<svg width="32" height="32" viewBox="0 0 32 32" fill="none" xmlns="http://www.w3.org/2000/svg">
<path d="M14 2.67038C13.0999 2.68258 12.5596 2.73469 12.1227 2.95731C11.6209 3.21297 11.2129 3.62092 10.9573 4.12268C10.7347 4.55959 10.6826 5.09992 10.6704 5.99999M26 2.67038C26.9 2.68258 27.4404 2.73469 27.8773 2.95731C28.379 3.21297 28.787 3.62092 29.0426 4.12268C29.2653 4.55959 29.3174 5.09992 29.3296 5.99997M29.3296 18C29.3174 18.9 29.2653 19.4404 29.0426 19.8773C28.787 20.3791 28.379 20.787 27.8773 21.0427C27.4404 21.2653 26.9 21.3174 26 21.3296M29.3333 10.6666C29.3333 11.708 29.3333 13.3333 29.3333 13.3333M18.6667 2.66666H21.3332M6.93329 29.3333H12.0666C13.5601 29.3333 14.3068 29.3333 14.8773 29.0427C15.379 28.787 15.787 28.3791 16.0426 27.8773C16.3333 27.3069 16.3333 26.5601 16.3333 25.0667V19.9333C16.3333 18.4398 16.3333 17.6931 16.0426 17.1227C15.787 16.6209 15.379 16.213 14.8773 15.9573C14.3068 15.6667 13.5601 15.6667 12.0666 15.6667H6.93329C5.43982 15.6667 4.69308 15.6667 4.12265 15.9573C3.62089 16.213 3.21294 16.6209 2.95728 17.1227C2.66663 17.6931 2.66663 18.4398 2.66663 19.9333V25.0667C2.66663 26.5601 2.66663 27.3069 2.95728 27.8773C3.21294 28.3791 3.62089 28.787 4.12265 29.0427C4.69308 29.3333 5.43982 29.3333 6.93329 29.3333Z" stroke="#4E5F6D" stroke-width="1.5" stroke-linecap="round" stroke-linejoin="round"/>
<path d="M19.0013 13L24.0013 8M24.0013 8C24.0013 8 21.735 8 19.0013 8M24.0013 8C24.0013 8 24.0013 10.2663 24.0013 13" stroke="#4E5F6D" stroke-width="1.5" stroke-linecap="round" stroke-linejoin="round"/>
</svg>
