<svg width="24" height="24" viewBox="0 0 24 24" fill="none" xmlns="http://www.w3.org/2000/svg">
<path fill-rule="evenodd" clip-rule="evenodd" d="M10 4C6.68629 4 4 6.68629 4 10C4 13.3137 6.68629 16 10 16C11.4769 16 12.8291 15.4664 13.8744 14.5815L18.6464 19.3536L18.7157 19.4114C18.9106 19.5464 19.18 19.5271 19.3536 19.3536C19.5488 19.1583 19.5488 18.8417 19.3536 18.6464L14.5815 13.8744C15.4664 12.8291 16 11.4769 16 10C16 6.68629 13.3137 4 10 4ZM10 5C12.7614 5 15 7.23858 15 10C15 12.7614 12.7614 15 10 15C7.23858 15 5 12.7614 5 10C5 7.23858 7.23858 5 10 5Z" fill="#0B1117"/>
</svg>
