<svg width="24" height="24" viewBox="0 0 24 24" fill="none" xmlns="http://www.w3.org/2000/svg">
<path fill-rule="evenodd" clip-rule="evenodd" d="M3.22998 15C3.22998 13.6193 4.34927 12.5 5.72998 12.5H18.27C19.6507 12.5 20.77 13.6193 20.77 15V17C20.77 18.3807 19.6507 19.5 18.27 19.5H5.72998C4.34927 19.5 3.22998 18.3807 3.22998 17V15ZM21.77 9C21.77 10.2732 21.0902 11.3876 20.0738 12C21.0902 12.6124 21.77 13.7268 21.77 15V17C21.77 18.933 20.203 20.5 18.27 20.5H5.72998C3.79698 20.5 2.22998 18.933 2.22998 17V15C2.22998 13.7268 2.90977 12.6124 3.92619 12C2.90977 11.3876 2.22998 10.2732 2.22998 9V7C2.22998 5.067 3.79698 3.5 5.72998 3.5H18.27C20.203 3.5 21.77 5.067 21.77 7V9ZM20.0377 10.7678C19.5689 11.2366 18.933 11.5 18.27 11.5H5.72998C4.34927 11.5 3.22998 10.3807 3.22998 9V7C3.22998 5.61929 4.34927 4.5 5.72998 4.5H18.27C19.6507 4.5 20.77 5.61929 20.77 7V9C20.77 9.66304 20.5066 10.2989 20.0377 10.7678ZM5.63191 8.05905C5.64224 8.33641 5.87247 8.55458 6.14998 8.55C6.29072 8.54768 6.42424 8.48729 6.51893 8.38313C6.61361 8.27898 6.66104 8.14032 6.64998 8C6.62817 7.72331 6.38911 7.51485 6.11203 7.53093C5.83494 7.547 5.62158 7.78169 5.63191 8.05905ZM9.39998 8.55C9.19194 8.55404 9.00231 8.43129 8.92082 8.23983C8.83932 8.04837 8.88232 7.82661 9.02945 7.67947C9.17659 7.53234 9.39835 7.48934 9.58981 7.57084C9.78127 7.65233 9.90402 7.84196 9.89998 8.05C9.89466 8.32391 9.67389 8.54468 9.39998 8.55ZM14.23 8.55H18.23C18.5061 8.55 18.73 8.32614 18.73 8.05C18.73 7.77386 18.5061 7.55 18.23 7.55H14.23C13.9538 7.55 13.73 7.77386 13.73 8.05C13.73 8.32614 13.9538 8.55 14.23 8.55ZM5.67173 16.2422C5.75383 16.4324 5.94284 16.5541 6.14998 16.55C6.42773 16.5446 6.65003 16.3178 6.64998 16.04C6.64994 15.8328 6.52457 15.6463 6.33277 15.5679C6.14096 15.4896 5.92084 15.5351 5.7758 15.6831C5.63076 15.831 5.58963 16.052 5.67173 16.2422ZM9.39998 16.55C9.19194 16.554 9.00231 16.4313 8.92082 16.2398C8.83932 16.0484 8.88232 15.8266 9.02945 15.6795C9.17659 15.5323 9.39835 15.4893 9.58981 15.5708C9.78127 15.6523 9.90402 15.842 9.89998 16.05C9.89466 16.3239 9.67389 16.5447 9.39998 16.55ZM14.23 16.55H18.23C18.5061 16.55 18.73 16.3261 18.73 16.05C18.73 15.7739 18.5061 15.55 18.23 15.55H14.23C13.9538 15.55 13.73 15.7739 13.73 16.05C13.73 16.3261 13.9538 16.55 14.23 16.55Z" fill="#507CE1"/>
</svg>
