<svg width="32" height="32" viewBox="0 0 32 32" fill="none" xmlns="http://www.w3.org/2000/svg">
<path fill-rule="evenodd" clip-rule="evenodd" d="M4.30672 20C4.30672 18.1591 5.79911 16.6667 7.64006 16.6667H24.3601C26.201 16.6667 27.6934 18.1591 27.6934 20V22.6667C27.6934 24.5076 26.201 26 24.3601 26H7.64006C5.79911 26 4.30672 24.5076 4.30672 22.6667V20ZM29.0267 12C29.0267 13.6976 28.1203 15.1834 26.7651 16C28.1203 16.8166 29.0267 18.3025 29.0267 20V22.6667C29.0267 25.244 26.9374 27.3334 24.3601 27.3334H7.64006C5.06273 27.3334 2.97339 25.244 2.97339 22.6667V20C2.97339 18.3025 3.87978 16.8166 5.235 16C3.87978 15.1834 2.97339 13.6976 2.97339 12V9.33335C2.97339 6.75602 5.06273 4.66669 7.64006 4.66669H24.3601C26.9374 4.66669 29.0267 6.75602 29.0267 9.33335V12ZM7.64006 6.00002C5.79911 6.00002 4.30672 7.4924 4.30672 9.33335V12C4.30672 13.841 5.79911 15.3334 7.64006 15.3334H24.3601C25.2441 15.3334 26.092 14.9822 26.7171 14.357C27.3422 13.7319 27.6934 12.8841 27.6934 12V9.33335C27.6934 7.4924 26.201 6.00002 24.3601 6.00002H7.64006ZM7.50929 10.7454C7.52307 11.1152 7.83004 11.4061 8.20006 11.4C8.38771 11.3969 8.56574 11.3164 8.69198 11.1775C8.81823 11.0387 8.88147 10.8538 8.86672 10.6667C8.83765 10.2978 8.51889 10.0198 8.14945 10.0413C7.78 10.0627 7.49552 10.3756 7.50929 10.7454ZM12.5334 11.4C12.256 11.4054 12.0032 11.2417 11.8945 10.9865C11.7858 10.7312 11.8432 10.4355 12.0394 10.2393C12.2355 10.0431 12.5312 9.98581 12.7865 10.0945C13.0418 10.2031 13.2054 10.456 13.2001 10.7334C13.193 11.0986 12.8986 11.3929 12.5334 11.4ZM18.9734 11.4H24.3067C24.6749 11.4 24.9734 11.1015 24.9734 10.7334C24.9734 10.3652 24.6749 10.0667 24.3067 10.0667H18.9734C18.6052 10.0667 18.3067 10.3652 18.3067 10.7334C18.3067 11.1015 18.6052 11.4 18.9734 11.4ZM7.56239 21.6563C7.67186 21.9099 7.92387 22.0721 8.20006 22.0667C8.57039 22.0594 8.86679 21.7571 8.86672 21.3867C8.86667 21.1105 8.69951 20.8617 8.44377 20.7573C8.18803 20.6529 7.89454 20.7135 7.70115 20.9108C7.50777 21.108 7.45293 21.4027 7.56239 21.6563ZM12.5334 22.0667C12.256 22.0721 12.0032 21.9084 11.8945 21.6531C11.7858 21.3979 11.8432 21.1022 12.0394 20.906C12.2355 20.7098 12.5312 20.6525 12.7865 20.7611C13.0418 20.8698 13.2054 21.1226 13.2001 21.4C13.193 21.7652 12.8986 22.0596 12.5334 22.0667ZM18.9734 22.0667H24.3067C24.6749 22.0667 24.9734 21.7682 24.9734 21.4C24.9734 21.0318 24.6749 20.7334 24.3067 20.7334H18.9734C18.6052 20.7334 18.3067 21.0318 18.3067 21.4C18.3067 21.7682 18.6052 22.0667 18.9734 22.0667Z" fill="#4E5F6D"/>
</svg>
