<svg width="20" height="18" viewBox="0 0 20 18" fill="none" xmlns="http://www.w3.org/2000/svg">
<path fill-rule="evenodd" clip-rule="evenodd" d="M1.23047 12C1.23047 10.6193 2.34976 9.5 3.73047 9.5H16.2705C17.6512 9.5 18.7705 10.6193 18.7705 12V14C18.7705 15.3807 17.6512 16.5 16.2705 16.5H3.73047C2.34976 16.5 1.23047 15.3807 1.23047 14V12ZM19.7705 6C19.7705 7.27316 19.0907 8.38755 18.0743 9C19.0907 9.61245 19.7705 10.7268 19.7705 12V14C19.7705 15.933 18.2035 17.5 16.2705 17.5H3.73047C1.79747 17.5 0.230469 15.933 0.230469 14V12C0.230469 10.7268 0.910261 9.61245 1.92668 9C0.910261 8.38755 0.230469 7.27316 0.230469 6V4C0.230469 2.067 1.79747 0.5 3.73047 0.5H16.2705C18.2035 0.5 19.7705 2.067 19.7705 4V6ZM18.0382 7.76777C17.5694 8.23661 16.9335 8.5 16.2705 8.5H3.73047C2.34976 8.5 1.23047 7.38071 1.23047 6V4C1.23047 2.61929 2.34976 1.5 3.73047 1.5H16.2705C17.6512 1.5 18.7705 2.61929 18.7705 4V6C18.7705 6.66304 18.5071 7.29893 18.0382 7.76777ZM3.6324 5.05905C3.64273 5.33641 3.87296 5.55458 4.15047 5.55C4.29121 5.54768 4.42473 5.48729 4.51941 5.38313C4.6141 5.27898 4.66153 5.14032 4.65047 5C4.62866 4.72331 4.3896 4.51485 4.11251 4.53093C3.83543 4.547 3.62207 4.78169 3.6324 5.05905ZM7.40047 5.55C7.19243 5.55404 7.0028 5.43129 6.9213 5.23983C6.83981 5.04837 6.88281 4.82661 7.02994 4.67947C7.17707 4.53234 7.39884 4.48934 7.5903 4.57084C7.78176 4.65233 7.90451 4.84196 7.90047 5.05C7.89515 5.32391 7.67438 5.54468 7.40047 5.55ZM12.2305 5.55H16.2305C16.5066 5.55 16.7305 5.32614 16.7305 5.05C16.7305 4.77386 16.5066 4.55 16.2305 4.55H12.2305C11.9543 4.55 11.7305 4.77386 11.7305 5.05C11.7305 5.32614 11.9543 5.55 12.2305 5.55ZM3.67222 13.2422C3.75432 13.4324 3.94333 13.5541 4.15047 13.55C4.42822 13.5446 4.65052 13.3178 4.65047 13.04C4.65043 12.8328 4.52506 12.6463 4.33326 12.5679C4.14145 12.4896 3.92133 12.5351 3.77629 12.6831C3.63125 12.831 3.59012 13.052 3.67222 13.2422ZM7.40047 13.55C7.19243 13.554 7.0028 13.4313 6.9213 13.2398C6.83981 13.0484 6.88281 12.8266 7.02994 12.6795C7.17707 12.5323 7.39884 12.4893 7.5903 12.5708C7.78176 12.6523 7.90451 12.842 7.90047 13.05C7.89515 13.3239 7.67438 13.5447 7.40047 13.55ZM12.2305 13.55H16.2305C16.5066 13.55 16.7305 13.3261 16.7305 13.05C16.7305 12.7739 16.5066 12.55 16.2305 12.55H12.2305C11.9543 12.55 11.7305 12.7739 11.7305 13.05C11.7305 13.3261 11.9543 13.55 12.2305 13.55Z" fill="#0B1117"/>
</svg>
