<svg width="16" height="16" viewBox="0 0 16 16" fill="none" xmlns="http://www.w3.org/2000/svg">
<path d="M4.13468 9.7588C4.13468 10.5297 3.50493 11.1595 2.73403 11.1595C1.96312 11.1595 1.33337 10.5297 1.33337 9.7588C1.33337 8.9879 1.96312 8.35815 2.73403 8.35815H4.13468V9.7588Z" fill="#E01E5A"/>
<path d="M4.84045 9.75881C4.84045 8.9879 5.4702 8.35815 6.24111 8.35815C7.01201 8.35815 7.64176 8.9879 7.64176 9.75881V13.2659C7.64176 14.0368 7.01201 14.6665 6.24111 14.6665C5.4702 14.6665 4.84045 14.0368 4.84045 13.2659V9.75881Z" fill="#E01E5A"/>
<path d="M6.24111 4.13456C5.4702 4.13456 4.84045 3.50481 4.84045 2.7339C4.84045 1.963 5.4702 1.33325 6.24111 1.33325C7.01201 1.33325 7.64176 1.963 7.64176 2.7339V4.13456H6.24111Z" fill="#36C5F0"/>
<path d="M6.24108 4.84033C7.01199 4.84033 7.64174 5.47008 7.64174 6.24098C7.64174 7.01189 7.01199 7.64163 6.24108 7.64163H2.73403C1.96312 7.64163 1.33337 7.01189 1.33337 6.24098C1.33337 5.47008 1.96312 4.84033 2.73403 4.84033H6.24108Z" fill="#36C5F0"/>
<path d="M11.8654 6.24098C11.8654 5.47008 12.4951 4.84033 13.266 4.84033C14.0369 4.84033 14.6667 5.47008 14.6667 6.24098C14.6667 7.01189 14.0369 7.64163 13.266 7.64163H11.8654V6.24098Z" fill="#2EB67D"/>
<path d="M11.1596 6.24096C11.1596 7.01186 10.5298 7.64161 9.75893 7.64161C8.98803 7.64161 8.35828 7.01186 8.35828 6.24096V2.7339C8.35828 1.963 8.98803 1.33325 9.75893 1.33325C10.5298 1.33325 11.1596 1.963 11.1596 2.7339V6.24096Z" fill="#2EB67D"/>
<path d="M9.75893 11.8652C10.5298 11.8652 11.1596 12.495 11.1596 13.2659C11.1596 14.0368 10.5298 14.6665 9.75893 14.6665C8.98803 14.6665 8.35828 14.0368 8.35828 13.2659V11.8652H9.75893Z" fill="#ECB22E"/>
<path d="M9.75893 11.1595C8.98803 11.1595 8.35828 10.5297 8.35828 9.7588C8.35828 8.9879 8.98803 8.35815 9.75893 8.35815H13.266C14.0369 8.35815 14.6666 8.9879 14.6666 9.7588C14.6666 10.5297 14.0369 11.1595 13.266 11.1595H9.75893Z" fill="#ECB22E"/>
</svg>
