<svg xmlns="http://www.w3.org/2000/svg" width="16" height="14" viewBox="0 0 16 14" fill="none">
    <path d="M12.7028 0.817383C14.1524 0.81753 15.3278 1.99273 15.3278 3.44238V4.94238C15.3278 5.89906 14.8141 6.73361 14.0494 7.19238C14.8141 7.65116 15.3278 8.4857 15.3278 9.44238V10.9424C15.3278 12.392 14.1524 13.5672 12.7028 13.5674H3.29749C1.84774 13.5674 0.672485 12.3921 0.672485 10.9424V9.44238C0.672485 8.48592 1.18541 7.65123 1.94983 7.19238C1.18541 6.73354 0.672485 5.89885 0.672485 4.94238V3.44238C0.672485 1.99264 1.84774 0.817383 3.29749 0.817383H12.7028ZM3.29749 7.56738C2.26195 7.56738 1.42249 8.40685 1.42249 9.44238V10.9424C1.42249 11.9779 2.26195 12.8174 3.29749 12.8174H12.7028C13.7382 12.8172 14.5778 11.9778 14.5778 10.9424V9.44238C14.5778 8.40694 13.7382 7.56753 12.7028 7.56738H3.29749ZM3.33167 9.95508C3.44044 9.84413 3.60578 9.80943 3.74963 9.86816C3.89349 9.9269 3.98789 10.0673 3.98792 10.2227C3.98781 10.4307 3.82093 10.6002 3.61292 10.6045C3.45756 10.6075 3.31511 10.5167 3.25354 10.374C3.19208 10.2315 3.22315 10.066 3.33167 9.95508ZM5.77209 9.95215C5.88234 9.84191 6.04852 9.80925 6.19202 9.87012C6.33549 9.93118 6.42828 10.0736 6.42542 10.2295C6.42143 10.4348 6.25564 10.6003 6.05042 10.6045C5.89438 10.6075 5.75216 10.5157 5.69104 10.3721C5.62994 10.2285 5.66181 10.0625 5.77209 9.95215ZM12.6725 9.85449C12.8795 9.85449 13.0473 10.0226 13.0475 10.2295C13.0475 10.4366 12.8796 10.6045 12.6725 10.6045H9.67249C9.46538 10.6045 9.29749 10.4366 9.29749 10.2295C9.2977 10.0226 9.46551 9.85449 9.67249 9.85449H12.6725ZM3.29749 1.56738C2.26195 1.56738 1.42249 2.40685 1.42249 3.44238V4.94238C1.42249 5.97792 2.26195 6.81738 3.29749 6.81738H12.7028C13.1998 6.81731 13.6764 6.6199 14.028 6.26855C14.3796 5.91692 14.5778 5.43966 14.5778 4.94238V3.44238C14.5778 2.40694 13.7382 1.56753 12.7028 1.56738H3.29749ZM3.58362 3.84082C3.79143 3.82877 3.97156 3.98486 3.98792 4.19238C3.99619 4.29754 3.96018 4.40141 3.88928 4.47949C3.81837 4.5575 3.71831 4.60263 3.61292 4.60449C3.40478 4.60793 3.23199 4.44435 3.22424 4.23633C3.21668 4.02859 3.37612 3.85308 3.58362 3.84082ZM5.77209 3.95215C5.88234 3.84191 6.04852 3.80925 6.19202 3.87012C6.33549 3.93118 6.42828 4.07362 6.42542 4.22949C6.42143 4.43478 6.25564 4.60028 6.05042 4.60449C5.89438 4.60752 5.75216 4.51566 5.69104 4.37207C5.62994 4.22851 5.66181 4.0625 5.77209 3.95215ZM12.6725 3.85449C12.8795 3.85449 13.0473 4.02257 13.0475 4.22949C13.0475 4.4366 12.8796 4.60449 12.6725 4.60449H9.67249C9.46538 4.60449 9.29749 4.4366 9.29749 4.22949C9.2977 4.02257 9.46551 3.85449 9.67249 3.85449H12.6725Z" fill="#2B59C3"/>
</svg>