<svg width="16" height="16" viewBox="0 0 16 16" fill="none" xmlns="http://www.w3.org/2000/svg">
<path d="M14.6667 4.33341C14.6667 3.41408 13.9187 2.66675 13 2.66675H3.00004C2.08137 2.66675 1.33337 3.41408 1.33337 4.33341C1.33337 4.76541 1.49737 5.17275 1.79404 5.47941C2.03337 5.72608 2.33671 5.87941 2.66671 5.93408V7.66675C2.66671 8.58608 3.41471 9.33341 4.33337 9.33341H9.00004C9.91871 9.33341 10.6667 8.58608 10.6667 7.66675V5.95875L12.6667 5.95808V10.8621L11.4307 12.0981C11.3007 12.2281 11.3007 12.4394 11.4307 12.5694C11.5607 12.6994 11.772 12.6994 11.902 12.5694L13 11.4714L14.0974 12.5687C14.1627 12.6341 14.248 12.6667 14.3334 12.6667C14.4187 12.6667 14.504 12.6341 14.5694 12.5694C14.6994 12.4394 14.6994 12.2281 14.5694 12.0981L13.3334 10.8621V5.93341C14.088 5.80541 14.6667 5.13941 14.6667 4.33341ZM2.00004 4.33341C2.00004 3.78208 2.44871 3.33341 3.00004 3.33341H13C13.5514 3.33341 14 3.78208 14 4.33341C14 4.86275 13.584 5.29341 13.0727 5.29341L3.00004 5.29208C2.99404 5.29208 2.93337 5.29408 2.92737 5.29408C2.67937 5.29408 2.44737 5.19541 2.27271 5.01541C2.09737 4.83408 2.00004 4.59208 2.00004 4.33341ZM10 7.66675C10 8.21808 9.55137 8.66675 9.00004 8.66675H4.33337C3.78204 8.66675 3.33337 8.21808 3.33337 7.66675V5.96008L10 5.95808V7.66675Z" fill="#4E5F6D"/>
</svg>
