<svg width="16" height="16" viewBox="0 0 16 16" fill="none" xmlns="http://www.w3.org/2000/svg">
<path fill-rule="evenodd" clip-rule="evenodd" d="M9.55204 7.55467C10.416 7.02733 11 6.08467 11 5C11 3.346 9.65404 2 8.00004 2C6.34604 2 5.00004 3.346 5.00004 5C5.00004 6.08467 5.58404 7.02733 6.44804 7.55467C4.07671 8.232 2.33337 10.414 2.33337 13V13.3333H13.6667V13C13.6667 10.414 11.9234 8.232 9.55204 7.55467ZM5.66671 5C5.66671 3.71333 6.71337 2.66667 8.00004 2.66667C9.28671 2.66667 10.3334 3.71333 10.3334 5C10.3334 6.28667 9.28671 7.33333 8.00004 7.33333C6.71337 7.33333 5.66671 6.28667 5.66671 5ZM3.01137 12.6667C3.18337 10.0647 5.35537 8 8.00004 8C10.6447 8 12.8167 10.0647 12.9887 12.6667H3.01137Z" fill="#4E5F6D"/>
</svg>
