<svg width="41" height="40" viewBox="0 0 41 40" fill="none" xmlns="http://www.w3.org/2000/svg">
<g clip-path="url(#clip0_3660_3383)">
<path d="M11.2217 1.87868C12.1348 1.87868 12.5913 1.87868 12.9411 2.05541C13.2467 2.21005 13.4971 2.46042 13.6554 2.7697C13.8321 3.11948 13.8321 3.57603 13.8321 4.48914V15.9656C13.8321 17.3279 13.8321 18.009 13.5449 18.4251C13.2946 18.7896 12.908 19.0363 12.4698 19.1099C11.9691 19.1946 11.3542 18.9074 10.1171 18.3293L6.9028 16.8308C4.58321 15.7483 3.41974 15.2071 2.5729 14.3713C1.8218 13.6313 1.24742 12.7329 0.897644 11.7388C0.5 10.6195 0.5 9.33818 0.5 6.77559V4.48546C0.5 3.57235 0.5 3.1158 0.676731 2.76602C0.83137 2.46042 1.08174 2.21005 1.39102 2.05173C1.7408 1.875 2.19735 1.875 3.11046 1.875H11.2217V1.87868Z" fill="#FF5F3B"/>
<path d="M37.8896 1.87866C38.8027 1.87866 39.2592 1.87866 39.609 2.05539C39.9146 2.21003 40.165 2.4604 40.3233 2.76968C40.5 3.11946 40.5 3.57601 40.5 4.48912V6.77925C40.5 9.34184 40.5 10.6195 40.1024 11.7424C39.7489 12.7365 39.1782 13.6349 38.4271 14.375C37.5766 15.2108 36.4168 15.752 34.0972 16.8345L27.1679 20.0635V4.48912C27.1679 3.57601 27.1679 3.11946 27.3446 2.76968C27.4993 2.46408 27.7496 2.21371 28.0589 2.05539C28.4087 1.87866 28.8653 1.87866 29.7784 1.87866H37.8896Z" fill="#FF5F3B"/>
<path d="M27.1679 20.0636V35.6417C27.1679 36.5548 27.1679 37.0113 26.9912 37.3611C26.8366 37.6667 26.5862 37.9171 26.2769 38.0754C25.9271 38.2521 25.4706 38.2521 24.5575 38.2521H16.4463C15.5332 38.2521 15.0766 38.2521 14.7268 38.0754C14.4212 37.9207 14.1709 37.6704 14.0125 37.3611C13.8358 37.0113 13.8358 36.5548 13.8358 35.6417V33.3478C13.8358 30.7852 13.8358 29.5076 14.2335 28.3847C14.5832 27.3906 15.1576 26.4922 15.9087 25.7521C16.7592 24.9163 17.919 24.3751 20.2386 23.2926L27.1679 20.0636Z" fill="#FF5F3B"/>
</g>
<defs>
<clipPath id="clip0_3660_3383">
<rect width="40" height="40" fill="white" transform="translate(0.5)"/>
</clipPath>
</defs>
</svg>
