<svg width="16" height="16" viewBox="0 0 16 16" fill="none" xmlns="http://www.w3.org/2000/svg">
<path d="M6.00004 4.00499V8.02045C6.00004 9.12782 6.89774 10.0255 8.00511 10.0255C9.11248 10.0255 10.0102 9.12782 10.0102 8.02045V4.00499C10.0102 2.89762 9.11248 1.99992 8.00511 1.99992C6.89774 1.99992 6.00004 2.89762 6.00004 4.00499ZM7.33337 13.9999H8.66671V12.6193C8.44897 12.6505 8.22639 12.6666 8.00004 12.6666C7.77369 12.6666 7.55111 12.6505 7.33337 12.6193V13.9999ZM6.66671 13.9999V12.4733C4.73905 11.8996 3.33337 10.1139 3.33337 7.99992V7.66659C3.33337 7.48249 3.48261 7.33325 3.66671 7.33325C3.8508 7.33325 4.00004 7.48249 4.00004 7.66659V7.99992C4.00004 10.2091 5.7909 11.9999 8.00004 11.9999C10.2092 11.9999 12 10.2091 12 7.99992V7.66659C12 7.48249 12.1493 7.33325 12.3334 7.33325C12.5175 7.33325 12.6667 7.48249 12.6667 7.66659V7.99992C12.6667 10.1139 11.261 11.8996 9.33337 12.4733V13.9999H11C11.1841 13.9999 11.3334 14.1492 11.3334 14.3333C11.3334 14.5173 11.1841 14.6666 11 14.6666H5.00004C4.81595 14.6666 4.66671 14.5173 4.66671 14.3333C4.66671 14.1492 4.81595 13.9999 5.00004 13.9999H6.66671ZM5.33337 4.00499C5.33337 2.52943 6.52955 1.33325 8.00511 1.33325C9.48067 1.33325 10.6768 2.52943 10.6768 4.00499V8.02045C10.6768 9.49601 9.48067 10.6922 8.00511 10.6922C6.52955 10.6922 5.33337 9.49601 5.33337 8.02045V4.00499Z" fill="#4E5F6D"/>
</svg>
