<svg xmlns="http://www.w3.org/2000/svg" xmlns:xlink="http://www.w3.org/1999/xlink" width="1024" zoomAndPan="magnify" viewBox="0 0 768 576" height="768" preserveAspectRatio="xMidYMid meet" version="1.0"><defs><g/><clipPath id="49789f0db7"><path d="M 46.167969 70.28125 L 223 70.28125 L 223 247 L 46.167969 247 Z M 46.167969 70.28125 " clip-rule="nonzero"/></clipPath><clipPath id="6ee47dbd53"><path d="M 73.167969 70.28125 L 198.855469 70.28125 C 206.015625 70.28125 212.882812 73.128906 217.949219 78.191406 C 223.011719 83.253906 225.855469 90.121094 225.855469 97.28125 L 225.855469 220.445312 C 225.855469 227.605469 223.011719 234.472656 217.949219 239.535156 C 212.882812 244.597656 206.015625 247.445312 198.855469 247.445312 L 73.167969 247.445312 C 66.003906 247.445312 59.136719 244.597656 54.074219 239.535156 C 49.011719 234.472656 46.167969 227.605469 46.167969 220.445312 L 46.167969 97.28125 C 46.167969 90.121094 49.011719 83.253906 54.074219 78.191406 C 59.136719 73.128906 66.003906 70.28125 73.167969 70.28125 " clip-rule="nonzero"/></clipPath><clipPath id="2d17967aea"><path d="M 301.570312 333.9375 L 479 333.9375 L 479 511 L 301.570312 511 Z M 301.570312 333.9375 " clip-rule="nonzero"/></clipPath><clipPath id="d25404e654"><path d="M 328.570312 333.9375 L 453.972656 333.9375 C 461.132812 333.9375 468 336.78125 473.0625 341.84375 C 478.125 346.910156 480.972656 353.777344 480.972656 360.9375 L 480.972656 484.097656 C 480.972656 491.257812 478.125 498.125 473.0625 503.191406 C 468 508.253906 461.132812 511.097656 453.972656 511.097656 L 328.570312 511.097656 C 321.410156 511.097656 314.542969 508.253906 309.476562 503.191406 C 304.414062 498.125 301.570312 491.257812 301.570312 484.097656 L 301.570312 360.9375 C 301.570312 353.777344 304.414062 346.910156 309.476562 341.84375 C 314.542969 336.78125 321.410156 333.9375 328.570312 333.9375 " clip-rule="nonzero"/></clipPath><clipPath id="d7b5b428c1"><path d="M 542.421875 71.515625 L 719 71.515625 L 719 248 L 542.421875 248 Z M 542.421875 71.515625 " clip-rule="nonzero"/></clipPath><clipPath id="a27f0dff91"><path d="M 569.421875 71.515625 L 694.820312 71.515625 C 701.980469 71.515625 708.851562 74.359375 713.914062 79.421875 C 718.976562 84.488281 721.820312 91.355469 721.820312 98.515625 L 721.820312 221.675781 C 721.820312 228.835938 718.976562 235.703125 713.914062 240.769531 C 708.851562 245.832031 701.980469 248.675781 694.820312 248.675781 L 569.421875 248.675781 C 562.257812 248.675781 555.390625 245.832031 550.328125 240.769531 C 545.265625 235.703125 542.421875 228.835938 542.421875 221.675781 L 542.421875 98.515625 C 542.421875 91.355469 545.265625 84.488281 550.328125 79.421875 C 555.390625 74.359375 562.257812 71.515625 569.421875 71.515625 " clip-rule="nonzero"/></clipPath><clipPath id="3ce339737d"><path d="M 64.03125 193.316406 L 206 193.316406 L 206 230 L 64.03125 230 Z M 64.03125 193.316406 " clip-rule="nonzero"/></clipPath><clipPath id="4782b698b2"><path d="M 82.089844 193.316406 L 187 193.316406 C 191.789062 193.316406 196.386719 195.21875 199.773438 198.605469 C 203.160156 201.992188 205.0625 206.585938 205.0625 211.375 C 205.0625 216.167969 203.160156 220.761719 199.773438 224.148438 C 196.386719 227.535156 191.789062 229.4375 187 229.4375 L 82.089844 229.4375 C 77.300781 229.4375 72.707031 227.535156 69.320312 224.148438 C 65.933594 220.761719 64.03125 216.167969 64.03125 211.375 C 64.03125 206.585938 65.933594 201.992188 69.320312 198.605469 C 72.707031 195.21875 77.300781 193.316406 82.089844 193.316406 " clip-rule="nonzero"/></clipPath><clipPath id="21e83af550"><path d="M 328.417969 454.625 L 462 454.625 L 462 491 L 328.417969 491 Z M 328.417969 454.625 " clip-rule="nonzero"/></clipPath><clipPath id="e889e644b9"><path d="M 346.480469 454.625 L 443.226562 454.625 C 448.015625 454.625 452.609375 456.527344 455.996094 459.914062 C 459.382812 463.300781 461.285156 467.894531 461.285156 472.683594 C 461.285156 477.472656 459.382812 482.066406 455.996094 485.457031 C 452.609375 488.84375 448.015625 490.746094 443.226562 490.746094 L 346.480469 490.746094 C 341.691406 490.746094 337.097656 488.84375 333.710938 485.457031 C 330.324219 482.066406 328.417969 477.472656 328.417969 472.683594 C 328.417969 467.894531 330.324219 463.300781 333.710938 459.914062 C 337.097656 456.527344 341.691406 454.625 346.480469 454.625 " clip-rule="nonzero"/></clipPath><clipPath id="2957c12255"><path d="M 567.050781 193.316406 L 694 193.316406 L 694 230 L 567.050781 230 Z M 567.050781 193.316406 " clip-rule="nonzero"/></clipPath><clipPath id="bf4e611b60"><path d="M 585.109375 193.316406 L 679.132812 193.316406 C 683.921875 193.316406 688.515625 195.21875 691.902344 198.605469 C 695.289062 201.992188 697.191406 206.585938 697.191406 211.375 C 697.191406 216.167969 695.289062 220.761719 691.902344 224.148438 C 688.515625 227.535156 683.921875 229.4375 679.132812 229.4375 L 585.109375 229.4375 C 580.320312 229.4375 575.726562 227.535156 572.339844 224.148438 C 568.953125 220.761719 567.050781 216.167969 567.050781 211.375 C 567.050781 206.585938 568.953125 201.992188 572.339844 198.605469 C 575.726562 195.21875 580.320312 193.316406 585.109375 193.316406 " clip-rule="nonzero"/></clipPath><clipPath id="f7022a1442"><path d="M 324.835938 355.078125 L 458 355.078125 L 458 379 L 324.835938 379 Z M 324.835938 355.078125 " clip-rule="nonzero"/></clipPath><clipPath id="37155c0795"><path d="M 337.890625 355.078125 L 444.652344 355.078125 C 451.859375 355.078125 457.703125 360.921875 457.703125 368.128906 C 457.703125 375.335938 451.859375 381.179688 444.652344 381.179688 L 337.890625 381.179688 C 330.679688 381.179688 324.835938 375.335938 324.835938 368.128906 C 324.835938 360.921875 330.679688 355.078125 337.890625 355.078125 " clip-rule="nonzero"/></clipPath></defs><rect x="-76.8" width="921.6" fill="#ffffff" y="-57.6" height="691.2" fill-opacity="1"/><rect x="-76.8" width="921.6" fill="#ffffff" y="-57.6" height="691.2" fill-opacity="1"/><g clip-path="url(#49789f0db7)"><g clip-path="url(#6ee47dbd53)"><path fill="#d9d9d9" d="M 46.167969 70.28125 L 222.632812 70.28125 L 222.632812 246.75 L 46.167969 246.75 Z M 46.167969 70.28125 " fill-opacity="1" fill-rule="nonzero"/></g></g><g fill="#000000" fill-opacity="1"><g transform="translate(101.361423, 165.532748)"><g><path d="M 4.125 0 L 1.671875 0 L 1.671875 -12.84375 L 4.578125 -12.84375 L 9.734375 -4.578125 L 9.96875 -4.609375 L 9.96875 -12.84375 L 12.40625 -12.84375 L 12.40625 0 L 9.8125 0 L 4.34375 -8.84375 L 4.125 -8.8125 Z M 4.125 0 "/></g></g><g transform="translate(115.450289, 165.532748)"><g><path d="M 7 0.1875 C 5.820312 0.1875 4.785156 -0.0507812 3.890625 -0.53125 C 2.992188 -1.007812 2.289062 -1.742188 1.78125 -2.734375 C 1.269531 -3.722656 1.015625 -4.953125 1.015625 -6.421875 C 1.015625 -7.890625 1.269531 -9.117188 1.78125 -10.109375 C 2.289062 -11.097656 2.992188 -11.832031 3.890625 -12.3125 C 4.785156 -12.789062 5.820312 -13.03125 7 -13.03125 C 8.175781 -13.03125 9.210938 -12.789062 10.109375 -12.3125 C 11.015625 -11.84375 11.71875 -11.109375 12.21875 -10.109375 C 12.726562 -9.117188 12.984375 -7.890625 12.984375 -6.421875 C 12.984375 -4.953125 12.726562 -3.722656 12.21875 -2.734375 C 11.71875 -1.742188 11.015625 -1.007812 10.109375 -0.53125 C 9.210938 -0.0507812 8.175781 0.1875 7 0.1875 Z M 7 -2.015625 C 8.09375 -2.015625 8.925781 -2.363281 9.5 -3.0625 C 10.070312 -3.769531 10.359375 -4.890625 10.359375 -6.421875 C 10.359375 -7.960938 10.070312 -9.082031 9.5 -9.78125 C 8.925781 -10.488281 8.09375 -10.84375 7 -10.84375 C 5.90625 -10.84375 5.066406 -10.488281 4.484375 -9.78125 C 3.910156 -9.082031 3.625 -7.960938 3.625 -6.421875 C 3.625 -4.890625 3.910156 -3.769531 4.484375 -3.0625 C 5.066406 -2.363281 5.90625 -2.015625 7 -2.015625 Z M 7 -2.015625 "/></g></g><g transform="translate(129.451265, 165.532748)"><g><path d="M 6.296875 -12.84375 C 8.378906 -12.84375 9.96875 -12.300781 11.0625 -11.21875 C 12.164062 -10.144531 12.71875 -8.546875 12.71875 -6.421875 C 12.71875 -4.304688 12.164062 -2.707031 11.0625 -1.625 C 9.96875 -0.539062 8.378906 0 6.296875 0 L 1.671875 0 L 1.671875 -12.84375 Z M 6.140625 -2.140625 C 7.460938 -2.140625 8.453125 -2.476562 9.109375 -3.15625 C 9.765625 -3.832031 10.09375 -4.921875 10.09375 -6.421875 C 10.09375 -7.929688 9.765625 -9.023438 9.109375 -9.703125 C 8.453125 -10.378906 7.460938 -10.71875 6.140625 -10.71875 L 4.203125 -10.71875 L 4.203125 -2.140625 Z M 6.140625 -2.140625 "/></g></g><g transform="translate(143.188569, 165.532748)"><g><path d="M 4.203125 -5.640625 L 4.203125 -2.125 L 10.34375 -2.125 L 10.34375 0 L 1.671875 0 L 1.671875 -12.84375 L 10.203125 -12.84375 L 10.203125 -10.71875 L 4.203125 -10.71875 L 4.203125 -7.71875 L 9.453125 -7.71875 L 9.453125 -5.640625 Z M 4.203125 -5.640625 "/></g></g><g transform="translate(154.23642, 165.532748)"><g><path d="M 6.15625 -5.171875 L 0.765625 -5.171875 L 0.765625 -7.3125 L 6.15625 -7.3125 Z M 6.15625 -5.171875 "/></g></g><g transform="translate(161.17099, 165.532748)"><g><path d="M 0.671875 0 L 0.671875 -2.09375 L 3.78125 -2.09375 L 3.78125 -10.09375 L 3.578125 -10.15625 C 3.140625 -9.9375 2.707031 -9.765625 2.28125 -9.640625 C 1.851562 -9.523438 1.367188 -9.429688 0.828125 -9.359375 L 0.828125 -11.53125 C 2.253906 -11.832031 3.40625 -12.269531 4.28125 -12.84375 L 6.296875 -12.84375 L 6.296875 -2.09375 L 9.0625 -2.09375 L 9.0625 0 Z M 0.671875 0 "/></g></g></g><g clip-path="url(#2d17967aea)"><g clip-path="url(#d25404e654)"><path fill="#d9d9d9" d="M 301.570312 333.9375 L 478.035156 333.9375 L 478.035156 510.402344 L 301.570312 510.402344 Z M 301.570312 333.9375 " fill-opacity="1" fill-rule="nonzero"/></g></g><g fill="#000000" fill-opacity="1"><g transform="translate(356.34309, 429.187209)"><g><path d="M 4.125 0 L 1.671875 0 L 1.671875 -12.84375 L 4.578125 -12.84375 L 9.734375 -4.578125 L 9.96875 -4.609375 L 9.96875 -12.84375 L 12.40625 -12.84375 L 12.40625 0 L 9.8125 0 L 4.34375 -8.84375 L 4.125 -8.8125 Z M 4.125 0 "/></g></g><g transform="translate(370.431956, 429.187209)"><g><path d="M 7 0.1875 C 5.820312 0.1875 4.785156 -0.0507812 3.890625 -0.53125 C 2.992188 -1.007812 2.289062 -1.742188 1.78125 -2.734375 C 1.269531 -3.722656 1.015625 -4.953125 1.015625 -6.421875 C 1.015625 -7.890625 1.269531 -9.117188 1.78125 -10.109375 C 2.289062 -11.097656 2.992188 -11.832031 3.890625 -12.3125 C 4.785156 -12.789062 5.820312 -13.03125 7 -13.03125 C 8.175781 -13.03125 9.210938 -12.789062 10.109375 -12.3125 C 11.015625 -11.84375 11.71875 -11.109375 12.21875 -10.109375 C 12.726562 -9.117188 12.984375 -7.890625 12.984375 -6.421875 C 12.984375 -4.953125 12.726562 -3.722656 12.21875 -2.734375 C 11.71875 -1.742188 11.015625 -1.007812 10.109375 -0.53125 C 9.210938 -0.0507812 8.175781 0.1875 7 0.1875 Z M 7 -2.015625 C 8.09375 -2.015625 8.925781 -2.363281 9.5 -3.0625 C 10.070312 -3.769531 10.359375 -4.890625 10.359375 -6.421875 C 10.359375 -7.960938 10.070312 -9.082031 9.5 -9.78125 C 8.925781 -10.488281 8.09375 -10.84375 7 -10.84375 C 5.90625 -10.84375 5.066406 -10.488281 4.484375 -9.78125 C 3.910156 -9.082031 3.625 -7.960938 3.625 -6.421875 C 3.625 -4.890625 3.910156 -3.769531 4.484375 -3.0625 C 5.066406 -2.363281 5.90625 -2.015625 7 -2.015625 Z M 7 -2.015625 "/></g></g><g transform="translate(384.432932, 429.187209)"><g><path d="M 6.296875 -12.84375 C 8.378906 -12.84375 9.96875 -12.300781 11.0625 -11.21875 C 12.164062 -10.144531 12.71875 -8.546875 12.71875 -6.421875 C 12.71875 -4.304688 12.164062 -2.707031 11.0625 -1.625 C 9.96875 -0.539062 8.378906 0 6.296875 0 L 1.671875 0 L 1.671875 -12.84375 Z M 6.140625 -2.140625 C 7.460938 -2.140625 8.453125 -2.476562 9.109375 -3.15625 C 9.765625 -3.832031 10.09375 -4.921875 10.09375 -6.421875 C 10.09375 -7.929688 9.765625 -9.023438 9.109375 -9.703125 C 8.453125 -10.378906 7.460938 -10.71875 6.140625 -10.71875 L 4.203125 -10.71875 L 4.203125 -2.140625 Z M 6.140625 -2.140625 "/></g></g><g transform="translate(398.170236, 429.187209)"><g><path d="M 4.203125 -5.640625 L 4.203125 -2.125 L 10.34375 -2.125 L 10.34375 0 L 1.671875 0 L 1.671875 -12.84375 L 10.203125 -12.84375 L 10.203125 -10.71875 L 4.203125 -10.71875 L 4.203125 -7.71875 L 9.453125 -7.71875 L 9.453125 -5.640625 Z M 4.203125 -5.640625 "/></g></g><g transform="translate(409.218087, 429.187209)"><g><path d="M 6.15625 -5.171875 L 0.765625 -5.171875 L 0.765625 -7.3125 L 6.15625 -7.3125 Z M 6.15625 -5.171875 "/></g></g><g transform="translate(416.152658, 429.187209)"><g><path d="M 0.625 -1.015625 C 0.625 -1.722656 0.703125 -2.320312 0.859375 -2.8125 C 1.015625 -3.300781 1.265625 -3.742188 1.609375 -4.140625 C 1.960938 -4.546875 2.460938 -4.976562 3.109375 -5.4375 L 4.828125 -6.6875 C 5.296875 -7.019531 5.660156 -7.304688 5.921875 -7.546875 C 6.179688 -7.796875 6.375 -8.054688 6.5 -8.328125 C 6.632812 -8.597656 6.703125 -8.90625 6.703125 -9.25 C 6.703125 -9.769531 6.539062 -10.171875 6.21875 -10.453125 C 5.90625 -10.734375 5.4375 -10.875 4.8125 -10.875 C 4.195312 -10.875 3.648438 -10.726562 3.171875 -10.4375 C 2.703125 -10.15625 2.3125 -9.757812 2 -9.25 L 1.84375 -9.21875 L 0.4375 -10.78125 C 0.894531 -11.457031 1.488281 -12 2.21875 -12.40625 C 2.957031 -12.820312 3.851562 -13.03125 4.90625 -13.03125 C 5.863281 -13.03125 6.664062 -12.867188 7.3125 -12.546875 C 7.957031 -12.234375 8.4375 -11.800781 8.75 -11.25 C 9.070312 -10.707031 9.234375 -10.082031 9.234375 -9.375 C 9.234375 -8.769531 9.101562 -8.210938 8.84375 -7.703125 C 8.59375 -7.203125 8.238281 -6.738281 7.78125 -6.3125 C 7.332031 -5.882812 6.757812 -5.425781 6.0625 -4.9375 L 4.53125 -3.875 C 4.070312 -3.539062 3.753906 -3.242188 3.578125 -2.984375 C 3.398438 -2.734375 3.3125 -2.445312 3.3125 -2.125 L 9.109375 -2.125 L 9.109375 0 L 0.625 0 Z M 0.625 -1.015625 "/></g></g></g><g clip-path="url(#d7b5b428c1)"><g clip-path="url(#a27f0dff91)"><path fill="#d9d9d9" d="M 542.421875 71.515625 L 718.886719 71.515625 L 718.886719 247.980469 L 542.421875 247.980469 Z M 542.421875 71.515625 " fill-opacity="1" fill-rule="nonzero"/></g></g><g fill="#000000" fill-opacity="1"><g transform="translate(596.888933, 166.76474)"><g><path d="M 4.125 0 L 1.671875 0 L 1.671875 -12.84375 L 4.578125 -12.84375 L 9.734375 -4.578125 L 9.96875 -4.609375 L 9.96875 -12.84375 L 12.40625 -12.84375 L 12.40625 0 L 9.8125 0 L 4.34375 -8.84375 L 4.125 -8.8125 Z M 4.125 0 "/></g></g><g transform="translate(610.9778, 166.76474)"><g><path d="M 7 0.1875 C 5.820312 0.1875 4.785156 -0.0507812 3.890625 -0.53125 C 2.992188 -1.007812 2.289062 -1.742188 1.78125 -2.734375 C 1.269531 -3.722656 1.015625 -4.953125 1.015625 -6.421875 C 1.015625 -7.890625 1.269531 -9.117188 1.78125 -10.109375 C 2.289062 -11.097656 2.992188 -11.832031 3.890625 -12.3125 C 4.785156 -12.789062 5.820312 -13.03125 7 -13.03125 C 8.175781 -13.03125 9.210938 -12.789062 10.109375 -12.3125 C 11.015625 -11.84375 11.71875 -11.109375 12.21875 -10.109375 C 12.726562 -9.117188 12.984375 -7.890625 12.984375 -6.421875 C 12.984375 -4.953125 12.726562 -3.722656 12.21875 -2.734375 C 11.71875 -1.742188 11.015625 -1.007812 10.109375 -0.53125 C 9.210938 -0.0507812 8.175781 0.1875 7 0.1875 Z M 7 -2.015625 C 8.09375 -2.015625 8.925781 -2.363281 9.5 -3.0625 C 10.070312 -3.769531 10.359375 -4.890625 10.359375 -6.421875 C 10.359375 -7.960938 10.070312 -9.082031 9.5 -9.78125 C 8.925781 -10.488281 8.09375 -10.84375 7 -10.84375 C 5.90625 -10.84375 5.066406 -10.488281 4.484375 -9.78125 C 3.910156 -9.082031 3.625 -7.960938 3.625 -6.421875 C 3.625 -4.890625 3.910156 -3.769531 4.484375 -3.0625 C 5.066406 -2.363281 5.90625 -2.015625 7 -2.015625 Z M 7 -2.015625 "/></g></g><g transform="translate(624.978776, 166.76474)"><g><path d="M 6.296875 -12.84375 C 8.378906 -12.84375 9.96875 -12.300781 11.0625 -11.21875 C 12.164062 -10.144531 12.71875 -8.546875 12.71875 -6.421875 C 12.71875 -4.304688 12.164062 -2.707031 11.0625 -1.625 C 9.96875 -0.539062 8.378906 0 6.296875 0 L 1.671875 0 L 1.671875 -12.84375 Z M 6.140625 -2.140625 C 7.460938 -2.140625 8.453125 -2.476562 9.109375 -3.15625 C 9.765625 -3.832031 10.09375 -4.921875 10.09375 -6.421875 C 10.09375 -7.929688 9.765625 -9.023438 9.109375 -9.703125 C 8.453125 -10.378906 7.460938 -10.71875 6.140625 -10.71875 L 4.203125 -10.71875 L 4.203125 -2.140625 Z M 6.140625 -2.140625 "/></g></g><g transform="translate(638.71608, 166.76474)"><g><path d="M 4.203125 -5.640625 L 4.203125 -2.125 L 10.34375 -2.125 L 10.34375 0 L 1.671875 0 L 1.671875 -12.84375 L 10.203125 -12.84375 L 10.203125 -10.71875 L 4.203125 -10.71875 L 4.203125 -7.71875 L 9.453125 -7.71875 L 9.453125 -5.640625 Z M 4.203125 -5.640625 "/></g></g><g transform="translate(649.763931, 166.76474)"><g><path d="M 6.15625 -5.171875 L 0.765625 -5.171875 L 0.765625 -7.3125 L 6.15625 -7.3125 Z M 6.15625 -5.171875 "/></g></g><g transform="translate(656.698501, 166.76474)"><g><path d="M 5.234375 0.1875 C 3.859375 0.1875 2.765625 -0.101562 1.953125 -0.6875 C 1.148438 -1.269531 0.640625 -2.097656 0.421875 -3.171875 L 2.34375 -4.0625 L 2.546875 -4.03125 C 2.765625 -3.320312 3.070312 -2.800781 3.46875 -2.46875 C 3.875 -2.144531 4.4375 -1.984375 5.15625 -1.984375 C 5.84375 -1.984375 6.367188 -2.144531 6.734375 -2.46875 C 7.097656 -2.789062 7.28125 -3.257812 7.28125 -3.875 C 7.28125 -4.476562 7.097656 -4.941406 6.734375 -5.265625 C 6.378906 -5.585938 5.851562 -5.75 5.15625 -5.75 L 3.21875 -5.75 L 3.21875 -7.71875 L 4.90625 -7.71875 C 5.476562 -7.71875 5.929688 -7.863281 6.265625 -8.15625 C 6.609375 -8.445312 6.78125 -8.859375 6.78125 -9.390625 C 6.78125 -9.910156 6.617188 -10.304688 6.296875 -10.578125 C 5.984375 -10.847656 5.546875 -10.984375 4.984375 -10.984375 C 4.410156 -10.984375 3.898438 -10.847656 3.453125 -10.578125 C 3.015625 -10.304688 2.660156 -9.941406 2.390625 -9.484375 L 2.1875 -9.453125 L 0.859375 -11 C 1.304688 -11.613281 1.882812 -12.101562 2.59375 -12.46875 C 3.300781 -12.84375 4.144531 -13.03125 5.125 -13.03125 C 6.46875 -13.03125 7.492188 -12.75 8.203125 -12.1875 C 8.910156 -11.625 9.265625 -10.832031 9.265625 -9.8125 C 9.265625 -9.195312 9.117188 -8.671875 8.828125 -8.234375 C 8.546875 -7.796875 8.140625 -7.421875 7.609375 -7.109375 L 7.609375 -6.921875 C 9.085938 -6.398438 9.828125 -5.347656 9.828125 -3.765625 C 9.828125 -2.960938 9.65625 -2.265625 9.3125 -1.671875 C 8.976562 -1.085938 8.46875 -0.628906 7.78125 -0.296875 C 7.09375 0.0234375 6.242188 0.1875 5.234375 0.1875 Z M 5.234375 0.1875 "/></g></g></g><g clip-path="url(#3ce339737d)"><g clip-path="url(#4782b698b2)"><path fill="#ffde59" d="M 64.03125 193.316406 L 206.75 193.316406 L 206.75 232.960938 L 64.03125 232.960938 Z M 64.03125 193.316406 " fill-opacity="1" fill-rule="nonzero"/></g></g><g fill="#000000" fill-opacity="1"><g transform="translate(101.506321, 215.815967)"><g><path d="M 3.203125 0.140625 C 2.421875 0.140625 1.84375 -0.0703125 1.46875 -0.5 C 1.09375 -0.9375 0.90625 -1.554688 0.90625 -2.359375 L 0.90625 -7 L 2.65625 -7 L 2.65625 -2.578125 C 2.65625 -2.148438 2.75 -1.835938 2.9375 -1.640625 C 3.125 -1.453125 3.410156 -1.359375 3.796875 -1.359375 C 4.273438 -1.359375 4.648438 -1.515625 4.921875 -1.828125 C 5.191406 -2.148438 5.328125 -2.65625 5.328125 -3.34375 L 5.328125 -7 L 7.09375 -7 L 7.09375 0 L 5.40625 0 L 5.40625 -1.03125 L 5.265625 -1.0625 C 5.046875 -0.65625 4.773438 -0.351562 4.453125 -0.15625 C 4.128906 0.0390625 3.710938 0.140625 3.203125 0.140625 Z M 3.203125 0.140625 "/></g></g></g><g fill="#000000" fill-opacity="1"><g transform="translate(109.603497, 215.815967)"><g><path d="M 3.28125 0.140625 C 2.800781 0.140625 2.359375 0.0820312 1.953125 -0.03125 C 1.554688 -0.144531 1.21875 -0.300781 0.9375 -0.5 C 0.65625 -0.695312 0.445312 -0.921875 0.3125 -1.171875 L 1.296875 -2.234375 L 1.421875 -2.234375 C 1.660156 -1.921875 1.9375 -1.679688 2.25 -1.515625 C 2.570312 -1.359375 2.914062 -1.28125 3.28125 -1.28125 C 3.625 -1.28125 3.882812 -1.34375 4.0625 -1.46875 C 4.238281 -1.59375 4.328125 -1.769531 4.328125 -2 C 4.328125 -2.175781 4.265625 -2.320312 4.140625 -2.4375 C 4.015625 -2.5625 3.8125 -2.660156 3.53125 -2.734375 L 2.609375 -2.953125 C 1.910156 -3.117188 1.398438 -3.367188 1.078125 -3.703125 C 0.765625 -4.046875 0.609375 -4.484375 0.609375 -5.015625 C 0.609375 -5.441406 0.71875 -5.816406 0.9375 -6.140625 C 1.15625 -6.460938 1.46875 -6.707031 1.875 -6.875 C 2.28125 -7.050781 2.75 -7.140625 3.28125 -7.140625 C 3.914062 -7.140625 4.441406 -7.046875 4.859375 -6.859375 C 5.273438 -6.679688 5.597656 -6.4375 5.828125 -6.125 L 4.890625 -5.109375 L 4.765625 -5.109375 C 4.566406 -5.335938 4.34375 -5.5 4.09375 -5.59375 C 3.851562 -5.695312 3.582031 -5.75 3.28125 -5.75 C 2.59375 -5.75 2.25 -5.535156 2.25 -5.109375 C 2.25 -4.921875 2.3125 -4.769531 2.4375 -4.65625 C 2.570312 -4.539062 2.800781 -4.445312 3.125 -4.375 L 3.984375 -4.1875 C 4.691406 -4.039062 5.207031 -3.796875 5.53125 -3.453125 C 5.863281 -3.117188 6.03125 -2.664062 6.03125 -2.09375 C 6.03125 -1.65625 5.921875 -1.265625 5.703125 -0.921875 C 5.484375 -0.585938 5.164062 -0.328125 4.75 -0.140625 C 4.332031 0.046875 3.84375 0.140625 3.28125 0.140625 Z M 3.28125 0.140625 "/></g></g></g><g fill="#000000" fill-opacity="1"><g transform="translate(116.057129, 215.815967)"><g><path d="M 4.4375 -3.734375 L 0.546875 -3.734375 L 0.546875 -5.28125 L 4.4375 -5.28125 Z M 4.4375 -3.734375 "/></g></g></g><g fill="#000000" fill-opacity="1"><g transform="translate(121.06393, 215.815967)"><g><path d="M 6.921875 -3.109375 L 2.421875 -3.109375 C 2.472656 -2.492188 2.644531 -2.046875 2.9375 -1.765625 C 3.238281 -1.492188 3.644531 -1.359375 4.15625 -1.359375 C 4.550781 -1.359375 4.875 -1.429688 5.125 -1.578125 C 5.375 -1.734375 5.578125 -1.960938 5.734375 -2.265625 L 5.859375 -2.265625 L 7.03125 -1.515625 C 6.800781 -1.023438 6.457031 -0.625 6 -0.3125 C 5.539062 -0.0078125 4.925781 0.140625 4.15625 0.140625 C 3.425781 0.140625 2.796875 0.00390625 2.265625 -0.265625 C 1.742188 -0.546875 1.335938 -0.957031 1.046875 -1.5 C 0.765625 -2.050781 0.625 -2.71875 0.625 -3.5 C 0.625 -4.289062 0.773438 -4.957031 1.078125 -5.5 C 1.378906 -6.050781 1.785156 -6.460938 2.296875 -6.734375 C 2.804688 -7.003906 3.382812 -7.140625 4.03125 -7.140625 C 5.019531 -7.140625 5.773438 -6.875 6.296875 -6.34375 C 6.828125 -5.820312 7.09375 -5.050781 7.09375 -4.03125 C 7.09375 -3.664062 7.078125 -3.382812 7.046875 -3.1875 Z M 5.40625 -4.234375 C 5.394531 -4.773438 5.269531 -5.164062 5.03125 -5.40625 C 4.800781 -5.644531 4.46875 -5.765625 4.03125 -5.765625 C 3.132812 -5.765625 2.609375 -5.253906 2.453125 -4.234375 Z M 5.40625 -4.234375 "/></g></g></g><g fill="#000000" fill-opacity="1"><g transform="translate(128.672489, 215.815967)"><g><path d="M 2.734375 0.140625 C 2.285156 0.140625 1.894531 0.0546875 1.5625 -0.109375 C 1.226562 -0.273438 0.972656 -0.519531 0.796875 -0.84375 C 0.617188 -1.164062 0.53125 -1.550781 0.53125 -2 C 0.53125 -2.40625 0.617188 -2.75 0.796875 -3.03125 C 0.972656 -3.3125 1.25 -3.539062 1.625 -3.71875 C 2 -3.90625 2.484375 -4.046875 3.078125 -4.140625 C 3.503906 -4.210938 3.828125 -4.285156 4.046875 -4.359375 C 4.265625 -4.441406 4.410156 -4.535156 4.484375 -4.640625 C 4.554688 -4.742188 4.59375 -4.875 4.59375 -5.03125 C 4.59375 -5.25 4.515625 -5.414062 4.359375 -5.53125 C 4.203125 -5.65625 3.941406 -5.71875 3.578125 -5.71875 C 3.191406 -5.71875 2.820312 -5.628906 2.46875 -5.453125 C 2.113281 -5.285156 1.8125 -5.0625 1.5625 -4.78125 L 1.421875 -4.78125 L 0.6875 -5.890625 C 1.039062 -6.273438 1.472656 -6.578125 1.984375 -6.796875 C 2.503906 -7.023438 3.066406 -7.140625 3.671875 -7.140625 C 4.597656 -7.140625 5.265625 -6.941406 5.671875 -6.546875 C 6.085938 -6.148438 6.296875 -5.59375 6.296875 -4.875 L 6.296875 -1.828125 C 6.296875 -1.515625 6.4375 -1.359375 6.71875 -1.359375 C 6.820312 -1.359375 6.925781 -1.378906 7.03125 -1.421875 L 7.109375 -1.390625 L 7.25 -0.171875 C 7.144531 -0.0976562 7.003906 -0.0390625 6.828125 0 C 6.660156 0.03125 6.472656 0.046875 6.265625 0.046875 C 5.847656 0.046875 5.519531 -0.03125 5.28125 -0.1875 C 5.050781 -0.351562 4.882812 -0.609375 4.78125 -0.953125 L 4.640625 -0.953125 C 4.296875 -0.222656 3.660156 0.140625 2.734375 0.140625 Z M 3.28125 -1.1875 C 3.6875 -1.1875 4.007812 -1.320312 4.25 -1.59375 C 4.5 -1.863281 4.625 -2.242188 4.625 -2.734375 L 4.625 -3.4375 L 4.5 -3.46875 C 4.394531 -3.382812 4.253906 -3.3125 4.078125 -3.25 C 3.910156 -3.195312 3.671875 -3.140625 3.359375 -3.078125 C 2.972656 -3.015625 2.695312 -2.90625 2.53125 -2.75 C 2.363281 -2.601562 2.28125 -2.382812 2.28125 -2.09375 C 2.28125 -1.800781 2.367188 -1.578125 2.546875 -1.421875 C 2.722656 -1.265625 2.96875 -1.1875 3.28125 -1.1875 Z M 3.28125 -1.1875 "/></g></g></g><g fill="#000000" fill-opacity="1"><g transform="translate(136.0526, 215.815967)"><g><path d="M 3.28125 0.140625 C 2.800781 0.140625 2.359375 0.0820312 1.953125 -0.03125 C 1.554688 -0.144531 1.21875 -0.300781 0.9375 -0.5 C 0.65625 -0.695312 0.445312 -0.921875 0.3125 -1.171875 L 1.296875 -2.234375 L 1.421875 -2.234375 C 1.660156 -1.921875 1.9375 -1.679688 2.25 -1.515625 C 2.570312 -1.359375 2.914062 -1.28125 3.28125 -1.28125 C 3.625 -1.28125 3.882812 -1.34375 4.0625 -1.46875 C 4.238281 -1.59375 4.328125 -1.769531 4.328125 -2 C 4.328125 -2.175781 4.265625 -2.320312 4.140625 -2.4375 C 4.015625 -2.5625 3.8125 -2.660156 3.53125 -2.734375 L 2.609375 -2.953125 C 1.910156 -3.117188 1.398438 -3.367188 1.078125 -3.703125 C 0.765625 -4.046875 0.609375 -4.484375 0.609375 -5.015625 C 0.609375 -5.441406 0.71875 -5.816406 0.9375 -6.140625 C 1.15625 -6.460938 1.46875 -6.707031 1.875 -6.875 C 2.28125 -7.050781 2.75 -7.140625 3.28125 -7.140625 C 3.914062 -7.140625 4.441406 -7.046875 4.859375 -6.859375 C 5.273438 -6.679688 5.597656 -6.4375 5.828125 -6.125 L 4.890625 -5.109375 L 4.765625 -5.109375 C 4.566406 -5.335938 4.34375 -5.5 4.09375 -5.59375 C 3.851562 -5.695312 3.582031 -5.75 3.28125 -5.75 C 2.59375 -5.75 2.25 -5.535156 2.25 -5.109375 C 2.25 -4.921875 2.3125 -4.769531 2.4375 -4.65625 C 2.570312 -4.539062 2.800781 -4.445312 3.125 -4.375 L 3.984375 -4.1875 C 4.691406 -4.039062 5.207031 -3.796875 5.53125 -3.453125 C 5.863281 -3.117188 6.03125 -2.664062 6.03125 -2.09375 C 6.03125 -1.65625 5.921875 -1.265625 5.703125 -0.921875 C 5.484375 -0.585938 5.164062 -0.328125 4.75 -0.140625 C 4.332031 0.046875 3.84375 0.140625 3.28125 0.140625 Z M 3.28125 0.140625 "/></g></g></g><g fill="#000000" fill-opacity="1"><g transform="translate(142.506232, 215.815967)"><g><path d="M 4.828125 -1.671875 L 5.28125 -0.375 C 5.09375 -0.21875 4.851562 -0.09375 4.5625 0 C 4.28125 0.09375 3.957031 0.140625 3.59375 0.140625 C 2.832031 0.140625 2.253906 -0.0664062 1.859375 -0.484375 C 1.472656 -0.898438 1.28125 -1.5 1.28125 -2.28125 L 1.28125 -5.609375 L 0.203125 -5.609375 L 0.203125 -7.015625 L 1.28125 -7.015625 L 1.28125 -8.375 L 3.03125 -8.65625 L 3.03125 -7.015625 L 5.015625 -7.015625 L 5.015625 -5.609375 L 3.03125 -5.609375 L 3.03125 -2.40625 C 3.03125 -2.0625 3.101562 -1.8125 3.25 -1.65625 C 3.394531 -1.5 3.601562 -1.421875 3.875 -1.421875 C 4.1875 -1.421875 4.460938 -1.503906 4.703125 -1.671875 Z M 4.828125 -1.671875 "/></g></g></g><g fill="#000000" fill-opacity="1"><g transform="translate(147.944544, 215.815967)"><g><path d="M 4.4375 -3.734375 L 0.546875 -3.734375 L 0.546875 -5.28125 L 4.4375 -5.28125 Z M 4.4375 -3.734375 "/></g></g></g><g fill="#000000" fill-opacity="1"><g transform="translate(152.951346, 215.815967)"><g><path d="M 0.453125 -0.734375 C 0.453125 -1.242188 0.503906 -1.675781 0.609375 -2.03125 C 0.722656 -2.382812 0.90625 -2.703125 1.15625 -2.984375 C 1.414062 -3.273438 1.78125 -3.585938 2.25 -3.921875 L 3.484375 -4.828125 C 3.828125 -5.066406 4.09375 -5.273438 4.28125 -5.453125 C 4.46875 -5.628906 4.609375 -5.8125 4.703125 -6 C 4.796875 -6.195312 4.84375 -6.421875 4.84375 -6.671875 C 4.84375 -7.054688 4.726562 -7.347656 4.5 -7.546875 C 4.269531 -7.753906 3.925781 -7.859375 3.46875 -7.859375 C 3.03125 -7.859375 2.640625 -7.753906 2.296875 -7.546875 C 1.953125 -7.335938 1.671875 -7.050781 1.453125 -6.6875 L 1.328125 -6.65625 L 0.3125 -7.78125 C 0.644531 -8.269531 1.078125 -8.660156 1.609375 -8.953125 C 2.140625 -9.253906 2.785156 -9.40625 3.546875 -9.40625 C 4.234375 -9.40625 4.8125 -9.289062 5.28125 -9.0625 C 5.75 -8.84375 6.097656 -8.535156 6.328125 -8.140625 C 6.554688 -7.742188 6.671875 -7.285156 6.671875 -6.765625 C 6.671875 -6.328125 6.578125 -5.925781 6.390625 -5.5625 C 6.203125 -5.195312 5.945312 -4.859375 5.625 -4.546875 C 5.300781 -4.242188 4.882812 -3.914062 4.375 -3.5625 L 3.28125 -2.796875 C 2.945312 -2.554688 2.710938 -2.34375 2.578125 -2.15625 C 2.453125 -1.976562 2.390625 -1.769531 2.390625 -1.53125 L 6.578125 -1.53125 L 6.578125 0 L 0.453125 0 Z M 0.453125 -0.734375 "/></g></g></g><g fill="#000000" fill-opacity="1"><g transform="translate(160.191851, 215.815967)"><g><path d="M 2.734375 0.140625 C 2.285156 0.140625 1.894531 0.0546875 1.5625 -0.109375 C 1.226562 -0.273438 0.972656 -0.519531 0.796875 -0.84375 C 0.617188 -1.164062 0.53125 -1.550781 0.53125 -2 C 0.53125 -2.40625 0.617188 -2.75 0.796875 -3.03125 C 0.972656 -3.3125 1.25 -3.539062 1.625 -3.71875 C 2 -3.90625 2.484375 -4.046875 3.078125 -4.140625 C 3.503906 -4.210938 3.828125 -4.285156 4.046875 -4.359375 C 4.265625 -4.441406 4.410156 -4.535156 4.484375 -4.640625 C 4.554688 -4.742188 4.59375 -4.875 4.59375 -5.03125 C 4.59375 -5.25 4.515625 -5.414062 4.359375 -5.53125 C 4.203125 -5.65625 3.941406 -5.71875 3.578125 -5.71875 C 3.191406 -5.71875 2.820312 -5.628906 2.46875 -5.453125 C 2.113281 -5.285156 1.8125 -5.0625 1.5625 -4.78125 L 1.421875 -4.78125 L 0.6875 -5.890625 C 1.039062 -6.273438 1.472656 -6.578125 1.984375 -6.796875 C 2.503906 -7.023438 3.066406 -7.140625 3.671875 -7.140625 C 4.597656 -7.140625 5.265625 -6.941406 5.671875 -6.546875 C 6.085938 -6.148438 6.296875 -5.59375 6.296875 -4.875 L 6.296875 -1.828125 C 6.296875 -1.515625 6.4375 -1.359375 6.71875 -1.359375 C 6.820312 -1.359375 6.925781 -1.378906 7.03125 -1.421875 L 7.109375 -1.390625 L 7.25 -0.171875 C 7.144531 -0.0976562 7.003906 -0.0390625 6.828125 0 C 6.660156 0.03125 6.472656 0.046875 6.265625 0.046875 C 5.847656 0.046875 5.519531 -0.03125 5.28125 -0.1875 C 5.050781 -0.351562 4.882812 -0.609375 4.78125 -0.953125 L 4.640625 -0.953125 C 4.296875 -0.222656 3.660156 0.140625 2.734375 0.140625 Z M 3.28125 -1.1875 C 3.6875 -1.1875 4.007812 -1.320312 4.25 -1.59375 C 4.5 -1.863281 4.625 -2.242188 4.625 -2.734375 L 4.625 -3.4375 L 4.5 -3.46875 C 4.394531 -3.382812 4.253906 -3.3125 4.078125 -3.25 C 3.910156 -3.195312 3.671875 -3.140625 3.359375 -3.078125 C 2.972656 -3.015625 2.695312 -2.90625 2.53125 -2.75 C 2.363281 -2.601562 2.28125 -2.382812 2.28125 -2.09375 C 2.28125 -1.800781 2.367188 -1.578125 2.546875 -1.421875 C 2.722656 -1.265625 2.96875 -1.1875 3.28125 -1.1875 Z M 3.28125 -1.1875 "/></g></g></g><g clip-path="url(#21e83af550)"><g clip-path="url(#e889e644b9)"><path fill="#ffde59" d="M 328.417969 454.625 L 463.210938 454.625 L 463.210938 494.269531 L 328.417969 494.269531 Z M 328.417969 454.625 " fill-opacity="1" fill-rule="nonzero"/></g></g><g fill="#000000" fill-opacity="1"><g transform="translate(361.314361, 477.123288)"><g><path d="M 3.203125 0.140625 C 2.421875 0.140625 1.84375 -0.0703125 1.46875 -0.5 C 1.09375 -0.9375 0.90625 -1.554688 0.90625 -2.359375 L 0.90625 -7 L 2.65625 -7 L 2.65625 -2.578125 C 2.65625 -2.148438 2.75 -1.835938 2.9375 -1.640625 C 3.125 -1.453125 3.410156 -1.359375 3.796875 -1.359375 C 4.273438 -1.359375 4.648438 -1.515625 4.921875 -1.828125 C 5.191406 -2.148438 5.328125 -2.65625 5.328125 -3.34375 L 5.328125 -7 L 7.09375 -7 L 7.09375 0 L 5.40625 0 L 5.40625 -1.03125 L 5.265625 -1.0625 C 5.046875 -0.65625 4.773438 -0.351562 4.453125 -0.15625 C 4.128906 0.0390625 3.710938 0.140625 3.203125 0.140625 Z M 3.203125 0.140625 "/></g></g></g><g fill="#000000" fill-opacity="1"><g transform="translate(369.411536, 477.123288)"><g><path d="M 3.28125 0.140625 C 2.800781 0.140625 2.359375 0.0820312 1.953125 -0.03125 C 1.554688 -0.144531 1.21875 -0.300781 0.9375 -0.5 C 0.65625 -0.695312 0.445312 -0.921875 0.3125 -1.171875 L 1.296875 -2.234375 L 1.421875 -2.234375 C 1.660156 -1.921875 1.9375 -1.679688 2.25 -1.515625 C 2.570312 -1.359375 2.914062 -1.28125 3.28125 -1.28125 C 3.625 -1.28125 3.882812 -1.34375 4.0625 -1.46875 C 4.238281 -1.59375 4.328125 -1.769531 4.328125 -2 C 4.328125 -2.175781 4.265625 -2.320312 4.140625 -2.4375 C 4.015625 -2.5625 3.8125 -2.660156 3.53125 -2.734375 L 2.609375 -2.953125 C 1.910156 -3.117188 1.398438 -3.367188 1.078125 -3.703125 C 0.765625 -4.046875 0.609375 -4.484375 0.609375 -5.015625 C 0.609375 -5.441406 0.71875 -5.816406 0.9375 -6.140625 C 1.15625 -6.460938 1.46875 -6.707031 1.875 -6.875 C 2.28125 -7.050781 2.75 -7.140625 3.28125 -7.140625 C 3.914062 -7.140625 4.441406 -7.046875 4.859375 -6.859375 C 5.273438 -6.679688 5.597656 -6.4375 5.828125 -6.125 L 4.890625 -5.109375 L 4.765625 -5.109375 C 4.566406 -5.335938 4.34375 -5.5 4.09375 -5.59375 C 3.851562 -5.695312 3.582031 -5.75 3.28125 -5.75 C 2.59375 -5.75 2.25 -5.535156 2.25 -5.109375 C 2.25 -4.921875 2.3125 -4.769531 2.4375 -4.65625 C 2.570312 -4.539062 2.800781 -4.445312 3.125 -4.375 L 3.984375 -4.1875 C 4.691406 -4.039062 5.207031 -3.796875 5.53125 -3.453125 C 5.863281 -3.117188 6.03125 -2.664062 6.03125 -2.09375 C 6.03125 -1.65625 5.921875 -1.265625 5.703125 -0.921875 C 5.484375 -0.585938 5.164062 -0.328125 4.75 -0.140625 C 4.332031 0.046875 3.84375 0.140625 3.28125 0.140625 Z M 3.28125 0.140625 "/></g></g></g><g fill="#000000" fill-opacity="1"><g transform="translate(375.865168, 477.123288)"><g><path d="M 4.4375 -3.734375 L 0.546875 -3.734375 L 0.546875 -5.28125 L 4.4375 -5.28125 Z M 4.4375 -3.734375 "/></g></g></g><g fill="#000000" fill-opacity="1"><g transform="translate(380.87197, 477.123288)"><g><path d="M 6.921875 -3.109375 L 2.421875 -3.109375 C 2.472656 -2.492188 2.644531 -2.046875 2.9375 -1.765625 C 3.238281 -1.492188 3.644531 -1.359375 4.15625 -1.359375 C 4.550781 -1.359375 4.875 -1.429688 5.125 -1.578125 C 5.375 -1.734375 5.578125 -1.960938 5.734375 -2.265625 L 5.859375 -2.265625 L 7.03125 -1.515625 C 6.800781 -1.023438 6.457031 -0.625 6 -0.3125 C 5.539062 -0.0078125 4.925781 0.140625 4.15625 0.140625 C 3.425781 0.140625 2.796875 0.00390625 2.265625 -0.265625 C 1.742188 -0.546875 1.335938 -0.957031 1.046875 -1.5 C 0.765625 -2.050781 0.625 -2.71875 0.625 -3.5 C 0.625 -4.289062 0.773438 -4.957031 1.078125 -5.5 C 1.378906 -6.050781 1.785156 -6.460938 2.296875 -6.734375 C 2.804688 -7.003906 3.382812 -7.140625 4.03125 -7.140625 C 5.019531 -7.140625 5.773438 -6.875 6.296875 -6.34375 C 6.828125 -5.820312 7.09375 -5.050781 7.09375 -4.03125 C 7.09375 -3.664062 7.078125 -3.382812 7.046875 -3.1875 Z M 5.40625 -4.234375 C 5.394531 -4.773438 5.269531 -5.164062 5.03125 -5.40625 C 4.800781 -5.644531 4.46875 -5.765625 4.03125 -5.765625 C 3.132812 -5.765625 2.609375 -5.253906 2.453125 -4.234375 Z M 5.40625 -4.234375 "/></g></g></g><g fill="#000000" fill-opacity="1"><g transform="translate(388.480528, 477.123288)"><g><path d="M 2.734375 0.140625 C 2.285156 0.140625 1.894531 0.0546875 1.5625 -0.109375 C 1.226562 -0.273438 0.972656 -0.519531 0.796875 -0.84375 C 0.617188 -1.164062 0.53125 -1.550781 0.53125 -2 C 0.53125 -2.40625 0.617188 -2.75 0.796875 -3.03125 C 0.972656 -3.3125 1.25 -3.539062 1.625 -3.71875 C 2 -3.90625 2.484375 -4.046875 3.078125 -4.140625 C 3.503906 -4.210938 3.828125 -4.285156 4.046875 -4.359375 C 4.265625 -4.441406 4.410156 -4.535156 4.484375 -4.640625 C 4.554688 -4.742188 4.59375 -4.875 4.59375 -5.03125 C 4.59375 -5.25 4.515625 -5.414062 4.359375 -5.53125 C 4.203125 -5.65625 3.941406 -5.71875 3.578125 -5.71875 C 3.191406 -5.71875 2.820312 -5.628906 2.46875 -5.453125 C 2.113281 -5.285156 1.8125 -5.0625 1.5625 -4.78125 L 1.421875 -4.78125 L 0.6875 -5.890625 C 1.039062 -6.273438 1.472656 -6.578125 1.984375 -6.796875 C 2.503906 -7.023438 3.066406 -7.140625 3.671875 -7.140625 C 4.597656 -7.140625 5.265625 -6.941406 5.671875 -6.546875 C 6.085938 -6.148438 6.296875 -5.59375 6.296875 -4.875 L 6.296875 -1.828125 C 6.296875 -1.515625 6.4375 -1.359375 6.71875 -1.359375 C 6.820312 -1.359375 6.925781 -1.378906 7.03125 -1.421875 L 7.109375 -1.390625 L 7.25 -0.171875 C 7.144531 -0.0976562 7.003906 -0.0390625 6.828125 0 C 6.660156 0.03125 6.472656 0.046875 6.265625 0.046875 C 5.847656 0.046875 5.519531 -0.03125 5.28125 -0.1875 C 5.050781 -0.351562 4.882812 -0.609375 4.78125 -0.953125 L 4.640625 -0.953125 C 4.296875 -0.222656 3.660156 0.140625 2.734375 0.140625 Z M 3.28125 -1.1875 C 3.6875 -1.1875 4.007812 -1.320312 4.25 -1.59375 C 4.5 -1.863281 4.625 -2.242188 4.625 -2.734375 L 4.625 -3.4375 L 4.5 -3.46875 C 4.394531 -3.382812 4.253906 -3.3125 4.078125 -3.25 C 3.910156 -3.195312 3.671875 -3.140625 3.359375 -3.078125 C 2.972656 -3.015625 2.695312 -2.90625 2.53125 -2.75 C 2.363281 -2.601562 2.28125 -2.382812 2.28125 -2.09375 C 2.28125 -1.800781 2.367188 -1.578125 2.546875 -1.421875 C 2.722656 -1.265625 2.96875 -1.1875 3.28125 -1.1875 Z M 3.28125 -1.1875 "/></g></g></g><g fill="#000000" fill-opacity="1"><g transform="translate(395.860639, 477.123288)"><g><path d="M 3.28125 0.140625 C 2.800781 0.140625 2.359375 0.0820312 1.953125 -0.03125 C 1.554688 -0.144531 1.21875 -0.300781 0.9375 -0.5 C 0.65625 -0.695312 0.445312 -0.921875 0.3125 -1.171875 L 1.296875 -2.234375 L 1.421875 -2.234375 C 1.660156 -1.921875 1.9375 -1.679688 2.25 -1.515625 C 2.570312 -1.359375 2.914062 -1.28125 3.28125 -1.28125 C 3.625 -1.28125 3.882812 -1.34375 4.0625 -1.46875 C 4.238281 -1.59375 4.328125 -1.769531 4.328125 -2 C 4.328125 -2.175781 4.265625 -2.320312 4.140625 -2.4375 C 4.015625 -2.5625 3.8125 -2.660156 3.53125 -2.734375 L 2.609375 -2.953125 C 1.910156 -3.117188 1.398438 -3.367188 1.078125 -3.703125 C 0.765625 -4.046875 0.609375 -4.484375 0.609375 -5.015625 C 0.609375 -5.441406 0.71875 -5.816406 0.9375 -6.140625 C 1.15625 -6.460938 1.46875 -6.707031 1.875 -6.875 C 2.28125 -7.050781 2.75 -7.140625 3.28125 -7.140625 C 3.914062 -7.140625 4.441406 -7.046875 4.859375 -6.859375 C 5.273438 -6.679688 5.597656 -6.4375 5.828125 -6.125 L 4.890625 -5.109375 L 4.765625 -5.109375 C 4.566406 -5.335938 4.34375 -5.5 4.09375 -5.59375 C 3.851562 -5.695312 3.582031 -5.75 3.28125 -5.75 C 2.59375 -5.75 2.25 -5.535156 2.25 -5.109375 C 2.25 -4.921875 2.3125 -4.769531 2.4375 -4.65625 C 2.570312 -4.539062 2.800781 -4.445312 3.125 -4.375 L 3.984375 -4.1875 C 4.691406 -4.039062 5.207031 -3.796875 5.53125 -3.453125 C 5.863281 -3.117188 6.03125 -2.664062 6.03125 -2.09375 C 6.03125 -1.65625 5.921875 -1.265625 5.703125 -0.921875 C 5.484375 -0.585938 5.164062 -0.328125 4.75 -0.140625 C 4.332031 0.046875 3.84375 0.140625 3.28125 0.140625 Z M 3.28125 0.140625 "/></g></g></g><g fill="#000000" fill-opacity="1"><g transform="translate(402.314271, 477.123288)"><g><path d="M 4.828125 -1.671875 L 5.28125 -0.375 C 5.09375 -0.21875 4.851562 -0.09375 4.5625 0 C 4.28125 0.09375 3.957031 0.140625 3.59375 0.140625 C 2.832031 0.140625 2.253906 -0.0664062 1.859375 -0.484375 C 1.472656 -0.898438 1.28125 -1.5 1.28125 -2.28125 L 1.28125 -5.609375 L 0.203125 -5.609375 L 0.203125 -7.015625 L 1.28125 -7.015625 L 1.28125 -8.375 L 3.03125 -8.65625 L 3.03125 -7.015625 L 5.015625 -7.015625 L 5.015625 -5.609375 L 3.03125 -5.609375 L 3.03125 -2.40625 C 3.03125 -2.0625 3.101562 -1.8125 3.25 -1.65625 C 3.394531 -1.5 3.601562 -1.421875 3.875 -1.421875 C 4.1875 -1.421875 4.460938 -1.503906 4.703125 -1.671875 Z M 4.828125 -1.671875 "/></g></g></g><g fill="#000000" fill-opacity="1"><g transform="translate(407.752584, 477.123288)"><g><path d="M 4.4375 -3.734375 L 0.546875 -3.734375 L 0.546875 -5.28125 L 4.4375 -5.28125 Z M 4.4375 -3.734375 "/></g></g></g><g fill="#000000" fill-opacity="1"><g transform="translate(412.759385, 477.123288)"><g><path d="M 0.453125 -0.734375 C 0.453125 -1.242188 0.503906 -1.675781 0.609375 -2.03125 C 0.722656 -2.382812 0.90625 -2.703125 1.15625 -2.984375 C 1.414062 -3.273438 1.78125 -3.585938 2.25 -3.921875 L 3.484375 -4.828125 C 3.828125 -5.066406 4.09375 -5.273438 4.28125 -5.453125 C 4.46875 -5.628906 4.609375 -5.8125 4.703125 -6 C 4.796875 -6.195312 4.84375 -6.421875 4.84375 -6.671875 C 4.84375 -7.054688 4.726562 -7.347656 4.5 -7.546875 C 4.269531 -7.753906 3.925781 -7.859375 3.46875 -7.859375 C 3.03125 -7.859375 2.640625 -7.753906 2.296875 -7.546875 C 1.953125 -7.335938 1.671875 -7.050781 1.453125 -6.6875 L 1.328125 -6.65625 L 0.3125 -7.78125 C 0.644531 -8.269531 1.078125 -8.660156 1.609375 -8.953125 C 2.140625 -9.253906 2.785156 -9.40625 3.546875 -9.40625 C 4.234375 -9.40625 4.8125 -9.289062 5.28125 -9.0625 C 5.75 -8.84375 6.097656 -8.535156 6.328125 -8.140625 C 6.554688 -7.742188 6.671875 -7.285156 6.671875 -6.765625 C 6.671875 -6.328125 6.578125 -5.925781 6.390625 -5.5625 C 6.203125 -5.195312 5.945312 -4.859375 5.625 -4.546875 C 5.300781 -4.242188 4.882812 -3.914062 4.375 -3.5625 L 3.28125 -2.796875 C 2.945312 -2.554688 2.710938 -2.34375 2.578125 -2.15625 C 2.453125 -1.976562 2.390625 -1.769531 2.390625 -1.53125 L 6.578125 -1.53125 L 6.578125 0 L 0.453125 0 Z M 0.453125 -0.734375 "/></g></g></g><g fill="#000000" fill-opacity="1"><g transform="translate(419.99989, 477.123288)"><g><path d="M 4.890625 0.140625 C 4.003906 0.140625 3.34375 -0.195312 2.90625 -0.875 L 2.765625 -0.84375 L 2.765625 0 L 1.015625 0 L 1.015625 -9.8125 L 2.765625 -9.8125 L 2.765625 -6.171875 L 2.90625 -6.15625 C 3.144531 -6.488281 3.425781 -6.734375 3.75 -6.890625 C 4.082031 -7.054688 4.476562 -7.140625 4.9375 -7.140625 C 5.5 -7.140625 5.988281 -7.003906 6.40625 -6.734375 C 6.832031 -6.460938 7.164062 -6.054688 7.40625 -5.515625 C 7.644531 -4.972656 7.765625 -4.300781 7.765625 -3.5 C 7.765625 -2.695312 7.640625 -2.023438 7.390625 -1.484375 C 7.148438 -0.941406 6.8125 -0.535156 6.375 -0.265625 C 5.945312 0.00390625 5.453125 0.140625 4.890625 0.140625 Z M 4.359375 -1.359375 C 4.878906 -1.359375 5.273438 -1.53125 5.546875 -1.875 C 5.816406 -2.21875 5.953125 -2.757812 5.953125 -3.5 C 5.953125 -4.238281 5.816406 -4.78125 5.546875 -5.125 C 5.273438 -5.46875 4.878906 -5.640625 4.359375 -5.640625 C 3.867188 -5.640625 3.476562 -5.460938 3.1875 -5.109375 C 2.894531 -4.753906 2.75 -4.21875 2.75 -3.5 C 2.75 -2.78125 2.894531 -2.242188 3.1875 -1.890625 C 3.476562 -1.535156 3.867188 -1.359375 4.359375 -1.359375 Z M 4.359375 -1.359375 "/></g></g></g><g clip-path="url(#2957c12255)"><g clip-path="url(#bf4e611b60)"><path fill="#ffde59" d="M 567.050781 193.316406 L 693.914062 193.316406 L 693.914062 232.960938 L 567.050781 232.960938 Z M 567.050781 193.316406 " fill-opacity="1" fill-rule="nonzero"/></g></g><g fill="#000000" fill-opacity="1"><g transform="translate(599.171061, 215.815967)"><g><path d="M 3.203125 0.140625 C 2.421875 0.140625 1.84375 -0.0703125 1.46875 -0.5 C 1.09375 -0.9375 0.90625 -1.554688 0.90625 -2.359375 L 0.90625 -7 L 2.65625 -7 L 2.65625 -2.578125 C 2.65625 -2.148438 2.75 -1.835938 2.9375 -1.640625 C 3.125 -1.453125 3.410156 -1.359375 3.796875 -1.359375 C 4.273438 -1.359375 4.648438 -1.515625 4.921875 -1.828125 C 5.191406 -2.148438 5.328125 -2.65625 5.328125 -3.34375 L 5.328125 -7 L 7.09375 -7 L 7.09375 0 L 5.40625 0 L 5.40625 -1.03125 L 5.265625 -1.0625 C 5.046875 -0.65625 4.773438 -0.351562 4.453125 -0.15625 C 4.128906 0.0390625 3.710938 0.140625 3.203125 0.140625 Z M 3.203125 0.140625 "/></g></g></g><g fill="#000000" fill-opacity="1"><g transform="translate(607.268236, 215.815967)"><g><path d="M 3.28125 0.140625 C 2.800781 0.140625 2.359375 0.0820312 1.953125 -0.03125 C 1.554688 -0.144531 1.21875 -0.300781 0.9375 -0.5 C 0.65625 -0.695312 0.445312 -0.921875 0.3125 -1.171875 L 1.296875 -2.234375 L 1.421875 -2.234375 C 1.660156 -1.921875 1.9375 -1.679688 2.25 -1.515625 C 2.570312 -1.359375 2.914062 -1.28125 3.28125 -1.28125 C 3.625 -1.28125 3.882812 -1.34375 4.0625 -1.46875 C 4.238281 -1.59375 4.328125 -1.769531 4.328125 -2 C 4.328125 -2.175781 4.265625 -2.320312 4.140625 -2.4375 C 4.015625 -2.5625 3.8125 -2.660156 3.53125 -2.734375 L 2.609375 -2.953125 C 1.910156 -3.117188 1.398438 -3.367188 1.078125 -3.703125 C 0.765625 -4.046875 0.609375 -4.484375 0.609375 -5.015625 C 0.609375 -5.441406 0.71875 -5.816406 0.9375 -6.140625 C 1.15625 -6.460938 1.46875 -6.707031 1.875 -6.875 C 2.28125 -7.050781 2.75 -7.140625 3.28125 -7.140625 C 3.914062 -7.140625 4.441406 -7.046875 4.859375 -6.859375 C 5.273438 -6.679688 5.597656 -6.4375 5.828125 -6.125 L 4.890625 -5.109375 L 4.765625 -5.109375 C 4.566406 -5.335938 4.34375 -5.5 4.09375 -5.59375 C 3.851562 -5.695312 3.582031 -5.75 3.28125 -5.75 C 2.59375 -5.75 2.25 -5.535156 2.25 -5.109375 C 2.25 -4.921875 2.3125 -4.769531 2.4375 -4.65625 C 2.570312 -4.539062 2.800781 -4.445312 3.125 -4.375 L 3.984375 -4.1875 C 4.691406 -4.039062 5.207031 -3.796875 5.53125 -3.453125 C 5.863281 -3.117188 6.03125 -2.664062 6.03125 -2.09375 C 6.03125 -1.65625 5.921875 -1.265625 5.703125 -0.921875 C 5.484375 -0.585938 5.164062 -0.328125 4.75 -0.140625 C 4.332031 0.046875 3.84375 0.140625 3.28125 0.140625 Z M 3.28125 0.140625 "/></g></g></g><g fill="#000000" fill-opacity="1"><g transform="translate(613.721868, 215.815967)"><g><path d="M 4.4375 -3.734375 L 0.546875 -3.734375 L 0.546875 -5.28125 L 4.4375 -5.28125 Z M 4.4375 -3.734375 "/></g></g></g><g fill="#000000" fill-opacity="1"><g transform="translate(618.728669, 215.815967)"><g><path d="M 6.921875 -3.109375 L 2.421875 -3.109375 C 2.472656 -2.492188 2.644531 -2.046875 2.9375 -1.765625 C 3.238281 -1.492188 3.644531 -1.359375 4.15625 -1.359375 C 4.550781 -1.359375 4.875 -1.429688 5.125 -1.578125 C 5.375 -1.734375 5.578125 -1.960938 5.734375 -2.265625 L 5.859375 -2.265625 L 7.03125 -1.515625 C 6.800781 -1.023438 6.457031 -0.625 6 -0.3125 C 5.539062 -0.0078125 4.925781 0.140625 4.15625 0.140625 C 3.425781 0.140625 2.796875 0.00390625 2.265625 -0.265625 C 1.742188 -0.546875 1.335938 -0.957031 1.046875 -1.5 C 0.765625 -2.050781 0.625 -2.71875 0.625 -3.5 C 0.625 -4.289062 0.773438 -4.957031 1.078125 -5.5 C 1.378906 -6.050781 1.785156 -6.460938 2.296875 -6.734375 C 2.804688 -7.003906 3.382812 -7.140625 4.03125 -7.140625 C 5.019531 -7.140625 5.773438 -6.875 6.296875 -6.34375 C 6.828125 -5.820312 7.09375 -5.050781 7.09375 -4.03125 C 7.09375 -3.664062 7.078125 -3.382812 7.046875 -3.1875 Z M 5.40625 -4.234375 C 5.394531 -4.773438 5.269531 -5.164062 5.03125 -5.40625 C 4.800781 -5.644531 4.46875 -5.765625 4.03125 -5.765625 C 3.132812 -5.765625 2.609375 -5.253906 2.453125 -4.234375 Z M 5.40625 -4.234375 "/></g></g></g><g fill="#000000" fill-opacity="1"><g transform="translate(626.337228, 215.815967)"><g><path d="M 2.734375 0.140625 C 2.285156 0.140625 1.894531 0.0546875 1.5625 -0.109375 C 1.226562 -0.273438 0.972656 -0.519531 0.796875 -0.84375 C 0.617188 -1.164062 0.53125 -1.550781 0.53125 -2 C 0.53125 -2.40625 0.617188 -2.75 0.796875 -3.03125 C 0.972656 -3.3125 1.25 -3.539062 1.625 -3.71875 C 2 -3.90625 2.484375 -4.046875 3.078125 -4.140625 C 3.503906 -4.210938 3.828125 -4.285156 4.046875 -4.359375 C 4.265625 -4.441406 4.410156 -4.535156 4.484375 -4.640625 C 4.554688 -4.742188 4.59375 -4.875 4.59375 -5.03125 C 4.59375 -5.25 4.515625 -5.414062 4.359375 -5.53125 C 4.203125 -5.65625 3.941406 -5.71875 3.578125 -5.71875 C 3.191406 -5.71875 2.820312 -5.628906 2.46875 -5.453125 C 2.113281 -5.285156 1.8125 -5.0625 1.5625 -4.78125 L 1.421875 -4.78125 L 0.6875 -5.890625 C 1.039062 -6.273438 1.472656 -6.578125 1.984375 -6.796875 C 2.503906 -7.023438 3.066406 -7.140625 3.671875 -7.140625 C 4.597656 -7.140625 5.265625 -6.941406 5.671875 -6.546875 C 6.085938 -6.148438 6.296875 -5.59375 6.296875 -4.875 L 6.296875 -1.828125 C 6.296875 -1.515625 6.4375 -1.359375 6.71875 -1.359375 C 6.820312 -1.359375 6.925781 -1.378906 7.03125 -1.421875 L 7.109375 -1.390625 L 7.25 -0.171875 C 7.144531 -0.0976562 7.003906 -0.0390625 6.828125 0 C 6.660156 0.03125 6.472656 0.046875 6.265625 0.046875 C 5.847656 0.046875 5.519531 -0.03125 5.28125 -0.1875 C 5.050781 -0.351562 4.882812 -0.609375 4.78125 -0.953125 L 4.640625 -0.953125 C 4.296875 -0.222656 3.660156 0.140625 2.734375 0.140625 Z M 3.28125 -1.1875 C 3.6875 -1.1875 4.007812 -1.320312 4.25 -1.59375 C 4.5 -1.863281 4.625 -2.242188 4.625 -2.734375 L 4.625 -3.4375 L 4.5 -3.46875 C 4.394531 -3.382812 4.253906 -3.3125 4.078125 -3.25 C 3.910156 -3.195312 3.671875 -3.140625 3.359375 -3.078125 C 2.972656 -3.015625 2.695312 -2.90625 2.53125 -2.75 C 2.363281 -2.601562 2.28125 -2.382812 2.28125 -2.09375 C 2.28125 -1.800781 2.367188 -1.578125 2.546875 -1.421875 C 2.722656 -1.265625 2.96875 -1.1875 3.28125 -1.1875 Z M 3.28125 -1.1875 "/></g></g></g><g fill="#000000" fill-opacity="1"><g transform="translate(633.717339, 215.815967)"><g><path d="M 3.28125 0.140625 C 2.800781 0.140625 2.359375 0.0820312 1.953125 -0.03125 C 1.554688 -0.144531 1.21875 -0.300781 0.9375 -0.5 C 0.65625 -0.695312 0.445312 -0.921875 0.3125 -1.171875 L 1.296875 -2.234375 L 1.421875 -2.234375 C 1.660156 -1.921875 1.9375 -1.679688 2.25 -1.515625 C 2.570312 -1.359375 2.914062 -1.28125 3.28125 -1.28125 C 3.625 -1.28125 3.882812 -1.34375 4.0625 -1.46875 C 4.238281 -1.59375 4.328125 -1.769531 4.328125 -2 C 4.328125 -2.175781 4.265625 -2.320312 4.140625 -2.4375 C 4.015625 -2.5625 3.8125 -2.660156 3.53125 -2.734375 L 2.609375 -2.953125 C 1.910156 -3.117188 1.398438 -3.367188 1.078125 -3.703125 C 0.765625 -4.046875 0.609375 -4.484375 0.609375 -5.015625 C 0.609375 -5.441406 0.71875 -5.816406 0.9375 -6.140625 C 1.15625 -6.460938 1.46875 -6.707031 1.875 -6.875 C 2.28125 -7.050781 2.75 -7.140625 3.28125 -7.140625 C 3.914062 -7.140625 4.441406 -7.046875 4.859375 -6.859375 C 5.273438 -6.679688 5.597656 -6.4375 5.828125 -6.125 L 4.890625 -5.109375 L 4.765625 -5.109375 C 4.566406 -5.335938 4.34375 -5.5 4.09375 -5.59375 C 3.851562 -5.695312 3.582031 -5.75 3.28125 -5.75 C 2.59375 -5.75 2.25 -5.535156 2.25 -5.109375 C 2.25 -4.921875 2.3125 -4.769531 2.4375 -4.65625 C 2.570312 -4.539062 2.800781 -4.445312 3.125 -4.375 L 3.984375 -4.1875 C 4.691406 -4.039062 5.207031 -3.796875 5.53125 -3.453125 C 5.863281 -3.117188 6.03125 -2.664062 6.03125 -2.09375 C 6.03125 -1.65625 5.921875 -1.265625 5.703125 -0.921875 C 5.484375 -0.585938 5.164062 -0.328125 4.75 -0.140625 C 4.332031 0.046875 3.84375 0.140625 3.28125 0.140625 Z M 3.28125 0.140625 "/></g></g></g><g fill="#000000" fill-opacity="1"><g transform="translate(640.170971, 215.815967)"><g><path d="M 4.828125 -1.671875 L 5.28125 -0.375 C 5.09375 -0.21875 4.851562 -0.09375 4.5625 0 C 4.28125 0.09375 3.957031 0.140625 3.59375 0.140625 C 2.832031 0.140625 2.253906 -0.0664062 1.859375 -0.484375 C 1.472656 -0.898438 1.28125 -1.5 1.28125 -2.28125 L 1.28125 -5.609375 L 0.203125 -5.609375 L 0.203125 -7.015625 L 1.28125 -7.015625 L 1.28125 -8.375 L 3.03125 -8.65625 L 3.03125 -7.015625 L 5.015625 -7.015625 L 5.015625 -5.609375 L 3.03125 -5.609375 L 3.03125 -2.40625 C 3.03125 -2.0625 3.101562 -1.8125 3.25 -1.65625 C 3.394531 -1.5 3.601562 -1.421875 3.875 -1.421875 C 4.1875 -1.421875 4.460938 -1.503906 4.703125 -1.671875 Z M 4.828125 -1.671875 "/></g></g></g><g fill="#000000" fill-opacity="1"><g transform="translate(645.609284, 215.815967)"><g><path d="M 4.4375 -3.734375 L 0.546875 -3.734375 L 0.546875 -5.28125 L 4.4375 -5.28125 Z M 4.4375 -3.734375 "/></g></g></g><g fill="#000000" fill-opacity="1"><g transform="translate(650.616085, 215.815967)"><g><path d="M 0.453125 -0.734375 C 0.453125 -1.242188 0.503906 -1.675781 0.609375 -2.03125 C 0.722656 -2.382812 0.90625 -2.703125 1.15625 -2.984375 C 1.414062 -3.273438 1.78125 -3.585938 2.25 -3.921875 L 3.484375 -4.828125 C 3.828125 -5.066406 4.09375 -5.273438 4.28125 -5.453125 C 4.46875 -5.628906 4.609375 -5.8125 4.703125 -6 C 4.796875 -6.195312 4.84375 -6.421875 4.84375 -6.671875 C 4.84375 -7.054688 4.726562 -7.347656 4.5 -7.546875 C 4.269531 -7.753906 3.925781 -7.859375 3.46875 -7.859375 C 3.03125 -7.859375 2.640625 -7.753906 2.296875 -7.546875 C 1.953125 -7.335938 1.671875 -7.050781 1.453125 -6.6875 L 1.328125 -6.65625 L 0.3125 -7.78125 C 0.644531 -8.269531 1.078125 -8.660156 1.609375 -8.953125 C 2.140625 -9.253906 2.785156 -9.40625 3.546875 -9.40625 C 4.234375 -9.40625 4.8125 -9.289062 5.28125 -9.0625 C 5.75 -8.84375 6.097656 -8.535156 6.328125 -8.140625 C 6.554688 -7.742188 6.671875 -7.285156 6.671875 -6.765625 C 6.671875 -6.328125 6.578125 -5.925781 6.390625 -5.5625 C 6.203125 -5.195312 5.945312 -4.859375 5.625 -4.546875 C 5.300781 -4.242188 4.882812 -3.914062 4.375 -3.5625 L 3.28125 -2.796875 C 2.945312 -2.554688 2.710938 -2.34375 2.578125 -2.15625 C 2.453125 -1.976562 2.390625 -1.769531 2.390625 -1.53125 L 6.578125 -1.53125 L 6.578125 0 L 0.453125 0 Z M 0.453125 -0.734375 "/></g></g></g><g fill="#000000" fill-opacity="1"><g transform="translate(657.85659, 215.815967)"><g><path d="M 4.078125 0.140625 C 3.398438 0.140625 2.800781 0 2.28125 -0.28125 C 1.757812 -0.570312 1.351562 -0.988281 1.0625 -1.53125 C 0.769531 -2.070312 0.625 -2.726562 0.625 -3.5 C 0.625 -4.269531 0.769531 -4.925781 1.0625 -5.46875 C 1.351562 -6.019531 1.753906 -6.4375 2.265625 -6.71875 C 2.785156 -7 3.378906 -7.140625 4.046875 -7.140625 C 5.523438 -7.140625 6.472656 -6.601562 6.890625 -5.53125 L 5.6875 -4.671875 L 5.546875 -4.671875 C 5.398438 -4.992188 5.210938 -5.234375 4.984375 -5.390625 C 4.753906 -5.554688 4.441406 -5.640625 4.046875 -5.640625 C 3.535156 -5.640625 3.140625 -5.460938 2.859375 -5.109375 C 2.578125 -4.765625 2.4375 -4.226562 2.4375 -3.5 C 2.4375 -2.78125 2.578125 -2.242188 2.859375 -1.890625 C 3.148438 -1.535156 3.554688 -1.359375 4.078125 -1.359375 C 4.460938 -1.359375 4.785156 -1.457031 5.046875 -1.65625 C 5.316406 -1.863281 5.507812 -2.160156 5.625 -2.546875 L 5.75 -2.5625 L 7 -1.875 C 6.820312 -1.28125 6.492188 -0.796875 6.015625 -0.421875 C 5.535156 -0.046875 4.890625 0.140625 4.078125 0.140625 Z M 4.078125 0.140625 "/></g></g></g><path fill="#000000" d="M 227.738281 156.996094 L 231.488281 157.011719 L 231.472656 160.761719 L 227.722656 160.746094 M 235.234375 157.023438 L 238.984375 157.039062 L 238.972656 160.789062 L 235.222656 160.773438 M 242.734375 157.054688 L 246.484375 157.070312 L 246.46875 160.820312 L 242.71875 160.804688 M 250.234375 157.082031 L 253.984375 157.097656 L 253.96875 160.847656 L 250.21875 160.832031 M 257.730469 157.113281 L 261.480469 157.128906 L 261.464844 160.878906 L 257.71875 160.863281 M 265.230469 157.140625 L 268.980469 157.15625 L 268.964844 160.90625 L 265.214844 160.890625 M 272.730469 157.171875 L 276.476562 157.183594 L 276.464844 160.933594 L 272.714844 160.921875 M 280.226562 157.199219 L 283.976562 157.214844 L 283.960938 160.964844 L 280.214844 160.949219 M 287.726562 157.230469 L 291.476562 157.242188 L 291.460938 160.992188 L 287.710938 160.980469 M 295.226562 157.257812 L 298.972656 157.273438 L 298.960938 161.023438 L 295.210938 161.007812 M 302.722656 157.289062 L 306.472656 157.300781 L 306.457031 161.050781 L 302.707031 161.039062 M 310.222656 157.316406 L 313.972656 157.332031 L 313.957031 161.082031 L 310.207031 161.066406 M 317.71875 157.347656 L 321.46875 157.359375 L 321.453125 161.109375 L 317.707031 161.097656 M 325.21875 157.375 L 328.96875 157.390625 L 328.953125 161.140625 L 325.203125 161.125 M 332.71875 157.402344 L 336.464844 157.417969 L 336.453125 161.167969 L 332.703125 161.152344 M 340.214844 157.433594 L 343.964844 157.449219 L 343.949219 161.199219 L 340.203125 161.183594 M 347.714844 157.460938 L 351.464844 157.476562 L 351.449219 161.226562 L 347.699219 161.210938 M 355.214844 157.492188 L 358.960938 157.507812 L 358.949219 161.257812 L 355.199219 161.242188 M 362.710938 157.519531 L 366.460938 157.535156 L 366.445312 161.285156 L 362.695312 161.269531 M 370.210938 157.550781 L 373.960938 157.566406 L 373.945312 161.316406 L 370.195312 161.300781 M 377.707031 157.578125 L 381.457031 157.59375 L 381.445312 161.34375 L 377.695312 161.328125 M 385.207031 157.609375 L 388.957031 157.625 L 388.941406 161.375 L 385.191406 161.359375 M 392.707031 157.636719 L 396.457031 157.652344 L 396.441406 161.402344 L 392.691406 161.386719 M 400.203125 157.667969 L 403.953125 157.679688 L 403.9375 161.429688 L 400.191406 161.417969 M 407.703125 157.695312 L 411.453125 157.710938 L 411.4375 161.460938 L 407.6875 161.445312 M 415.203125 157.726562 L 418.949219 157.738281 L 418.9375 161.488281 L 415.1875 161.476562 M 422.699219 157.753906 L 426.449219 157.769531 L 426.433594 161.519531 L 422.683594 161.503906 M 430.199219 157.785156 L 433.949219 157.796875 L 433.933594 161.546875 L 430.183594 161.535156 M 437.695312 157.8125 L 441.445312 157.828125 L 441.433594 161.578125 L 437.683594 161.5625 M 445.195312 157.84375 L 448.945312 157.855469 L 448.929688 161.605469 L 445.179688 161.59375 M 452.695312 157.871094 L 456.445312 157.886719 L 456.429688 161.636719 L 452.679688 161.621094 M 460.191406 157.898438 L 463.941406 157.914062 L 463.925781 161.664062 L 460.179688 161.648438 M 467.691406 157.929688 L 471.441406 157.945312 L 471.425781 161.695312 L 467.675781 161.679688 M 475.191406 157.957031 L 478.9375 157.972656 L 478.925781 161.722656 L 475.175781 161.707031 M 482.6875 157.988281 L 486.4375 158.003906 L 486.421875 161.753906 L 482.675781 161.738281 M 490.1875 158.015625 L 493.9375 158.03125 L 493.921875 161.78125 L 490.171875 161.765625 M 497.6875 158.046875 L 501.433594 158.0625 L 501.421875 161.8125 L 497.671875 161.796875 M 505.183594 158.074219 L 508.933594 158.089844 L 508.917969 161.839844 L 505.167969 161.824219 M 512.683594 158.105469 L 516.433594 158.121094 L 516.417969 161.871094 L 512.667969 161.855469 M 520.179688 158.132812 L 523.929688 158.148438 L 523.914062 161.898438 L 520.167969 161.882812 M 527.679688 158.164062 L 531.429688 158.175781 L 531.414062 161.925781 L 527.664062 161.914062 M 535.179688 158.191406 L 538.925781 158.207031 L 538.914062 161.957031 L 535.164062 161.941406 " fill-opacity="1" fill-rule="nonzero"/><path stroke-linecap="round" transform="matrix(3.749277, 0.0145911, -0.0145938, 3.749972, 225.855737, 158.863372)" fill="none" stroke-linejoin="round" d="M 2.499779 -1.500387 L 0.500025 0.000113612 L 2.499996 1.499635 " stroke="#000000" stroke-width="1" stroke-opacity="1" stroke-miterlimit="4"/><path stroke-linecap="round" transform="matrix(3.749277, 0.0145911, -0.0145938, 3.749972, 542.361601, 160.095131)" fill="none" stroke-linejoin="round" d="M -2.499621 -1.500029 L -0.49965 -0.000507464 L -2.500446 1.499997 " stroke="#000000" stroke-width="1" stroke-opacity="1" stroke-miterlimit="4"/><path fill="#000000" d="M 138.660156 247.519531 L 141.234375 250.242188 L 138.507812 252.820312 L 135.933594 250.097656 M 143.808594 252.964844 L 146.382812 255.6875 L 143.65625 258.265625 L 141.082031 255.542969 M 148.957031 258.410156 L 151.53125 261.132812 L 148.808594 263.707031 L 146.230469 260.984375 M 154.105469 263.855469 L 156.679688 266.578125 L 153.957031 269.152344 L 151.382812 266.429688 M 159.253906 269.300781 L 161.828125 272.023438 L 159.105469 274.597656 L 156.53125 271.875 M 164.402344 274.742188 L 166.976562 277.464844 L 164.253906 280.042969 L 161.679688 277.320312 M 169.550781 280.1875 L 172.128906 282.910156 L 169.402344 285.488281 L 166.828125 282.765625 M 174.703125 285.632812 L 177.277344 288.355469 L 174.550781 290.933594 L 171.976562 288.210938 M 179.851562 291.078125 L 182.425781 293.800781 L 179.699219 296.378906 L 177.125 293.65625 M 185 296.523438 L 187.574219 299.246094 L 184.847656 301.820312 L 182.273438 299.101562 M 190.148438 301.96875 L 192.722656 304.691406 L 189.996094 307.265625 L 187.421875 304.542969 M 195.296875 307.414062 L 197.871094 310.136719 L 195.148438 312.710938 L 192.574219 309.988281 M 200.445312 312.859375 L 203.019531 315.578125 L 200.296875 318.15625 L 197.722656 315.433594 M 205.59375 318.300781 L 208.167969 321.023438 L 205.445312 323.601562 L 202.871094 320.878906 M 210.742188 323.746094 L 213.316406 326.46875 L 210.59375 329.046875 L 208.019531 326.324219 M 215.890625 329.191406 L 218.46875 331.914062 L 215.742188 334.492188 L 213.167969 331.769531 M 221.042969 334.636719 L 223.617188 337.359375 L 220.890625 339.9375 L 218.316406 337.214844 M 226.191406 340.082031 L 228.765625 342.804688 L 226.039062 345.378906 L 223.464844 342.660156 M 231.339844 345.527344 L 233.914062 348.25 L 231.1875 350.824219 L 228.613281 348.101562 M 236.488281 350.972656 L 239.0625 353.695312 L 236.335938 356.269531 L 233.761719 353.546875 M 241.636719 356.417969 L 244.210938 359.136719 L 241.488281 361.714844 L 238.914062 358.992188 M 246.785156 361.859375 L 249.359375 364.582031 L 246.636719 367.160156 L 244.0625 364.4375 M 251.933594 367.304688 L 254.507812 370.027344 L 251.785156 372.605469 L 249.210938 369.882812 M 257.082031 372.75 L 259.65625 375.472656 L 256.933594 378.050781 L 254.359375 375.328125 M 262.234375 378.195312 L 264.808594 380.917969 L 262.082031 383.496094 L 259.507812 380.773438 M 267.382812 383.640625 L 269.957031 386.363281 L 267.230469 388.9375 L 264.65625 386.214844 M 272.53125 389.085938 L 275.105469 391.808594 L 272.378906 394.382812 L 269.804688 391.660156 M 277.679688 394.53125 L 280.253906 397.253906 L 277.527344 399.828125 L 274.953125 397.105469 M 282.828125 399.976562 L 285.402344 402.695312 L 282.679688 405.273438 L 280.101562 402.550781 M 287.976562 405.417969 L 290.550781 408.140625 L 287.828125 410.71875 L 285.253906 407.996094 M 293.125 410.863281 L 295.699219 413.585938 L 292.976562 416.164062 L 290.402344 413.441406 M 298.273438 416.308594 L 300.847656 419.03125 L 298.125 421.609375 L 295.550781 418.886719 " fill-opacity="1" fill-rule="nonzero"/><path stroke-linecap="round" transform="matrix(2.574444, 2.722405, -2.724658, 2.576575, 136.009624, 247.446982)" fill="none" stroke-linejoin="round" d="M 2.499456 -1.499974 L 0.500085 0.0000694421 L 2.499985 1.499756 " stroke="#000000" stroke-width="1" stroke-opacity="1" stroke-miterlimit="4"/><path stroke-linecap="round" transform="matrix(2.574444, 2.722405, -2.724658, 2.576575, 301.431463, 422.376218)" fill="none" stroke-linejoin="round" d="M -2.499729 -1.499631 L -0.499829 0.0000552613 L -2.499957 1.499383 " stroke="#000000" stroke-width="1" stroke-opacity="1" stroke-miterlimit="4"/><path fill="#000000" d="M 480.785156 419.871094 L 483.242188 417.042969 L 486.074219 419.503906 L 483.613281 422.332031 M 485.703125 414.214844 L 488.164062 411.382812 L 490.992188 413.84375 L 488.53125 416.671875 M 490.621094 408.554688 L 493.082031 405.726562 L 495.910156 408.1875 L 493.453125 411.015625 M 495.539062 402.898438 L 498 400.070312 L 500.828125 402.53125 L 498.371094 405.359375 M 500.460938 397.242188 L 502.917969 394.414062 L 505.75 396.875 L 503.289062 399.703125 M 505.378906 391.585938 L 507.835938 388.753906 L 510.667969 391.214844 L 508.207031 394.042969 M 510.296875 385.925781 L 512.757812 383.097656 L 515.585938 385.558594 L 513.125 388.386719 M 515.214844 380.269531 L 517.675781 377.441406 L 520.503906 379.902344 L 518.046875 382.730469 M 520.132812 374.613281 L 522.59375 371.785156 L 525.425781 374.246094 L 522.964844 377.074219 M 525.054688 368.957031 L 527.511719 366.125 L 530.34375 368.585938 L 527.882812 371.414062 M 529.972656 363.296875 L 532.429688 360.46875 L 535.261719 362.929688 L 532.800781 365.757812 M 534.890625 357.640625 L 537.351562 354.8125 L 540.179688 357.273438 L 537.722656 360.101562 M 539.808594 351.984375 L 542.269531 349.15625 L 545.097656 351.617188 L 542.640625 354.445312 M 544.726562 346.328125 L 547.1875 343.496094 L 550.019531 345.957031 L 547.558594 348.785156 M 549.648438 340.667969 L 552.105469 337.839844 L 554.9375 340.300781 L 552.476562 343.128906 M 554.566406 335.011719 L 557.023438 332.183594 L 559.855469 334.644531 L 557.394531 337.472656 M 559.484375 329.355469 L 561.945312 326.527344 L 564.773438 328.988281 L 562.316406 331.816406 M 564.402344 323.699219 L 566.863281 320.867188 L 569.691406 323.328125 L 567.234375 326.15625 M 569.324219 318.039062 L 571.78125 315.210938 L 574.613281 317.671875 L 572.152344 320.5 M 574.242188 312.382812 L 576.699219 309.554688 L 579.53125 312.015625 L 577.070312 314.84375 M 579.160156 306.726562 L 581.621094 303.898438 L 584.449219 306.359375 L 581.988281 309.1875 M 584.078125 301.070312 L 586.539062 298.238281 L 589.367188 300.699219 L 586.910156 303.527344 M 588.996094 295.410156 L 591.457031 292.582031 L 594.285156 295.042969 L 591.828125 297.871094 M 593.917969 289.753906 L 596.375 286.925781 L 599.207031 289.386719 L 596.746094 292.214844 M 598.835938 284.097656 L 601.292969 281.269531 L 604.125 283.730469 L 601.664062 286.558594 M 603.753906 278.441406 L 606.214844 275.609375 L 609.042969 278.070312 L 606.582031 280.898438 M 608.671875 272.78125 L 611.132812 269.953125 L 613.960938 272.414062 L 611.503906 275.242188 M 613.589844 267.125 L 616.050781 264.296875 L 618.878906 266.757812 L 616.421875 269.585938 M 618.511719 261.46875 L 620.96875 258.640625 L 623.800781 261.101562 L 621.339844 263.929688 M 623.429688 255.8125 L 625.886719 252.980469 L 628.71875 255.441406 L 626.257812 258.269531 M 628.347656 250.152344 L 629.40625 248.9375 L 632.234375 251.398438 L 631.175781 252.613281 " fill-opacity="1" fill-rule="nonzero"/><path stroke-linecap="round" transform="matrix(2.459387, -2.828611, 2.829907, 2.460513, 480.969628, 422.514842)" fill="none" stroke-linejoin="round" d="M 2.500035 -1.499406 L 0.499776 0.000158837 L 2.500313 1.499843 " stroke="#000000" stroke-width="1" stroke-opacity="1" stroke-miterlimit="4"/><path stroke-linecap="round" transform="matrix(2.459387, -2.828611, 2.829907, 2.460513, 632.050342, 248.752567)" fill="none" stroke-linejoin="round" d="M -2.50003 -1.500244 L -0.500279 0.000124165 L -2.499855 1.500475 " stroke="#000000" stroke-width="1" stroke-opacity="1" stroke-miterlimit="4"/><g clip-path="url(#f7022a1442)"><g clip-path="url(#37155c0795)"><path fill="#5ce1e6" d="M 324.835938 355.078125 L 459.628906 355.078125 L 459.628906 378.863281 L 324.835938 378.863281 Z M 324.835938 355.078125 " fill-opacity="1" fill-rule="nonzero"/></g></g><g fill="#000000" fill-opacity="1"><g transform="translate(361.727562, 372.327134)"><g><path d="M 3.046875 -9.28125 L 3.046875 -1.53125 L 7.21875 -1.53125 L 7.21875 0 L 1.203125 0 L 1.203125 -9.28125 Z M 3.046875 -9.28125 "/></g></g></g><g fill="#000000" fill-opacity="1"><g transform="translate(369.240928, 372.327134)"><g><path d="M 3.046875 -4.078125 L 3.046875 -1.53125 L 7.46875 -1.53125 L 7.46875 0 L 1.203125 0 L 1.203125 -9.28125 L 7.375 -9.28125 L 7.375 -7.75 L 3.046875 -7.75 L 3.046875 -5.578125 L 6.828125 -5.578125 L 6.828125 -4.078125 Z M 3.046875 -4.078125 "/></g></g></g><g fill="#000000" fill-opacity="1"><g transform="translate(377.21754, 372.327134)"><g><path d="M 8.90625 0 L 6.96875 0 L 6.28125 -2.140625 L 2.71875 -2.140625 L 2.03125 0 L 0.140625 0 L 3.34375 -9.28125 L 5.703125 -9.28125 Z M 4.40625 -7.34375 L 3.21875 -3.6875 L 5.765625 -3.6875 L 4.578125 -7.34375 Z M 4.40625 -7.34375 "/></g></g></g><g fill="#000000" fill-opacity="1"><g transform="translate(386.260238, 372.327134)"><g><path d="M 4.546875 -9.28125 C 6.054688 -9.28125 7.207031 -8.890625 8 -8.109375 C 8.789062 -7.328125 9.1875 -6.171875 9.1875 -4.640625 C 9.1875 -3.109375 8.789062 -1.953125 8 -1.171875 C 7.207031 -0.390625 6.054688 0 4.546875 0 L 1.203125 0 L 1.203125 -9.28125 Z M 4.4375 -1.546875 C 5.394531 -1.546875 6.109375 -1.789062 6.578125 -2.28125 C 7.054688 -2.769531 7.296875 -3.554688 7.296875 -4.640625 C 7.296875 -5.722656 7.054688 -6.507812 6.578125 -7 C 6.109375 -7.488281 5.394531 -7.734375 4.4375 -7.734375 L 3.046875 -7.734375 L 3.046875 -1.546875 Z M 4.4375 -1.546875 "/></g></g></g><g fill="#000000" fill-opacity="1"><g transform="translate(396.178648, 372.327134)"><g><path d="M 3.046875 -4.078125 L 3.046875 -1.53125 L 7.46875 -1.53125 L 7.46875 0 L 1.203125 0 L 1.203125 -9.28125 L 7.375 -9.28125 L 7.375 -7.75 L 3.046875 -7.75 L 3.046875 -5.578125 L 6.828125 -5.578125 L 6.828125 -4.078125 Z M 3.046875 -4.078125 "/></g></g></g><g fill="#000000" fill-opacity="1"><g transform="translate(404.15526, 372.327134)"><g><path d="M 1.203125 0 L 1.203125 -9.28125 L 4.9375 -9.28125 C 5.894531 -9.28125 6.617188 -9.054688 7.109375 -8.609375 C 7.597656 -8.171875 7.84375 -7.5625 7.84375 -6.78125 C 7.84375 -6.21875 7.695312 -5.753906 7.40625 -5.390625 C 7.125 -5.035156 6.695312 -4.765625 6.125 -4.578125 L 6.125 -4.4375 C 6.414062 -4.3125 6.648438 -4.125 6.828125 -3.875 C 7.015625 -3.625 7.1875 -3.253906 7.34375 -2.765625 L 8.28125 0 L 6.390625 0 L 5.484375 -2.78125 C 5.390625 -3.050781 5.285156 -3.265625 5.171875 -3.421875 C 5.054688 -3.578125 4.90625 -3.6875 4.71875 -3.75 C 4.539062 -3.820312 4.3125 -3.859375 4.03125 -3.859375 L 3.046875 -3.859375 L 3.046875 0 Z M 4.703125 -5.3125 C 5.597656 -5.3125 6.046875 -5.726562 6.046875 -6.5625 C 6.046875 -7.40625 5.597656 -7.828125 4.703125 -7.828125 L 3.046875 -7.828125 L 3.046875 -5.3125 Z M 4.703125 -5.3125 "/></g></g></g><g fill="#000000" fill-opacity="1"><g transform="translate(412.829904, 372.327134)"><g><path d="M 4.109375 0.140625 C 3.472656 0.140625 2.898438 0.0625 2.390625 -0.09375 C 1.890625 -0.257812 1.472656 -0.472656 1.140625 -0.734375 C 0.804688 -0.992188 0.550781 -1.273438 0.375 -1.578125 L 1.390625 -2.8125 L 1.546875 -2.8125 C 1.828125 -2.394531 2.179688 -2.0625 2.609375 -1.8125 C 3.035156 -1.570312 3.535156 -1.453125 4.109375 -1.453125 C 4.597656 -1.453125 4.96875 -1.554688 5.21875 -1.765625 C 5.46875 -1.972656 5.59375 -2.257812 5.59375 -2.625 C 5.59375 -2.84375 5.550781 -3.023438 5.46875 -3.171875 C 5.394531 -3.316406 5.265625 -3.441406 5.078125 -3.546875 C 4.890625 -3.660156 4.640625 -3.753906 4.328125 -3.828125 L 3.125 -4.09375 C 2.289062 -4.289062 1.671875 -4.609375 1.265625 -5.046875 C 0.859375 -5.492188 0.65625 -6.066406 0.65625 -6.765625 C 0.65625 -7.296875 0.785156 -7.757812 1.046875 -8.15625 C 1.304688 -8.550781 1.6875 -8.859375 2.1875 -9.078125 C 2.695312 -9.296875 3.300781 -9.40625 4 -9.40625 C 4.707031 -9.40625 5.316406 -9.3125 5.828125 -9.125 C 6.335938 -8.9375 6.769531 -8.648438 7.125 -8.265625 L 6.21875 -7.015625 L 6.0625 -7.015625 C 5.789062 -7.296875 5.484375 -7.503906 5.140625 -7.640625 C 4.804688 -7.773438 4.425781 -7.84375 4 -7.84375 C 3.488281 -7.84375 3.101562 -7.753906 2.84375 -7.578125 C 2.582031 -7.398438 2.453125 -7.15625 2.453125 -6.84375 C 2.453125 -6.550781 2.539062 -6.316406 2.71875 -6.140625 C 2.90625 -5.972656 3.226562 -5.835938 3.6875 -5.734375 L 4.90625 -5.484375 C 5.800781 -5.296875 6.453125 -4.972656 6.859375 -4.515625 C 7.265625 -4.054688 7.46875 -3.460938 7.46875 -2.734375 C 7.46875 -2.148438 7.34375 -1.644531 7.09375 -1.21875 C 6.84375 -0.789062 6.46875 -0.457031 5.96875 -0.21875 C 5.46875 0.0195312 4.847656 0.140625 4.109375 0.140625 Z M 4.109375 0.140625 "/></g></g></g><path stroke-linecap="butt" transform="matrix(0.750772, 0.00107711, -0.001076, 0.749999, 329.568531, 380.430707)" fill="none" stroke-linejoin="miter" d="M 0.0000342728 1.998642 L 166.838761 1.99862 " stroke="#5ce1e6" stroke-width="4" stroke-opacity="1" stroke-miterlimit="4"/><path stroke-linecap="butt" transform="matrix(0.750773, 0, 0, 0.75, 329.572633, 350.788774)" fill="none" stroke-linejoin="miter" d="M 0.0021126 2.000385 L 166.840658 2.000385 " stroke="#5ce1e6" stroke-width="4" stroke-opacity="1" stroke-miterlimit="4"/></svg>