<svg xmlns="http://www.w3.org/2000/svg" xmlns:xlink="http://www.w3.org/1999/xlink" width="1024" zoomAndPan="magnify" viewBox="0 0 768 576" height="768" preserveAspectRatio="xMidYMid meet" version="1.0"><defs><g/><clipPath id="ee48c5d3c7"><path d="M 74.980469 33.085938 L 223 33.085938 L 223 181 L 74.980469 181 Z M 74.980469 33.085938 " clip-rule="nonzero"/></clipPath><clipPath id="a215066234"><path d="M 101.980469 33.085938 L 197.691406 33.085938 C 212.605469 33.085938 224.691406 45.171875 224.691406 60.085938 L 224.691406 153.691406 C 224.691406 168.605469 212.605469 180.691406 197.691406 180.691406 L 101.980469 180.691406 C 87.066406 180.691406 74.980469 168.605469 74.980469 153.691406 L 74.980469 60.085938 C 74.980469 45.171875 87.066406 33.085938 101.980469 33.085938 " clip-rule="nonzero"/></clipPath><clipPath id="5848cc9923"><path d="M 258.617188 42.125 L 491 42.125 L 491 73 L 258.617188 73 Z M 258.617188 42.125 " clip-rule="nonzero"/></clipPath><clipPath id="d912a8a49c"><path d="M 273.921875 42.125 L 474.726562 42.125 C 483.183594 42.125 490.035156 48.976562 490.035156 57.429688 C 490.035156 65.886719 483.183594 72.738281 474.726562 72.738281 L 273.921875 72.738281 C 265.46875 72.738281 258.617188 65.886719 258.617188 57.429688 C 258.617188 48.976562 265.46875 42.125 273.921875 42.125 " clip-rule="nonzero"/></clipPath><clipPath id="e54b87b8d2"><path d="M 261.496094 88.4375 L 493 88.4375 L 493 119 L 261.496094 119 Z M 261.496094 88.4375 " clip-rule="nonzero"/></clipPath><clipPath id="ae4b59d7c6"><path d="M 276.542969 88.4375 L 477.867188 88.4375 C 486.175781 88.4375 492.914062 95.175781 492.914062 103.488281 C 492.914062 111.796875 486.175781 118.535156 477.867188 118.535156 L 276.542969 118.535156 C 268.230469 118.535156 261.496094 111.796875 261.496094 103.488281 C 261.496094 95.175781 268.230469 88.4375 276.542969 88.4375 " clip-rule="nonzero"/></clipPath><clipPath id="dc5b30df35"><path d="M 261.496094 134.101562 L 493 134.101562 L 493 165 L 261.496094 165 Z M 261.496094 134.101562 " clip-rule="nonzero"/></clipPath><clipPath id="e987035cea"><path d="M 276.542969 134.101562 L 477.867188 134.101562 C 486.175781 134.101562 492.914062 140.835938 492.914062 149.148438 C 492.914062 157.457031 486.175781 164.195312 477.867188 164.195312 L 276.542969 164.195312 C 268.230469 164.195312 261.496094 157.457031 261.496094 149.148438 C 261.496094 140.835938 268.230469 134.101562 276.542969 134.101562 " clip-rule="nonzero"/></clipPath><clipPath id="424124e443"><path d="M 530.292969 317.875 L 703 317.875 L 703 348 L 530.292969 348 Z M 530.292969 317.875 " clip-rule="nonzero"/></clipPath><clipPath id="cacb40a098"><path d="M 545.34375 317.875 L 687.9375 317.875 C 696.25 317.875 702.984375 324.613281 702.984375 332.921875 C 702.984375 341.234375 696.25 347.972656 687.9375 347.972656 L 545.34375 347.972656 C 537.03125 347.972656 530.292969 341.234375 530.292969 332.921875 C 530.292969 324.613281 537.03125 317.875 545.34375 317.875 " clip-rule="nonzero"/></clipPath><clipPath id="712a793d7f"><path d="M 530.292969 272.953125 L 703 272.953125 L 703 304 L 530.292969 304 Z M 530.292969 272.953125 " clip-rule="nonzero"/></clipPath><clipPath id="a03e871d7f"><path d="M 545.34375 272.953125 L 687.9375 272.953125 C 696.25 272.953125 702.984375 279.6875 702.984375 288 C 702.984375 296.3125 696.25 303.046875 687.9375 303.046875 L 545.34375 303.046875 C 537.03125 303.046875 530.292969 296.3125 530.292969 288 C 530.292969 279.6875 537.03125 272.953125 545.34375 272.953125 " clip-rule="nonzero"/></clipPath><clipPath id="9359d2d4f2"><path d="M 541.421875 33.085938 L 689 33.085938 L 689 181 L 541.421875 181 Z M 541.421875 33.085938 " clip-rule="nonzero"/></clipPath><clipPath id="637102090b"><path d="M 568.421875 33.085938 L 664.136719 33.085938 C 679.050781 33.085938 691.136719 45.171875 691.136719 60.085938 L 691.136719 153.691406 C 691.136719 168.605469 679.050781 180.691406 664.136719 180.691406 L 568.421875 180.691406 C 553.511719 180.691406 541.421875 168.605469 541.421875 153.691406 L 541.421875 60.085938 C 541.421875 45.171875 553.511719 33.085938 568.421875 33.085938 " clip-rule="nonzero"/></clipPath><clipPath id="d943158290"><path d="M 74.980469 393.578125 L 223 393.578125 L 223 541 L 74.980469 541 Z M 74.980469 393.578125 " clip-rule="nonzero"/></clipPath><clipPath id="3b8126f1e0"><path d="M 101.980469 393.578125 L 197.691406 393.578125 C 212.605469 393.578125 224.691406 405.667969 224.691406 420.578125 L 224.691406 514.1875 C 224.691406 529.097656 212.605469 541.1875 197.691406 541.1875 L 101.980469 541.1875 C 87.066406 541.1875 74.980469 529.097656 74.980469 514.1875 L 74.980469 420.578125 C 74.980469 405.667969 87.066406 393.578125 101.980469 393.578125 " clip-rule="nonzero"/></clipPath><clipPath id="8c2d599ff3"><path d="M 541.78125 395.308594 L 689 395.308594 L 689 543 L 541.78125 543 Z M 541.78125 395.308594 " clip-rule="nonzero"/></clipPath><clipPath id="15cf1a241c"><path d="M 568.78125 395.308594 L 664.496094 395.308594 C 679.410156 395.308594 691.496094 407.394531 691.496094 422.308594 L 691.496094 515.914062 C 691.496094 530.828125 679.410156 542.914062 664.496094 542.914062 L 568.78125 542.914062 C 553.871094 542.914062 541.78125 530.828125 541.78125 515.914062 L 541.78125 422.308594 C 541.78125 407.394531 553.871094 395.308594 568.78125 395.308594 " clip-rule="nonzero"/></clipPath><clipPath id="fe9027f8fd"><path d="M 87.394531 497.003906 L 212 497.003906 L 212 532 L 87.394531 532 Z M 87.394531 497.003906 " clip-rule="nonzero"/></clipPath><clipPath id="579d6f25fb"><path d="M 104.625 497.003906 L 195.046875 497.003906 C 204.5625 497.003906 212.277344 504.71875 212.277344 514.234375 C 212.277344 523.75 204.5625 531.464844 195.046875 531.464844 L 104.625 531.464844 C 95.109375 531.464844 87.394531 523.75 87.394531 514.234375 C 87.394531 504.71875 95.109375 497.003906 104.625 497.003906 " clip-rule="nonzero"/></clipPath></defs><rect x="-76.8" width="921.6" fill="#ffffff" y="-57.6" height="691.2" fill-opacity="1"/><rect x="-76.8" width="921.6" fill="#ffffff" y="-57.6" height="691.2" fill-opacity="1"/><g clip-path="url(#ee48c5d3c7)"><g clip-path="url(#a215066234)"><path fill="#ff914d" d="M 74.980469 33.085938 L 222.113281 33.085938 L 222.113281 180.21875 L 74.980469 180.21875 Z M 74.980469 33.085938 " fill-opacity="1" fill-rule="nonzero"/></g></g><g fill="#000000" fill-opacity="1"><g transform="translate(117.482765, 113.334859)"><g><path d="M 7.015625 0.1875 C 5.835938 0.1875 4.796875 -0.0546875 3.890625 -0.546875 C 2.992188 -1.046875 2.289062 -1.785156 1.78125 -2.765625 C 1.269531 -3.753906 1.015625 -4.972656 1.015625 -6.421875 C 1.015625 -7.867188 1.269531 -9.085938 1.78125 -10.078125 C 2.289062 -11.066406 2.992188 -11.804688 3.890625 -12.296875 C 4.796875 -12.785156 5.835938 -13.03125 7.015625 -13.03125 C 8.253906 -13.03125 9.304688 -12.785156 10.171875 -12.296875 C 11.035156 -11.816406 11.65625 -11.082031 12.03125 -10.09375 L 10.171875 -8.96875 L 9.953125 -8.96875 C 9.671875 -9.632812 9.296875 -10.113281 8.828125 -10.40625 C 8.359375 -10.695312 7.753906 -10.84375 7.015625 -10.84375 C 5.953125 -10.84375 5.117188 -10.488281 4.515625 -9.78125 C 3.921875 -9.082031 3.625 -7.960938 3.625 -6.421875 C 3.625 -4.890625 3.921875 -3.769531 4.515625 -3.0625 C 5.117188 -2.363281 5.953125 -2.015625 7.015625 -2.015625 C 8.691406 -2.015625 9.71875 -2.828125 10.09375 -4.453125 L 10.3125 -4.453125 L 12.1875 -3.46875 C 11.832031 -2.25 11.226562 -1.332031 10.375 -0.71875 C 9.53125 -0.113281 8.410156 0.1875 7.015625 0.1875 Z M 7.015625 0.1875 "/></g></g><g transform="translate(130.08628, 113.334859)"><g><path d="M 4.203125 -12.84375 L 4.203125 -2.125 L 9.984375 -2.125 L 9.984375 0 L 1.671875 0 L 1.671875 -12.84375 Z M 4.203125 -12.84375 "/></g></g><g transform="translate(140.492529, 113.334859)"><g><path d="M 4.203125 0 L 1.671875 0 L 1.671875 -12.84375 L 4.203125 -12.84375 Z M 4.203125 0 "/></g></g><g transform="translate(146.381201, 113.334859)"><g><path d="M 4.203125 -5.640625 L 4.203125 -2.125 L 10.34375 -2.125 L 10.34375 0 L 1.671875 0 L 1.671875 -12.84375 L 10.203125 -12.84375 L 10.203125 -10.71875 L 4.203125 -10.71875 L 4.203125 -7.71875 L 9.453125 -7.71875 L 9.453125 -5.640625 Z M 4.203125 -5.640625 "/></g></g><g transform="translate(157.429052, 113.334859)"><g><path d="M 4.125 0 L 1.671875 0 L 1.671875 -12.84375 L 4.578125 -12.84375 L 9.734375 -4.578125 L 9.96875 -4.609375 L 9.96875 -12.84375 L 12.40625 -12.84375 L 12.40625 0 L 9.8125 0 L 4.34375 -8.84375 L 4.125 -8.8125 Z M 4.125 0 "/></g></g><g transform="translate(171.517918, 113.334859)"><g><path d="M 10.296875 -12.84375 L 10.296875 -10.71875 L 6.59375 -10.71875 L 6.59375 0 L 4.0625 0 L 4.0625 -10.71875 L 0.359375 -10.71875 L 0.359375 -12.84375 Z M 10.296875 -12.84375 "/></g></g></g><path stroke-linecap="butt" transform="matrix(0.749473, 0, 0, 0.75, 224.693266, 105.388727)" fill="none" stroke-linejoin="miter" d="M -0.00248119 2.002531 L 420.30863 2.002531 " stroke="#545454" stroke-width="4" stroke-opacity="1" stroke-miterlimit="4"/><path stroke-linecap="round" transform="matrix(2.997891, 0, 0, 3, 541.200913, 106.888727)" fill="none" stroke-linejoin="round" d="M -2.499718 -1.499367 L -0.499614 0.000632751 L -2.499718 1.500633 " stroke="#545454" stroke-width="1" stroke-opacity="1" stroke-miterlimit="4"/><g clip-path="url(#5848cc9923)"><g clip-path="url(#d912a8a49c)"><path fill="#ffde59" d="M 258.617188 42.125 L 492.695312 42.125 L 492.695312 75.5625 L 258.617188 75.5625 Z M 258.617188 42.125 " fill-opacity="1" fill-rule="nonzero"/></g></g><g fill="#000000" fill-opacity="1"><g transform="translate(295.44778, 61.624354)"><g><path d="M 0.484375 0 L 0.484375 -1.515625 L 2.734375 -1.515625 L 2.734375 -7.296875 L 2.578125 -7.328125 C 2.265625 -7.179688 1.953125 -7.0625 1.640625 -6.96875 C 1.335938 -6.882812 0.988281 -6.816406 0.59375 -6.765625 L 0.59375 -8.328125 C 1.625 -8.546875 2.457031 -8.863281 3.09375 -9.28125 L 4.546875 -9.28125 L 4.546875 -1.515625 L 6.546875 -1.515625 L 6.546875 0 Z M 0.484375 0 "/></g></g></g><g fill="#000000" fill-opacity="1"><g transform="translate(302.294848, 61.624354)"><g/></g></g><g fill="#000000" fill-opacity="1"><g transform="translate(305.359851, 61.624354)"><g><path d="M 1.796875 0.0625 C 1.566406 0.0625 1.363281 0.015625 1.1875 -0.078125 C 1.019531 -0.171875 0.890625 -0.296875 0.796875 -0.453125 C 0.710938 -0.617188 0.671875 -0.800781 0.671875 -1 C 0.671875 -1.207031 0.710938 -1.390625 0.796875 -1.546875 C 0.890625 -1.710938 1.019531 -1.835938 1.1875 -1.921875 C 1.363281 -2.015625 1.566406 -2.0625 1.796875 -2.0625 C 2.023438 -2.0625 2.222656 -2.015625 2.390625 -1.921875 C 2.554688 -1.835938 2.6875 -1.710938 2.78125 -1.546875 C 2.875 -1.390625 2.921875 -1.210938 2.921875 -1.015625 C 2.921875 -0.703125 2.816406 -0.441406 2.609375 -0.234375 C 2.398438 -0.0351562 2.128906 0.0625 1.796875 0.0625 Z M 1.796875 -4.9375 C 1.566406 -4.9375 1.363281 -4.984375 1.1875 -5.078125 C 1.019531 -5.171875 0.890625 -5.296875 0.796875 -5.453125 C 0.710938 -5.617188 0.671875 -5.800781 0.671875 -6 C 0.671875 -6.207031 0.710938 -6.390625 0.796875 -6.546875 C 0.890625 -6.710938 1.019531 -6.835938 1.1875 -6.921875 C 1.363281 -7.015625 1.566406 -7.0625 1.796875 -7.0625 C 2.023438 -7.0625 2.222656 -7.015625 2.390625 -6.921875 C 2.554688 -6.835938 2.6875 -6.710938 2.78125 -6.546875 C 2.875 -6.390625 2.921875 -6.210938 2.921875 -6.015625 C 2.921875 -5.703125 2.816406 -5.441406 2.609375 -5.234375 C 2.398438 -5.035156 2.128906 -4.9375 1.796875 -4.9375 Z M 1.796875 -4.9375 "/></g></g></g><g fill="#000000" fill-opacity="1"><g transform="translate(308.945204, 61.624354)"><g/></g></g><g fill="#000000" fill-opacity="1"><g transform="translate(312.010206, 61.624354)"><g><path d="M 1.203125 0 L 1.203125 -9.28125 L 5.171875 -9.28125 C 5.742188 -9.28125 6.226562 -9.1875 6.625 -9 C 7.019531 -8.820312 7.316406 -8.566406 7.515625 -8.234375 C 7.722656 -7.910156 7.828125 -7.519531 7.828125 -7.0625 C 7.828125 -6.65625 7.722656 -6.296875 7.515625 -5.984375 C 7.316406 -5.671875 7.035156 -5.414062 6.671875 -5.21875 L 6.671875 -5.09375 C 7.253906 -4.9375 7.703125 -4.65625 8.015625 -4.25 C 8.335938 -3.851562 8.5 -3.363281 8.5 -2.78125 C 8.5 -1.894531 8.226562 -1.207031 7.6875 -0.71875 C 7.15625 -0.238281 6.363281 0 5.3125 0 Z M 4.78125 -5.578125 C 5.632812 -5.578125 6.0625 -5.960938 6.0625 -6.734375 C 6.0625 -7.128906 5.957031 -7.421875 5.75 -7.609375 C 5.539062 -7.804688 5.21875 -7.90625 4.78125 -7.90625 L 3.046875 -7.90625 L 3.046875 -5.578125 Z M 5.125 -1.453125 C 6.132812 -1.453125 6.640625 -1.910156 6.640625 -2.828125 C 6.640625 -3.753906 6.132812 -4.21875 5.125 -4.21875 L 3.046875 -4.21875 L 3.046875 -1.453125 Z M 5.125 -1.453125 "/></g></g></g><g fill="#000000" fill-opacity="1"><g transform="translate(321.084627, 61.624354)"><g><path d="M 3.046875 -4.078125 L 3.046875 -1.53125 L 7.46875 -1.53125 L 7.46875 0 L 1.203125 0 L 1.203125 -9.28125 L 7.375 -9.28125 L 7.375 -7.75 L 3.046875 -7.75 L 3.046875 -5.578125 L 6.828125 -5.578125 L 6.828125 -4.078125 Z M 3.046875 -4.078125 "/></g></g></g><g fill="#000000" fill-opacity="1"><g transform="translate(329.061239, 61.624354)"><g><path d="M 4.5 0.140625 C 3.726562 0.140625 3.0625 -0.0351562 2.5 -0.390625 C 1.9375 -0.742188 1.5 -1.273438 1.1875 -1.984375 C 0.882812 -2.703125 0.734375 -3.585938 0.734375 -4.640625 C 0.734375 -5.703125 0.914062 -6.585938 1.28125 -7.296875 C 1.644531 -8.003906 2.15625 -8.53125 2.8125 -8.875 C 3.46875 -9.226562 4.226562 -9.40625 5.09375 -9.40625 C 5.976562 -9.40625 6.734375 -9.238281 7.359375 -8.90625 C 7.984375 -8.582031 8.425781 -8.097656 8.6875 -7.453125 L 7.34375 -6.640625 L 7.1875 -6.640625 C 7 -7.054688 6.726562 -7.359375 6.375 -7.546875 C 6.03125 -7.734375 5.601562 -7.828125 5.09375 -7.828125 C 4.289062 -7.828125 3.675781 -7.570312 3.25 -7.0625 C 2.832031 -6.5625 2.625 -5.753906 2.625 -4.640625 C 2.625 -3.515625 2.820312 -2.695312 3.21875 -2.1875 C 3.613281 -1.6875 4.195312 -1.4375 4.96875 -1.4375 C 5.632812 -1.4375 6.125 -1.585938 6.4375 -1.890625 C 6.757812 -2.191406 6.921875 -2.640625 6.921875 -3.234375 L 6.921875 -3.625 L 4.734375 -3.625 L 4.734375 -5.125 L 8.75 -5.125 L 8.75 0 L 7 0 L 7 -1.25 L 6.859375 -1.265625 C 6.671875 -0.816406 6.382812 -0.46875 6 -0.21875 C 5.613281 0.0195312 5.113281 0.140625 4.5 0.140625 Z M 4.5 0.140625 "/></g></g></g><g fill="#000000" fill-opacity="1"><g transform="translate(338.738511, 61.624354)"><g><path d="M 3.046875 0 L 1.203125 0 L 1.203125 -9.28125 L 3.046875 -9.28125 Z M 3.046875 0 "/></g></g></g><g fill="#000000" fill-opacity="1"><g transform="translate(342.990163, 61.624354)"><g><path d="M 2.984375 0 L 1.203125 0 L 1.203125 -9.28125 L 3.3125 -9.28125 L 7.03125 -3.296875 L 7.203125 -3.328125 L 7.203125 -9.28125 L 8.96875 -9.28125 L 8.96875 0 L 7.078125 0 L 3.140625 -6.390625 L 2.984375 -6.359375 Z M 2.984375 0 "/></g></g></g><g fill="#000000" fill-opacity="1"><g transform="translate(353.150902, 61.624354)"><g/></g></g><g fill="#000000" fill-opacity="1"><g transform="translate(356.215905, 61.624354)"><g/></g></g><g fill="#000000" fill-opacity="1"><g transform="translate(359.279808, 61.624354)"><g><path d="M 7.4375 -9.28125 L 7.4375 -7.734375 L 4.765625 -7.734375 L 4.765625 0 L 2.9375 0 L 2.9375 -7.734375 L 0.25 -7.734375 L 0.25 -9.28125 Z M 7.4375 -9.28125 "/></g></g></g><g fill="#000000" fill-opacity="1"><g transform="translate(366.970856, 61.624354)"><g><path d="M 1.203125 0 L 1.203125 -9.28125 L 4.9375 -9.28125 C 5.894531 -9.28125 6.617188 -9.054688 7.109375 -8.609375 C 7.597656 -8.171875 7.84375 -7.5625 7.84375 -6.78125 C 7.84375 -6.21875 7.695312 -5.753906 7.40625 -5.390625 C 7.125 -5.035156 6.695312 -4.765625 6.125 -4.578125 L 6.125 -4.4375 C 6.414062 -4.3125 6.648438 -4.125 6.828125 -3.875 C 7.015625 -3.625 7.1875 -3.253906 7.34375 -2.765625 L 8.28125 0 L 6.390625 0 L 5.484375 -2.78125 C 5.390625 -3.050781 5.285156 -3.265625 5.171875 -3.421875 C 5.054688 -3.578125 4.90625 -3.6875 4.71875 -3.75 C 4.539062 -3.820312 4.3125 -3.859375 4.03125 -3.859375 L 3.046875 -3.859375 L 3.046875 0 Z M 4.703125 -5.3125 C 5.597656 -5.3125 6.046875 -5.726562 6.046875 -6.5625 C 6.046875 -7.40625 5.597656 -7.828125 4.703125 -7.828125 L 3.046875 -7.828125 L 3.046875 -5.3125 Z M 4.703125 -5.3125 "/></g></g></g><g fill="#000000" fill-opacity="1"><g transform="translate(375.6455, 61.624354)"><g><path d="M 8.90625 0 L 6.96875 0 L 6.28125 -2.140625 L 2.71875 -2.140625 L 2.03125 0 L 0.140625 0 L 3.34375 -9.28125 L 5.703125 -9.28125 Z M 4.40625 -7.34375 L 3.21875 -3.6875 L 5.765625 -3.6875 L 4.578125 -7.34375 Z M 4.40625 -7.34375 "/></g></g></g><g fill="#000000" fill-opacity="1"><g transform="translate(384.688197, 61.624354)"><g><path d="M 2.984375 0 L 1.203125 0 L 1.203125 -9.28125 L 3.3125 -9.28125 L 7.03125 -3.296875 L 7.203125 -3.328125 L 7.203125 -9.28125 L 8.96875 -9.28125 L 8.96875 0 L 7.078125 0 L 3.140625 -6.390625 L 2.984375 -6.359375 Z M 2.984375 0 "/></g></g></g><g fill="#000000" fill-opacity="1"><g transform="translate(394.860438, 61.624354)"><g><path d="M 4.109375 0.140625 C 3.472656 0.140625 2.898438 0.0625 2.390625 -0.09375 C 1.890625 -0.257812 1.472656 -0.472656 1.140625 -0.734375 C 0.804688 -0.992188 0.550781 -1.273438 0.375 -1.578125 L 1.390625 -2.8125 L 1.546875 -2.8125 C 1.828125 -2.394531 2.179688 -2.0625 2.609375 -1.8125 C 3.035156 -1.570312 3.535156 -1.453125 4.109375 -1.453125 C 4.597656 -1.453125 4.96875 -1.554688 5.21875 -1.765625 C 5.46875 -1.972656 5.59375 -2.257812 5.59375 -2.625 C 5.59375 -2.84375 5.550781 -3.023438 5.46875 -3.171875 C 5.394531 -3.316406 5.265625 -3.441406 5.078125 -3.546875 C 4.890625 -3.660156 4.640625 -3.753906 4.328125 -3.828125 L 3.125 -4.09375 C 2.289062 -4.289062 1.671875 -4.609375 1.265625 -5.046875 C 0.859375 -5.492188 0.65625 -6.066406 0.65625 -6.765625 C 0.65625 -7.296875 0.785156 -7.757812 1.046875 -8.15625 C 1.304688 -8.550781 1.6875 -8.859375 2.1875 -9.078125 C 2.695312 -9.296875 3.300781 -9.40625 4 -9.40625 C 4.707031 -9.40625 5.316406 -9.3125 5.828125 -9.125 C 6.335938 -8.9375 6.769531 -8.648438 7.125 -8.265625 L 6.21875 -7.015625 L 6.0625 -7.015625 C 5.789062 -7.296875 5.484375 -7.503906 5.140625 -7.640625 C 4.804688 -7.773438 4.425781 -7.84375 4 -7.84375 C 3.488281 -7.84375 3.101562 -7.753906 2.84375 -7.578125 C 2.582031 -7.398438 2.453125 -7.15625 2.453125 -6.84375 C 2.453125 -6.550781 2.539062 -6.316406 2.71875 -6.140625 C 2.90625 -5.972656 3.226562 -5.835938 3.6875 -5.734375 L 4.90625 -5.484375 C 5.800781 -5.296875 6.453125 -4.972656 6.859375 -4.515625 C 7.265625 -4.054688 7.46875 -3.460938 7.46875 -2.734375 C 7.46875 -2.148438 7.34375 -1.644531 7.09375 -1.21875 C 6.84375 -0.789062 6.46875 -0.457031 5.96875 -0.21875 C 5.46875 0.0195312 4.847656 0.140625 4.109375 0.140625 Z M 4.109375 0.140625 "/></g></g></g><g fill="#000000" fill-opacity="1"><g transform="translate(402.830698, 61.624354)"><g><path d="M 8.90625 0 L 6.96875 0 L 6.28125 -2.140625 L 2.71875 -2.140625 L 2.03125 0 L 0.140625 0 L 3.34375 -9.28125 L 5.703125 -9.28125 Z M 4.40625 -7.34375 L 3.21875 -3.6875 L 5.765625 -3.6875 L 4.578125 -7.34375 Z M 4.40625 -7.34375 "/></g></g></g><g fill="#000000" fill-opacity="1"><g transform="translate(411.873396, 61.624354)"><g><path d="M 5.078125 0.140625 C 4.222656 0.140625 3.46875 -0.0351562 2.8125 -0.390625 C 2.15625 -0.753906 1.644531 -1.289062 1.28125 -2 C 0.914062 -2.71875 0.734375 -3.597656 0.734375 -4.640625 C 0.734375 -5.679688 0.914062 -6.554688 1.28125 -7.265625 C 1.644531 -7.984375 2.15625 -8.519531 2.8125 -8.875 C 3.46875 -9.226562 4.222656 -9.40625 5.078125 -9.40625 C 5.960938 -9.40625 6.71875 -9.226562 7.34375 -8.875 C 7.96875 -8.53125 8.414062 -8.003906 8.6875 -7.296875 L 7.34375 -6.46875 L 7.1875 -6.484375 C 6.988281 -6.960938 6.71875 -7.304688 6.375 -7.515625 C 6.03125 -7.722656 5.597656 -7.828125 5.078125 -7.828125 C 4.304688 -7.828125 3.703125 -7.570312 3.265625 -7.0625 C 2.835938 -6.550781 2.625 -5.742188 2.625 -4.640625 C 2.625 -3.535156 2.835938 -2.726562 3.265625 -2.21875 C 3.703125 -1.707031 4.304688 -1.453125 5.078125 -1.453125 C 6.273438 -1.453125 7.007812 -2.039062 7.28125 -3.21875 L 7.453125 -3.21875 L 8.796875 -2.5 C 8.546875 -1.625 8.113281 -0.960938 7.5 -0.515625 C 6.882812 -0.078125 6.078125 0.140625 5.078125 0.140625 Z M 5.078125 0.140625 "/></g></g></g><g fill="#000000" fill-opacity="1"><g transform="translate(420.973199, 61.624354)"><g><path d="M 7.4375 -9.28125 L 7.4375 -7.734375 L 4.765625 -7.734375 L 4.765625 0 L 2.9375 0 L 2.9375 -7.734375 L 0.25 -7.734375 L 0.25 -9.28125 Z M 7.4375 -9.28125 "/></g></g></g><g fill="#000000" fill-opacity="1"><g transform="translate(428.664247, 61.624354)"><g><path d="M 3.046875 0 L 1.203125 0 L 1.203125 -9.28125 L 3.046875 -9.28125 Z M 3.046875 0 "/></g></g></g><g fill="#000000" fill-opacity="1"><g transform="translate(432.915898, 61.624354)"><g><path d="M 5.0625 0.140625 C 4.207031 0.140625 3.453125 -0.03125 2.796875 -0.375 C 2.148438 -0.726562 1.644531 -1.257812 1.28125 -1.96875 C 0.914062 -2.6875 0.734375 -3.578125 0.734375 -4.640625 C 0.734375 -5.703125 0.914062 -6.585938 1.28125 -7.296875 C 1.644531 -8.015625 2.148438 -8.546875 2.796875 -8.890625 C 3.453125 -9.234375 4.207031 -9.40625 5.0625 -9.40625 C 5.90625 -9.40625 6.648438 -9.234375 7.296875 -8.890625 C 7.953125 -8.546875 8.460938 -8.015625 8.828125 -7.296875 C 9.191406 -6.585938 9.375 -5.703125 9.375 -4.640625 C 9.375 -3.578125 9.191406 -2.6875 8.828125 -1.96875 C 8.460938 -1.257812 7.953125 -0.726562 7.296875 -0.375 C 6.648438 -0.03125 5.90625 0.140625 5.0625 0.140625 Z M 5.0625 -1.453125 C 5.84375 -1.453125 6.441406 -1.707031 6.859375 -2.21875 C 7.273438 -2.726562 7.484375 -3.535156 7.484375 -4.640625 C 7.484375 -5.742188 7.273438 -6.550781 6.859375 -7.0625 C 6.441406 -7.570312 5.84375 -7.828125 5.0625 -7.828125 C 4.269531 -7.828125 3.664062 -7.570312 3.25 -7.0625 C 2.832031 -6.550781 2.625 -5.742188 2.625 -4.640625 C 2.625 -3.535156 2.832031 -2.726562 3.25 -2.21875 C 3.664062 -1.707031 4.269531 -1.453125 5.0625 -1.453125 Z M 5.0625 -1.453125 "/></g></g></g><g fill="#000000" fill-opacity="1"><g transform="translate(443.024682, 61.624354)"><g><path d="M 2.984375 0 L 1.203125 0 L 1.203125 -9.28125 L 3.3125 -9.28125 L 7.03125 -3.296875 L 7.203125 -3.328125 L 7.203125 -9.28125 L 8.96875 -9.28125 L 8.96875 0 L 7.078125 0 L 3.140625 -6.390625 L 2.984375 -6.359375 Z M 2.984375 0 "/></g></g></g><g clip-path="url(#e54b87b8d2)"><g clip-path="url(#ae4b59d7c6)"><path fill="#ffde59" d="M 261.496094 88.4375 L 495.574219 88.4375 L 495.574219 121.878906 L 261.496094 121.878906 Z M 261.496094 88.4375 " fill-opacity="1" fill-rule="nonzero"/></g></g><g fill="#000000" fill-opacity="1"><g transform="translate(306.646599, 107.939077)"><g><path d="M 3.78125 0.140625 C 2.789062 0.140625 2.003906 -0.0664062 1.421875 -0.484375 C 0.835938 -0.910156 0.46875 -1.507812 0.3125 -2.28125 L 1.6875 -2.9375 L 1.84375 -2.90625 C 2 -2.394531 2.222656 -2.019531 2.515625 -1.78125 C 2.804688 -1.550781 3.207031 -1.4375 3.71875 -1.4375 C 4.21875 -1.4375 4.597656 -1.550781 4.859375 -1.78125 C 5.117188 -2.019531 5.25 -2.359375 5.25 -2.796875 C 5.25 -3.234375 5.117188 -3.566406 4.859375 -3.796875 C 4.597656 -4.035156 4.21875 -4.15625 3.71875 -4.15625 L 2.328125 -4.15625 L 2.328125 -5.578125 L 3.546875 -5.578125 C 3.960938 -5.578125 4.289062 -5.679688 4.53125 -5.890625 C 4.78125 -6.097656 4.90625 -6.394531 4.90625 -6.78125 C 4.90625 -7.15625 4.785156 -7.4375 4.546875 -7.625 C 4.316406 -7.820312 4 -7.921875 3.59375 -7.921875 C 3.1875 -7.921875 2.820312 -7.820312 2.5 -7.625 C 2.175781 -7.4375 1.921875 -7.175781 1.734375 -6.84375 L 1.578125 -6.828125 L 0.609375 -7.953125 C 0.941406 -8.390625 1.363281 -8.738281 1.875 -9 C 2.382812 -9.269531 2.992188 -9.40625 3.703125 -9.40625 C 4.671875 -9.40625 5.410156 -9.203125 5.921875 -8.796875 C 6.441406 -8.390625 6.703125 -7.820312 6.703125 -7.09375 C 6.703125 -6.644531 6.597656 -6.265625 6.390625 -5.953125 C 6.179688 -5.640625 5.878906 -5.367188 5.484375 -5.140625 L 5.484375 -5 C 6.554688 -4.625 7.09375 -3.863281 7.09375 -2.71875 C 7.09375 -2.144531 6.96875 -1.644531 6.71875 -1.21875 C 6.476562 -0.789062 6.109375 -0.457031 5.609375 -0.21875 C 5.117188 0.0195312 4.507812 0.140625 3.78125 0.140625 Z M 3.78125 0.140625 "/></g></g></g><g fill="#000000" fill-opacity="1"><g transform="translate(314.324955, 107.939077)"><g/></g></g><g fill="#000000" fill-opacity="1"><g transform="translate(317.389957, 107.939077)"><g><path d="M 1.796875 0.0625 C 1.566406 0.0625 1.363281 0.015625 1.1875 -0.078125 C 1.019531 -0.171875 0.890625 -0.296875 0.796875 -0.453125 C 0.710938 -0.617188 0.671875 -0.800781 0.671875 -1 C 0.671875 -1.207031 0.710938 -1.390625 0.796875 -1.546875 C 0.890625 -1.710938 1.019531 -1.835938 1.1875 -1.921875 C 1.363281 -2.015625 1.566406 -2.0625 1.796875 -2.0625 C 2.023438 -2.0625 2.222656 -2.015625 2.390625 -1.921875 C 2.554688 -1.835938 2.6875 -1.710938 2.78125 -1.546875 C 2.875 -1.390625 2.921875 -1.210938 2.921875 -1.015625 C 2.921875 -0.703125 2.816406 -0.441406 2.609375 -0.234375 C 2.398438 -0.0351562 2.128906 0.0625 1.796875 0.0625 Z M 1.796875 -4.9375 C 1.566406 -4.9375 1.363281 -4.984375 1.1875 -5.078125 C 1.019531 -5.171875 0.890625 -5.296875 0.796875 -5.453125 C 0.710938 -5.617188 0.671875 -5.800781 0.671875 -6 C 0.671875 -6.207031 0.710938 -6.390625 0.796875 -6.546875 C 0.890625 -6.710938 1.019531 -6.835938 1.1875 -6.921875 C 1.363281 -7.015625 1.566406 -7.0625 1.796875 -7.0625 C 2.023438 -7.0625 2.222656 -7.015625 2.390625 -6.921875 C 2.554688 -6.835938 2.6875 -6.710938 2.78125 -6.546875 C 2.875 -6.390625 2.921875 -6.210938 2.921875 -6.015625 C 2.921875 -5.703125 2.816406 -5.441406 2.609375 -5.234375 C 2.398438 -5.035156 2.128906 -4.9375 1.796875 -4.9375 Z M 1.796875 -4.9375 "/></g></g></g><g fill="#000000" fill-opacity="1"><g transform="translate(320.975311, 107.939077)"><g/></g></g><g fill="#000000" fill-opacity="1"><g transform="translate(324.040313, 107.939077)"><g><path d="M 4.921875 0.140625 C 3.640625 0.140625 2.691406 -0.160156 2.078125 -0.765625 C 1.460938 -1.378906 1.15625 -2.285156 1.15625 -3.484375 L 1.15625 -9.28125 L 2.953125 -9.28125 L 2.953125 -3.484375 C 2.953125 -2.804688 3.113281 -2.296875 3.4375 -1.953125 C 3.757812 -1.617188 4.253906 -1.453125 4.921875 -1.453125 C 6.234375 -1.453125 6.890625 -2.128906 6.890625 -3.484375 L 6.890625 -9.28125 L 8.6875 -9.28125 L 8.6875 -3.484375 C 8.6875 -2.285156 8.378906 -1.378906 7.765625 -0.765625 C 7.148438 -0.160156 6.203125 0.140625 4.921875 0.140625 Z M 4.921875 0.140625 "/></g></g></g><g fill="#000000" fill-opacity="1"><g transform="translate(333.876223, 107.939077)"><g><path d="M 4.796875 -9.28125 C 5.460938 -9.28125 6.03125 -9.15625 6.5 -8.90625 C 6.96875 -8.664062 7.320312 -8.328125 7.5625 -7.890625 C 7.800781 -7.453125 7.921875 -6.941406 7.921875 -6.359375 C 7.921875 -5.785156 7.800781 -5.28125 7.5625 -4.84375 C 7.320312 -4.40625 6.96875 -4.0625 6.5 -3.8125 C 6.03125 -3.570312 5.460938 -3.453125 4.796875 -3.453125 L 3.046875 -3.453125 L 3.046875 0 L 1.203125 0 L 1.203125 -9.28125 Z M 4.546875 -4.90625 C 5.566406 -4.90625 6.078125 -5.390625 6.078125 -6.359375 C 6.078125 -7.335938 5.566406 -7.828125 4.546875 -7.828125 L 3.046875 -7.828125 L 3.046875 -4.90625 Z M 4.546875 -4.90625 "/></g></g></g><g fill="#000000" fill-opacity="1"><g transform="translate(342.354144, 107.939077)"><g><path d="M 4.546875 -9.28125 C 6.054688 -9.28125 7.207031 -8.890625 8 -8.109375 C 8.789062 -7.328125 9.1875 -6.171875 9.1875 -4.640625 C 9.1875 -3.109375 8.789062 -1.953125 8 -1.171875 C 7.207031 -0.390625 6.054688 0 4.546875 0 L 1.203125 0 L 1.203125 -9.28125 Z M 4.4375 -1.546875 C 5.394531 -1.546875 6.109375 -1.789062 6.578125 -2.28125 C 7.054688 -2.769531 7.296875 -3.554688 7.296875 -4.640625 C 7.296875 -5.722656 7.054688 -6.507812 6.578125 -7 C 6.109375 -7.488281 5.394531 -7.734375 4.4375 -7.734375 L 3.046875 -7.734375 L 3.046875 -1.546875 Z M 4.4375 -1.546875 "/></g></g></g><g fill="#000000" fill-opacity="1"><g transform="translate(352.272554, 107.939077)"><g><path d="M 8.90625 0 L 6.96875 0 L 6.28125 -2.140625 L 2.71875 -2.140625 L 2.03125 0 L 0.140625 0 L 3.34375 -9.28125 L 5.703125 -9.28125 Z M 4.40625 -7.34375 L 3.21875 -3.6875 L 5.765625 -3.6875 L 4.578125 -7.34375 Z M 4.40625 -7.34375 "/></g></g></g><g fill="#000000" fill-opacity="1"><g transform="translate(361.315252, 107.939077)"><g><path d="M 7.4375 -9.28125 L 7.4375 -7.734375 L 4.765625 -7.734375 L 4.765625 0 L 2.9375 0 L 2.9375 -7.734375 L 0.25 -7.734375 L 0.25 -9.28125 Z M 7.4375 -9.28125 "/></g></g></g><g fill="#000000" fill-opacity="1"><g transform="translate(369.006299, 107.939077)"><g><path d="M 3.046875 -4.078125 L 3.046875 -1.53125 L 7.46875 -1.53125 L 7.46875 0 L 1.203125 0 L 1.203125 -9.28125 L 7.375 -9.28125 L 7.375 -7.75 L 3.046875 -7.75 L 3.046875 -5.578125 L 6.828125 -5.578125 L 6.828125 -4.078125 Z M 3.046875 -4.078125 "/></g></g></g><g fill="#000000" fill-opacity="1"><g transform="translate(376.982911, 107.939077)"><g/></g></g><g fill="#000000" fill-opacity="1"><g transform="translate(380.047913, 107.939077)"><g><path d="M 2.84375 1.328125 C 2.257812 0.617188 1.789062 -0.171875 1.4375 -1.046875 C 1.09375 -1.929688 0.921875 -2.992188 0.921875 -4.234375 C 0.921875 -5.492188 1.09375 -6.5625 1.4375 -7.4375 C 1.789062 -8.3125 2.257812 -9.101562 2.84375 -9.8125 L 4.1875 -9.8125 L 4.21875 -9.6875 C 3.757812 -8.894531 3.40625 -8.078125 3.15625 -7.234375 C 2.90625 -6.398438 2.78125 -5.398438 2.78125 -4.234375 C 2.78125 -3.078125 2.90625 -2.078125 3.15625 -1.234375 C 3.40625 -0.398438 3.757812 0.40625 4.21875 1.1875 L 4.1875 1.328125 Z M 2.84375 1.328125 "/></g></g></g><g fill="#000000" fill-opacity="1"><g transform="translate(384.661278, 107.939077)"><g><path d="M 1.203125 0 L 1.203125 -9.28125 L 3.046875 -9.28125 L 3.046875 -5.484375 L 3.25 -5.484375 L 6.34375 -9.28125 L 8.21875 -9.28125 L 8.21875 -9.125 L 4.8125 -4.90625 L 8.578125 -0.15625 L 8.578125 0 L 6.5 0 L 3.25 -4 L 3.046875 -4 L 3.046875 0 Z M 1.203125 0 "/></g></g></g><g fill="#000000" fill-opacity="1"><g transform="translate(393.23439, 107.939077)"><g><path d="M 6.4375 -5.234375 L 0.703125 -5.234375 L 0.703125 -6.703125 L 6.4375 -6.703125 Z M 6.4375 -2.578125 L 0.703125 -2.578125 L 0.703125 -4.046875 L 6.4375 -4.046875 Z M 6.4375 -2.578125 "/></g></g></g><g fill="#000000" fill-opacity="1"><g transform="translate(400.398746, 107.939077)"><g><path d="M 0.484375 0 L 0.484375 -1.515625 L 2.734375 -1.515625 L 2.734375 -7.296875 L 2.578125 -7.328125 C 2.265625 -7.179688 1.953125 -7.0625 1.640625 -6.96875 C 1.335938 -6.882812 0.988281 -6.816406 0.59375 -6.765625 L 0.59375 -8.328125 C 1.625 -8.546875 2.457031 -8.863281 3.09375 -9.28125 L 4.546875 -9.28125 L 4.546875 -1.515625 L 6.546875 -1.515625 L 6.546875 0 Z M 0.484375 0 "/></g></g></g><g fill="#000000" fill-opacity="1"><g transform="translate(407.245815, 107.939077)"><g><path d="M 0.25 1.859375 C 0.625 1.640625 0.957031 1.363281 1.25 1.03125 C 1.539062 0.707031 1.703125 0.378906 1.734375 0.046875 C 1.398438 0.046875 1.140625 -0.0507812 0.953125 -0.25 C 0.765625 -0.445312 0.671875 -0.703125 0.671875 -1.015625 C 0.671875 -1.210938 0.710938 -1.390625 0.796875 -1.546875 C 0.890625 -1.710938 1.019531 -1.84375 1.1875 -1.9375 C 1.363281 -2.03125 1.5625 -2.078125 1.78125 -2.078125 C 2.132812 -2.078125 2.414062 -1.957031 2.625 -1.71875 C 2.84375 -1.488281 2.953125 -1.15625 2.953125 -0.71875 C 2.953125 0.03125 2.757812 0.6875 2.375 1.25 C 1.988281 1.8125 1.476562 2.285156 0.84375 2.671875 Z M 0.25 1.859375 "/></g></g></g><g fill="#000000" fill-opacity="1"><g transform="translate(410.856552, 107.939077)"><g><path d="M 5.515625 0 L 3.296875 0 L 0.171875 -9.28125 L 2.109375 -9.28125 L 4.375 -2.359375 L 4.53125 -2.359375 L 6.75 -9.28125 L 8.640625 -9.28125 Z M 5.515625 0 "/></g></g></g><g fill="#000000" fill-opacity="1"><g transform="translate(419.664451, 107.939077)"><g><path d="M 6.4375 -5.234375 L 0.703125 -5.234375 L 0.703125 -6.703125 L 6.4375 -6.703125 Z M 6.4375 -2.578125 L 0.703125 -2.578125 L 0.703125 -4.046875 L 6.4375 -4.046875 Z M 6.4375 -2.578125 "/></g></g></g><g fill="#000000" fill-opacity="1"><g transform="translate(426.828807, 107.939077)"><g><path d="M 0.453125 -0.734375 C 0.453125 -1.242188 0.503906 -1.675781 0.609375 -2.03125 C 0.722656 -2.382812 0.90625 -2.703125 1.15625 -2.984375 C 1.414062 -3.273438 1.78125 -3.585938 2.25 -3.921875 L 3.484375 -4.828125 C 3.828125 -5.066406 4.09375 -5.273438 4.28125 -5.453125 C 4.46875 -5.628906 4.609375 -5.8125 4.703125 -6 C 4.796875 -6.195312 4.84375 -6.421875 4.84375 -6.671875 C 4.84375 -7.054688 4.726562 -7.347656 4.5 -7.546875 C 4.269531 -7.753906 3.925781 -7.859375 3.46875 -7.859375 C 3.03125 -7.859375 2.640625 -7.753906 2.296875 -7.546875 C 1.953125 -7.335938 1.671875 -7.050781 1.453125 -6.6875 L 1.328125 -6.65625 L 0.3125 -7.78125 C 0.644531 -8.269531 1.078125 -8.660156 1.609375 -8.953125 C 2.140625 -9.253906 2.785156 -9.40625 3.546875 -9.40625 C 4.234375 -9.40625 4.8125 -9.289062 5.28125 -9.0625 C 5.75 -8.84375 6.097656 -8.535156 6.328125 -8.140625 C 6.554688 -7.742188 6.671875 -7.285156 6.671875 -6.765625 C 6.671875 -6.328125 6.578125 -5.925781 6.390625 -5.5625 C 6.203125 -5.195312 5.945312 -4.859375 5.625 -4.546875 C 5.300781 -4.242188 4.882812 -3.914062 4.375 -3.5625 L 3.28125 -2.796875 C 2.945312 -2.554688 2.710938 -2.34375 2.578125 -2.15625 C 2.453125 -1.976562 2.390625 -1.769531 2.390625 -1.53125 L 6.578125 -1.53125 L 6.578125 0 L 0.453125 0 Z M 0.453125 -0.734375 "/></g></g></g><g fill="#000000" fill-opacity="1"><g transform="translate(434.069312, 107.939077)"><g><path d="M 4.53125 0.140625 C 3.769531 0.140625 3.109375 -0.0234375 2.546875 -0.359375 C 1.992188 -0.703125 1.5625 -1.226562 1.25 -1.9375 C 0.9375 -2.65625 0.78125 -3.554688 0.78125 -4.640625 C 0.78125 -5.722656 0.9375 -6.617188 1.25 -7.328125 C 1.5625 -8.046875 1.992188 -8.570312 2.546875 -8.90625 C 3.109375 -9.238281 3.769531 -9.40625 4.53125 -9.40625 C 5.289062 -9.40625 5.953125 -9.238281 6.515625 -8.90625 C 7.078125 -8.570312 7.515625 -8.046875 7.828125 -7.328125 C 8.140625 -6.617188 8.296875 -5.722656 8.296875 -4.640625 C 8.296875 -3.554688 8.140625 -2.65625 7.828125 -1.9375 C 7.515625 -1.226562 7.078125 -0.703125 6.515625 -0.359375 C 5.953125 -0.0234375 5.289062 0.140625 4.53125 0.140625 Z M 4.53125 -1.421875 C 4.945312 -1.421875 5.296875 -1.519531 5.578125 -1.71875 C 5.859375 -1.925781 6.070312 -2.265625 6.21875 -2.734375 C 6.363281 -3.210938 6.4375 -3.847656 6.4375 -4.640625 C 6.4375 -5.429688 6.363281 -6.0625 6.21875 -6.53125 C 6.070312 -7.007812 5.859375 -7.347656 5.578125 -7.546875 C 5.296875 -7.753906 4.945312 -7.859375 4.53125 -7.859375 C 4.113281 -7.859375 3.765625 -7.753906 3.484375 -7.546875 C 3.210938 -7.347656 3 -7.007812 2.84375 -6.53125 C 2.695312 -6.0625 2.625 -5.429688 2.625 -4.640625 C 2.625 -3.847656 2.695312 -3.210938 2.84375 -2.734375 C 3 -2.265625 3.210938 -1.925781 3.484375 -1.71875 C 3.765625 -1.519531 4.113281 -1.421875 4.53125 -1.421875 Z M 4.53125 -1.421875 "/></g></g></g><g fill="#000000" fill-opacity="1"><g transform="translate(443.137392, 107.939077)"><g><path d="M 0.40625 1.1875 C 0.695312 0.6875 0.941406 0.179688 1.140625 -0.328125 C 1.347656 -0.847656 1.515625 -1.429688 1.640625 -2.078125 C 1.765625 -2.722656 1.828125 -3.441406 1.828125 -4.234375 C 1.828125 -5.035156 1.765625 -5.757812 1.640625 -6.40625 C 1.515625 -7.050781 1.347656 -7.628906 1.140625 -8.140625 C 0.941406 -8.660156 0.695312 -9.175781 0.40625 -9.6875 L 0.421875 -9.8125 L 1.765625 -9.8125 C 2.128906 -9.363281 2.453125 -8.882812 2.734375 -8.375 C 3.015625 -7.875 3.242188 -7.273438 3.421875 -6.578125 C 3.597656 -5.890625 3.6875 -5.109375 3.6875 -4.234375 C 3.6875 -2.992188 3.507812 -1.929688 3.15625 -1.046875 C 2.8125 -0.171875 2.347656 0.617188 1.765625 1.328125 L 0.421875 1.328125 Z M 0.40625 1.1875 "/></g></g></g><path stroke-linecap="butt" transform="matrix(-0.682672, 0.311571, -0.3114, -0.682297, 616.89391, 182.059349)" fill="none" stroke-linejoin="miter" d="M 0.00222188 2.000197 L 681.636698 1.998496 " stroke="#545454" stroke-width="4" stroke-opacity="1" stroke-miterlimit="4"/><path stroke-linecap="round" transform="matrix(-2.730687, 1.246285, -1.245602, -2.729189, 149.570559, 393.696918)" fill="none" stroke-linejoin="round" d="M -2.499874 -1.500233 L -0.500423 -0.00035551 L -2.499417 1.499951 " stroke="#545454" stroke-width="1" stroke-opacity="1" stroke-miterlimit="4"/><path stroke-linecap="butt" transform="matrix(0.00125406, 0.74963, -0.749999, 0.00125467, 617.775982, 180.694935)" fill="none" stroke-linejoin="miter" d="M 0.00237023 1.998191 L 284.152817 1.999354 " stroke="#545454" stroke-width="4" stroke-opacity="1" stroke-miterlimit="4"/><path stroke-linecap="round" transform="matrix(0.00501623, 2.998522, -2.999996, 0.0050187, 616.634854, 395.206645)" fill="none" stroke-linejoin="round" d="M -2.499897 -1.499595 L -0.500118 -0.000155633 L -2.499707 1.500409 " stroke="#545454" stroke-width="1" stroke-opacity="1" stroke-miterlimit="4"/><g clip-path="url(#dc5b30df35)"><g clip-path="url(#e987035cea)"><path fill="#7ed957" d="M 261.496094 134.101562 L 495.574219 134.101562 L 495.574219 167.539062 L 261.496094 167.539062 Z M 261.496094 134.101562 " fill-opacity="1" fill-rule="nonzero"/></g></g><g fill="#000000" fill-opacity="1"><g transform="translate(305.13488, 153.600014)"><g><path d="M 3.859375 0.140625 C 2.929688 0.140625 2.195312 -0.0507812 1.65625 -0.4375 C 1.113281 -0.832031 0.757812 -1.378906 0.59375 -2.078125 L 1.984375 -2.703125 L 2.140625 -2.671875 C 2.273438 -2.265625 2.472656 -1.957031 2.734375 -1.75 C 3.003906 -1.539062 3.375 -1.4375 3.84375 -1.4375 C 4.332031 -1.4375 4.707031 -1.570312 4.96875 -1.84375 C 5.226562 -2.125 5.359375 -2.535156 5.359375 -3.078125 C 5.359375 -3.617188 5.226562 -4.03125 4.96875 -4.3125 C 4.707031 -4.59375 4.351562 -4.734375 3.90625 -4.734375 C 3.5625 -4.734375 3.269531 -4.65625 3.03125 -4.5 C 2.800781 -4.351562 2.609375 -4.132812 2.453125 -3.84375 L 0.9375 -3.953125 L 1.125 -9.28125 L 6.65625 -9.28125 L 6.65625 -7.734375 L 2.671875 -7.734375 L 2.578125 -5.375 L 2.71875 -5.34375 C 2.9375 -5.625 3.191406 -5.835938 3.484375 -5.984375 C 3.785156 -6.128906 4.148438 -6.203125 4.578125 -6.203125 C 5.109375 -6.203125 5.570312 -6.082031 5.96875 -5.84375 C 6.363281 -5.613281 6.664062 -5.265625 6.875 -4.796875 C 7.09375 -4.335938 7.203125 -3.773438 7.203125 -3.109375 C 7.203125 -2.429688 7.070312 -1.847656 6.8125 -1.359375 C 6.550781 -0.878906 6.171875 -0.507812 5.671875 -0.25 C 5.171875 0.0078125 4.566406 0.140625 3.859375 0.140625 Z M 3.859375 0.140625 "/></g></g></g><g fill="#000000" fill-opacity="1"><g transform="translate(312.952843, 153.600014)"><g/></g></g><g fill="#000000" fill-opacity="1"><g transform="translate(316.017845, 153.600014)"><g><path d="M 1.796875 0.0625 C 1.566406 0.0625 1.363281 0.015625 1.1875 -0.078125 C 1.019531 -0.171875 0.890625 -0.296875 0.796875 -0.453125 C 0.710938 -0.617188 0.671875 -0.800781 0.671875 -1 C 0.671875 -1.207031 0.710938 -1.390625 0.796875 -1.546875 C 0.890625 -1.710938 1.019531 -1.835938 1.1875 -1.921875 C 1.363281 -2.015625 1.566406 -2.0625 1.796875 -2.0625 C 2.023438 -2.0625 2.222656 -2.015625 2.390625 -1.921875 C 2.554688 -1.835938 2.6875 -1.710938 2.78125 -1.546875 C 2.875 -1.390625 2.921875 -1.210938 2.921875 -1.015625 C 2.921875 -0.703125 2.816406 -0.441406 2.609375 -0.234375 C 2.398438 -0.0351562 2.128906 0.0625 1.796875 0.0625 Z M 1.796875 -4.9375 C 1.566406 -4.9375 1.363281 -4.984375 1.1875 -5.078125 C 1.019531 -5.171875 0.890625 -5.296875 0.796875 -5.453125 C 0.710938 -5.617188 0.671875 -5.800781 0.671875 -6 C 0.671875 -6.207031 0.710938 -6.390625 0.796875 -6.546875 C 0.890625 -6.710938 1.019531 -6.835938 1.1875 -6.921875 C 1.363281 -7.015625 1.566406 -7.0625 1.796875 -7.0625 C 2.023438 -7.0625 2.222656 -7.015625 2.390625 -6.921875 C 2.554688 -6.835938 2.6875 -6.710938 2.78125 -6.546875 C 2.875 -6.390625 2.921875 -6.210938 2.921875 -6.015625 C 2.921875 -5.703125 2.816406 -5.441406 2.609375 -5.234375 C 2.398438 -5.035156 2.128906 -4.9375 1.796875 -4.9375 Z M 1.796875 -4.9375 "/></g></g></g><g fill="#000000" fill-opacity="1"><g transform="translate(319.603199, 153.600014)"><g/></g></g><g fill="#000000" fill-opacity="1"><g transform="translate(322.668201, 153.600014)"><g><path d="M 5.078125 0.140625 C 4.222656 0.140625 3.46875 -0.0351562 2.8125 -0.390625 C 2.15625 -0.753906 1.644531 -1.289062 1.28125 -2 C 0.914062 -2.71875 0.734375 -3.597656 0.734375 -4.640625 C 0.734375 -5.679688 0.914062 -6.554688 1.28125 -7.265625 C 1.644531 -7.984375 2.15625 -8.519531 2.8125 -8.875 C 3.46875 -9.226562 4.222656 -9.40625 5.078125 -9.40625 C 5.960938 -9.40625 6.71875 -9.226562 7.34375 -8.875 C 7.96875 -8.53125 8.414062 -8.003906 8.6875 -7.296875 L 7.34375 -6.46875 L 7.1875 -6.484375 C 6.988281 -6.960938 6.71875 -7.304688 6.375 -7.515625 C 6.03125 -7.722656 5.597656 -7.828125 5.078125 -7.828125 C 4.304688 -7.828125 3.703125 -7.570312 3.265625 -7.0625 C 2.835938 -6.550781 2.625 -5.742188 2.625 -4.640625 C 2.625 -3.535156 2.835938 -2.726562 3.265625 -2.21875 C 3.703125 -1.707031 4.304688 -1.453125 5.078125 -1.453125 C 6.273438 -1.453125 7.007812 -2.039062 7.28125 -3.21875 L 7.453125 -3.21875 L 8.796875 -2.5 C 8.546875 -1.625 8.113281 -0.960938 7.5 -0.515625 C 6.882812 -0.078125 6.078125 0.140625 5.078125 0.140625 Z M 5.078125 0.140625 "/></g></g></g><g fill="#000000" fill-opacity="1"><g transform="translate(331.768004, 153.600014)"><g><path d="M 5.0625 0.140625 C 4.207031 0.140625 3.453125 -0.03125 2.796875 -0.375 C 2.148438 -0.726562 1.644531 -1.257812 1.28125 -1.96875 C 0.914062 -2.6875 0.734375 -3.578125 0.734375 -4.640625 C 0.734375 -5.703125 0.914062 -6.585938 1.28125 -7.296875 C 1.644531 -8.015625 2.148438 -8.546875 2.796875 -8.890625 C 3.453125 -9.234375 4.207031 -9.40625 5.0625 -9.40625 C 5.90625 -9.40625 6.648438 -9.234375 7.296875 -8.890625 C 7.953125 -8.546875 8.460938 -8.015625 8.828125 -7.296875 C 9.191406 -6.585938 9.375 -5.703125 9.375 -4.640625 C 9.375 -3.578125 9.191406 -2.6875 8.828125 -1.96875 C 8.460938 -1.257812 7.953125 -0.726562 7.296875 -0.375 C 6.648438 -0.03125 5.90625 0.140625 5.0625 0.140625 Z M 5.0625 -1.453125 C 5.84375 -1.453125 6.441406 -1.707031 6.859375 -2.21875 C 7.273438 -2.726562 7.484375 -3.535156 7.484375 -4.640625 C 7.484375 -5.742188 7.273438 -6.550781 6.859375 -7.0625 C 6.441406 -7.570312 5.84375 -7.828125 5.0625 -7.828125 C 4.269531 -7.828125 3.664062 -7.570312 3.25 -7.0625 C 2.832031 -6.550781 2.625 -5.742188 2.625 -4.640625 C 2.625 -3.535156 2.832031 -2.726562 3.25 -2.21875 C 3.664062 -1.707031 4.269531 -1.453125 5.0625 -1.453125 Z M 5.0625 -1.453125 "/></g></g></g><g fill="#000000" fill-opacity="1"><g transform="translate(341.876788, 153.600014)"><g><path d="M 2.890625 0 L 1.203125 0 L 1.203125 -9.28125 L 3.609375 -9.28125 L 5.953125 -2.453125 L 6.09375 -2.453125 L 8.421875 -9.28125 L 10.765625 -9.28125 L 10.765625 0 L 9.03125 0 L 9.03125 -6.125 L 8.875 -6.15625 L 6.71875 0 L 5.1875 0 L 3.046875 -6.15625 L 2.890625 -6.125 Z M 2.890625 0 "/></g></g></g><g fill="#000000" fill-opacity="1"><g transform="translate(353.851221, 153.600014)"><g><path d="M 2.890625 0 L 1.203125 0 L 1.203125 -9.28125 L 3.609375 -9.28125 L 5.953125 -2.453125 L 6.09375 -2.453125 L 8.421875 -9.28125 L 10.765625 -9.28125 L 10.765625 0 L 9.03125 0 L 9.03125 -6.125 L 8.875 -6.15625 L 6.71875 0 L 5.1875 0 L 3.046875 -6.15625 L 2.890625 -6.125 Z M 2.890625 0 "/></g></g></g><g fill="#000000" fill-opacity="1"><g transform="translate(365.825655, 153.600014)"><g><path d="M 3.046875 0 L 1.203125 0 L 1.203125 -9.28125 L 3.046875 -9.28125 Z M 3.046875 0 "/></g></g></g><g fill="#000000" fill-opacity="1"><g transform="translate(370.077306, 153.600014)"><g><path d="M 7.4375 -9.28125 L 7.4375 -7.734375 L 4.765625 -7.734375 L 4.765625 0 L 2.9375 0 L 2.9375 -7.734375 L 0.25 -7.734375 L 0.25 -9.28125 Z M 7.4375 -9.28125 "/></g></g></g><g fill="#000000" fill-opacity="1"><g transform="translate(377.768354, 153.600014)"><g/></g></g><g fill="#000000" fill-opacity="1"><g transform="translate(380.833356, 153.600014)"><g><path d="M 1.703125 1.328125 L 0.03125 1.328125 L 3.5 -9.8125 L 5.171875 -9.8125 Z M 1.703125 1.328125 "/></g></g></g><g fill="#000000" fill-opacity="1"><g transform="translate(386.28436, 153.600014)"><g/></g></g><g fill="#000000" fill-opacity="1"><g transform="translate(389.349362, 153.600014)"><g><path d="M 4.109375 0.140625 C 3.472656 0.140625 2.898438 0.0625 2.390625 -0.09375 C 1.890625 -0.257812 1.472656 -0.472656 1.140625 -0.734375 C 0.804688 -0.992188 0.550781 -1.273438 0.375 -1.578125 L 1.390625 -2.8125 L 1.546875 -2.8125 C 1.828125 -2.394531 2.179688 -2.0625 2.609375 -1.8125 C 3.035156 -1.570312 3.535156 -1.453125 4.109375 -1.453125 C 4.597656 -1.453125 4.96875 -1.554688 5.21875 -1.765625 C 5.46875 -1.972656 5.59375 -2.257812 5.59375 -2.625 C 5.59375 -2.84375 5.550781 -3.023438 5.46875 -3.171875 C 5.394531 -3.316406 5.265625 -3.441406 5.078125 -3.546875 C 4.890625 -3.660156 4.640625 -3.753906 4.328125 -3.828125 L 3.125 -4.09375 C 2.289062 -4.289062 1.671875 -4.609375 1.265625 -5.046875 C 0.859375 -5.492188 0.65625 -6.066406 0.65625 -6.765625 C 0.65625 -7.296875 0.785156 -7.757812 1.046875 -8.15625 C 1.304688 -8.550781 1.6875 -8.859375 2.1875 -9.078125 C 2.695312 -9.296875 3.300781 -9.40625 4 -9.40625 C 4.707031 -9.40625 5.316406 -9.3125 5.828125 -9.125 C 6.335938 -8.9375 6.769531 -8.648438 7.125 -8.265625 L 6.21875 -7.015625 L 6.0625 -7.015625 C 5.789062 -7.296875 5.484375 -7.503906 5.140625 -7.640625 C 4.804688 -7.773438 4.425781 -7.84375 4 -7.84375 C 3.488281 -7.84375 3.101562 -7.753906 2.84375 -7.578125 C 2.582031 -7.398438 2.453125 -7.15625 2.453125 -6.84375 C 2.453125 -6.550781 2.539062 -6.316406 2.71875 -6.140625 C 2.90625 -5.972656 3.226562 -5.835938 3.6875 -5.734375 L 4.90625 -5.484375 C 5.800781 -5.296875 6.453125 -4.972656 6.859375 -4.515625 C 7.265625 -4.054688 7.46875 -3.460938 7.46875 -2.734375 C 7.46875 -2.148438 7.34375 -1.644531 7.09375 -1.21875 C 6.84375 -0.789062 6.46875 -0.457031 5.96875 -0.21875 C 5.46875 0.0195312 4.847656 0.140625 4.109375 0.140625 Z M 4.109375 0.140625 "/></g></g></g><g fill="#000000" fill-opacity="1"><g transform="translate(397.319622, 153.600014)"><g><path d="M 4.921875 0.140625 C 3.640625 0.140625 2.691406 -0.160156 2.078125 -0.765625 C 1.460938 -1.378906 1.15625 -2.285156 1.15625 -3.484375 L 1.15625 -9.28125 L 2.953125 -9.28125 L 2.953125 -3.484375 C 2.953125 -2.804688 3.113281 -2.296875 3.4375 -1.953125 C 3.757812 -1.617188 4.253906 -1.453125 4.921875 -1.453125 C 6.234375 -1.453125 6.890625 -2.128906 6.890625 -3.484375 L 6.890625 -9.28125 L 8.6875 -9.28125 L 8.6875 -3.484375 C 8.6875 -2.285156 8.378906 -1.378906 7.765625 -0.765625 C 7.148438 -0.160156 6.203125 0.140625 4.921875 0.140625 Z M 4.921875 0.140625 "/></g></g></g><g fill="#000000" fill-opacity="1"><g transform="translate(407.155533, 153.600014)"><g><path d="M 5.078125 0.140625 C 4.222656 0.140625 3.46875 -0.0351562 2.8125 -0.390625 C 2.15625 -0.753906 1.644531 -1.289062 1.28125 -2 C 0.914062 -2.71875 0.734375 -3.597656 0.734375 -4.640625 C 0.734375 -5.679688 0.914062 -6.554688 1.28125 -7.265625 C 1.644531 -7.984375 2.15625 -8.519531 2.8125 -8.875 C 3.46875 -9.226562 4.222656 -9.40625 5.078125 -9.40625 C 5.960938 -9.40625 6.71875 -9.226562 7.34375 -8.875 C 7.96875 -8.53125 8.414062 -8.003906 8.6875 -7.296875 L 7.34375 -6.46875 L 7.1875 -6.484375 C 6.988281 -6.960938 6.71875 -7.304688 6.375 -7.515625 C 6.03125 -7.722656 5.597656 -7.828125 5.078125 -7.828125 C 4.304688 -7.828125 3.703125 -7.570312 3.265625 -7.0625 C 2.835938 -6.550781 2.625 -5.742188 2.625 -4.640625 C 2.625 -3.535156 2.835938 -2.726562 3.265625 -2.21875 C 3.703125 -1.707031 4.304688 -1.453125 5.078125 -1.453125 C 6.273438 -1.453125 7.007812 -2.039062 7.28125 -3.21875 L 7.453125 -3.21875 L 8.796875 -2.5 C 8.546875 -1.625 8.113281 -0.960938 7.5 -0.515625 C 6.882812 -0.078125 6.078125 0.140625 5.078125 0.140625 Z M 5.078125 0.140625 "/></g></g></g><g fill="#000000" fill-opacity="1"><g transform="translate(416.255336, 153.600014)"><g><path d="M 5.078125 0.140625 C 4.222656 0.140625 3.46875 -0.0351562 2.8125 -0.390625 C 2.15625 -0.753906 1.644531 -1.289062 1.28125 -2 C 0.914062 -2.71875 0.734375 -3.597656 0.734375 -4.640625 C 0.734375 -5.679688 0.914062 -6.554688 1.28125 -7.265625 C 1.644531 -7.984375 2.15625 -8.519531 2.8125 -8.875 C 3.46875 -9.226562 4.222656 -9.40625 5.078125 -9.40625 C 5.960938 -9.40625 6.71875 -9.226562 7.34375 -8.875 C 7.96875 -8.53125 8.414062 -8.003906 8.6875 -7.296875 L 7.34375 -6.46875 L 7.1875 -6.484375 C 6.988281 -6.960938 6.71875 -7.304688 6.375 -7.515625 C 6.03125 -7.722656 5.597656 -7.828125 5.078125 -7.828125 C 4.304688 -7.828125 3.703125 -7.570312 3.265625 -7.0625 C 2.835938 -6.550781 2.625 -5.742188 2.625 -4.640625 C 2.625 -3.535156 2.835938 -2.726562 3.265625 -2.21875 C 3.703125 -1.707031 4.304688 -1.453125 5.078125 -1.453125 C 6.273438 -1.453125 7.007812 -2.039062 7.28125 -3.21875 L 7.453125 -3.21875 L 8.796875 -2.5 C 8.546875 -1.625 8.113281 -0.960938 7.5 -0.515625 C 6.882812 -0.078125 6.078125 0.140625 5.078125 0.140625 Z M 5.078125 0.140625 "/></g></g></g><g fill="#000000" fill-opacity="1"><g transform="translate(425.35514, 153.600014)"><g><path d="M 3.046875 -4.078125 L 3.046875 -1.53125 L 7.46875 -1.53125 L 7.46875 0 L 1.203125 0 L 1.203125 -9.28125 L 7.375 -9.28125 L 7.375 -7.75 L 3.046875 -7.75 L 3.046875 -5.578125 L 6.828125 -5.578125 L 6.828125 -4.078125 Z M 3.046875 -4.078125 "/></g></g></g><g fill="#000000" fill-opacity="1"><g transform="translate(433.331751, 153.600014)"><g><path d="M 4.109375 0.140625 C 3.472656 0.140625 2.898438 0.0625 2.390625 -0.09375 C 1.890625 -0.257812 1.472656 -0.472656 1.140625 -0.734375 C 0.804688 -0.992188 0.550781 -1.273438 0.375 -1.578125 L 1.390625 -2.8125 L 1.546875 -2.8125 C 1.828125 -2.394531 2.179688 -2.0625 2.609375 -1.8125 C 3.035156 -1.570312 3.535156 -1.453125 4.109375 -1.453125 C 4.597656 -1.453125 4.96875 -1.554688 5.21875 -1.765625 C 5.46875 -1.972656 5.59375 -2.257812 5.59375 -2.625 C 5.59375 -2.84375 5.550781 -3.023438 5.46875 -3.171875 C 5.394531 -3.316406 5.265625 -3.441406 5.078125 -3.546875 C 4.890625 -3.660156 4.640625 -3.753906 4.328125 -3.828125 L 3.125 -4.09375 C 2.289062 -4.289062 1.671875 -4.609375 1.265625 -5.046875 C 0.859375 -5.492188 0.65625 -6.066406 0.65625 -6.765625 C 0.65625 -7.296875 0.785156 -7.757812 1.046875 -8.15625 C 1.304688 -8.550781 1.6875 -8.859375 2.1875 -9.078125 C 2.695312 -9.296875 3.300781 -9.40625 4 -9.40625 C 4.707031 -9.40625 5.316406 -9.3125 5.828125 -9.125 C 6.335938 -8.9375 6.769531 -8.648438 7.125 -8.265625 L 6.21875 -7.015625 L 6.0625 -7.015625 C 5.789062 -7.296875 5.484375 -7.503906 5.140625 -7.640625 C 4.804688 -7.773438 4.425781 -7.84375 4 -7.84375 C 3.488281 -7.84375 3.101562 -7.753906 2.84375 -7.578125 C 2.582031 -7.398438 2.453125 -7.15625 2.453125 -6.84375 C 2.453125 -6.550781 2.539062 -6.316406 2.71875 -6.140625 C 2.90625 -5.972656 3.226562 -5.835938 3.6875 -5.734375 L 4.90625 -5.484375 C 5.800781 -5.296875 6.453125 -4.972656 6.859375 -4.515625 C 7.265625 -4.054688 7.46875 -3.460938 7.46875 -2.734375 C 7.46875 -2.148438 7.34375 -1.644531 7.09375 -1.21875 C 6.84375 -0.789062 6.46875 -0.457031 5.96875 -0.21875 C 5.46875 0.0195312 4.847656 0.140625 4.109375 0.140625 Z M 4.109375 0.140625 "/></g></g></g><g fill="#000000" fill-opacity="1"><g transform="translate(441.302012, 153.600014)"><g><path d="M 4.109375 0.140625 C 3.472656 0.140625 2.898438 0.0625 2.390625 -0.09375 C 1.890625 -0.257812 1.472656 -0.472656 1.140625 -0.734375 C 0.804688 -0.992188 0.550781 -1.273438 0.375 -1.578125 L 1.390625 -2.8125 L 1.546875 -2.8125 C 1.828125 -2.394531 2.179688 -2.0625 2.609375 -1.8125 C 3.035156 -1.570312 3.535156 -1.453125 4.109375 -1.453125 C 4.597656 -1.453125 4.96875 -1.554688 5.21875 -1.765625 C 5.46875 -1.972656 5.59375 -2.257812 5.59375 -2.625 C 5.59375 -2.84375 5.550781 -3.023438 5.46875 -3.171875 C 5.394531 -3.316406 5.265625 -3.441406 5.078125 -3.546875 C 4.890625 -3.660156 4.640625 -3.753906 4.328125 -3.828125 L 3.125 -4.09375 C 2.289062 -4.289062 1.671875 -4.609375 1.265625 -5.046875 C 0.859375 -5.492188 0.65625 -6.066406 0.65625 -6.765625 C 0.65625 -7.296875 0.785156 -7.757812 1.046875 -8.15625 C 1.304688 -8.550781 1.6875 -8.859375 2.1875 -9.078125 C 2.695312 -9.296875 3.300781 -9.40625 4 -9.40625 C 4.707031 -9.40625 5.316406 -9.3125 5.828125 -9.125 C 6.335938 -8.9375 6.769531 -8.648438 7.125 -8.265625 L 6.21875 -7.015625 L 6.0625 -7.015625 C 5.789062 -7.296875 5.484375 -7.503906 5.140625 -7.640625 C 4.804688 -7.773438 4.425781 -7.84375 4 -7.84375 C 3.488281 -7.84375 3.101562 -7.753906 2.84375 -7.578125 C 2.582031 -7.398438 2.453125 -7.15625 2.453125 -6.84375 C 2.453125 -6.550781 2.539062 -6.316406 2.71875 -6.140625 C 2.90625 -5.972656 3.226562 -5.835938 3.6875 -5.734375 L 4.90625 -5.484375 C 5.800781 -5.296875 6.453125 -4.972656 6.859375 -4.515625 C 7.265625 -4.054688 7.46875 -3.460938 7.46875 -2.734375 C 7.46875 -2.148438 7.34375 -1.644531 7.09375 -1.21875 C 6.84375 -0.789062 6.46875 -0.457031 5.96875 -0.21875 C 5.46875 0.0195312 4.847656 0.140625 4.109375 0.140625 Z M 4.109375 0.140625 "/></g></g></g><g clip-path="url(#424124e443)"><g clip-path="url(#cacb40a098)"><path fill="#efcea1" d="M 530.292969 317.875 L 704.179688 317.875 L 704.179688 351.316406 L 530.292969 351.316406 Z M 530.292969 317.875 " fill-opacity="1" fill-rule="nonzero"/></g></g><g fill="#000000" fill-opacity="1"><g transform="translate(578.48118, 337.375669)"><g><path d="M 4.4375 0.140625 C 3.738281 0.140625 3.113281 -0.0195312 2.5625 -0.34375 C 2.019531 -0.664062 1.585938 -1.175781 1.265625 -1.875 C 0.941406 -2.582031 0.78125 -3.472656 0.78125 -4.546875 C 0.78125 -5.648438 0.945312 -6.5625 1.28125 -7.28125 C 1.625 -8.007812 2.085938 -8.546875 2.671875 -8.890625 C 3.265625 -9.234375 3.9375 -9.40625 4.6875 -9.40625 C 5.320312 -9.40625 5.863281 -9.316406 6.3125 -9.140625 C 6.769531 -8.960938 7.125 -8.691406 7.375 -8.328125 L 6.484375 -7.171875 L 6.328125 -7.171875 C 5.941406 -7.640625 5.394531 -7.875 4.6875 -7.875 C 3.363281 -7.875 2.691406 -6.90625 2.671875 -4.96875 L 2.796875 -4.921875 C 3.015625 -5.316406 3.300781 -5.617188 3.65625 -5.828125 C 4.007812 -6.046875 4.453125 -6.15625 4.984375 -6.15625 C 5.566406 -6.15625 6.066406 -6.03125 6.484375 -5.78125 C 6.898438 -5.539062 7.21875 -5.191406 7.4375 -4.734375 C 7.664062 -4.285156 7.78125 -3.75 7.78125 -3.125 C 7.78125 -2.445312 7.644531 -1.863281 7.375 -1.375 C 7.101562 -0.882812 6.71875 -0.507812 6.21875 -0.25 C 5.71875 0.0078125 5.125 0.140625 4.4375 0.140625 Z M 4.40625 -1.4375 C 4.875 -1.4375 5.242188 -1.578125 5.515625 -1.859375 C 5.785156 -2.140625 5.921875 -2.535156 5.921875 -3.046875 C 5.921875 -3.546875 5.785156 -3.9375 5.515625 -4.21875 C 5.242188 -4.5 4.875 -4.640625 4.40625 -4.640625 C 4.082031 -4.640625 3.800781 -4.570312 3.5625 -4.4375 C 3.332031 -4.3125 3.15625 -4.128906 3.03125 -3.890625 C 2.90625 -3.648438 2.84375 -3.367188 2.84375 -3.046875 C 2.84375 -2.546875 2.976562 -2.148438 3.25 -1.859375 C 3.53125 -1.578125 3.914062 -1.4375 4.40625 -1.4375 Z M 4.40625 -1.4375 "/></g></g></g><g fill="#000000" fill-opacity="1"><g transform="translate(586.908334, 337.375669)"><g/></g></g><g fill="#000000" fill-opacity="1"><g transform="translate(589.973336, 337.375669)"><g><path d="M 1.796875 0.0625 C 1.566406 0.0625 1.363281 0.015625 1.1875 -0.078125 C 1.019531 -0.171875 0.890625 -0.296875 0.796875 -0.453125 C 0.710938 -0.617188 0.671875 -0.800781 0.671875 -1 C 0.671875 -1.207031 0.710938 -1.390625 0.796875 -1.546875 C 0.890625 -1.710938 1.019531 -1.835938 1.1875 -1.921875 C 1.363281 -2.015625 1.566406 -2.0625 1.796875 -2.0625 C 2.023438 -2.0625 2.222656 -2.015625 2.390625 -1.921875 C 2.554688 -1.835938 2.6875 -1.710938 2.78125 -1.546875 C 2.875 -1.390625 2.921875 -1.210938 2.921875 -1.015625 C 2.921875 -0.703125 2.816406 -0.441406 2.609375 -0.234375 C 2.398438 -0.0351562 2.128906 0.0625 1.796875 0.0625 Z M 1.796875 -4.9375 C 1.566406 -4.9375 1.363281 -4.984375 1.1875 -5.078125 C 1.019531 -5.171875 0.890625 -5.296875 0.796875 -5.453125 C 0.710938 -5.617188 0.671875 -5.800781 0.671875 -6 C 0.671875 -6.207031 0.710938 -6.390625 0.796875 -6.546875 C 0.890625 -6.710938 1.019531 -6.835938 1.1875 -6.921875 C 1.363281 -7.015625 1.566406 -7.0625 1.796875 -7.0625 C 2.023438 -7.0625 2.222656 -7.015625 2.390625 -6.921875 C 2.554688 -6.835938 2.6875 -6.710938 2.78125 -6.546875 C 2.875 -6.390625 2.921875 -6.210938 2.921875 -6.015625 C 2.921875 -5.703125 2.816406 -5.441406 2.609375 -5.234375 C 2.398438 -5.035156 2.128906 -4.9375 1.796875 -4.9375 Z M 1.796875 -4.9375 "/></g></g></g><g fill="#000000" fill-opacity="1"><g transform="translate(593.55869, 337.375669)"><g/></g></g><g fill="#000000" fill-opacity="1"><g transform="translate(596.623692, 337.375669)"><g><path d="M 5.078125 0.140625 C 4.222656 0.140625 3.46875 -0.0351562 2.8125 -0.390625 C 2.15625 -0.753906 1.644531 -1.289062 1.28125 -2 C 0.914062 -2.71875 0.734375 -3.597656 0.734375 -4.640625 C 0.734375 -5.679688 0.914062 -6.554688 1.28125 -7.265625 C 1.644531 -7.984375 2.15625 -8.519531 2.8125 -8.875 C 3.46875 -9.226562 4.222656 -9.40625 5.078125 -9.40625 C 5.960938 -9.40625 6.71875 -9.226562 7.34375 -8.875 C 7.96875 -8.53125 8.414062 -8.003906 8.6875 -7.296875 L 7.34375 -6.46875 L 7.1875 -6.484375 C 6.988281 -6.960938 6.71875 -7.304688 6.375 -7.515625 C 6.03125 -7.722656 5.597656 -7.828125 5.078125 -7.828125 C 4.304688 -7.828125 3.703125 -7.570312 3.265625 -7.0625 C 2.835938 -6.550781 2.625 -5.742188 2.625 -4.640625 C 2.625 -3.535156 2.835938 -2.726562 3.265625 -2.21875 C 3.703125 -1.707031 4.304688 -1.453125 5.078125 -1.453125 C 6.273438 -1.453125 7.007812 -2.039062 7.28125 -3.21875 L 7.453125 -3.21875 L 8.796875 -2.5 C 8.546875 -1.625 8.113281 -0.960938 7.5 -0.515625 C 6.882812 -0.078125 6.078125 0.140625 5.078125 0.140625 Z M 5.078125 0.140625 "/></g></g></g><g fill="#000000" fill-opacity="1"><g transform="translate(605.723496, 337.375669)"><g><path d="M 5.0625 0.140625 C 4.207031 0.140625 3.453125 -0.03125 2.796875 -0.375 C 2.148438 -0.726562 1.644531 -1.257812 1.28125 -1.96875 C 0.914062 -2.6875 0.734375 -3.578125 0.734375 -4.640625 C 0.734375 -5.703125 0.914062 -6.585938 1.28125 -7.296875 C 1.644531 -8.015625 2.148438 -8.546875 2.796875 -8.890625 C 3.453125 -9.234375 4.207031 -9.40625 5.0625 -9.40625 C 5.90625 -9.40625 6.648438 -9.234375 7.296875 -8.890625 C 7.953125 -8.546875 8.460938 -8.015625 8.828125 -7.296875 C 9.191406 -6.585938 9.375 -5.703125 9.375 -4.640625 C 9.375 -3.578125 9.191406 -2.6875 8.828125 -1.96875 C 8.460938 -1.257812 7.953125 -0.726562 7.296875 -0.375 C 6.648438 -0.03125 5.90625 0.140625 5.0625 0.140625 Z M 5.0625 -1.453125 C 5.84375 -1.453125 6.441406 -1.707031 6.859375 -2.21875 C 7.273438 -2.726562 7.484375 -3.535156 7.484375 -4.640625 C 7.484375 -5.742188 7.273438 -6.550781 6.859375 -7.0625 C 6.441406 -7.570312 5.84375 -7.828125 5.0625 -7.828125 C 4.269531 -7.828125 3.664062 -7.570312 3.25 -7.0625 C 2.832031 -6.550781 2.625 -5.742188 2.625 -4.640625 C 2.625 -3.535156 2.832031 -2.726562 3.25 -2.21875 C 3.664062 -1.707031 4.269531 -1.453125 5.0625 -1.453125 Z M 5.0625 -1.453125 "/></g></g></g><g fill="#000000" fill-opacity="1"><g transform="translate(615.832279, 337.375669)"><g><path d="M 2.890625 0 L 1.203125 0 L 1.203125 -9.28125 L 3.609375 -9.28125 L 5.953125 -2.453125 L 6.09375 -2.453125 L 8.421875 -9.28125 L 10.765625 -9.28125 L 10.765625 0 L 9.03125 0 L 9.03125 -6.125 L 8.875 -6.15625 L 6.71875 0 L 5.1875 0 L 3.046875 -6.15625 L 2.890625 -6.125 Z M 2.890625 0 "/></g></g></g><g fill="#000000" fill-opacity="1"><g transform="translate(627.806713, 337.375669)"><g><path d="M 2.890625 0 L 1.203125 0 L 1.203125 -9.28125 L 3.609375 -9.28125 L 5.953125 -2.453125 L 6.09375 -2.453125 L 8.421875 -9.28125 L 10.765625 -9.28125 L 10.765625 0 L 9.03125 0 L 9.03125 -6.125 L 8.875 -6.15625 L 6.71875 0 L 5.1875 0 L 3.046875 -6.15625 L 2.890625 -6.125 Z M 2.890625 0 "/></g></g></g><g fill="#000000" fill-opacity="1"><g transform="translate(639.781146, 337.375669)"><g><path d="M 3.046875 0 L 1.203125 0 L 1.203125 -9.28125 L 3.046875 -9.28125 Z M 3.046875 0 "/></g></g></g><g fill="#000000" fill-opacity="1"><g transform="translate(644.032798, 337.375669)"><g><path d="M 7.4375 -9.28125 L 7.4375 -7.734375 L 4.765625 -7.734375 L 4.765625 0 L 2.9375 0 L 2.9375 -7.734375 L 0.25 -7.734375 L 0.25 -9.28125 Z M 7.4375 -9.28125 "/></g></g></g><g fill="#000000" fill-opacity="1"><g transform="translate(651.723364, 337.375669)"><g/></g></g><path stroke-linecap="butt" transform="matrix(0.750377, 0.00409254, -0.00409043, 0.749989, 224.70144, 465.881833)" fill="none" stroke-linejoin="miter" d="M -0.00246225 2.00135 L 420.791334 2.002069 " stroke="#545454" stroke-width="4" stroke-opacity="1" stroke-miterlimit="4"/><path stroke-linecap="round" transform="matrix(3.001507, 0.0163702, -0.0163617, 2.999955, 541.946641, 469.112232)" fill="none" stroke-linejoin="round" d="M -2.499557 -1.500356 L -0.500189 0.000474833 L -2.500122 1.499692 " stroke="#545454" stroke-width="1" stroke-opacity="1" stroke-miterlimit="4"/><g clip-path="url(#712a793d7f)"><g clip-path="url(#a03e871d7f)"><path fill="#efcea1" d="M 530.292969 272.953125 L 704.179688 272.953125 L 704.179688 306.390625 L 530.292969 306.390625 Z M 530.292969 272.953125 " fill-opacity="1" fill-rule="nonzero"/></g></g><g fill="#000000" fill-opacity="1"><g transform="translate(545.879619, 292.45196)"><g><path d="M 6.296875 0 L 4.546875 0 L 4.546875 -2.015625 L 0.3125 -2.015625 L 0.3125 -3.5 L 3.953125 -9.28125 L 6.296875 -9.28125 L 6.296875 -3.5 L 7.734375 -3.5 L 7.734375 -2.015625 L 6.296875 -2.015625 Z M 2.203125 -3.625 L 2.25 -3.5 L 4.546875 -3.5 L 4.546875 -7.09375 L 4.40625 -7.109375 Z M 2.203125 -3.625 "/></g></g></g><g fill="#000000" fill-opacity="1"><g transform="translate(553.964102, 292.45196)"><g/></g></g><g fill="#000000" fill-opacity="1"><g transform="translate(557.029105, 292.45196)"><g><path d="M 1.796875 0.0625 C 1.566406 0.0625 1.363281 0.015625 1.1875 -0.078125 C 1.019531 -0.171875 0.890625 -0.296875 0.796875 -0.453125 C 0.710938 -0.617188 0.671875 -0.800781 0.671875 -1 C 0.671875 -1.207031 0.710938 -1.390625 0.796875 -1.546875 C 0.890625 -1.710938 1.019531 -1.835938 1.1875 -1.921875 C 1.363281 -2.015625 1.566406 -2.0625 1.796875 -2.0625 C 2.023438 -2.0625 2.222656 -2.015625 2.390625 -1.921875 C 2.554688 -1.835938 2.6875 -1.710938 2.78125 -1.546875 C 2.875 -1.390625 2.921875 -1.210938 2.921875 -1.015625 C 2.921875 -0.703125 2.816406 -0.441406 2.609375 -0.234375 C 2.398438 -0.0351562 2.128906 0.0625 1.796875 0.0625 Z M 1.796875 -4.9375 C 1.566406 -4.9375 1.363281 -4.984375 1.1875 -5.078125 C 1.019531 -5.171875 0.890625 -5.296875 0.796875 -5.453125 C 0.710938 -5.617188 0.671875 -5.800781 0.671875 -6 C 0.671875 -6.207031 0.710938 -6.390625 0.796875 -6.546875 C 0.890625 -6.710938 1.019531 -6.835938 1.1875 -6.921875 C 1.363281 -7.015625 1.566406 -7.0625 1.796875 -7.0625 C 2.023438 -7.0625 2.222656 -7.015625 2.390625 -6.921875 C 2.554688 -6.835938 2.6875 -6.710938 2.78125 -6.546875 C 2.875 -6.390625 2.921875 -6.210938 2.921875 -6.015625 C 2.921875 -5.703125 2.816406 -5.441406 2.609375 -5.234375 C 2.398438 -5.035156 2.128906 -4.9375 1.796875 -4.9375 Z M 1.796875 -4.9375 "/></g></g></g><g fill="#000000" fill-opacity="1"><g transform="translate(560.614458, 292.45196)"><g/></g></g><g fill="#000000" fill-opacity="1"><g transform="translate(563.679461, 292.45196)"><g><path d="M 4.921875 0.140625 C 3.640625 0.140625 2.691406 -0.160156 2.078125 -0.765625 C 1.460938 -1.378906 1.15625 -2.285156 1.15625 -3.484375 L 1.15625 -9.28125 L 2.953125 -9.28125 L 2.953125 -3.484375 C 2.953125 -2.804688 3.113281 -2.296875 3.4375 -1.953125 C 3.757812 -1.617188 4.253906 -1.453125 4.921875 -1.453125 C 6.234375 -1.453125 6.890625 -2.128906 6.890625 -3.484375 L 6.890625 -9.28125 L 8.6875 -9.28125 L 8.6875 -3.484375 C 8.6875 -2.285156 8.378906 -1.378906 7.765625 -0.765625 C 7.148438 -0.160156 6.203125 0.140625 4.921875 0.140625 Z M 4.921875 0.140625 "/></g></g></g><g fill="#000000" fill-opacity="1"><g transform="translate(573.515371, 292.45196)"><g><path d="M 4.796875 -9.28125 C 5.460938 -9.28125 6.03125 -9.15625 6.5 -8.90625 C 6.96875 -8.664062 7.320312 -8.328125 7.5625 -7.890625 C 7.800781 -7.453125 7.921875 -6.941406 7.921875 -6.359375 C 7.921875 -5.785156 7.800781 -5.28125 7.5625 -4.84375 C 7.320312 -4.40625 6.96875 -4.0625 6.5 -3.8125 C 6.03125 -3.570312 5.460938 -3.453125 4.796875 -3.453125 L 3.046875 -3.453125 L 3.046875 0 L 1.203125 0 L 1.203125 -9.28125 Z M 4.546875 -4.90625 C 5.566406 -4.90625 6.078125 -5.390625 6.078125 -6.359375 C 6.078125 -7.335938 5.566406 -7.828125 4.546875 -7.828125 L 3.046875 -7.828125 L 3.046875 -4.90625 Z M 4.546875 -4.90625 "/></g></g></g><g fill="#000000" fill-opacity="1"><g transform="translate(581.993291, 292.45196)"><g><path d="M 4.546875 -9.28125 C 6.054688 -9.28125 7.207031 -8.890625 8 -8.109375 C 8.789062 -7.328125 9.1875 -6.171875 9.1875 -4.640625 C 9.1875 -3.109375 8.789062 -1.953125 8 -1.171875 C 7.207031 -0.390625 6.054688 0 4.546875 0 L 1.203125 0 L 1.203125 -9.28125 Z M 4.4375 -1.546875 C 5.394531 -1.546875 6.109375 -1.789062 6.578125 -2.28125 C 7.054688 -2.769531 7.296875 -3.554688 7.296875 -4.640625 C 7.296875 -5.722656 7.054688 -6.507812 6.578125 -7 C 6.109375 -7.488281 5.394531 -7.734375 4.4375 -7.734375 L 3.046875 -7.734375 L 3.046875 -1.546875 Z M 4.4375 -1.546875 "/></g></g></g><g fill="#000000" fill-opacity="1"><g transform="translate(591.911702, 292.45196)"><g><path d="M 8.90625 0 L 6.96875 0 L 6.28125 -2.140625 L 2.71875 -2.140625 L 2.03125 0 L 0.140625 0 L 3.34375 -9.28125 L 5.703125 -9.28125 Z M 4.40625 -7.34375 L 3.21875 -3.6875 L 5.765625 -3.6875 L 4.578125 -7.34375 Z M 4.40625 -7.34375 "/></g></g></g><g fill="#000000" fill-opacity="1"><g transform="translate(600.9544, 292.45196)"><g><path d="M 7.4375 -9.28125 L 7.4375 -7.734375 L 4.765625 -7.734375 L 4.765625 0 L 2.9375 0 L 2.9375 -7.734375 L 0.25 -7.734375 L 0.25 -9.28125 Z M 7.4375 -9.28125 "/></g></g></g><g fill="#000000" fill-opacity="1"><g transform="translate(608.645447, 292.45196)"><g><path d="M 3.046875 -4.078125 L 3.046875 -1.53125 L 7.46875 -1.53125 L 7.46875 0 L 1.203125 0 L 1.203125 -9.28125 L 7.375 -9.28125 L 7.375 -7.75 L 3.046875 -7.75 L 3.046875 -5.578125 L 6.828125 -5.578125 L 6.828125 -4.078125 Z M 3.046875 -4.078125 "/></g></g></g><g fill="#000000" fill-opacity="1"><g transform="translate(616.622059, 292.45196)"><g/></g></g><g fill="#000000" fill-opacity="1"><g transform="translate(619.687061, 292.45196)"><g><path d="M 2.84375 1.328125 C 2.257812 0.617188 1.789062 -0.171875 1.4375 -1.046875 C 1.09375 -1.929688 0.921875 -2.992188 0.921875 -4.234375 C 0.921875 -5.492188 1.09375 -6.5625 1.4375 -7.4375 C 1.789062 -8.3125 2.257812 -9.101562 2.84375 -9.8125 L 4.1875 -9.8125 L 4.21875 -9.6875 C 3.757812 -8.894531 3.40625 -8.078125 3.15625 -7.234375 C 2.90625 -6.398438 2.78125 -5.398438 2.78125 -4.234375 C 2.78125 -3.078125 2.90625 -2.078125 3.15625 -1.234375 C 3.40625 -0.398438 3.757812 0.40625 4.21875 1.1875 L 4.1875 1.328125 Z M 2.84375 1.328125 "/></g></g></g><g fill="#000000" fill-opacity="1"><g transform="translate(624.300426, 292.45196)"><g><path d="M 1.203125 0 L 1.203125 -9.28125 L 3.046875 -9.28125 L 3.046875 -5.484375 L 3.25 -5.484375 L 6.34375 -9.28125 L 8.21875 -9.28125 L 8.21875 -9.125 L 4.8125 -4.90625 L 8.578125 -0.15625 L 8.578125 0 L 6.5 0 L 3.25 -4 L 3.046875 -4 L 3.046875 0 Z M 1.203125 0 "/></g></g></g><g fill="#000000" fill-opacity="1"><g transform="translate(632.873538, 292.45196)"><g><path d="M 6.4375 -5.234375 L 0.703125 -5.234375 L 0.703125 -6.703125 L 6.4375 -6.703125 Z M 6.4375 -2.578125 L 0.703125 -2.578125 L 0.703125 -4.046875 L 6.4375 -4.046875 Z M 6.4375 -2.578125 "/></g></g></g><g fill="#000000" fill-opacity="1"><g transform="translate(640.037894, 292.45196)"><g><path d="M 0.484375 0 L 0.484375 -1.515625 L 2.734375 -1.515625 L 2.734375 -7.296875 L 2.578125 -7.328125 C 2.265625 -7.179688 1.953125 -7.0625 1.640625 -6.96875 C 1.335938 -6.882812 0.988281 -6.816406 0.59375 -6.765625 L 0.59375 -8.328125 C 1.625 -8.546875 2.457031 -8.863281 3.09375 -9.28125 L 4.546875 -9.28125 L 4.546875 -1.515625 L 6.546875 -1.515625 L 6.546875 0 Z M 0.484375 0 "/></g></g></g><g fill="#000000" fill-opacity="1"><g transform="translate(646.884963, 292.45196)"><g><path d="M 0.25 1.859375 C 0.625 1.640625 0.957031 1.363281 1.25 1.03125 C 1.539062 0.707031 1.703125 0.378906 1.734375 0.046875 C 1.398438 0.046875 1.140625 -0.0507812 0.953125 -0.25 C 0.765625 -0.445312 0.671875 -0.703125 0.671875 -1.015625 C 0.671875 -1.210938 0.710938 -1.390625 0.796875 -1.546875 C 0.890625 -1.710938 1.019531 -1.84375 1.1875 -1.9375 C 1.363281 -2.03125 1.5625 -2.078125 1.78125 -2.078125 C 2.132812 -2.078125 2.414062 -1.957031 2.625 -1.71875 C 2.84375 -1.488281 2.953125 -1.15625 2.953125 -0.71875 C 2.953125 0.03125 2.757812 0.6875 2.375 1.25 C 1.988281 1.8125 1.476562 2.285156 0.84375 2.671875 Z M 0.25 1.859375 "/></g></g></g><g fill="#000000" fill-opacity="1"><g transform="translate(650.495699, 292.45196)"><g><path d="M 5.515625 0 L 3.296875 0 L 0.171875 -9.28125 L 2.109375 -9.28125 L 4.375 -2.359375 L 4.53125 -2.359375 L 6.75 -9.28125 L 8.640625 -9.28125 Z M 5.515625 0 "/></g></g></g><g fill="#000000" fill-opacity="1"><g transform="translate(659.303598, 292.45196)"><g><path d="M 6.4375 -5.234375 L 0.703125 -5.234375 L 0.703125 -6.703125 L 6.4375 -6.703125 Z M 6.4375 -2.578125 L 0.703125 -2.578125 L 0.703125 -4.046875 L 6.4375 -4.046875 Z M 6.4375 -2.578125 "/></g></g></g><g fill="#000000" fill-opacity="1"><g transform="translate(666.467954, 292.45196)"><g><path d="M 0.453125 -0.734375 C 0.453125 -1.242188 0.503906 -1.675781 0.609375 -2.03125 C 0.722656 -2.382812 0.90625 -2.703125 1.15625 -2.984375 C 1.414062 -3.273438 1.78125 -3.585938 2.25 -3.921875 L 3.484375 -4.828125 C 3.828125 -5.066406 4.09375 -5.273438 4.28125 -5.453125 C 4.46875 -5.628906 4.609375 -5.8125 4.703125 -6 C 4.796875 -6.195312 4.84375 -6.421875 4.84375 -6.671875 C 4.84375 -7.054688 4.726562 -7.347656 4.5 -7.546875 C 4.269531 -7.753906 3.925781 -7.859375 3.46875 -7.859375 C 3.03125 -7.859375 2.640625 -7.753906 2.296875 -7.546875 C 1.953125 -7.335938 1.671875 -7.050781 1.453125 -6.6875 L 1.328125 -6.65625 L 0.3125 -7.78125 C 0.644531 -8.269531 1.078125 -8.660156 1.609375 -8.953125 C 2.140625 -9.253906 2.785156 -9.40625 3.546875 -9.40625 C 4.234375 -9.40625 4.8125 -9.289062 5.28125 -9.0625 C 5.75 -8.84375 6.097656 -8.535156 6.328125 -8.140625 C 6.554688 -7.742188 6.671875 -7.285156 6.671875 -6.765625 C 6.671875 -6.328125 6.578125 -5.925781 6.390625 -5.5625 C 6.203125 -5.195312 5.945312 -4.859375 5.625 -4.546875 C 5.300781 -4.242188 4.882812 -3.914062 4.375 -3.5625 L 3.28125 -2.796875 C 2.945312 -2.554688 2.710938 -2.34375 2.578125 -2.15625 C 2.453125 -1.976562 2.390625 -1.769531 2.390625 -1.53125 L 6.578125 -1.53125 L 6.578125 0 L 0.453125 0 Z M 0.453125 -0.734375 "/></g></g></g><g fill="#000000" fill-opacity="1"><g transform="translate(673.708459, 292.45196)"><g><path d="M 4.53125 0.140625 C 3.769531 0.140625 3.109375 -0.0234375 2.546875 -0.359375 C 1.992188 -0.703125 1.5625 -1.226562 1.25 -1.9375 C 0.9375 -2.65625 0.78125 -3.554688 0.78125 -4.640625 C 0.78125 -5.722656 0.9375 -6.617188 1.25 -7.328125 C 1.5625 -8.046875 1.992188 -8.570312 2.546875 -8.90625 C 3.109375 -9.238281 3.769531 -9.40625 4.53125 -9.40625 C 5.289062 -9.40625 5.953125 -9.238281 6.515625 -8.90625 C 7.078125 -8.570312 7.515625 -8.046875 7.828125 -7.328125 C 8.140625 -6.617188 8.296875 -5.722656 8.296875 -4.640625 C 8.296875 -3.554688 8.140625 -2.65625 7.828125 -1.9375 C 7.515625 -1.226562 7.078125 -0.703125 6.515625 -0.359375 C 5.953125 -0.0234375 5.289062 0.140625 4.53125 0.140625 Z M 4.53125 -1.421875 C 4.945312 -1.421875 5.296875 -1.519531 5.578125 -1.71875 C 5.859375 -1.925781 6.070312 -2.265625 6.21875 -2.734375 C 6.363281 -3.210938 6.4375 -3.847656 6.4375 -4.640625 C 6.4375 -5.429688 6.363281 -6.0625 6.21875 -6.53125 C 6.070312 -7.007812 5.859375 -7.347656 5.578125 -7.546875 C 5.296875 -7.753906 4.945312 -7.859375 4.53125 -7.859375 C 4.113281 -7.859375 3.765625 -7.753906 3.484375 -7.546875 C 3.210938 -7.347656 3 -7.007812 2.84375 -6.53125 C 2.695312 -6.0625 2.625 -5.429688 2.625 -4.640625 C 2.625 -3.847656 2.695312 -3.210938 2.84375 -2.734375 C 3 -2.265625 3.210938 -1.925781 3.484375 -1.71875 C 3.765625 -1.519531 4.113281 -1.421875 4.53125 -1.421875 Z M 4.53125 -1.421875 "/></g></g></g><g fill="#000000" fill-opacity="1"><g transform="translate(682.77654, 292.45196)"><g><path d="M 0.40625 1.1875 C 0.695312 0.6875 0.941406 0.179688 1.140625 -0.328125 C 1.347656 -0.847656 1.515625 -1.429688 1.640625 -2.078125 C 1.765625 -2.722656 1.828125 -3.441406 1.828125 -4.234375 C 1.828125 -5.035156 1.765625 -5.757812 1.640625 -6.40625 C 1.515625 -7.050781 1.347656 -7.628906 1.140625 -8.140625 C 0.941406 -8.660156 0.695312 -9.175781 0.40625 -9.6875 L 0.421875 -9.8125 L 1.765625 -9.8125 C 2.128906 -9.363281 2.453125 -8.882812 2.734375 -8.375 C 3.015625 -7.875 3.242188 -7.273438 3.421875 -6.578125 C 3.597656 -5.890625 3.6875 -5.109375 3.6875 -4.234375 C 3.6875 -2.992188 3.507812 -1.929688 3.15625 -1.046875 C 2.8125 -0.171875 2.347656 0.617188 1.765625 1.328125 L 0.421875 1.328125 Z M 0.40625 1.1875 "/></g></g></g><g clip-path="url(#9359d2d4f2)"><g clip-path="url(#637102090b)"><path fill="#d9d9d9" d="M 541.421875 33.085938 L 688.453125 33.085938 L 688.453125 180.113281 L 541.421875 180.113281 Z M 541.421875 33.085938 " fill-opacity="1" fill-rule="nonzero"/></g></g><g fill="#000000" fill-opacity="1"><g transform="translate(581.630591, 113.334859)"><g><path d="M 4.125 0 L 1.671875 0 L 1.671875 -12.84375 L 4.578125 -12.84375 L 9.734375 -4.578125 L 9.96875 -4.609375 L 9.96875 -12.84375 L 12.40625 -12.84375 L 12.40625 0 L 9.8125 0 L 4.34375 -8.84375 L 4.125 -8.8125 Z M 4.125 0 "/></g></g><g transform="translate(595.719458, 113.334859)"><g><path d="M 7 0.1875 C 5.820312 0.1875 4.785156 -0.0507812 3.890625 -0.53125 C 2.992188 -1.007812 2.289062 -1.742188 1.78125 -2.734375 C 1.269531 -3.722656 1.015625 -4.953125 1.015625 -6.421875 C 1.015625 -7.890625 1.269531 -9.117188 1.78125 -10.109375 C 2.289062 -11.097656 2.992188 -11.832031 3.890625 -12.3125 C 4.785156 -12.789062 5.820312 -13.03125 7 -13.03125 C 8.175781 -13.03125 9.210938 -12.789062 10.109375 -12.3125 C 11.015625 -11.84375 11.71875 -11.109375 12.21875 -10.109375 C 12.726562 -9.117188 12.984375 -7.890625 12.984375 -6.421875 C 12.984375 -4.953125 12.726562 -3.722656 12.21875 -2.734375 C 11.71875 -1.742188 11.015625 -1.007812 10.109375 -0.53125 C 9.210938 -0.0507812 8.175781 0.1875 7 0.1875 Z M 7 -2.015625 C 8.09375 -2.015625 8.925781 -2.363281 9.5 -3.0625 C 10.070312 -3.769531 10.359375 -4.890625 10.359375 -6.421875 C 10.359375 -7.960938 10.070312 -9.082031 9.5 -9.78125 C 8.925781 -10.488281 8.09375 -10.84375 7 -10.84375 C 5.90625 -10.84375 5.066406 -10.488281 4.484375 -9.78125 C 3.910156 -9.082031 3.625 -7.960938 3.625 -6.421875 C 3.625 -4.890625 3.910156 -3.769531 4.484375 -3.0625 C 5.066406 -2.363281 5.90625 -2.015625 7 -2.015625 Z M 7 -2.015625 "/></g></g><g transform="translate(609.720434, 113.334859)"><g><path d="M 6.296875 -12.84375 C 8.378906 -12.84375 9.96875 -12.300781 11.0625 -11.21875 C 12.164062 -10.144531 12.71875 -8.546875 12.71875 -6.421875 C 12.71875 -4.304688 12.164062 -2.707031 11.0625 -1.625 C 9.96875 -0.539062 8.378906 0 6.296875 0 L 1.671875 0 L 1.671875 -12.84375 Z M 6.140625 -2.140625 C 7.460938 -2.140625 8.453125 -2.476562 9.109375 -3.15625 C 9.765625 -3.832031 10.09375 -4.921875 10.09375 -6.421875 C 10.09375 -7.929688 9.765625 -9.023438 9.109375 -9.703125 C 8.453125 -10.378906 7.460938 -10.71875 6.140625 -10.71875 L 4.203125 -10.71875 L 4.203125 -2.140625 Z M 6.140625 -2.140625 "/></g></g><g transform="translate(623.457738, 113.334859)"><g><path d="M 4.203125 -5.640625 L 4.203125 -2.125 L 10.34375 -2.125 L 10.34375 0 L 1.671875 0 L 1.671875 -12.84375 L 10.203125 -12.84375 L 10.203125 -10.71875 L 4.203125 -10.71875 L 4.203125 -7.71875 L 9.453125 -7.71875 L 9.453125 -5.640625 Z M 4.203125 -5.640625 "/></g></g><g transform="translate(634.505589, 113.334859)"><g><path d="M 6.15625 -5.171875 L 0.765625 -5.171875 L 0.765625 -7.3125 L 6.15625 -7.3125 Z M 6.15625 -5.171875 "/></g></g><g transform="translate(641.440159, 113.334859)"><g><path d="M 0.671875 0 L 0.671875 -2.09375 L 3.78125 -2.09375 L 3.78125 -10.09375 L 3.578125 -10.15625 C 3.140625 -9.9375 2.707031 -9.765625 2.28125 -9.640625 C 1.851562 -9.523438 1.367188 -9.429688 0.828125 -9.359375 L 0.828125 -11.53125 C 2.253906 -11.832031 3.40625 -12.269531 4.28125 -12.84375 L 6.296875 -12.84375 L 6.296875 -2.09375 L 9.0625 -2.09375 L 9.0625 0 Z M 0.671875 0 "/></g></g></g><g clip-path="url(#d943158290)"><g clip-path="url(#3b8126f1e0)"><path fill="#d9d9d9" d="M 74.980469 393.578125 L 222.007812 393.578125 L 222.007812 540.605469 L 74.980469 540.605469 Z M 74.980469 393.578125 " fill-opacity="1" fill-rule="nonzero"/></g></g><g fill="#000000" fill-opacity="1"><g transform="translate(114.916358, 473.827851)"><g><path d="M 4.125 0 L 1.671875 0 L 1.671875 -12.84375 L 4.578125 -12.84375 L 9.734375 -4.578125 L 9.96875 -4.609375 L 9.96875 -12.84375 L 12.40625 -12.84375 L 12.40625 0 L 9.8125 0 L 4.34375 -8.84375 L 4.125 -8.8125 Z M 4.125 0 "/></g></g><g transform="translate(129.005225, 473.827851)"><g><path d="M 7 0.1875 C 5.820312 0.1875 4.785156 -0.0507812 3.890625 -0.53125 C 2.992188 -1.007812 2.289062 -1.742188 1.78125 -2.734375 C 1.269531 -3.722656 1.015625 -4.953125 1.015625 -6.421875 C 1.015625 -7.890625 1.269531 -9.117188 1.78125 -10.109375 C 2.289062 -11.097656 2.992188 -11.832031 3.890625 -12.3125 C 4.785156 -12.789062 5.820312 -13.03125 7 -13.03125 C 8.175781 -13.03125 9.210938 -12.789062 10.109375 -12.3125 C 11.015625 -11.84375 11.71875 -11.109375 12.21875 -10.109375 C 12.726562 -9.117188 12.984375 -7.890625 12.984375 -6.421875 C 12.984375 -4.953125 12.726562 -3.722656 12.21875 -2.734375 C 11.71875 -1.742188 11.015625 -1.007812 10.109375 -0.53125 C 9.210938 -0.0507812 8.175781 0.1875 7 0.1875 Z M 7 -2.015625 C 8.09375 -2.015625 8.925781 -2.363281 9.5 -3.0625 C 10.070312 -3.769531 10.359375 -4.890625 10.359375 -6.421875 C 10.359375 -7.960938 10.070312 -9.082031 9.5 -9.78125 C 8.925781 -10.488281 8.09375 -10.84375 7 -10.84375 C 5.90625 -10.84375 5.066406 -10.488281 4.484375 -9.78125 C 3.910156 -9.082031 3.625 -7.960938 3.625 -6.421875 C 3.625 -4.890625 3.910156 -3.769531 4.484375 -3.0625 C 5.066406 -2.363281 5.90625 -2.015625 7 -2.015625 Z M 7 -2.015625 "/></g></g><g transform="translate(143.006201, 473.827851)"><g><path d="M 6.296875 -12.84375 C 8.378906 -12.84375 9.96875 -12.300781 11.0625 -11.21875 C 12.164062 -10.144531 12.71875 -8.546875 12.71875 -6.421875 C 12.71875 -4.304688 12.164062 -2.707031 11.0625 -1.625 C 9.96875 -0.539062 8.378906 0 6.296875 0 L 1.671875 0 L 1.671875 -12.84375 Z M 6.140625 -2.140625 C 7.460938 -2.140625 8.453125 -2.476562 9.109375 -3.15625 C 9.765625 -3.832031 10.09375 -4.921875 10.09375 -6.421875 C 10.09375 -7.929688 9.765625 -9.023438 9.109375 -9.703125 C 8.453125 -10.378906 7.460938 -10.71875 6.140625 -10.71875 L 4.203125 -10.71875 L 4.203125 -2.140625 Z M 6.140625 -2.140625 "/></g></g><g transform="translate(156.743505, 473.827851)"><g><path d="M 4.203125 -5.640625 L 4.203125 -2.125 L 10.34375 -2.125 L 10.34375 0 L 1.671875 0 L 1.671875 -12.84375 L 10.203125 -12.84375 L 10.203125 -10.71875 L 4.203125 -10.71875 L 4.203125 -7.71875 L 9.453125 -7.71875 L 9.453125 -5.640625 Z M 4.203125 -5.640625 "/></g></g><g transform="translate(167.791356, 473.827851)"><g><path d="M 6.15625 -5.171875 L 0.765625 -5.171875 L 0.765625 -7.3125 L 6.15625 -7.3125 Z M 6.15625 -5.171875 "/></g></g><g transform="translate(174.725926, 473.827851)"><g><path d="M 0.625 -1.015625 C 0.625 -1.722656 0.703125 -2.320312 0.859375 -2.8125 C 1.015625 -3.300781 1.265625 -3.742188 1.609375 -4.140625 C 1.960938 -4.546875 2.460938 -4.976562 3.109375 -5.4375 L 4.828125 -6.6875 C 5.296875 -7.019531 5.660156 -7.304688 5.921875 -7.546875 C 6.179688 -7.796875 6.375 -8.054688 6.5 -8.328125 C 6.632812 -8.597656 6.703125 -8.90625 6.703125 -9.25 C 6.703125 -9.769531 6.539062 -10.171875 6.21875 -10.453125 C 5.90625 -10.734375 5.4375 -10.875 4.8125 -10.875 C 4.195312 -10.875 3.648438 -10.726562 3.171875 -10.4375 C 2.703125 -10.15625 2.3125 -9.757812 2 -9.25 L 1.84375 -9.21875 L 0.4375 -10.78125 C 0.894531 -11.457031 1.488281 -12 2.21875 -12.40625 C 2.957031 -12.820312 3.851562 -13.03125 4.90625 -13.03125 C 5.863281 -13.03125 6.664062 -12.867188 7.3125 -12.546875 C 7.957031 -12.234375 8.4375 -11.800781 8.75 -11.25 C 9.070312 -10.707031 9.234375 -10.082031 9.234375 -9.375 C 9.234375 -8.769531 9.101562 -8.210938 8.84375 -7.703125 C 8.59375 -7.203125 8.238281 -6.738281 7.78125 -6.3125 C 7.332031 -5.882812 6.757812 -5.425781 6.0625 -4.9375 L 4.53125 -3.875 C 4.070312 -3.539062 3.753906 -3.242188 3.578125 -2.984375 C 3.398438 -2.734375 3.3125 -2.445312 3.3125 -2.125 L 9.109375 -2.125 L 9.109375 0 L 0.625 0 Z M 0.625 -1.015625 "/></g></g></g><g clip-path="url(#8c2d599ff3)"><g clip-path="url(#15cf1a241c)"><path fill="#d9d9d9" d="M 541.78125 395.308594 L 688.8125 395.308594 L 688.8125 542.335938 L 541.78125 542.335938 Z M 541.78125 395.308594 " fill-opacity="1" fill-rule="nonzero"/></g></g><g fill="#000000" fill-opacity="1"><g transform="translate(581.415388, 475.557305)"><g><path d="M 4.125 0 L 1.671875 0 L 1.671875 -12.84375 L 4.578125 -12.84375 L 9.734375 -4.578125 L 9.96875 -4.609375 L 9.96875 -12.84375 L 12.40625 -12.84375 L 12.40625 0 L 9.8125 0 L 4.34375 -8.84375 L 4.125 -8.8125 Z M 4.125 0 "/></g></g><g transform="translate(595.504255, 475.557305)"><g><path d="M 7 0.1875 C 5.820312 0.1875 4.785156 -0.0507812 3.890625 -0.53125 C 2.992188 -1.007812 2.289062 -1.742188 1.78125 -2.734375 C 1.269531 -3.722656 1.015625 -4.953125 1.015625 -6.421875 C 1.015625 -7.890625 1.269531 -9.117188 1.78125 -10.109375 C 2.289062 -11.097656 2.992188 -11.832031 3.890625 -12.3125 C 4.785156 -12.789062 5.820312 -13.03125 7 -13.03125 C 8.175781 -13.03125 9.210938 -12.789062 10.109375 -12.3125 C 11.015625 -11.84375 11.71875 -11.109375 12.21875 -10.109375 C 12.726562 -9.117188 12.984375 -7.890625 12.984375 -6.421875 C 12.984375 -4.953125 12.726562 -3.722656 12.21875 -2.734375 C 11.71875 -1.742188 11.015625 -1.007812 10.109375 -0.53125 C 9.210938 -0.0507812 8.175781 0.1875 7 0.1875 Z M 7 -2.015625 C 8.09375 -2.015625 8.925781 -2.363281 9.5 -3.0625 C 10.070312 -3.769531 10.359375 -4.890625 10.359375 -6.421875 C 10.359375 -7.960938 10.070312 -9.082031 9.5 -9.78125 C 8.925781 -10.488281 8.09375 -10.84375 7 -10.84375 C 5.90625 -10.84375 5.066406 -10.488281 4.484375 -9.78125 C 3.910156 -9.082031 3.625 -7.960938 3.625 -6.421875 C 3.625 -4.890625 3.910156 -3.769531 4.484375 -3.0625 C 5.066406 -2.363281 5.90625 -2.015625 7 -2.015625 Z M 7 -2.015625 "/></g></g><g transform="translate(609.505231, 475.557305)"><g><path d="M 6.296875 -12.84375 C 8.378906 -12.84375 9.96875 -12.300781 11.0625 -11.21875 C 12.164062 -10.144531 12.71875 -8.546875 12.71875 -6.421875 C 12.71875 -4.304688 12.164062 -2.707031 11.0625 -1.625 C 9.96875 -0.539062 8.378906 0 6.296875 0 L 1.671875 0 L 1.671875 -12.84375 Z M 6.140625 -2.140625 C 7.460938 -2.140625 8.453125 -2.476562 9.109375 -3.15625 C 9.765625 -3.832031 10.09375 -4.921875 10.09375 -6.421875 C 10.09375 -7.929688 9.765625 -9.023438 9.109375 -9.703125 C 8.453125 -10.378906 7.460938 -10.71875 6.140625 -10.71875 L 4.203125 -10.71875 L 4.203125 -2.140625 Z M 6.140625 -2.140625 "/></g></g><g transform="translate(623.242535, 475.557305)"><g><path d="M 4.203125 -5.640625 L 4.203125 -2.125 L 10.34375 -2.125 L 10.34375 0 L 1.671875 0 L 1.671875 -12.84375 L 10.203125 -12.84375 L 10.203125 -10.71875 L 4.203125 -10.71875 L 4.203125 -7.71875 L 9.453125 -7.71875 L 9.453125 -5.640625 Z M 4.203125 -5.640625 "/></g></g><g transform="translate(634.290386, 475.557305)"><g><path d="M 6.15625 -5.171875 L 0.765625 -5.171875 L 0.765625 -7.3125 L 6.15625 -7.3125 Z M 6.15625 -5.171875 "/></g></g><g transform="translate(641.224956, 475.557305)"><g><path d="M 5.234375 0.1875 C 3.859375 0.1875 2.765625 -0.101562 1.953125 -0.6875 C 1.148438 -1.269531 0.640625 -2.097656 0.421875 -3.171875 L 2.34375 -4.0625 L 2.546875 -4.03125 C 2.765625 -3.320312 3.070312 -2.800781 3.46875 -2.46875 C 3.875 -2.144531 4.4375 -1.984375 5.15625 -1.984375 C 5.84375 -1.984375 6.367188 -2.144531 6.734375 -2.46875 C 7.097656 -2.789062 7.28125 -3.257812 7.28125 -3.875 C 7.28125 -4.476562 7.097656 -4.941406 6.734375 -5.265625 C 6.378906 -5.585938 5.851562 -5.75 5.15625 -5.75 L 3.21875 -5.75 L 3.21875 -7.71875 L 4.90625 -7.71875 C 5.476562 -7.71875 5.929688 -7.863281 6.265625 -8.15625 C 6.609375 -8.445312 6.78125 -8.859375 6.78125 -9.390625 C 6.78125 -9.910156 6.617188 -10.304688 6.296875 -10.578125 C 5.984375 -10.847656 5.546875 -10.984375 4.984375 -10.984375 C 4.410156 -10.984375 3.898438 -10.847656 3.453125 -10.578125 C 3.015625 -10.304688 2.660156 -9.941406 2.390625 -9.484375 L 2.1875 -9.453125 L 0.859375 -11 C 1.304688 -11.613281 1.882812 -12.101562 2.59375 -12.46875 C 3.300781 -12.84375 4.144531 -13.03125 5.125 -13.03125 C 6.46875 -13.03125 7.492188 -12.75 8.203125 -12.1875 C 8.910156 -11.625 9.265625 -10.832031 9.265625 -9.8125 C 9.265625 -9.195312 9.117188 -8.671875 8.828125 -8.234375 C 8.546875 -7.796875 8.140625 -7.421875 7.609375 -7.109375 L 7.609375 -6.921875 C 9.085938 -6.398438 9.828125 -5.347656 9.828125 -3.765625 C 9.828125 -2.960938 9.65625 -2.265625 9.3125 -1.671875 C 8.976562 -1.085938 8.46875 -0.628906 7.78125 -0.296875 C 7.09375 0.0234375 6.242188 0.1875 5.234375 0.1875 Z M 5.234375 0.1875 "/></g></g></g><g clip-path="url(#fe9027f8fd)"><g clip-path="url(#579d6f25fb)"><path fill="#ff3131" d="M 87.394531 497.003906 L 211.914062 497.003906 L 211.914062 531.246094 L 87.394531 531.246094 Z M 87.394531 497.003906 " fill-opacity="1" fill-rule="nonzero"/></g></g><g fill="#000000" fill-opacity="1"><g transform="translate(102.594091, 518.753206)"><g><path d="M 0.453125 -0.734375 C 0.453125 -1.242188 0.503906 -1.675781 0.609375 -2.03125 C 0.722656 -2.382812 0.90625 -2.703125 1.15625 -2.984375 C 1.414062 -3.273438 1.78125 -3.585938 2.25 -3.921875 L 3.484375 -4.828125 C 3.828125 -5.066406 4.09375 -5.273438 4.28125 -5.453125 C 4.46875 -5.628906 4.609375 -5.8125 4.703125 -6 C 4.796875 -6.195312 4.84375 -6.421875 4.84375 -6.671875 C 4.84375 -7.054688 4.726562 -7.347656 4.5 -7.546875 C 4.269531 -7.753906 3.925781 -7.859375 3.46875 -7.859375 C 3.03125 -7.859375 2.640625 -7.753906 2.296875 -7.546875 C 1.953125 -7.335938 1.671875 -7.050781 1.453125 -6.6875 L 1.328125 -6.65625 L 0.3125 -7.78125 C 0.644531 -8.269531 1.078125 -8.660156 1.609375 -8.953125 C 2.140625 -9.253906 2.785156 -9.40625 3.546875 -9.40625 C 4.234375 -9.40625 4.8125 -9.289062 5.28125 -9.0625 C 5.75 -8.84375 6.097656 -8.535156 6.328125 -8.140625 C 6.554688 -7.742188 6.671875 -7.285156 6.671875 -6.765625 C 6.671875 -6.328125 6.578125 -5.925781 6.390625 -5.5625 C 6.203125 -5.195312 5.945312 -4.859375 5.625 -4.546875 C 5.300781 -4.242188 4.882812 -3.914062 4.375 -3.5625 L 3.28125 -2.796875 C 2.945312 -2.554688 2.710938 -2.34375 2.578125 -2.15625 C 2.453125 -1.976562 2.390625 -1.769531 2.390625 -1.53125 L 6.578125 -1.53125 L 6.578125 0 L 0.453125 0 Z M 0.453125 -0.734375 "/></g></g></g><g fill="#000000" fill-opacity="1"><g transform="translate(109.834596, 518.753206)"><g/></g></g><g fill="#000000" fill-opacity="1"><g transform="translate(112.899599, 518.753206)"><g><path d="M 1.796875 0.0625 C 1.566406 0.0625 1.363281 0.015625 1.1875 -0.078125 C 1.019531 -0.171875 0.890625 -0.296875 0.796875 -0.453125 C 0.710938 -0.617188 0.671875 -0.800781 0.671875 -1 C 0.671875 -1.207031 0.710938 -1.390625 0.796875 -1.546875 C 0.890625 -1.710938 1.019531 -1.835938 1.1875 -1.921875 C 1.363281 -2.015625 1.566406 -2.0625 1.796875 -2.0625 C 2.023438 -2.0625 2.222656 -2.015625 2.390625 -1.921875 C 2.554688 -1.835938 2.6875 -1.710938 2.78125 -1.546875 C 2.875 -1.390625 2.921875 -1.210938 2.921875 -1.015625 C 2.921875 -0.703125 2.816406 -0.441406 2.609375 -0.234375 C 2.398438 -0.0351562 2.128906 0.0625 1.796875 0.0625 Z M 1.796875 -4.9375 C 1.566406 -4.9375 1.363281 -4.984375 1.1875 -5.078125 C 1.019531 -5.171875 0.890625 -5.296875 0.796875 -5.453125 C 0.710938 -5.617188 0.671875 -5.800781 0.671875 -6 C 0.671875 -6.207031 0.710938 -6.390625 0.796875 -6.546875 C 0.890625 -6.710938 1.019531 -6.835938 1.1875 -6.921875 C 1.363281 -7.015625 1.566406 -7.0625 1.796875 -7.0625 C 2.023438 -7.0625 2.222656 -7.015625 2.390625 -6.921875 C 2.554688 -6.835938 2.6875 -6.710938 2.78125 -6.546875 C 2.875 -6.390625 2.921875 -6.210938 2.921875 -6.015625 C 2.921875 -5.703125 2.816406 -5.441406 2.609375 -5.234375 C 2.398438 -5.035156 2.128906 -4.9375 1.796875 -4.9375 Z M 1.796875 -4.9375 "/></g></g></g><g fill="#000000" fill-opacity="1"><g transform="translate(116.484952, 518.753206)"><g/></g></g><g fill="#000000" fill-opacity="1"><g transform="translate(119.549955, 518.753206)"><g><path d="M 2.984375 0 L 1.203125 0 L 1.203125 -9.28125 L 3.3125 -9.28125 L 7.03125 -3.296875 L 7.203125 -3.328125 L 7.203125 -9.28125 L 8.96875 -9.28125 L 8.96875 0 L 7.078125 0 L 3.140625 -6.390625 L 2.984375 -6.359375 Z M 2.984375 0 "/></g></g></g><g fill="#000000" fill-opacity="1"><g transform="translate(129.722195, 518.753206)"><g><path d="M 5.0625 0.140625 C 4.207031 0.140625 3.453125 -0.03125 2.796875 -0.375 C 2.148438 -0.726562 1.644531 -1.257812 1.28125 -1.96875 C 0.914062 -2.6875 0.734375 -3.578125 0.734375 -4.640625 C 0.734375 -5.703125 0.914062 -6.585938 1.28125 -7.296875 C 1.644531 -8.015625 2.148438 -8.546875 2.796875 -8.890625 C 3.453125 -9.234375 4.207031 -9.40625 5.0625 -9.40625 C 5.90625 -9.40625 6.648438 -9.234375 7.296875 -8.890625 C 7.953125 -8.546875 8.460938 -8.015625 8.828125 -7.296875 C 9.191406 -6.585938 9.375 -5.703125 9.375 -4.640625 C 9.375 -3.578125 9.191406 -2.6875 8.828125 -1.96875 C 8.460938 -1.257812 7.953125 -0.726562 7.296875 -0.375 C 6.648438 -0.03125 5.90625 0.140625 5.0625 0.140625 Z M 5.0625 -1.453125 C 5.84375 -1.453125 6.441406 -1.707031 6.859375 -2.21875 C 7.273438 -2.726562 7.484375 -3.535156 7.484375 -4.640625 C 7.484375 -5.742188 7.273438 -6.550781 6.859375 -7.0625 C 6.441406 -7.570312 5.84375 -7.828125 5.0625 -7.828125 C 4.269531 -7.828125 3.664062 -7.570312 3.25 -7.0625 C 2.832031 -6.550781 2.625 -5.742188 2.625 -4.640625 C 2.625 -3.535156 2.832031 -2.726562 3.25 -2.21875 C 3.664062 -1.707031 4.269531 -1.453125 5.0625 -1.453125 Z M 5.0625 -1.453125 "/></g></g></g><g fill="#000000" fill-opacity="1"><g transform="translate(139.830979, 518.753206)"><g><path d="M 4.546875 -9.28125 C 6.054688 -9.28125 7.207031 -8.890625 8 -8.109375 C 8.789062 -7.328125 9.1875 -6.171875 9.1875 -4.640625 C 9.1875 -3.109375 8.789062 -1.953125 8 -1.171875 C 7.207031 -0.390625 6.054688 0 4.546875 0 L 1.203125 0 L 1.203125 -9.28125 Z M 4.4375 -1.546875 C 5.394531 -1.546875 6.109375 -1.789062 6.578125 -2.28125 C 7.054688 -2.769531 7.296875 -3.554688 7.296875 -4.640625 C 7.296875 -5.722656 7.054688 -6.507812 6.578125 -7 C 6.109375 -7.488281 5.394531 -7.734375 4.4375 -7.734375 L 3.046875 -7.734375 L 3.046875 -1.546875 Z M 4.4375 -1.546875 "/></g></g></g><g fill="#000000" fill-opacity="1"><g transform="translate(149.749389, 518.753206)"><g><path d="M 3.046875 -4.078125 L 3.046875 -1.53125 L 7.46875 -1.53125 L 7.46875 0 L 1.203125 0 L 1.203125 -9.28125 L 7.375 -9.28125 L 7.375 -7.75 L 3.046875 -7.75 L 3.046875 -5.578125 L 6.828125 -5.578125 L 6.828125 -4.078125 Z M 3.046875 -4.078125 "/></g></g></g><g fill="#000000" fill-opacity="1"><g transform="translate(157.726001, 518.753206)"><g/></g></g><g fill="#000000" fill-opacity="1"><g transform="translate(160.791004, 518.753206)"><g><path d="M 7.09375 -9.28125 L 7.09375 -7.75 L 3.046875 -7.75 L 3.046875 -5.28125 L 6.71875 -5.28125 L 6.71875 -3.765625 L 3.046875 -3.765625 L 3.046875 0 L 1.203125 0 L 1.203125 -9.28125 Z M 7.09375 -9.28125 "/></g></g></g><g fill="#000000" fill-opacity="1"><g transform="translate(168.291678, 518.753206)"><g><path d="M 8.90625 0 L 6.96875 0 L 6.28125 -2.140625 L 2.71875 -2.140625 L 2.03125 0 L 0.140625 0 L 3.34375 -9.28125 L 5.703125 -9.28125 Z M 4.40625 -7.34375 L 3.21875 -3.6875 L 5.765625 -3.6875 L 4.578125 -7.34375 Z M 4.40625 -7.34375 "/></g></g></g><g fill="#000000" fill-opacity="1"><g transform="translate(177.334376, 518.753206)"><g><path d="M 3.046875 0 L 1.203125 0 L 1.203125 -9.28125 L 3.046875 -9.28125 Z M 3.046875 0 "/></g></g></g><g fill="#000000" fill-opacity="1"><g transform="translate(181.586027, 518.753206)"><g><path d="M 3.046875 -9.28125 L 3.046875 -1.53125 L 7.21875 -1.53125 L 7.21875 0 L 1.203125 0 L 1.203125 -9.28125 Z M 3.046875 -9.28125 "/></g></g></g><g fill="#000000" fill-opacity="1"><g transform="translate(189.099394, 518.753206)"><g><path d="M 4.109375 0.140625 C 3.472656 0.140625 2.898438 0.0625 2.390625 -0.09375 C 1.890625 -0.257812 1.472656 -0.472656 1.140625 -0.734375 C 0.804688 -0.992188 0.550781 -1.273438 0.375 -1.578125 L 1.390625 -2.8125 L 1.546875 -2.8125 C 1.828125 -2.394531 2.179688 -2.0625 2.609375 -1.8125 C 3.035156 -1.570312 3.535156 -1.453125 4.109375 -1.453125 C 4.597656 -1.453125 4.96875 -1.554688 5.21875 -1.765625 C 5.46875 -1.972656 5.59375 -2.257812 5.59375 -2.625 C 5.59375 -2.84375 5.550781 -3.023438 5.46875 -3.171875 C 5.394531 -3.316406 5.265625 -3.441406 5.078125 -3.546875 C 4.890625 -3.660156 4.640625 -3.753906 4.328125 -3.828125 L 3.125 -4.09375 C 2.289062 -4.289062 1.671875 -4.609375 1.265625 -5.046875 C 0.859375 -5.492188 0.65625 -6.066406 0.65625 -6.765625 C 0.65625 -7.296875 0.785156 -7.757812 1.046875 -8.15625 C 1.304688 -8.550781 1.6875 -8.859375 2.1875 -9.078125 C 2.695312 -9.296875 3.300781 -9.40625 4 -9.40625 C 4.707031 -9.40625 5.316406 -9.3125 5.828125 -9.125 C 6.335938 -8.9375 6.769531 -8.648438 7.125 -8.265625 L 6.21875 -7.015625 L 6.0625 -7.015625 C 5.789062 -7.296875 5.484375 -7.503906 5.140625 -7.640625 C 4.804688 -7.773438 4.425781 -7.84375 4 -7.84375 C 3.488281 -7.84375 3.101562 -7.753906 2.84375 -7.578125 C 2.582031 -7.398438 2.453125 -7.15625 2.453125 -6.84375 C 2.453125 -6.550781 2.539062 -6.316406 2.71875 -6.140625 C 2.90625 -5.972656 3.226562 -5.835938 3.6875 -5.734375 L 4.90625 -5.484375 C 5.800781 -5.296875 6.453125 -4.972656 6.859375 -4.515625 C 7.265625 -4.054688 7.46875 -3.460938 7.46875 -2.734375 C 7.46875 -2.148438 7.34375 -1.644531 7.09375 -1.21875 C 6.84375 -0.789062 6.46875 -0.457031 5.96875 -0.21875 C 5.46875 0.0195312 4.847656 0.140625 4.109375 0.140625 Z M 4.109375 0.140625 "/></g></g></g></svg>