<svg xmlns="http://www.w3.org/2000/svg" xmlns:xlink="http://www.w3.org/1999/xlink" width="1024" zoomAndPan="magnify" viewBox="0 0 768 576" height="768" preserveAspectRatio="xMidYMid meet" version="1.0"><defs><g/><clipPath id="1b7b7647d7"><path d="M 30.921875 32.054688 L 215 32.054688 L 215 191 L 30.921875 191 Z M 30.921875 32.054688 " clip-rule="nonzero"/></clipPath><clipPath id="64ab63056c"><path d="M 57.921875 32.054688 L 189.957031 32.054688 C 204.867188 32.054688 216.957031 44.144531 216.957031 59.054688 L 216.957031 163.671875 C 216.957031 178.585938 204.867188 190.671875 189.957031 190.671875 L 57.921875 190.671875 C 43.011719 190.671875 30.921875 178.585938 30.921875 163.671875 L 30.921875 59.054688 C 30.921875 44.144531 43.011719 32.054688 57.921875 32.054688 " clip-rule="nonzero"/></clipPath><clipPath id="dd19937831"><path d="M 276.84375 53.382812 L 505 53.382812 L 505 86 L 276.84375 86 Z M 276.84375 53.382812 " clip-rule="nonzero"/></clipPath><clipPath id="f8afd5059d"><path d="M 292.769531 53.382812 L 488.679688 53.382812 C 492.902344 53.382812 496.953125 55.058594 499.9375 58.046875 C 502.925781 61.03125 504.601562 65.082031 504.601562 69.304688 C 504.601562 73.527344 502.925781 77.578125 499.9375 80.5625 C 496.953125 83.550781 492.902344 85.226562 488.679688 85.226562 L 292.769531 85.226562 C 288.542969 85.226562 284.496094 83.550781 281.507812 80.5625 C 278.523438 77.578125 276.84375 73.527344 276.84375 69.304688 C 276.84375 65.082031 278.523438 61.03125 281.507812 58.046875 C 284.496094 55.058594 288.542969 53.382812 292.769531 53.382812 " clip-rule="nonzero"/></clipPath><clipPath id="c476e5791f"><path d="M 276.84375 96.207031 L 504 96.207031 L 504 129 L 276.84375 129 Z M 276.84375 96.207031 " clip-rule="nonzero"/></clipPath><clipPath id="ae3823e85e"><path d="M 292.769531 96.207031 L 488.679688 96.207031 C 492.902344 96.207031 496.953125 97.886719 499.9375 100.871094 C 502.925781 103.859375 504.601562 107.90625 504.601562 112.128906 C 504.601562 116.355469 502.925781 120.402344 499.9375 123.390625 C 496.953125 126.375 492.902344 128.054688 488.679688 128.054688 L 292.769531 128.054688 C 288.542969 128.054688 284.496094 126.375 281.507812 123.390625 C 278.523438 120.402344 276.84375 116.355469 276.84375 112.128906 C 276.84375 107.90625 278.523438 103.859375 281.507812 100.871094 C 284.496094 97.886719 288.542969 96.207031 292.769531 96.207031 " clip-rule="nonzero"/></clipPath><clipPath id="757e4d314d"><path d="M 550.882812 32.054688 L 735 32.054688 L 735 192 L 550.882812 192 Z M 550.882812 32.054688 " clip-rule="nonzero"/></clipPath><clipPath id="7eee1be602"><path d="M 577.882812 32.054688 L 709.921875 32.054688 C 724.832031 32.054688 736.921875 44.144531 736.921875 59.054688 L 736.921875 164.394531 C 736.921875 179.308594 724.832031 191.394531 709.921875 191.394531 L 577.882812 191.394531 C 562.972656 191.394531 550.882812 179.308594 550.882812 164.394531 L 550.882812 59.054688 C 550.882812 44.144531 562.972656 32.054688 577.882812 32.054688 " clip-rule="nonzero"/></clipPath><clipPath id="2c2a903f4c"><path d="M 30.921875 383.796875 L 215 383.796875 L 215 544 L 30.921875 544 Z M 30.921875 383.796875 " clip-rule="nonzero"/></clipPath><clipPath id="cccb87d72a"><path d="M 57.921875 383.796875 L 189.957031 383.796875 C 204.871094 383.796875 216.957031 395.886719 216.957031 410.796875 L 216.957031 516.136719 C 216.957031 531.050781 204.871094 543.136719 189.957031 543.136719 L 57.921875 543.136719 C 43.011719 543.136719 30.921875 531.050781 30.921875 516.136719 L 30.921875 410.796875 C 30.921875 395.886719 43.011719 383.796875 57.921875 383.796875 " clip-rule="nonzero"/></clipPath><clipPath id="90ef095eb8"><path d="M 550.882812 384.605469 L 735 384.605469 L 735 544 L 550.882812 544 Z M 550.882812 384.605469 " clip-rule="nonzero"/></clipPath><clipPath id="5ae23c4c80"><path d="M 577.882812 384.605469 L 709.921875 384.605469 C 724.832031 384.605469 736.921875 396.691406 736.921875 411.605469 L 736.921875 516.945312 C 736.921875 531.855469 724.832031 543.945312 709.921875 543.945312 L 577.882812 543.945312 C 562.972656 543.945312 550.882812 531.855469 550.882812 516.945312 L 550.882812 411.605469 C 550.882812 396.691406 562.972656 384.605469 577.882812 384.605469 " clip-rule="nonzero"/></clipPath><clipPath id="7970f565d8"><path d="M 134.550781 486.804688 L 299.367188 486.804688 L 299.367188 527 L 134.550781 527 Z M 134.550781 486.804688 " clip-rule="nonzero"/></clipPath><clipPath id="e744dbae37"><path d="M 134.550781 486.804688 L 299.546875 486.804688 L 299.546875 528.054688 L 134.550781 528.054688 Z M 134.550781 486.804688 " clip-rule="nonzero"/></clipPath><clipPath id="8bbb9ef287"><path d="M 536.941406 256.15625 L 737.488281 256.15625 L 737.488281 289 L 536.941406 289 Z M 536.941406 256.15625 " clip-rule="nonzero"/></clipPath><clipPath id="cc1f08fb54"><path d="M 552.863281 256.15625 L 721.15625 256.15625 C 725.378906 256.15625 729.429688 257.832031 732.414062 260.820312 C 735.402344 263.804688 737.078125 267.855469 737.078125 272.078125 C 737.078125 276.300781 735.402344 280.351562 732.414062 283.339844 C 729.429688 286.324219 725.378906 288.003906 721.15625 288.003906 L 552.863281 288.003906 C 548.640625 288.003906 544.589844 286.324219 541.605469 283.339844 C 538.617188 280.351562 536.941406 276.300781 536.941406 272.078125 C 536.941406 267.855469 538.617188 263.804688 541.605469 260.820312 C 544.589844 257.832031 548.640625 256.15625 552.863281 256.15625 " clip-rule="nonzero"/></clipPath><clipPath id="e076098303"><path d="M 276.84375 139.035156 L 504 139.035156 L 504 171 L 276.84375 171 Z M 276.84375 139.035156 " clip-rule="nonzero"/></clipPath><clipPath id="974be5f1ec"><path d="M 292.769531 139.035156 L 488.679688 139.035156 C 492.902344 139.035156 496.953125 140.710938 499.9375 143.699219 C 502.925781 146.683594 504.601562 150.734375 504.601562 154.957031 C 504.601562 159.179688 502.925781 163.230469 499.9375 166.214844 C 496.953125 169.203125 492.902344 170.878906 488.679688 170.878906 L 292.769531 170.878906 C 288.542969 170.878906 284.496094 169.203125 281.507812 166.214844 C 278.523438 163.230469 276.84375 159.179688 276.84375 154.957031 C 276.84375 150.734375 278.523438 146.683594 281.507812 143.699219 C 284.496094 140.710938 288.542969 139.035156 292.769531 139.035156 " clip-rule="nonzero"/></clipPath><clipPath id="36a8549542"><path d="M 536.941406 311.484375 L 737.488281 311.484375 L 737.488281 344 L 536.941406 344 Z M 536.941406 311.484375 " clip-rule="nonzero"/></clipPath><clipPath id="9157947215"><path d="M 552.863281 311.484375 L 721.15625 311.484375 C 725.378906 311.484375 729.429688 313.164062 732.414062 316.148438 C 735.402344 319.136719 737.078125 323.183594 737.078125 327.410156 C 737.078125 331.632812 735.402344 335.679688 732.414062 338.667969 C 729.429688 341.652344 725.378906 343.332031 721.15625 343.332031 L 552.863281 343.332031 C 548.640625 343.332031 544.589844 341.652344 541.605469 338.667969 C 538.617188 335.679688 536.941406 331.632812 536.941406 327.410156 C 536.941406 323.183594 538.617188 319.136719 541.605469 316.148438 C 544.589844 313.164062 548.640625 311.484375 552.863281 311.484375 " clip-rule="nonzero"/></clipPath></defs><g clip-path="url(#1b7b7647d7)"><g clip-path="url(#64ab63056c)"><path fill="#ff914d" d="M 30.921875 32.054688 L 214.277344 32.054688 L 214.277344 192.492188 L 30.921875 192.492188 Z M 30.921875 32.054688 " fill-opacity="1" fill-rule="nonzero"/></g></g><g fill="#000000" fill-opacity="1"><g transform="translate(91.612906, 117.556246)"><g><path d="M 7.015625 0.1875 C 5.835938 0.1875 4.796875 -0.0546875 3.890625 -0.546875 C 2.992188 -1.046875 2.289062 -1.785156 1.78125 -2.765625 C 1.269531 -3.753906 1.015625 -4.972656 1.015625 -6.421875 C 1.015625 -7.867188 1.269531 -9.085938 1.78125 -10.078125 C 2.289062 -11.066406 2.992188 -11.804688 3.890625 -12.296875 C 4.796875 -12.785156 5.835938 -13.03125 7.015625 -13.03125 C 8.253906 -13.03125 9.304688 -12.785156 10.171875 -12.296875 C 11.035156 -11.816406 11.65625 -11.082031 12.03125 -10.09375 L 10.171875 -8.96875 L 9.953125 -8.96875 C 9.671875 -9.632812 9.296875 -10.113281 8.828125 -10.40625 C 8.359375 -10.695312 7.753906 -10.84375 7.015625 -10.84375 C 5.953125 -10.84375 5.117188 -10.488281 4.515625 -9.78125 C 3.921875 -9.082031 3.625 -7.960938 3.625 -6.421875 C 3.625 -4.890625 3.921875 -3.769531 4.515625 -3.0625 C 5.117188 -2.363281 5.953125 -2.015625 7.015625 -2.015625 C 8.691406 -2.015625 9.71875 -2.828125 10.09375 -4.453125 L 10.3125 -4.453125 L 12.1875 -3.46875 C 11.832031 -2.25 11.226562 -1.332031 10.375 -0.71875 C 9.53125 -0.113281 8.410156 0.1875 7.015625 0.1875 Z M 7.015625 0.1875 "/></g></g></g><g fill="#000000" fill-opacity="1"><g transform="translate(104.208216, 117.556246)"><g><path d="M 4.203125 -12.84375 L 4.203125 -2.125 L 9.984375 -2.125 L 9.984375 0 L 1.671875 0 L 1.671875 -12.84375 Z M 4.203125 -12.84375 "/></g></g></g><g fill="#000000" fill-opacity="1"><g transform="translate(114.607691, 117.556246)"><g><path d="M 4.203125 0 L 1.671875 0 L 1.671875 -12.84375 L 4.203125 -12.84375 Z M 4.203125 0 "/></g></g></g><g fill="#000000" fill-opacity="1"><g transform="translate(120.492529, 117.556246)"><g><path d="M 4.203125 -5.640625 L 4.203125 -2.125 L 10.34375 -2.125 L 10.34375 0 L 1.671875 0 L 1.671875 -12.84375 L 10.203125 -12.84375 L 10.203125 -10.71875 L 4.203125 -10.71875 L 4.203125 -7.71875 L 9.453125 -7.71875 L 9.453125 -5.640625 Z M 4.203125 -5.640625 "/></g></g></g><g fill="#000000" fill-opacity="1"><g transform="translate(131.533193, 117.556246)"><g><path d="M 4.125 0 L 1.671875 0 L 1.671875 -12.84375 L 4.578125 -12.84375 L 9.734375 -4.578125 L 9.96875 -4.609375 L 9.96875 -12.84375 L 12.40625 -12.84375 L 12.40625 0 L 9.8125 0 L 4.34375 -8.84375 L 4.125 -8.8125 Z M 4.125 0 "/></g></g></g><g fill="#000000" fill-opacity="1"><g transform="translate(145.612893, 117.556246)"><g><path d="M 10.296875 -12.84375 L 10.296875 -10.71875 L 6.59375 -10.71875 L 6.59375 0 L 4.0625 0 L 4.0625 -10.71875 L 0.359375 -10.71875 L 0.359375 -12.84375 Z M 10.296875 -12.84375 "/></g></g></g><path stroke-linecap="butt" transform="matrix(0.749605, 0.000812361, -0.000812789, 0.75, 216.95731, 110.614352)" fill="none" stroke-linejoin="miter" d="M 0.000710665 0.998572 L 444.234862 1.001776 " stroke="#545454" stroke-width="2" stroke-opacity="1" stroke-miterlimit="4"/><path stroke-linecap="round" transform="matrix(1.499209, 0.00162472, -0.00162558, 1.499999, 550.707865, 111.726051)" fill="none" stroke-linejoin="round" d="M -2.500895 -1.499556 L -0.500819 0.000883232 L -2.500248 1.500446 " stroke="#545454" stroke-width="1" stroke-opacity="1" stroke-miterlimit="4"/><g clip-path="url(#dd19937831)"><g clip-path="url(#f8afd5059d)"><path fill="#ffde59" d="M 276.84375 53.382812 L 506.042969 53.382812 L 506.042969 87.761719 L 276.84375 87.761719 Z M 276.84375 53.382812 " fill-opacity="1" fill-rule="nonzero"/></g></g><g fill="#000000" fill-opacity="1"><g transform="translate(311.848756, 73.631326)"><g><path d="M 0.484375 0 L 0.484375 -1.515625 L 2.734375 -1.515625 L 2.734375 -7.296875 L 2.578125 -7.328125 C 2.265625 -7.179688 1.953125 -7.0625 1.640625 -6.96875 C 1.335938 -6.882812 0.988281 -6.816406 0.59375 -6.765625 L 0.59375 -8.328125 C 1.625 -8.546875 2.457031 -8.863281 3.09375 -9.28125 L 4.546875 -9.28125 L 4.546875 -1.515625 L 6.546875 -1.515625 L 6.546875 0 Z M 0.484375 0 "/></g></g></g><g fill="#000000" fill-opacity="1"><g transform="translate(318.695824, 73.631326)"><g/></g></g><g fill="#000000" fill-opacity="1"><g transform="translate(321.760826, 73.631326)"><g><path d="M 1.796875 0.0625 C 1.566406 0.0625 1.363281 0.015625 1.1875 -0.078125 C 1.019531 -0.171875 0.890625 -0.296875 0.796875 -0.453125 C 0.710938 -0.617188 0.671875 -0.800781 0.671875 -1 C 0.671875 -1.207031 0.710938 -1.390625 0.796875 -1.546875 C 0.890625 -1.710938 1.019531 -1.835938 1.1875 -1.921875 C 1.363281 -2.015625 1.566406 -2.0625 1.796875 -2.0625 C 2.023438 -2.0625 2.222656 -2.015625 2.390625 -1.921875 C 2.554688 -1.835938 2.6875 -1.710938 2.78125 -1.546875 C 2.875 -1.390625 2.921875 -1.210938 2.921875 -1.015625 C 2.921875 -0.703125 2.816406 -0.441406 2.609375 -0.234375 C 2.398438 -0.0351562 2.128906 0.0625 1.796875 0.0625 Z M 1.796875 -4.9375 C 1.566406 -4.9375 1.363281 -4.984375 1.1875 -5.078125 C 1.019531 -5.171875 0.890625 -5.296875 0.796875 -5.453125 C 0.710938 -5.617188 0.671875 -5.800781 0.671875 -6 C 0.671875 -6.207031 0.710938 -6.390625 0.796875 -6.546875 C 0.890625 -6.710938 1.019531 -6.835938 1.1875 -6.921875 C 1.363281 -7.015625 1.566406 -7.0625 1.796875 -7.0625 C 2.023438 -7.0625 2.222656 -7.015625 2.390625 -6.921875 C 2.554688 -6.835938 2.6875 -6.710938 2.78125 -6.546875 C 2.875 -6.390625 2.921875 -6.210938 2.921875 -6.015625 C 2.921875 -5.703125 2.816406 -5.441406 2.609375 -5.234375 C 2.398438 -5.035156 2.128906 -4.9375 1.796875 -4.9375 Z M 1.796875 -4.9375 "/></g></g></g><g fill="#000000" fill-opacity="1"><g transform="translate(325.34618, 73.631326)"><g/></g></g><g fill="#000000" fill-opacity="1"><g transform="translate(328.411182, 73.631326)"><g><path d="M 1.203125 0 L 1.203125 -9.28125 L 5.171875 -9.28125 C 5.742188 -9.28125 6.226562 -9.1875 6.625 -9 C 7.019531 -8.820312 7.316406 -8.566406 7.515625 -8.234375 C 7.722656 -7.910156 7.828125 -7.519531 7.828125 -7.0625 C 7.828125 -6.65625 7.722656 -6.296875 7.515625 -5.984375 C 7.316406 -5.671875 7.035156 -5.414062 6.671875 -5.21875 L 6.671875 -5.09375 C 7.253906 -4.9375 7.703125 -4.65625 8.015625 -4.25 C 8.335938 -3.851562 8.5 -3.363281 8.5 -2.78125 C 8.5 -1.894531 8.226562 -1.207031 7.6875 -0.71875 C 7.15625 -0.238281 6.363281 0 5.3125 0 Z M 4.78125 -5.578125 C 5.632812 -5.578125 6.0625 -5.960938 6.0625 -6.734375 C 6.0625 -7.128906 5.957031 -7.421875 5.75 -7.609375 C 5.539062 -7.804688 5.21875 -7.90625 4.78125 -7.90625 L 3.046875 -7.90625 L 3.046875 -5.578125 Z M 5.125 -1.453125 C 6.132812 -1.453125 6.640625 -1.910156 6.640625 -2.828125 C 6.640625 -3.753906 6.132812 -4.21875 5.125 -4.21875 L 3.046875 -4.21875 L 3.046875 -1.453125 Z M 5.125 -1.453125 "/></g></g></g><g fill="#000000" fill-opacity="1"><g transform="translate(337.485603, 73.631326)"><g><path d="M 3.046875 -4.078125 L 3.046875 -1.53125 L 7.46875 -1.53125 L 7.46875 0 L 1.203125 0 L 1.203125 -9.28125 L 7.375 -9.28125 L 7.375 -7.75 L 3.046875 -7.75 L 3.046875 -5.578125 L 6.828125 -5.578125 L 6.828125 -4.078125 Z M 3.046875 -4.078125 "/></g></g></g><g fill="#000000" fill-opacity="1"><g transform="translate(345.462215, 73.631326)"><g><path d="M 4.5 0.140625 C 3.726562 0.140625 3.0625 -0.0351562 2.5 -0.390625 C 1.9375 -0.742188 1.5 -1.273438 1.1875 -1.984375 C 0.882812 -2.703125 0.734375 -3.585938 0.734375 -4.640625 C 0.734375 -5.703125 0.914062 -6.585938 1.28125 -7.296875 C 1.644531 -8.003906 2.15625 -8.53125 2.8125 -8.875 C 3.46875 -9.226562 4.226562 -9.40625 5.09375 -9.40625 C 5.976562 -9.40625 6.734375 -9.238281 7.359375 -8.90625 C 7.984375 -8.582031 8.425781 -8.097656 8.6875 -7.453125 L 7.34375 -6.640625 L 7.1875 -6.640625 C 7 -7.054688 6.726562 -7.359375 6.375 -7.546875 C 6.03125 -7.734375 5.601562 -7.828125 5.09375 -7.828125 C 4.289062 -7.828125 3.675781 -7.570312 3.25 -7.0625 C 2.832031 -6.5625 2.625 -5.753906 2.625 -4.640625 C 2.625 -3.515625 2.820312 -2.695312 3.21875 -2.1875 C 3.613281 -1.6875 4.195312 -1.4375 4.96875 -1.4375 C 5.632812 -1.4375 6.125 -1.585938 6.4375 -1.890625 C 6.757812 -2.191406 6.921875 -2.640625 6.921875 -3.234375 L 6.921875 -3.625 L 4.734375 -3.625 L 4.734375 -5.125 L 8.75 -5.125 L 8.75 0 L 7 0 L 7 -1.25 L 6.859375 -1.265625 C 6.671875 -0.816406 6.382812 -0.46875 6 -0.21875 C 5.613281 0.0195312 5.113281 0.140625 4.5 0.140625 Z M 4.5 0.140625 "/></g></g></g><g fill="#000000" fill-opacity="1"><g transform="translate(355.139487, 73.631326)"><g><path d="M 3.046875 0 L 1.203125 0 L 1.203125 -9.28125 L 3.046875 -9.28125 Z M 3.046875 0 "/></g></g></g><g fill="#000000" fill-opacity="1"><g transform="translate(359.391139, 73.631326)"><g><path d="M 2.984375 0 L 1.203125 0 L 1.203125 -9.28125 L 3.3125 -9.28125 L 7.03125 -3.296875 L 7.203125 -3.328125 L 7.203125 -9.28125 L 8.96875 -9.28125 L 8.96875 0 L 7.078125 0 L 3.140625 -6.390625 L 2.984375 -6.359375 Z M 2.984375 0 "/></g></g></g><g fill="#000000" fill-opacity="1"><g transform="translate(369.551878, 73.631326)"><g/></g></g><g fill="#000000" fill-opacity="1"><g transform="translate(372.616881, 73.631326)"><g/></g></g><g fill="#000000" fill-opacity="1"><g transform="translate(375.680784, 73.631326)"><g><path d="M 7.4375 -9.28125 L 7.4375 -7.734375 L 4.765625 -7.734375 L 4.765625 0 L 2.9375 0 L 2.9375 -7.734375 L 0.25 -7.734375 L 0.25 -9.28125 Z M 7.4375 -9.28125 "/></g></g></g><g fill="#000000" fill-opacity="1"><g transform="translate(383.371832, 73.631326)"><g><path d="M 1.203125 0 L 1.203125 -9.28125 L 4.9375 -9.28125 C 5.894531 -9.28125 6.617188 -9.054688 7.109375 -8.609375 C 7.597656 -8.171875 7.84375 -7.5625 7.84375 -6.78125 C 7.84375 -6.21875 7.695312 -5.753906 7.40625 -5.390625 C 7.125 -5.035156 6.695312 -4.765625 6.125 -4.578125 L 6.125 -4.4375 C 6.414062 -4.3125 6.648438 -4.125 6.828125 -3.875 C 7.015625 -3.625 7.1875 -3.253906 7.34375 -2.765625 L 8.28125 0 L 6.390625 0 L 5.484375 -2.78125 C 5.390625 -3.050781 5.285156 -3.265625 5.171875 -3.421875 C 5.054688 -3.578125 4.90625 -3.6875 4.71875 -3.75 C 4.539062 -3.820312 4.3125 -3.859375 4.03125 -3.859375 L 3.046875 -3.859375 L 3.046875 0 Z M 4.703125 -5.3125 C 5.597656 -5.3125 6.046875 -5.726562 6.046875 -6.5625 C 6.046875 -7.40625 5.597656 -7.828125 4.703125 -7.828125 L 3.046875 -7.828125 L 3.046875 -5.3125 Z M 4.703125 -5.3125 "/></g></g></g><g fill="#000000" fill-opacity="1"><g transform="translate(392.046476, 73.631326)"><g><path d="M 8.90625 0 L 6.96875 0 L 6.28125 -2.140625 L 2.71875 -2.140625 L 2.03125 0 L 0.140625 0 L 3.34375 -9.28125 L 5.703125 -9.28125 Z M 4.40625 -7.34375 L 3.21875 -3.6875 L 5.765625 -3.6875 L 4.578125 -7.34375 Z M 4.40625 -7.34375 "/></g></g></g><g fill="#000000" fill-opacity="1"><g transform="translate(401.089173, 73.631326)"><g><path d="M 2.984375 0 L 1.203125 0 L 1.203125 -9.28125 L 3.3125 -9.28125 L 7.03125 -3.296875 L 7.203125 -3.328125 L 7.203125 -9.28125 L 8.96875 -9.28125 L 8.96875 0 L 7.078125 0 L 3.140625 -6.390625 L 2.984375 -6.359375 Z M 2.984375 0 "/></g></g></g><g fill="#000000" fill-opacity="1"><g transform="translate(411.261414, 73.631326)"><g><path d="M 4.109375 0.140625 C 3.472656 0.140625 2.898438 0.0625 2.390625 -0.09375 C 1.890625 -0.257812 1.472656 -0.472656 1.140625 -0.734375 C 0.804688 -0.992188 0.550781 -1.273438 0.375 -1.578125 L 1.390625 -2.8125 L 1.546875 -2.8125 C 1.828125 -2.394531 2.179688 -2.0625 2.609375 -1.8125 C 3.035156 -1.570312 3.535156 -1.453125 4.109375 -1.453125 C 4.597656 -1.453125 4.96875 -1.554688 5.21875 -1.765625 C 5.46875 -1.972656 5.59375 -2.257812 5.59375 -2.625 C 5.59375 -2.84375 5.550781 -3.023438 5.46875 -3.171875 C 5.394531 -3.316406 5.265625 -3.441406 5.078125 -3.546875 C 4.890625 -3.660156 4.640625 -3.753906 4.328125 -3.828125 L 3.125 -4.09375 C 2.289062 -4.289062 1.671875 -4.609375 1.265625 -5.046875 C 0.859375 -5.492188 0.65625 -6.066406 0.65625 -6.765625 C 0.65625 -7.296875 0.785156 -7.757812 1.046875 -8.15625 C 1.304688 -8.550781 1.6875 -8.859375 2.1875 -9.078125 C 2.695312 -9.296875 3.300781 -9.40625 4 -9.40625 C 4.707031 -9.40625 5.316406 -9.3125 5.828125 -9.125 C 6.335938 -8.9375 6.769531 -8.648438 7.125 -8.265625 L 6.21875 -7.015625 L 6.0625 -7.015625 C 5.789062 -7.296875 5.484375 -7.503906 5.140625 -7.640625 C 4.804688 -7.773438 4.425781 -7.84375 4 -7.84375 C 3.488281 -7.84375 3.101562 -7.753906 2.84375 -7.578125 C 2.582031 -7.398438 2.453125 -7.15625 2.453125 -6.84375 C 2.453125 -6.550781 2.539062 -6.316406 2.71875 -6.140625 C 2.90625 -5.972656 3.226562 -5.835938 3.6875 -5.734375 L 4.90625 -5.484375 C 5.800781 -5.296875 6.453125 -4.972656 6.859375 -4.515625 C 7.265625 -4.054688 7.46875 -3.460938 7.46875 -2.734375 C 7.46875 -2.148438 7.34375 -1.644531 7.09375 -1.21875 C 6.84375 -0.789062 6.46875 -0.457031 5.96875 -0.21875 C 5.46875 0.0195312 4.847656 0.140625 4.109375 0.140625 Z M 4.109375 0.140625 "/></g></g></g><g fill="#000000" fill-opacity="1"><g transform="translate(419.231674, 73.631326)"><g><path d="M 8.90625 0 L 6.96875 0 L 6.28125 -2.140625 L 2.71875 -2.140625 L 2.03125 0 L 0.140625 0 L 3.34375 -9.28125 L 5.703125 -9.28125 Z M 4.40625 -7.34375 L 3.21875 -3.6875 L 5.765625 -3.6875 L 4.578125 -7.34375 Z M 4.40625 -7.34375 "/></g></g></g><g fill="#000000" fill-opacity="1"><g transform="translate(428.274372, 73.631326)"><g><path d="M 5.078125 0.140625 C 4.222656 0.140625 3.46875 -0.0351562 2.8125 -0.390625 C 2.15625 -0.753906 1.644531 -1.289062 1.28125 -2 C 0.914062 -2.71875 0.734375 -3.597656 0.734375 -4.640625 C 0.734375 -5.679688 0.914062 -6.554688 1.28125 -7.265625 C 1.644531 -7.984375 2.15625 -8.519531 2.8125 -8.875 C 3.46875 -9.226562 4.222656 -9.40625 5.078125 -9.40625 C 5.960938 -9.40625 6.71875 -9.226562 7.34375 -8.875 C 7.96875 -8.53125 8.414062 -8.003906 8.6875 -7.296875 L 7.34375 -6.46875 L 7.1875 -6.484375 C 6.988281 -6.960938 6.71875 -7.304688 6.375 -7.515625 C 6.03125 -7.722656 5.597656 -7.828125 5.078125 -7.828125 C 4.304688 -7.828125 3.703125 -7.570312 3.265625 -7.0625 C 2.835938 -6.550781 2.625 -5.742188 2.625 -4.640625 C 2.625 -3.535156 2.835938 -2.726562 3.265625 -2.21875 C 3.703125 -1.707031 4.304688 -1.453125 5.078125 -1.453125 C 6.273438 -1.453125 7.007812 -2.039062 7.28125 -3.21875 L 7.453125 -3.21875 L 8.796875 -2.5 C 8.546875 -1.625 8.113281 -0.960938 7.5 -0.515625 C 6.882812 -0.078125 6.078125 0.140625 5.078125 0.140625 Z M 5.078125 0.140625 "/></g></g></g><g fill="#000000" fill-opacity="1"><g transform="translate(437.374175, 73.631326)"><g><path d="M 7.4375 -9.28125 L 7.4375 -7.734375 L 4.765625 -7.734375 L 4.765625 0 L 2.9375 0 L 2.9375 -7.734375 L 0.25 -7.734375 L 0.25 -9.28125 Z M 7.4375 -9.28125 "/></g></g></g><g fill="#000000" fill-opacity="1"><g transform="translate(445.065223, 73.631326)"><g><path d="M 3.046875 0 L 1.203125 0 L 1.203125 -9.28125 L 3.046875 -9.28125 Z M 3.046875 0 "/></g></g></g><g fill="#000000" fill-opacity="1"><g transform="translate(449.316874, 73.631326)"><g><path d="M 5.0625 0.140625 C 4.207031 0.140625 3.453125 -0.03125 2.796875 -0.375 C 2.148438 -0.726562 1.644531 -1.257812 1.28125 -1.96875 C 0.914062 -2.6875 0.734375 -3.578125 0.734375 -4.640625 C 0.734375 -5.703125 0.914062 -6.585938 1.28125 -7.296875 C 1.644531 -8.015625 2.148438 -8.546875 2.796875 -8.890625 C 3.453125 -9.234375 4.207031 -9.40625 5.0625 -9.40625 C 5.90625 -9.40625 6.648438 -9.234375 7.296875 -8.890625 C 7.953125 -8.546875 8.460938 -8.015625 8.828125 -7.296875 C 9.191406 -6.585938 9.375 -5.703125 9.375 -4.640625 C 9.375 -3.578125 9.191406 -2.6875 8.828125 -1.96875 C 8.460938 -1.257812 7.953125 -0.726562 7.296875 -0.375 C 6.648438 -0.03125 5.90625 0.140625 5.0625 0.140625 Z M 5.0625 -1.453125 C 5.84375 -1.453125 6.441406 -1.707031 6.859375 -2.21875 C 7.273438 -2.726562 7.484375 -3.535156 7.484375 -4.640625 C 7.484375 -5.742188 7.273438 -6.550781 6.859375 -7.0625 C 6.441406 -7.570312 5.84375 -7.828125 5.0625 -7.828125 C 4.269531 -7.828125 3.664062 -7.570312 3.25 -7.0625 C 2.832031 -6.550781 2.625 -5.742188 2.625 -4.640625 C 2.625 -3.535156 2.832031 -2.726562 3.25 -2.21875 C 3.664062 -1.707031 4.269531 -1.453125 5.0625 -1.453125 Z M 5.0625 -1.453125 "/></g></g></g><g fill="#000000" fill-opacity="1"><g transform="translate(459.425658, 73.631326)"><g><path d="M 2.984375 0 L 1.203125 0 L 1.203125 -9.28125 L 3.3125 -9.28125 L 7.03125 -3.296875 L 7.203125 -3.328125 L 7.203125 -9.28125 L 8.96875 -9.28125 L 8.96875 0 L 7.078125 0 L 3.140625 -6.390625 L 2.984375 -6.359375 Z M 2.984375 0 "/></g></g></g><g clip-path="url(#c476e5791f)"><g clip-path="url(#ae3823e85e)"><path fill="#ffde59" d="M 276.84375 96.207031 L 503.867188 96.207031 L 503.867188 130.261719 L 276.84375 130.261719 Z M 276.84375 96.207031 " fill-opacity="1" fill-rule="nonzero"/></g></g><g fill="#000000" fill-opacity="1"><g transform="translate(319.946412, 116.457613)"><g><path d="M 3.78125 0.140625 C 2.789062 0.140625 2.003906 -0.0664062 1.421875 -0.484375 C 0.835938 -0.910156 0.46875 -1.507812 0.3125 -2.28125 L 1.6875 -2.9375 L 1.84375 -2.90625 C 2 -2.394531 2.222656 -2.019531 2.515625 -1.78125 C 2.804688 -1.550781 3.207031 -1.4375 3.71875 -1.4375 C 4.21875 -1.4375 4.597656 -1.550781 4.859375 -1.78125 C 5.117188 -2.019531 5.25 -2.359375 5.25 -2.796875 C 5.25 -3.234375 5.117188 -3.566406 4.859375 -3.796875 C 4.597656 -4.035156 4.21875 -4.15625 3.71875 -4.15625 L 2.328125 -4.15625 L 2.328125 -5.578125 L 3.546875 -5.578125 C 3.960938 -5.578125 4.289062 -5.679688 4.53125 -5.890625 C 4.78125 -6.097656 4.90625 -6.394531 4.90625 -6.78125 C 4.90625 -7.15625 4.785156 -7.4375 4.546875 -7.625 C 4.316406 -7.820312 4 -7.921875 3.59375 -7.921875 C 3.1875 -7.921875 2.820312 -7.820312 2.5 -7.625 C 2.175781 -7.4375 1.921875 -7.175781 1.734375 -6.84375 L 1.578125 -6.828125 L 0.609375 -7.953125 C 0.941406 -8.390625 1.363281 -8.738281 1.875 -9 C 2.382812 -9.269531 2.992188 -9.40625 3.703125 -9.40625 C 4.671875 -9.40625 5.410156 -9.203125 5.921875 -8.796875 C 6.441406 -8.390625 6.703125 -7.820312 6.703125 -7.09375 C 6.703125 -6.644531 6.597656 -6.265625 6.390625 -5.953125 C 6.179688 -5.640625 5.878906 -5.367188 5.484375 -5.140625 L 5.484375 -5 C 6.554688 -4.625 7.09375 -3.863281 7.09375 -2.71875 C 7.09375 -2.144531 6.96875 -1.644531 6.71875 -1.21875 C 6.476562 -0.789062 6.109375 -0.457031 5.609375 -0.21875 C 5.117188 0.0195312 4.507812 0.140625 3.78125 0.140625 Z M 3.78125 0.140625 "/></g></g></g><g fill="#000000" fill-opacity="1"><g transform="translate(327.624767, 116.457613)"><g/></g></g><g fill="#000000" fill-opacity="1"><g transform="translate(330.68977, 116.457613)"><g><path d="M 1.796875 0.0625 C 1.566406 0.0625 1.363281 0.015625 1.1875 -0.078125 C 1.019531 -0.171875 0.890625 -0.296875 0.796875 -0.453125 C 0.710938 -0.617188 0.671875 -0.800781 0.671875 -1 C 0.671875 -1.207031 0.710938 -1.390625 0.796875 -1.546875 C 0.890625 -1.710938 1.019531 -1.835938 1.1875 -1.921875 C 1.363281 -2.015625 1.566406 -2.0625 1.796875 -2.0625 C 2.023438 -2.0625 2.222656 -2.015625 2.390625 -1.921875 C 2.554688 -1.835938 2.6875 -1.710938 2.78125 -1.546875 C 2.875 -1.390625 2.921875 -1.210938 2.921875 -1.015625 C 2.921875 -0.703125 2.816406 -0.441406 2.609375 -0.234375 C 2.398438 -0.0351562 2.128906 0.0625 1.796875 0.0625 Z M 1.796875 -4.9375 C 1.566406 -4.9375 1.363281 -4.984375 1.1875 -5.078125 C 1.019531 -5.171875 0.890625 -5.296875 0.796875 -5.453125 C 0.710938 -5.617188 0.671875 -5.800781 0.671875 -6 C 0.671875 -6.207031 0.710938 -6.390625 0.796875 -6.546875 C 0.890625 -6.710938 1.019531 -6.835938 1.1875 -6.921875 C 1.363281 -7.015625 1.566406 -7.0625 1.796875 -7.0625 C 2.023438 -7.0625 2.222656 -7.015625 2.390625 -6.921875 C 2.554688 -6.835938 2.6875 -6.710938 2.78125 -6.546875 C 2.875 -6.390625 2.921875 -6.210938 2.921875 -6.015625 C 2.921875 -5.703125 2.816406 -5.441406 2.609375 -5.234375 C 2.398438 -5.035156 2.128906 -4.9375 1.796875 -4.9375 Z M 1.796875 -4.9375 "/></g></g></g><g fill="#000000" fill-opacity="1"><g transform="translate(334.275123, 116.457613)"><g/></g></g><g fill="#000000" fill-opacity="1"><g transform="translate(337.340126, 116.457613)"><g><path d="M 4.921875 0.140625 C 3.640625 0.140625 2.691406 -0.160156 2.078125 -0.765625 C 1.460938 -1.378906 1.15625 -2.285156 1.15625 -3.484375 L 1.15625 -9.28125 L 2.953125 -9.28125 L 2.953125 -3.484375 C 2.953125 -2.804688 3.113281 -2.296875 3.4375 -1.953125 C 3.757812 -1.617188 4.253906 -1.453125 4.921875 -1.453125 C 6.234375 -1.453125 6.890625 -2.128906 6.890625 -3.484375 L 6.890625 -9.28125 L 8.6875 -9.28125 L 8.6875 -3.484375 C 8.6875 -2.285156 8.378906 -1.378906 7.765625 -0.765625 C 7.148438 -0.160156 6.203125 0.140625 4.921875 0.140625 Z M 4.921875 0.140625 "/></g></g></g><g fill="#000000" fill-opacity="1"><g transform="translate(347.176036, 116.457613)"><g><path d="M 4.796875 -9.28125 C 5.460938 -9.28125 6.03125 -9.15625 6.5 -8.90625 C 6.96875 -8.664062 7.320312 -8.328125 7.5625 -7.890625 C 7.800781 -7.453125 7.921875 -6.941406 7.921875 -6.359375 C 7.921875 -5.785156 7.800781 -5.28125 7.5625 -4.84375 C 7.320312 -4.40625 6.96875 -4.0625 6.5 -3.8125 C 6.03125 -3.570312 5.460938 -3.453125 4.796875 -3.453125 L 3.046875 -3.453125 L 3.046875 0 L 1.203125 0 L 1.203125 -9.28125 Z M 4.546875 -4.90625 C 5.566406 -4.90625 6.078125 -5.390625 6.078125 -6.359375 C 6.078125 -7.335938 5.566406 -7.828125 4.546875 -7.828125 L 3.046875 -7.828125 L 3.046875 -4.90625 Z M 4.546875 -4.90625 "/></g></g></g><g fill="#000000" fill-opacity="1"><g transform="translate(355.653956, 116.457613)"><g><path d="M 4.546875 -9.28125 C 6.054688 -9.28125 7.207031 -8.890625 8 -8.109375 C 8.789062 -7.328125 9.1875 -6.171875 9.1875 -4.640625 C 9.1875 -3.109375 8.789062 -1.953125 8 -1.171875 C 7.207031 -0.390625 6.054688 0 4.546875 0 L 1.203125 0 L 1.203125 -9.28125 Z M 4.4375 -1.546875 C 5.394531 -1.546875 6.109375 -1.789062 6.578125 -2.28125 C 7.054688 -2.769531 7.296875 -3.554688 7.296875 -4.640625 C 7.296875 -5.722656 7.054688 -6.507812 6.578125 -7 C 6.109375 -7.488281 5.394531 -7.734375 4.4375 -7.734375 L 3.046875 -7.734375 L 3.046875 -1.546875 Z M 4.4375 -1.546875 "/></g></g></g><g fill="#000000" fill-opacity="1"><g transform="translate(365.572367, 116.457613)"><g><path d="M 8.90625 0 L 6.96875 0 L 6.28125 -2.140625 L 2.71875 -2.140625 L 2.03125 0 L 0.140625 0 L 3.34375 -9.28125 L 5.703125 -9.28125 Z M 4.40625 -7.34375 L 3.21875 -3.6875 L 5.765625 -3.6875 L 4.578125 -7.34375 Z M 4.40625 -7.34375 "/></g></g></g><g fill="#000000" fill-opacity="1"><g transform="translate(374.615065, 116.457613)"><g><path d="M 7.4375 -9.28125 L 7.4375 -7.734375 L 4.765625 -7.734375 L 4.765625 0 L 2.9375 0 L 2.9375 -7.734375 L 0.25 -7.734375 L 0.25 -9.28125 Z M 7.4375 -9.28125 "/></g></g></g><g fill="#000000" fill-opacity="1"><g transform="translate(382.306112, 116.457613)"><g><path d="M 3.046875 -4.078125 L 3.046875 -1.53125 L 7.46875 -1.53125 L 7.46875 0 L 1.203125 0 L 1.203125 -9.28125 L 7.375 -9.28125 L 7.375 -7.75 L 3.046875 -7.75 L 3.046875 -5.578125 L 6.828125 -5.578125 L 6.828125 -4.078125 Z M 3.046875 -4.078125 "/></g></g></g><g fill="#000000" fill-opacity="1"><g transform="translate(390.282724, 116.457613)"><g/></g></g><g fill="#000000" fill-opacity="1"><g transform="translate(393.347726, 116.457613)"><g><path d="M 2.84375 1.328125 C 2.257812 0.617188 1.789062 -0.171875 1.4375 -1.046875 C 1.09375 -1.929688 0.921875 -2.992188 0.921875 -4.234375 C 0.921875 -5.492188 1.09375 -6.5625 1.4375 -7.4375 C 1.789062 -8.3125 2.257812 -9.101562 2.84375 -9.8125 L 4.1875 -9.8125 L 4.21875 -9.6875 C 3.757812 -8.894531 3.40625 -8.078125 3.15625 -7.234375 C 2.90625 -6.398438 2.78125 -5.398438 2.78125 -4.234375 C 2.78125 -3.078125 2.90625 -2.078125 3.15625 -1.234375 C 3.40625 -0.398438 3.757812 0.40625 4.21875 1.1875 L 4.1875 1.328125 Z M 2.84375 1.328125 "/></g></g></g><g fill="#000000" fill-opacity="1"><g transform="translate(397.961091, 116.457613)"><g><path d="M 1.203125 0 L 1.203125 -9.28125 L 3.046875 -9.28125 L 3.046875 -5.484375 L 3.25 -5.484375 L 6.34375 -9.28125 L 8.21875 -9.28125 L 8.21875 -9.125 L 4.8125 -4.90625 L 8.578125 -0.15625 L 8.578125 0 L 6.5 0 L 3.25 -4 L 3.046875 -4 L 3.046875 0 Z M 1.203125 0 "/></g></g></g><g fill="#000000" fill-opacity="1"><g transform="translate(406.534203, 116.457613)"><g><path d="M 6.4375 -5.234375 L 0.703125 -5.234375 L 0.703125 -6.703125 L 6.4375 -6.703125 Z M 6.4375 -2.578125 L 0.703125 -2.578125 L 0.703125 -4.046875 L 6.4375 -4.046875 Z M 6.4375 -2.578125 "/></g></g></g><g fill="#000000" fill-opacity="1"><g transform="translate(413.698559, 116.457613)"><g><path d="M 0.484375 0 L 0.484375 -1.515625 L 2.734375 -1.515625 L 2.734375 -7.296875 L 2.578125 -7.328125 C 2.265625 -7.179688 1.953125 -7.0625 1.640625 -6.96875 C 1.335938 -6.882812 0.988281 -6.816406 0.59375 -6.765625 L 0.59375 -8.328125 C 1.625 -8.546875 2.457031 -8.863281 3.09375 -9.28125 L 4.546875 -9.28125 L 4.546875 -1.515625 L 6.546875 -1.515625 L 6.546875 0 Z M 0.484375 0 "/></g></g></g><g fill="#000000" fill-opacity="1"><g transform="translate(420.545628, 116.457613)"><g><path d="M 0.25 1.859375 C 0.625 1.640625 0.957031 1.363281 1.25 1.03125 C 1.539062 0.707031 1.703125 0.378906 1.734375 0.046875 C 1.398438 0.046875 1.140625 -0.0507812 0.953125 -0.25 C 0.765625 -0.445312 0.671875 -0.703125 0.671875 -1.015625 C 0.671875 -1.210938 0.710938 -1.390625 0.796875 -1.546875 C 0.890625 -1.710938 1.019531 -1.84375 1.1875 -1.9375 C 1.363281 -2.03125 1.5625 -2.078125 1.78125 -2.078125 C 2.132812 -2.078125 2.414062 -1.957031 2.625 -1.71875 C 2.84375 -1.488281 2.953125 -1.15625 2.953125 -0.71875 C 2.953125 0.03125 2.757812 0.6875 2.375 1.25 C 1.988281 1.8125 1.476562 2.285156 0.84375 2.671875 Z M 0.25 1.859375 "/></g></g></g><g fill="#000000" fill-opacity="1"><g transform="translate(424.156364, 116.457613)"><g><path d="M 5.515625 0 L 3.296875 0 L 0.171875 -9.28125 L 2.109375 -9.28125 L 4.375 -2.359375 L 4.53125 -2.359375 L 6.75 -9.28125 L 8.640625 -9.28125 Z M 5.515625 0 "/></g></g></g><g fill="#000000" fill-opacity="1"><g transform="translate(432.964263, 116.457613)"><g><path d="M 6.4375 -5.234375 L 0.703125 -5.234375 L 0.703125 -6.703125 L 6.4375 -6.703125 Z M 6.4375 -2.578125 L 0.703125 -2.578125 L 0.703125 -4.046875 L 6.4375 -4.046875 Z M 6.4375 -2.578125 "/></g></g></g><g fill="#000000" fill-opacity="1"><g transform="translate(440.128619, 116.457613)"><g><path d="M 3.78125 0.140625 C 2.789062 0.140625 2.003906 -0.0664062 1.421875 -0.484375 C 0.835938 -0.910156 0.46875 -1.507812 0.3125 -2.28125 L 1.6875 -2.9375 L 1.84375 -2.90625 C 2 -2.394531 2.222656 -2.019531 2.515625 -1.78125 C 2.804688 -1.550781 3.207031 -1.4375 3.71875 -1.4375 C 4.21875 -1.4375 4.597656 -1.550781 4.859375 -1.78125 C 5.117188 -2.019531 5.25 -2.359375 5.25 -2.796875 C 5.25 -3.234375 5.117188 -3.566406 4.859375 -3.796875 C 4.597656 -4.035156 4.21875 -4.15625 3.71875 -4.15625 L 2.328125 -4.15625 L 2.328125 -5.578125 L 3.546875 -5.578125 C 3.960938 -5.578125 4.289062 -5.679688 4.53125 -5.890625 C 4.78125 -6.097656 4.90625 -6.394531 4.90625 -6.78125 C 4.90625 -7.15625 4.785156 -7.4375 4.546875 -7.625 C 4.316406 -7.820312 4 -7.921875 3.59375 -7.921875 C 3.1875 -7.921875 2.820312 -7.820312 2.5 -7.625 C 2.175781 -7.4375 1.921875 -7.175781 1.734375 -6.84375 L 1.578125 -6.828125 L 0.609375 -7.953125 C 0.941406 -8.390625 1.363281 -8.738281 1.875 -9 C 2.382812 -9.269531 2.992188 -9.40625 3.703125 -9.40625 C 4.671875 -9.40625 5.410156 -9.203125 5.921875 -8.796875 C 6.441406 -8.390625 6.703125 -7.820312 6.703125 -7.09375 C 6.703125 -6.644531 6.597656 -6.265625 6.390625 -5.953125 C 6.179688 -5.640625 5.878906 -5.367188 5.484375 -5.140625 L 5.484375 -5 C 6.554688 -4.625 7.09375 -3.863281 7.09375 -2.71875 C 7.09375 -2.144531 6.96875 -1.644531 6.71875 -1.21875 C 6.476562 -0.789062 6.109375 -0.457031 5.609375 -0.21875 C 5.117188 0.0195312 4.507812 0.140625 3.78125 0.140625 Z M 3.78125 0.140625 "/></g></g></g><g fill="#000000" fill-opacity="1"><g transform="translate(447.806975, 116.457613)"><g><path d="M 4.53125 0.140625 C 3.769531 0.140625 3.109375 -0.0234375 2.546875 -0.359375 C 1.992188 -0.703125 1.5625 -1.226562 1.25 -1.9375 C 0.9375 -2.65625 0.78125 -3.554688 0.78125 -4.640625 C 0.78125 -5.722656 0.9375 -6.617188 1.25 -7.328125 C 1.5625 -8.046875 1.992188 -8.570312 2.546875 -8.90625 C 3.109375 -9.238281 3.769531 -9.40625 4.53125 -9.40625 C 5.289062 -9.40625 5.953125 -9.238281 6.515625 -8.90625 C 7.078125 -8.570312 7.515625 -8.046875 7.828125 -7.328125 C 8.140625 -6.617188 8.296875 -5.722656 8.296875 -4.640625 C 8.296875 -3.554688 8.140625 -2.65625 7.828125 -1.9375 C 7.515625 -1.226562 7.078125 -0.703125 6.515625 -0.359375 C 5.953125 -0.0234375 5.289062 0.140625 4.53125 0.140625 Z M 4.53125 -1.421875 C 4.945312 -1.421875 5.296875 -1.519531 5.578125 -1.71875 C 5.859375 -1.925781 6.070312 -2.265625 6.21875 -2.734375 C 6.363281 -3.210938 6.4375 -3.847656 6.4375 -4.640625 C 6.4375 -5.429688 6.363281 -6.0625 6.21875 -6.53125 C 6.070312 -7.007812 5.859375 -7.347656 5.578125 -7.546875 C 5.296875 -7.753906 4.945312 -7.859375 4.53125 -7.859375 C 4.113281 -7.859375 3.765625 -7.753906 3.484375 -7.546875 C 3.210938 -7.347656 3 -7.007812 2.84375 -6.53125 C 2.695312 -6.0625 2.625 -5.429688 2.625 -4.640625 C 2.625 -3.847656 2.695312 -3.210938 2.84375 -2.734375 C 3 -2.265625 3.210938 -1.925781 3.484375 -1.71875 C 3.765625 -1.519531 4.113281 -1.421875 4.53125 -1.421875 Z M 4.53125 -1.421875 "/></g></g></g><g fill="#000000" fill-opacity="1"><g transform="translate(456.875056, 116.457613)"><g><path d="M 0.40625 1.1875 C 0.695312 0.6875 0.941406 0.179688 1.140625 -0.328125 C 1.347656 -0.847656 1.515625 -1.429688 1.640625 -2.078125 C 1.765625 -2.722656 1.828125 -3.441406 1.828125 -4.234375 C 1.828125 -5.035156 1.765625 -5.757812 1.640625 -6.40625 C 1.515625 -7.050781 1.347656 -7.628906 1.140625 -8.140625 C 0.941406 -8.660156 0.695312 -9.175781 0.40625 -9.6875 L 0.421875 -9.8125 L 1.765625 -9.8125 C 2.128906 -9.363281 2.453125 -8.882812 2.734375 -8.375 C 3.015625 -7.875 3.242188 -7.273438 3.421875 -6.578125 C 3.597656 -5.890625 3.6875 -5.109375 3.6875 -4.234375 C 3.6875 -2.992188 3.507812 -1.929688 3.15625 -1.046875 C 2.8125 -0.171875 2.347656 0.617188 1.765625 1.328125 L 0.421875 1.328125 Z M 0.40625 1.1875 "/></g></g></g><g clip-path="url(#757e4d314d)"><g clip-path="url(#7eee1be602)"><path fill="#d9d9d9" d="M 550.882812 32.054688 L 734.242188 32.054688 L 734.242188 192.492188 L 550.882812 192.492188 Z M 550.882812 32.054688 " fill-opacity="1" fill-rule="nonzero"/></g></g><g fill="#000000" fill-opacity="1"><g transform="translate(608.680514, 118.306246)"><g><path d="M 4.125 0 L 1.671875 0 L 1.671875 -12.84375 L 4.578125 -12.84375 L 9.734375 -4.578125 L 9.96875 -4.609375 L 9.96875 -12.84375 L 12.40625 -12.84375 L 12.40625 0 L 9.8125 0 L 4.34375 -8.84375 L 4.125 -8.8125 Z M 4.125 0 "/></g></g><g transform="translate(622.76938, 118.306246)"><g><path d="M 7 0.1875 C 5.820312 0.1875 4.785156 -0.0507812 3.890625 -0.53125 C 2.992188 -1.007812 2.289062 -1.742188 1.78125 -2.734375 C 1.269531 -3.722656 1.015625 -4.953125 1.015625 -6.421875 C 1.015625 -7.890625 1.269531 -9.117188 1.78125 -10.109375 C 2.289062 -11.097656 2.992188 -11.832031 3.890625 -12.3125 C 4.785156 -12.789062 5.820312 -13.03125 7 -13.03125 C 8.175781 -13.03125 9.210938 -12.789062 10.109375 -12.3125 C 11.015625 -11.84375 11.71875 -11.109375 12.21875 -10.109375 C 12.726562 -9.117188 12.984375 -7.890625 12.984375 -6.421875 C 12.984375 -4.953125 12.726562 -3.722656 12.21875 -2.734375 C 11.71875 -1.742188 11.015625 -1.007812 10.109375 -0.53125 C 9.210938 -0.0507812 8.175781 0.1875 7 0.1875 Z M 7 -2.015625 C 8.09375 -2.015625 8.925781 -2.363281 9.5 -3.0625 C 10.070312 -3.769531 10.359375 -4.890625 10.359375 -6.421875 C 10.359375 -7.960938 10.070312 -9.082031 9.5 -9.78125 C 8.925781 -10.488281 8.09375 -10.84375 7 -10.84375 C 5.90625 -10.84375 5.066406 -10.488281 4.484375 -9.78125 C 3.910156 -9.082031 3.625 -7.960938 3.625 -6.421875 C 3.625 -4.890625 3.910156 -3.769531 4.484375 -3.0625 C 5.066406 -2.363281 5.90625 -2.015625 7 -2.015625 Z M 7 -2.015625 "/></g></g><g transform="translate(636.770356, 118.306246)"><g><path d="M 6.296875 -12.84375 C 8.378906 -12.84375 9.96875 -12.300781 11.0625 -11.21875 C 12.164062 -10.144531 12.71875 -8.546875 12.71875 -6.421875 C 12.71875 -4.304688 12.164062 -2.707031 11.0625 -1.625 C 9.96875 -0.539062 8.378906 0 6.296875 0 L 1.671875 0 L 1.671875 -12.84375 Z M 6.140625 -2.140625 C 7.460938 -2.140625 8.453125 -2.476562 9.109375 -3.15625 C 9.765625 -3.832031 10.09375 -4.921875 10.09375 -6.421875 C 10.09375 -7.929688 9.765625 -9.023438 9.109375 -9.703125 C 8.453125 -10.378906 7.460938 -10.71875 6.140625 -10.71875 L 4.203125 -10.71875 L 4.203125 -2.140625 Z M 6.140625 -2.140625 "/></g></g><g transform="translate(650.50766, 118.306246)"><g><path d="M 4.203125 -5.640625 L 4.203125 -2.125 L 10.34375 -2.125 L 10.34375 0 L 1.671875 0 L 1.671875 -12.84375 L 10.203125 -12.84375 L 10.203125 -10.71875 L 4.203125 -10.71875 L 4.203125 -7.71875 L 9.453125 -7.71875 L 9.453125 -5.640625 Z M 4.203125 -5.640625 "/></g></g><g transform="translate(661.555511, 118.306246)"><g><path d="M 6.15625 -5.171875 L 0.765625 -5.171875 L 0.765625 -7.3125 L 6.15625 -7.3125 Z M 6.15625 -5.171875 "/></g></g><g transform="translate(668.490081, 118.306246)"><g><path d="M 5.234375 0.1875 C 3.859375 0.1875 2.765625 -0.101562 1.953125 -0.6875 C 1.148438 -1.269531 0.640625 -2.097656 0.421875 -3.171875 L 2.34375 -4.0625 L 2.546875 -4.03125 C 2.765625 -3.320312 3.070312 -2.800781 3.46875 -2.46875 C 3.875 -2.144531 4.4375 -1.984375 5.15625 -1.984375 C 5.84375 -1.984375 6.367188 -2.144531 6.734375 -2.46875 C 7.097656 -2.789062 7.28125 -3.257812 7.28125 -3.875 C 7.28125 -4.476562 7.097656 -4.941406 6.734375 -5.265625 C 6.378906 -5.585938 5.851562 -5.75 5.15625 -5.75 L 3.21875 -5.75 L 3.21875 -7.71875 L 4.90625 -7.71875 C 5.476562 -7.71875 5.929688 -7.863281 6.265625 -8.15625 C 6.609375 -8.445312 6.78125 -8.859375 6.78125 -9.390625 C 6.78125 -9.910156 6.617188 -10.304688 6.296875 -10.578125 C 5.984375 -10.847656 5.546875 -10.984375 4.984375 -10.984375 C 4.410156 -10.984375 3.898438 -10.847656 3.453125 -10.578125 C 3.015625 -10.304688 2.660156 -9.941406 2.390625 -9.484375 L 2.1875 -9.453125 L 0.859375 -11 C 1.304688 -11.613281 1.882812 -12.101562 2.59375 -12.46875 C 3.300781 -12.84375 4.144531 -13.03125 5.125 -13.03125 C 6.46875 -13.03125 7.492188 -12.75 8.203125 -12.1875 C 8.910156 -11.625 9.265625 -10.832031 9.265625 -9.8125 C 9.265625 -9.195312 9.117188 -8.671875 8.828125 -8.234375 C 8.546875 -7.796875 8.140625 -7.421875 7.609375 -7.109375 L 7.609375 -6.921875 C 9.085938 -6.398438 9.828125 -5.347656 9.828125 -3.765625 C 9.828125 -2.960938 9.65625 -2.265625 9.3125 -1.671875 C 8.976562 -1.085938 8.46875 -0.628906 7.78125 -0.296875 C 7.09375 0.0234375 6.242188 0.1875 5.234375 0.1875 Z M 5.234375 0.1875 "/></g></g></g><g clip-path="url(#2c2a903f4c)"><g clip-path="url(#cccb87d72a)"><path fill="#d9d9d9" d="M 30.921875 383.796875 L 214.277344 383.796875 L 214.277344 544.234375 L 30.921875 544.234375 Z M 30.921875 383.796875 " fill-opacity="1" fill-rule="nonzero"/></g></g><g fill="#000000" fill-opacity="1"><g transform="translate(89.023063, 470.048379)"><g><path d="M 4.125 0 L 1.671875 0 L 1.671875 -12.84375 L 4.578125 -12.84375 L 9.734375 -4.578125 L 9.96875 -4.609375 L 9.96875 -12.84375 L 12.40625 -12.84375 L 12.40625 0 L 9.8125 0 L 4.34375 -8.84375 L 4.125 -8.8125 Z M 4.125 0 "/></g></g><g transform="translate(103.111929, 470.048379)"><g><path d="M 7 0.1875 C 5.820312 0.1875 4.785156 -0.0507812 3.890625 -0.53125 C 2.992188 -1.007812 2.289062 -1.742188 1.78125 -2.734375 C 1.269531 -3.722656 1.015625 -4.953125 1.015625 -6.421875 C 1.015625 -7.890625 1.269531 -9.117188 1.78125 -10.109375 C 2.289062 -11.097656 2.992188 -11.832031 3.890625 -12.3125 C 4.785156 -12.789062 5.820312 -13.03125 7 -13.03125 C 8.175781 -13.03125 9.210938 -12.789062 10.109375 -12.3125 C 11.015625 -11.84375 11.71875 -11.109375 12.21875 -10.109375 C 12.726562 -9.117188 12.984375 -7.890625 12.984375 -6.421875 C 12.984375 -4.953125 12.726562 -3.722656 12.21875 -2.734375 C 11.71875 -1.742188 11.015625 -1.007812 10.109375 -0.53125 C 9.210938 -0.0507812 8.175781 0.1875 7 0.1875 Z M 7 -2.015625 C 8.09375 -2.015625 8.925781 -2.363281 9.5 -3.0625 C 10.070312 -3.769531 10.359375 -4.890625 10.359375 -6.421875 C 10.359375 -7.960938 10.070312 -9.082031 9.5 -9.78125 C 8.925781 -10.488281 8.09375 -10.84375 7 -10.84375 C 5.90625 -10.84375 5.066406 -10.488281 4.484375 -9.78125 C 3.910156 -9.082031 3.625 -7.960938 3.625 -6.421875 C 3.625 -4.890625 3.910156 -3.769531 4.484375 -3.0625 C 5.066406 -2.363281 5.90625 -2.015625 7 -2.015625 Z M 7 -2.015625 "/></g></g><g transform="translate(117.112905, 470.048379)"><g><path d="M 6.296875 -12.84375 C 8.378906 -12.84375 9.96875 -12.300781 11.0625 -11.21875 C 12.164062 -10.144531 12.71875 -8.546875 12.71875 -6.421875 C 12.71875 -4.304688 12.164062 -2.707031 11.0625 -1.625 C 9.96875 -0.539062 8.378906 0 6.296875 0 L 1.671875 0 L 1.671875 -12.84375 Z M 6.140625 -2.140625 C 7.460938 -2.140625 8.453125 -2.476562 9.109375 -3.15625 C 9.765625 -3.832031 10.09375 -4.921875 10.09375 -6.421875 C 10.09375 -7.929688 9.765625 -9.023438 9.109375 -9.703125 C 8.453125 -10.378906 7.460938 -10.71875 6.140625 -10.71875 L 4.203125 -10.71875 L 4.203125 -2.140625 Z M 6.140625 -2.140625 "/></g></g><g transform="translate(130.850209, 470.048379)"><g><path d="M 4.203125 -5.640625 L 4.203125 -2.125 L 10.34375 -2.125 L 10.34375 0 L 1.671875 0 L 1.671875 -12.84375 L 10.203125 -12.84375 L 10.203125 -10.71875 L 4.203125 -10.71875 L 4.203125 -7.71875 L 9.453125 -7.71875 L 9.453125 -5.640625 Z M 4.203125 -5.640625 "/></g></g><g transform="translate(141.89806, 470.048379)"><g><path d="M 6.15625 -5.171875 L 0.765625 -5.171875 L 0.765625 -7.3125 L 6.15625 -7.3125 Z M 6.15625 -5.171875 "/></g></g><g transform="translate(148.83263, 470.048379)"><g><path d="M 0.625 -1.015625 C 0.625 -1.722656 0.703125 -2.320312 0.859375 -2.8125 C 1.015625 -3.300781 1.265625 -3.742188 1.609375 -4.140625 C 1.960938 -4.546875 2.460938 -4.976562 3.109375 -5.4375 L 4.828125 -6.6875 C 5.296875 -7.019531 5.660156 -7.304688 5.921875 -7.546875 C 6.179688 -7.796875 6.375 -8.054688 6.5 -8.328125 C 6.632812 -8.597656 6.703125 -8.90625 6.703125 -9.25 C 6.703125 -9.769531 6.539062 -10.171875 6.21875 -10.453125 C 5.90625 -10.734375 5.4375 -10.875 4.8125 -10.875 C 4.195312 -10.875 3.648438 -10.726562 3.171875 -10.4375 C 2.703125 -10.15625 2.3125 -9.757812 2 -9.25 L 1.84375 -9.21875 L 0.4375 -10.78125 C 0.894531 -11.457031 1.488281 -12 2.21875 -12.40625 C 2.957031 -12.820312 3.851562 -13.03125 4.90625 -13.03125 C 5.863281 -13.03125 6.664062 -12.867188 7.3125 -12.546875 C 7.957031 -12.234375 8.4375 -11.800781 8.75 -11.25 C 9.070312 -10.707031 9.234375 -10.082031 9.234375 -9.375 C 9.234375 -8.769531 9.101562 -8.210938 8.84375 -7.703125 C 8.59375 -7.203125 8.238281 -6.738281 7.78125 -6.3125 C 7.332031 -5.882812 6.757812 -5.425781 6.0625 -4.9375 L 4.53125 -3.875 C 4.070312 -3.539062 3.753906 -3.242188 3.578125 -2.984375 C 3.398438 -2.734375 3.3125 -2.445312 3.3125 -2.125 L 9.109375 -2.125 L 9.109375 0 L 0.625 0 Z M 0.625 -1.015625 "/></g></g></g><g clip-path="url(#90ef095eb8)"><g clip-path="url(#5ae23c4c80)"><path fill="#d9d9d9" d="M 550.882812 384.605469 L 734.242188 384.605469 L 734.242188 545.042969 L 550.882812 545.042969 Z M 550.882812 384.605469 " fill-opacity="1" fill-rule="nonzero"/></g></g><g fill="#000000" fill-opacity="1"><g transform="translate(609.254732, 470.853809)"><g><path d="M 4.125 0 L 1.671875 0 L 1.671875 -12.84375 L 4.578125 -12.84375 L 9.734375 -4.578125 L 9.96875 -4.609375 L 9.96875 -12.84375 L 12.40625 -12.84375 L 12.40625 0 L 9.8125 0 L 4.34375 -8.84375 L 4.125 -8.8125 Z M 4.125 0 "/></g></g><g transform="translate(623.343599, 470.853809)"><g><path d="M 7 0.1875 C 5.820312 0.1875 4.785156 -0.0507812 3.890625 -0.53125 C 2.992188 -1.007812 2.289062 -1.742188 1.78125 -2.734375 C 1.269531 -3.722656 1.015625 -4.953125 1.015625 -6.421875 C 1.015625 -7.890625 1.269531 -9.117188 1.78125 -10.109375 C 2.289062 -11.097656 2.992188 -11.832031 3.890625 -12.3125 C 4.785156 -12.789062 5.820312 -13.03125 7 -13.03125 C 8.175781 -13.03125 9.210938 -12.789062 10.109375 -12.3125 C 11.015625 -11.84375 11.71875 -11.109375 12.21875 -10.109375 C 12.726562 -9.117188 12.984375 -7.890625 12.984375 -6.421875 C 12.984375 -4.953125 12.726562 -3.722656 12.21875 -2.734375 C 11.71875 -1.742188 11.015625 -1.007812 10.109375 -0.53125 C 9.210938 -0.0507812 8.175781 0.1875 7 0.1875 Z M 7 -2.015625 C 8.09375 -2.015625 8.925781 -2.363281 9.5 -3.0625 C 10.070312 -3.769531 10.359375 -4.890625 10.359375 -6.421875 C 10.359375 -7.960938 10.070312 -9.082031 9.5 -9.78125 C 8.925781 -10.488281 8.09375 -10.84375 7 -10.84375 C 5.90625 -10.84375 5.066406 -10.488281 4.484375 -9.78125 C 3.910156 -9.082031 3.625 -7.960938 3.625 -6.421875 C 3.625 -4.890625 3.910156 -3.769531 4.484375 -3.0625 C 5.066406 -2.363281 5.90625 -2.015625 7 -2.015625 Z M 7 -2.015625 "/></g></g><g transform="translate(637.344575, 470.853809)"><g><path d="M 6.296875 -12.84375 C 8.378906 -12.84375 9.96875 -12.300781 11.0625 -11.21875 C 12.164062 -10.144531 12.71875 -8.546875 12.71875 -6.421875 C 12.71875 -4.304688 12.164062 -2.707031 11.0625 -1.625 C 9.96875 -0.539062 8.378906 0 6.296875 0 L 1.671875 0 L 1.671875 -12.84375 Z M 6.140625 -2.140625 C 7.460938 -2.140625 8.453125 -2.476562 9.109375 -3.15625 C 9.765625 -3.832031 10.09375 -4.921875 10.09375 -6.421875 C 10.09375 -7.929688 9.765625 -9.023438 9.109375 -9.703125 C 8.453125 -10.378906 7.460938 -10.71875 6.140625 -10.71875 L 4.203125 -10.71875 L 4.203125 -2.140625 Z M 6.140625 -2.140625 "/></g></g><g transform="translate(651.081879, 470.853809)"><g><path d="M 4.203125 -5.640625 L 4.203125 -2.125 L 10.34375 -2.125 L 10.34375 0 L 1.671875 0 L 1.671875 -12.84375 L 10.203125 -12.84375 L 10.203125 -10.71875 L 4.203125 -10.71875 L 4.203125 -7.71875 L 9.453125 -7.71875 L 9.453125 -5.640625 Z M 4.203125 -5.640625 "/></g></g><g transform="translate(662.12973, 470.853809)"><g><path d="M 6.15625 -5.171875 L 0.765625 -5.171875 L 0.765625 -7.3125 L 6.15625 -7.3125 Z M 6.15625 -5.171875 "/></g></g><g transform="translate(669.0643, 470.853809)"><g><path d="M 0.671875 0 L 0.671875 -2.09375 L 3.78125 -2.09375 L 3.78125 -10.09375 L 3.578125 -10.15625 C 3.140625 -9.9375 2.707031 -9.765625 2.28125 -9.640625 C 1.851562 -9.523438 1.367188 -9.429688 0.828125 -9.359375 L 0.828125 -11.53125 C 2.253906 -11.832031 3.40625 -12.269531 4.28125 -12.84375 L 6.296875 -12.84375 L 6.296875 -2.09375 L 9.0625 -2.09375 L 9.0625 0 Z M 0.671875 0 "/></g></g></g><path stroke-linecap="butt" transform="matrix(-0.703181, 0.260199, -0.260276, -0.703389, 644.158629, 192.100265)" fill="none" stroke-linejoin="miter" d="M 0.00061761 0.998008 L 738.223649 1.001911 " stroke="#545454" stroke-width="2" stroke-opacity="1" stroke-miterlimit="4"/><path stroke-linecap="round" transform="matrix(-1.406362, 0.520398, -0.520552, -1.406779, 124.090072, 383.742074)" fill="none" stroke-linejoin="round" d="M -2.500054 -1.499689 L -0.500147 0.000944963 L -2.499158 1.499515 " stroke="#545454" stroke-width="1" stroke-opacity="1" stroke-miterlimit="4"/><g clip-path="url(#7970f565d8)"><path fill="#ff5757" d="M 134.550781 486.804688 L 300.71875 486.804688 L 300.71875 526.914062 L 134.550781 526.914062 Z M 134.550781 486.804688 " fill-opacity="1" fill-rule="nonzero"/></g><g clip-path="url(#e744dbae37)"><path stroke-linecap="butt" transform="matrix(0.750853, 0, 0, 0.751067, 134.551372, 486.806136)" fill="none" stroke-linejoin="miter" d="M -0.000786763 -0.00192821 L 219.744025 -0.00192821 L 219.744025 54.919948 L -0.000786763 54.919948 L -0.000786763 -0.00192821 " stroke="#eb6c6c" stroke-width="8" stroke-opacity="1" stroke-miterlimit="4"/></g><g fill="#000000" fill-opacity="1"><g transform="translate(166.096369, 511.556135)"><g><path d="M 0.484375 -0.796875 C 0.484375 -1.347656 0.539062 -1.8125 0.65625 -2.1875 C 0.78125 -2.5625 0.976562 -2.90625 1.25 -3.21875 C 1.53125 -3.53125 1.921875 -3.867188 2.421875 -4.234375 L 3.75 -5.203125 C 4.113281 -5.453125 4.394531 -5.671875 4.59375 -5.859375 C 4.800781 -6.054688 4.957031 -6.257812 5.0625 -6.46875 C 5.164062 -6.675781 5.21875 -6.914062 5.21875 -7.1875 C 5.21875 -7.59375 5.09375 -7.90625 4.84375 -8.125 C 4.601562 -8.351562 4.234375 -8.46875 3.734375 -8.46875 C 3.265625 -8.46875 2.84375 -8.351562 2.46875 -8.125 C 2.101562 -7.894531 1.800781 -7.585938 1.5625 -7.203125 L 1.421875 -7.171875 L 0.34375 -8.375 C 0.695312 -8.90625 1.160156 -9.332031 1.734375 -9.65625 C 2.304688 -9.976562 3 -10.140625 3.8125 -10.140625 C 4.5625 -10.140625 5.1875 -10.015625 5.6875 -9.765625 C 6.195312 -9.523438 6.570312 -9.191406 6.8125 -8.765625 C 7.050781 -8.335938 7.171875 -7.847656 7.171875 -7.296875 C 7.171875 -6.816406 7.070312 -6.378906 6.875 -5.984375 C 6.675781 -5.597656 6.398438 -5.238281 6.046875 -4.90625 C 5.703125 -4.570312 5.253906 -4.210938 4.703125 -3.828125 L 3.53125 -3.015625 C 3.175781 -2.753906 2.925781 -2.523438 2.78125 -2.328125 C 2.644531 -2.128906 2.578125 -1.90625 2.578125 -1.65625 L 7.078125 -1.65625 L 7.078125 0 L 0.484375 0 Z M 0.484375 -0.796875 "/></g></g></g><g fill="#000000" fill-opacity="1"><g transform="translate(173.891821, 511.556135)"><g/></g></g><g fill="#000000" fill-opacity="1"><g transform="translate(177.191736, 511.556135)"><g><path d="M 1.921875 0.0625 C 1.679688 0.0625 1.46875 0.015625 1.28125 -0.078125 C 1.101562 -0.179688 0.960938 -0.316406 0.859375 -0.484375 C 0.765625 -0.660156 0.71875 -0.859375 0.71875 -1.078125 C 0.71875 -1.296875 0.765625 -1.488281 0.859375 -1.65625 C 0.960938 -1.832031 1.101562 -1.972656 1.28125 -2.078125 C 1.46875 -2.179688 1.679688 -2.234375 1.921875 -2.234375 C 2.171875 -2.234375 2.382812 -2.179688 2.5625 -2.078125 C 2.75 -1.984375 2.890625 -1.847656 2.984375 -1.671875 C 3.085938 -1.503906 3.140625 -1.3125 3.140625 -1.09375 C 3.140625 -0.757812 3.03125 -0.484375 2.8125 -0.265625 C 2.59375 -0.046875 2.296875 0.0625 1.921875 0.0625 Z M 1.921875 -5.328125 C 1.679688 -5.328125 1.46875 -5.375 1.28125 -5.46875 C 1.101562 -5.570312 0.960938 -5.707031 0.859375 -5.875 C 0.765625 -6.050781 0.71875 -6.25 0.71875 -6.46875 C 0.71875 -6.6875 0.765625 -6.878906 0.859375 -7.046875 C 0.960938 -7.222656 1.101562 -7.363281 1.28125 -7.46875 C 1.46875 -7.570312 1.679688 -7.625 1.921875 -7.625 C 2.171875 -7.625 2.382812 -7.570312 2.5625 -7.46875 C 2.75 -7.375 2.890625 -7.238281 2.984375 -7.0625 C 3.085938 -6.894531 3.140625 -6.703125 3.140625 -6.484375 C 3.140625 -6.148438 3.03125 -5.875 2.8125 -5.65625 C 2.59375 -5.4375 2.296875 -5.328125 1.921875 -5.328125 Z M 1.921875 -5.328125 "/></g></g></g><g fill="#000000" fill-opacity="1"><g transform="translate(181.051885, 511.556135)"><g/></g></g><g fill="#000000" fill-opacity="1"><g transform="translate(184.3518, 511.556135)"><g><path d="M 3.21875 0 L 1.296875 0 L 1.296875 -10 L 3.5625 -10 L 7.578125 -3.5625 L 7.75 -3.578125 L 7.75 -10 L 9.65625 -10 L 9.65625 0 L 7.625 0 L 3.390625 -6.875 L 3.21875 -6.84375 Z M 3.21875 0 "/></g></g></g><g fill="#000000" fill-opacity="1"><g transform="translate(195.303693, 511.556135)"><g><path d="M 5.453125 0.140625 C 4.535156 0.140625 3.722656 -0.046875 3.015625 -0.421875 C 2.316406 -0.796875 1.769531 -1.363281 1.375 -2.125 C 0.976562 -2.894531 0.78125 -3.851562 0.78125 -5 C 0.78125 -6.144531 0.976562 -7.097656 1.375 -7.859375 C 1.769531 -8.628906 2.316406 -9.203125 3.015625 -9.578125 C 3.722656 -9.953125 4.535156 -10.140625 5.453125 -10.140625 C 6.367188 -10.140625 7.175781 -9.953125 7.875 -9.578125 C 8.570312 -9.210938 9.113281 -8.644531 9.5 -7.875 C 9.894531 -7.101562 10.09375 -6.144531 10.09375 -5 C 10.09375 -3.851562 9.894531 -2.894531 9.5 -2.125 C 9.113281 -1.351562 8.570312 -0.78125 7.875 -0.40625 C 7.175781 -0.0390625 6.367188 0.140625 5.453125 0.140625 Z M 5.453125 -1.578125 C 6.296875 -1.578125 6.941406 -1.847656 7.390625 -2.390625 C 7.835938 -2.929688 8.0625 -3.800781 8.0625 -5 C 8.0625 -6.1875 7.835938 -7.050781 7.390625 -7.59375 C 6.941406 -8.144531 6.296875 -8.421875 5.453125 -8.421875 C 4.597656 -8.421875 3.945312 -8.144531 3.5 -7.59375 C 3.050781 -7.050781 2.828125 -6.1875 2.828125 -5 C 2.828125 -3.800781 3.050781 -2.929688 3.5 -2.390625 C 3.945312 -1.847656 4.597656 -1.578125 5.453125 -1.578125 Z M 5.453125 -1.578125 "/></g></g></g><g fill="#000000" fill-opacity="1"><g transform="translate(206.187264, 511.556135)"><g><path d="M 4.890625 -10 C 6.515625 -10 7.753906 -9.578125 8.609375 -8.734375 C 9.460938 -7.898438 9.890625 -6.65625 9.890625 -5 C 9.890625 -3.34375 9.460938 -2.09375 8.609375 -1.25 C 7.753906 -0.414062 6.515625 0 4.890625 0 L 1.296875 0 L 1.296875 -10 Z M 4.78125 -1.65625 C 5.8125 -1.65625 6.582031 -1.914062 7.09375 -2.4375 C 7.601562 -2.96875 7.859375 -3.820312 7.859375 -5 C 7.859375 -6.164062 7.601562 -7.007812 7.09375 -7.53125 C 6.582031 -8.0625 5.8125 -8.328125 4.78125 -8.328125 L 3.28125 -8.328125 L 3.28125 -1.65625 Z M 4.78125 -1.65625 "/></g></g></g><g fill="#000000" fill-opacity="1"><g transform="translate(216.865871, 511.556135)"><g><path d="M 3.28125 -4.390625 L 3.28125 -1.65625 L 8.046875 -1.65625 L 8.046875 0 L 1.296875 0 L 1.296875 -10 L 7.9375 -10 L 7.9375 -8.34375 L 3.28125 -8.34375 L 3.28125 -6 L 7.34375 -6 L 7.34375 -4.390625 Z M 3.28125 -4.390625 "/></g></g></g><g fill="#000000" fill-opacity="1"><g transform="translate(225.453849, 511.556135)"><g/></g></g><g fill="#000000" fill-opacity="1"><g transform="translate(228.753764, 511.556135)"><g><path d="M 7.640625 -10 L 7.640625 -8.34375 L 3.28125 -8.34375 L 3.28125 -5.6875 L 7.234375 -5.6875 L 7.234375 -4.0625 L 3.28125 -4.0625 L 3.28125 0 L 1.296875 0 L 1.296875 -10 Z M 7.640625 -10 "/></g></g></g><g fill="#000000" fill-opacity="1"><g transform="translate(236.829333, 511.556135)"><g><path d="M 9.59375 0 L 7.515625 0 L 6.765625 -2.296875 L 2.9375 -2.296875 L 2.1875 0 L 0.15625 0 L 3.609375 -10 L 6.140625 -10 Z M 4.75 -7.90625 L 3.46875 -3.96875 L 6.21875 -3.96875 L 4.921875 -7.90625 Z M 4.75 -7.90625 "/></g></g></g><g fill="#000000" fill-opacity="1"><g transform="translate(246.565108, 511.556135)"><g><path d="M 3.28125 0 L 1.296875 0 L 1.296875 -10 L 3.28125 -10 Z M 3.28125 0 "/></g></g></g><g fill="#000000" fill-opacity="1"><g transform="translate(251.14263, 511.556135)"><g><path d="M 3.28125 -10 L 3.28125 -1.65625 L 7.765625 -1.65625 L 7.765625 0 L 1.296875 0 L 1.296875 -10 Z M 3.28125 -10 "/></g></g></g><g fill="#000000" fill-opacity="1"><g transform="translate(259.231863, 511.556135)"><g><path d="M 4.4375 0.140625 C 3.738281 0.140625 3.117188 0.0546875 2.578125 -0.109375 C 2.035156 -0.285156 1.582031 -0.507812 1.21875 -0.78125 C 0.863281 -1.0625 0.59375 -1.367188 0.40625 -1.703125 L 1.484375 -3.03125 L 1.65625 -3.03125 C 1.957031 -2.582031 2.335938 -2.222656 2.796875 -1.953125 C 3.265625 -1.691406 3.8125 -1.5625 4.4375 -1.5625 C 4.957031 -1.5625 5.351562 -1.671875 5.625 -1.890625 C 5.894531 -2.117188 6.03125 -2.429688 6.03125 -2.828125 C 6.03125 -3.054688 5.984375 -3.25 5.890625 -3.40625 C 5.804688 -3.570312 5.664062 -3.710938 5.46875 -3.828125 C 5.269531 -3.941406 5 -4.039062 4.65625 -4.125 L 3.375 -4.421875 C 2.476562 -4.617188 1.804688 -4.957031 1.359375 -5.4375 C 0.921875 -5.914062 0.703125 -6.535156 0.703125 -7.296875 C 0.703125 -7.859375 0.84375 -8.351562 1.125 -8.78125 C 1.40625 -9.207031 1.816406 -9.539062 2.359375 -9.78125 C 2.898438 -10.019531 3.546875 -10.140625 4.296875 -10.140625 C 5.066406 -10.140625 5.726562 -10.035156 6.28125 -9.828125 C 6.832031 -9.628906 7.296875 -9.320312 7.671875 -8.90625 L 6.6875 -7.5625 L 6.515625 -7.5625 C 6.234375 -7.851562 5.910156 -8.070312 5.546875 -8.21875 C 5.179688 -8.375 4.765625 -8.453125 4.296875 -8.453125 C 3.753906 -8.453125 3.34375 -8.351562 3.0625 -8.15625 C 2.78125 -7.96875 2.640625 -7.707031 2.640625 -7.375 C 2.640625 -7.050781 2.738281 -6.796875 2.9375 -6.609375 C 3.132812 -6.429688 3.476562 -6.289062 3.96875 -6.1875 L 5.28125 -5.90625 C 6.25 -5.695312 6.953125 -5.347656 7.390625 -4.859375 C 7.828125 -4.367188 8.046875 -3.734375 8.046875 -2.953125 C 8.046875 -2.328125 7.910156 -1.78125 7.640625 -1.3125 C 7.367188 -0.851562 6.960938 -0.492188 6.421875 -0.234375 C 5.878906 0.015625 5.21875 0.140625 4.4375 0.140625 Z M 4.4375 0.140625 "/></g></g></g><path stroke-linecap="butt" transform="matrix(0.000000000000000046, 0.751137, -0.75, 0.000000000000000046, 644.651805, 191.396496)" fill="none" stroke-linejoin="miter" d="M 0.00258471 0.999282 L 256.608283 0.999282 " stroke="#545454" stroke-width="2" stroke-opacity="1" stroke-miterlimit="4"/><path stroke-linecap="round" transform="matrix(0.000000000000000092, 1.502274, -1.5, 0.000000000000000092, 643.901805, 384.897016)" fill="none" stroke-linejoin="round" d="M -2.500469 -1.500359 L -0.500897 -0.000359053 L -2.500469 1.499641 " stroke="#545454" stroke-width="1" stroke-opacity="1" stroke-miterlimit="4"/><g clip-path="url(#8bbb9ef287)"><g clip-path="url(#cc1f08fb54)"><path fill="#efcea1" d="M 536.941406 256.15625 L 737.488281 256.15625 L 737.488281 290.535156 L 536.941406 290.535156 Z M 536.941406 256.15625 " fill-opacity="1" fill-rule="nonzero"/></g></g><g fill="#000000" fill-opacity="1"><g transform="translate(566.037585, 276.405769)"><g><path d="M 6.296875 0 L 4.546875 0 L 4.546875 -2.015625 L 0.3125 -2.015625 L 0.3125 -3.5 L 3.953125 -9.28125 L 6.296875 -9.28125 L 6.296875 -3.5 L 7.734375 -3.5 L 7.734375 -2.015625 L 6.296875 -2.015625 Z M 2.203125 -3.625 L 2.25 -3.5 L 4.546875 -3.5 L 4.546875 -7.09375 L 4.40625 -7.109375 Z M 2.203125 -3.625 "/></g></g></g><g fill="#000000" fill-opacity="1"><g transform="translate(574.122068, 276.405769)"><g/></g></g><g fill="#000000" fill-opacity="1"><g transform="translate(577.187071, 276.405769)"><g><path d="M 1.796875 0.0625 C 1.566406 0.0625 1.363281 0.015625 1.1875 -0.078125 C 1.019531 -0.171875 0.890625 -0.296875 0.796875 -0.453125 C 0.710938 -0.617188 0.671875 -0.800781 0.671875 -1 C 0.671875 -1.207031 0.710938 -1.390625 0.796875 -1.546875 C 0.890625 -1.710938 1.019531 -1.835938 1.1875 -1.921875 C 1.363281 -2.015625 1.566406 -2.0625 1.796875 -2.0625 C 2.023438 -2.0625 2.222656 -2.015625 2.390625 -1.921875 C 2.554688 -1.835938 2.6875 -1.710938 2.78125 -1.546875 C 2.875 -1.390625 2.921875 -1.210938 2.921875 -1.015625 C 2.921875 -0.703125 2.816406 -0.441406 2.609375 -0.234375 C 2.398438 -0.0351562 2.128906 0.0625 1.796875 0.0625 Z M 1.796875 -4.9375 C 1.566406 -4.9375 1.363281 -4.984375 1.1875 -5.078125 C 1.019531 -5.171875 0.890625 -5.296875 0.796875 -5.453125 C 0.710938 -5.617188 0.671875 -5.800781 0.671875 -6 C 0.671875 -6.207031 0.710938 -6.390625 0.796875 -6.546875 C 0.890625 -6.710938 1.019531 -6.835938 1.1875 -6.921875 C 1.363281 -7.015625 1.566406 -7.0625 1.796875 -7.0625 C 2.023438 -7.0625 2.222656 -7.015625 2.390625 -6.921875 C 2.554688 -6.835938 2.6875 -6.710938 2.78125 -6.546875 C 2.875 -6.390625 2.921875 -6.210938 2.921875 -6.015625 C 2.921875 -5.703125 2.816406 -5.441406 2.609375 -5.234375 C 2.398438 -5.035156 2.128906 -4.9375 1.796875 -4.9375 Z M 1.796875 -4.9375 "/></g></g></g><g fill="#000000" fill-opacity="1"><g transform="translate(580.772424, 276.405769)"><g/></g></g><g fill="#000000" fill-opacity="1"><g transform="translate(583.837427, 276.405769)"><g><path d="M 4.921875 0.140625 C 3.640625 0.140625 2.691406 -0.160156 2.078125 -0.765625 C 1.460938 -1.378906 1.15625 -2.285156 1.15625 -3.484375 L 1.15625 -9.28125 L 2.953125 -9.28125 L 2.953125 -3.484375 C 2.953125 -2.804688 3.113281 -2.296875 3.4375 -1.953125 C 3.757812 -1.617188 4.253906 -1.453125 4.921875 -1.453125 C 6.234375 -1.453125 6.890625 -2.128906 6.890625 -3.484375 L 6.890625 -9.28125 L 8.6875 -9.28125 L 8.6875 -3.484375 C 8.6875 -2.285156 8.378906 -1.378906 7.765625 -0.765625 C 7.148438 -0.160156 6.203125 0.140625 4.921875 0.140625 Z M 4.921875 0.140625 "/></g></g></g><g fill="#000000" fill-opacity="1"><g transform="translate(593.673337, 276.405769)"><g><path d="M 4.796875 -9.28125 C 5.460938 -9.28125 6.03125 -9.15625 6.5 -8.90625 C 6.96875 -8.664062 7.320312 -8.328125 7.5625 -7.890625 C 7.800781 -7.453125 7.921875 -6.941406 7.921875 -6.359375 C 7.921875 -5.785156 7.800781 -5.28125 7.5625 -4.84375 C 7.320312 -4.40625 6.96875 -4.0625 6.5 -3.8125 C 6.03125 -3.570312 5.460938 -3.453125 4.796875 -3.453125 L 3.046875 -3.453125 L 3.046875 0 L 1.203125 0 L 1.203125 -9.28125 Z M 4.546875 -4.90625 C 5.566406 -4.90625 6.078125 -5.390625 6.078125 -6.359375 C 6.078125 -7.335938 5.566406 -7.828125 4.546875 -7.828125 L 3.046875 -7.828125 L 3.046875 -4.90625 Z M 4.546875 -4.90625 "/></g></g></g><g fill="#000000" fill-opacity="1"><g transform="translate(602.151257, 276.405769)"><g><path d="M 4.546875 -9.28125 C 6.054688 -9.28125 7.207031 -8.890625 8 -8.109375 C 8.789062 -7.328125 9.1875 -6.171875 9.1875 -4.640625 C 9.1875 -3.109375 8.789062 -1.953125 8 -1.171875 C 7.207031 -0.390625 6.054688 0 4.546875 0 L 1.203125 0 L 1.203125 -9.28125 Z M 4.4375 -1.546875 C 5.394531 -1.546875 6.109375 -1.789062 6.578125 -2.28125 C 7.054688 -2.769531 7.296875 -3.554688 7.296875 -4.640625 C 7.296875 -5.722656 7.054688 -6.507812 6.578125 -7 C 6.109375 -7.488281 5.394531 -7.734375 4.4375 -7.734375 L 3.046875 -7.734375 L 3.046875 -1.546875 Z M 4.4375 -1.546875 "/></g></g></g><g fill="#000000" fill-opacity="1"><g transform="translate(612.069668, 276.405769)"><g><path d="M 8.90625 0 L 6.96875 0 L 6.28125 -2.140625 L 2.71875 -2.140625 L 2.03125 0 L 0.140625 0 L 3.34375 -9.28125 L 5.703125 -9.28125 Z M 4.40625 -7.34375 L 3.21875 -3.6875 L 5.765625 -3.6875 L 4.578125 -7.34375 Z M 4.40625 -7.34375 "/></g></g></g><g fill="#000000" fill-opacity="1"><g transform="translate(621.112366, 276.405769)"><g><path d="M 7.4375 -9.28125 L 7.4375 -7.734375 L 4.765625 -7.734375 L 4.765625 0 L 2.9375 0 L 2.9375 -7.734375 L 0.25 -7.734375 L 0.25 -9.28125 Z M 7.4375 -9.28125 "/></g></g></g><g fill="#000000" fill-opacity="1"><g transform="translate(628.803413, 276.405769)"><g><path d="M 3.046875 -4.078125 L 3.046875 -1.53125 L 7.46875 -1.53125 L 7.46875 0 L 1.203125 0 L 1.203125 -9.28125 L 7.375 -9.28125 L 7.375 -7.75 L 3.046875 -7.75 L 3.046875 -5.578125 L 6.828125 -5.578125 L 6.828125 -4.078125 Z M 3.046875 -4.078125 "/></g></g></g><g fill="#000000" fill-opacity="1"><g transform="translate(636.780025, 276.405769)"><g/></g></g><g fill="#000000" fill-opacity="1"><g transform="translate(639.845027, 276.405769)"><g><path d="M 2.84375 1.328125 C 2.257812 0.617188 1.789062 -0.171875 1.4375 -1.046875 C 1.09375 -1.929688 0.921875 -2.992188 0.921875 -4.234375 C 0.921875 -5.492188 1.09375 -6.5625 1.4375 -7.4375 C 1.789062 -8.3125 2.257812 -9.101562 2.84375 -9.8125 L 4.1875 -9.8125 L 4.21875 -9.6875 C 3.757812 -8.894531 3.40625 -8.078125 3.15625 -7.234375 C 2.90625 -6.398438 2.78125 -5.398438 2.78125 -4.234375 C 2.78125 -3.078125 2.90625 -2.078125 3.15625 -1.234375 C 3.40625 -0.398438 3.757812 0.40625 4.21875 1.1875 L 4.1875 1.328125 Z M 2.84375 1.328125 "/></g></g></g><g fill="#000000" fill-opacity="1"><g transform="translate(644.458392, 276.405769)"><g><path d="M 1.203125 0 L 1.203125 -9.28125 L 3.046875 -9.28125 L 3.046875 -5.484375 L 3.25 -5.484375 L 6.34375 -9.28125 L 8.21875 -9.28125 L 8.21875 -9.125 L 4.8125 -4.90625 L 8.578125 -0.15625 L 8.578125 0 L 6.5 0 L 3.25 -4 L 3.046875 -4 L 3.046875 0 Z M 1.203125 0 "/></g></g></g><g fill="#000000" fill-opacity="1"><g transform="translate(653.031504, 276.405769)"><g><path d="M 6.4375 -5.234375 L 0.703125 -5.234375 L 0.703125 -6.703125 L 6.4375 -6.703125 Z M 6.4375 -2.578125 L 0.703125 -2.578125 L 0.703125 -4.046875 L 6.4375 -4.046875 Z M 6.4375 -2.578125 "/></g></g></g><g fill="#000000" fill-opacity="1"><g transform="translate(660.19586, 276.405769)"><g><path d="M 0.484375 0 L 0.484375 -1.515625 L 2.734375 -1.515625 L 2.734375 -7.296875 L 2.578125 -7.328125 C 2.265625 -7.179688 1.953125 -7.0625 1.640625 -6.96875 C 1.335938 -6.882812 0.988281 -6.816406 0.59375 -6.765625 L 0.59375 -8.328125 C 1.625 -8.546875 2.457031 -8.863281 3.09375 -9.28125 L 4.546875 -9.28125 L 4.546875 -1.515625 L 6.546875 -1.515625 L 6.546875 0 Z M 0.484375 0 "/></g></g></g><g fill="#000000" fill-opacity="1"><g transform="translate(667.042929, 276.405769)"><g><path d="M 0.25 1.859375 C 0.625 1.640625 0.957031 1.363281 1.25 1.03125 C 1.539062 0.707031 1.703125 0.378906 1.734375 0.046875 C 1.398438 0.046875 1.140625 -0.0507812 0.953125 -0.25 C 0.765625 -0.445312 0.671875 -0.703125 0.671875 -1.015625 C 0.671875 -1.210938 0.710938 -1.390625 0.796875 -1.546875 C 0.890625 -1.710938 1.019531 -1.84375 1.1875 -1.9375 C 1.363281 -2.03125 1.5625 -2.078125 1.78125 -2.078125 C 2.132812 -2.078125 2.414062 -1.957031 2.625 -1.71875 C 2.84375 -1.488281 2.953125 -1.15625 2.953125 -0.71875 C 2.953125 0.03125 2.757812 0.6875 2.375 1.25 C 1.988281 1.8125 1.476562 2.285156 0.84375 2.671875 Z M 0.25 1.859375 "/></g></g></g><g fill="#000000" fill-opacity="1"><g transform="translate(670.653665, 276.405769)"><g><path d="M 5.515625 0 L 3.296875 0 L 0.171875 -9.28125 L 2.109375 -9.28125 L 4.375 -2.359375 L 4.53125 -2.359375 L 6.75 -9.28125 L 8.640625 -9.28125 Z M 5.515625 0 "/></g></g></g><g fill="#000000" fill-opacity="1"><g transform="translate(679.461564, 276.405769)"><g><path d="M 6.4375 -5.234375 L 0.703125 -5.234375 L 0.703125 -6.703125 L 6.4375 -6.703125 Z M 6.4375 -2.578125 L 0.703125 -2.578125 L 0.703125 -4.046875 L 6.4375 -4.046875 Z M 6.4375 -2.578125 "/></g></g></g><g fill="#000000" fill-opacity="1"><g transform="translate(686.62592, 276.405769)"><g><path d="M 3.78125 0.140625 C 2.789062 0.140625 2.003906 -0.0664062 1.421875 -0.484375 C 0.835938 -0.910156 0.46875 -1.507812 0.3125 -2.28125 L 1.6875 -2.9375 L 1.84375 -2.90625 C 2 -2.394531 2.222656 -2.019531 2.515625 -1.78125 C 2.804688 -1.550781 3.207031 -1.4375 3.71875 -1.4375 C 4.21875 -1.4375 4.597656 -1.550781 4.859375 -1.78125 C 5.117188 -2.019531 5.25 -2.359375 5.25 -2.796875 C 5.25 -3.234375 5.117188 -3.566406 4.859375 -3.796875 C 4.597656 -4.035156 4.21875 -4.15625 3.71875 -4.15625 L 2.328125 -4.15625 L 2.328125 -5.578125 L 3.546875 -5.578125 C 3.960938 -5.578125 4.289062 -5.679688 4.53125 -5.890625 C 4.78125 -6.097656 4.90625 -6.394531 4.90625 -6.78125 C 4.90625 -7.15625 4.785156 -7.4375 4.546875 -7.625 C 4.316406 -7.820312 4 -7.921875 3.59375 -7.921875 C 3.1875 -7.921875 2.820312 -7.820312 2.5 -7.625 C 2.175781 -7.4375 1.921875 -7.175781 1.734375 -6.84375 L 1.578125 -6.828125 L 0.609375 -7.953125 C 0.941406 -8.390625 1.363281 -8.738281 1.875 -9 C 2.382812 -9.269531 2.992188 -9.40625 3.703125 -9.40625 C 4.671875 -9.40625 5.410156 -9.203125 5.921875 -8.796875 C 6.441406 -8.390625 6.703125 -7.820312 6.703125 -7.09375 C 6.703125 -6.644531 6.597656 -6.265625 6.390625 -5.953125 C 6.179688 -5.640625 5.878906 -5.367188 5.484375 -5.140625 L 5.484375 -5 C 6.554688 -4.625 7.09375 -3.863281 7.09375 -2.71875 C 7.09375 -2.144531 6.96875 -1.644531 6.71875 -1.21875 C 6.476562 -0.789062 6.109375 -0.457031 5.609375 -0.21875 C 5.117188 0.0195312 4.507812 0.140625 3.78125 0.140625 Z M 3.78125 0.140625 "/></g></g></g><g fill="#000000" fill-opacity="1"><g transform="translate(694.304276, 276.405769)"><g><path d="M 4.53125 0.140625 C 3.769531 0.140625 3.109375 -0.0234375 2.546875 -0.359375 C 1.992188 -0.703125 1.5625 -1.226562 1.25 -1.9375 C 0.9375 -2.65625 0.78125 -3.554688 0.78125 -4.640625 C 0.78125 -5.722656 0.9375 -6.617188 1.25 -7.328125 C 1.5625 -8.046875 1.992188 -8.570312 2.546875 -8.90625 C 3.109375 -9.238281 3.769531 -9.40625 4.53125 -9.40625 C 5.289062 -9.40625 5.953125 -9.238281 6.515625 -8.90625 C 7.078125 -8.570312 7.515625 -8.046875 7.828125 -7.328125 C 8.140625 -6.617188 8.296875 -5.722656 8.296875 -4.640625 C 8.296875 -3.554688 8.140625 -2.65625 7.828125 -1.9375 C 7.515625 -1.226562 7.078125 -0.703125 6.515625 -0.359375 C 5.953125 -0.0234375 5.289062 0.140625 4.53125 0.140625 Z M 4.53125 -1.421875 C 4.945312 -1.421875 5.296875 -1.519531 5.578125 -1.71875 C 5.859375 -1.925781 6.070312 -2.265625 6.21875 -2.734375 C 6.363281 -3.210938 6.4375 -3.847656 6.4375 -4.640625 C 6.4375 -5.429688 6.363281 -6.0625 6.21875 -6.53125 C 6.070312 -7.007812 5.859375 -7.347656 5.578125 -7.546875 C 5.296875 -7.753906 4.945312 -7.859375 4.53125 -7.859375 C 4.113281 -7.859375 3.765625 -7.753906 3.484375 -7.546875 C 3.210938 -7.347656 3 -7.007812 2.84375 -6.53125 C 2.695312 -6.0625 2.625 -5.429688 2.625 -4.640625 C 2.625 -3.847656 2.695312 -3.210938 2.84375 -2.734375 C 3 -2.265625 3.210938 -1.925781 3.484375 -1.71875 C 3.765625 -1.519531 4.113281 -1.421875 4.53125 -1.421875 Z M 4.53125 -1.421875 "/></g></g></g><g fill="#000000" fill-opacity="1"><g transform="translate(703.372357, 276.405769)"><g><path d="M 0.40625 1.1875 C 0.695312 0.6875 0.941406 0.179688 1.140625 -0.328125 C 1.347656 -0.847656 1.515625 -1.429688 1.640625 -2.078125 C 1.765625 -2.722656 1.828125 -3.441406 1.828125 -4.234375 C 1.828125 -5.035156 1.765625 -5.757812 1.640625 -6.40625 C 1.515625 -7.050781 1.347656 -7.628906 1.140625 -8.140625 C 0.941406 -8.660156 0.695312 -9.175781 0.40625 -9.6875 L 0.421875 -9.8125 L 1.765625 -9.8125 C 2.128906 -9.363281 2.453125 -8.882812 2.734375 -8.375 C 3.015625 -7.875 3.242188 -7.273438 3.421875 -6.578125 C 3.597656 -5.890625 3.6875 -5.109375 3.6875 -4.234375 C 3.6875 -2.992188 3.507812 -1.929688 3.15625 -1.046875 C 2.8125 -0.171875 2.347656 0.617188 1.765625 1.328125 L 0.421875 1.328125 Z M 0.40625 1.1875 "/></g></g></g><g clip-path="url(#e076098303)"><g clip-path="url(#974be5f1ec)"><path fill="#7ed957" d="M 276.84375 139.035156 L 503.867188 139.035156 L 503.867188 173.085938 L 276.84375 173.085938 Z M 276.84375 139.035156 " fill-opacity="1" fill-rule="nonzero"/></g></g><g fill="#000000" fill-opacity="1"><g transform="translate(318.657349, 159.283842)"><g><path d="M 3.859375 0.140625 C 2.929688 0.140625 2.195312 -0.0507812 1.65625 -0.4375 C 1.113281 -0.832031 0.757812 -1.378906 0.59375 -2.078125 L 1.984375 -2.703125 L 2.140625 -2.671875 C 2.273438 -2.265625 2.472656 -1.957031 2.734375 -1.75 C 3.003906 -1.539062 3.375 -1.4375 3.84375 -1.4375 C 4.332031 -1.4375 4.707031 -1.570312 4.96875 -1.84375 C 5.226562 -2.125 5.359375 -2.535156 5.359375 -3.078125 C 5.359375 -3.617188 5.226562 -4.03125 4.96875 -4.3125 C 4.707031 -4.59375 4.351562 -4.734375 3.90625 -4.734375 C 3.5625 -4.734375 3.269531 -4.65625 3.03125 -4.5 C 2.800781 -4.351562 2.609375 -4.132812 2.453125 -3.84375 L 0.9375 -3.953125 L 1.125 -9.28125 L 6.65625 -9.28125 L 6.65625 -7.734375 L 2.671875 -7.734375 L 2.578125 -5.375 L 2.71875 -5.34375 C 2.9375 -5.625 3.191406 -5.835938 3.484375 -5.984375 C 3.785156 -6.128906 4.148438 -6.203125 4.578125 -6.203125 C 5.109375 -6.203125 5.570312 -6.082031 5.96875 -5.84375 C 6.363281 -5.613281 6.664062 -5.265625 6.875 -4.796875 C 7.09375 -4.335938 7.203125 -3.773438 7.203125 -3.109375 C 7.203125 -2.429688 7.070312 -1.847656 6.8125 -1.359375 C 6.550781 -0.878906 6.171875 -0.507812 5.671875 -0.25 C 5.171875 0.0078125 4.566406 0.140625 3.859375 0.140625 Z M 3.859375 0.140625 "/></g></g></g><g fill="#000000" fill-opacity="1"><g transform="translate(326.475311, 159.283842)"><g/></g></g><g fill="#000000" fill-opacity="1"><g transform="translate(329.540314, 159.283842)"><g><path d="M 1.796875 0.0625 C 1.566406 0.0625 1.363281 0.015625 1.1875 -0.078125 C 1.019531 -0.171875 0.890625 -0.296875 0.796875 -0.453125 C 0.710938 -0.617188 0.671875 -0.800781 0.671875 -1 C 0.671875 -1.207031 0.710938 -1.390625 0.796875 -1.546875 C 0.890625 -1.710938 1.019531 -1.835938 1.1875 -1.921875 C 1.363281 -2.015625 1.566406 -2.0625 1.796875 -2.0625 C 2.023438 -2.0625 2.222656 -2.015625 2.390625 -1.921875 C 2.554688 -1.835938 2.6875 -1.710938 2.78125 -1.546875 C 2.875 -1.390625 2.921875 -1.210938 2.921875 -1.015625 C 2.921875 -0.703125 2.816406 -0.441406 2.609375 -0.234375 C 2.398438 -0.0351562 2.128906 0.0625 1.796875 0.0625 Z M 1.796875 -4.9375 C 1.566406 -4.9375 1.363281 -4.984375 1.1875 -5.078125 C 1.019531 -5.171875 0.890625 -5.296875 0.796875 -5.453125 C 0.710938 -5.617188 0.671875 -5.800781 0.671875 -6 C 0.671875 -6.207031 0.710938 -6.390625 0.796875 -6.546875 C 0.890625 -6.710938 1.019531 -6.835938 1.1875 -6.921875 C 1.363281 -7.015625 1.566406 -7.0625 1.796875 -7.0625 C 2.023438 -7.0625 2.222656 -7.015625 2.390625 -6.921875 C 2.554688 -6.835938 2.6875 -6.710938 2.78125 -6.546875 C 2.875 -6.390625 2.921875 -6.210938 2.921875 -6.015625 C 2.921875 -5.703125 2.816406 -5.441406 2.609375 -5.234375 C 2.398438 -5.035156 2.128906 -4.9375 1.796875 -4.9375 Z M 1.796875 -4.9375 "/></g></g></g><g fill="#000000" fill-opacity="1"><g transform="translate(333.125667, 159.283842)"><g/></g></g><g fill="#000000" fill-opacity="1"><g transform="translate(336.19067, 159.283842)"><g><path d="M 5.078125 0.140625 C 4.222656 0.140625 3.46875 -0.0351562 2.8125 -0.390625 C 2.15625 -0.753906 1.644531 -1.289062 1.28125 -2 C 0.914062 -2.71875 0.734375 -3.597656 0.734375 -4.640625 C 0.734375 -5.679688 0.914062 -6.554688 1.28125 -7.265625 C 1.644531 -7.984375 2.15625 -8.519531 2.8125 -8.875 C 3.46875 -9.226562 4.222656 -9.40625 5.078125 -9.40625 C 5.960938 -9.40625 6.71875 -9.226562 7.34375 -8.875 C 7.96875 -8.53125 8.414062 -8.003906 8.6875 -7.296875 L 7.34375 -6.46875 L 7.1875 -6.484375 C 6.988281 -6.960938 6.71875 -7.304688 6.375 -7.515625 C 6.03125 -7.722656 5.597656 -7.828125 5.078125 -7.828125 C 4.304688 -7.828125 3.703125 -7.570312 3.265625 -7.0625 C 2.835938 -6.550781 2.625 -5.742188 2.625 -4.640625 C 2.625 -3.535156 2.835938 -2.726562 3.265625 -2.21875 C 3.703125 -1.707031 4.304688 -1.453125 5.078125 -1.453125 C 6.273438 -1.453125 7.007812 -2.039062 7.28125 -3.21875 L 7.453125 -3.21875 L 8.796875 -2.5 C 8.546875 -1.625 8.113281 -0.960938 7.5 -0.515625 C 6.882812 -0.078125 6.078125 0.140625 5.078125 0.140625 Z M 5.078125 0.140625 "/></g></g></g><g fill="#000000" fill-opacity="1"><g transform="translate(345.290473, 159.283842)"><g><path d="M 5.0625 0.140625 C 4.207031 0.140625 3.453125 -0.03125 2.796875 -0.375 C 2.148438 -0.726562 1.644531 -1.257812 1.28125 -1.96875 C 0.914062 -2.6875 0.734375 -3.578125 0.734375 -4.640625 C 0.734375 -5.703125 0.914062 -6.585938 1.28125 -7.296875 C 1.644531 -8.015625 2.148438 -8.546875 2.796875 -8.890625 C 3.453125 -9.234375 4.207031 -9.40625 5.0625 -9.40625 C 5.90625 -9.40625 6.648438 -9.234375 7.296875 -8.890625 C 7.953125 -8.546875 8.460938 -8.015625 8.828125 -7.296875 C 9.191406 -6.585938 9.375 -5.703125 9.375 -4.640625 C 9.375 -3.578125 9.191406 -2.6875 8.828125 -1.96875 C 8.460938 -1.257812 7.953125 -0.726562 7.296875 -0.375 C 6.648438 -0.03125 5.90625 0.140625 5.0625 0.140625 Z M 5.0625 -1.453125 C 5.84375 -1.453125 6.441406 -1.707031 6.859375 -2.21875 C 7.273438 -2.726562 7.484375 -3.535156 7.484375 -4.640625 C 7.484375 -5.742188 7.273438 -6.550781 6.859375 -7.0625 C 6.441406 -7.570312 5.84375 -7.828125 5.0625 -7.828125 C 4.269531 -7.828125 3.664062 -7.570312 3.25 -7.0625 C 2.832031 -6.550781 2.625 -5.742188 2.625 -4.640625 C 2.625 -3.535156 2.832031 -2.726562 3.25 -2.21875 C 3.664062 -1.707031 4.269531 -1.453125 5.0625 -1.453125 Z M 5.0625 -1.453125 "/></g></g></g><g fill="#000000" fill-opacity="1"><g transform="translate(355.399257, 159.283842)"><g><path d="M 2.890625 0 L 1.203125 0 L 1.203125 -9.28125 L 3.609375 -9.28125 L 5.953125 -2.453125 L 6.09375 -2.453125 L 8.421875 -9.28125 L 10.765625 -9.28125 L 10.765625 0 L 9.03125 0 L 9.03125 -6.125 L 8.875 -6.15625 L 6.71875 0 L 5.1875 0 L 3.046875 -6.15625 L 2.890625 -6.125 Z M 2.890625 0 "/></g></g></g><g fill="#000000" fill-opacity="1"><g transform="translate(367.37369, 159.283842)"><g><path d="M 2.890625 0 L 1.203125 0 L 1.203125 -9.28125 L 3.609375 -9.28125 L 5.953125 -2.453125 L 6.09375 -2.453125 L 8.421875 -9.28125 L 10.765625 -9.28125 L 10.765625 0 L 9.03125 0 L 9.03125 -6.125 L 8.875 -6.15625 L 6.71875 0 L 5.1875 0 L 3.046875 -6.15625 L 2.890625 -6.125 Z M 2.890625 0 "/></g></g></g><g fill="#000000" fill-opacity="1"><g transform="translate(379.348123, 159.283842)"><g><path d="M 3.046875 0 L 1.203125 0 L 1.203125 -9.28125 L 3.046875 -9.28125 Z M 3.046875 0 "/></g></g></g><g fill="#000000" fill-opacity="1"><g transform="translate(383.599775, 159.283842)"><g><path d="M 7.4375 -9.28125 L 7.4375 -7.734375 L 4.765625 -7.734375 L 4.765625 0 L 2.9375 0 L 2.9375 -7.734375 L 0.25 -7.734375 L 0.25 -9.28125 Z M 7.4375 -9.28125 "/></g></g></g><g fill="#000000" fill-opacity="1"><g transform="translate(391.290822, 159.283842)"><g/></g></g><g fill="#000000" fill-opacity="1"><g transform="translate(394.355825, 159.283842)"><g><path d="M 1.703125 1.328125 L 0.03125 1.328125 L 3.5 -9.8125 L 5.171875 -9.8125 Z M 1.703125 1.328125 "/></g></g></g><g fill="#000000" fill-opacity="1"><g transform="translate(399.806828, 159.283842)"><g/></g></g><g fill="#000000" fill-opacity="1"><g transform="translate(402.871831, 159.283842)"><g><path d="M 4.109375 0.140625 C 3.472656 0.140625 2.898438 0.0625 2.390625 -0.09375 C 1.890625 -0.257812 1.472656 -0.472656 1.140625 -0.734375 C 0.804688 -0.992188 0.550781 -1.273438 0.375 -1.578125 L 1.390625 -2.8125 L 1.546875 -2.8125 C 1.828125 -2.394531 2.179688 -2.0625 2.609375 -1.8125 C 3.035156 -1.570312 3.535156 -1.453125 4.109375 -1.453125 C 4.597656 -1.453125 4.96875 -1.554688 5.21875 -1.765625 C 5.46875 -1.972656 5.59375 -2.257812 5.59375 -2.625 C 5.59375 -2.84375 5.550781 -3.023438 5.46875 -3.171875 C 5.394531 -3.316406 5.265625 -3.441406 5.078125 -3.546875 C 4.890625 -3.660156 4.640625 -3.753906 4.328125 -3.828125 L 3.125 -4.09375 C 2.289062 -4.289062 1.671875 -4.609375 1.265625 -5.046875 C 0.859375 -5.492188 0.65625 -6.066406 0.65625 -6.765625 C 0.65625 -7.296875 0.785156 -7.757812 1.046875 -8.15625 C 1.304688 -8.550781 1.6875 -8.859375 2.1875 -9.078125 C 2.695312 -9.296875 3.300781 -9.40625 4 -9.40625 C 4.707031 -9.40625 5.316406 -9.3125 5.828125 -9.125 C 6.335938 -8.9375 6.769531 -8.648438 7.125 -8.265625 L 6.21875 -7.015625 L 6.0625 -7.015625 C 5.789062 -7.296875 5.484375 -7.503906 5.140625 -7.640625 C 4.804688 -7.773438 4.425781 -7.84375 4 -7.84375 C 3.488281 -7.84375 3.101562 -7.753906 2.84375 -7.578125 C 2.582031 -7.398438 2.453125 -7.15625 2.453125 -6.84375 C 2.453125 -6.550781 2.539062 -6.316406 2.71875 -6.140625 C 2.90625 -5.972656 3.226562 -5.835938 3.6875 -5.734375 L 4.90625 -5.484375 C 5.800781 -5.296875 6.453125 -4.972656 6.859375 -4.515625 C 7.265625 -4.054688 7.46875 -3.460938 7.46875 -2.734375 C 7.46875 -2.148438 7.34375 -1.644531 7.09375 -1.21875 C 6.84375 -0.789062 6.46875 -0.457031 5.96875 -0.21875 C 5.46875 0.0195312 4.847656 0.140625 4.109375 0.140625 Z M 4.109375 0.140625 "/></g></g></g><g fill="#000000" fill-opacity="1"><g transform="translate(410.842091, 159.283842)"><g><path d="M 4.921875 0.140625 C 3.640625 0.140625 2.691406 -0.160156 2.078125 -0.765625 C 1.460938 -1.378906 1.15625 -2.285156 1.15625 -3.484375 L 1.15625 -9.28125 L 2.953125 -9.28125 L 2.953125 -3.484375 C 2.953125 -2.804688 3.113281 -2.296875 3.4375 -1.953125 C 3.757812 -1.617188 4.253906 -1.453125 4.921875 -1.453125 C 6.234375 -1.453125 6.890625 -2.128906 6.890625 -3.484375 L 6.890625 -9.28125 L 8.6875 -9.28125 L 8.6875 -3.484375 C 8.6875 -2.285156 8.378906 -1.378906 7.765625 -0.765625 C 7.148438 -0.160156 6.203125 0.140625 4.921875 0.140625 Z M 4.921875 0.140625 "/></g></g></g><g fill="#000000" fill-opacity="1"><g transform="translate(420.678001, 159.283842)"><g><path d="M 5.078125 0.140625 C 4.222656 0.140625 3.46875 -0.0351562 2.8125 -0.390625 C 2.15625 -0.753906 1.644531 -1.289062 1.28125 -2 C 0.914062 -2.71875 0.734375 -3.597656 0.734375 -4.640625 C 0.734375 -5.679688 0.914062 -6.554688 1.28125 -7.265625 C 1.644531 -7.984375 2.15625 -8.519531 2.8125 -8.875 C 3.46875 -9.226562 4.222656 -9.40625 5.078125 -9.40625 C 5.960938 -9.40625 6.71875 -9.226562 7.34375 -8.875 C 7.96875 -8.53125 8.414062 -8.003906 8.6875 -7.296875 L 7.34375 -6.46875 L 7.1875 -6.484375 C 6.988281 -6.960938 6.71875 -7.304688 6.375 -7.515625 C 6.03125 -7.722656 5.597656 -7.828125 5.078125 -7.828125 C 4.304688 -7.828125 3.703125 -7.570312 3.265625 -7.0625 C 2.835938 -6.550781 2.625 -5.742188 2.625 -4.640625 C 2.625 -3.535156 2.835938 -2.726562 3.265625 -2.21875 C 3.703125 -1.707031 4.304688 -1.453125 5.078125 -1.453125 C 6.273438 -1.453125 7.007812 -2.039062 7.28125 -3.21875 L 7.453125 -3.21875 L 8.796875 -2.5 C 8.546875 -1.625 8.113281 -0.960938 7.5 -0.515625 C 6.882812 -0.078125 6.078125 0.140625 5.078125 0.140625 Z M 5.078125 0.140625 "/></g></g></g><g fill="#000000" fill-opacity="1"><g transform="translate(429.777805, 159.283842)"><g><path d="M 5.078125 0.140625 C 4.222656 0.140625 3.46875 -0.0351562 2.8125 -0.390625 C 2.15625 -0.753906 1.644531 -1.289062 1.28125 -2 C 0.914062 -2.71875 0.734375 -3.597656 0.734375 -4.640625 C 0.734375 -5.679688 0.914062 -6.554688 1.28125 -7.265625 C 1.644531 -7.984375 2.15625 -8.519531 2.8125 -8.875 C 3.46875 -9.226562 4.222656 -9.40625 5.078125 -9.40625 C 5.960938 -9.40625 6.71875 -9.226562 7.34375 -8.875 C 7.96875 -8.53125 8.414062 -8.003906 8.6875 -7.296875 L 7.34375 -6.46875 L 7.1875 -6.484375 C 6.988281 -6.960938 6.71875 -7.304688 6.375 -7.515625 C 6.03125 -7.722656 5.597656 -7.828125 5.078125 -7.828125 C 4.304688 -7.828125 3.703125 -7.570312 3.265625 -7.0625 C 2.835938 -6.550781 2.625 -5.742188 2.625 -4.640625 C 2.625 -3.535156 2.835938 -2.726562 3.265625 -2.21875 C 3.703125 -1.707031 4.304688 -1.453125 5.078125 -1.453125 C 6.273438 -1.453125 7.007812 -2.039062 7.28125 -3.21875 L 7.453125 -3.21875 L 8.796875 -2.5 C 8.546875 -1.625 8.113281 -0.960938 7.5 -0.515625 C 6.882812 -0.078125 6.078125 0.140625 5.078125 0.140625 Z M 5.078125 0.140625 "/></g></g></g><g fill="#000000" fill-opacity="1"><g transform="translate(438.877609, 159.283842)"><g><path d="M 3.046875 -4.078125 L 3.046875 -1.53125 L 7.46875 -1.53125 L 7.46875 0 L 1.203125 0 L 1.203125 -9.28125 L 7.375 -9.28125 L 7.375 -7.75 L 3.046875 -7.75 L 3.046875 -5.578125 L 6.828125 -5.578125 L 6.828125 -4.078125 Z M 3.046875 -4.078125 "/></g></g></g><g fill="#000000" fill-opacity="1"><g transform="translate(446.85422, 159.283842)"><g><path d="M 4.109375 0.140625 C 3.472656 0.140625 2.898438 0.0625 2.390625 -0.09375 C 1.890625 -0.257812 1.472656 -0.472656 1.140625 -0.734375 C 0.804688 -0.992188 0.550781 -1.273438 0.375 -1.578125 L 1.390625 -2.8125 L 1.546875 -2.8125 C 1.828125 -2.394531 2.179688 -2.0625 2.609375 -1.8125 C 3.035156 -1.570312 3.535156 -1.453125 4.109375 -1.453125 C 4.597656 -1.453125 4.96875 -1.554688 5.21875 -1.765625 C 5.46875 -1.972656 5.59375 -2.257812 5.59375 -2.625 C 5.59375 -2.84375 5.550781 -3.023438 5.46875 -3.171875 C 5.394531 -3.316406 5.265625 -3.441406 5.078125 -3.546875 C 4.890625 -3.660156 4.640625 -3.753906 4.328125 -3.828125 L 3.125 -4.09375 C 2.289062 -4.289062 1.671875 -4.609375 1.265625 -5.046875 C 0.859375 -5.492188 0.65625 -6.066406 0.65625 -6.765625 C 0.65625 -7.296875 0.785156 -7.757812 1.046875 -8.15625 C 1.304688 -8.550781 1.6875 -8.859375 2.1875 -9.078125 C 2.695312 -9.296875 3.300781 -9.40625 4 -9.40625 C 4.707031 -9.40625 5.316406 -9.3125 5.828125 -9.125 C 6.335938 -8.9375 6.769531 -8.648438 7.125 -8.265625 L 6.21875 -7.015625 L 6.0625 -7.015625 C 5.789062 -7.296875 5.484375 -7.503906 5.140625 -7.640625 C 4.804688 -7.773438 4.425781 -7.84375 4 -7.84375 C 3.488281 -7.84375 3.101562 -7.753906 2.84375 -7.578125 C 2.582031 -7.398438 2.453125 -7.15625 2.453125 -6.84375 C 2.453125 -6.550781 2.539062 -6.316406 2.71875 -6.140625 C 2.90625 -5.972656 3.226562 -5.835938 3.6875 -5.734375 L 4.90625 -5.484375 C 5.800781 -5.296875 6.453125 -4.972656 6.859375 -4.515625 C 7.265625 -4.054688 7.46875 -3.460938 7.46875 -2.734375 C 7.46875 -2.148438 7.34375 -1.644531 7.09375 -1.21875 C 6.84375 -0.789062 6.46875 -0.457031 5.96875 -0.21875 C 5.46875 0.0195312 4.847656 0.140625 4.109375 0.140625 Z M 4.109375 0.140625 "/></g></g></g><g fill="#000000" fill-opacity="1"><g transform="translate(454.824481, 159.283842)"><g><path d="M 4.109375 0.140625 C 3.472656 0.140625 2.898438 0.0625 2.390625 -0.09375 C 1.890625 -0.257812 1.472656 -0.472656 1.140625 -0.734375 C 0.804688 -0.992188 0.550781 -1.273438 0.375 -1.578125 L 1.390625 -2.8125 L 1.546875 -2.8125 C 1.828125 -2.394531 2.179688 -2.0625 2.609375 -1.8125 C 3.035156 -1.570312 3.535156 -1.453125 4.109375 -1.453125 C 4.597656 -1.453125 4.96875 -1.554688 5.21875 -1.765625 C 5.46875 -1.972656 5.59375 -2.257812 5.59375 -2.625 C 5.59375 -2.84375 5.550781 -3.023438 5.46875 -3.171875 C 5.394531 -3.316406 5.265625 -3.441406 5.078125 -3.546875 C 4.890625 -3.660156 4.640625 -3.753906 4.328125 -3.828125 L 3.125 -4.09375 C 2.289062 -4.289062 1.671875 -4.609375 1.265625 -5.046875 C 0.859375 -5.492188 0.65625 -6.066406 0.65625 -6.765625 C 0.65625 -7.296875 0.785156 -7.757812 1.046875 -8.15625 C 1.304688 -8.550781 1.6875 -8.859375 2.1875 -9.078125 C 2.695312 -9.296875 3.300781 -9.40625 4 -9.40625 C 4.707031 -9.40625 5.316406 -9.3125 5.828125 -9.125 C 6.335938 -8.9375 6.769531 -8.648438 7.125 -8.265625 L 6.21875 -7.015625 L 6.0625 -7.015625 C 5.789062 -7.296875 5.484375 -7.503906 5.140625 -7.640625 C 4.804688 -7.773438 4.425781 -7.84375 4 -7.84375 C 3.488281 -7.84375 3.101562 -7.753906 2.84375 -7.578125 C 2.582031 -7.398438 2.453125 -7.15625 2.453125 -6.84375 C 2.453125 -6.550781 2.539062 -6.316406 2.71875 -6.140625 C 2.90625 -5.972656 3.226562 -5.835938 3.6875 -5.734375 L 4.90625 -5.484375 C 5.800781 -5.296875 6.453125 -4.972656 6.859375 -4.515625 C 7.265625 -4.054688 7.46875 -3.460938 7.46875 -2.734375 C 7.46875 -2.148438 7.34375 -1.644531 7.09375 -1.21875 C 6.84375 -0.789062 6.46875 -0.457031 5.96875 -0.21875 C 5.46875 0.0195312 4.847656 0.140625 4.109375 0.140625 Z M 4.109375 0.140625 "/></g></g></g><g clip-path="url(#36a8549542)"><g clip-path="url(#9157947215)"><path fill="#efcea1" d="M 536.941406 311.484375 L 737.488281 311.484375 L 737.488281 345.863281 L 536.941406 345.863281 Z M 536.941406 311.484375 " fill-opacity="1" fill-rule="nonzero"/></g></g><g fill="#000000" fill-opacity="1"><g transform="translate(600.385239, 331.735201)"><g><path d="M 4.4375 0.140625 C 3.738281 0.140625 3.113281 -0.0195312 2.5625 -0.34375 C 2.019531 -0.664062 1.585938 -1.175781 1.265625 -1.875 C 0.941406 -2.582031 0.78125 -3.472656 0.78125 -4.546875 C 0.78125 -5.648438 0.945312 -6.5625 1.28125 -7.28125 C 1.625 -8.007812 2.085938 -8.546875 2.671875 -8.890625 C 3.265625 -9.234375 3.9375 -9.40625 4.6875 -9.40625 C 5.320312 -9.40625 5.863281 -9.316406 6.3125 -9.140625 C 6.769531 -8.960938 7.125 -8.691406 7.375 -8.328125 L 6.484375 -7.171875 L 6.328125 -7.171875 C 5.941406 -7.640625 5.394531 -7.875 4.6875 -7.875 C 3.363281 -7.875 2.691406 -6.90625 2.671875 -4.96875 L 2.796875 -4.921875 C 3.015625 -5.316406 3.300781 -5.617188 3.65625 -5.828125 C 4.007812 -6.046875 4.453125 -6.15625 4.984375 -6.15625 C 5.566406 -6.15625 6.066406 -6.03125 6.484375 -5.78125 C 6.898438 -5.539062 7.21875 -5.191406 7.4375 -4.734375 C 7.664062 -4.285156 7.78125 -3.75 7.78125 -3.125 C 7.78125 -2.445312 7.644531 -1.863281 7.375 -1.375 C 7.101562 -0.882812 6.71875 -0.507812 6.21875 -0.25 C 5.71875 0.0078125 5.125 0.140625 4.4375 0.140625 Z M 4.40625 -1.4375 C 4.875 -1.4375 5.242188 -1.578125 5.515625 -1.859375 C 5.785156 -2.140625 5.921875 -2.535156 5.921875 -3.046875 C 5.921875 -3.546875 5.785156 -3.9375 5.515625 -4.21875 C 5.242188 -4.5 4.875 -4.640625 4.40625 -4.640625 C 4.082031 -4.640625 3.800781 -4.570312 3.5625 -4.4375 C 3.332031 -4.3125 3.15625 -4.128906 3.03125 -3.890625 C 2.90625 -3.648438 2.84375 -3.367188 2.84375 -3.046875 C 2.84375 -2.546875 2.976562 -2.148438 3.25 -1.859375 C 3.53125 -1.578125 3.914062 -1.4375 4.40625 -1.4375 Z M 4.40625 -1.4375 "/></g></g></g><g fill="#000000" fill-opacity="1"><g transform="translate(608.812394, 331.735201)"><g/></g></g><g fill="#000000" fill-opacity="1"><g transform="translate(611.877396, 331.735201)"><g><path d="M 1.796875 0.0625 C 1.566406 0.0625 1.363281 0.015625 1.1875 -0.078125 C 1.019531 -0.171875 0.890625 -0.296875 0.796875 -0.453125 C 0.710938 -0.617188 0.671875 -0.800781 0.671875 -1 C 0.671875 -1.207031 0.710938 -1.390625 0.796875 -1.546875 C 0.890625 -1.710938 1.019531 -1.835938 1.1875 -1.921875 C 1.363281 -2.015625 1.566406 -2.0625 1.796875 -2.0625 C 2.023438 -2.0625 2.222656 -2.015625 2.390625 -1.921875 C 2.554688 -1.835938 2.6875 -1.710938 2.78125 -1.546875 C 2.875 -1.390625 2.921875 -1.210938 2.921875 -1.015625 C 2.921875 -0.703125 2.816406 -0.441406 2.609375 -0.234375 C 2.398438 -0.0351562 2.128906 0.0625 1.796875 0.0625 Z M 1.796875 -4.9375 C 1.566406 -4.9375 1.363281 -4.984375 1.1875 -5.078125 C 1.019531 -5.171875 0.890625 -5.296875 0.796875 -5.453125 C 0.710938 -5.617188 0.671875 -5.800781 0.671875 -6 C 0.671875 -6.207031 0.710938 -6.390625 0.796875 -6.546875 C 0.890625 -6.710938 1.019531 -6.835938 1.1875 -6.921875 C 1.363281 -7.015625 1.566406 -7.0625 1.796875 -7.0625 C 2.023438 -7.0625 2.222656 -7.015625 2.390625 -6.921875 C 2.554688 -6.835938 2.6875 -6.710938 2.78125 -6.546875 C 2.875 -6.390625 2.921875 -6.210938 2.921875 -6.015625 C 2.921875 -5.703125 2.816406 -5.441406 2.609375 -5.234375 C 2.398438 -5.035156 2.128906 -4.9375 1.796875 -4.9375 Z M 1.796875 -4.9375 "/></g></g></g><g fill="#000000" fill-opacity="1"><g transform="translate(615.46275, 331.735201)"><g/></g></g><g fill="#000000" fill-opacity="1"><g transform="translate(618.527752, 331.735201)"><g><path d="M 5.078125 0.140625 C 4.222656 0.140625 3.46875 -0.0351562 2.8125 -0.390625 C 2.15625 -0.753906 1.644531 -1.289062 1.28125 -2 C 0.914062 -2.71875 0.734375 -3.597656 0.734375 -4.640625 C 0.734375 -5.679688 0.914062 -6.554688 1.28125 -7.265625 C 1.644531 -7.984375 2.15625 -8.519531 2.8125 -8.875 C 3.46875 -9.226562 4.222656 -9.40625 5.078125 -9.40625 C 5.960938 -9.40625 6.71875 -9.226562 7.34375 -8.875 C 7.96875 -8.53125 8.414062 -8.003906 8.6875 -7.296875 L 7.34375 -6.46875 L 7.1875 -6.484375 C 6.988281 -6.960938 6.71875 -7.304688 6.375 -7.515625 C 6.03125 -7.722656 5.597656 -7.828125 5.078125 -7.828125 C 4.304688 -7.828125 3.703125 -7.570312 3.265625 -7.0625 C 2.835938 -6.550781 2.625 -5.742188 2.625 -4.640625 C 2.625 -3.535156 2.835938 -2.726562 3.265625 -2.21875 C 3.703125 -1.707031 4.304688 -1.453125 5.078125 -1.453125 C 6.273438 -1.453125 7.007812 -2.039062 7.28125 -3.21875 L 7.453125 -3.21875 L 8.796875 -2.5 C 8.546875 -1.625 8.113281 -0.960938 7.5 -0.515625 C 6.882812 -0.078125 6.078125 0.140625 5.078125 0.140625 Z M 5.078125 0.140625 "/></g></g></g><g fill="#000000" fill-opacity="1"><g transform="translate(627.627556, 331.735201)"><g><path d="M 5.0625 0.140625 C 4.207031 0.140625 3.453125 -0.03125 2.796875 -0.375 C 2.148438 -0.726562 1.644531 -1.257812 1.28125 -1.96875 C 0.914062 -2.6875 0.734375 -3.578125 0.734375 -4.640625 C 0.734375 -5.703125 0.914062 -6.585938 1.28125 -7.296875 C 1.644531 -8.015625 2.148438 -8.546875 2.796875 -8.890625 C 3.453125 -9.234375 4.207031 -9.40625 5.0625 -9.40625 C 5.90625 -9.40625 6.648438 -9.234375 7.296875 -8.890625 C 7.953125 -8.546875 8.460938 -8.015625 8.828125 -7.296875 C 9.191406 -6.585938 9.375 -5.703125 9.375 -4.640625 C 9.375 -3.578125 9.191406 -2.6875 8.828125 -1.96875 C 8.460938 -1.257812 7.953125 -0.726562 7.296875 -0.375 C 6.648438 -0.03125 5.90625 0.140625 5.0625 0.140625 Z M 5.0625 -1.453125 C 5.84375 -1.453125 6.441406 -1.707031 6.859375 -2.21875 C 7.273438 -2.726562 7.484375 -3.535156 7.484375 -4.640625 C 7.484375 -5.742188 7.273438 -6.550781 6.859375 -7.0625 C 6.441406 -7.570312 5.84375 -7.828125 5.0625 -7.828125 C 4.269531 -7.828125 3.664062 -7.570312 3.25 -7.0625 C 2.832031 -6.550781 2.625 -5.742188 2.625 -4.640625 C 2.625 -3.535156 2.832031 -2.726562 3.25 -2.21875 C 3.664062 -1.707031 4.269531 -1.453125 5.0625 -1.453125 Z M 5.0625 -1.453125 "/></g></g></g><g fill="#000000" fill-opacity="1"><g transform="translate(637.736339, 331.735201)"><g><path d="M 2.890625 0 L 1.203125 0 L 1.203125 -9.28125 L 3.609375 -9.28125 L 5.953125 -2.453125 L 6.09375 -2.453125 L 8.421875 -9.28125 L 10.765625 -9.28125 L 10.765625 0 L 9.03125 0 L 9.03125 -6.125 L 8.875 -6.15625 L 6.71875 0 L 5.1875 0 L 3.046875 -6.15625 L 2.890625 -6.125 Z M 2.890625 0 "/></g></g></g><g fill="#000000" fill-opacity="1"><g transform="translate(649.710772, 331.735201)"><g><path d="M 2.890625 0 L 1.203125 0 L 1.203125 -9.28125 L 3.609375 -9.28125 L 5.953125 -2.453125 L 6.09375 -2.453125 L 8.421875 -9.28125 L 10.765625 -9.28125 L 10.765625 0 L 9.03125 0 L 9.03125 -6.125 L 8.875 -6.15625 L 6.71875 0 L 5.1875 0 L 3.046875 -6.15625 L 2.890625 -6.125 Z M 2.890625 0 "/></g></g></g><g fill="#000000" fill-opacity="1"><g transform="translate(661.685206, 331.735201)"><g><path d="M 3.046875 0 L 1.203125 0 L 1.203125 -9.28125 L 3.046875 -9.28125 Z M 3.046875 0 "/></g></g></g><g fill="#000000" fill-opacity="1"><g transform="translate(665.936857, 331.735201)"><g><path d="M 7.4375 -9.28125 L 7.4375 -7.734375 L 4.765625 -7.734375 L 4.765625 0 L 2.9375 0 L 2.9375 -7.734375 L 0.25 -7.734375 L 0.25 -9.28125 Z M 7.4375 -9.28125 "/></g></g></g><path stroke-linecap="butt" transform="matrix(0.749603, 0.00180802, -0.00180898, 0.749998, 216.960152, 462.718369)" fill="none" stroke-linejoin="miter" d="M -0.00174839 1.000516 L 444.233414 1.002516 " stroke="#545454" stroke-width="2" stroke-opacity="1" stroke-miterlimit="4"/><path stroke-linecap="round" transform="matrix(1.499206, 0.00361605, -0.00361795, 1.499996, 550.707865, 464.273329)" fill="none" stroke-linejoin="round" d="M -2.500287 -1.499113 L -0.500818 0.00127989 L -2.500864 1.500897 " stroke="#545454" stroke-width="1" stroke-opacity="1" stroke-miterlimit="4"/></svg>