<svg width="44" height="43" viewBox="0 0 44 43" fill="none" xmlns="http://www.w3.org/2000/svg">
<path fill-rule="evenodd" clip-rule="evenodd" d="M0.0022436 7.99681C0.0776053 3.36595 8.11781 0 17.9184 0C27.7652 0 35.8351 3.39782 35.8351 8.0625C35.8351 8.10195 35.8345 8.14132 35.8333 8.18059V16.125C35.8333 16.6198 35.4322 17.0208 34.9375 17.0208C34.4977 17.0208 34.1319 16.7039 34.0561 16.286L34.0417 16.125V11.6674C31.1293 14.3771 24.9809 16.125 17.9184 16.125C10.8531 16.125 4.70264 14.3757 1.79167 11.6642V15.2292C1.79167 18.4813 8.96241 21.5 17.9167 21.5C18.5183 21.5 19.0989 21.4874 19.6677 21.4615C20.1619 21.439 20.5808 21.8215 20.6032 22.3157C20.6257 22.81 20.2433 23.2289 19.749 23.2513C19.1526 23.2784 18.5449 23.2917 17.9167 23.2917C15.4548 23.2917 13.1041 23.0794 10.9629 22.688L9.9898 22.4948C6.43067 21.7302 3.53249 20.4536 1.79167 18.833V23.2917C1.79167 26.5438 8.96241 29.5625 17.9167 29.5625C18.5183 29.5625 19.0989 29.5499 19.6677 29.524C20.1619 29.5015 20.5808 29.884 20.6032 30.3782C20.6257 30.8725 20.2433 31.2914 19.749 31.3138C19.1526 31.3409 18.5449 31.3542 17.9167 31.3542C15.4548 31.3542 13.1041 31.1419 10.9629 30.7505L9.9898 30.5573C6.43067 29.7927 3.53249 28.5161 1.79167 26.8955V31.3524C1.79167 34.6045 8.96241 37.6232 17.9167 37.6232C18.5197 37.6232 19.1035 37.6105 19.6674 37.5847C20.1616 37.5621 20.5806 37.9445 20.6032 38.4387C20.6258 38.9329 20.2435 39.3519 19.7493 39.3745C19.1574 39.4016 18.5463 39.4149 17.9167 39.4149C15.4548 39.4149 13.1041 39.2026 10.9629 38.8112L9.9898 38.618C4.24499 37.3838 0.222162 34.8158 0.00890794 31.6201L0 31.3524V23.2917V15.2292V8.06071C0 8.03922 0.000756255 8.01792 0.0022436 7.99681ZM17.9185 1.79167C26.828 1.79167 33.9725 4.78132 34.0429 8.01429C34.0421 8.03025 34.0417 8.04633 34.0417 8.0625V8.15178C33.9119 11.369 26.7903 14.3333 17.9185 14.3333C8.96461 14.3333 1.79346 11.3139 1.79346 8.0625C1.79346 4.8111 8.96461 1.79167 17.9185 1.79167Z" fill="#0B1117"/>
<path fill-rule="evenodd" clip-rule="evenodd" d="M33.3467 21.9036C32.523 21.9036 31.7884 22.4219 31.5123 23.1979L31.1503 24.2155C31.0488 24.4996 30.8314 24.728 30.5521 24.8435C30.2728 24.959 29.9576 24.951 29.6846 24.8213L28.7088 24.358C27.9656 24.0016 27.0766 24.1535 26.4926 24.7375C25.9087 25.3214 25.7568 26.2104 26.1139 26.9551L26.5765 27.9294C26.706 28.2023 26.7139 28.5175 26.5982 28.7967C26.4824 29.0759 26.2539 29.293 25.9691 29.3943L24.9515 29.7563C24.175 30.0319 23.656 30.7669 23.656 31.5911C23.656 32.4154 24.175 33.1503 24.9518 33.426L25.9691 33.7879C26.2544 33.8892 26.4832 34.1066 26.5989 34.3861C26.7147 34.6656 26.7066 34.981 26.5766 35.2542L26.1132 36.2302C25.7568 36.9735 25.9087 37.8624 26.4926 38.4464C27.0766 39.0304 27.9656 39.1822 28.7103 38.8252L29.6832 38.3624C29.9565 38.2324 30.2721 38.2243 30.5518 38.3401C30.8314 38.4559 31.0489 38.6847 31.1503 38.9699L31.5123 39.9875C31.7884 40.7636 32.523 41.2819 33.3467 41.2819C34.1704 41.2819 34.905 40.7636 35.1811 39.9876L35.5431 38.9699C35.6444 38.6847 35.8618 38.4559 36.1412 38.3401C36.4207 38.2243 36.7362 38.2324 37.0094 38.3624L37.9854 38.8259C38.7291 39.1811 39.617 39.0287 40.2004 38.4453C40.7839 37.8618 40.9362 36.9739 40.5806 36.2294L40.1157 35.2553C39.986 34.9826 39.9779 34.6672 40.0937 34.3877C40.2094 34.1082 40.4382 33.8909 40.7233 33.7896L41.7411 33.4275C42.5176 33.1519 43.0366 32.417 43.0366 31.5927C43.0366 30.7685 42.5176 30.0335 41.7408 29.7578L40.7235 29.3959C40.4382 29.2946 40.2094 29.0773 40.0937 28.7978C39.9779 28.5183 39.986 28.2028 40.116 27.9297L40.5808 26.9541C40.9362 26.2099 40.7839 25.322 40.2004 24.7386C39.617 24.1551 38.7291 24.0028 37.9845 24.3584L37.0091 24.8232C36.7362 24.953 36.4207 24.9611 36.1412 24.8454C35.8618 24.7296 35.6444 24.5008 35.5432 24.2157L35.1811 23.1979C34.905 22.4219 34.1704 21.9036 33.3467 21.9036ZM33.3467 22.7811C33.7992 22.7811 34.2027 23.0658 34.3543 23.4921L34.7163 24.5096C34.9006 25.0286 35.2964 25.4453 35.8054 25.6561C36.3144 25.867 36.8889 25.8522 37.3864 25.6155L38.3624 25.1504C38.7717 24.9549 39.2594 25.0386 39.5799 25.3591C39.9004 25.6796 39.9841 26.1673 39.7888 26.5763L39.3236 27.5524C39.0868 28.0501 39.0721 28.6246 39.2829 29.1336C39.4938 29.6426 39.9104 30.0384 40.4296 30.2228L41.447 30.5847C41.874 30.7363 42.159 31.14 42.159 31.5927C42.159 32.0455 41.874 32.4492 41.4473 32.6006L40.4294 32.9627C39.9104 33.1471 39.4938 33.5429 39.2829 34.0518C39.0721 34.5608 39.0868 35.1353 39.3235 35.6328L39.7887 36.6075C39.9841 37.0165 39.9004 37.5042 39.5799 37.8247C39.2594 38.1452 38.7717 38.2289 38.3627 38.0336L37.3861 37.5698C36.8889 37.3333 36.3144 37.3185 35.8054 37.5294C35.2964 37.7402 34.9006 38.1569 34.7162 38.676L34.3543 39.6934C34.2027 40.1196 33.7992 40.4043 33.3467 40.4043C32.8943 40.4043 32.4908 40.1196 32.3391 39.6934L31.9771 38.6758C31.7925 38.1567 31.3966 37.7401 30.8875 37.5293C30.3784 37.3185 29.8038 37.3333 29.3063 37.5699L28.3321 38.0333C27.922 38.2299 27.4338 38.1466 27.1132 37.8259C26.7925 37.5052 26.7091 37.0171 26.9052 36.6082L27.3692 35.6309C27.6058 35.1337 27.6205 34.5592 27.4097 34.0502C27.1988 33.5412 26.7822 33.1455 26.263 32.9611L25.2456 32.5991C24.8186 32.4476 24.5336 32.0439 24.5336 31.5911C24.5336 31.1384 24.8186 30.7347 25.2453 30.5832L26.2632 30.2211C26.7818 30.0366 27.198 29.6412 27.4088 29.1327C27.6196 28.6243 27.6052 28.0503 27.3693 27.5531L26.9059 26.5772C26.7091 26.1668 26.7925 25.6786 27.1132 25.358C27.4338 25.0373 27.922 24.9539 28.3309 25.15L29.3081 25.614C29.8052 25.8501 30.379 25.8648 30.8875 25.6544C31.396 25.4441 31.7918 25.0284 31.9769 24.5102L32.3391 23.4921C32.4908 23.0658 32.8943 22.7811 33.3467 22.7811ZM33.3463 27.5341C31.1048 27.5341 29.2876 29.3512 29.2876 31.5927C29.2876 33.8343 31.1048 35.6514 33.3463 35.6514C35.5878 35.6514 37.405 33.8343 37.405 31.5927C37.405 29.3512 35.5878 27.5341 33.3463 27.5341ZM33.3463 28.4116C35.1032 28.4116 36.5274 29.8358 36.5274 31.5927C36.5274 33.3496 35.1032 34.7739 33.3463 34.7739C31.5894 34.7739 30.1652 33.3496 30.1652 31.5927C30.1652 29.8358 31.5894 28.4116 33.3463 28.4116Z" fill="black"/>
<path d="M31.5123 23.1979L31.1355 23.0638L31.1354 23.0638L31.5123 23.1979ZM31.1503 24.2155L31.527 24.3501L31.5272 24.3496L31.1503 24.2155ZM29.6846 24.8213L29.513 25.1827L29.513 25.1827L29.6846 24.8213ZM28.7088 24.358L28.5359 24.7187L28.5372 24.7193L28.7088 24.358ZM26.4926 24.7375L26.7755 25.0203V25.0203L26.4926 24.7375ZM26.1139 26.9551L26.4752 26.7835L26.4746 26.7822L26.1139 26.9551ZM26.5765 27.9294L26.9379 27.7579L26.9378 27.7578L26.5765 27.9294ZM26.5982 28.7967L26.2287 28.6435H26.2287L26.5982 28.7967ZM25.9691 29.3943L25.835 29.0175L25.835 29.0175L25.9691 29.3943ZM24.9515 29.7563L25.0853 30.1333L25.0856 30.1332L24.9515 29.7563ZM24.9518 33.426L25.0859 33.0492L25.0856 33.0491L24.9518 33.426ZM25.9691 33.7879L25.835 34.1648L25.8352 34.1649L25.9691 33.7879ZM26.5766 35.2542L26.2154 35.0823L26.2153 35.0826L26.5766 35.2542ZM26.1132 36.2302L26.4739 36.4032L26.4745 36.4018L26.1132 36.2302ZM26.4926 38.4464L26.2098 38.7292H26.2098L26.4926 38.4464ZM28.7103 38.8252L28.5385 38.4639L28.5373 38.4645L28.7103 38.8252ZM29.6832 38.3624L29.855 38.7236L29.855 38.7236L29.6832 38.3624ZM31.1503 38.9699L30.7734 39.1039L30.7734 39.1039L31.1503 38.9699ZM31.5123 39.9875L31.1354 40.1216L31.1354 40.1216L31.5123 39.9875ZM35.1811 39.9876L35.558 40.1217L35.558 40.1216L35.1811 39.9876ZM35.5431 38.9699L35.92 39.104L35.92 39.1038L35.5431 38.9699ZM36.1412 38.3401L36.2943 38.7096L36.2943 38.7096L36.1412 38.3401ZM37.0094 38.3624L36.8375 38.7236L36.8378 38.7237L37.0094 38.3624ZM37.9854 38.8259L38.1578 38.4649L38.157 38.4645L37.9854 38.8259ZM40.2004 38.4453L39.9176 38.1624L40.2004 38.4453ZM40.5806 36.2294L40.2196 36.4017L40.2197 36.4017L40.5806 36.2294ZM40.1157 35.2553L39.7545 35.4271L39.7547 35.4276L40.1157 35.2553ZM40.0937 34.3877L40.4632 34.5408L40.4632 34.5408L40.0937 34.3877ZM40.7233 33.7896L40.8572 34.1665L40.8574 34.1665L40.7233 33.7896ZM41.7411 33.4275L41.6073 33.0506L41.607 33.0507L41.7411 33.4275ZM41.7408 29.7578L41.6067 30.1347L41.607 30.1348L41.7408 29.7578ZM40.7235 29.3959L40.8576 29.0191L40.8574 29.019L40.7235 29.3959ZM40.0937 28.7978L40.4632 28.6447V28.6447L40.0937 28.7978ZM40.116 27.9297L39.7549 27.7576L39.7548 27.7578L40.116 27.9297ZM40.5808 26.9541L40.2199 26.7818L40.2197 26.7821L40.5808 26.9541ZM40.2004 24.7386L39.9176 25.0214V25.0214L40.2004 24.7386ZM37.9845 24.3584L38.1566 24.7195L38.1569 24.7194L37.9845 24.3584ZM37.0091 24.8232L37.181 25.1844L37.1812 25.1843L37.0091 24.8232ZM36.1412 24.8454L36.2943 24.4758L36.1412 24.8454ZM35.5432 24.2157L35.9201 24.0818L35.92 24.0817L35.5432 24.2157ZM35.1811 23.1979L35.558 23.0639L35.558 23.0638L35.1811 23.1979ZM34.3543 23.4921L34.7312 23.358L34.7312 23.358L34.3543 23.4921ZM34.7163 24.5096L35.0932 24.3758L35.0932 24.3756L34.7163 24.5096ZM35.8054 25.6561L35.6523 26.0257L35.8054 25.6561ZM37.3864 25.6155L37.5582 25.9767L37.5584 25.9766L37.3864 25.6155ZM38.3624 25.1504L38.5345 25.5115L38.5348 25.5114L38.3624 25.1504ZM39.7888 26.5763L39.4278 26.4039L39.4277 26.4042L39.7888 26.5763ZM39.3236 27.5524L38.9625 27.3803L38.9624 27.3806L39.3236 27.5524ZM39.2829 29.1336L39.6525 28.9805L39.2829 29.1336ZM40.4296 30.2228L40.5636 29.8459L40.5635 29.8459L40.4296 30.2228ZM41.447 30.5847L41.3129 30.9616L41.3132 30.9617L41.447 30.5847ZM41.4473 32.6006L41.3135 32.2237L41.3132 32.2238L41.4473 32.6006ZM40.4294 32.9627L40.5633 33.3397L40.5634 33.3396L40.4294 32.9627ZM39.3235 35.6328L38.9623 35.8047L38.9625 35.8051L39.3235 35.6328ZM39.7887 36.6075L39.4277 36.7798L39.4278 36.7798L39.7887 36.6075ZM38.3627 38.0336L38.5351 37.6726L38.5343 37.6722L38.3627 38.0336ZM37.3861 37.5698L37.2142 37.931L37.2145 37.9311L37.3861 37.5698ZM35.8054 37.5294L35.6523 37.1598L35.8054 37.5294ZM34.7162 38.676L35.0931 38.8101L35.0932 38.8099L34.7162 38.676ZM34.3543 39.6934L34.7312 39.8275L34.7312 39.8275L34.3543 39.6934ZM32.3391 39.6934L31.9622 39.8274L31.9622 39.8275L32.3391 39.6934ZM31.9771 38.6758L31.6002 38.8098L31.6002 38.8099L31.9771 38.6758ZM29.3063 37.5699L29.4781 37.9312L29.4781 37.9312L29.3063 37.5699ZM28.3321 38.0333L28.1603 37.6721L28.1592 37.6726L28.3321 38.0333ZM27.1132 37.8259L26.8303 38.1087H26.8303L27.1132 37.8259ZM26.9052 36.6082L27.2659 36.7811L27.2665 36.7797L26.9052 36.6082ZM27.3692 35.6309L27.008 35.4591L27.0079 35.4593L27.3692 35.6309ZM26.263 32.9611L26.129 33.3379L26.1291 33.338L26.263 32.9611ZM25.2456 32.5991L25.3797 32.2223L25.3794 32.2222L25.2456 32.5991ZM25.2453 30.5832L25.3791 30.9602L25.3794 30.9601L25.2453 30.5832ZM26.2632 30.2211L26.1292 29.8443L26.1292 29.8443L26.2632 30.2211ZM27.4088 29.1327L27.0393 28.9796L27.4088 29.1327ZM27.3693 27.5531L27.7307 27.3816L27.7306 27.3815L27.3693 27.5531ZM26.9059 26.5772L27.2672 26.4056L27.2666 26.4043L26.9059 26.5772ZM27.1132 25.358L26.8303 25.0751H26.8303L27.1132 25.358ZM28.3309 25.15L28.1579 25.5107L28.1593 25.5113L28.3309 25.15ZM29.3081 25.614L29.1365 25.9754L29.1365 25.9754L29.3081 25.614ZM30.8875 25.6544L30.7346 25.2848L30.7346 25.2848L30.8875 25.6544ZM31.9769 24.5102L32.3536 24.6447L32.3538 24.6443L31.9769 24.5102ZM32.3391 23.4921L31.9622 23.358L31.9622 23.358L32.3391 23.4921ZM31.8892 23.332C32.1086 22.7154 32.6922 22.3036 33.3467 22.3036V21.5036C32.3538 21.5036 31.4683 22.1284 31.1355 23.0638L31.8892 23.332ZM31.5272 24.3496L31.8892 23.332L31.1354 23.0638L30.7734 24.0815L31.5272 24.3496ZM30.705 25.2131C31.0887 25.0544 31.3874 24.7408 31.527 24.3501L30.7736 24.081C30.7102 24.2585 30.5742 24.4015 30.3992 24.4739L30.705 25.2131ZM29.513 25.1827C29.8882 25.3608 30.3212 25.3719 30.705 25.2131L30.3992 24.4739C30.2244 24.5462 30.0271 24.5412 29.8561 24.46L29.513 25.1827ZM28.5372 24.7193L29.513 25.1827L29.8561 24.46L28.8804 23.9967L28.5372 24.7193ZM26.7755 25.0203C27.2396 24.5562 27.9459 24.4358 28.5359 24.7187L28.8817 23.9973C27.9853 23.5675 26.9137 23.7507 26.2098 24.4546L26.7755 25.0203ZM26.4746 26.7822C26.1909 26.1905 26.3115 25.4843 26.7755 25.0203L26.2098 24.4546C25.5058 25.1586 25.3228 26.2303 25.7532 27.128L26.4746 26.7822ZM26.9378 27.7578L26.4752 26.7835L25.7525 27.1267L26.2152 28.101L26.9378 27.7578ZM26.9677 28.9499C27.1267 28.5662 27.1159 28.1331 26.9379 27.7579L26.2151 28.1009C26.2961 28.2716 26.3011 28.4688 26.2287 28.6435L26.9677 28.9499ZM26.1032 29.7712C26.4945 29.632 26.8086 29.3336 26.9677 28.9499L26.2287 28.6435C26.1562 28.8182 26.0132 28.9541 25.835 29.0175L26.1032 29.7712ZM25.0856 30.1332L26.1032 29.7712L25.835 29.0175L24.8174 29.3794L25.0856 30.1332ZM24.056 31.5911C24.056 30.9362 24.4684 30.3522 25.0853 30.1333L24.8177 29.3794C23.8816 29.7116 23.256 30.5976 23.256 31.5911H24.056ZM25.0856 33.0491C24.4684 32.83 24.056 32.246 24.056 31.5911H23.256C23.256 32.5847 23.8816 33.4707 24.818 33.803L25.0856 33.0491ZM26.1032 33.4111L25.0859 33.0492L24.8177 33.8029L25.835 34.1648L26.1032 33.4111ZM26.9685 34.233C26.8094 33.8489 26.4949 33.5502 26.103 33.411L25.8352 34.1649C26.0138 34.2283 26.157 34.3643 26.2294 34.5391L26.9685 34.233ZM26.9379 35.426C27.1165 35.0506 27.1276 34.6171 26.9685 34.233L26.2294 34.5391C26.3018 34.714 26.2968 34.9114 26.2154 35.0823L26.9379 35.426ZM26.4745 36.4018L26.938 35.4258L26.2153 35.0826L25.7518 36.0587L26.4745 36.4018ZM26.7755 38.1636C26.3114 37.6995 26.191 36.9932 26.4739 36.4032L25.7525 36.0573C25.3227 36.9538 25.5059 38.0254 26.2098 38.7292L26.7755 38.1636ZM28.5373 38.4645C27.9457 38.7481 27.2394 38.6275 26.7755 38.1636L26.2098 38.7292C26.9138 39.4332 27.9854 39.6163 28.8832 39.1859L28.5373 38.4645ZM29.5114 38.0012L28.5385 38.4639L28.8821 39.1864L29.855 38.7236L29.5114 38.0012ZM30.7048 37.9705C30.3206 37.8114 29.8869 37.8226 29.5114 38.0012L29.855 38.7236C30.0261 38.6422 30.2237 38.6372 30.3987 38.7096L30.7048 37.9705ZM31.5272 38.8359C31.3878 38.444 31.089 38.1296 30.7048 37.9705L30.3987 38.7096C30.5738 38.7821 30.7099 38.9254 30.7734 39.1039L31.5272 38.8359ZM31.8892 39.8535L31.5272 38.8358L30.7734 39.1039L31.1354 40.1216L31.8892 39.8535ZM33.3467 40.8819C32.6922 40.8819 32.1086 40.4701 31.8892 39.8534L31.1354 40.1216C31.4683 41.0571 32.3538 41.6819 33.3467 41.6819V40.8819ZM34.8043 39.8535C34.5848 40.4701 34.0012 40.8819 33.3467 40.8819V41.6819C34.3396 41.6819 35.2251 41.0571 35.558 40.1217L34.8043 39.8535ZM35.1662 38.8359L34.8042 39.8535L35.558 40.1216L35.92 39.104L35.1662 38.8359ZM35.9882 37.9705C35.604 38.1297 35.3054 38.4441 35.1662 38.836L35.92 39.1038C35.9835 38.9252 36.1195 38.7821 36.2943 38.7096L35.9882 37.9705ZM37.1812 38.0012C36.8058 37.8226 36.3723 37.8114 35.9882 37.9705L36.2943 38.7096C36.4692 38.6372 36.6666 38.6423 36.8375 38.7236L37.1812 38.0012ZM38.157 38.4645L37.181 38.0011L36.8378 38.7237L37.8138 39.1872L38.157 38.4645ZM39.9176 38.1624C39.4539 38.6261 38.7484 38.747 38.1578 38.4649L37.813 39.1868C38.7098 39.6151 39.7801 39.4313 40.4833 38.7281L39.9176 38.1624ZM40.2197 36.4017C40.5022 36.9934 40.3812 37.6988 39.9176 38.1624L40.4833 38.7281C41.1866 38.0248 41.3702 36.9545 40.9416 36.057L40.2197 36.4017ZM39.7547 35.4276L40.2196 36.4017L40.9416 36.0571L40.4767 35.083L39.7547 35.4276ZM39.7241 34.2346C39.5651 34.6186 39.5761 35.0521 39.7545 35.4271L40.4769 35.0835C40.3959 34.9131 40.3907 34.7157 40.4632 34.5408L39.7241 34.2346ZM40.5894 33.4127C40.1977 33.5518 39.8832 33.8505 39.7241 34.2346L40.4632 34.5408C40.5357 34.3659 40.6788 34.2299 40.8572 34.1665L40.5894 33.4127ZM41.607 33.0507L40.5893 33.4127L40.8574 34.1665L41.8752 33.8044L41.607 33.0507ZM42.6366 31.5927C42.6366 32.2477 42.2242 32.8316 41.6073 33.0506L41.8749 33.8045C42.811 33.4722 43.4366 32.5863 43.4366 31.5927H42.6366ZM41.607 30.1348C42.2242 30.3538 42.6366 30.9378 42.6366 31.5927H43.4366C43.4366 30.5991 42.811 29.7132 41.8746 29.3809L41.607 30.1348ZM40.5894 29.7728L41.6067 30.1347L41.8749 29.3809L40.8576 29.0191L40.5894 29.7728ZM39.7241 28.9509C39.8832 29.335 40.1977 29.6336 40.5896 29.7729L40.8574 29.019C40.6788 28.9556 40.5356 28.8195 40.4632 28.6447L39.7241 28.9509ZM39.7548 27.7578C39.5761 28.1332 39.565 28.5668 39.7241 28.9509L40.4632 28.6447C40.3908 28.4698 40.3958 28.2724 40.4772 28.1015L39.7548 27.7578ZM40.2197 26.7821L39.7549 27.7576L40.4771 28.1017L40.9419 27.1262L40.2197 26.7821ZM39.9176 25.0214C40.3812 25.4851 40.5022 26.1905 40.2199 26.7818L40.9417 27.1265C41.3703 26.2293 41.1866 25.159 40.4833 24.4557L39.9176 25.0214ZM38.1569 24.7194C38.7485 24.4368 39.454 24.5578 39.9176 25.0214L40.4833 24.4557C39.78 23.7524 38.7097 23.5688 37.8122 23.9975L38.1569 24.7194ZM37.1812 25.1843L38.1566 24.7195L37.8125 23.9973L36.8371 24.4621L37.1812 25.1843ZM35.9882 25.2149C36.3722 25.374 36.8057 25.3629 37.181 25.1844L36.8373 24.462C36.6666 24.5432 36.4693 24.5483 36.2943 24.4758L35.9882 25.2149ZM35.1662 24.3496C35.3054 24.7414 35.6041 25.0558 35.9882 25.2149L36.2943 24.4758C36.1194 24.4034 35.9835 24.2602 35.9201 24.0818L35.1662 24.3496ZM34.8043 23.332L35.1663 24.3498L35.92 24.0817L35.558 23.0639L34.8043 23.332ZM33.3467 22.3036C34.0012 22.3036 34.5848 22.7154 34.8043 23.332L35.558 23.0638C35.2251 22.1284 34.3396 21.5036 33.3467 21.5036V22.3036ZM34.7312 23.358C34.5228 22.7723 33.9684 22.3811 33.3467 22.3811V23.1811C33.6299 23.1811 33.8825 23.3593 33.9775 23.6262L34.7312 23.358ZM35.0932 24.3756L34.7312 23.358L33.9775 23.6262L34.3394 24.6437L35.0932 24.3756ZM35.9585 25.2866C35.5541 25.119 35.2397 24.788 35.0932 24.3758L34.3394 24.6435C34.5616 25.2692 35.0388 25.7715 35.6523 26.0257L35.9585 25.2866ZM37.2145 25.2543C36.8193 25.4424 36.3629 25.4541 35.9585 25.2866L35.6523 26.0257C36.2659 26.2798 36.9585 26.262 37.5582 25.9767L37.2145 25.2543ZM38.1903 24.7893L37.2143 25.2544L37.5584 25.9766L38.5345 25.5115L38.1903 24.7893ZM39.8628 25.0763C39.4223 24.6359 38.7522 24.521 38.19 24.7895L38.5348 25.5114C38.7912 25.3889 39.0965 25.4414 39.2971 25.642L39.8628 25.0763ZM40.1497 26.7487C40.4181 26.1867 40.3031 25.5166 39.8628 25.0763L39.2971 25.642C39.4977 25.8426 39.5501 26.1479 39.4278 26.4039L40.1497 26.7487ZM39.6847 27.7245L40.1499 26.7484L39.4277 26.4042L38.9625 27.3803L39.6847 27.7245ZM39.6525 28.9805C39.485 28.5762 39.4967 28.1198 39.6848 27.7243L38.9624 27.3806C38.677 27.9805 38.6592 28.6731 38.9134 29.2867L39.6525 28.9805ZM40.5635 29.8459C40.151 29.6994 39.82 29.3849 39.6525 28.9805L38.9134 29.2867C39.1675 29.9003 39.6699 30.3774 40.2957 30.5997L40.5635 29.8459ZM41.581 30.2079L40.5636 29.8459L40.2955 30.5997L41.3129 30.9616L41.581 30.2079ZM42.559 31.5927C42.559 30.9706 42.1673 30.4159 41.5808 30.2078L41.3132 30.9617C41.5806 31.0566 41.7591 31.3094 41.7591 31.5927H42.559ZM41.5811 32.9776C42.1673 32.7695 42.559 32.2148 42.559 31.5927H41.7591C41.7591 31.8762 41.5806 32.1289 41.3135 32.2237L41.5811 32.9776ZM40.5634 33.3396L41.5813 32.9775L41.3132 32.2238L40.2953 32.5859L40.5634 33.3396ZM39.6525 34.2049C39.82 33.8005 40.151 33.4861 40.5633 33.3397L40.2955 32.5858C39.6698 32.808 39.1675 33.2852 38.9134 33.8988L39.6525 34.2049ZM39.6847 35.461C39.4967 35.0657 39.485 34.6093 39.6525 34.2049L38.9134 33.8988C38.6592 34.5123 38.677 35.2049 38.9623 35.8047L39.6847 35.461ZM40.1497 36.4352L39.6845 35.4605L38.9625 35.8051L39.4277 36.7798L40.1497 36.4352ZM39.8628 38.1076C40.3031 37.6672 40.4181 36.9971 40.1497 36.4351L39.4278 36.7798C39.5501 37.036 39.4977 37.3413 39.2971 37.5419L39.8628 38.1076ZM38.1904 38.3945C38.7523 38.6629 39.4224 38.5479 39.8628 38.1076L39.2971 37.5419C39.0965 37.7425 38.7912 37.7949 38.5351 37.6726L38.1904 38.3945ZM37.2145 37.9311L38.1912 38.3949L38.5343 37.6722L37.5577 37.2085L37.2145 37.9311ZM35.9585 37.8989C36.3629 37.7314 36.8193 37.7431 37.2142 37.931L37.5579 37.2086C36.9585 36.9234 36.2659 36.9056 35.6523 37.1598L35.9585 37.8989ZM35.0932 38.8099C35.2397 38.3974 35.5541 38.0664 35.9585 37.8989L35.6523 37.1598C35.0387 37.414 34.5616 37.9163 34.3393 38.5421L35.0932 38.8099ZM34.7312 39.8275L35.0931 38.8101L34.3394 38.542L33.9775 39.5593L34.7312 39.8275ZM33.3467 40.8043C33.9684 40.8043 34.5228 40.4132 34.7312 39.8275L33.9775 39.5593C33.8825 39.8261 33.6299 40.0043 33.3467 40.0043V40.8043ZM31.9622 39.8275C32.1706 40.4132 32.725 40.8043 33.3467 40.8043V40.0043C33.0635 40.0043 32.8109 39.8261 32.7159 39.5593L31.9622 39.8275ZM31.6002 38.8099L31.9622 39.8274L32.7159 39.5593L32.354 38.5418L31.6002 38.8099ZM30.7345 37.8989C31.139 38.0664 31.4536 38.3974 31.6002 38.8098L32.354 38.5418C32.1315 37.916 31.6542 37.4138 31.0405 37.1597L30.7345 37.8989ZM29.4781 37.9312C29.8734 37.7431 30.33 37.7314 30.7345 37.8989L31.0405 37.1597C30.4269 36.9056 29.7343 36.9234 29.1344 37.2087L29.4781 37.9312ZM28.5039 38.3945L29.4781 37.9312L29.1345 37.2087L28.1603 37.6721L28.5039 38.3945ZM26.8303 38.1087C27.2712 38.5496 27.9421 38.6639 28.505 38.394L28.1592 37.6726C27.9018 37.796 27.5964 37.7435 27.396 37.543L26.8303 38.1087ZM26.5445 36.4352C26.275 36.9972 26.3896 37.668 26.8303 38.1087L27.396 37.543C27.1953 37.3424 27.1432 37.037 27.2659 36.7811L26.5445 36.4352ZM27.0079 35.4593L26.5438 36.4366L27.2665 36.7797L27.7306 35.8025L27.0079 35.4593ZM27.0401 34.2033C27.2077 34.6077 27.1959 35.0641 27.008 35.4591L27.7304 35.8028C28.0156 35.2033 28.0334 34.5107 27.7792 33.8971L27.0401 34.2033ZM26.1291 33.338C26.5416 33.4845 26.8726 33.7989 27.0401 34.2033L27.7792 33.8971C27.5251 33.2836 27.0228 32.8064 26.3969 32.5841L26.1291 33.338ZM25.1116 32.976L26.129 33.3379L26.3971 32.5842L25.3797 32.2223L25.1116 32.976ZM24.1336 31.5911C24.1336 32.2133 24.5253 32.7679 25.1118 32.9761L25.3794 32.2222C25.112 32.1272 24.9336 31.8745 24.9336 31.5911H24.1336ZM25.1115 30.2063C24.5253 30.4143 24.1336 30.969 24.1336 31.5911H24.9336C24.9336 31.3077 25.112 31.055 25.3791 30.9602L25.1115 30.2063ZM26.1292 29.8443L25.1113 30.2063L25.3794 30.9601L26.3973 30.598L26.1292 29.8443ZM27.0393 28.9796C26.8719 29.3835 26.5412 29.6977 26.1292 29.8443L26.3973 30.598C27.0224 30.3756 27.5242 29.8989 27.7783 29.2859L27.0393 28.9796ZM27.0079 27.7245C27.1954 28.1196 27.2068 28.5756 27.0393 28.9796L27.7783 29.2859C28.0324 28.673 28.0151 27.9811 27.7307 27.3816L27.0079 27.7245ZM26.5445 26.7488L27.0079 27.7246L27.7306 27.3815L27.2672 26.4056L26.5445 26.7488ZM26.8303 25.0751C26.3894 25.5161 26.2752 26.187 26.5452 26.7501L27.2666 26.4043C27.143 26.1466 27.1956 25.8412 27.396 25.6408L26.8303 25.0751ZM28.5038 24.7893C27.9418 24.5199 27.271 24.6344 26.8303 25.0751L27.396 25.6408C27.5966 25.4402 27.9021 25.388 28.158 25.5107L28.5038 24.7893ZM29.4797 25.2527L28.5025 24.7887L28.1593 25.5113L29.1365 25.9754L29.4797 25.2527ZM30.7346 25.2848C30.3306 25.4519 29.8747 25.4403 29.4797 25.2527L29.1365 25.9754C29.7358 26.2599 30.4274 26.2776 31.0404 26.0241L30.7346 25.2848ZM31.6002 24.3756C31.4531 24.7874 31.1387 25.1177 30.7346 25.2848L31.0404 26.0241C31.6534 25.7705 32.1305 25.2694 32.3536 24.6447L31.6002 24.3756ZM31.9622 23.358L31.6 24.3761L32.3538 24.6443L32.716 23.6261L31.9622 23.358ZM33.3467 22.3811C32.725 22.3811 32.1706 22.7723 31.9622 23.358L32.7159 23.6261C32.8109 23.3593 33.0635 23.1811 33.3467 23.1811V22.3811ZM29.6876 31.5927C29.6876 29.5721 31.3257 27.9341 33.3463 27.9341V27.1341C30.8838 27.1341 28.8876 29.1303 28.8876 31.5927H29.6876ZM33.3463 35.2514C31.3257 35.2514 29.6876 33.6134 29.6876 31.5927H28.8876C28.8876 34.0552 30.8838 36.0514 33.3463 36.0514V35.2514ZM37.005 31.5927C37.005 33.6134 35.3669 35.2514 33.3463 35.2514V36.0514C35.8088 36.0514 37.805 34.0552 37.805 31.5927H37.005ZM33.3463 27.9341C35.3669 27.9341 37.005 29.5721 37.005 31.5927H37.805C37.805 29.1303 35.8088 27.1341 33.3463 27.1341V27.9341ZM36.9274 31.5927C36.9274 29.6149 35.3241 28.0116 33.3463 28.0116V28.8116C34.8823 28.8116 36.1274 30.0568 36.1274 31.5927H36.9274ZM33.3463 35.1739C35.3241 35.1739 36.9274 33.5705 36.9274 31.5927H36.1274C36.1274 33.1287 34.8823 34.3739 33.3463 34.3739V35.1739ZM29.7652 31.5927C29.7652 33.5705 31.3685 35.1739 33.3463 35.1739V34.3739C31.8103 34.3739 30.5652 33.1287 30.5652 31.5927H29.7652ZM33.3463 28.0116C31.3685 28.0116 29.7652 29.6149 29.7652 31.5927H30.5652C30.5652 30.0568 31.8103 28.8116 33.3463 28.8116V28.0116Z" fill="black"/>
</svg>
