<svg xmlns="http://www.w3.org/2000/svg" width="24" height="24" viewBox="0 0 24 24">
  <g fill="none" fill-rule="evenodd">
    <polygon points="0 0 24 0 24 24 0 24"/>
    <path fill="currentColor" d="M12.1740578,5.12506556 C15.4820453,5.18375443 18.1495789,7.85128805 18.2082961,11.1610977 C18.2387133,13.436696 16.9612465,15.5280468 14.9227532,16.5398856 L15.083,16.456 L15.0833333,18.0416667 C15.0833333,18.9136952 14.4136208,19.629304 13.560473,19.7022157 L13.4166667,19.7083333 L12.583,19.708 L12.5833333,21.1666667 C12.5833333,21.3967853 12.3967853,21.5833333 12.1666667,21.5833333 C11.9621168,21.5833333 11.791993,21.4359374 11.7567131,21.241563 L11.75,21.1666667 L11.75,19.708 L10.9166667,19.7083333 C10.0446381,19.7083333 9.32902931,19.0386208 9.25611766,18.185473 L9.25,18.0416667 L9.24975408,16.4569822 C7.30629027,15.4174 6.09677609,13.3784975 6.12506133,11.1628514 C6.18184747,7.85346767 8.84992176,5.1838123 12.1592713,5.12506556 L12.1592713,5.12506556 Z M14.25,16.583 L10.083,16.583 L10.0833333,18.0416667 C10.0833333,18.4665011 10.4012377,18.817085 10.8121351,18.8685072 L10.9166667,18.875 L13.4166667,18.875 C13.8415011,18.875 14.192085,18.5570957 14.2435072,18.1461982 L14.25,18.0416667 L14.25,16.583 Z M12.166,5.95766667 L11.9494155,5.9669341 C9.19374361,6.13087928 7.00606527,8.39184555 6.95829939,11.1753181 C6.93335801,13.1293036 8.03072034,14.9246063 9.7810898,15.7934494 L9.705,15.753 L9.707,15.753 L9.699,15.7496667 L11.75,15.749 L11.75,13.214 L9.99703884,11.4612945 C9.83432039,11.298576 9.83432039,11.0347573 9.99703884,10.8720388 C10.1394175,10.7296602 10.359201,10.7118629 10.5209309,10.8186468 L10.5862945,10.8720388 L12.167,12.4526667 L13.7470388,10.8720388 C13.9097573,10.7093204 14.173576,10.7093204 14.3362945,10.8720388 C14.4786731,11.0144175 14.4964705,11.234201 14.3896865,11.3959309 L14.3362945,11.4612945 L12.583,13.214 L12.583,15.749 L14.634,15.7496667 L14.7592441,15.6847261 C16.321701,14.8178192 17.3148422,13.192006 17.3728347,11.4076497 L17.3728347,11.4076497 L17.3750656,11.1740578 C17.3243367,8.3147327 15.0186006,6.00899667 12.166,5.95766667 L12.166,5.95766667 Z M4.66666667,10.75 C4.89678531,10.75 5.08333333,10.936548 5.08333333,11.1666667 C5.08333333,11.3712166 4.93593737,11.5413403 4.74156303,11.5766203 L4.66666667,11.5833333 L3.41666667,11.5833333 C3.18654802,11.5833333 3,11.3967853 3,11.1666667 C3,10.9621168 3.14739597,10.791993 3.34177031,10.7567131 L3.41666667,10.75 L4.66666667,10.75 Z M20.9166667,10.75 C21.1467853,10.75 21.3333333,10.936548 21.3333333,11.1666667 C21.3333333,11.3712166 21.1859374,11.5413403 20.991563,11.5766203 L20.9166667,11.5833333 L19.6666667,11.5833333 C19.436548,11.5833333 19.25,11.3967853 19.25,11.1666667 C19.25,10.9621168 19.397396,10.791993 19.5917703,10.7567131 L19.6666667,10.75 L20.9166667,10.75 Z M5.51394895,4.56414648 L5.5803637,4.6162251 L6.49703037,5.49705843 C6.66295966,5.6565014 6.66821787,5.92026774 6.5087749,6.08619703 C6.3692623,6.23138517 6.14987713,6.2535595 5.98605105,6.15002018 L5.9196363,6.09794157 L5.00296963,5.21710823 C4.83704034,5.05766526 4.83178213,4.79389893 4.9912251,4.62796963 C5.1307377,4.4827815 5.35012287,4.46060717 5.51394895,4.56414648 Z M19.3421082,4.62796963 C19.4816208,4.77315777 19.4950341,4.99325238 19.3850479,5.15282181 L19.3303637,5.21710823 L18.413697,6.09794157 C18.2477677,6.25738453 17.9840014,6.25212633 17.8245584,6.08619703 C17.6850458,5.9410089 17.6716326,5.72091428 17.7816188,5.56134486 L17.836303,5.49705843 L18.7529696,4.6162251 C18.9188989,4.45678213 19.1826653,4.46204034 19.3421082,4.62796963 Z M12.1666667,2 C12.3712166,2 12.5413403,2.14739597 12.5766203,2.34177031 L12.5833333,2.41666667 L12.5833333,3.66666667 C12.5833333,3.89678531 12.3967853,4.08333333 12.1666667,4.08333333 C11.9621168,4.08333333 11.791993,3.93593737 11.7567131,3.74156303 L11.75,3.66666667 L11.75,2.41666667 C11.75,2.18654802 11.936548,2 12.1666667,2 Z"/>
  </g>
</svg>
