<svg width="20" height="18" viewBox="0 0 20 18" fill="none" xmlns="http://www.w3.org/2000/svg">
<path d="M18.9602 14.8569C19.5477 15.8752 18.8103 17.1481 17.6369 17.1481H2.36276C1.1871 17.1481 0.453067 15.8732 1.03942 14.8569L8.67658 1.61526C9.26436 0.596459 10.7365 0.598305 11.3233 1.61526L18.9602 14.8569ZM9.99992 12.1192C9.19132 12.1192 8.53581 12.7747 8.53581 13.5833C8.53581 14.3919 9.19132 15.0475 9.99992 15.0475C10.8085 15.0475 11.464 14.3919 11.464 13.5833C11.464 12.7747 10.8085 12.1192 9.99992 12.1192ZM8.60987 6.85646L8.84598 11.1852C8.85702 11.3877 9.0245 11.5463 9.22735 11.5463H10.7725C10.9753 11.5463 11.1428 11.3877 11.1539 11.1852L11.39 6.85646C11.4019 6.63767 11.2277 6.4537 11.0086 6.4537H8.99121C8.7721 6.4537 8.59793 6.63767 8.60987 6.85646Z" fill="#E73E36"/>
</svg>
