<svg width="305" height="72" viewBox="0 0 305 72" fill="none" xmlns="http://www.w3.org/2000/svg">
<rect width="304.07" height="72" fill="white"/>
<path d="M85.0098 60.6885V28.1404H90.4961V32.0548H90.8197C91.1074 31.4795 91.5132 30.8682 92.0372 30.2209C92.5612 29.5634 93.2701 29.0034 94.1639 28.5411C95.0577 28.0685 96.1982 27.8322 97.5851 27.8322C99.4139 27.8322 101.063 28.2997 102.532 29.2346C104.012 30.1593 105.183 31.5309 106.046 33.3494C106.919 35.1576 107.356 37.3768 107.356 40.0069C107.356 42.6062 106.929 44.8151 106.077 46.6336C105.224 48.4521 104.063 49.8391 102.594 50.7946C101.125 51.7501 99.4602 52.2278 97.6006 52.2278C96.2444 52.2278 95.1194 52.0018 94.2255 51.5497C93.3317 51.0977 92.6125 50.5532 92.068 49.9162C91.5338 49.2689 91.1177 48.6576 90.8197 48.0823H90.5885V60.6885H85.0098ZM90.4807 39.9761C90.4807 41.5069 90.6964 42.8477 91.1279 43.9984C91.5697 45.149 92.2016 46.048 93.0235 46.6953C93.8557 47.3323 94.8625 47.6508 96.044 47.6508C97.2769 47.6508 98.3095 47.322 99.1417 46.6645C99.9738 45.9966 100.601 45.0874 101.022 43.9367C101.453 42.7757 101.669 41.4555 101.669 39.9761C101.669 38.5069 101.458 37.2021 101.037 36.0617C100.616 34.9213 99.9893 34.0274 99.1571 33.3802C98.3249 32.7329 97.2872 32.4093 96.044 32.4093C94.8523 32.4093 93.8403 32.7226 93.0081 33.3494C92.1759 33.9761 91.544 34.8545 91.1125 35.9846C90.6913 37.1148 90.4807 38.4453 90.4807 39.9761Z" fill="black"/>
<path d="M121.126 61.1816C119.122 61.1816 117.401 60.9094 115.963 60.3648C114.525 59.8306 113.369 59.1114 112.496 58.2073C111.622 57.3032 111.016 56.3015 110.677 55.2022L115.701 53.9847C115.927 54.447 116.256 54.9042 116.687 55.3563C117.119 55.8186 117.699 56.1987 118.429 56.4967C119.169 56.8049 120.098 56.959 121.218 56.959C122.8 56.959 124.11 56.5737 125.148 55.8032C126.186 55.0429 126.705 53.7895 126.705 52.0429V47.5583H126.427C126.139 48.1336 125.718 48.7244 125.163 49.3306C124.619 49.9367 123.895 50.4453 122.99 50.8563C122.097 51.2672 120.972 51.4727 119.615 51.4727C117.797 51.4727 116.148 51.0463 114.669 50.1936C113.199 49.3306 112.028 48.0463 111.155 46.3408C110.292 44.6251 109.86 42.4778 109.86 39.899C109.86 37.2997 110.292 35.1062 111.155 33.3185C112.028 31.5206 113.205 30.1593 114.684 29.2346C116.163 28.2997 117.812 27.8322 119.631 27.8322C121.018 27.8322 122.158 28.0685 123.052 28.5411C123.956 29.0034 124.675 29.5634 125.21 30.2209C125.744 30.8682 126.15 31.4795 126.427 32.0548H126.735V28.1404H132.237V52.197C132.237 54.221 131.754 55.8957 130.788 57.221C129.823 58.5463 128.502 59.5378 126.828 60.1953C125.153 60.8529 123.252 61.1816 121.126 61.1816ZM121.172 47.096C122.354 47.096 123.36 46.8083 124.193 46.233C125.025 45.6576 125.657 44.8305 126.088 43.7518C126.52 42.673 126.735 41.3785 126.735 39.8682C126.735 38.3785 126.52 37.0737 126.088 35.9538C125.667 34.8339 125.04 33.9658 124.208 33.3494C123.386 32.7226 122.374 32.4093 121.172 32.4093C119.929 32.4093 118.891 32.7329 118.059 33.3802C117.227 34.0274 116.6 34.9161 116.179 36.0463C115.758 37.1661 115.547 38.4401 115.547 39.8682C115.547 41.3168 115.758 42.5857 116.179 43.6747C116.61 44.7535 117.242 45.596 118.074 46.2021C118.917 46.798 119.949 47.096 121.172 47.096Z" fill="black"/>
<path d="M155.627 51.8117V56.2655H135.239V51.8117H155.627Z" fill="black"/>
<path d="M165.918 52.2278C164.059 52.2278 162.394 51.7501 160.925 50.7946C159.456 49.8391 158.295 48.4521 157.442 46.6336C156.59 44.8151 156.163 42.6062 156.163 40.0069C156.163 37.3768 156.595 35.1576 157.458 33.3494C158.331 31.5309 159.507 30.1593 160.987 29.2346C162.466 28.2997 164.115 27.8322 165.934 27.8322C167.321 27.8322 168.461 28.0685 169.355 28.5411C170.249 29.0034 170.958 29.5634 171.482 30.2209C172.006 30.8682 172.412 31.4795 172.699 32.0548H172.93V20.25H178.525V51.8117H173.038V48.0823H172.699C172.412 48.6576 171.996 49.2689 171.451 49.9162C170.906 50.5532 170.187 51.0977 169.293 51.5497C168.4 52.0018 167.275 52.2278 165.918 52.2278ZM167.475 47.6508C168.656 47.6508 169.663 47.3323 170.496 46.6953C171.328 46.048 171.96 45.149 172.391 43.9984C172.823 42.8477 173.038 41.5069 173.038 39.9761C173.038 38.4453 172.823 37.1148 172.391 35.9846C171.97 34.8545 171.343 33.9761 170.511 33.3494C169.689 32.7226 168.677 32.4093 167.475 32.4093C166.232 32.4093 165.194 32.7329 164.362 33.3802C163.53 34.0274 162.903 34.9213 162.482 36.0617C162.061 37.2021 161.85 38.5069 161.85 39.9761C161.85 41.4555 162.061 42.7757 162.482 43.9367C162.913 45.0874 163.545 45.9966 164.377 46.6645C165.22 47.322 166.252 47.6508 167.475 47.6508Z" fill="black"/>
<path d="M198.255 41.8562V28.1404H203.834V51.8117H198.424V47.6045H198.178C197.644 48.9299 196.765 50.0138 195.543 50.8563C194.33 51.6987 192.835 52.12 191.058 52.12C189.507 52.12 188.135 51.7758 186.943 51.0874C185.762 50.3888 184.837 49.3768 184.169 48.0515C183.501 46.7158 183.168 45.1028 183.168 43.2124V28.1404H188.746V42.3494C188.746 43.8494 189.157 45.0412 189.979 45.9247C190.801 46.8083 191.88 47.2501 193.215 47.2501C194.037 47.2501 194.834 47.0497 195.604 46.649C196.375 46.2484 197.007 45.6525 197.5 44.8614C198.003 44.06 198.255 43.0583 198.255 41.8562Z" fill="black"/>
<path d="M218.594 52.2741C216.231 52.2741 214.202 51.7552 212.507 50.7176C210.822 49.6799 209.522 48.2467 208.608 46.4179C207.703 44.5788 207.251 42.4624 207.251 40.0686C207.251 37.6644 207.714 35.5429 208.638 33.7038C209.563 31.8545 210.868 30.4161 212.553 29.3887C214.248 28.3511 216.251 27.8322 218.563 27.8322C220.484 27.8322 222.185 28.1867 223.664 28.8956C225.154 29.5942 226.34 30.5856 227.224 31.8699C228.108 33.1439 228.611 34.6336 228.734 36.3391H223.402C223.186 35.1987 222.673 34.2483 221.861 33.4881C221.06 32.7175 219.986 32.3322 218.64 32.3322C217.5 32.3322 216.498 32.6404 215.635 33.2569C214.772 33.8631 214.099 34.7363 213.616 35.8768C213.144 37.0172 212.907 38.3836 212.907 39.9761C212.907 41.5891 213.144 42.9761 213.616 44.1371C214.089 45.2877 214.751 46.1764 215.604 46.8032C216.467 47.4196 217.479 47.7278 218.64 47.7278C219.462 47.7278 220.197 47.5737 220.844 47.2655C221.501 46.947 222.051 46.4898 222.493 45.8939C222.935 45.298 223.238 44.5737 223.402 43.721H228.734C228.601 45.3956 228.108 46.8802 227.255 48.1747C226.402 49.459 225.241 50.4658 223.772 51.1953C222.303 51.9145 220.577 52.2741 218.594 52.2741Z" fill="black"/>
<path d="M237.099 44.3836L237.084 37.649H237.977L246.484 28.1404H253.003L242.539 39.7912H241.383L237.099 44.3836ZM232.013 51.8117V20.25H237.592V51.8117H232.013ZM246.87 51.8117L239.164 41.0394L242.924 37.1096L253.542 51.8117H246.87Z" fill="black"/>
<path d="M263.229 52.2278C261.369 52.2278 259.705 51.7501 258.235 50.7946C256.766 49.8391 255.605 48.4521 254.753 46.6336C253.9 44.8151 253.473 42.6062 253.473 40.0069C253.473 37.3768 253.905 35.1576 254.768 33.3494C255.641 31.5309 256.818 30.1593 258.297 29.2346C259.777 28.2997 261.426 27.8322 263.244 27.8322C264.631 27.8322 265.771 28.0685 266.665 28.5411C267.559 29.0034 268.268 29.5634 268.792 30.2209C269.316 30.8682 269.722 31.4795 270.009 32.0548H270.241V20.25H275.835V51.8117H270.348V48.0823H270.009C269.722 48.6576 269.306 49.2689 268.761 49.9162C268.217 50.5532 267.497 51.0977 266.604 51.5497C265.71 52.0018 264.585 52.2278 263.229 52.2278ZM264.785 47.6508C265.967 47.6508 266.973 47.3323 267.806 46.6953C268.638 46.048 269.27 45.149 269.701 43.9984C270.133 42.8477 270.348 41.5069 270.348 39.9761C270.348 38.4453 270.133 37.1148 269.701 35.9846C269.28 34.8545 268.653 33.9761 267.821 33.3494C266.999 32.7226 265.987 32.4093 264.785 32.4093C263.542 32.4093 262.504 32.7329 261.672 33.3802C260.84 34.0274 260.213 34.9213 259.792 36.0617C259.371 37.2021 259.16 38.5069 259.16 39.9761C259.16 41.4555 259.371 42.7757 259.792 43.9367C260.223 45.0874 260.855 45.9966 261.688 46.6645C262.53 47.322 263.563 47.6508 264.785 47.6508Z" fill="black"/>
<path d="M280.724 51.8117V20.25H286.303V32.0548H286.534C286.822 31.4795 287.228 30.8682 287.752 30.2209C288.276 29.5634 288.985 29.0034 289.878 28.5411C290.772 28.0685 291.913 27.8322 293.3 27.8322C295.128 27.8322 296.777 28.2997 298.247 29.2346C299.726 30.1593 300.897 31.5309 301.76 33.3494C302.634 35.1576 303.07 37.3768 303.07 40.0069C303.07 42.6062 302.644 44.8151 301.791 46.6336C300.938 48.4521 299.777 49.8391 298.308 50.7946C296.839 51.7501 295.175 52.2278 293.315 52.2278C291.959 52.2278 290.834 52.0018 289.94 51.5497C289.046 51.0977 288.327 50.5532 287.783 49.9162C287.248 49.2689 286.832 48.6576 286.534 48.0823H286.211V51.8117H280.724ZM286.195 39.9761C286.195 41.5069 286.411 42.8477 286.842 43.9984C287.284 45.149 287.916 46.048 288.738 46.6953C289.57 47.3323 290.577 47.6508 291.759 47.6508C292.991 47.6508 294.024 47.322 294.856 46.6645C295.688 45.9966 296.315 45.0874 296.736 43.9367C297.168 42.7757 297.384 41.4555 297.384 39.9761C297.384 38.5069 297.173 37.2021 296.752 36.0617C296.33 34.9213 295.704 34.0274 294.872 33.3802C294.039 32.7329 293.002 32.4093 291.759 32.4093C290.567 32.4093 289.555 32.7226 288.723 33.3494C287.89 33.9761 287.259 34.8545 286.827 35.9846C286.406 37.1148 286.195 38.4453 286.195 39.9761Z" fill="black"/>
<path d="M36 0.999986C16.7071 0.999979 1.00002 16.707 1.00001 36C1 55.2929 16.7071 71 36 71C55.2929 71 71 55.2929 71 36C71 16.7071 55.2929 0.999994 36 0.999986Z" fill="black"/>
<path d="M40.6134 47.541L36.6234 43.5536C34.6087 45.3662 32.3919 46.1721 29.9743 46.1721C24.5746 46.1721 19.8195 42.2648 19.8195 36.3034C19.8195 30.342 24.4946 26.3533 29.7328 26.3533C34.971 26.3533 39.7261 30.5428 39.7261 36.222C39.7261 37.5516 39.5647 38.8811 39.3639 39.7671L43.5547 43.9566H49.3743C54.6939 43.9566 58.9254 40.6136 58.9254 35.6589C58.9254 30.7043 55.0561 27.1999 50.1408 27.1999H48.7942V32.6376H49.8586C51.8733 32.6376 53.2843 33.4028 53.2843 35.4174C53.2843 37.4321 51.8733 38.3181 49.8586 38.3181H45.2478C45.3279 37.6736 45.45 36.5462 45.45 35.6589C45.45 26.1118 37.592 20.5127 29.7328 20.5127C20.7474 20.5127 13.7754 27.4808 13.7754 36.2627C13.7754 45.0446 20.7474 52.0127 29.8141 52.0127C34.005 52.0127 38.5593 49.8379 40.6134 47.541Z" fill="#FFF100"/>
</svg>
