<?xml version="1.0" encoding="utf-8"?>
<!-- Generator: Adobe Illustrator 22.1.0, SVG Export Plug-In . SVG Version: 6.00 Build 0)  -->
<svg version="1.1" id="Layer_1" xmlns="http://www.w3.org/2000/svg" xmlns:xlink="http://www.w3.org/1999/xlink" x="0px" y="0px"
	 viewBox="0 0 304 182" style="enable-background:new 0 0 304 182;" xml:space="preserve">
<style type="text/css">
	.st0{fill:#252F3E;}
	.st1{fill:#F7971D;}
</style>
<g>
	<path class="st0" d="M227.6,89.3c2.7,1.5,6.5,2.9,11.6,4c5,1.2,10.2,1.7,15.4,1.7c5.1,0,9.9-0.6,14.2-1.9c4.3-1.3,8-3.1,11.1-5.6
		c3.1-2.4,5.5-5.4,7.3-8.8c1.8-3.4,2.6-7.3,2.6-11.6c0-5.2-1.5-9.9-4.6-14c-3.1-4.1-8.3-7.3-15.5-9.6l-14.2-4.6
		c-5.4-1.7-9-3.6-11-5.5c-2-1.9-3-4.3-3-7.1c0-4.1,1.6-7.1,4.7-8.9c3.2-1.9,7.6-2.8,13.3-2.8c7.1,0,13.5,1.3,19.3,3.9
		c1.8,0.8,3,1.2,3.8,1.2c1.5,0,2.3-1.1,2.3-3.2v-4.7c0-1.4-0.3-2.5-0.9-3.3c-0.6-0.8-1.6-1.6-3-2.4c-1.1-0.6-2.5-1.2-4.2-1.7
		c-1.7-0.6-3.6-1.1-5.7-1.6c-2-0.5-4.2-0.8-6.5-1.1c-2.3-0.3-4.5-0.4-6.7-0.4c-4.4,0-8.6,0.6-12.6,1.7c-4,1.2-7.4,2.9-10.4,5.2
		c-3,2.3-5.4,5-7.2,8.2c-1.8,3.2-2.7,6.9-2.7,11.1c0,5.3,1.7,10.1,5,14.5c3.3,4.4,8.7,7.8,16,10.1l14.5,4.6
		c4.9,1.6,8.3,3.4,10.1,5.3c1.8,1.9,2.7,4.2,2.7,7c0,4.1-1.7,7.2-5.2,9.5c-3.4,2.2-8.3,3.3-14.6,3.3c-4,0-7.9-0.4-11.9-1.2
		c-4-0.8-7.6-2-11-3.5c-1.1-0.5-1.9-0.8-2.5-1.1c-0.6-0.2-1.3-0.4-1.8-0.4c-1.5,0-2.3,1-2.3,3.1v5.1c0,0.9,0.2,1.9,0.6,2.8
		C224.9,87.4,225.9,88.4,227.6,89.3"/>
	<path class="st0" d="M58.4,40.7c-3.7-0.5-7.2-0.8-10.6-0.8c-10.3,0-18.4,2.6-24.5,7.8c-6.1,5.2-9.1,12.1-9.1,20.6
		c0,8.1,2.5,14.5,7.4,19.3c4.9,4.8,11.6,7.2,20,7.2c11.8,0,21.6-4.6,29.4-13.8c1,2.2,2.1,4.2,3.1,5.9c1,1.7,2.2,3.2,3.6,4.6
		c0.9,0.9,1.9,1.4,3,1.4c0.8,0,1.7-0.3,2.6-0.9l6.3-4.2c1.3-0.9,1.9-1.9,1.9-3c0-0.7-0.2-1.5-0.7-2.3c-1.4-2.6-2.5-5-3.2-7.2
		c-0.8-2.2-1.1-5.2-1.1-8.9V33.8c0-11-2.8-19.2-8.3-24.6c-5.5-5.4-14.3-8.1-26.2-8.1c-5.5,0-10.7,0.6-15.6,1.9
		c-4.9,1.3-9.1,2.8-12.6,4.6c-1.4,0.7-2.3,1.4-2.8,2.1c-0.5,0.7-0.7,1.9-0.7,3.5v4.9c0,2.1,0.7,3.1,2.1,3.1c0.3,0,0.9-0.1,1.6-0.3
		c0.7-0.2,1.9-0.6,3.5-1.3c3.5-1.4,7.1-2.5,10.8-3.4c3.7-0.9,7.3-1.3,10.8-1.3c7.7,0,13.1,1.5,16.3,4.6c3.1,3.1,4.7,8.4,4.7,16v7.4
		C65.9,42,62.1,41.2,58.4,40.7 M69.9,58.3c0,3.4-0.3,6.3-1,8.7c-0.6,2.4-1.8,4.5-3.4,6.4c-2.7,3-5.8,5.2-9.5,6.4
		c-3.6,1.2-7.1,1.8-10.3,1.8c-4.6,0-8.1-1.2-10.5-3.6c-2.5-2.4-3.7-5.9-3.7-10.6c0-5,1.6-8.9,4.9-11.6c3.3-2.7,8.2-4,14.9-4
		c3,0,6.2,0.2,9.4,0.6c3.2,0.4,6.3,1,9.2,1.7V58.3z"/>
	<path class="st0" d="M120.1,87.5c0.6,2,1.3,3.3,2.1,3.9c0.8,0.6,2.1,1,3.9,1h8.6c1.9,0,3.2-0.3,4-1.1c0.8-0.7,1.5-2,1.9-4L156,23
		l15.6,64.4c0.5,2,1.1,3.3,1.9,4c0.8,0.7,2.2,1.1,4,1.1h8.6c1.8,0,3-0.3,3.9-1c0.8-0.6,1.5-2,2.1-3.9l24.2-77.4
		c0.4-1.1,0.6-1.9,0.7-2.4c0.1-0.6,0.2-1.1,0.2-1.6c0-1.6-0.8-2.4-2.4-2.4h-9.3c-1.9,0-3.2,0.3-3.9,1c-0.8,0.6-1.4,2-2,3.9l-17.3,67
		l-15.8-67c-0.5-2-1.1-3.3-1.9-3.9c-0.8-0.6-2.2-1-4-1h-8.1c-1.9,0-3.2,0.3-4,1c-0.8,0.6-1.5,2-1.9,3.9l-15.6,66.2L114,8.6
		c-0.6-2-1.3-3.3-2-3.9c-0.8-0.6-2.1-1-3.9-1h-9.8c-1.6,0-2.5,0.8-2.5,2.4c0,0.7,0.3,2,0.9,4L120.1,87.5z"/>
	<path class="st1" d="M268.6,136c-36.9,15.7-77,23.2-113.5,23.2c-54.1,0-106.5-14.8-148.8-39.5c-3.7-2.2-6.5,1.6-3.4,4.4
		c39.3,35.5,91.1,56.7,148.8,56.7c41.1,0,88.9-12.9,121.8-37.2C278.9,139.7,274.2,133.6,268.6,136"/>
	<path class="st1" d="M247.9,122.3c-2.9,2-2.4,4.8,0.8,4.5c10.6-1.3,34.2-4.1,38.5,1.3c4.2,5.4-4.7,27.6-8.7,37.5
		c-1.2,3,1.4,4.2,4.1,1.9c17.7-14.8,22.2-45.7,18.6-50.2C297.6,112.9,266.7,109.1,247.9,122.3"/>
</g>
</svg>
