<?xml version="1.0" encoding="utf-8"?>
<!-- Generator: Adobe Illustrator 26.0.3, SVG Export Plug-In . SVG Version: 6.00 Build 0)  -->
<svg version="1.1" id="Layer_1" xmlns="http://www.w3.org/2000/svg" xmlns:xlink="http://www.w3.org/1999/xlink" x="0px" y="0px"
	 viewBox="0 0 1063 1080" style="enable-background:new 0 0 1063 1080;" xml:space="preserve">
<style type="text/css">
	.st0{fill:#231F20;}
</style>
<g>
	<path class="st0" d="M722.44,625.88c-2.29,7.62-5.83,14.21-9.92,20.7c-1.5,2.38-3.66,5.11-4.25,7.42
		c-0.17,0.79,0.04,1.06,0.04,1.72c-0.02,3.24-0.2,7.53-0.36,10.84c-0.09,1.14-0.19,3.4-0.21,4.54
		c-1.87,34.56,8.82,68.02,17.73,101.47c0,0-3.05,2.01-3.05,2.01c-2.88-2.23-5.76-4.74-8.36-7.31
		c-24.32-23.93-39.14-57.68-39.2-91.91c0.07-3.88,0.15-7.99,0.72-11.84c0.95-6.93,2.25-13.41,5.86-19.86
		c5.56-10.41,16.6-14.56,27.07-17.94c3.64-1.12,7.4-2.1,11.55-2.62C720.07,623.1,722.44,625.88,722.44,625.88L722.44,625.88z"/>
</g>
<g>
	<path class="st0" d="M788.71,661.69c-2.47,6.22-6.81,11.46-11.71,15.76c-8.65,8.47-14.52,19.04-17.43,30.95
		c-1.53,6.08-2.22,12.48-2.32,19.28c0,0-3.54,0.88-3.54,0.88c-10.47-20.31-4.26-46.84,11.88-62.59c5.31-5.82,13.63-9.76,21.56-7.59
		C787.16,658.38,788.71,661.69,788.71,661.69L788.71,661.69z"/>
</g>
<g>
	<path class="st0" d="M730.27,616.54c59.02-10.24,126.5-16.55,176.32,23.73c41.55,33.97,55.04,89.19,89.9,128.05
		c4.79,5.31,9.51,9.57,15.22,14.2c7,5.76,14.43,12.69,17.18,22.71c5.58,21.31-11.86,40.26-30.84,46.46
		c-8.13,2.95-15.8,4.43-22.59,6.21c-44.46,10.57-73,56.35-102.66,89.35c-12.95,14.35-27.17,27.93-43.9,37.87
		c-13.6,7.77-36.75,18.32-51.83,10.68c-5.76-2.89-10.5-8.75-10.48-15.39c0,0,3.64-0.28,3.64-0.28c0.95,4.72,5.02,8.18,9.46,9.6
		c6.27,1.98,13-0.02,19-2.46c3.14-1.38,6.52-2.93,9.54-4.63c23.78-13.01,41.18-34.45,57.32-55.81
		c24.82-33.54,51.26-71.92,92.49-87.18c13.25-5.41,28.43-5.89,40.11-12.85c5.19-3.39,10.7-9.52,9.47-15.86
		c-0.62-2.73-3.52-6.28-6.08-8.6c-6.97-6.24-14.59-12.92-20.69-20.32c-15.07-17.67-25.85-39-36-59.18
		c-19.57-39.99-39.42-77.36-83.6-93.41c-34.34-13.26-71.9-12.92-108.25-10.73c0,0-22.31,1.46-22.31,1.46
		S730.27,616.54,730.27,616.54L730.27,616.54z"/>
</g>
<g>
	<path class="st0" d="M631.34,968.46c-11.85,12.75-14.44,32.73-6.74,48.15c4.06,7.85,11,14.04,19.2,17.27
		c6.62,2.76,14.01,3.66,21.12,2.73c15.37-2.11,24.74-14.11,34.14-25.76c3.72-4.72,11.11-4.78,14.93-0.16c0,0,2.47,2.97,2.47,2.97
		c0.42,2.79,3.24,4.91,5.83,6.03c4.1,1.62,8.42,1.53,13.19,0.81c10.09-1.67,20.4-6.02,26.84-14.18c4.29-5.4,6.87-12.56,6.04-19.78
		c-0.25-2.17,2.91-2.86,3.57-0.74c5.22,17.3-6.17,34.71-20.97,43.12c-11.93,7.05-27.33,11.87-40.79,5.45
		c-5.39-2.54-10.11-6.76-12.91-12.32c-0.02-0.02,17.4,2.81,17.4,2.81c-13.28,13.63-28.07,26.78-48.52,27.26
		c-10.64,0.29-21.32-2.55-30.41-8.07c-21.19-12.86-28.34-38.45-19.17-61.03c2.75-6.61,6.97-12.56,12.28-17.21
		c0.76-0.66,1.91-0.59,2.58,0.17C632.04,966.7,632,967.79,631.34,968.46L631.34,968.46z"/>
</g>
<g>
	<path class="st0" d="M498.44,956.77c17.69,8.86,37.22,12.46,56.82,12.93c27.57,0.45,58.19-3.99,82.9-16.52
		c23.52-11.96,40.71-33.47,52.13-57.06c1.17-2.27,2.16-4.62,3.37-6.95c0.43-0.98,1.61-1.41,2.56-0.91c0.66,0.34,1.03,1.02,1,1.71
		c-0.12,6.7-0.99,13.38-2.45,19.93c-5.83,25.8-22.3,49.53-45.12,63.34c-28.44,17.13-64.08,21.9-96.51,16.46
		c-16.16-2.93-32.21-8.72-45.35-18.77c-4.35-3.32-8.35-7.09-11.68-11.34C494.94,958.02,496.64,955.87,498.44,956.77L498.44,956.77z"
		/>
</g>
<g>
	<path class="st0" d="M709.19,636.77c-16.61-2.62-31.32-11.73-46.22-18.73c-4.04-1.88-10.56-4.63-14.82-6.34
		c-19.77-8.12-41.05-14.82-61.52-21.18c-19.68-5.93-40.91-11.78-61.36-11.39c-18.44,0.19-38.52,6.58-48.93,21.74
		c-4.04,5.89-5.76,12.56-7.79,19.54c-1.74,6.02-3.5,11.76-6.53,17.48c-4.85,9.26-13.06,16.46-22.26,21.22
		c-21.47,11.03-45.87,6.01-68.52,7.76c-6.07,0.62-11.55,1.64-16.84,4.04c-2.63,1.13-4.84,2.49-6.53,4.52
		c-2.32,2.82-3.25,7.06-3.48,10.82c-0.71,20.8,5.66,30.32-7.65,50.14c-5.79,9.05-12.9,16.97-13.06,27.97c0,1.02-0.84,1.86-1.86,1.84
		c-0.87-0.01-1.59-0.63-1.77-1.44c-2.61-11.54,3.81-23.08,8.34-32.94c3.23-7.13,5.32-13.38,4.12-20.68
		c-1.58-11.35-5.33-23-2.84-35.1c2.24-11.38,10.69-19.1,21.05-23.34c21.15-9.33,44.81-4.63,66.55-8.61
		c8.26-1.65,15.48-4.89,21.26-10.75c3.07-3.16,4.92-6.76,6.76-11.81c2.53-7.04,4.6-16.65,8.22-24.26
		c4.84-10.57,13.2-19.36,22.91-25.58c40.66-25.36,90.52-7.28,131.05,8.93c20.66,8.12,41.08,17.35,60.23,28.64
		c13.91,8.46,26.85,18.91,42.3,23.95c0.97,0.3,1.51,1.35,1.19,2.31C710.93,636.4,710.06,636.91,709.19,636.77L709.19,636.77z"/>
</g>
<path class="st0" d="M487.69,579.94c-5.38,9.3-6.69,20.86-3.53,31.13s10.73,19.1,20.4,23.77c8.54,4.13,19.7,6.19,23.24,14.99
	c-4.29,2.24-9.45,0.15-13.97-1.59c-19.93-7.66-42.61-7.92-62.71-0.71c5.46-18.09,12.18-35.8,20.08-52.97
	c1.24-2.69,2.73-5.59,5.46-6.72c2.73-1.14,6.72,1,6.06,3.89"/>
<g>
	<path class="st0" d="M430.24,786.82c7.82-3.4,14.03-9.54,18.9-16.47c5.15-7.11,8.98-15.11,12.15-23.33
		c5.8-13.81,17.36-25.09,31.31-31.1c17.48-7.84,43.41-5.16,58.59,6.7c7.6,6.07,12.06,15.15,16.34,23.42
		c5.89,11.55,12.28,24.44,17.63,36.16c0,0-3.25,1.66-3.25,1.66c-4.33-7.74-8.91-15.34-13.68-22.8c-2.37-3.74-4.8-7.45-7.29-11.1
		c-4.65-6.71-9.29-14.31-16.14-18.38c-6.53-3.84-14.85-4.65-22.42-4.43c-11.26,0.37-21.9,4.3-29.56,12.72
		c-5.6,5.69-10.5,12.09-16.81,17.61c0,0-5.07,4.54-5.07,4.54c-5.16,4.73-9.76,9.92-15.15,14.47c-7.08,6.12-15.32,11.39-24.37,13.78
		C431.42,790.28,430.24,786.82,430.24,786.82L430.24,786.82z"/>
</g>
<path class="st0" d="M491.92,729.05c-4.58,1.89-7.61,6.64-8.23,11.56c-0.63,4.92,0.89,9.92,3.37,14.21
	c3.43,5.91,8.86,10.76,15.36,12.84c7.46,2.38,16.05,0.83,22.21-4s9.7-12.81,9.16-20.63c-0.05-0.75-0.15-1.53-0.6-2.13
	c-0.58-0.76-1.58-1.05-2.51-1.25c-3.64-0.79-8.36-2-8.61-5.71c-0.18-2.54,2.09-4.63,2.49-7.15c0.43-2.68-1.44-5.33-3.88-6.52
	s-5.28-1.18-7.96-0.79c-13.69,2-24.23,12.71-33.66,22.83"/>
<g>
	<path class="st0" d="M323.66,867c11.44,12.07,25.05,21.23,40.63,25.72c7.39,2.15,15.06,3.1,22.71,3c4.79-0.19,9.78-0.17,14.71,0.53
		c3.49,0.48,6.85,1.07,10.31,2.25c0,0,1.3,3.41,1.3,3.41c-5.52,8.63-16.24,12.55-26.13,12.37c-28.66,0.62-58.1-17.74-66.7-45.46
		C320.49,868.82,323.66,867,323.66,867L323.66,867z"/>
</g>
<g>
	<path class="st0" d="M437.15,865.09c3.23,6.56,1.01,14.87-2.28,20.86c-4.79,8.74-10.97,13.73-16.11,21.11
		c-4.94,6.92-8.4,14.52-11.49,22.58c0.02,0.02-3.3-1.12-3.3-1.11c-0.18-9.51,9.21-16.24,17.72-17.66
		c17.01-2.28,38.63,4.11,50.85,16.41c11.28,10.9,15.6,31.72,3.49,43.51c0,0.04-2.34-2.67-2.34-2.66
		c10.91-8.38,20.93-17.28,29.71-27.7c5.41-6.38,10.27-13.21,14.97-20.17c2.84-4.32,5.55-8.69,8.45-13.02c0,0,3.45,1.21,3.45,1.21
		c-1.72,14.61-9.08,28.14-18.83,38.99c-9.75,10.81-22.12,19.65-36.07,23.94c0,0-7.51,2.27-7.51,2.27s5.17-4.94,5.17-4.94
		c2-5.71,1.51-11.75-0.78-17.2c-6.79-16.24-26.83-20.93-42.74-21.66c-5.14,0.22-10.56,0.41-15.68,0.23
		c-2.82-0.02-8.18,0.79-11.55,1.28c0-0.01,1.33-1.77,1.33-1.78c-4.06-12.97,0.05-27.68,8.1-38.26c3.9-5.29,8.02-9.55,11.78-13.43
		c4.01-4.13,7.18-7.4,10.01-12.72C433.5,865.17,437.15,865.09,437.15,865.09L437.15,865.09z"/>
</g>
<g>
	<path class="st0" d="M410.3,928.64c-3.67,2.77-7.79,5.69-11.59,8.32c-7.54,4.69-15.35,8.97-23.48,12.57
		c-2.88,1.13-8.75,3.52-11.52,4.5c-3.87,1.21-7.99,2.53-11.87,3.62c-5.38,1.2-10.74,2.63-16.24,3.31c-2.42,0.36-5.82,0.97-8.22,1.09
		c-57.13,5.74-116.25-18.17-156.58-58.23c0,0,1.67-1.24,1.67-1.24c7.8,13.19,16.88,25.68,26.74,37.34
		c27.71,32.8,63.08,60.94,105.13,71.76c44.73,11.48,92.07,1.25,132.78-19.24c13.34-6.7,26.39-14.58,38.84-23.51
		c0,0,2.69,2.47,2.69,2.47c-18.72,26.11-46.46,45.18-76.67,56c-39.47,14.2-84.31,9.98-122.07-7.57
		c-42.26-20.09-75.24-55.67-98.59-95.57c-3.91-6.74-7.58-13.59-10.74-20.75c0,0-2.71-4.53-2.71-4.53
		c9.8,7.59,20.26,14.51,31.04,20.56c45.56,25.97,98.54,38.06,150.22,26.64c20.27-4.32,39.87-11.72,59.27-20.66
		C408.38,925.53,410.3,928.64,410.3,928.64L410.3,928.64z"/>
</g>
<g>
	<path class="st0" d="M362.76,802.77c8.3,8.85,19.26,14.77,31.25,12.49c4.07-0.43,8.46-0.72,12.69-0.8
		c1.34-0.11,2.54,0.93,2.52,2.29c-0.89,6.14-6.5,10.68-12.22,12.27c-11.13,2.95-24.04-1.54-31.14-10.33
		c-3.5-4.21-5.88-9.23-6.44-14.44C359.2,802.44,361.58,801.4,362.76,802.77L362.76,802.77z"/>
</g>
<g>
	<path class="st0" d="M160.96,787.57c-28.12,2.1-67.39,1.57-92.17-12.91c-3.91-2.37-7.58-5.28-10.52-8.89c0,0,3.15-1.58,3.15-1.58
		c3.72,11.2,11.01,21.15,19.54,29.17c15.61,14.67,36.36,22.55,57.22,26.04c4.97,0.76,10.38,1.37,15.38,1.77
		c5.13,0.3,12.66,0.55,17.75,0.77c3.07,0.07,6.13,0.17,9.2,0.44c9.96,1.14,9.81,15.3-0.17,16.24c-12.72,0.85-25.55-0.82-38.11-3.51
		c-11.78-2.55-23.46-6.34-34.31-11.58c-18-8.88-34.16-22.65-43.53-40.59c-3.01-5.75-5.36-11.58-6.56-18.04
		c-0.21-1,0.45-1.99,1.46-2.17c0.65-0.12,1.28,0.13,1.69,0.6c5.9,5.93,13.94,9.13,21.95,11.26c16.51,4.08,33.93,3.96,50.85,2.87
		c8.46-0.62,17.07-1.56,25.41-2.95C168.18,773.34,169.97,786.33,160.96,787.57L160.96,787.57z"/>
</g>
<g>
	<path class="st0" d="M217.38,396.13c28.04-5.36,60.16,8.97,82.64,25.14c28.04,20.65,35.03,56.37,29.81,89.1
		c-8.74,55.14-51.35,97.26-63.76,151.08c-4.81,20.59-4.32,42.73,5.48,61.82c9.3,18.14,24.78,34.25,46.87,29.31
		c10.12-2.06,19.23-7.42,26.78-14.42c9.04-8.63,17.58-17.82,31.3-16.42c1.02,0.09,1.78,0.98,1.69,2.01
		c-0.07,0.78-0.61,1.4-1.31,1.63c-5.08,1.79-9.31,4.22-12.91,8.09c-3.5,3.59-6.72,8.22-10.89,12.65
		c-8.52,9.04-19.96,15.58-32.09,18.38c-27.9,6.68-49.16-11.65-61.58-34.94c-8.7-16.22-11.85-35.18-10.33-53.44
		c4.01-53.21,41.35-95.29,59.58-142.7c2.89-7.56,5.25-15.4,6.71-23.36c4.36-23.12,2.19-48.74-12.22-67.94
		c-6.29-8.52-14.95-15-23.94-20.83c-18.45-11.84-39.03-21.81-61.46-21.52c-1.03,0.05-1.91-0.78-1.91-1.81
		C215.84,397.04,216.5,396.27,217.38,396.13L217.38,396.13z"/>
</g>
<g>
	<path class="st0" d="M208.55,458.41c8.56,10.5,12.3,24.52,12.66,37.94c0.95,27-11.47,52.33-24.14,75.04
		c-6.31,11.21-12.72,22.1-18.15,33.25c-10.91,22.14-17.7,46.32-20.65,71.11c-5.22,47.96-0.18,103.4,26.19,144.95
		c13.22,20.32,32.97,37.48,56.75,43.63c11.75,3.12,24.29,3.34,36.51,3.2c12.14-0.22,24.39-1.38,35.85-5.05
		c19.29-6.14,28.57-16.88,40.06-32.67c4.03-5.06,8.17-9.94,13.57-13.91c1.25-0.99,3.25,0.18,3.03,1.74
		c-0.7,6.83-2.98,12.98-6.07,18.97c-3.15,5.94-7.3,11.3-11.74,16.4c-18.62,21.81-47.34,27.65-74.73,26.75
		c-13.24-0.4-26.54-1.22-39.38-5.21c-27.47-8.52-49.1-29.25-63.62-53.4c-19.22-32.41-26.41-70.41-28.68-107.58
		c-2.01-39.13,3.71-79.2,20.5-114.9c5.62-11.88,12.1-23.07,18.19-34.17c17.99-31.53,32.92-68.2,20.83-104.37
		c-0.33-0.93,0.16-1.95,1.09-2.27C207.32,457.61,208.09,457.85,208.55,458.41L208.55,458.41z"/>
</g>
<g>
	<path class="st0" d="M235.26,409.58c-4.45,3.91-11.41,4.27-15.83-0.12c-2.85-2.95-6.3-6.13-10.42-6.17
		c-3.71,0.04-7.72,1.42-11.59,1.82c-6.24,0.79-12.6,0.49-18.75-0.81c-7.76-1.58-16.31-5.68-23.38-6.01
		c-1.25-0.12-2.74,0.05-3.45,0.46c-1.25,5.01,1.92,10.54,4.58,15.23c4.31,7.18,12.86,21.69,17.1,28.91
		c5.5,9.26,11.06,18.54,18.85,25.74c0.69,0.7,1.33,1.17,1.96,1.54c0.16,0.09,0.1,0.04-0.14,0.06c-0.23,0.03-0.52,0.12-0.66,0.25
		c0.55-0.42,1.88-3.88,2.64-5.14c9.2-16.97,30.43-23.37,48.32-19.09c5.76,1.23,11.24,3.3,16.37,5.92c0.9,0.46,1.26,1.56,0.8,2.46
		c-0.42,0.82-1.38,1.19-2.23,0.9c-14.67-5.05-32.3-6.21-45.23,3.36c-3.99,2.95-7.31,6.67-9.29,10.92c-1.5,3.34-2.28,6.9-5.73,9.23
		c-4.51,3.18-10.32,0.87-13.79-2.45c-4.69-3.97-8.7-8.52-12.21-13.25c-6.13-8.11-13.1-20.07-18.61-28.61
		c-3.29-5.56-10.77-16.6-13.26-22.57c-4.46-9.79-4.01-23.7,8.85-26.32c11.01-1.97,21.13,3.81,31.24,6.29
		c4.79,1.16,9.8,1.48,14.72,1.06c4.48-0.37,8.67-1.7,13.41-1.4c7.23,0.32,13.84,5.14,16.94,11.32c1.27,2.95,4.6,2.97,7.61,3.05
		C235.83,406.17,236.63,408.51,235.26,409.58L235.26,409.58z"/>
</g>
<g>
	<path class="st0" d="M101.62,257.25c-2.32-1.86-1.96-4.64-0.58-6.57c3.23-4.51,7.31-8.24,11.33-11.98
		c12.58-11.3,26.6-20.83,41.75-28.39c37.28-18.64,76.55-20.31,115.44-5.36c20.9,8.03,40.16,20.07,56.89,34.86
		c4.17,3.71,8.14,7.53,11.9,11.75c0.64,0.64,0.69,1.65,0.15,2.35c-20.53,25.26-52.09,39.97-84.07,43.56
		c-21.34,2.47-42.93-0.43-63.99-3.95c-15.63-2.71-31.74-6.76-46.6-12.37C128.7,275.47,114.21,267.28,101.62,257.25L101.62,257.25z
		 M106.69,250.59c12.1,10,25.35,17.8,39.87,23.59c14.36,5.71,29.92,9.93,45.08,12.85c20.43,3.79,41.43,7.06,62.22,5.04
		c30.78-2.86,61.5-16.52,81.69-40.34c-0.01-0.01,0.16,2.37,0.14,2.33c-12.03-10.81-25.54-20.1-39.74-27.83
		c-27.89-15.23-60.17-24.13-92.01-20.32c-31.7,3.82-61.62,18.67-85.8,39.3c-3.58,3.15-7.34,6.52-10.19,10.16
		C108.62,253.88,108.39,251.94,106.69,250.59L106.69,250.59z"/>
</g>
<g>
	<path class="st0" d="M129.53,269.02c4.76,5.3,7.69,11.53,11.65,17.33c5.27,7.55,11.37,14.48,18.2,20.66
		c22,19.66,53.3,32.29,82.88,26.35c17.49-4.43,33.59-16.05,44.55-30.22c4.98-6.25,7.97-13.63,11.78-20.57
		c1.04-1.56,2.14-5.13,4.61-3.59c0.48,0.35,0.75,0.89,0.79,1.44c0.16,3.78-0.56,7.55-1.86,11.09c-5.9,15.08-17.95,27.46-31.59,35.69
		c-8.43,5.09-17.46,9.26-27.17,11.23c-35.97,6.33-74.9-9.61-99.19-36.31c-6.43-7.37-12.53-15.33-16.28-24.43
		c-0.78-2.35-1.43-4.75-1.72-7.25c-0.12-1.04,0.63-1.98,1.67-2.1C128.51,268.26,129.12,268.54,129.53,269.02L129.53,269.02z"/>
</g>
<g>
	<path class="st0" d="M175.44,179.17c2.91,5.11,5.32,10.37,7.65,15.71c1.36,3.11,2.81,6.24,2.71,9.73c0,0-13.19,3.12-13.19,3.12
		c-2.18-4.25-1.73-9.11-1.82-13.73c0.04-4.75,0.29-9.46,1.06-14.19C171.85,179.82,175.44,179.17,175.44,179.17L175.44,179.17z"/>
</g>
<g>
	<path class="st0" d="M264.22,180.03c0.2,5.88-0.1,11.65-0.52,17.47c-0.24,3.39-0.41,6.84-2.12,9.88c0,0-13.13-3.36-13.13-3.36
		c0.04-4.78,2.7-8.87,4.76-13c2.24-4.18,4.65-8.25,7.53-12.08C260.74,178.93,264.22,180.03,264.22,180.03L264.22,180.03z"/>
</g>
<g>
	<path class="st0" d="M175.41,177.57c11.86-6.85,6.3-27.52-3.22-34.13c-7.27-4.8-15.21-0.19-17.55,7.8
		c-1.86,6.41,0.58,13.21,4.28,18.57C162.42,174.94,168.98,180.72,175.41,177.57L175.41,177.57z M177.01,180.93
		c-13.56,5.97-27.46-10.41-29.65-22.64c-3.61-22.28,22.56-34.7,35.22-14.61C189.55,154.87,190.69,174.39,177.01,180.93
		L177.01,180.93z"/>
</g>
<g>
	<path class="st0" d="M262.72,179.21c13.39,2.86,23.12-16.2,20.48-27.49c-2.18-8.44-11.16-10.34-18.25-5.97
		c-5.67,3.51-8.42,10.2-9.27,16.66C254.84,168.56,255.83,177.24,262.72,179.21L262.72,179.21z M261.65,182.78
		c-14.08-4.7-13.39-26.09-6.83-36.68c12.26-18.95,40-10.64,35.93,12.77C288.43,171.84,276.19,187.09,261.65,182.78L261.65,182.78z"
		/>
</g>
<g>
	<path class="st0" d="M110.57,244.6c-2.06-0.87-6.16-2.7-8.19-3.62c-2.74-1.24-5.39-2.65-8.33-3.74c0,0,5.61-0.31,5.61-0.31
		c-9.17,7.16-16.9,16.02-23.84,25.33c0,0-0.54,0.73-0.54,0.73c-0.41,0.54-0.15,0.41-0.09-0.22c0.09-0.6-0.36-1.24,0.11-0.45
		c3.19,5.25,7.23,10.02,11.93,13.94c10.64,9.09,24.97,13.25,38.75,11.17c4.61-0.64,8.95-1.7,12.51-4.33c0,0,2.75,2.41,2.75,2.41
		c-1.53,2.43-3.82,4.35-6.27,5.7c-7.26,3.95-15.66,4.67-23.72,3.82c-16.09-1.73-30.58-11.57-39.63-24.74
		c-0.95-1.35-1.84-2.77-2.68-4.18c-1.65-2.37-1.41-5.34,0.38-7.48c8.26-11.33,18-21.46,27.59-31.72c0,0,2.37,3.16,2.37,3.16
		c1.78,2.35,3.95,4.22,6.14,6.09c2.19,1.87,4.49,3.62,6.89,5.22C112.32,241.39,110.57,244.6,110.57,244.6L110.57,244.6z"/>
</g>
<g>
	<path class="st0" d="M75.82,258.82c-8.75-9.45-12.42-22.08-13.01-34.42c-0.74-17.81,2.66-38.45,17.56-49.99
		c0,0,2.59,2.57,2.59,2.57c-7.31,10.48-7.2,23.52-4.67,35.47c2.09,9.78,6.65,22.3,14.98,27.45
		C93.27,239.91,75.82,258.82,75.82,258.82L75.82,258.82z"/>
</g>
<g>
	<path class="st0" d="M85.65,177.65c-0.41-0.61-0.63-1.62-0.79-2.36c-1.13-5.2-1.84-10.49-2.35-15.78
		c-2.04-24.59-1.2-51.44,9.26-74.18c0,0,1.99-4.26,1.99-4.26c0,0,1.36,3.91,1.36,3.91c4.13,6.84,9.57,15.84,13.24,21.45
		c-1.84-1.7-5-0.13-4.56,2.49c0.05,0.24,0.02,0.07,0.01,0.01l-0.03-0.23c-0.11-1.8,0.67-3.56,1.1-5.16
		c1.89-5.88,4.12-11.58,6.48-17.27c6.56-15.31,13.52-30.14,24.13-43.39c0,0,4.49-5.49,4.49-5.49c0.67,1.13,4.34,6.52,4.77,7.56
		c9.4,18.69,11.56,40.71,7.23,61.05c-2.61,11.96-7.3,23.34-13.69,33.73c-1.61,2.51-3.74,6.33-5.52,8.69
		c-1.68,2.47-4.21,6.07-6.14,8.32c-0.92,1.12-2.3,2.96-3.32,3.98c0,0-3.55,3.81-3.55,3.81c-1.53,1.52-3.22,2.96-4.8,4.44
		c-3.07,2.43-6.35,4.89-9.9,6.59c-4.81,2.44-10.37,3.98-15.79,3.29C88.05,178.62,86.62,178.5,85.65,177.65L85.65,177.65z
		 M88.4,175.25c-0.1-0.18-0.28-0.34-0.47-0.42c0,0-0.09-0.03-0.09-0.03s0.03,0.01,0.03,0.01c0.89,0.28,2.02,0.31,2.96,0.37
		c2.68,0,5.4-0.54,7.9-1.53c0,0,2.18-0.88,2.18-0.88s2.1-1.12,2.1-1.12c3.15-1.67,6.02-4.04,8.72-6.37
		c1.42-1.45,2.92-2.84,4.29-4.33c0.64-0.71,3.41-4.03,3.97-4.66c1.05-1.41,2.59-3.54,3.64-4.97c1.02-1.29,3.13-4.78,4.06-6.2
		c1.61-2.33,3.53-6.11,4.95-8.59c13.54-23.78,17.08-53.63,6.38-79.12c-1.16-2.8-2.49-5.6-4.06-8.14c0,0,8.5,0.71,8.5,0.71
		c-10.47,11.26-18.49,25.5-25.59,39.3c-3.04,6.13-6.15,12.42-8.44,18.85c-0.08,0.23-0.09,0.32-0.12,0.38
		c0.04-0.22,0.02-0.46-0.05-0.68c0.49,1.83-1.33,4.08-3.63,3.29c-0.91-0.4-0.81-0.47-0.86-0.48l-0.17-0.15c0,0-0.16-0.16-0.16-0.16
		s-0.06-0.07-0.06-0.07c-4.64-7.64-8.31-15.68-12.43-23.5c0,0,3.34-0.35,3.34-0.35c-1.98,15.01-4.18,29.63-5.28,44.68
		c-0.96,13.07-1.32,26.35-1.27,39.48c0.02,0.94,0.03,3.6,0.07,4.57c0,0,0,0.17,0,0.17c0,0.06-0.01,0-0.03,0
		C88.71,175.25,88.57,175.2,88.4,175.25L88.4,175.25z"/>
</g>
<g>
	<path class="st0" d="M124.71,62.96c-4.41-10.49-7.44-21.47-8.69-32.81c0,0-0.03-0.23-0.03-0.23s-0.01-0.12-0.01-0.12
		c-2.12-2.34,3.32,5.78,3.8,4.1c1.03,0.08,0.62,0.03,1.2,0c-3.56,1.08-7.46,2.5-11.03,3.77C99.2,42.28,89.34,50.56,81.38,59.5
		C66.67,75.83,56.6,97.09,57.2,119.33c0.28,13.21,3.42,26.7,10.7,37.85c4.77,7.45,11.57,13.56,19.77,17.56c0,0-1.29,3.42-1.29,3.42
		c-4.72-1.37-9.26-3.56-13.41-6.37c-25.03-17.77-31.63-53.74-23.22-81.95c7.92-26.21,28.15-49.21,53.36-60.01
		c1.08-0.45,2.24-0.9,3.34-1.28c0.35-0.14,3.52-0.97,3.95-1.11c2.77-0.75,5.6-1.54,8.47-2.17c0.32-0.06,0.74-0.15,1.06-0.17
		c0.32,0,0.15-0.06,1.03,0.02c0.53-1.69,5.99,6.46,3.86,4.17c0,0,0,0.11,0,0.11s0.01,0.21,0.01,0.21
		c0.33,10.78,2.03,21.43,3.39,32.36C128.22,61.95,124.71,62.96,124.71,62.96L124.71,62.96z"/>
</g>
<g>
	<path class="st0" d="M325.9,241.28c4.51-3.59,8.92-7.38,12.28-12.13c0,0,2.16-3.3,2.17-3.31c10.53,10.01,21.42,19.67,30.43,31.06
		c0.57,0.79,1.09,2.57,0.86,3.76c-0.07,0.86-0.6,1.98-0.87,2.5c-0.75,1.47-1.55,2.94-2.41,4.35c-10.75,18.4-32.48,31.13-54.05,27.38
		c-5.33-0.98-11.1-3.13-14.45-7.74c0,0,2.59-2.58,2.59-2.58c3.72,2.4,8.12,3.18,12.76,3.52c18.72,1.79,37.14-8.51,46.78-24.49
		c0.82-1.29,1.71-2.89,2.38-4.19c-0.02,0.03-0.12,0.42-0.05,0.82c0.06,0.37,0.17,0.55,0.17,0.55c-7.7-9.25-16.3-17.95-26.25-24.77
		c0,0,5.63-0.05,5.62-0.05c-2.86,1.28-5.41,2.85-8.07,4.26c-1.96,1.06-5.96,3.12-7.94,4.14C327.85,244.37,325.9,241.28,325.9,241.28
		L325.9,241.28z"/>
</g>
<g>
	<path class="st0" d="M344.82,238.57c7.99-5.68,11.73-18.45,13.19-28.36c0.89-6.04,1.13-12.22,0.19-18.23
		c-0.95-5.98-3.09-11.89-7.12-16.87l2.42-2.73c2.96,1.96,5.67,4.44,8.01,7.27c9.36,11.59,12.37,26.93,12.72,41.5
		c0.2,12.35-2.66,25.19-10.78,35.18C363.44,256.33,344.82,238.57,344.82,238.57L344.82,238.57z"/>
</g>
<g>
	<path class="st0" d="M345.53,173.74c-0.17-0.04-0.31,0.02-0.36,0.08c-0.01,0-0.02,0.07-0.03,0c0,0-0.01-0.17-0.01-0.17
		c-0.03-1.02-0.18-3.51-0.23-4.57c-0.79-13.12-1.99-26.34-3.79-39.32c-2.06-14.95-5.19-29.4-8.13-44.25c0,0,3.36,0.14,3.36,0.14
		c-3.61,8.07-6.76,16.32-10.9,24.24c-0.09,0.12-0.26,0.31-0.37,0.41c-0.05,0.01,0.06,0.08-0.83,0.53c-2.27,0.94-4.2-1.21-3.84-3.05
		c-0.13,0.34,0.13,1.09-0.15,0.31c-2.7-6.27-6.2-12.34-9.63-18.27c-7.97-13.32-16.89-27.02-28.06-37.58c0,0,8.43-1.25,8.43-1.25
		c-1.41,2.65-2.55,5.52-3.53,8.39c-9.04,26.13-3.6,55.69,11.44,78.55c1.6,2.39,3.73,6.02,5.49,8.25c1.03,1.37,3.33,4.69,4.45,5.93
		c1.15,1.35,2.81,3.38,3.95,4.73c0.59,0.64,3.62,3.71,4.26,4.4c2.34,2.17,4.84,4.37,7.48,6.19c2.53,1.9,5.45,3.38,8.35,4.64
		c3.58,1.31,7.52,2.22,11.33,1.62c0.63-0.09,1.25-0.25,1.85-0.43C345.84,173.33,345.63,173.52,345.53,173.74L345.53,173.74z
		 M348.43,175.95c-0.91,0.92-2.33,1.12-3.54,1.43c-5.37,1.03-11.01-0.14-15.97-2.27c-3.65-1.47-7.08-3.71-10.3-5.94
		c-1.68-1.38-3.45-2.7-5.08-4.12c0,0-3.78-3.58-3.78-3.58c-1.07-0.96-2.58-2.69-3.57-3.76c-2.05-2.11-4.82-5.56-6.66-7.91
		c-1.92-2.23-4.33-5.91-6.07-8.32c-7.04-9.96-12.45-21.01-15.82-32.78c-5.63-20.02-4.88-42.14,3.31-61.39
		c0.61-1.56,3.53-6.41,4.27-7.85c0,0,4.83,5.19,4.83,5.19c11.44,12.55,19.34,26.9,26.86,41.76c2.72,5.52,5.31,11.07,7.57,16.82
		c0.53,1.56,1.43,3.27,1.43,5.08c0,0-0.02,0.23-0.02,0.23c-0.01,0.06-0.03,0.24,0.01-0.01c0.28-2.61-2.96-4.04-4.71-2.2
		c3.3-5.83,8.14-15.15,11.84-22.25c0,0,1.1-3.99,1.1-3.99c0,0,2.26,4.13,2.26,4.13c11.9,22.02,14.46,48.76,14,73.43
		c-0.16,5.31-0.54,10.64-1.33,15.9C348.96,174.26,348.79,175.33,348.43,175.95L348.43,175.95z"/>
</g>
<g>
	<path class="st0" d="M298.54,63.22c0.66-11.07,1.69-21.87,1.3-32.72c0,0,0-0.11,0-0.11c-1.98,2.43,2.95-6.06,3.59-4.41
		c0.87-0.14,0.71-0.07,1.02-0.09c0.33,0.01,0.74,0.05,1.07,0.1c4.01,0.63,8.18,1.55,12.12,2.38c0.36,0.09,0.84,0.18,1.19,0.31
		c26.96,8.36,49.99,30.98,59.8,57.34c11.99,31.68,3.7,77.29-30.89,90.49c0,0-1.51-3.33-1.51-3.33
		c24.29-13.63,30.56-44.9,25.15-70.34c-5.81-27.27-30.03-54.9-55.68-64.88c-3.73-1.09-7.89-2.28-11.64-3.18c0,0-0.09-0.02-0.09-0.02
		c0.01,0-0.01,0,0.03,0c0,0,0.25,0.01,0.25,0.01c0.28-0.02,0.08,0.05,0.91-0.08c0.59,1.65,5.5-6.8,3.53-4.33
		c-0.02,0.18-0.03,0.62-0.04,0.81c-0.56,11.25-2.87,22.23-6.55,32.84C302.11,64,298.54,63.22,298.54,63.22L298.54,63.22z"/>
</g>
<g>
	<path class="st0" d="M267.19,320.84c11.85,7.83,24.04,22.4,18.37,37.56c-1.04,2.79-2.45,5.88-3.94,8.44
		c-7.88,13.57-17.86,24.7-28.65,35.78c0,0-5.4-5.04-5.4-5.04c9.01-10.96,18.07-23.07,24.03-35.83c1.01-2.14,1.93-4.65,2.56-6.94
		c2.46-8.84-7.26-16.64-14.19-20.74c-0.14-0.08-0.35-0.19-0.38-0.2L267.19,320.84L267.19,320.84z"/>
</g>
<g>
	<path class="st0" d="M288.12,304.59c-0.27-0.08,0.16,0.24,0.57,0.5c1.61,1.03,3.32,1.98,5.02,3.1c5.14,3.29,10.09,7.38,13.62,12.72
		c15.36,23.49-8.42,49.93-24.47,65.79c-7.31,6.91-14.9,13.28-23.13,19l-2.23-2.89c13.84-12.83,26.77-28.2,34.77-45.2
		c7.37-16.27,8.06-26.9-10.99-33.05c-1.69-0.63-2.48-0.83-4.47-1.88C276.82,322.68,288.12,304.59,288.12,304.59L288.12,304.59z"/>
</g>
<g>
	<path class="st0" d="M304.05,285.73c-0.27-0.13-0.13,0.01,0.02,0.13c2.19,1.59,4.59,2.95,6.91,4.57
		c6.09,4.12,11.93,8.88,16.67,14.79c12.08,14.54,12.56,33.26,3.8,49.51c-9.78,18.86-24.06,34.78-39.53,49.02
		c-4.71,4.29-9.5,8.38-14.61,12.27c0,0-2.84-3.37-2.84-3.37c8.67-8.66,16.72-18.27,23.76-28.31c8.87-12.71,24.51-38.81,20.64-54
		c-3.2-11.84-15.46-17.37-26.02-21.67c-1.21-0.52-1.92-0.84-3.33-1.7C289.51,306.97,304.05,285.73,304.05,285.73L304.05,285.73z"/>
</g>
<g>
	<path class="st0" d="M177.03,327.65c-5.28,2.94-10.97,7.56-13.65,12.8c-3.15,5.79,0.09,11.54,2.56,16.95
		c6.77,13.35,16.17,26.07,25.58,37.84c0,0-5.5,4.93-5.5,4.93c-5.51-5.78-10.7-11.66-15.74-17.83c-7.54-9.65-21.56-26.56-20.63-39.37
		c0.89-11.76,9.36-20.75,18.21-27.3c0.5-0.33,0.98-0.71,1.56-1.06C169.43,314.62,177.03,327.65,177.03,327.65L177.03,327.65z"/>
</g>
<g>
	<path class="st0" d="M159.8,316.46c-1.98,1.05-2.77,1.24-4.47,1.88c-19.07,6.16-18.36,16.8-10.99,33.05
		c5.87,12.66,14.86,24.56,24.48,34.96c3.29,3.54,6.74,7.02,10.29,10.24c0,0-2.23,2.89-2.23,2.89c-8.22-5.72-15.82-12.09-23.13-19
		c-13.67-13.45-33.74-35.49-28.61-56.44c2.73-11.76,12.96-19.57,22.77-25.18c0.41-0.27,0.85-0.59,0.57-0.5L159.8,316.46
		L159.8,316.46z"/>
</g>
<g>
	<path class="st0" d="M147.11,300.75c-1.71,1.05-3.24,1.67-4.96,2.39c-15.61,6.13-28.95,15.41-24.07,34.11
		c2.55,9.79,5.98,19.35,10.92,28.22c4.95,8.93,11.17,17.56,19.09,24.1c0,0-2.3,3.76-2.3,3.76c-4.98-2.77-9.36-6.18-13.6-9.92
		c-10.52-9.36-19.15-20.79-25.97-33.12c-4.78-8.38-7.62-17.18-7-27.41c1.16-19.04,16.19-32.67,31.28-41.85
		c0.76-0.51,1.49-0.94,2.11-1.45c0.14-0.11,0.15-0.17-0.04-0.07L147.11,300.75L147.11,300.75z"/>
</g>
<path class="st0" d="M270.8,157.95c-1.1-0.14-2.3,0.04-3.58,0.64c-2.73,1.28-4.56,3.92-5.99,6.58c-1.27,2.35-2.36,4.86-2.57,7.52
	c-0.21,2.66,0.58,5.51,2.57,7.29c1.99,1.78,5.28,2.16,7.33,0.45c-1.06,0.93-2.12,1.87-3.17,2.8c2.82,0.15,5.36-1.72,7.15-3.9
	c3.15-3.84,4.66-8.97,4.23-13.9C276.45,161.79,274.13,158.38,270.8,157.95z"/>
<path class="st0" d="M166.09,156.18c-0.99,0.49-1.89,1.31-2.62,2.53c-1.56,2.58-1.6,5.79-1.32,8.8c0.25,2.66,0.75,5.35,2.06,7.68
	c1.31,2.33,3.55,4.25,6.19,4.62s5.59-1.15,6.34-3.71c-0.36,1.36-0.72,2.73-1.08,4.09c2.42-1.45,3.5-4.42,3.77-7.22
	c0.48-4.95-1.12-10.04-4.23-13.9C172.92,156.22,169.1,154.68,166.09,156.18z"/>
</svg>
