<?xml version="1.0" encoding="utf-8"?>
<!-- Generator: Adobe Illustrator 26.0.3, SVG Export Plug-In . SVG Version: 6.00 Build 0)  -->
<svg version="1.1" id="Navy" xmlns="http://www.w3.org/2000/svg" xmlns:xlink="http://www.w3.org/1999/xlink" x="0px" y="0px"
	 viewBox="0 0 990 1080" style="enable-background:new 0 0 990 1080;" xml:space="preserve">
<style type="text/css">
	.st0{fill:#003867;}
</style>
<g>
	<path class="st0" d="M713.27,690.17c2.83-11.58,8.54-21.87,16.95-30.1c4.76-4.18,8.98-9.27,11.38-15.32l-1.51-3.22
		c-7.72-2.11-15.81,1.72-20.97,7.38c-15.7,15.32-21.74,41.11-11.56,60.86l3.45-0.85C711.11,702.3,711.79,696.08,713.27,690.17z"/>
	<path class="st0" d="M967.55,770.79c-6.7-7.48-13.95-11.8-20.45-18.7c-15.93-16.35-26.9-35.9-38.19-56.07
		c-14.36-25.73-29.12-52.9-52.68-72.1c-48.45-39.18-114.06-33.04-171.46-23.08l0.4,3.53c0,0,21.7-1.42,21.7-1.42
		c35.34-2.13,71.87-2.47,105.26,10.43c42.96,15.61,62.26,51.95,81.3,90.84c10.7,21.33,22.22,43.96,38.88,61.93
		c3.81,4.15,8.48,8.54,12.55,12.04c2.64,2.33,4.98,4.44,6.63,6.44c4.8,5.22,3.64,10.68-0.61,15.75c-3.37,4.11-8.17,6.75-13.2,8.49
		c-10.92,3.75-25.74,5.77-37.03,11.23c-23.13,9.96-42.36,28.69-57.83,47.59c-26.01,31.46-45.89,68.89-82.25,89.17
		c-2.93,1.65-6.22,3.16-9.27,4.5c-5.84,2.37-12.38,4.32-18.47,2.39c-4.31-1.38-8.27-4.74-9.2-9.33l-3.54,0.27
		c-0.01,2.47,0.67,4.83,1.82,6.97c0.47,6.68-1.99,13.22-5.96,18.22c-6.26,7.94-16.29,12.17-26.1,13.79
		c-4.63,0.7-8.83,0.79-12.82-0.79c-2.52-1.08-5.26-3.15-5.67-5.86c0,0-2.4-2.89-2.4-2.89c-3.71-4.49-10.9-4.44-14.52,0.15
		c-9.15,11.32-18.25,22.99-33.2,25.05c-6.92,0.91-14.1,0.03-20.54-2.66c-7.97-3.14-14.72-9.16-18.67-16.79
		c-4.64-9.28-5.44-20.26-2.64-30.22c9.45-2.9,18.54-6.86,26.99-11.94c22.19-13.43,38.21-36.51,43.88-61.59
		c1.41-6.37,2.27-12.87,2.38-19.38c0.02-0.67-0.34-1.33-0.98-1.66c-0.93-0.49-2.07-0.06-2.49,0.89c-1.17,2.26-2.14,4.55-3.27,6.76
		c-11.11,22.93-27.81,43.86-50.7,55.48c-24.05,12.18-53.78,16.5-80.61,16.06c-18.32-0.44-36.58-3.71-53.25-11.62
		c3.82-3.05,7.38-6.42,10.64-10.04c9.48-10.55,16.64-23.7,18.31-37.91c0,0-3.35-1.18-3.35-1.18c-2.82,4.21-5.45,8.46-8.22,12.66
		c-4.57,6.76-9.29,13.41-14.55,19.61c-6.28,7.52-13.43,14.27-20.97,20.57c3.87-11.21-0.56-25.15-9.04-33.36
		c-11.92-11.97-32.87-18.17-49.45-15.95c-2.2,0.37-4.45,1.11-6.57,2.15c2.43-4.22,5.22-8.22,8.53-11.97
		c3.93-4.6,7.89-8.91,10.85-14.41c3.2-5.83,5.35-13.9,2.22-20.28l-3.55,0.08c-1.47,2.73-2.91,4.81-4.54,6.74
		c-5.4,6.22-11.73,11.85-16.64,18.69c-1.39,1.83-2.65,3.79-3.78,5.84c-2.96-0.69-5.92-1.1-8.94-1.38c-3.91-0.36-7.6-0.34-11.32-0.18
		c-7.44,0.09-14.9-0.83-22.09-2.92c-13.31-3.84-25.14-11.19-35.37-20.88c8.93-4.06,17.06-9.81,23.83-17.74
		c4.33-4.96,8.35-10.18,11.42-15.95c2.3-4.45,4.12-8.99,5.16-13.85c7.17,6.13,17.59,8.93,26.78,6.48
		c5.56-1.55,11.02-5.96,11.88-11.93c0.02-1.33-1.14-2.33-2.45-2.23c-4.12,0.08-8.39,0.36-12.34,0.78
		c-11.66,2.21-22.31-3.54-30.39-12.15c-1.15-1.34-3.46-0.33-3.24,1.44c0.5,4.63,2.49,9.11,5.43,12.98
		c-4.25,3.52-7.71,7.62-11.08,11.86c-11.16,15.35-20.21,25.82-38.95,31.77c-11.14,3.57-23.06,4.7-34.86,4.91
		c-11.88,0.13-24.07-0.07-35.5-3.11c-23.12-5.98-42.33-22.67-55.18-42.43c-7.15-11.23-12.83-23.99-17.14-37.67
		c0.23-1.86-0.33-3.82-1.58-5.24c-15.42-54.25-9.8-121.57,13.33-167.18c16.36-33.39,42.3-65.92,41.12-105.31
		c-0.31-11.76-3.31-23.98-9.99-33.76c0.99-0.94,2.05-1.83,3.17-2.65c12.58-9.3,29.71-8.19,43.98-3.28c0.82,0.29,1.76-0.07,2.16-0.87
		c0.45-0.88,0.1-1.95-0.77-2.4c-4.98-2.55-10.31-4.56-15.91-5.76c-17.39-4.16-38.04,2.07-46.98,18.57
		c-0.58,0.99-1.55,3.36-2.18,4.45c-0.49-0.32-0.99-0.72-1.52-1.25c-7.58-7-12.98-16.03-18.33-25.03
		c-4.12-7.02-12.43-21.13-16.62-28.11c-2.59-4.56-5.67-9.94-4.45-14.81c0.69-0.4,2.14-0.56,3.36-0.45
		c6.87,0.32,15.18,4.3,22.73,5.84c5.99,1.27,12.17,1.56,18.23,0.79c3.76-0.38,7.67-1.73,11.27-1.77c4.01,0.05,7.36,3.14,10.13,6
		c4.3,4.26,11.07,3.91,15.39,0.11c1.34-1.05,0.55-3.32-1.15-3.32c-2.93-0.07-6.17-0.09-7.4-2.96c-0.53-1.06-1.18-2.08-1.91-3.04
		c13.87,1.07,27.08,5.96,39.31,12.52c13.48,7.37,28.18,16.38,37.17,28.44c14.84,19.77,16.28,46.36,11.12,69.92
		c-13.27,55.18-59.4,98.8-63.7,157.63c-1.48,17.75,1.58,36.19,10.05,51.96c12.41,23.16,32.59,39.82,58.96,34.22
		c0,0.01,0,0.02,0.01,0.03c0.17,0.79,0.87,1.39,1.72,1.4c1,0.02,1.82-0.79,1.81-1.79c0-0.18,0.02-0.36,0.03-0.54
		c0.61-0.17,1.22-0.34,1.83-0.54c10.06-3.24,19.52-8.98,26.73-16.68c4.05-4.3,7.18-8.81,10.59-12.3c3.5-3.76,7.62-6.12,12.56-7.86
		c0.69-0.22,1.21-0.82,1.28-1.58c0.08-0.99-0.65-1.87-1.65-1.95c-13.34-1.37-21.65,7.57-30.44,15.96
		c-4.89,4.53-10.44,8.34-16.51,10.98c2.44-4.29,5.52-8.36,8.29-12.69c12.93-19.24,6.75-28.55,7.44-48.76
		c0.26-3.93,1.12-7.68,3.38-10.52c1.64-1.97,3.79-3.3,6.35-4.4c5.14-2.33,10.47-3.32,16.37-3.92c22.03-1.7,45.75,3.18,66.63-7.55
		c6.23-3.23,11.99-7.6,16.51-13c18.13-5.15,37.92-4.34,55.52,2.42c4.4,1.69,9.41,3.72,13.58,1.55c-3.45-8.56-14.3-10.56-22.6-14.58
		c-9.4-4.55-16.77-13.13-19.84-23.12c-1.7-5.53-2.06-11.44-1.16-17.15c10.78-9.57,26.49-13.75,41.14-13.9
		c19.89-0.38,40.53,5.31,59.67,11.08c19.9,6.18,40.6,12.7,59.82,20.59c4.14,1.67,10.48,4.34,14.41,6.17
		c9.57,4.49,19.05,9.87,29.04,13.74c-1.93,1.1-3.8,2.41-5.68,4.19c-12.19,11.71-12.63,33.52-11.21,49.24
		c2.63,27.5,15.08,53.87,33.74,74.09c3.72,3.92,7.62,7.64,11.91,10.94l2.96-1.95c-1.68-6.97-3.69-13.51-5.44-20.04
		c-7.38-26.54-13.36-53.56-11.74-80.85c0.26-3.99,0.45-8.8,0.49-12.74c0.01-0.64-0.2-0.9-0.04-1.67c0.57-2.25,2.67-4.9,4.13-7.22
		c3.98-6.31,7.42-12.72,9.65-20.13c0,0-2.3-2.7-2.3-2.7c-7.09,0.94-13.48,3.06-19.83,5.68c-10.83-5.34-20.68-12.8-31.08-19.13
		c-18.63-10.98-38.48-19.95-58.57-27.85c-38.23-15.2-84.09-32.18-123.41-11.06c-11.19,6.11-20.93,15.55-26.29,27.25
		c-3.52,7.4-5.54,16.75-7.99,23.59c-1.79,4.91-3.59,8.41-6.58,11.49c-5.62,5.69-12.64,8.85-20.67,10.45
		c-21.15,3.87-44.15-0.71-64.71,8.37c-10.05,4.1-18.32,11.67-20.47,22.7c-2.43,11.77,1.22,23.09,2.76,34.13
		c1.17,7.1-0.87,13.17-4.01,20.11c-2.79,6.07-6.31,12.8-7.88,19.77c-0.6,0.15-1.21,0.29-1.82,0.41
		c-21.44,4.82-36.57-10.89-45.58-28.51c-9.53-18.56-10.01-40.09-5.33-60.11c12.17-52.94,54.72-94.51,62.3-149.08
		c4.54-31.16-2.72-64.94-29.29-84.47c-5.12-3.82-10.44-7.09-15.93-10.05c7.5-6.22,14.56-12.9,21.31-20.05
		c8.63-9.26,16.5-19.18,22.85-30.3c7.71-12.79,11.34-28.26,4.77-42.48c-3.15-7.07-8.24-13.05-13.92-17.97
		c-0.65-0.56-1.32-1.09-1.98-1.62c19.89,1.93,39.42-10.07,49.34-27.05c0.84-1.37,1.61-2.8,2.34-4.23c1.47-2.4,1.02-5.28-0.83-7.23
		c-1.05-1.27-2.13-2.51-3.22-3.74c5.55-8.95,7.59-19.59,7.42-29.88c-0.34-14.16-3.26-29.08-12.37-40.35
		c-1.97-2.38-4.22-4.48-6.65-6.25c27.94-15.86,34.15-56.17,23.31-84.8c-9.56-25.66-31.91-47.6-58.15-55.76
		c-0.34-0.12-0.81-0.21-1.16-0.3c-3.84-0.8-7.89-1.7-11.79-2.31c-0.32-0.04-0.72-0.09-1.04-0.1c-0.31,0.02-0.15-0.05-0.99,0.09
		c-0.62-1.6-5.41,6.65-3.49,4.28c0,0,0,0.1,0,0.1c0.29,8.17-0.24,16.31-0.8,24.56c-2.67-3.72-5.55-7.33-8.71-10.8
		c0,0-4.7-5.04-4.7-5.04c-0.72,1.4-3.57,6.13-4.16,7.63c-7.96,18.72-8.69,40.23-3.22,59.69c4.11,14.72,11.89,28.03,21.29,39.96
		c1.09,1.34,3.6,4.63,4.77,5.82c1.23,1.33,3.02,3.33,4.25,4.65c2.5,2.4,5.76,5.52,8.54,7.56c1.13,0.97,2.93,2.1,4.19,2.93
		c1.74,1.22,3.73,2.14,5.61,3.15c0.82,0.3,2.76,1.16,3.62,1.46c4.21,1.36,8.72,2.11,13.11,1.24c0.9-0.23,1.92-0.4,2.75-0.87
		c0.01,0.01,0.01,0.02,0.01,0.02c1.13-0.43,2.22-0.9,3.29-1.4l-0.05,0.05c3.92,4.84,6,10.58,6.92,16.4
		c0.91,5.84,0.69,11.85-0.18,17.73c-1.13,7.64-3.66,17.02-8.53,23.34c-2.87-2.72-5.76-5.43-8.64-8.14
		c-3.25,5.57-7.93,10.12-12.93,14.11c-0.2-0.18-0.39-0.36-0.6-0.54c-12.19-10.8-25.71-19.99-40.32-27.3c-7-3.5-14.07-6.44-21.2-8.83
		c0.29-1.64,0.39-3.33,0.51-5c0.33-4.59,0.57-9.15,0.55-13.75c13,1.85,23.63-11.96,25.76-23.8c3.96-22.76-23.02-30.84-34.94-12.42
		c-5.93,9.56-6.92,28.19,3.95,34.45c-2.03,2.97-3.83,6.06-5.52,9.22c-1.23,2.46-2.67,4.91-3.62,7.51
		c-20.88-4.92-42.06-4.99-62.96,0.18c-0.47-1.33-1.05-2.62-1.61-3.92c-1.97-4.54-4.03-9.01-6.4-13.37c0.16-0.07,0.33-0.12,0.49-0.19
		c13.3-6.36,12.19-25.35,5.42-36.22c-10.81-17.5-33.94-10.04-34.62,9.96c-0.32,11.53,11.39,27.84,23.86,27.49
		c-0.49,3.82-0.68,7.65-0.72,11.49c0.05,2.9-0.1,5.89,0.34,8.76c-5.55,1.98-11.07,4.34-16.55,7.09
		c-14.73,7.35-28.37,16.63-40.6,27.61c-0.54,0.5-1.08,1-1.61,1.5c-1.76-1.25-3.49-2.56-5.13-3.96c-2.13-1.82-4.24-3.64-5.97-5.93
		c0,0-2.31-3.07-2.31-3.07c-2.7,2.89-5.41,5.78-8.1,8.68c-5.27-5.99-8.4-15.2-10.01-22.74c-2.45-11.61-2.57-24.28,4.53-34.47
		c1.1,0.42,2.21,0.79,3.33,1.12c0,0,0.01-0.02,0.01-0.03c0.86,0.42,1.89,0.53,2.8,0.69c4.44,0.59,8.9-0.46,13.01-2.08
		c0.83-0.41,2.7-1.28,3.52-1.69c2.56-1.45,5.14-3.22,7.44-5.05c0.59-0.4,1.43-1.18,1.95-1.65c2.65-2.23,5.69-5.55,8.04-8.1
		c1.15-1.39,2.79-3.51,3.94-4.91c1.11-1.29,3.37-4.7,4.39-6.12c8.61-12.51,15.52-26.29,18.68-41.24
		c4.21-19.78,2.11-41.19-7.03-59.36c-0.42-1.01-3.98-6.25-4.64-7.35c0,0-4.36,5.33-4.36,5.33c-2.93,3.66-5.57,7.45-8,11.34
		c-1.07-8.13-2.12-16.16-2.36-24.26l-0.01-0.2l0-0.1c2.07,2.23-3.24-5.69-3.76-4.05c-0.85-0.08-0.69-0.02-1-0.02
		c-0.32,0.02-0.72,0.11-1.03,0.16c-2.79,0.62-5.54,1.39-8.23,2.11c-0.41,0.14-3.5,0.95-3.84,1.08c-1.08,0.37-2.2,0.81-3.25,1.25
		C50.38,40.84,30.76,63.15,23.03,88.67c-8.18,27.44-1.76,62.41,22.58,79.69c1.93,1.31,3.96,2.48,6.04,3.49
		c-13.51,11.38-16.63,30.83-15.93,47.68c0.49,10.28,3.2,20.77,9.32,29.34c-1.01,1.3-2,2.61-2.97,3.94
		c-1.73,2.08-1.98,4.97-0.37,7.27c0.82,1.38,1.69,2.76,2.61,4.07c8.8,12.81,22.89,22.38,38.53,24.06c0.37,0.04,0.74,0.07,1.11,0.1
		c-4.64,4.82-8.48,10.37-10.75,16.91c-3.83,10.5-2.18,22.57,2.31,32.13c4.51,8.9,9.97,17.39,16.34,25.04
		c6.08,7.19,12.84,13.82,20.69,19c-2.23,2.88-3.28,6.7-2.95,10.72c0.37,6.78,3.48,12.63,6.71,17.98
		c4.28,6.97,13.02,20.94,17.38,27.85c6.04,9.52,12.35,19.33,21.24,26.82c7.37,6.73,15.41,4.42,18.32-5.02
		c0.73-1.91,1.72-3.69,2.9-5.36c8.54,33.33-5.34,66.84-21.9,95.86c-5.92,10.79-12.22,21.67-17.69,33.23
		c-16.32,34.72-21.89,73.68-19.93,111.73c1.22,20.05,3.92,40.34,9.27,59.82c-6.98,1.05-14.1,1.81-21.12,2.32
		c-16.45,1.06-33.4,1.18-49.45-2.79c-7.78-2.06-15.6-5.18-21.34-10.95c-0.4-0.45-1.01-0.69-1.64-0.58
		c-0.99,0.17-1.63,1.13-1.42,2.11c1.16,6.29,3.45,11.96,6.38,17.55c9.11,17.44,24.83,30.83,42.33,39.47
		c10.55,5.1,21.91,8.78,33.36,11.26c12.22,2.61,24.7,4.23,37.06,3.41c2.03-0.19,3.64-0.95,4.83-2.03
		c13.34,16.83,30.7,30.49,51.51,36.95c12.49,3.88,25.43,4.67,38.3,5.07c14.66,0.48,29.71-1.03,43.3-6.02
		c10.03,24.35,36.95,40.16,63.19,39.57c5.14,0.1,10.51-0.96,15.22-3.24c-1.08,5.47-1.08,11.1,0.3,16.49
		c-17.2,7.65-34.61,13.96-52.55,17.79c-50.25,11.11-101.77-0.65-146.07-25.9c-10.48-5.88-20.65-12.61-30.18-20
		c0,0,2.63,4.41,2.63,4.41c3.08,6.96,6.63,13.62,10.44,20.18c22.71,38.8,54.78,73.39,95.87,92.93
		c36.71,17.07,80.32,21.17,118.7,7.36c29.47-10.57,56.26-29,74.56-54.46c0,0-0.49-0.45-0.88-0.81c6.64-2.35,12.88-5.7,18.6-9.79
		c3.09,3.77,6.71,7.14,10.63,10.13c12.78,9.78,28.38,15.41,44.1,18.26c19.67,3.29,40.51,2.73,60.12-2.18
		c-6.41,20.82,0.92,43.33,20.18,55.02c8.84,5.36,19.22,8.12,29.57,7.84c16.1-0.37,28.58-8.82,39.6-19.05
		c3.27,2.09,6.97,3.53,10.8,4.23c11.51,1.95,22.48-2.17,32.09-7.73c12.32-7,22.19-20.41,21.61-34.67c1.17,0.96,2.44,1.8,3.77,2.47
		c14.66,7.44,37.17-2.83,50.4-10.38c13-7.76,24.6-17.8,35.06-28.66c32.65-33.33,60.3-83.62,107.46-95.04
		c6.6-1.73,14.06-3.17,21.97-6.04c8.65-3.05,16.73-8.03,22.59-15.26C978.64,801.01,979.28,783.67,967.55,770.79z M274.8,31.42
		c0.01-0.2,0.02-0.46,0.03-0.59C275.52,29.96,275.34,30.48,274.8,31.42z M274.46,36.2c2.43,0.65,4.88,1.36,7.18,2.03
		c24.96,9.73,48.47,36.55,54.14,63.09c5.03,23.63-0.32,52.4-21.37,66.49c0.32-2.52,0.55-5.06,0.7-7.58
		c1.3-25.34-1.09-54.41-13.34-77.03l-2.19-4.01c0,0-1.07,3.88-1.07,3.88c-2.73,5.24-6.1,11.73-8.97,17.03
		c-2.04-5.02-4.32-9.9-6.71-14.76c-4.22-8.32-8.56-16.48-13.6-24.24C271.86,53,273.66,44.68,274.46,36.2z M291.58,106.58
		c0-0.13-0.01-0.26-0.02-0.39C291.57,106.31,291.58,106.45,291.58,106.58z M291.58,106.73c0,0.04,0,0.08,0,0.12
		c-0.03,0.24-0.01,0.07-0.01,0.01C291.57,106.86,291.57,106.79,291.58,106.73z M286.19,106.5c-0.01-0.13-0.01-0.28,0.03-0.39
		C286.2,106.24,286.19,106.37,286.19,106.5z M294.19,166.6c-4.1-2.25-7.81-5.31-11.23-8.51c-0.63-0.68-3.57-3.65-4.15-4.28
		c-1.68-2.07-3.74-4.34-5.33-6.47c-1.59-2.28-4.16-5.5-5.57-7.85c-7.09-10.46-12.85-22.11-15.71-34.43
		c-3.67-15.64-3-32.41,2.54-47.49c8.44,9.31,15.52,20.32,21.96,31.08c3.33,5.76,6.74,11.67,9.36,17.76c0.08,0.22,0.11,0.3,0.13,0.32
		c0.13,2.08,2.67,3.49,4.56,1.83c0.65-0.61,1.05-1.63,1.41-2.34c2.57-5.51,4.95-10.99,7.32-16.48c0.4,1.84,0.81,3.66,1.14,5.51
		c4.91,23.2,8.13,46.76,9.42,70.47c0.05,0.98,0.18,3.24,0.22,4.29C304.77,171.18,298.98,169.28,294.19,166.6z M223.28,159.24
		c0.82-6.28,3.5-12.78,9.01-16.2c6.9-4.24,15.63-2.4,17.75,5.81c1.68,7.2-1.81,17.65-8.09,23.21c1.47-3.06,2.13-6.51,1.83-9.89
		c-0.31-3.53-2.56-6.84-5.8-7.26c-1.07-0.14-2.24,0.04-3.49,0.62c-2.66,1.24-4.43,3.81-5.83,6.4c-1.23,2.28-2.29,4.73-2.49,7.31
		c-0.12,1.57,0.12,3.19,0.75,4.62C223.13,170.57,222.62,164.09,223.28,159.24z M146.33,173.26c-0.05,0.04-0.1,0.08-0.16,0.11
		c0.14-0.26,0.26-0.53,0.34-0.82C146.46,172.79,146.4,173.02,146.33,173.26z M129.19,166.44c-3.6-5.21-5.97-11.83-4.17-18.06
		c2.28-7.77,9.99-12.26,17.07-7.59c8.02,5.57,13.13,21.37,6.89,29.84c0.07-0.37,0.12-0.75,0.16-1.12c0.46-4.81-1.09-9.77-4.11-13.52
		c-2.22-2.76-5.94-4.25-8.86-2.8c-0.96,0.48-1.84,1.28-2.55,2.46c-1.51,2.51-1.56,5.63-1.28,8.56c0.25,2.58,0.73,5.2,2,7.47
		c0.12,0.21,0.25,0.42,0.39,0.62C132.52,170.66,130.6,168.5,129.19,166.44z M114.77,102.91c-2.07,12.49-7.07,24.47-13.48,35.37
		c-1.26,2.45-3.62,5.8-5.05,8.19c-1.45,2.23-3.36,4.63-4.91,6.8c-0.55,0.61-3.23,3.84-3.86,4.53c-3.2,3.41-6.71,6.7-10.66,9.21
		c-4.61,2.97-10.27,5.25-15.82,4.44c-0.03-1.02-0.04-3.44-0.06-4.3c-0.24-23.74,1.47-47.46,4.88-70.93
		c0.21-1.87,0.51-3.72,0.79-5.57c2.72,5.33,5.45,10.64,8.36,15.98c0.41,0.69,0.87,1.67,1.56,2.24c1.96,1.53,4.44-0.01,4.43-2.12
		c0.02-0.06,0.04-0.15,0.1-0.32c2.23-6.25,5.25-12.36,8.2-18.33c5.74-11.16,12.1-22.59,19.93-32.43
		C115.68,70.38,117.43,87.07,114.77,102.91z M75.59,107.23c-0.01-0.04,0-0.08-0.01-0.11C75.59,107.17,75.6,107.24,75.59,107.23
		C75.61,107.29,75.64,107.46,75.59,107.23z M75.57,106.58c0,0.12,0,0.25,0,0.37C75.56,106.82,75.56,106.7,75.57,106.58z
		 M80.94,106.54c-0.01-0.13-0.03-0.26-0.06-0.39C80.92,106.27,80.94,106.41,80.94,106.54z M87.43,30.29l0.01,0.11
		c0,0,0.03,0.22,0.03,0.22c0.01,0.09,0.02,0.17,0.03,0.26C86.9,29.98,86.68,29.47,87.43,30.29z M40.68,154.16
		c-7.08-10.84-10.14-23.96-10.41-36.81c-0.58-21.63,9.21-42.31,23.52-58.18c7.74-8.69,17.33-16.74,27.78-21.24
		c2.12-0.75,4.37-1.56,6.58-2.31c1.34,8.42,3.66,16.61,6.81,24.52c-4.54,8.07-8.35,16.49-12.02,25.06c-2.07,5-4.03,10.02-5.75,15.16
		c-3.21-5.11-6.99-11.37-10.04-16.42c0,0-1.32-3.8-1.32-3.8c0,0-1.93,4.15-1.93,4.15c-10.77,23.36-11.3,52.52-8.38,77.72
		c0.32,2.5,0.7,5.02,1.19,7.51C50.15,165.69,44.68,160.41,40.68,154.16z M227.54,390.67c-1.22-0.42-2.45-0.81-3.69-1.19
		c9.25-9.69,17.77-19.62,24.65-31.46c1.46-2.48,2.82-5.49,3.84-8.2c4.55-12.18-2.75-23.97-11.93-31.99c1.25-0.84,2.48-1.7,3.69-2.6
		c1.73,0.9,2.51,1.11,4.08,1.69c18.53,5.98,17.86,16.32,10.69,32.14C251.57,364.57,240.05,378.68,227.54,390.67z M253.55,296.09
		c-5.13,6.63-11.41,12.67-18.44,17.64c-0.21-0.15-0.43-0.29-0.64-0.43c0,0-0.68,1.17-0.86,1.47c-7.2,4.87-15.13,8.62-23.38,10.71
		c-24.46,4.92-50.16-3.26-70.43-17.56c-0.24-0.42-0.39-0.67-0.39-0.67c-0.1,0.06-0.19,0.12-0.28,0.19c-3.32-2.38-6.5-4.91-9.49-7.59
		c-6.64-6.01-12.57-12.74-17.7-20.09c-0.08-0.12-0.16-0.25-0.25-0.37c0.1-0.15,0.21-0.29,0.31-0.45c0,0-0.71-0.62-1.42-1.24
		c-1.3-2.04-2.52-4.1-3.77-6.14c2.55,1.12,5.12,2.17,7.71,3.14c12.02,4.54,25.1,8.07,37.65,10.61c22.92,4.2,46.57,7.89,69.89,5.26
		c14.2-1.59,28.3-5.45,41.34-11.5C260.46,284.95,257.65,290.9,253.55,296.09z M125.7,310.88c1.65-0.63,2.42-0.8,4.34-1.83
		c0,0-0.11-0.18-0.11-0.18c0.26,0.2,0.52,0.41,0.79,0.6c0.98,0.72,1.98,1.42,2.99,2.12c-8.86,7.68-16.27,18.96-12.6,30.96
		c1.45,4.45,3.37,7.99,5.43,11.49c6.17,10.06,13.3,18.98,20.97,27.61c-2.09-0.64-4.18-1.37-6.28-2.08
		c-4.08-4.23-7.96-8.67-11.55-13.26c-7.16-9.18-13.31-18.74-17.16-29.44C107.17,322.59,111.7,315.48,125.7,310.88z M188.7,386.08
		c-2.98-2.19-6.55-3.61-10.3-3.78c-4.61-0.28-8.69,1-13.04,1.37c-1.97,0.17-3.96,0.21-5.94,0.13c-8.65-10.92-17.17-22.66-23.4-34.94
		c-2.41-5.26-5.55-10.85-2.49-16.48c2.6-5.1,8.13-9.6,13.27-12.45c0,0-0.16-0.27-0.42-0.72c19.89,10.33,42.82,15.13,64.92,11.21
		c5.59-1.25,11.11-3.13,16.42-5.53c-0.1,0.17-0.63,1.09-0.63,1.09c0.03,0,0.23,0.12,0.37,0.19c6.75,4.01,16.17,11.54,13.8,20.17
		c-0.61,2.22-1.5,4.66-2.48,6.75c-5.7,12.2-14.32,23.79-22.94,34.31C206.91,385.44,197.75,384.77,188.7,386.08z M285.33,329.13
		c-0.21,5.06-2.05,10.32-3.84,15.17c-4.07,10.68-10.01,21-16.84,30.75c-5.74,8.16-12.14,16.06-19.03,23.34
		c-3.01-1.5-6.07-2.94-9.19-4.33c-1.44-0.61-2.89-1.19-4.35-1.75c6.17-4.62,11.99-9.62,17.64-14.96
		c15.61-15.42,38.73-41.13,23.8-63.97c-2.75-4.17-6.4-7.54-10.31-10.37C274.61,307.92,286.21,315.37,285.33,329.13z M301.18,234.92
		c1.53-0.82,3.04-1.68,4.58-2.52c8.54,6.22,16.04,13.83,22.82,21.91c-0.59,1.1-1.28,2.32-1.93,3.34
		c-9.38,15.54-27.28,25.55-45.49,23.81c-4.02-0.29-7.86-0.94-11.2-2.73c0.15-1.02,0.25-2.05,0.28-3.09
		c12.8-6.92,24.33-16.08,33.56-27.44c0.52-0.68,0.47-1.66-0.15-2.28c-2.56-2.87-5.22-5.55-7.98-8.13
		C297.6,236.81,299.86,235.63,301.18,234.92z M172.97,201.56c41.67-4.91,83.07,12.07,115.95,36.81c3.75,2.83,7.48,5.83,10.98,8.96
		c-9.49,11.03-21.8,19.63-34.82,26.02c-22.77,11.14-48.77,14.44-73.83,11.68c-8.62-0.98-17.92-2.36-26.5-3.85
		c-11.07-2.09-22.57-4.73-33.3-8.14c-18.16-5.58-35.07-13.85-49.98-25.55c0.77-0.85,1.59-1.69,2.39-2.47
		C108.13,222,139.66,205.66,172.97,201.56z M47.64,257.37C47.64,257.38,47.64,257.38,47.64,257.37L47.64,257.37z M59.48,269.96
		c-4.47-3.73-8.32-8.25-11.39-13.22c0.14-0.19,0.3-0.4,0.3-0.4c6.2-8.33,13.08-16.27,21.08-22.91c1.6,0.73,3.16,1.5,4.74,2.22
		c1.22,0.55,3.2,1.43,5,2.23c-2.27,2.24-4.44,4.58-6.32,7.2c-1.34,1.88-1.69,4.58,0.57,6.39c7.53,6,15.75,11.32,24.39,15.81
		c0.31,1.38,0.7,2.74,1.15,4.08c0.51,1.29,1.1,2.54,1.71,3.78c-3.02,1.9-6.01,3.95-8.89,6.18
		C80.14,281.69,68.46,277.64,59.48,269.96z M116.33,378.09c-6.6-6.06-11.92-13.6-16.23-21.38c-4.81-8.63-8.14-17.92-10.62-27.44
		c-4.52-17.3,6.99-26.3,21.19-32.27c-6.64,4.9-12.39,11.16-14.31,19.43c-4.98,20.39,14.52,41.78,27.82,54.88
		c1.87,1.77,3.77,3.5,5.69,5.2c-3-0.46-6.05-0.55-9.18,0.01C119.06,376.81,117.62,377.36,116.33,378.09z M141.25,800.6
		c-4.95-0.22-12.27-0.46-17.26-0.75c-4.86-0.39-10.12-0.99-14.96-1.73c-20.29-3.39-40.47-11.06-55.64-25.32
		c-6.36-5.98-12.01-13.08-15.93-20.97c1.32,1,2.69,1.93,4.09,2.78c23.69,13.83,60.85,14.57,88.1,12.66
		c3.86,11.29,8.72,22.21,14.85,32.54c0.18,0.3,0.37,0.6,0.56,0.91C143.79,800.67,142.52,800.63,141.25,800.6z M399.7,966.38
		c-39.59,19.92-85.62,29.87-129.12,18.71c-40.89-10.52-75.28-37.88-102.23-69.78c-7.92-9.37-15.31-19.3-21.93-29.7
		c38.99,35.68,93.59,56.53,146.56,51.22c2.34-0.12,5.64-0.71,8-1.06c5.35-0.66,10.55-2.05,15.79-3.22
		c3.77-1.05,7.77-2.34,11.54-3.52c2.7-0.96,8.4-3.28,11.21-4.38c7.91-3.51,15.5-7.67,22.83-12.23c2.83-1.96,5.84-4.08,8.7-6.18
		c2.26-0.29,4.5-0.52,6.01-0.51c4.98,0.18,10.25-0.01,15.24-0.22c13.7,0.62,30.74,4.3,39.01,16.32c4.18,6.19,5.89,14.28,3.31,21.46
		l-5.2,4.96c0,0,1.31-0.42,2.27-0.72C421.36,954.58,410.63,960.89,399.7,966.38z"/>
	<path class="st0" d="M504.41,712.73c6.68,3.92,11.18,11.33,15.71,17.85c2.43,3.55,4.79,7.16,7.09,10.79
		c4.64,7.26,9.09,14.65,13.31,22.18c0,0,3.16-1.61,3.16-1.61c-5.2-11.4-11.42-23.93-17.14-35.17c-4.17-8.05-8.51-16.87-15.88-22.79
		c-14.85-11.52-39.93-14.12-56.99-6.5c-13.57,5.83-24.8,16.82-30.44,30.24c-3.09,8-6.81,15.78-11.82,22.69
		c-4.73,6.74-10.77,12.7-18.38,16.01l1.15,3.36c8.8-2.33,16.81-7.45,23.7-13.4c6.79-5.88,12.87-12.79,19.66-18.49
		c3-2.63,5.68-5.46,8.27-8.32c0.6,1.99,1.45,3.93,2.49,5.72c3.33,5.74,8.62,10.47,14.94,12.49c7.25,2.32,15.61,0.81,21.6-3.89
		s9.44-12.46,8.91-20.06c-0.05-0.73-0.15-1.49-0.59-2.07c-0.56-0.74-1.53-1.02-2.44-1.22c-3.54-0.77-8.13-1.95-8.38-5.56
		c-0.16-2.36,1.81-4.32,2.34-6.62C491.45,708.36,498.65,709.33,504.41,712.73z"/>
</g>
</svg>
