<?xml version="1.0" encoding="utf-8"?>
<!-- Generator: Adobe Illustrator 23.0.4, SVG Export Plug-In . SVG Version: 6.00 Build 0)  -->
<svg version="1.1" id="Layer_1" xmlns="http://www.w3.org/2000/svg" xmlns:xlink="http://www.w3.org/1999/xlink" x="0px" y="0px"
	 viewBox="0 0 126.9 115.1" style="enable-background:new 0 0 126.9 115.1;" xml:space="preserve">
<style type="text/css">
	.st0{fill:#FFFFFF;}
	.st1{clip-path:url(#SVGID_2_);}
	.st2{fill:#DAE1E5;}
	.st3{fill:#F26E46;}
	.st4{fill:#F4896A;}
	.st5{fill:#EC5735;}
</style>
<g>
	<path class="st0" d="M111.1,57.3c0.2,26.3-20.9,47.8-47.2,48c-26.3,0.2-47.8-20.9-48-47.2c-0.2-26.3,20.9-47.8,47.2-48c0,0,0,0,0,0
		C89.4,9.9,110.9,31,111.1,57.3"/>
	<g>
		<defs>
			<path id="SVGID_1_" d="M111.1,57.3c0.2,26.3-20.9,47.8-47.2,48c-26.3,0.2-47.8-20.9-48-47.2c-0.2-26.3,20.9-47.8,47.2-48
				c0,0,0,0,0,0C89.4,9.9,110.9,31,111.1,57.3"/>
		</defs>
		<clipPath id="SVGID_2_">
			<use xlink:href="#SVGID_1_"  style="overflow:visible;"/>
		</clipPath>
		<g class="st1">
			<path class="st2" d="M69.6,9.9l0.1,0L69.6,9.9 M68.8,9.8L68.8,9.8 M68.6,9.7l0.2,0l0,0h-0.1L68.6,9.7 M68.4,9.8L68.4,9.8l-0.3,0
				l0,0L68.4,9.8 M96.7,23.2l-0.2-0.2c-0.8-0.7-1.4-1.3-2.1-1.9l-0.3-0.3c0.9,0.7,1.4,1.2,2.4,2.1L96.7,23.2
				C96.8,23.3,96.8,23.2,96.7,23.2 M108.8,41.4L108.8,41.4L108.8,41.4L108.8,41.4 M108.4,40.4c0.1,0.3,0.3,0.7,0.4,1l0-0.1
				c0-0.1,0-0.1-0.1-0.2v-0.1l0-0.1v0C108.6,40.8,108.5,40.6,108.4,40.4 M105.8,34.9L105.8,34.9c-0.7-1.2-1-1.8-1.6-2.7
				c0.5,0.8,1,1.5,1.4,2.3C105.7,34.7,105.7,34.8,105.8,34.9 M101.7,28.7L101.7,28.7L101.7,28.7L101.7,28.7 M96.7,23.2
				c0.1,0.1,0.2,0.2,0.3,0.3L96.7,23.2C96.8,23.2,96.7,23.2,96.7,23.2L96.7,23.2 M102.5,84.9c-0.1,0.1-0.1,0.2-0.2,0.3
				c0.7-0.9,1.3-1.7,1.8-2.7C103.8,82.9,103.3,83.8,102.5,84.9 M106.1,79L106.1,79c0.6-1,1.1-2.1,1.6-3.2l-0.1,0.1
				C107.2,77,106.7,78,106.1,79 M109.3,71.6C109.3,71.6,109.3,71.7,109.3,71.6c0.3-1,0.6-2,0.9-3l0,0
				C109.9,69.7,109.6,70.7,109.3,71.6L109.3,71.6 M111.6,57.2C111.6,57.3,111.6,57.3,111.6,57.2C111.6,57.3,111.6,57.3,111.6,57.2
				 M111.6,57L111.6,57 M111.6,57L111.6,57 M111,50.2c0.1,0.8,0.2,1.4,0.3,2.3C111.2,51.7,111.1,50.9,111,50.2 M57.9,23.9
				c0-0.1,0-0.1,0-0.2c0-0.1,0-0.3,0-0.4l-0.4-0.1L57,23.5l0.1,0.6h0.5L57.9,23.9 M56.3,23.2L56.3,23.2v-0.2c-0.1,0-0.1,0.1-0.2,0.1
				c-0.1,0-0.1,0-0.2,0c-0.1,0-0.3,0.1-0.4,0.2l-0.2,0.1c0.1,0.1,0.1,0.1,0.2,0.2c0.1,0,0.2,0,0.2,0c0.1,0,0.3-0.1,0.4-0.2
				C56.2,23.4,56.2,23.4,56.3,23.2 M59.6,15.2l0.4-0.1l-0.4-0.3l-0.6,0h-0.4v0.3l0,0.3l0.7,0L59.6,15.2 M67.9,9.7L67.9,9.7L67.9,9.7
				c-0.1,0-0.3,0-0.5-0.1h-0.1h0.1l0,0L68,9.7l0,0l0.5,0.1l0.3,0l0.3,0l0,0l0.3,0h0.2h0.1l-1-0.2h0.1l-0.3,0l-0.3,0h0.1L67.9,9.7
				 M69.1,9.8l-0.3,0l-0.5-0.1h-0.1c0.2,0,0.4,0,0.6,0.1l0,0L69.1,9.8L69.1,9.8l-0.2,0l0.5,0.1l-0.2,0l0,0c0.2,0,0.4,0.1,0.6,0.1
				c-0.1,0-0.3,0-0.4-0.1h0h-0.1c0.1,0,0.3,0,0.4,0.1l0.3,0.1l0.3,0l0.2,0c-0.1,0-0.4-0.1-0.8-0.1h-0.1h-0.1l0,0l-0.4-0.1
				 M71.1,10.4c-0.1,0-0.3-0.1-0.4-0.1h0.1l0,0l-0.7-0.1c0.2,0,0.4,0.1,0.6,0.1h-0.1l-0.4-0.1h-0.1l-0.2,0l0.2,0l0,0h-0.1l0,0
				c0.6,0.1,0.7,0.1,0.9,0.2c-0.2,0-0.4-0.1-0.7-0.1c-0.1,0-0.2,0-0.2,0c0.2,0,0.6,0.1,0.8,0.1l0,0L71.1,10.4l-0.1,0
				c0.1,0,0.2,0,0.4,0.1h0l0.4,0.1c0.1,0,0.2,0,0.3,0.1l0,0h0c0.1,0,0.2,0.1,0.3,0.1c-0.1-0.1-0.3,0-0.4-0.1H72
				C72,10.5,72,10.5,71.1,10.4 M71.9,10.6L71.9,10.6L71.9,10.6L71.9,10.6 M75.1,11.2l-0.2,0l-0.3-0.1h0L74.1,11l0,0
				c-0.4-0.1-0.7-0.2-1.1-0.3l-0.6-0.1c0,0,0.1,0,0.1,0h-0.2L72,10.6c-0.4,0.1-0.7-0.1-1-0.2l0,0c0.2,0,0.3,0.1,0.5,0.1l0.2,0
				c0.3,0,0.5,0.1,0.8,0.2c-0.2,0-0.3,0-0.5-0.1l-0.2,0l-0.2,0l-0.2,0c-0.1,0-0.2,0-0.3-0.1l0.5,0.1l0,0l-0.3-0.1l-0.4-0.1l0.3,0.1
				h0c0.7,0.3,1.4,0.3,2.1,0.5c-0.3,0-0.5-0.1-0.8-0.2c0.1,0,1,0.3,1.1,0.3c-0.2-0.1-0.3-0.1-0.5-0.1c0.2,0,0.4,0.1,0.6,0.1h0
				c-0.1,0-0.5-0.1-0.7-0.2l-0.3-0.1l0,0c0.2,0,0.2,0,0.6,0.1h0l-0.2-0.1l0.1,0c0.1,0,0.3,0.1,0.4,0.1l0.1,0h-0.1h-0.1
				c0,0,0.1,0,0.1,0c0,0,0,0,0.3,0.1l0.3,0.1l-0.1,0l0,0h0.1c0,0,0,0-0.3-0.1h0c0.1,0,0.6,0.2,0.6,0.2l0,0c0,0-0.1,0-0.1,0
				c0.6,0.2,1.1,0.4,1.7,0.5h0l-1.4-0.5c-0.3-0.1-0.5-0.2-0.8-0.2c-0.3-0.1-0.7-0.2-1-0.3h0c1.1,0.3,1.1,0.3,2,0.5l0,0
				c-0.1-0.1-0.3-0.1-0.4-0.1c0.2,0,0.4,0.1,0.6,0.2l0,0C75.4,11.4,75.3,11.4,75.1,11.2L75.1,11.2L75.1,11.2 M96.8,23.7L96.8,23.7
				L96.8,23.7L96.8,23.7l-0.1-0.1l-0.1-0.1l0,0l0,0C96.6,23.5,96.6,23.5,96.8,23.7 M85.5,15.3c-0.2-0.1-0.4-0.2-0.6-0.3l0,0l0,0l0,0
				l0.1,0L85.5,15.3L85.5,15.3 M89.5,17.5l-2.7-1.6l0,0l-0.3-0.2h0l0.3,0.2l0,0l-0.4-0.2l-0.1-0.1l-0.4-0.2h0l0.2,0.1
				c-0.1,0-0.2-0.1-0.3-0.1l-0.2-0.1l-0.3-0.2c-0.2-0.1-0.4-0.2-0.6-0.3l0,0l0.4,0.2l-0.3-0.1l-0.2-0.1l-0.2-0.1v0
				c0.4,0.2,0.4,0.2,0.6,0.3l0.1,0.1l0.1,0.1l0,0c-0.2-0.1-0.4-0.2-0.6-0.3l0,0l-0.4-0.2h0h0c0.2,0.1,0.7,0.4,0.7,0.4l0,0
				c-0.1-0.1-0.3-0.1-0.4-0.2c-0.1,0-0.1,0-0.1,0c0.2,0.2,0.5,0.3,0.8,0.4c0.1,0.1,0.2,0.1,0.3,0.2l0,0c-0.1,0-0.1,0-0.2-0.1h0
				c0.6,0.3,0.6,0.3,0.7,0.4c-0.3-0.2-0.3-0.2-1-0.4c0.1,0.1,0.2,0.1,0.3,0.2c0.3,0.2,0.6,0.4,0.9,0.6c-0.1,0-0.1,0-0.5-0.2
				c0.1,0.1,0.5,0.3,0.5,0.3c0.1,0.1,0.3,0.1,0.4,0.2l0.1,0.1l0.1,0.1c-0.3-0.1-0.6-0.3-0.8-0.4c0.2,0.1,0.3,0.2,0.4,0.3l0.1,0h-0.1
				c0.1,0.1,0.3,0.2,0.4,0.3l0,0c0.1,0.1,0.1,0.1,0.2,0.2l0,0c0.1,0.1,0.2,0.1,0.3,0.2h0l0.1,0.1h0.1c-0.2-0.2-0.2-0.2-0.2-0.3
				L87.3,17l0,0l0-0.1v-0.1c0.1,0,0.2,0.1,0.3,0.2c0.1,0.2,2.5,2.1,2.6,2.1L90,19c0.2,0.2,0.3,0.4,0.5,0.6l0.1,0
				c0.1,0.1,0.1,0.1,1,1c-0.1,0-0.1,0-0.1,0c0,0-0.1,0-0.1,0l0.2,0.2c0.1,0.1,0.2,0.1,0.3,0.2V21v0l0,0c0.2,0.3,0.3,0.5,0.5,0.7
				l-0.1,0c0.2,0.5,0.7,0.7,1,1.1v0l0.1,0.1c0.1,0.1,0.1,0.1,0.2,0.2l0.1,0c0.6-0.1,0.4,0.8,1,0.8c0.2,0.2,0.2,0.2,0.3,0.3
				c0.2,0,0.4,0,0.6-0.1c-0.1-0.1-0.2-0.2-0.2-0.3l0.1,0l0-0.1c-0.1-0.1-0.1-0.1-0.2-0.2c0,0,0.2,0,0.7,0.5c0.2-0.1,0.5-0.1,0.7-0.2
				c-0.2-0.3-0.4-0.5-0.6-0.8L95.8,23c-0.3-0.3-0.7-0.4-1-0.7c-0.3-0.3-0.7-0.6-1-0.9c-1.1-1.1-2.2-2.1-3.5-3h0l0,0
				c0.1,0.1,0.3,0.2,0.4,0.3c-0.1-0.1-0.1-0.1-0.2-0.1c0.2,0.1,0.3,0.2,0.4,0.3l0.4,0.3v0c0.3,0.2,0.6,0.5,0.9,0.7h-0.1
				c0.3,0.3,0.3,0.3,2.2,1.9l0.1,0.1c0.2,0.2,0.6,0.4,1.1,0.8h0c-0.1-0.1-0.1-0.2-0.2-0.3l0.1,0c0-0.1-0.1-0.2-0.2-0.2l0-0.1v-0.1
				l-0.1-0.1l0,0l0.3,0.2l0,0l0.1,0.1c0.3,0.3,0.5,0.5,0.8,0.8c-0.1,0-0.2-0.1-0.2-0.2c0,0.1,0.1,0.2,0.1,0.2l-0.1,0
				c0.1,0.2,0.3,0.3,0.4,0.4c0.1-0.1,0.1-0.2,0-0.3l-0.3-0.2c-3.7-3.2-3.8-3.3-5.9-4.8l-0.8-0.5l0,0L89,17.2
				C89.2,17.3,89.5,17.5,89.5,17.5L89.5,17.5 M95.6,24.2L95.6,24.2c-0.2,0-0.4,0.1-0.6,0.1l0,0l0.1,0.1c0,0,0.1,0.1,0.1,0.1l0.1,0.1
				h0h0h0l0,0l0.1,0.1c0.1,0.1,0.1,0.1,0.2,0.2v-0.1h0h0c0,0,0.1,0.1,0.1,0s0-0.1,0-0.1l0,0c0,0,0-0.1,0-0.1s0,0,0-0.1
				C95.8,24.4,95.7,24.3,95.6,24.2 M96.6,23.9c-0.2,0.1-0.5,0.2-0.7,0.3c0.1,0.1,0.3,0.2,0.4,0.4l0.1,0.1c0.3,0.3,0.3,0.3,0.4,0.4
				c0.1,0.1,0.2,0.2,0.3,0.3l0.1,0.1l0.1,0.1c0.2,0.2,0.3,0.3,0.5,0.5c0.1,0.1,0.3,0.3,0.4,0.4l0,0.1l0.2,0.2l0.2-0.1
				c-0.4-0.5-0.4-0.5-0.4-0.5l0,0h0c0,0,0.1,0.1,0.1,0.1c0-0.1-0.2-0.1-0.1-0.2l0,0c-0.1-0.1-0.2-0.2-0.3-0.4l0.1,0
				c-0.1-0.1-0.2-0.2-0.3-0.3h0v0l0,0c-0.1,0-0.1-0.1-0.2-0.1c-0.2-0.3-0.4-0.6-0.7-0.8C96.8,24.2,96.6,24,96.6,23.9 M101.6,28.6
				c-1.4-1.7-3.3-3.8-4.8-5.3c0.1,0.1,0.1,0.2,0.1,0.3c0,0,0,0,0,0l0,0h0l0,0c0.2,0.2,0.3,0.4,0.5,0.6c0-0.1,0-0.1-0.2-0.3
				c0.2,0.1,0.2,0.1,1.2,1.1v0c-0.1-0.1-0.2-0.2-0.3-0.3c-0.1,0-0.1,0-0.1,0s-0.1-0.1-0.2-0.2c0,0-0.1,0-0.1,0
				c0.6,0.7,1.2,1.4,1.8,2.1l0.1,0.1c-0.1,0-0.1-0.1-0.2,0c0,0,0,0,0.5,0.6v0c-0.2-0.1-0.4-0.3-0.5-0.5c0.1,0.2,0.2,0.5,0.3,0.7
				l-0.1,0.1l0.1,0.1l-0.1,0c-0.1-0.1-0.3-0.3-0.4-0.4c-0.1-0.1-0.1,0-0.1,0l0,0.1c0,0-0.1,0.1-0.1,0.1c0,0.1,0,0.1,0.3,0.4h-0.1
				c-0.1,0-0.1,0-0.4-0.3v0h-0.1c-0.1-0.1-0.1-0.1-0.2-0.2l-0.1-0.2c0-0.1,0-0.1,0.1-0.1c0.1,0,0.2,0.1,0.3,0.2
				c0-0.2-0.6-0.9-0.8-1.1c-0.1-0.1-0.1,0-0.1,0c0,0.1,0,0.1,0.1,0.4v0l0,0c-0.1-0.1-0.1-0.1-0.4-0.4l-0.2-0.2h-0.1
				c-0.3-0.3-0.5-0.6-0.8-0.8c0,0.3,0.4,0.4,0.3,0.7c0,0.1,0.1,0.1,0.2,0.2l0.1,0.1c0.4,0.4,0.7,0.9,1.1,1.3l0.1,0.1l0.2,0.3
				c0.1,0.2,0.3,0.3,0.4,0.4l0.2,0.3h-0.1l-0.1,0.1H99c-0.1,0-0.1,0-0.2,0c0,0.1,0,0.1,0,0.2l0,0.1c0.2,0.3,0.2,0.3,0.2,0.4h-0.1h0
				h0c0,0.1,0,0.2,0.1,0.3l0.2,0.1l0.3,0.4c-0.1,0.1-0.1,0.1,0,0.6c0,0.1,0,0.1,0,0.1h-0.1c0.1,0.3,0.3,0.5,0.5,0.8
				c-0.1,0-0.1,0.1-0.2,0.1c0,0.2,0.1,0.3,0.2,0.4l-0.2,0L99.4,32c-0.1,0-0.1,0-0.2,0c0,0-0.1-0.1-0.1-0.1c-0.1-0.1-0.1-0.1-0.2-0.1
				c0.1,0.1,0.1,0.3,0.2,0.4c0.1,0.1,0.2,0.2,0.3,0.4l0.1,0.1c0,0.1,0.1,0.1,0.1,0.2c-0.2,0.1-0.5,0-0.7-0.2c-0.1,0-0.1,0.1-0.2,0.1
				c-0.1,0.2-0.1,0.2,0.1,0.5H99c0.2,0.3,0.4,0.2,0.4,0.2h0.1c0.3,0.2,0.5,0.4,0.7,0.6l0.4,0.7c1,1.1,1,1.1,1.3,2.4
				c0,0.1,0,0.2-0.1,0.2c-0.1,0.1-0.1,0.1-0.1,0.1c-0.3-0.1-0.6-0.2-0.8-0.4c-0.2,0-0.5,0-0.7,0.1c-0.3,0-0.3,0-0.4-0.1h-0.1l0,0.1
				c0,0.1,0.1,0.1,0.1,0.2c-0.1,0.1-0.2,0.1-0.4,0.1l0,0.1c0.4,0.5,0.4,1.1,0.8,1.5c0.1,0.3,0.3,0.6,0.4,0.9
				c0.1,0.4,0.1,0.9,0.3,1.3l0.1,0.2c0,0,0,0.1,0.1,0.1l0.1,0.1c0,0.2,0,0.3,0.2,0.7c0.1,0,0.2,0,0.3,0c0.1,0,0.1-0.1,0.2-0.1
				c0.1,0.1,0.1,0.2,0.2,0.2c0.1,0,0.1-0.1,0.2-0.1c0.1,0.1,0.3,0.2,0.4,0.2c0.1,0.2,0.2,0.4,0.4,0.5c0-0.1,0-0.1,0-0.2l-0.1,0
				l0.1-0.1c0.5,0,0.1-0.7,0.6-0.8c0.3-0.3,0.2-0.8,0.6-1l-0.2-0.5c-0.3-0.4-0.4-0.8-0.5-1.3c0-0.1,0-0.2-0.1-0.2
				c0-0.1,0.1-0.1,0.2-0.1c0-0.3,0-0.3,0.2-0.6c0.1,0,0.1,0,0.2-0.1c-0.1-0.1-0.1-0.3-0.2-0.4c0,0,0-0.1-0.1-0.1
				c-0.4-0.8-0.6-1.1-0.1-1h0c0.1,0.1,0.2,0.1,0.3,0.2h0.2l0.1-0.1c-0.1-0.2-0.1-0.3-0.2-0.5c0.1-0.1,0.1-0.1,0.1-0.1l0.1-0.1
				c0-0.1,0-0.3-0.1-0.4c0.7,0.2,0.7,0.9,1.1,1.3c0.1,0.1,0.2,0.2,0.3,0.3c0.8,0.8,1.5,1.7,2,2.8c0,0,0,0,0,0.4
				c-0.1,0-0.1,0-0.3,0.1l0.1,0.2c0.2,0.2,0.2,0.5,0.5,0.6c0.1,0,0.2,0,0.2,0c-0.1-0.2-0.1-0.4-0.2-0.6c0-0.6-0.2-1.1-0.4-1.6
				c0-0.1,0-0.1-0.1-0.2l-0.1,0.1c0,0-0.1-0.1-0.1-0.2c0-0.1-0.1-0.2-0.1-0.2l0.1,0c0.1,0.1,0.2,0.2,0.2,0.3c-0.1-0.6-0.7-1-1-1.5
				c-0.3-0.1-1-1.2-1.1-1.2h0c-0.1-0.2-0.1-0.2-0.2-0.5h-0.1c-0.1-0.1-0.2-0.2-0.2-0.3l0-0.1v-0.1l0-0.1c-0.1-0.2-0.2-0.3-0.3-0.5
				l0.1,0c0.6,0.6,1.1,1.2,1.6,1.9c0.3,0.4,0.6,0.9,0.9,1.4c0.7,1.4,0.7,1.4,0.8,1.4c0.1,0.2,0.2,0.4,0.3,0.6l0,0l0-0.1
				c0,0.1,0,0.2,0.3,0.7c0-0.1,0-0.1,0-0.2v-0.1c0.1,0.3,0.3,0.7,0.4,1c0,0,0.1,0,0.1,0c0-0.1,0-0.3-0.1-0.4c0-0.1-0.1-0.2-0.1-0.2
				c0-0.1-0.1-0.2-0.1-0.3l0.1,0.1h0c-0.1-0.2-0.1-0.4-0.2-0.6c0-0.1-0.1-0.3-0.2-0.4c0,0.1,0.1,0.2,0.1,0.4
				c-0.2-0.4-0.4-0.8-0.6-1.2c0,0,0-0.1-0.1-0.1l0-0.1h0c0,0.1,0.1,0.1,0.1,0.2l0,0l0,0c-0.1-0.2-0.2-0.4-0.2-0.6
				c0.1,0.2,0.2,0.4,0.3,0.5c0,0.1,0.1,0.2,0.1,0.2c0.1,0.4,0.3,0.8,0.5,1.1l0.1,0.2l0.1,0.2c0.1,0.1,0.1,0.3,0.2,0.4v0.1v0l0,0.1
				l0,0.1v0c0,0.1,0.1,0.2,0.1,0.3l0,0.1l0,0.1c0.1,0.1,0.1,0.3,0.2,0.4v0.1l0,0c0-0.1-0.1-0.2-0.1-0.3l-0.1-0.2
				c0-0.1-0.1-0.2-0.1-0.3c0-0.1-0.1-0.2-0.1-0.2l0,0l0,0c-0.8-1.8-1.9-4.3-2.8-6C103.3,30.9,103,30.3,101.6,28.6 M92.5,25L92.5,25
				L92.5,25c-0.1,0.1,0,0.2,0,0.2l0,0l0,0c0,0,0.1,0.1,0.1,0.1c0,0.1,0,0.1,0.1,0.2c0,0.1,0.1,0.1,0.1,0.2l0.1,0.1v-0.1l0-0.1
				c-0.1-0.2-0.1-0.2-0.1-0.2h0c0,0,0,0,0,0s-0.1-0.1-0.1-0.1v-0.1C92.6,25.1,92.5,25.1,92.5,25 M98.6,29.8
				c-0.1-0.1-0.1-0.2-0.2-0.3c-0.2-0.1-0.3-0.3-0.5-0.5l0,0c0,0.1,0.2,0.2,0.1,0.4c0,0,0,0-0.6-0.7l-0.2,0c-0.2-0.4-0.5-0.7-0.6-0.7
				c0,0-0.1-0.1-0.1-0.1c-0.1-0.1-0.3-0.2-0.4-0.3c-0.2-0.1-0.3-0.3-0.5-0.4c-0.2-0.1-0.4-0.1-0.6-0.2l-0.1-0.3l0.1,0
				c0,0-0.1-0.1-0.1-0.1c0-0.1-0.1-0.3-0.2-0.4l-0.4-0.5l-0.5,0.1c-0.4-0.7-0.5-0.8-0.6-0.8h0l-0.1,0c0,0-0.1,0-0.3,0
				c0,0.1,0,0.1,0.4,0.5c0.1,0.1,0.3,0.2,0.3,0.4c-0.1,0.1-0.2-0.1-0.4-0.1c0.1,0.3,0.3,0.6,0.7,0.6c0,0,0,0.1,0.1,0.1
				c0,0,0.1,0.1,0.1,0.1c0.1,0.1,0.2,0.2,0.3,0.4C94,27,94,27,94.2,27.2c0,0,0.1,0,0.1,0v0l0.3,0.2h0.1c-0.1-0.1-0.1-0.2-0.2-0.2
				c0.2,0.2,0.4,0.4,0.5,0.6h0v0.1c0.1,0.1,0.1,0.2,0.2,0.2c0.1,0,0.2,0,0.3,0l0-0.1c0.4,0.1,0.5,0.6,0.8,0.7
				c0.1,0.2,0.4,0.3,0.4,0.7c-0.1,0-0.2-0.1-0.4-0.1h-0.1h0l0,0.1c0,0,0,0.1,0.1,0.1h-0.1c0.1,0.2,0.1,0.2,0.2,0.2
				c0.2-0.2,0.3,0,0.4,0.2h-0.1c0,0.1,0,0.2,0.1,0.2l-0.1,0h0c0,0.1,0.2,0.4,0.3,0.4c0-0.1,0-0.1,0.1-0.1l0.5,0.1
				c0,0,0.3,0.3-0.1,0.3c-0.1,0.1,0,0.1,0,0.2h0l-0.1,0.1c0.3,0.4,0.3,0.4,0.2,0.6l0.1,0.1c0.1,0,0.1-0.1,0.1-0.1c0,0,0,0,0-0.2
				l0.2,0.1l0.2,0c-0.2-0.3-0.2-0.3-0.2-0.4c0.1,0,0.1,0,0.2,0c0,0,0.1,0,0.2,0c0-0.1,0-0.1,0-0.2l0,0c0.1,0,0.2,0.1,0.4,0.2h0
				c0.1,0,0.1,0,0.2-0.1c0.1,0-0.1-0.1-0.1-0.2h0.1v-0.1c-0.1-0.2-0.2-0.3-0.4-0.4l0-0.1c-0.1-0.1-0.1-0.1-0.1-0.1l0.1,0L98.6,29.8
				L98.6,29.8 M94.4,28.4L94.4,28.4 M95.4,28.4l-0.5-0.6c-0.1-0.1-0.2-0.1-0.2-0.1c0,0-0.1-0.1-0.1-0.1h0c0,0,0,0.1-0.1,0.1
				c0,0,0,0.1,0,0.2c-0.1-0.1-0.2-0.2-0.3-0.2l-0.1,0c0.1,0.2,0.3,0.4,0.4,0.6h0v0.1l-0.1,0l-0.1,0.1c0,0-0.1-0.1-0.1-0.1l-0.1,0
				c0.2,0.3,0.4,0.6,0.6,0.9c0.1,0,0.2,0,0.2,0c0.1,0.1,0.2,0.3,0.3,0.4c0,0-0.1,0-0.1,0.1c0,0.1,0,0.2,0.1,0.2
				c0,0.1,0.1,0.2,0.2,0.3l0,0.1c0.1,0.3,0.4,0.5,0.5,0.4c0.1-0.1,0.1-0.1,0.3,0c0,0,0,0,0-0.5l0.6-0.1l-0.2-0.1
				c0,0-0.1-0.1-0.1-0.1c-0.1-0.1-0.1-0.1-0.1-0.2h0c-0.2-0.3-0.4-0.6-0.6-0.9c-0.1-0.1-0.1-0.2-0.2-0.3h0.1
				C95.4,28.6,95.4,28.5,95.4,28.4 M110.9,49.3l-0.8-3.7c-0.2-0.3-0.3-0.7-0.5-1c-0.1,0.8,0.4,1.4,0.4,2.1c0,0,0,0-0.1-0.1
				c-0.1-0.2-0.2-0.4-0.3-0.5c-0.1,0-0.2,0.1-0.3,0.1l-2.5-4.6c-0.2,0.4-0.6,0.5-0.8,0.8c-0.3-0.4-0.3-0.4-0.6-0.5
				c-0.1,0.2-0.3,0.5-0.3,0.7c-0.2,0-0.4,0.1-0.6,0.2c0.1,0.6,0.1,0.6,0,0.8h-0.3l-0.2,0.2H104l-0.3,0h-0.1c-0.3,0.1-0.6,0-0.7-0.2
				l-0.2-0.1c0,0.5,0.1,0.9,0.2,1.4c-0.2,0-0.4,0.1-0.5,0.1c0.1,0.4,0.2,0.8,0.3,1.3c-0.2,0-0.5,0.1-0.6,0.3c0.1,0.7,0.2,1.4,0.3,2
				c0,0.2,0.1,0.4,0.1,0.6l-0.5,0.1c0.1,0.5-0.2,0.9-0.3,1.4c-1.3,0.8-0.1,2.4-1.1,3.3l-0.1,0l-0.3,0.1c0,0.1,0,0.1-0.4,2.4
				c0,0.2,0,0.4,0,0.6c0.3,0,0.6,0,0.9,0.1c0,0.1,0.1,0.2,0.1,0.3c-0.2,0.6-0.2,0.6-0.2,2.7c0,0.1,0,0.2,0,0.5
				c-0.1,0.4-0.1,0.4-0.4,0.7c0,0.4,0.1,0.7,0.1,1.1v0.3c0,0.7,0.1,0.9,0.7,1.6h0.3c0.1,0.3,0.2,0.5,0.2,0.8l0.3,0
				c-0.2,1.3-0.2,1.3,0.9,1.9c0,0.3-0.1,0.5-0.1,0.8c0.4,0.3,0.6,0.9,1.2,1.1c0.2-0.2,0.3-0.5,0.4-0.7c0.2,0,0.4,0,0.5-0.1h0.1
				c0.2,0,0.4,0,0.5,0c0,0.1,0.1,0.2,0.1,0.3c0.7-0.1,0.8-1.2,1.7-1.1c0,0,0,0,0.1-0.1c0.1-0.2,0.2-0.3,0.4-0.4l0.2,0.1
				c-0.1,1.1-0.1,1.1,0.1,1.3c0.3-0.1,0.6-0.1,0.8-0.2c-0.1,0.3-0.1,0.6-0.3,1.1c-2,7.6-2,7.6-2.3,8.3l-0.1,0.3
				c-0.8,1.7-1.3,2.9-5.2,8.8c-0.3,0.4-0.7,0.8-1,1.2c-1.1,1.4-2.3,2.8-3.6,4L96.1,92c-0.4,0.3-0.4,0.3-0.6,0.6l0,0
				c-0.5,0.4-0.5,0.4-0.6,0.6l0.1-0.1c1.4-1.3,3.3-3.2,4.7-4.6c1.7-1.9,1.7-1.9,4.6-6c1.4-2.1,1.4-2.1,3.6-6.6c1-2.4,1-2.4,2.5-7.2
				c1.1-4.5,1.3-8.5,1.4-11.6c0-2.7,0-2.7-0.7-7.8 M88.1,78.5c0.1-1.5-0.1-1.6-0.4-1.8c-0.2,0-0.4,0-0.8,0c-0.7-0.2-0.9-1.5-1.9-1.1
				l-1,0c-0.6-0.3-1.1-0.5-1.2,0.1c-0.2,0.1-0.3,0.2-0.8-0.1c0-0.2,0-0.2,0.4-0.4c-1-0.7-1-0.7-1.6-0.7c-0.1,0-0.2,0-0.3-0.1
				c-0.2-0.2-0.6-0.2-0.8-0.1c0,0.2-0.1,0.5-0.1,0.7h-0.6c0-0.2,0.1-0.3,0.1-0.5c0.1-0.1,0.2-0.2,0.3-0.3l0.2-0.1l-0.1-0.2
				c0,0-0.3-0.1-0.9-0.3h-0.2h-0.2l-0.2,0.1c0,0.4-0.1,0.7-0.7,0.6c0-0.1,0-0.3,0.1-0.4c1-1.1,1-1.1,0.8-1.6h-0.4
				c0-0.3,0-0.5,0.1-0.8c-0.1-0.3-0.2-0.6-0.4-0.9c0,0-1.6-0.8-2.1-1c-0.4-0.2-0.8,0.1-1.2,0.1h-0.3c-1.5-0.2-1.6-0.6-1.9-1.4
				c-0.1,0-0.1,0-0.9-0.4c0-0.1,0-0.1,0-0.2c-0.6-0.1-0.5-0.4-0.5-0.7c-0.1,0-0.2,0-0.3,0C69.8,67,69.8,67,69.6,67
				c0-0.2-0.1-0.4-0.1-0.6c0.1,0,0.3-0.1,0.4-0.2c-0.2-0.2-0.2-0.3-0.7-0.3l-0.4,0.3c0,0-0.1,0-0.1,0C68.5,66,68.2,66,68,66.1
				c-0.3,0.7-0.3,0.7-0.6,0.8c-0.3-0.2-0.6-0.6-1-0.7c-0.3,0-0.7,0-1-0.1L64.9,66c0-0.2,0-0.4-0.2-0.5c-0.5,0-0.8-0.6-1.4-0.4
				c0,0.2-0.1,0.4-0.2,0.6c-0.3,0-0.6,0.1-0.7,0.3c-0.2,0.5,0.2,1,0,1.4c-0.8-0.4-0.1-1.3-0.5-1.8c0.1-0.3,0.7-0.8,0.7-0.8l-0.1-0.2
				h-0.4c-0.5,0.1-0.6,0.1-0.5,0.7c-0.4,0-0.7,0-1.1,0c-0.4,0.4-1,0.6-1.6,0.6c0,0.3,0,0.7-0.1,1c-0.2,0.2-0.4,0.2-0.6,0.2
				c-0.2,0.2-0.3,0.5-0.3,0.8c-0.6,0.4-0.8,0.8-0.8,1c0.1,0.1,0.2,0.1,0.4,0.2c0,0.6,0.7,1.4-0.1,1.9c-0.1,1-0.1,1-0.3,1.2
				c-0.1,0-0.3,0-0.5,0c0,0.2,0.1,0.4,0.1,0.5c-0.1,0.1-0.3,0.2-0.5,0.3c0,0.1,0,0.2,0,0.3c-0.4,0.1-0.7,0.2-0.7,0.9
				c-0.2,0-0.4,0-0.6,0.1c0,0.4,0,0.8,0.1,1.3l0.2,0.1c0.2-0.1,0.4-0.1,0.6-0.1c0,0.1,0,0.3-0.1,0.4c-0.2,0.1-0.4,0.1-0.6,0.2
				c0,0.3,0,0.3-0.4,0.6c-0.1,0.3-0.1,0.3,0.3,0.7c0,0,0,0.1,0,0.1c0.1,1.4,2,1.5,2.2,2.8c0,0.1,0,0.2,0,0.3
				c2.5,3.5,2.5,3.5,2.8,3.6c0,0,1.1,0.2,2.4,1.6h0.4c0,0.4,0,0.9,0,1.3c0,0.1,0,0.3,0,0.4l0,0.1c0,0,0,0.1,0,0.2
				c0,0.1,0,0.1,0.1,0.2c0,0.1,0,0.2-0.1,0.2c0,0.1-0.1,0.3,0,0.4l0,0c0,0.1,0,0.2,0,0.2c0,0.1,0,0.1,0,0.2v0.1c0,0,0,0.1-0.1,0.3
				c0,0.1,0,0.3,0.1,0.4v0.2c0,0.1,0,0.1,0,0.2c-0.1,0.4-0.4,0.7-0.4,1.1c-0.1,0.5-0.3,1.1-0.5,1.6c0,0,0,0.1,0,0.1
				c0.3,1.5,0.3,1.8-0.4,2.4c0,0.1,0,0.2,0,0.2c0,0.1,0,0.1,0,0.2l0,0.1c-0.1,0.3-0.4,0.5-0.6,0.8c0.4,0.6,0.3,0.8,0,1.3
				c0,0.1,0.1,0.1,0.1,0.2c0.1,0.1,0.1,0.2,0.1,0.3L60.7,99c-0.1,0.4-0.1,0.4-0.1,0.6l0.2,0.1h0.3l0.1-0.7h0.4c0,0.1,0,0.2-0.1,0.3
				l-0.2,0.1c0,0.1,0,0.3,0,0.4c0,0,0,0-0.1,0.8c-0.1-0.1-0.2-0.1-0.3-0.2c0-0.1,0-0.1,0-0.2c0,0,0,0-0.1,0c0,0.1,0,0.1,0.2,0.3
				c0.1,0.1,0.1,0.2,0.1,0.4c-0.1-0.1-0.3-0.2-0.4-0.2c0,0.1,0,0.1-0.2,0.3c0,0.1,0,0.1,0,0.2c0.1,0,0.3,0.1,0.4,0.1
				c0,0.1,0,0.1,0,0.2c0,0.1,0.1,0,0.2,0c0,0.1,0,0.1,0.1,0.2c-0.4,0-0.4,0-0.6,0.2c0,0.1,0,0.1,0.1,0.2l0.1,0.1c0,0.1,0,0.1,0,0.2
				c0,0.1,0.1,0.2,0.2,0.3l-0.1,0.1l0.1,0.1c0,0,0.1,0,0.1,0.2l0.2,0v0l0,0.1c0.1,0.2,0.4,0.3,0.6,0.5h0.2c0,0,0,0,0.1,0.1l0.4,0.1
				c0.1,0,0.1,0,0.2,0c0.1,0,0.3,0,0.6,0c0.1-0.1,0.2-0.1,0.2-0.2c-0.1,0-0.3-0.1-0.4-0.1c0,0,0-0.1-0.2-0.1c0-0.1,0-0.3-0.1-0.4v0
				c0-0.1,0-0.3-0.1-0.4c0,0,0-0.1,0-0.1c0-0.1,0-0.2,0.1-0.3c0.1,0,0.2,0,0.4,0c0-0.1,0-0.1,0-0.2c0.3-0.3,0.6-0.5,1-0.7
				c0,0,0-0.1-0.1-0.1l-0.2,0c-0.3-0.3-0.3-0.3-0.4-0.5c0,0,0-0.1,0.1-0.1c0.1-0.1,0.2-0.2,0.4-0.2h0.5c0-0.2,0.1-0.3,0.2-0.5
				c0.1-0.1,0.1-0.1,0.3-0.5c0.4,0,0.4,0,0.6-0.2c0,0,0-0.1-0.1-0.2h0h0c-0.1,0.1-0.3,0.1-0.4,0.1c0-0.1,0-0.3,0-0.4s0-0.2,0-0.2
				c0.1,0,0.2,0,0.4,0.1c0,0,0.1,0.1,0.2,0.1c0.2,0,0.4,0,0.6-0.2c0,0,0-0.1,0.1-0.2l0.2-0.1c0-0.1,0-0.3,0-0.4c0-0.1,0-0.1,0-0.2
				c0.2,0,0.3,0,0.6,0h0.2c0.1,0,0.3-0.1,0.4-0.1c0.2,0,0.4,0,0.7,0c0,0,0.8-0.6,1.2-0.9l0.2-0.2c0-0.1,0.1-0.2,0.1-0.3
				c-0.1,0-0.1,0-0.2,0c0-0.1,0.1-0.2,0.1-0.3c-0.1-0.2-0.3-0.3-0.5-0.4c0-0.1,0-0.1,0-0.2h0.4c1.6,0.3,1.6,0.3,2.3-0.3
				c1.9-1.7,1.9-1.7,1.9-1.7c-0.1,0.1-0.2,0.2-0.2,0.3c0.2,0,2.4-1.6,2.3-2.4c0-0.4-0.1-0.8,1.9-1.9l0.6,0c0.3-0.1,0.5-0.3,0.7-0.5
				c0.5,0,1-0.1,1.5-0.2c0.1-0.1,0.1-0.2,0.3-0.3c0.2-0.1,0.2-0.1,1.8-2c0.1,0,0.1,0,0.7-1.2c0-0.1,0.1-0.2,0.1-0.2
				c0.2-0.3,0.4-0.6,0.5-0.9c0-0.1,0.1-0.2,0.1-0.3c0-0.1,0-0.1,0-0.2c0-0.1,0.1-0.3,0.1-0.4c0.1-0.3,0.2-0.6,0.4-0.8
				c0,0,1.4-1.1,1.7-1.5l1.2-1.4c0.2-0.2,0.4-0.5,0.4-0.8 M67.2,60.2L67.2,60.2c0-0.1-0.2,0-0.3-0.2c-0.1-0.1,0-0.3,0-0.5
				c-0.3,0.1-0.7,0.2-1,0.2h-0.3c-0.2,0-0.3-0.1-0.5-0.2h-0.2c-0.1,0-0.2,0.2-0.3,0.3H64c-0.2,0-0.3-0.2-0.5-0.3s-0.4-0.3-0.7-0.3
				l-1.2,0c-0.2,0-0.4,0-0.6,0.1c0,0.3,0,0.7,0,1c0.2,0.2,0.4,0.4,0.7,0.6h0.4c0.4,0,0.7-0.4,1.1-0.4c0.2,0,0.4,0.1,0.6,0.1
				c0.2,0,0.4-0.1,0.6-0.1c0.4,0,0.9,0,1.3-0.1c0.1-0.1,0.2-0.1,0.3,0c0.3,0.1,0.6,0.1,0.8,0.1h0.3C67,60.3,67.1,60.2,67.2,60.2
				 M58.3,60.6L58.3,60.6c0-0.1,0.1-0.3,0-0.4c-0.1-0.1-0.2,0-0.3-0.1c-0.1,0-0.2-0.1-0.3-0.2h-0.1h-1c0.1,0.1,0.1,0.2,0.2,0.3
				l0.1,0.1c0.1,0.1,0.1,0,0.3,0c0.2,0,0.4,0.2,0.5,0.2c0,0,0.1,0.1,0.1,0.2c0,0,0,0.1,0,0.1c0.1,0,0.2,0.1,0.3,0
				S58.1,60.9,58.3,60.6 M57.3,58.7h2.5c-0.3-0.5-0.8-0.8-1.3-1h-0.4c-0.4,0.1-0.7,0.1-1.1,0c-0.2-0.1-0.3-0.3-0.5-0.5
				c-0.3-0.2-0.6-0.3-1-0.5c-0.4-0.2-0.4-0.2-0.4-0.3c-0.1-0.1-0.1-0.2-0.3-0.2c-0.2,0-0.5,0-0.8,0c0,0,0,0-0.3,0.1
				c-0.1,0.1-0.3,0-0.4-0.1h-0.7c-0.6,0-0.6,0-0.7,0c-0.7,0.5,0.4,1.5,1.3,1.1c0.2-0.1,0.3-0.3,0.6-0.4c0.2,0,0.4,0,0.6,0
				c0,0,0.7,0.2,0.8,0.6c0,0.1,0.1,0.1,0.2,0.2c0.3,0.1,0.5,0.2,0.8,0.2c0.2,0,0.3,0,0.4,0.2C56.6,58.4,57,58.6,57.3,58.7
				 M85.8,20.5l-0.4-0.4c-0.1-0.1-0.2-0.1-0.3-0.2c-0.3-0.1-0.3-0.1-0.3-0.1h0c-0.1-0.1-0.2-0.2-0.4-0.4c-0.1-0.1-0.2-0.2-0.3-0.2
				l-0.3,0c-0.1,0-0.1,0.1-0.1,0.1s0.1,0.2,0,0.2l0,0.1c-0.2,0-0.3-0.1-0.5-0.1c-0.2,0-0.2,0.1-0.2,0.2c0,0.1,0,0.1-0.1,0.1h-0.3
				l-0.2-0.2l-0.2-0.2c-0.1-0.1-0.2-0.1-0.3-0.2L82,19.4c0.1,0.1,0.1,0.1,0.2,0.2C82,19.5,82,19.5,82,19.5c0,0-0.3,0-0.3,0.1
				c0,0.2,0.4,0.5,0.5,0.5V20c0.3-0.1,0.6,0.2,0.9,0.5c-0.2-0.1-0.5,0-0.7,0.1l0.3,0.3l0.1-0.1l0.3,0l0.1,0c0.1,0.1,0.2,0.3,0.4,0.4
				l0.3,0.2h0.1c0.1-0.1,0.2-0.1,0.4-0.1h0.1c0.2-0.1,0.4,0.2,0.5,0.2c0.2,0.1,0.4,0.1,0.5,0l0-0.2c-0.1-0.2-0.1-0.2-0.1-0.3
				c0-0.1,0-0.1,0-0.1h0.1c0-0.1-0.1-0.2,0-0.4C85.4,20.6,85.4,20.6,85.8,20.5 M74.2,34.8L74.2,34.8c0-0.2-0.1-0.3-0.1-0.3
				c-0.3,0-0.3,0-0.4-0.1c-0.2-0.1-0.4-0.2-0.6-0.4c-0.1-0.1-0.1-0.1-0.2-0.2c-0.2-0.1-0.4,0-0.6-0.1c-0.1,0-0.2-0.1-0.3-0.1
				c0.1-0.4,0.1-0.4,0.1-0.5c0-0.1,0.1-0.1,0.2-0.1c0.1-0.1,0.1-0.3,0-0.5c0,0-0.1-0.1-0.1-0.1c-0.1,0-0.1,0-0.2,0
				c0,0-0.3,0.1-0.3,0.2c0,0.1,0,0.2,0,0.2c0,0.1,0,0.2,0,0.3c0,0,0,0.1,0,0.1c-0.2,0.4-0.5,0.8-0.8,1.1c-0.1,0.1-0.2,0.3-0.3,0.4
				c-0.1,0.1-0.1,0.3,0,0.4c0,0.1,0.1,0.2,0.1,0.3l2.1-0.1c0.2,0,0.3,0,0.5,0.3c0.2,0.3,0.5,0.4,0.8,0.6c0,0,0-0.1,0.1-0.1
				c0.1,0,0.2-0.1,0-0.7C74,35.3,74,35.1,74.2,34.8 M68.4,34.1L68.4,34.1c-0.1-0.1-0.2-0.1-0.3-0.1c-0.1,0-0.1,0-0.2,0
				c-0.1,0-0.2,0-0.2,0c-0.1,0-0.3-0.1-0.4-0.2c-0.1-0.1-0.2-0.1-0.2-0.1c-0.1,0-0.1,0-0.2,0l-0.3,0.1c0.1,0,0.2,0.1,0.3,0.1
				c0.1,0.1,0.1,0.2,0.2,0.2l0.1,0.1c0.1,0.1,0.2,0.1,0.3,0.2s0.1,0.1,0.2,0.2c0.1,0,0.1,0.1,0.2,0.1C68,34.6,68.1,34.6,68.4,34.1
				 M66.8,10.1c-0.2,0-0.4,0-0.5-0.1h-0.1c0.2,0,0.4,0.1,0.5,0.2c-0.1,0-0.2,0-0.3,0c0.1,0,0.2,0.1,0.3,0.1l0,0h0
				c0.2,0.1,0.4,0.1,0.6,0.2c-0.3-0.1-0.5-0.2-0.8-0.3c-0.1,0-0.2,0-0.3-0.1c-0.2-0.1-0.4-0.1-0.7-0.2h0h-0.1c0.2,0,0.4,0.1,0.6,0.2
				h-0.1l0.1,0l-0.4-0.1v0c-0.1,0-0.2,0-0.3,0c-0.1,0-0.1,0-0.2,0l0.1,0l0,0l0,0l0,0v0c-0.2,0-0.3-0.1-0.5-0.2c0.1,0,0.1,0,0.2,0
				l-0.1,0c0.1,0,0.1,0,0.2,0c-0.1,0-0.1,0-0.2-0.1l0,0l-0.3-0.1l0,0l0,0l-0.6-0.1H64h-0.1l-0.2,0h-0.1l0,0h0.1h-0.1l-0.1,0h0
				l-0.2,0l0.3,0l-0.4-0.1h0c-0.1,0-0.1,0-0.2,0c0,0,0,0,0,0h-0.2c0.1,0,0.1,0,0.2,0h0l0,0c0.1,0,0.3,0.1,0.4,0.1h-0.1H63
				c-0.1,0-0.2,0-0.3-0.1l0.1,0h-0.1l0,0l0.1,0l0,0h0h0.1h0h0l0.2,0.1h0h0h0h0h0l0,0h0h-0.1l0,0h0l0.1,0h0l0.2,0h0.1h0l0.1,0l0.1,0
				h0h0h0l0.1,0.1h-0.1h0h-0.1h0h-0.1l-0.2,0l0,0h0l0,0h0h0l-0.1,0l0,0h0H63c-0.1,0-0.1,0-0.2,0l0.2,0.1h0l0.1,0h0h0.1l0.1,0h0
				l0.1,0.1h0h-0.1h0h0h0h0h0h0l-0.1,0h0h0l-0.1,0l0,0h0h0h0h0h0h-0.1l0.1,0.1c0.1,0,0.1,0.1,0.2,0.1h0h0h0l0.1,0.1h0h-0.1
				c0,0,0,0-0.1-0.1L63,10.3l0,0l0,0h0h0h0h0h0l-0.1,0h0h0h0h-0.1l0,0v0l0,0l0,0l0,0l0,0l0,0l0,0h-0.1l0,0l0,0l0,0h-0.1l0,0l0,0h0
				h0.1l0,0h0h0h0h0h0h0.1h0h0l0.1,0l0,0l0.1,0l0,0h-0.1h-0.1h0h0h0h-0.1h0l-0.1,0h-0.1h0h0l0,0h0h0l0,0l0,0l0,0v0l0,0l0.1,0.1h0h0
				l0,0c0,0,0.1,0.1,0.1,0.1h-0.1h0h0h-0.2v0.1l-0.1,0.1v0.1l0,0H62h0l0,0l0,0l0,0l0,0v0l0,0h-0.1v0.1V11H62l0,0h0H62h0.1l0,0h0.1
				l0,0.1l0,0l0,0l0,0c0,0,0,0.1,0.1,0.1v0.1l0,0h-0.1l0,0l-0.1,0l0,0H62h-0.1c-0.1,0-0.1,0-0.2,0v0c0,0,0,0.1,0,0.1l0,0
				c-0.1,0-0.1,0-0.2,0c-0.1,0-0.2,0-0.3,0h0h0l0,0v0.3l0,0l0,0h-0.1c-0.1,0.1-0.1,0.1,0.1,0.3c0.1,0,0.2,0,0.2,0.1h0.2l0.1,0.1h0
				c0,0,0.1,0.1,0.2,0.1H62l0.1,0h0h0.1h0.1h0.1c0,0.1,0,0.1,0,0.2l0,0l-0.1,0.1h0h0h0h0h0h-0.1h-0.1l-0.1,0h-0.1l-0.2,0h0v0.1h-0.2
				l0,0.1l0.1,0.1l0,0c0.1,0,0.3,0.1,0.4,0.2l0,0l0,0v0l0,0l0.1,0l0,0l0,0v0h0h0h0l0.1,0h0l0,0l0.1,0h0h0l0,0c0,0-0.1-0.1-0.1-0.1
				h0.1c0.1,0,0.1,0,0.2,0h0h0h0l0,0v-0.1h0.1h0c0.1,0,0.1,0,0.2,0v0h0l0,0h0l0,0h0v0c0.1-0.1,0.1,0,0.2,0h0h0.1h0.1h0l0.1,0.1l0,0
				h0h0.3l0.1,0.1l0.1,0h0.1l0.1,0.1l0.1,0c0,0,0,0,0.1,0l0.1,0.1l0.1,0.2l0.1,0.1l0,0l0,0h0h0h0h0h0.1l0.1,0.1v0
				c0,0,0.1,0.1,0.1,0.1l0.1,0l0,0l0,0c0,0,0,0,0.2,0.2c0,0,0.1,0.1,0.2,0.2h0l0.1,0.1c0,0,0,0.1,0,0.1c0,0.1,0,0.1,0.2,0.2
				c0,0.1,0.1,0.1,0.1,0.2c0,0.1,0,0.1,0,0.2h0.2c0,0.1,0.1,0.1,0,0.2l-0.1,0.1c0.1,0.1,0.1,0.2,0.2,0.3h-0.1c0,0.1,0.1,0.1,0.1,0.2
				C67,16,67,16,67.2,16h0.2h0.1c0.1,0,0.2,0,0.4,0l0-0.1c0.4-0.2,0.5,0.4,0.9,0.4h0.1c0.2,0.1,0.3,0.2,0.5,0.3l0,0.1H69h-0.1h-0.2
				c-0.4,0-0.7-0.3-1-0.1c0.1,0.1,0.2,0.2,0.4,0.3l0,0.1H68c0,0-0.2,0.1,0,0.3c0.2,0.2,0.5,0.1,0.7,0.3l0.1,0c0-0.1,0.1-0.1,0.1-0.2
				c0.1,0,0.2,0,0.3,0c-0.1-0.1-0.1-0.2-0.2-0.3c-0.1,0-0.2,0-0.3,0L68.6,17c-0.1,0-0.1,0-0.2,0v0.1h0.2c0.1,0.1,0.3,0.1,0.4,0.1
				h0.2c0.1,0,0.2,0.1,0.3,0.1v0l0,0.1l0,0.1l0,0.1c0,0,0,0.1,0,0.1c0.1,0.1,0.2,0.1,0.3,0.2c0,0.1,0.1,0.2,0.1,0.3h-0.2h-0.1
				c0,0,0,0.1-0.1,0.2h-0.1l-0.1,0l-0.1,0c0.1,0.1,0.1,0.3,0.1,0.4l-0.2,0c0,0.1,0,0.1-0.2,0.2l0,0.1l0,0.1c0,0,0,0,0,0.1
				c0.2,0.2,0.6,0.2,0.8,0.6c-0.1,0-0.1,0.1-0.2,0.1c0,0,0.3,0.8,0.8,0.6l0-0.1h0.1c0.1,0,0.1,0,0.2,0c0.1,0.1,0.1,0.1,0.1,0.2h-0.1
				l-0.1,0.1c0.4,0.8,0.4,0.8,0.5,0.8c0.1-0.1,0.1-0.2,0.2-0.3c0.1,0,0.1,0,0.2,0c0.1,0.1,0.1,0.3,0.2,0.4c0,0.1-0.1,0.1-0.2,0.2
				c-0.3,0.4,2.7,2.7,3,2.6c0,0,0.1,0,0.1,0c0.1,0,0.1,0,0.2-0.1h0.1c0.7,0.1,1.7,1.3,2,0.4l0-0.1l-0.1-0.2c-0.1-0.3,0.1-0.7-0.2-1
				s-0.5-0.4-0.6-0.8l0-0.1c0.1,0,0.1-0.1,0.2-0.1c0.1,0,0.1,0,0.2,0c0.1,0,0.1,0,0.2-0.1c-0.2-0.3-0.2-0.3-0.1-0.4h0.1l0-0.1
				c-0.1-0.2-0.2-0.3-0.3-0.5c0.1-0.4-0.4-0.4-0.5-0.7c0.3-0.1,0.3-0.1,0.3-0.1c0-0.1-0.1-0.2-0.2-0.3l0.5,0
				c-0.1-0.1-0.2-0.2-0.3-0.4c0.1,0,0.2,0,0.3,0c0.1,0.1,0.2,0.3,0.3,0.4c0.1,0,0.2,0,0.3,0c0.1-0.1,0-0.3,0.1-0.5h0.1
				c0.1,0,0.2,0,0.2-0.1l-0.1-0.1c0-0.2,0-0.2,0-0.3c0-0.1,0-0.1-0.1-0.2l0.1-0.1c0-0.1,0-0.1-0.1-0.3l0.1-0.1l-0.1-0.1v-0.1
				l0.1-0.1c-0.1-0.1-0.2-0.2-0.3-0.3l0,0h0.1h0h0l0,0l0.1,0h0l0.1,0c0.6,0.2,0.6,0.2,0.9,0.1c0.1-0.1,0-0.3,0-0.4
				c0.1,0,0.1,0,0.2,0c0,0,0.1-0.1,0.1-0.1l0-0.1l0.1-0.1c0-0.2-0.2-0.3-0.2-0.5c0.1,0,0.2,0,0.3-0.1c0-0.1-0.1-0.2-0.2-0.3h-0.1
				l0,0.1v0.1h-0.1c-0.2,0-0.3-0.2-0.5-0.2h-0.1c-0.3,0-0.6-0.1-0.8-0.3c-0.1-0.1-0.1-0.1-0.1-0.2l0,0c0.1,0,0.2,0,0.3-0.1
				c0-0.1,0-0.1-0.1-0.2c0.3,0.1,0.5,0.4,0.9,0.5l0.1-0.1l-0.1-0.1c0.1-0.1,0.2-0.1,0.2-0.1c-0.7-0.4-1.3-0.8-2.1-1.1v-0.1
				c0.3,0.2,0.3,0.2,0.4,0.2H77c-0.1-0.1-0.3-0.2-0.4-0.3l-0.1-0.1c-0.3-0.2-0.4-0.3-0.6-0.2l0,0.1c-0.1,0-0.1,0-0.2,0
				c0,0-0.1-0.1-0.1-0.2c0,0,0,0-0.4-0.1l0-0.1h0.2l0.3,0.2c0.1,0,0.1,0,0.2,0v-0.1c0,0,0.1,0,0.1,0c0.1,0,0.1,0,0.2,0
				c-0.2-0.2-0.4-0.3-0.7-0.4l0,0.1C75.1,14,75.1,14,75,13.9c0.2,0,0.2,0,0.3,0l-0.1-0.1l0.1,0c0,0,0,0,0.1-0.1
				c-0.4-0.2-0.9-0.3-1.2-0.5v0h0.1l-0.4-0.2c-0.5-0.2-1-0.3-1.4-0.5c0,0-0.1,0-0.1-0.1l-0.1-0.1l0.1,0h0.1c0.1,0,0.2,0.1,0.3,0.1
				l0.1,0c0.2,0.1,0.5,0.3,0.7,0.4v0l-1-0.5l-0.2-0.1l-0.1,0L72.1,12l-0.1,0h-0.1c-0.1-0.1-0.3-0.1-0.4-0.2h0.1l0,0
				c0,0-0.4-0.2-0.6-0.1c0.1,0,0.1,0.1,0.2,0.1c-0.2-0.1-0.4-0.1-0.5-0.2c0,0,0,0-0.8-0.3h0.1c-0.3-0.1-0.3-0.1-0.4-0.2l0,0
				c-0.5-0.2-0.9-0.4-1.3-0.6l-0.2,0h-0.2c-0.1,0-0.2-0.1-0.3-0.1l0.2,0l0,0c-0.2,0-0.3-0.1-0.5-0.1v0C67.1,10.2,67,10.2,66.8,10.1
				 M62.1,10.1L62,10l0,0h-0.1L61.8,10l-0.2-0.1l0,0h-0.1l-0.1,0l0-0.1h-0.1c0,0,0,0-0.1-0.1l-0.1,0c0,0,0,0.1,0,0.1h0L61,9.8H61
				c0,0.1,0,0.1,0,0.1s-0.1-0.1-0.1-0.1h-0.1c0,0,0,0-0.1,0.1h0l0-0.1h-0.1l0,0.1h-0.1l-0.2,0l-0.1,0.1h0.1c0,0,0,0,0.1,0.1l0,0.1
				h-0.1l0-0.1h-0.1h0c0,0,0-0.1,0-0.1H60v0h0h-0.1c-0.1,0.1-0.1,0.1-0.2,0.1h-0.1l0,0h0c-0.1,0-0.1,0.1-0.2,0.1h-0.1l-0.1,0.1h-0.1
				L59,10.4h0l0,0l-0.1,0.1l0.1,0c-0.1,0.1-0.1,0.1,0,0.1c0.1,0,0.1,0.1,0.2,0.1l0.2-0.1l0.1-0.1h0.1l-0.2,0.1l-0.2,0.1l-0.1,0.1
				c0.4,0,0.4,0,0.5-0.1h0.1h0.2l0.2-0.1l0.1-0.1l0.1-0.1c0.1,0,0.1,0,0.2-0.1h0.1h-0.1c-0.1,0.1-0.2,0.1-0.3,0.2h0.2h0.1h0.1
				l-0.1,0.1h-0.1h-0.1l-0.1,0c-0.1,0-0.2,0-0.3,0.1h-0.1h-0.1l-0.1,0.1h0.1l0,0.1V11l0.2,0h-0.1h-0.1c-0.2-0.3-0.2-0.3-0.3-0.3
				l-0.2,0l-0.1,0.1V11l0,0.1l0.1,0.2l0.1,0.1l0.2,0c-0.1,0.1-0.2,0.1-0.2,0.1l-0.1,0.1L59,11.6l-0.1,0h-0.2l-0.2,0l-0.2,0.1
				c0,0-0.1,0.1-0.1,0.1l-0.1,0.1l0.1,0h0.2h0.2l-0.2,0.1l0,0.1c0.2,0,0.2,0,0.6-0.2l-0.1,0.2l-0.3,0.2h-0.2c-0.1,0-0.2-0.1-0.3-0.2
				s0-0.1-0.1-0.1c-0.1,0-0.2,0-0.3,0c-0.1,0.4-0.1,0.4-0.4,0.4l-0.2,0.2l0,0.2l0.2,0.1c0.1,0,0.2-0.1,0.3-0.1
				c0.1,0,0.2,0.1,0.4,0.1c0.1,0,0.2-0.1,0.3-0.1c0.1,0.1,0.1,0.1,0.4,0h0.2c0,0,0,0-0.1,0.2v0c0.1,0,0.2,0,0.3,0h0.2
				c0.5-0.2,0.5-0.2,0.5-0.3v-0.2l-0.2,0.1v-0.2l0.2,0l0.1-0.2v-0.2H60c0.3,0,0.3,0,0.3,0c0.1-0.1,0-0.2-0.1-0.3h0h0.2
				c0,0,0.1,0,0.1,0c0,0,0-0.1-0.1-0.2c-0.1,0-0.2-0.1-0.3-0.1l-0.1,0.1L60,11.7v-0.1l0.2-0.1c0,0,0,0,0.2-0.1h0.1l0,0.1
				c0.2,0,0.2,0,0.4-0.1l-0.1-0.1h0.2l0.1,0.1h0.1l0.2-0.1L61.2,11L61.1,11h0.3l0-0.1l0.1,0c0.1-0.1,0.2-0.2,0.3-0.3h0.1l0-0.1
				l-0.1-0.1c0,0-0.1,0.1-0.1,0.1c-0.1,0-0.1,0-0.2,0v-0.1l0.1,0h0.1c0,0,0.1,0,0.1,0c0,0,0.1,0,0.1-0.1h0.1
				C62.1,10.2,62,10.1,62.1,10.1 M58.7,11.5l0.1-0.2c-0.1,0-0.1-0.1-0.2-0.1l0-0.1l0.1-0.1l0-0.1C58.7,11,58.7,11,58.6,11
				s0.1-0.1,0.1-0.2c0-0.1-0.1,0-0.1-0.1c0-0.1,0,0,0-0.1l0.1-0.2l0,0h0c-0.1,0-0.2,0-0.2,0.1h0.1l0,0c-0.1,0.1-0.2,0.1-0.2,0.1
				h-0.1c-0.1,0-0.1,0-0.1,0.1c0,0.1,0,0-0.1,0.1h-0.1h-0.1l-0.2,0.1L57.5,11c-0.1,0-0.1,0.1-0.2,0.1h0.1l-0.2,0.1v0.1h0.1l0.2,0
				h0.2l-0.1,0.1c-0.1,0-0.1,0-0.2,0.1h-0.1l-0.2,0.1l0,0.1l-0.1,0.2l0.2,0.1l0.3,0l0.1,0.1l0.1-0.1h0.1c0,0,0,0,0.1-0.1l0.1-0.1
				l0.1,0.1c0,0,0.1-0.1,0.1-0.1c0,0,0.1,0,0.1,0c0,0,0.1,0,0.1,0C58.6,11.6,58.6,11.6,58.7,11.5 M57,12.5c0.1,0,0.2-0.1,0.3-0.1
				c0-0.1,0-0.1,0-0.2l-0.3,0l-0.3,0.2L57,12.5 M59,13.8L59,13.8l0-0.3l-0.3-0.1l-0.4-0.1l-0.3,0.1l-0.5,0.1l-0.3,0l-0.3-0.1h-0.3
				l-0.1-0.2l0.1-0.2l0.1-0.2h-0.3l-0.2,0C56.1,13,56,13.2,56,13.5l-0.3,0.3v0.2l0.1,0.2l0.4,0l0.3-0.1c0.2,0.3,0.2,0.3,0.6,0.2h0.5
				l0.3-0.1l0.1-0.1l0.1,0.1c0.8,0,0.8,0,0.8-0.2C58.8,13.9,58.8,13.9,59,13.8 M53.7,14.2h0.2l0-0.2L53.7,14.2 M55.1,14l0.2-0.3
				l-0.1-0.1l0-0.2l-0.2,0l-0.4,0.1l-0.2,0.2V14h0.2l0.1,0.1L55.1,14 M55.7,13.1l0.3-0.2l0.1-0.1l0-0.2h-0.2l-0.1-0.1l-0.2,0
				l-0.2,0.2l0.1,0.2l0.1,0.1L55.7,13.1 M56.6,12.3l0.1-0.1h-0.4l-0.2,0.1l-0.1,0.1h0.3l0.2,0L56.6,12.3 M56.6,12l0.2-0.1v-0.2
				l-0.2,0v-0.2l-0.2,0.1l-0.1,0.1L56,12l0.1,0h0.2L56.6,12L56.6,12z M56.8,11.2l0.2-0.1l0.2-0.1v0H57L56.8,11h0.1L56.8,11.2
				 M55.5,12.2l0.2-0.1l0.2-0.2l0-0.1l0.2-0.2l0-0.1v-0.1h-0.1l0.1-0.1l0-0.1h-0.1l-0.4,0.1l-0.1,0.1h0.1v0.1l-0.2,0.1H55l-0.1,0.2
				H55L55,11.9l0.2-0.1h0.1l0.2,0l-0.1,0.2L55.5,12.2 M54.9,12.2l0.2-0.1l0-0.1h-0.2l-0.2,0.1L54.9,12.2L54.9,12.2z M54.9,13.1
				c0,0,0.1-0.1,0.1-0.2c0,0,0-0.1-0.1-0.1c-0.1,0-0.2,0.1-0.2,0.1l0-0.1h-0.2c0,0.2-0.1,0.6-0.3,0.4l0.1-0.3H54l-0.2,0.2l-0.2,0.2
				l0-0.2l0.3-0.3l-0.1-0.1l-0.3,0.3c0,0-0.1,0.1-0.1,0.2c0,0.1,0,0.2,0,0.3l0.2,0.1l0.2-0.1l0.2,0l0,0.1l-0.2,0.3l0.2-0.1h0.2
				l0.2,0l0.2-0.2l0.2-0.3C54.7,13.2,54.8,13.2,54.9,13.1 M52.9,13.6c0.1-0.1,0-0.1,0-0.1h-0.1c0,0-0.1,0.1-0.2,0.1l-0.1,0.2
				c0.1,0,0.1,0,0.2,0C52.7,13.7,52.8,13.7,52.9,13.6 M53.9,12.5l0.2-0.1l0.2-0.2l0-0.1C54.1,12.1,54,12.3,53.9,12.5 M59.8,19.4
				l0.2-0.3l-0.2-0.4c-0.2,0-0.5,0-0.7,0c-0.1,0.1-0.3,0.2-0.4,0.4l0.2,0.3l0.4,0L59.8,19.4 M55.3,14.9c0.1-0.1,0.2-0.2,0.3-0.3
				c-0.1-0.1-0.1-0.1-0.2-0.1h-0.3l-0.2-0.1c-0.4,0-0.4,0-0.5,0.1c-0.1,0.2-0.2,0.3-0.4,0.3c-0.1,0.2-0.2,0.3-0.3,0.5
				c-0.2,0.4-0.2,0.4-0.2,0.5l0.4,0l0.3-0.2l0.2-0.3l0.3,0.1l0.3-0.2L55.3,14.9 M52.8,16.1l0.4-0.3l0-0.3l0-0.2L53,15.1
				c0.5-0.2,0.5-0.2,0.5-0.5v-0.1h-0.2L53,14.6h-0.1l-0.1-0.1l-0.3,0.1l-0.1,0.2V15c-0.5,0.5-0.5,0.4-0.6,0.1h-0.2l-0.2,0.2l0.1,0.2
				l0.1,0.1l0.2,0.1c0,0.1,0,0.2-0.1,0.3l0,0.1c0,0.1,0.2,0.2,0.2,0.2c0.1-0.1,0.3-0.1,0.4-0.2L52.8,16.1 M51.2,15l0.3-0.3v-0.1
				l-0.3-0.1l-0.3,0.2c0,0.2,0,0.2,0,0.2c0,0,0,0-0.1,0.3L51.2,15 M50.6,14.7l0.3-0.2h-0.2l-0.2,0.1L50.6,14.7L50.6,14.7z
				 M54.1,11.8c0.2-0.1,0.2-0.1,0.2-0.1c0,0,0-0.1,0-0.1h-0.2l-0.2,0l-0.4,0.1h0.2h0.2L54.1,11.8L54.1,11.8 M53.5,12l0.3-0.1h-0.1
				h-0.2l-0.2,0L52.9,12l-0.3,0.3l0,0l0.2-0.1h0.2l0.2-0.1l0.1-0.1L53.5,12 M52.7,12h0.1l0.3-0.2v-0.1H53l-0.2,0.1L52.7,12L52.7,12z
				 M52.3,13.6l0.5-0.3l0.1-0.1h-0.1l-0.2,0.1l-0.1-0.1l0.1-0.2l0.2-0.2l0.2-0.2h-0.2l-0.2,0.1l-0.2,0l-0.2,0.1c0,0.1,0,0.1-0.4,0.4
				l0.1,0c-0.1,0.1-0.2,0.2-0.3,0.1h-0.2l0-0.1l0.2-0.3l0-0.1h-0.1v-0.1l0,0L51,12.9l-0.4,0.2l-0.4,0.1l-0.4,0.2l-0.3,0.2h0.2
				l0.1,0.1h0.2l0.3-0.1l0.2,0.1h0.2c-0.1,0.1-0.2,0.1-0.4,0.1l-0.2,0L50,13.8L49.8,14l0,0.1h0.3l0.5-0.1l0.4-0.2l0.3,0h0.3H52
				L52.3,13.6 M51.7,12.6l0.2,0l0.2-0.1c-0.1,0-0.1,0-0.2,0v0L51.7,12.6 M49.8,13.3l0.6-0.3L50,13l-0.4,0.2L49.8,13.3z M51.8,12.3
				l0.4-0.2l-0.1-0.1l-0.4,0.1h-0.2h-0.1c-0.4,0.1-0.8,0.3-1.2,0.5h-0.2l-0.3,0.1l-0.3,0.2v0.2l0.3-0.1l-0.1,0.1L50,13l0.2-0.1h0.2
				l0.3-0.2l0.3-0.1l-0.2,0.2l0.2-0.1l0.3-0.1L51.8,12.3 M50.3,17.4l0.2-0.2L50.4,17L50,16.8v-0.4l0.3-0.3l0-0.2l0.4-0.4l0.1-0.3
				l-0.1-0.2h-0.3c-0.1,0.1-0.2,0.2-0.3,0.3l-0.2,0.2l-0.2,0.3l-0.2,0.1h-0.1v-0.1l0.2-0.2l0.1-0.2l0.1-0.3l-0.2,0l-0.2,0.2
				l-0.1,0.2H49l-0.2,0.1l-0.3,0l0.2-0.2l0.3-0.2l-0.1,0l-0.1-0.1h-0.2l-0.3,0.2l-0.1,0l0.2-0.1l0.3-0.3l0-0.1h-0.2L48,15L47.8,15
				l-0.3,0.1l-0.4,0.2l-0.3,0.3l-0.5,0.2l-0.2,0.2h0.2L46.2,16l0.3-0.1h0.3l0,0.2l-0.4,0.1l-0.3,0.1l-0.3,0.2l0.1,0.2h0.3h0.4
				c0.1,0,0.2,0,0.3,0c0.1,0,0.1,0.1,0.1,0.2C47,16.9,47,17,46.9,17l-0.5,0l-0.5,0l-0.6,0.2L45,17.6l0.4,0h0.3L45.6,18l0.1,0.2h0.5
				h0.5l0.5-0.2l0.4-0.1l0.5-0.2l0.3-0.1v0.2l0.2,0l0.3,0.3l0.3,0l0.4,0l0.3-0.3l-0.1-0.2h0.2L50.3,17.4 M48,18.3l0.2-0.3l-0.6,0.1
				l-0.7,0.3l0.3,0.1l0.4-0.2C47.6,18.4,48,18.3,48,18.3z M48.1,14.8l0.4-0.1l0.3-0.2l0-0.3l-0.1,0l-0.4,0.1l-0.1-0.1l0-0.2
				l-0.2-0.1l-0.5,0l-0.3,0.2l-0.4,0.3l-0.8,0.5l-1.3,0.6l0.2,0.2l-0.4,0.5L45,16h0.3l0.4-0.2c0.5-0.3,1-0.6,1.6-0.8L48.1,14.8
				 M71.7,31.9l0.2-0.3l-0.4-0.3l0.1-0.3l0-0.6l-0.7-0.1l-0.2-0.3H70l-0.5,0.3l-0.4,0.3l-0.4-0.1l0.1-0.4l0.6-0.2l0.8-0.2l0.3-0.3
				H70l-0.6-0.2l-0.7-0.2l-0.5-0.4l-0.5-0.4L67.5,28l0.3-0.1l0.1-0.2l-0.5-0.6l-0.6-0.6l-0.9-1.1L65.5,25l-0.4,0.6
				c0,0.2,0,0.4,0.1,0.6l-0.5,0.2l-0.3,0.4h-0.5l-0.1-0.4l-0.4-0.3l-0.5,0.1l0.1-0.6c0-0.3,0-0.5,0-0.8l-0.1-0.4l-0.6,0l-0.5-0.3
				l-0.4-0.4l-0.8-0.5l-0.3,0.2l-0.6-0.1l-0.3-0.2h-0.7l-0.3,0.3l0.2,0.4l-0.2,0.6l0.1,0.4l0.2,0.5h-0.4V26l-0.3,0.3l0.3,0.2
				l0.5,0.4l0.1,0.7c0,0.3,0,0.5,0,0.8L58.3,29l-0.6,0.4l-0.8,0.1l0.4,0.7c0,0.3,0,0.6-0.1,0.9l0.2,0.5l-0.2,0.4l-0.4,0.5l-0.8,0.1
				l-0.4-0.8l-0.5-0.7c0-0.2,0-0.4,0.1-0.5L55.2,30l0.2-0.6l-0.9-0.1l-0.7,0l-0.3-0.2l-0.8-0.2l-0.3-0.4l-0.7-0.4L51,27.5l-1,0.2
				l-0.1-0.4l-0.1-0.9l-0.4-0.2l-0.2-0.4l0.5-1.1l0.7-0.8l0.7-0.7l0.6-0.2l0.5-0.3l-0.1-0.4l-0.6-0.2l-0.6-0.3l0.8,0.1l0.6,0.2
				l0.4-0.1l0.2-0.4l0.5,0.2l0.4-0.1l0.1-0.3l0.3-0.1l0.2-0.4L53.9,21l-0.5-0.1l-0.1-0.2l-0.5-0.3l0.4,0l0.6,0.2l0.4,0.2l0.5-0.1
				l0.4-0.4L54.8,20h0.4l0.2,0.3l-0.3,0.3l-0.3,0.6c-0.1,0.2-0.1,0.5-0.2,0.7L54.1,22l0,0.3l0.5,0c0,0.1,0,0.2,0,0.3
				c0.2,0,0.4,0,0.6-0.1l0.3-0.4l0.6,0l0.3,0.1l0.3,0.2h0.5l0.1-0.4l-0.5-0.1l-0.1-0.5l-0.6-0.1L55.7,21l-0.4-0.1
				c0-0.1,0-0.2,0.1-0.3l0.4,0.1l0.2-0.2v-0.2h0.4l0.2-0.3l0.5-0.3l0.2-0.3l-0.2-0.3L57,18.6l0.4-0.1l0.2-0.3l-0.2-0.3l-0.3-0.2
				l-0.4-0.3h0.5l0.1-0.2l0.4,0l0.3,0.2l0.4,0l0.4-0.1l-0.3-0.3l0.2-0.1l0.3,0.4l0.4,0l0.1,0.4l0.3,0.1l0.1,0.3l0.3,0.1l0.2,0.3
				l0.4,0.1l0.3,0.3l0.1,0.4L60.7,20l-0.4,0.5l0.2,0.5l-0.7,0.1L59.4,21H59l-0.5,0.4c0,0.1,0,0.3,0,0.4l0.6,0.1l0.5,0l0.1-0.2
				l0.2-0.1l0.3,0.1l0.6,0.2l0.6,0.6l0.1,0.3l0.4,0.4h0.5l0.6,0.5h0.9l0.6,0.2v-0.3l-1-0.7l-0.4-0.3l-0.2-0.3l0.6,0.3l1,0.5l0.6,0.3
				c0-0.2,0-0.3-0.1-0.5l0.2-0.4L64.7,22l-0.2-0.7l-0.7-0.2l-0.8-0.8l0.2-0.2l0.2-0.2l1.1,0.7l0.4,0.5l0.4,0.1v-0.6l0.5-0.2l0-0.2
				h0.3l0.1-0.3l-0.1-0.4h-0.7c0-0.1,0-0.1,0-0.2l-0.5-0.3l-0.3,0l-0.4-0.2H64l-0.1-0.3l-0.1-0.2h-0.5H63c0-0.1,0-0.3,0-0.4h0.4
				l0.2-0.2L63,17.7l0-0.2l0.2,0l-0.3-0.3l-0.4-0.1l0.1-0.2l-0.4-0.2l-0.4,0l-0.1-0.2h-0.3l-0.1,0l0.3-0.2l-0.4-0.1l-0.5,0.1
				l-0.3-0.3l0-0.2h-0.3v-0.2l-0.4-0.2h-0.5l-0.1,0.2l-0.3,0l-0.3-0.1l-0.1,0.2h-0.3l0-0.3l0.2-0.3L58.3,15l0-0.3h-0.4l-0.3,0.2
				h-0.3l-0.3,0.1l-0.2,0.3l0.1,0.3l-0.2,0.2l0.1,0.4l-0.3,0L56.3,16l0.1-0.5l0.1-0.3l0.3-0.3l0.4-0.3h-0.4l-0.5,0.1l-0.6,0.4
				l-0.5,0.5l-0.3,0.7l0.4,0.1l0.3,0l0,0.3l-0.3-0.1l-0.4,0.1l0.2,0.3h0.4l0.2-0.1l0.2,0.2l0.5,0.2l-0.4,0.1l-0.1,0.3l0.2,0.2
				l-0.5,0.6l-0.3,0.4l-0.4,0.4l-0.2-0.1l0-0.5l0.3-0.3l-0.3-0.5L54,18.3l-0.3-0.7l-0.1-0.1l0.2-0.3l0.1-0.4l-0.2,0l0.1-0.3
				l-0.2-0.4l-0.4,0l-0.2,0.2h-0.2l-0.4,0.3l-0.1,0.3l-0.2,0.2l0.2,0.4l0.2,0.2L52.3,18L52,17.9l-0.1,0.4h0.4l0.5-0.3
				c-0.1,0.1-0.1,0.3-0.2,0.4l-0.9,0.4l-0.2,0.6l-0.3-0.3l0.3-0.4h-0.3l0.2-0.4h0.3l0.2-0.6l-0.4-0.3l-0.4,0.4L50.6,18l0.3,0.4
				l-0.4,0.2L50.2,19h-1.1l-0.4-0.3l-0.3-0.1l-0.2-0.4l-0.5,0.2l-0.7,0.3l-0.2,0.4l-0.5,0.6l0.2-0.7l-0.3-0.3l-0.7,0.1l-1.1-0.2
				l0.2-0.2l0.6-0.2L45,17.9h-0.4L44,17.5l0.1-0.3l-0.3-0.1h-0.2l-0.4,0.2l-0.3,0l0.4-0.5l-0.7,0.5l-0.2-0.1l0.5-0.6l-0.1-0.1
				l-0.6,0.4l-0.5,0.2l-0.3,0l-0.6,0.2l-0.7,0.3l0.8-0.4l0.4-0.1l0.4-0.1l0.4-0.2l-0.1,0l-0.6,0.2l-0.7,0.2h-0.2h-0.2l-0.9,0.3
				l-0.3-0.1l0.3-0.4L39,16.8l0.2-0.2l-0.1-0.1l-0.4,0.1l0.2-0.2l-0.2,0v-0.2l-0.2,0l-0.1,0c-3.3,2-6.4,4.3-9.2,7l0.4-0.1l-0.1,0.2
				l-0.7,0.3l-0.4,0.4L28,23.9l-0.3,0.4l0.9-0.4l0.4-0.1c0.2-0.3,0.4-0.5,0.6-0.7l0.3,0.1l-0.1,0.5l0,0.4l0.2,0.2l0.4-0.1l0.1,0.2
				l0.2,0l-0.1,0.4l0.1,0.4c0,0.2,0,0.4,0,0.6l0.3-0.1l0,0.3l-0.1,0.4l0.3,0.2L30.8,27l0.2,0.3l-0.3,0.4l0.2,0.2l0.2,0.1l-0.3,0.4
				l-0.1,0.5l-0.3,0.5l-0.2,0.5l0.3,0.1l-0.3,0.6l0.1,0.6l-0.1,0.4l0.3,0.4l0.3,0.3l0.3,0.2L31,32.7l0.3,0.5l0.2,0.4l-0.2,0.8
				L31,35.1l-0.1-0.4l-0.1-0.6l0.1-0.3l-0.2-0.4l-0.2-0.2l0.2-0.5h-0.3l-0.1-0.3l-0.2-0.1L30,32.1l-0.3,0v0.4l0.2,0.3l0.1,0.4
				l0.3,0.7l-0.1,0.7l-0.1,0.8l-0.3,0.7L29.4,37c-0.1,0.3-0.3,0.7-0.4,1l-0.3,0.2c-0.1,0.2-0.2,0.5-0.2,0.7l0,0.7l-0.3,0.7l-0.1,0.6
				l0.1,0.5l-0.2,0.7l0.1,0.6l0.3,0.5v1l0.3,0.4l0,0.5l0.2,0.6l0.5,0l0.3,0.4l0.5,0.4l0.3,0.6V48l0.1,0.7l0.1,1.1l0.3,0.5l0.4,0.6
				l0.1,0.4L31,51.6l0.2,0.5l0.4,0.5l0.6,0.5l0.3,0.5L32.4,54l0.1,0.4l0.5,0.3l0.4,0.5l0.3,0.4v0.5l0.3-0.1l0.1-0.5L34,54.8
				l-0.4-0.3l0-0.5l-0.5-0.5l-0.1-0.7l-0.1-0.7l-0.4-0.5l-0.1-0.6L32,50.8L31.8,50l-0.4-0.7l0.1-0.9h0.4l0.5,0.3l0.3,0.5L32.6,50
				l0.5,1l0.5,0.8l0.5,0.6l0.4,0.6l0,0.7l0.6,0.4l0.4,0.6l0.3,0.7l0.7,0.9l0.3,0.8l0.4,0.4l-0.4,0.3l-0.1,0.5l0.8,0.8l0.7,0.6
				l0.8,0.3l0.9,0.6l1,0.5l1.2,0.7l1,0.3l0.6,0l0.2-0.3l0.7-0.1l0.8,0.4l0.9,0.7l0.5,0.6h0.7h0.3l0.4,0.2l0.4,0.6l0.9,0.3l0-0.4
				l0.5,0.3c1.4,1.9,1.4,1.9,1.3,2.4l0.3,0.3l0.4-0.2l0.5,0.2c1,0.9,1,0.9,1.4,0.8l1.2,0.6l0.7,0.3l-0.1-0.6l0.3-0.4l1.1,0.1
				l0.1,0.4l0.4,0l0.2-0.5l-0.4-0.5h-1.2l-0.8,0L54,67.1l-0.5-0.4L52.8,66l0-0.6c0-0.3,0-0.5,0-0.8l0.2-1c0-0.2,0-0.5,0-0.7
				l-0.4-0.5l-0.7-0.4L50.8,62l-0.8-0.2l-0.8,0.3l-0.6-0.4l0.5-0.4v-0.8l0.2-0.5l0.3-0.7c0-0.3,0-0.6,0-0.8l0.5-0.3l0.1-0.6
				l-0.4-0.2l-1.2,0.1l-0.7,0.1l-0.3,0.6L47.3,59l-0.4,0.8l-0.6,0.1l-0.9,0.2l-0.9,0.1l-0.4-0.6l-0.8-0.4l-0.3-0.7l-0.5-0.9
				l-0.3-1.5l-0.1-1.1l0.4-0.8l0.2-0.9l-0.3-1l0.7-0.9l0.6,0l0.6-0.5l0.6-0.5l0.8,0.1l0.6,0.2l0.5-0.2l0.4,0.5h0.7l0.5,0l-0.1-0.4
				l0.2-0.6h0.8L50,50l1.1,0.1l0.4,0.6h0.4l0.2-0.3l0.3-0.1l0.5,0.5l0.5,0.6c0,0.2,0,0.5,0,0.7l0.3,0.4l0.1,0.4l0.4,0.3l0.2,0.5
				l0.4,0.2l0,0.5l0.4,0.1l0.3-0.4l0.2-0.6l-0.2-0.7l-0.2-1L54.6,51c0-0.4,0-0.8,0.1-1.4c0.1-0.2,0.2-0.4,0.3-0.6l0.5-0.9l0.7-0.3
				l0.8-0.7l0.7-0.5l0.7-0.3l0.1-0.5l0.6-0.3l-0.5-0.8l-0.3-0.4l0.2-0.4l-0.3-0.4l0.5-0.3l0.5,0.6l0.3-0.6l0.3-0.5l0.3-0.3l0.3-1.1
				h1l0.6-0.4l0.8-0.1l-0.2-0.4l-0.1-0.9l0.5-0.7h0.6l0.2-0.4l0.8,0l0.7-0.5l0.4-0.5c1.2,0,1.2,0,1.8,0.1c-0.1,0.1-0.2,0.2-0.2,0.2
				l-1,0l-0.5,0.4c0,0.2,0,0.4,0.1,0.6l0.4,0.2l0.4-0.4l0.3-0.2l0.6-0.2l0.6-0.3l0.7-0.2l0.4-0.6l0.5-0.4v-0.5l-0.7,0.2l-0.4,0.7
				l-0.8,0.1l-0.7-0.3l-0.7-0.5l-0.4-0.9l0.6-0.5l-0.1-0.7l-0.9-0.1l-0.9,0.3l-1,0.6l-1,1l-0.8,0.6l0.3-0.5l0.5-0.6l0.3-0.3L62.2,35
				h1l0.2-0.5l0.5-0.4l0.7,0l0.2-0.5l0.5-0.2h0.9l1.6-0.1l0.8,0.1l0.6,0l0.6-0.4l0.5-0.6l1-0.1L71.7,31.9"/>
		</g>
	</g>
	<path class="st3" d="M84.9,49c-7.6,8.5-15.9,16.5-24.6,24C56,76.7,51.5,80.2,47,83.7c-4.6,3.5-9.3,6.7-14.2,9.8
		c-2.4,1.5-4.9,3-7.5,4.4c-2.5,1.4-5.1,2.7-7.8,3.8c-2.7,1.2-5.6,2.1-8.5,2.7c-1.6,0.3-3.2,0.3-4.8,0c-0.9-0.2-1.7-0.6-2.4-1.2
		c-0.7-0.7-1.2-1.5-1.4-2.4c-0.4-1.7-0.1-3.3,0.3-4.8c0.4-1.4,1-2.8,1.6-4.1c1.3-2.6,2.8-5.1,4.5-7.4c3.3-4.7,7-9.1,10.9-13.3
		c-3.5,4.5-6.7,9.2-9.7,14c-1.5,2.4-2.8,4.9-3.9,7.5c-0.5,1.3-1,2.6-1.3,3.9c-0.3,1.3-0.4,2.6-0.1,3.7c0.1,0.5,0.4,0.9,0.8,1.2
		c0.4,0.3,0.9,0.5,1.4,0.6c1.3,0.2,2.5,0.2,3.8-0.1c2.7-0.6,5.3-1.5,7.8-2.6c5.1-2.3,10.1-5.1,14.8-8.1c4.8-3,9.5-6.2,14.1-9.5
		c4.6-3.3,9.1-6.8,13.6-10.3C67.8,64.1,76.5,56.7,84.9,49z"/>
	<path class="st4" d="M102,44c-1.8,1.6-6-0.3-9.5-4.3s-4.7-8.4-2.9-10L110.1,12l12.4,14.2L102,44z"/>
	<path class="st4" d="M122.5,26.2c-1.8,1.6-5.3-1-8.8-4.9s-5.4-7.8-3.6-9.3c4-3.5,16.2-1.6,16.2-1.6S126.5,22.7,122.5,26.2z"/>
	<path class="st4" d="M110.3,48.6c2.7-2.4,3.7-15,3.7-15L99.2,46.5l5.9,6.7L110.3,48.6z"/>

		<rect x="101.4" y="43.6" transform="matrix(0.7547 -0.6561 0.6561 0.7547 -5.9464 80.1458)" class="st5" width="5.5" height="8.9"/>
	<path class="st4" d="M86.2,20.9c2.7-2.4,15.4-1.5,15.4-1.5L86.8,32.2l-5.9-6.7L86.2,20.9z"/>
	<rect x="83.2" y="22.6" transform="matrix(0.7547 -0.6561 0.6561 0.7547 3.345 63.0359)" class="st5" width="5.5" height="8.9"/>
	<path class="st5" d="M102.1,43.4c-0.4,0-0.7,0-1.1,0c-0.2,0-0.4-0.1-0.6-0.1c-0.4-0.1-0.8-0.3-1.2-0.4c-2.1-1-3.9-2.4-5.3-4.2
		c-1.5-1.7-2.7-3.7-3.4-5.9c-0.1-0.4-0.2-0.9-0.3-1.3c0-0.2,0-0.4,0-0.6c0-0.4,0-0.7,0.1-1.1c0-0.2,0.1-0.3,0.2-0.4
		c0.1-0.3,0.3-0.5,0.5-0.7L87.1,32c-1.8,1.6-0.5,6,2.9,10s7.7,5.8,9.5,4.3l3.9-3.4c-0.2,0.2-0.5,0.3-0.8,0.4
		C102.4,43.3,102.3,43.3,102.1,43.4z"/>
	<path class="st5" d="M109.2,37.2c-0.4,0-0.7,0-1.1,0c-0.2,0-0.4-0.1-0.6-0.1c-0.4-0.1-0.8-0.3-1.2-0.4c-2.1-1-3.9-2.4-5.3-4.2
		c-1.5-1.7-2.7-3.7-3.4-5.9c-0.1-0.4-0.2-0.9-0.3-1.3c0-0.2,0-0.4,0-0.6c0-0.4,0-0.7,0.1-1.1c0-0.2,0.1-0.3,0.2-0.4
		c0.1-0.3,0.3-0.5,0.5-0.7l-3.9,3.4c-1.8,1.6-0.5,6,2.9,10c3.4,3.9,7.6,5.8,9.5,4.3l3.9-3.4c-0.2,0.2-0.5,0.3-0.8,0.4
		C109.5,37.1,109.4,37.2,109.2,37.2z"/>
	<path class="st5" d="M116.3,31c-0.4,0-0.7,0-1.1,0c-0.2,0-0.4-0.1-0.6-0.1c-0.4-0.1-0.8-0.3-1.2-0.4c-2.1-1-3.9-2.4-5.3-4.2
		c-1.5-1.7-2.7-3.7-3.4-5.9c-0.1-0.4-0.2-0.9-0.3-1.3c0-0.2,0-0.4,0-0.6c0-0.4,0-0.7,0.1-1.1c0-0.2,0.1-0.3,0.2-0.4
		c0.1-0.3,0.3-0.5,0.5-0.7l-3.9,3.4c-1.8,1.6-0.5,6,2.9,10c3.4,3.9,7.6,5.8,9.5,4.3l3.9-3.4c-0.2,0.2-0.5,0.3-0.8,0.4
		C116.6,30.9,116.5,31,116.3,31z"/>
</g>
</svg>
