<?xml version="1.0" encoding="utf-8"?>
<!-- Generator: Adobe Illustrator 23.0.4, SVG Export Plug-In . SVG Version: 6.00 Build 0)  -->
<svg version="1.1" id="Layer_1" xmlns="http://www.w3.org/2000/svg" xmlns:xlink="http://www.w3.org/1999/xlink" x="0px" y="0px"
	 viewBox="0 0 690.1 115.1" style="enable-background:new 0 0 690.1 115.1;" xml:space="preserve">
<style type="text/css">
	.st0{fill:#FFFFFF;}
	.st1{fill:#FF6E42;}
	.st2{clip-path:url(#SVGID_2_);}
	.st3{fill:#DAE1E5;}
	.st4{fill:#F26E46;}
	.st5{fill:#F4896A;}
	.st6{fill:#EC5735;}
</style>
<title>yb</title>
<g>
	<path class="st0" d="M207.5,94.5c-0.3-0.3-0.5-0.7-0.5-1.2c0-0.5,0.1-0.9,0.3-1.3l6.5-15.3L198,39.3c-0.2-0.4-0.3-0.8-0.3-1.2
		c0-0.5,0.3-0.9,0.6-1.3c0.3-0.4,0.8-0.5,1.2-0.5h6.9c1,0,1.9,0.6,2.1,1.6l11,26.9l11.2-26.9c0.4-0.9,1.3-1.6,2.3-1.6h6.7
		c0.5,0,0.9,0.2,1.2,0.5c0.3,0.3,0.5,0.7,0.5,1.2c0,0.5-0.1,0.9-0.3,1.3l-23.4,54.1c-0.3,1-1.3,1.6-2.3,1.6h-6.6
		C208.3,95,207.8,94.9,207.5,94.5z"/>
	<path class="st0" d="M252.4,75.2c-2.9-3.3-4.4-7.9-4.4-13.6V38.4c0-0.5,0.2-1.1,0.6-1.5c0.4-0.4,0.9-0.5,1.4-0.5h7.4
		c1.1,0,2,0.9,2,2v22.7c0,6.8,3,10.2,8.9,10.1c2.9,0,5.1-0.9,6.8-2.7c1.7-1.8,2.5-4.3,2.5-7.4V38.4c0-0.5,0.2-1.1,0.6-1.5
		c0.4-0.4,0.9-0.5,1.4-0.5h7.3c1-0.1,1.9,0.7,2,1.7c0,0.1,0,0.2,0,0.3v39c0,0.5-0.2,1-0.5,1.4c-0.4,0.4-0.9,0.6-1.4,0.6h-6.9
		c-1.1,0-2-0.9-2-2c0,0,0,0,0,0V74c-3,4.1-7.6,6.2-13.7,6.2C259.3,80.2,255.3,78.5,252.4,75.2z"/>
	<path class="st0" d="M307.3,95.1c-3-1.6-5.2-3.5-6.4-5.6c-1.3-2.1-1.9-3.9-1.9-5.4c0-0.5,0.2-1,0.6-1.4c0.4-0.4,0.9-0.6,1.4-0.5
		h7.4c0.4,0,0.9,0.1,1.3,0.4c0.4,0.4,0.7,0.8,0.9,1.4c0.6,1.4,1.5,2.7,2.7,3.7c1.2,1,3.1,1.5,5.6,1.5c3.3,0,5.7-0.7,7.3-2.2
		s2.3-4,2.3-7.6v-5.6c-3,3.5-7.2,5.3-12.7,5.3c-5.7,0-10-1.7-12.9-5.2c-2.9-3.5-4.4-8.2-4.7-14.2l-0.1-2.2l0.1-2.2
		c0.2-5.9,1.8-10.6,4.7-14.2c2.9-3.6,7.2-5.4,12.9-5.4c2.7-0.1,5.3,0.5,7.7,1.6c2.1,1,4,2.6,5.5,4.4v-3.2c0-0.6,0.2-1.1,0.6-1.5
		c0.4-0.4,0.9-0.6,1.4-0.6h6.8c0.5,0,1,0.2,1.4,0.6c0.4,0.4,0.6,0.9,0.6,1.5l0.1,39.8c0,6.1-1.7,10.8-5.1,14.2
		c-3.4,3.4-8.6,5-15.4,5.1C314.4,97.5,310.4,96.7,307.3,95.1z M325.9,67.3c1.6-2.1,2.5-4.6,2.5-7.3c0.1-0.4,0.1-1.3,0.1-2.6
		s0-2.2-0.1-2.6c-0.1-2.6-1-5.2-2.5-7.3c-1.5-2-3.9-3-7-3c-5.9,0-9.1,3.6-9.4,10.9l-0.1,2c0,8.6,3.2,12.9,9.5,12.9
		C322,70.2,324.3,69.2,325.9,67.3z"/>
	<path class="st0" d="M355.5,78.5c-2.2-1-4.1-2.6-5.5-4.6c-3.5-5-2.4-11.8,2.5-15.4c3-2.3,7.2-3.9,12.5-4.7l11.3-1.7v-1.7
		c0-2.4-0.6-4.2-1.8-5.4c-1.2-1.2-3.2-1.8-5.8-1.8c-1.5-0.1-3,0.3-4.4,1c-1,0.6-1.9,1.2-2.7,2l-1.4,1.4c-0.1,0.6-0.7,1-1.3,1h-6.4
		c-0.5,0-0.9-0.2-1.3-0.5c-0.4-0.3-0.6-0.8-0.5-1.3c0.1-1.4,0.7-2.9,2-4.7c1.6-2,3.7-3.5,6-4.5c2.7-1.3,6-1.9,10-1.9
		c6.5,0,11.2,1.5,14.2,4.4s4.5,6.7,4.4,11.5v26c0,0.5-0.2,1-0.5,1.4c-0.4,0.4-0.9,0.6-1.5,0.6h-6.8c-0.5,0-1-0.2-1.4-0.6
		c-0.4-0.4-0.6-0.9-0.6-1.4v-3.2c-1.3,1.9-3.1,3.3-5.1,4.3c-2.6,1.2-5.4,1.8-8.2,1.7C360.6,80.2,357.9,79.6,355.5,78.5z M373.4,69.2
		c1.9-2,2.9-4.8,2.9-8.6V59l-8.2,1.3c-6.3,1-9.5,3.1-9.5,6.3c-0.1,1.7,0.8,3.2,2.2,4.1c1.6,1,3.4,1.5,5.3,1.4
		C368.8,72.3,371.5,71.2,373.4,69.2z"/>
	<path class="st0" d="M408.7,74.3v3.1c0,0.5-0.2,1-0.6,1.4c-0.4,0.4-0.9,0.6-1.5,0.6H400c-0.5,0-1-0.2-1.4-0.6
		c-0.4-0.4-0.6-0.9-0.6-1.4V22.7c0-0.5,0.2-1.1,0.6-1.4c0.4-0.4,0.9-0.6,1.4-0.5h7.2c1-0.1,1.9,0.7,2,1.7c0,0.1,0,0.2,0,0.3V41
		c3.1-3.6,7.3-5.5,12.7-5.5c5.6,0,9.8,1.8,12.9,5.4c3,3.6,4.6,8.3,4.7,14.2c0.1,0.6,0.1,1.6,0.1,2.7c0,1.2,0,2-0.1,2.7
		c-0.2,5.9-1.8,10.7-4.8,14.2s-7.3,5.3-12.8,5.3C416.1,80.2,411.8,78.2,408.7,74.3z M428.1,60.4c0.1-0.6,0.1-1.4,0.1-2.5
		c0-1.1,0-1.9-0.1-2.5c-0.4-7.3-3.5-10.9-9.4-10.9c-3,0-5.4,1-7,2.9c-1.6,2-2.5,4.5-2.5,7c-0.1,0.6-0.1,1.7-0.1,3.2s0,2.5,0.1,3.2
		c0,2.7,0.9,5.3,2.5,7.4c1.5,2,3.9,3.1,7,3.1C424.6,71.2,427.8,67.6,428.1,60.4L428.1,60.4z"/>
	<path class="st0" d="M453.6,94.5c-0.3-0.3-0.5-0.7-0.5-1.2c0-0.5,0.1-0.9,0.3-1.3l6.5-15.3l-15.8-37.4c-0.2-0.4-0.3-0.8-0.3-1.2
		c0.1-0.5,0.3-0.9,0.6-1.3c0.3-0.4,0.8-0.5,1.2-0.5h6.8c1,0,1.9,0.6,2.2,1.6l11,26.9l11.2-26.9c0.4-0.9,1.3-1.6,2.3-1.6h6.7
		c0.5,0,0.9,0.2,1.3,0.5c0.3,0.3,0.5,0.7,0.5,1.2c0,0.5-0.1,0.9-0.3,1.3l-23.4,54.1c-0.3,1-1.3,1.6-2.3,1.6h-6.6
		C454.4,95,453.9,94.9,453.6,94.5z"/>
	<path class="st0" d="M502.7,75.4c-2.5-2.6-3.8-6.5-3.8-11.5V45.2h-6.5c-0.5,0-1-0.2-1.4-0.6c-0.4-0.4-0.6-0.9-0.6-1.4v-4.9
		c0-0.5,0.2-1,0.6-1.4c0.4-0.4,0.9-0.6,1.4-0.6h6.5V22.7c0-0.5,0.2-1.1,0.6-1.4c0.4-0.4,0.9-0.6,1.4-0.5h6.8c0.5,0,1.1,0.2,1.4,0.5
		c0.4,0.4,0.6,0.9,0.5,1.4v13.7h10.3c1.1,0,2,0.9,2,2c0,0,0,0,0,0v4.9c0,1.1-0.9,2-2,2c0,0,0,0,0,0h-10.3V63c0,2.4,0.4,4.2,1.3,5.4
		c0.8,1.2,2.2,1.8,4,1.8h5.8c0.5,0,1.1,0.2,1.4,0.5c0.4,0.4,0.6,0.9,0.5,1.4v5.2c0,0.5-0.2,1-0.5,1.4c-0.4,0.4-0.9,0.6-1.4,0.6h-6.8
		C509.1,79.3,505.3,78,502.7,75.4z"/>
	<path class="st0" d="M534.1,74.9c-3.6-3.5-5.5-8.5-5.7-15l-0.1-2.1c0-6.9,1.8-12.3,5.4-16.3s8.6-5.9,15-5.9c6.6,0,11.6,2,15.2,5.9
		c3.6,4,5.3,9.2,5.3,15.8v1.7c0,0.5-0.2,1-0.6,1.4c-0.4,0.4-0.9,0.6-1.5,0.6h-27.4v0.6c0,2.8,0.9,5.4,2.5,7.6c1.5,2,4,3.1,6.5,3
		c3,0.1,5.9-1.4,7.7-3.8c0.3-0.4,0.7-0.8,1.2-1.1c0.5-0.2,0.9-0.2,1.4-0.2h7.3c0.5,0,0.9,0.1,1.3,0.4c0.4,0.3,0.6,0.7,0.5,1.2
		c0,1.3-0.8,2.9-2.4,4.7c-1.9,2-4.2,3.6-6.7,4.7c-3.2,1.4-6.7,2-10.1,2C542.6,80.1,537.7,78.4,534.1,74.9z M557.8,54v-0.2
		c0-3.2-0.8-5.8-2.4-7.8c-1.6-2-4.1-3-6.7-2.9c-2.5-0.1-5,1-6.6,2.9c-1.6,2-2.4,4.6-2.4,7.8V54H557.8z"/>
	<path class="st1" d="M580.6,78.7c-0.4-0.4-0.6-0.9-0.6-1.4V23.6c0-0.6,0.2-1.1,0.6-1.5c0.4-0.4,0.9-0.6,1.5-0.6h21.7
		c8.2,0,14.5,1.9,19,5.8c4.5,3.9,6.9,9.5,7.1,16.8c0.1,1.6,0.1,3.7,0.1,6.3c0,2.6,0,4.7-0.1,6.3c-0.6,15.1-9.1,22.6-25.7,22.6H582
		C581.4,79.3,580.9,79.1,580.6,78.7z M603.7,66.9c3.5,0,6-0.8,7.7-2.5c1.7-1.7,2.5-4.3,2.6-7.9c0.1-1.6,0.2-3.7,0.2-6.2
		c0-2.5-0.1-4.6-0.2-6.1c-0.1-3.5-1.1-6.1-2.8-7.8c-1.8-1.7-4.4-2.5-7.9-2.5h-7.9v33.1L603.7,66.9z"/>
	<path class="st1" d="M640,78.7c-0.4-0.4-0.6-0.9-0.6-1.4V23.6c0-0.6,0.2-1.1,0.6-1.5c0.4-0.4,0.9-0.6,1.5-0.6h25.5
		c7,0,12.2,1.4,15.6,4.3s5.1,6.9,5.1,12.2c0.1,2.5-0.7,4.9-2.1,6.9c-1.2,1.7-2.8,3.2-4.7,4.2c2.3,1.1,4.3,2.8,5.7,4.9
		c1.5,2.3,2.4,5,2.3,7.7c0,5.6-1.8,9.9-5.5,13c-3.7,3.1-8.9,4.6-15.7,4.6h-26.3C640.9,79.3,640.3,79.1,640,78.7z M665.2,44.4
		c2,0,3.6-0.6,4.7-1.7c1.1-1.1,1.7-2.7,1.7-4.3c0.1-1.6-0.5-3.1-1.6-4.2c-1.1-1.1-2.7-1.6-4.7-1.6h-10.3v11.7L665.2,44.4z
		 M665.9,68.2c2.2,0,3.8-0.6,5-1.9c2.4-2.6,2.4-6.6,0-9.3c-1.3-1.3-3.1-2-5-1.9h-11.1v13L665.9,68.2z"/>
	<path class="st0" d="M135.5,57.7c0.2,31.4-25,57.1-56.4,57.3S21.9,90,21.7,58.6s25-57.1,56.4-57.3c0,0,0,0,0,0
		C109.6,1,135.2,26.3,135.5,57.7"/>
	<g>
		<defs>
			<path id="SVGID_1_" d="M135.5,57.7c0.2,31.4-25,57.1-56.4,57.3S21.9,90,21.7,58.6s25-57.1,56.4-57.3c0,0,0,0,0,0
				C109.6,1,135.2,26.3,135.5,57.7"/>
		</defs>
		<clipPath id="SVGID_2_">
			<use xlink:href="#SVGID_1_"  style="overflow:visible;"/>
		</clipPath>
		<g class="st2">
			<path class="st3" d="M85.8,1L86,1L85.8,1 M84.9,0.9L84.9,0.9 M84.6,0.8l0.3,0l0,0h-0.1L84.6,0.8 M84.4,0.9L84.4,0.9l-0.3,0l0,0
				L84.4,0.9 M118.2,17l-0.2-0.2c-0.9-0.8-1.8-1.6-2.5-2.3l-0.4-0.3c1,0.8,2,1.6,2.9,2.5l0.3,0.3C118.3,17,118.3,17,118.2,17
				 M132.6,38.7c0,0,0,0.1,0,0.1l0,0V38.7 M132.2,37.5c0.2,0.4,0.3,0.8,0.5,1.2l0-0.1c0-0.1-0.1-0.2-0.1-0.2v-0.1l0-0.1l0,0
				C132.4,38,132.3,37.8,132.2,37.5 M129.1,30.9L129.1,30.9c-0.6-1.1-1.2-2.2-1.9-3.2c0.6,0.9,1.1,1.8,1.7,2.8
				C128.9,30.6,129,30.8,129.1,30.9 M124.2,23.5L124.2,23.5L124.2,23.5L124.2,23.5 M118.2,16.9l0.4,0.3l-0.3-0.3
				C118.3,17,118.3,16.9,118.2,16.9L118.2,16.9 M125.1,90.6l-0.2,0.3c0.8-1,1.5-2.1,2.2-3.2C126.7,88.3,126.1,89.3,125.1,90.6
				 M129.5,83.7L129.5,83.7c0.7-1.2,1.3-2.5,1.9-3.8c0,0,0,0.1-0.1,0.1C130.7,81.2,130.1,82.5,129.5,83.7 M133.2,74.8
				C133.2,74.9,133.2,74.9,133.2,74.8c0.4-1.2,0.8-2.4,1.1-3.6l0,0C134,72.5,133.6,73.7,133.2,74.8L133.2,74.8 M136,57.6L136,57.6
				 M136,57.4L136,57.4 M136,57.3L136,57.3 M135.3,49.2c0.2,0.9,0.3,1.8,0.3,2.7C135.6,51,135.5,50.1,135.3,49.2 M71.8,17.8
				c0-0.1,0-0.2,0-0.3s0-0.3,0-0.5L71.3,17l-0.5,0.3l0.1,0.6h0.6L71.8,17.8 M69.9,16.9L69.9,16.9l0-0.3c-0.1,0.1-0.2,0.1-0.2,0.2
				s-0.1,0-0.2,0.1c-0.2,0-0.3,0.1-0.5,0.2c-0.1,0-0.2,0.1-0.2,0.1c0.1,0.1,0.1,0.2,0.2,0.2c0.1,0,0.2,0,0.3,0
				c0.2-0.1,0.3-0.1,0.4-0.2C69.8,17.1,69.8,17.1,69.9,16.9 M73.8,7.3l0.5-0.1l-0.4-0.4l-0.7,0h-0.5v0.4l0,0.3l0.8,0L73.8,7.3
				 M83.8,0.7L83.8,0.7L83.8,0.7l-0.6-0.1H83h0.1l0,0L84,0.7l0,0l0.6,0.1l0.3,0l0.3,0.1l0,0L85.6,1l0.2,0h0.1l-1.1-0.2h0.1l-0.4-0.1
				l-0.3,0h0.1L83.8,0.7 M85.3,0.9L85,0.9l-0.6-0.1h-0.1c0.2,0,0.5,0.1,0.7,0.1l0,0L85.3,0.9L85.3,0.9l-0.2,0L85.7,1L85.3,0.9
				L85.3,0.9C85.6,1,85.8,1.1,86,1.1c-0.2,0-0.3,0-0.5-0.1l0,0c0.2,0,0.3,0,0.5,0.1l0.4,0.1l0.3,0.1l0.2,0c-0.2,0-0.5-0.1-0.9-0.2
				h-0.2h-0.1l0,0L85.3,0.9 M87.6,1.6c-0.2,0-0.3-0.1-0.5-0.1h0.1l0,0l-0.8-0.2c0.2,0.1,0.5,0.1,0.7,0.1H87l-0.4-0.1h-0.1l-0.2,0
				l0.2,0l0,0h-0.1l0,0L87.6,1.6c-0.3,0-0.6-0.1-0.9-0.1c-0.2,0-0.2,0-0.2,0c0.2,0.1,0.7,0.1,0.9,0.2l0,0L87.6,1.6l-0.1,0
				c0.1,0,0.2,0,0.4,0.1h0l0.4,0.1c0.1,0,0.2,0,0.4,0.1l0,0h-0.1c0.1,0,0.3,0.1,0.4,0.1c-0.1-0.1-0.3-0.1-0.5-0.1c0.1,0,0.1,0,0.2,0
				C88.7,1.8,88.7,1.8,87.6,1.6 M88.6,1.9h-0.1H88.6L88.6,1.9 M92.4,2.7l-0.2-0.1c-0.1,0-0.3-0.1-0.4-0.1h0l-0.7-0.2l0,0
				c-0.4-0.1-0.8-0.2-1.3-0.3c0,0-0.6-0.1-0.7-0.1L89.4,2c-0.1,0-0.2,0-0.2,0l-0.5-0.1c-0.4,0.1-0.8-0.2-1.2-0.2l0,0
				c0.2,0.1,0.4,0.1,0.6,0.1l0.2,0C89,2,89,2,89.2,2C89,2,88.8,2,88.6,1.9l-0.2,0l-0.2,0l-0.2,0l-0.4-0.1c0.2,0.1,0.4,0.1,0.6,0.2
				l0,0l-0.4,0c-0.2,0-0.3-0.1-0.5-0.1l0.4,0.1l0,0c0.8,0.3,1.7,0.4,2.6,0.6c-0.3-0.1-0.6-0.2-0.9-0.2c0.1,0,1.2,0.3,1.3,0.3
				c-0.2-0.1-0.4-0.1-0.6-0.2c0.2,0,0.5,0.1,0.7,0.2h0c-0.1,0-0.6-0.2-0.8-0.2l-0.3-0.1l0,0C90,2.3,90,2.3,90.5,2.4h0l-0.3-0.1h0.1
				c0.2,0,0.3,0.1,0.5,0.1l0.2,0h-0.1c0,0,0.1,0,0.2,0.1c0,0.1,0,0.1,0.3,0.1l0.4,0.1h-0.1l0,0h0.1c0,0,0,0-0.4-0.1l0,0
				c0.1,0,0.8,0.2,0.8,0.2l0,0c0,0-0.1,0-0.1,0c0.7,0.2,1.4,0.4,2.1,0.6h0l-1.7-0.6c-0.3-0.1-0.6-0.2-0.9-0.3
				c-0.4-0.2-0.8-0.3-1.2-0.3h0c1.3,0.3,1.3,0.3,2.4,0.6l0,0c-0.2-0.1-0.3-0.1-0.5-0.2c0.2,0,0.5,0.1,0.7,0.2l0,0l-0.4-0.1l0,0
				L92.4,2.7 M118.4,17.5L118.4,17.5L118.4,17.5L118.4,17.5l-0.1-0.2l-0.1-0.1l0,0l0,0C118.1,17.2,118.1,17.3,118.4,17.5 M104.8,7.5
				c-0.3-0.1-0.5-0.3-0.8-0.4l0,0h0l0,0l0.1,0L104.8,7.5L104.8,7.5 M109.5,10l-3.3-2l0,0C106.2,8,106,8,105.9,7.9h0l0.4,0.2h0
				l-0.5-0.3l-0.1-0.1l-0.5-0.3l0,0l0.2,0.1c-0.1-0.1-0.2-0.1-0.3-0.1L105,7.4l-0.4-0.2c-0.2-0.1-0.5-0.2-0.7-0.3l0,0l0.5,0.3
				c-0.1,0-0.2-0.1-0.3-0.1l-0.3-0.2l-0.2-0.1v0.1c0.4,0.2,0.4,0.2,0.7,0.4l0.2,0.1l0.1,0.1l0,0c-0.4-0.2-0.5-0.3-0.8-0.4l0,0
				l-0.4-0.2h0h0c0.3,0.2,0.9,0.5,0.9,0.5l0,0c-0.2-0.1-0.3-0.1-0.5-0.2c-0.1,0-0.1,0-0.1,0c0.3,0.2,0.6,0.4,0.9,0.5
				c0.2,0.1,0.3,0.1,0.4,0.2l0,0c-0.1,0-0.2-0.1-0.2-0.1h0c0.7,0.4,0.7,0.4,0.8,0.5l-1.2-0.5c0.1,0.1,0.2,0.1,0.3,0.2
				c0.4,0.2,0.7,0.4,1.1,0.6c-0.1,0-0.1,0-0.6-0.3c0.2,0.1,0.6,0.4,0.6,0.4c0.1,0.1,0.3,0.1,0.4,0.2l0.2,0.1l0.1,0.1
				c-0.3-0.1-0.7-0.3-1-0.5c0.2,0.1,0.4,0.2,0.5,0.3l0.1,0.1h-0.1c0.1,0.2,0.3,0.2,0.5,0.3l-0.1,0.1c0.1,0.1,0.2,0.1,0.3,0.2v0
				c0.1,0.1,0.2,0.1,0.3,0.2l0,0l0.2,0.1h0.1c-0.3-0.3-0.3-0.3-0.3-0.3L107,9.4v0L107,9.2V9.2c0.1,0,0.2,0.1,0.3,0.2
				c0.1,0.2,3,2.5,3.1,2.5l-0.1-0.1c0.2,0.3,0.4,0.5,0.6,0.7l0.1,0c0.1,0.1,0.1,0.1,1.1,1.2c-0.1,0-0.1,0-0.2,0c0,0-0.1,0-0.1,0
				l0.2,0.2l0.3,0.2v0.1l0,0l0,0c0.2,0.3,0.4,0.6,0.6,0.9l-0.1,0c0.2,0.6,0.8,0.8,1.2,1.3v0l0.1,0.1l0.3,0.3h0.1
				c0.7-0.1,0.4,1,1.2,1c0.3,0.3,0.3,0.3,0.3,0.4c0.3,0,0.5-0.1,0.7-0.1c-0.1-0.1-0.2-0.3-0.3-0.4l0.1,0v-0.1
				c-0.1-0.1-0.2-0.2-0.3-0.3c0.1,0,0.2,0,0.8,0.6c0.3-0.1,0.6-0.2,0.8-0.3c-0.2-0.3-0.5-0.6-0.8-0.9l-0.1-0.1
				c-0.3-0.3-0.8-0.5-1.1-0.8c-0.3-0.3-0.8-0.7-1.2-1c-1.3-1.3-2.7-2.5-4.2-3.5h0l0,0l0.5,0.3c-0.1-0.1-0.1-0.1-0.2-0.2
				c0.2,0.1,0.4,0.2,0.5,0.3l0.5,0.4l0,0c0.4,0.3,0.8,0.5,1.1,0.9h-0.1c0.4,0.4,0.4,0.4,2.7,2.3l0.2,0.1c0.3,0.2,0.7,0.5,1.4,1l0,0
				L117,16h0.1c-0.1-0.1-0.1-0.2-0.2-0.3l-0.1-0.1v-0.1l-0.1-0.1v0l0.3,0.3l0,0l0.1,0.1c0.3,0.3,0.6,0.6,1,0.9
				c-0.1-0.1-0.2-0.1-0.3-0.2c0,0.1,0.1,0.2,0.2,0.3h-0.1c0.1,0.2,0.3,0.4,0.5,0.5c0.1-0.1,0.1-0.2,0-0.4l-0.3-0.3
				c-4.4-3.9-4.5-4-7.1-5.7l-0.9-0.6l0,0c-0.3-0.2-0.3-0.2-1.1-0.7C109.2,9.8,109.6,10.1,109.5,10L109.5,10 M116.9,18.1L116.9,18.1
				c-0.2,0.1-0.4,0.1-0.7,0.2l0,0l0.1,0.1c0,0.1,0.1,0.1,0.2,0.1l0.1,0.1h0.1h0h0l0,0l0.1,0.1c0.1,0.1,0.2,0.1,0.3,0.2v-0.1h0.1h0
				c0,0,0.1,0.1,0.1,0.1s0-0.1,0-0.1l0-0.1c0-0.1-0.1-0.1,0-0.1s0.1,0,0-0.1C117,18.4,117,18.2,116.9,18.1 M118,17.7
				c-0.3,0.1-0.6,0.2-0.8,0.3c0.2,0.2,0.4,0.3,0.5,0.4l0.1,0.1c0.4,0.4,0.4,0.4,0.5,0.5c0.1,0.1,0.3,0.2,0.4,0.3l0.1,0.1l0.1,0.1
				c0.2,0.2,0.4,0.4,0.6,0.6c0.2,0.2,0.3,0.3,0.5,0.5l0.1,0.1l0.3,0.3l0.2-0.1c-0.5-0.6-0.5-0.6-0.5-0.6l0,0h0
				c0.1,0,0.1,0.1,0.1,0.1c0-0.1-0.2-0.1-0.1-0.3l0,0c-0.1-0.1-0.2-0.3-0.4-0.4l0.1,0l-0.3-0.3h0v0l0,0c-0.1,0-0.1-0.1-0.2-0.2
				c-0.2-0.3-0.5-0.6-0.8-0.9C118.2,18.1,118.1,17.9,118,17.7 M124,23.4c-1.7-2-4-4.5-5.8-6.4c0.1,0.1,0.2,0.3,0.1,0.4c0,0,0,0,0,0
				l-0.1,0.1h0.1l0,0c0.2,0.2,0.4,0.5,0.6,0.7c-0.1-0.1-0.1-0.1-0.3-0.4c0.2,0.1,0.2,0.1,1.4,1.3v0.1c-0.1-0.1-0.3-0.2-0.4-0.4
				c-0.1-0.1-0.1-0.1-0.1-0.1l-0.2-0.2c-0.1-0.1-0.1-0.1-0.1-0.1c0.7,0.8,1.4,1.7,2.2,2.5l0.1,0.2c-0.1,0-0.2-0.1-0.2-0.1
				c0.2,0.3,0.4,0.5,0.6,0.7v0.1c-0.2-0.2-0.4-0.4-0.6-0.6c0.1,0.3,0.3,0.6,0.4,0.8l-0.1,0.1l0.1,0.1l-0.1,0
				c-0.2-0.1-0.3-0.3-0.4-0.5c-0.1-0.1-0.1-0.1-0.1-0.1l0.1,0.1c0,0-0.1,0.1-0.1,0.1c0,0.2,0,0.2,0.3,0.5h-0.1
				c-0.2-0.1-0.2-0.1-0.5-0.4v0h-0.1l-0.2-0.3c-0.1-0.1-0.1-0.1-0.2-0.2c0-0.1,0-0.1,0.1-0.1c0.1,0,0,0,0.4,0.2c0-0.3-0.7-1-1-1.3
				c-0.1-0.1-0.1-0.1-0.1-0.1c0,0.1,0,0.1,0.2,0.4v0l0,0c-0.1-0.1-0.1-0.1-0.4-0.5l-0.2-0.3h-0.1c-0.3-0.4-0.6-0.8-1-1.1
				c0,0.3,0.4,0.4,0.4,0.8c0.1,0.1,0.1,0.1,0.2,0.2l0.1,0.2c0.4,0.5,0.8,1.1,1.3,1.6l0.1,0.2c0.1,0.1,0.2,0.2,0.2,0.3
				s0.3,0.3,0.5,0.5c0.2,0.2,0.2,0.2,0.3,0.3H121l-0.1,0.1h-0.1c-0.1,0-0.2,0-0.3,0c0,0.1,0,0.2,0.1,0.2l-0.1,0.1
				c0.1,0.2,0.2,0.3,0.3,0.5h-0.1h-0.1h0c0,0.1,0,0.2,0.1,0.3l0.2,0.1l0.4,0.5c-0.1,0.1-0.1,0.1,0,0.7c0,0.1,0,0.1,0,0.1h-0.1
				c0.2,0.3,0.3,0.6,0.5,0.9c-0.1,0-0.2,0.1-0.2,0.1c0,0.2,0.1,0.4,0.2,0.5l-0.2,0l-0.1-0.1c-0.1,0-0.2,0-0.3,0l-0.1-0.2
				c-0.1-0.1-0.1-0.1-0.2-0.1c0.1,0.2,0.2,0.3,0.3,0.5c0.2,0.1,0.3,0.4,0.4,0.6l0.1,0.2c0,0.1,0.1,0.1,0.1,0.2
				c-0.3,0.1-0.6,0-0.8-0.2c-0.1,0.1-0.1,0.1-0.2,0.1c-0.1,0.2-0.1,0.3,0.1,0.6h0.1c0.3,0.3,0.5,0.3,0.5,0.3h0.1
				c0.3,0.2,0.6,0.5,0.9,0.7c0.2,0.3,0.3,0.6,0.5,0.8c1.1,1.3,1.1,1.3,1.5,2.8c0,0.1-0.1,0.2-0.1,0.3c-0.1,0.1-0.2,0.1-0.2,0.1
				c-0.3-0.2-0.7-0.2-0.9-0.4c-0.3,0-0.6,0.1-0.8,0.1c-0.4,0-0.4,0-0.5-0.1h-0.1l-0.1,0.1c0,0.1,0.1,0.2,0.1,0.3
				c-0.1,0.1-0.3,0.1-0.4,0.1v0.2c0.5,0.5,0.5,1.3,1,1.8c0.2,0.4,0.3,0.7,0.4,1.1c0.1,0.5,0.2,1.1,0.4,1.6c0.1,0.1,0.1,0.1,0.2,0.2
				c0,0.1,0,0.1,0.1,0.2l0.1,0.2c0,0.2,0,0.3,0.2,0.8c0.1,0,0.2,0,0.3,0c0.1,0,0.2-0.1,0.2-0.1c0.1,0.1,0.2,0.2,0.3,0.2
				c0.1,0,0.2-0.1,0.2-0.2c0.2,0.1,0.3,0.2,0.5,0.3c0.1,0.2,0.3,0.4,0.4,0.6c0-0.1,0-0.1,0-0.2h-0.1l0.1-0.1
				c0.6-0.1,0.1-0.9,0.7-0.9c0.3-0.4,0.2-1,0.7-1.3l-0.2-0.6c-0.3-0.4-0.5-1-0.6-1.5c0-0.1,0-0.2-0.1-0.3c0-0.1,0.1-0.1,0.2-0.2
				c-0.1-0.3-0.1-0.3,0.2-0.7c0.1,0,0.2,0,0.2-0.1c-0.1-0.2-0.1-0.4-0.2-0.5l-0.1-0.2c-0.5-0.9-0.7-1.4-0.1-1.2h0
				c0.1,0.1,0.2,0.2,0.3,0.2h0.2l0.1-0.1c-0.1-0.2-0.2-0.4-0.2-0.6c0.1-0.1,0.1-0.1,0.1-0.1l0.1-0.1c0-0.2,0-0.3-0.1-0.5
				c0.8,0.2,0.8,1.1,1.3,1.5c0.1,0.1,0.2,0.2,0.3,0.4c1,0.9,1.8,2,2.4,3.3c0,0.1,0,0.1,0,0.5c-0.1,0-0.3,0-0.4,0.1
				c0,0.1,0.1,0.1,0.1,0.2c0.2,0.2,0.3,0.6,0.6,0.7c0.1,0,0.2,0,0.3,0l-0.2-0.7c-0.1-0.7-0.2-1.3-0.4-1.9c0-0.1-0.1-0.1-0.1-0.2
				l-0.1,0.1c-0.1-0.1-0.1-0.1-0.1-0.2l-0.1-0.3l0.1-0.1c0.1,0.1,0.2,0.2,0.3,0.3c-0.2-0.7-0.8-1.2-1.2-1.8
				c-0.3-0.1-1.2-1.4-1.3-1.5h-0.1c-0.1-0.2-0.2-0.4-0.3-0.5h-0.1c-0.1-0.1-0.2-0.2-0.3-0.4l-0.1-0.2l0-0.1l0-0.1
				c-0.1-0.2-0.2-0.4-0.3-0.5l0.1-0.1c0.7,0.7,1.3,1.4,1.9,2.2c0.4,0.5,0.8,1.1,1.1,1.7c0.8,1.6,0.8,1.6,0.9,1.7
				c0.1,0.3,0.2,0.5,0.3,0.7l0,0l-0.1-0.1c0,0.1,0,0.2,0.4,0.8c0-0.1,0-0.2-0.1-0.2v-0.1c0.2,0.4,0.3,0.8,0.5,1.2
				c0.1,0.1,0.1,0.1,0.1,0c0-0.2-0.1-0.4-0.1-0.5l-0.1-0.2c-0.1-0.1-0.1-0.3-0.1-0.4l0.1,0.1l0,0c-0.1-0.2-0.2-0.5-0.3-0.7
				c0-0.2-0.1-0.3-0.2-0.5c0,0.1,0.1,0.3,0.2,0.4c-0.2-0.3-0.8-1.4-0.8-1.4c0,0-0.1-0.1-0.1-0.2l-0.1-0.1h0c0,0.1,0.1,0.1,0.1,0.2
				l0,0l0,0c-0.1-0.2-0.2-0.5-0.3-0.7c0.2,0.2,0.2,0.4,0.4,0.6c0,0.1,0.1,0.2,0.1,0.3c0.2,0.5,0.4,0.9,0.6,1.4l0.1,0.2
				c0,0.1,0.1,0.2,0.1,0.3c0.1,0.2,0.1,0.3,0.2,0.4l0,0.1v0V38l0,0.1v0.1c0.1,0.1,0.1,0.2,0.1,0.4l0,0.1l0,0.1
				c0.1,0.2,0.1,0.3,0.2,0.5v0.1v0.1l-0.1-0.3c0-0.1-0.1-0.2-0.1-0.2c0-0.1-0.1-0.2-0.1-0.4c-0.1-0.1-0.1-0.2-0.1-0.3l0,0
				c-0.9-2.2-2.2-5.1-3.3-7.2c-2.9-4.8-3.3-5.5-5-7.5 M113.2,19.1L113.2,19.1L113.2,19.1c-0.1,0.1,0,0.2,0,0.3l0,0l0,0
				c0,0.1,0.1,0.1,0.1,0.1c0,0,0,0.2,0.1,0.2c0,0.1,0.1,0.1,0.1,0.2l0.1,0.1v-0.1l0-0.1c-0.1-0.2-0.1-0.2-0.1-0.2h0.1
				c0.1,0,0,0,0-0.1c0,0-0.1-0.1-0.1-0.1v-0.1C113.4,19.3,113.3,19.2,113.2,19.1 M120.5,24.8c-0.1-0.1-0.1-0.2-0.2-0.3
				c-0.2-0.2-0.4-0.4-0.6-0.6l0,0c0.1,0.1,0.2,0.3,0.2,0.4c-0.1,0-0.1,0-0.7-0.8l-0.2,0c-0.3-0.4-0.6-0.8-0.8-0.8
				c-0.1,0-0.1-0.1-0.1-0.1c-0.2-0.1-0.3-0.2-0.5-0.4c-0.2-0.1-0.3-0.4-0.6-0.5c-0.2-0.2-0.5-0.1-0.7-0.3l-0.2-0.4l0.1,0
				c0-0.1-0.1-0.1-0.1-0.2c-0.1-0.1-0.1-0.3-0.3-0.5c-0.1-0.2-0.3-0.4-0.5-0.6l-0.6,0.1c-0.5-0.9-0.6-1-0.7-1H114l-0.1,0
				c-0.1,0-0.1,0-0.3,0c0.1,0.1,0.1,0.1,0.4,0.6c0.1,0.2,0.3,0.3,0.4,0.5c-0.2,0.1-0.3-0.1-0.4-0.1c0.1,0.3,0.4,0.6,0.7,0.6l0.1,0.2
				l0.1,0.1c0.1,0.1,0.2,0.3,0.3,0.4c-0.1,0.1-0.1,0.1,0.1,0.5c0.1,0,0.1,0,0.2-0.1v-0.1l0.4,0.3h0.1c-0.1-0.1-0.1-0.2-0.2-0.3
				c0.2,0.2,0.5,0.4,0.6,0.7h0v0.1c0.1,0.1,0.2,0.2,0.3,0.3l0.3-0.1l0-0.1c0.5,0.2,0.5,0.7,1,0.9c0.2,0.3,0.5,0.4,0.5,0.8
				c-0.2,0-0.3-0.1-0.5-0.1h-0.1h-0.1l0.1,0.2c0,0.1,0.1,0.1,0.1,0.2h-0.1c0.2,0.2,0.2,0.2,0.3,0.2c0.2-0.2,0.3,0,0.4,0.2h-0.1
				c0,0.1,0,0.2,0.1,0.3l-0.1,0h0c0.1,0.1,0.3,0.5,0.4,0.4c0-0.1,0-0.1,0.1-0.2l0.6,0.1c0,0,0.4,0.4-0.1,0.4c-0.1,0.1,0,0.2,0,0.3h0
				l-0.1,0.1c0.3,0.5,0.3,0.5,0.2,0.8l0.1,0.1c0.1,0,0.1-0.1,0.2-0.1c0,0,0,0,0-0.2c0,0,0,0,0.2,0.1h0.2c-0.2-0.3-0.2-0.4-0.2-0.4
				c0.1,0,0.1,0,0.2,0c0.1,0,0.2,0,0.3,0c0-0.1,0-0.2-0.1-0.2v0c0.2,0,0.3,0.2,0.4,0.2h0.1c0.1,0,0.2,0,0.2-0.1
				c0.1,0-0.1-0.2-0.1-0.3h0.1v-0.1c-0.1-0.2-0.3-0.4-0.4-0.5l-0.1-0.1c-0.1-0.1-0.1-0.1-0.1-0.2l0.1,0l-0.2-0.3L120.5,24.8
				 M115.5,23.2L115.5,23.2 M116.6,23.2l-0.6-0.7c-0.1-0.1-0.2-0.1-0.2-0.1c-0.1,0-0.1-0.1-0.2-0.1h-0.1c-0.1,0,0,0.1-0.1,0.1
				c-0.1,0,0.1,0.2,0,0.3c-0.1-0.1-0.3-0.2-0.4-0.3l-0.2,0.1c0.2,0.2,0.3,0.5,0.5,0.7h0v0.1l-0.1,0l-0.1,0.1c-0.1,0-0.1-0.1-0.2-0.1
				l-0.1,0l0.7,1.1c0.1,0,0.2,0,0.3,0l0.3,0.5l-0.2,0.1c0,0.1,0.1,0.2,0.1,0.3c0.1,0.1,0.1,0.2,0.2,0.3l0,0.1
				c0.1,0.4,0.5,0.6,0.6,0.5c0.1-0.1,0.1-0.2,0.3,0c0.1,0,0.1,0,0-0.6l0.7-0.1c-0.1-0.1-0.1-0.1-0.1-0.2c0-0.1-0.1-0.1-0.1-0.2
				c-0.2-0.1-0.1-0.2-0.1-0.2l0,0c-0.2-0.4-0.4-0.7-0.7-1.1l-0.2-0.3h0.1C116.7,23.4,116.7,23.3,116.6,23.2 M135.1,48.1l-0.9-4.3
				c-0.2-0.4-0.4-0.9-0.7-1.3c-0.1,0.9,0.4,1.7,0.5,2.5c0,0,0,0-0.2-0.1c-0.1-0.2-0.2-0.4-0.3-0.6c-0.1,0.1-0.2,0.1-0.3,0.1l-3-5.5
				c-0.2,0.4-0.6,0.6-0.9,1c-0.4-0.5-0.4-0.5-0.7-0.6c-0.1,0.3-0.2,0.6-0.3,0.9c-0.2,0-0.5,0.1-0.7,0.2c0.1,0.7,0.1,0.7,0,1h-0.3
				l-0.2,0.2h-0.1l-0.3-0.1h-0.1c-0.3,0.1-0.7,0-0.9-0.3l-0.2-0.1c0,0.6,0.1,1.1,0.3,1.6c-0.2,0.1-0.4,0.1-0.6,0.1
				c0.1,0.5,0.3,1,0.4,1.5c-0.3,0-0.5,0.1-0.7,0.4c0.1,0.8,0.2,1.6,0.3,2.4c0.1,0.2,0.1,0.4,0.1,0.6l-0.6,0.1c0,0.6-0.1,1.1-0.3,1.7
				c-1.5,1-0.2,2.9-1.4,4l-0.1,0.1l-0.3,0.1c0,0.2,0,0.2-0.5,2.9l0,0.7c0.3,0,0.7,0,1,0.1c0,0.1,0.1,0.2,0.1,0.3
				c-0.2,0.7-0.2,0.7-0.2,3.2c0,0.1,0,0.3,0,0.6c-0.1,0.4-0.1,0.4-0.5,0.8c0,0.4,0.1,0.9,0.2,1.3c0,0.1,0,0.3,0,0.4
				c0,0.9,0.1,1.1,0.8,1.9h0.3c0.1,0.3,0.2,0.6,0.3,1l0.3,0c-0.2,1.6-0.2,1.6,1.1,2.3c0,0.3-0.1,0.6-0.1,1c0.5,0.4,0.7,1.1,1.4,1.3
				c0.2-0.3,0.3-0.6,0.5-0.9c0.2,0,0.4-0.1,0.6-0.1h0.1c0.2,0,0.4,0,0.6,0l0.1,0.3c0.9-0.1,0.9-1.5,2-1.3c0,0,0.1,0,0.2-0.1
				c0.1-0.2,0.3-0.4,0.4-0.5l0.3,0.1c-0.1,1.3-0.1,1.3,0.1,1.6c0.3-0.1,0.7-0.2,1-0.2c-0.1,0.4-0.2,0.8-0.3,1.4
				c-2.3,9.1-2.3,9.1-2.8,10c-0.1,0.1-0.1,0.2-0.2,0.3c-0.9,2.1-1.5,3.4-6.3,10.6c-0.4,0.5-0.8,1-1.2,1.5c-1.3,1.7-2.7,3.3-4.3,4.8
				l-0.2,0.2c-0.5,0.4-0.5,0.4-0.7,0.7l0,0c-0.6,0.5-0.6,0.5-0.7,0.7l0.1-0.1c1.7-1.6,4-3.8,5.6-5.5c2-2.3,2-2.3,5.4-7.2
				c1.6-2.5,1.6-2.5,4.3-8c1.2-2.8,1.2-2.8,2.9-8.6c1.1-4.5,1.6-9,1.7-13.6C136,54.2,136,54.2,135.1,48.1 M107.9,83.1
				c0.1-1.8-0.1-2-0.4-2.1c-0.3,0-0.6,0-0.9,0c-0.9-0.2-1.1-1.8-2.2-1.3l-1.1,0c-0.7-0.4-1.3-0.6-1.4,0.1c-0.2,0.1-0.4,0.3-0.9-0.1
				c0.1-0.2,0.1-0.2,0.5-0.5c-1.3-0.8-1.3-0.8-1.9-0.9c-0.1,0-0.3,0-0.4-0.1c-0.3-0.2-0.7-0.2-1-0.1c0,0.3-0.1,0.6-0.1,0.8h-0.8
				c0-0.2,0.1-0.4,0.1-0.6c0.1-0.1,0.2-0.2,0.3-0.3l0.2-0.2l-0.1-0.2c0,0-0.4-0.1-1-0.3h-0.2h-0.2l-0.2,0.1
				c-0.1,0.5-0.1,0.8-0.8,0.7c0-0.2,0.1-0.4,0.1-0.5c1.2-1.3,1.2-1.3,0.9-1.9h-0.5c0-0.3,0.1-0.6,0.1-1c-0.1-0.4-0.3-0.8-0.4-1.1
				c0,0-2-0.9-2.5-1.2c-0.5-0.3-1,0.1-1.4,0.1h-0.4c-1.8-0.3-1.9-0.7-2.3-1.7c-0.1,0-0.1,0-1.1-0.5c0-0.1,0-0.1,0-0.2
				c-0.7-0.1-0.6-0.5-0.6-0.9c-0.1,0-0.3,0-0.4,0.1c-0.8,0.2-0.8,0.2-1,0.2c0-0.2-0.1-0.5-0.1-0.7c0.2,0,0.3-0.1,0.4-0.2
				c-0.2-0.3-0.2-0.3-0.9-0.4l-0.4,0.3c-0.1,0-0.1,0-0.2,0c-0.2-0.1-0.5-0.2-0.8-0.1c-0.4,0.9-0.4,0.9-0.7,0.9
				c-0.4-0.3-0.7-0.7-1.3-0.8c-0.4,0-0.8,0-1.2-0.1l-0.5-0.1c0-0.2,0-0.4-0.2-0.6c-0.6,0-1-0.7-1.7-0.4c0,0.3-0.1,0.5-0.3,0.7
				c-0.3,0-0.7,0.1-0.9,0.4c-0.2,0.6,0.3,1.1,0,1.7c-1-0.5-0.1-1.5-0.6-2.2c0.1-0.4,0.9-1,0.9-1l-0.1-0.2H77
				c-0.6,0.1-0.7,0.2-0.6,0.8c-0.4,0-0.7,0-1.3,0.1c-0.5,0.5-1.2,0.7-1.9,0.7c0,0.4,0,0.8-0.1,1.2c-0.2,0.2-0.5,0.3-0.7,0.2
				c-0.2,0.3-0.3,0.6-0.3,0.9c-0.7,0.5-0.9,0.9-0.9,1.1c0.1,0.1,0.3,0.1,0.4,0.2c0,0.8,0.9,1.7-0.1,2.3c-0.1,1.1-0.1,1.1-0.4,1.4
				l-0.5,0c0,0.2,0.1,0.4,0.1,0.6c-0.2,0.1-0.4,0.2-0.6,0.3c0,0.1,0,0.3,0,0.4c-0.5,0.1-0.8,0.2-0.8,1.1c-0.3,0-0.5,0-0.8,0.1
				c0,0.5,0,1,0.1,1.5l0.2,0.1c0.2-0.1,0.5-0.1,0.8-0.1c0,0.2,0,0.4-0.1,0.5c-0.3,0.1-0.5,0.2-0.8,0.3c0,0.4,0,0.4-0.5,0.7
				c-0.1,0.4-0.1,0.4,0.3,0.9c0,0.1,0,0.1,0,0.2c0.1,1.7,2.4,1.8,2.6,3.4c0,0.1,0,0.3,0,0.4c3,4.2,3,4.2,3.3,4.3c0,0,1.4,0.3,2.9,2
				c0.2,0,0.4,0,0.5,0c0,0.5,0,1,0,1.5c0,0.2-0.1,0.3,0,0.5l0,0.1c0,0.1,0,0.2,0,0.2l0.1,0.3c0,0.1,0,0.2-0.1,0.3
				c-0.1,0.2-0.1,0.3-0.1,0.5l0,0c0,0.1,0,0.2,0.1,0.3c0,0.1,0,0.2,0,0.2v0.1c0,0.1,0,0.1-0.1,0.3c0,0.2,0,0.3,0.1,0.5v0.1
				c0,0.1,0,0.1-0.1,0.2c-0.1,0.5-0.5,0.9-0.5,1.4c-0.2,0.6-0.4,1.3-0.6,1.9c0,0,0,0.1,0,0.1c0.3,1.8,0.4,2.2-0.4,2.9
				c0,0.1,0,0.2,0,0.3c0,0.1,0,0.2,0,0.2v0.1c-0.2,0.4-0.5,0.6-0.7,1c0.4,0.7,0.3,0.9,0,1.6l0.1,0.2c0.1,0.1,0.1,0.2,0.1,0.4
				l-0.2,0.1c-0.2,0.5-0.2,0.5-0.1,0.7l0.2,0.1h0.3l0.1-0.8h0.4c0,0.1,0,0.2-0.1,0.4L76,108c0,0.2,0,0.3,0,0.5c0,0,0,0-0.2,0.9
				c-0.1-0.1-0.2-0.2-0.3-0.3c0,0,0-0.1,0-0.3c0,0,0,0-0.2,0c0,0.1,0,0.2,0.2,0.4c0.1,0.1,0.1,0.3,0.2,0.4c-0.2-0.1-0.3-0.2-0.5-0.3
				c0,0.1,0,0.2-0.2,0.3c0,0.1,0,0.2,0,0.2c0.2,0,0.3,0.1,0.5,0.2c0,0.1,0,0.2,0,0.2l0.2,0c0,0.1,0.1,0.2,0.1,0.2
				c-0.5,0-0.5,0-0.7,0.2c0,0.1,0,0.1,0.1,0.2l0.2,0.2c0,0,0,0,0,0.3c0.1,0.1,0.1,0.3,0.3,0.4l-0.2,0.1l0.1,0.1c0.1,0,0.1,0,0.1,0.2
				l0.2,0.1v0.1l0,0.1c0.2,0.3,0.5,0.4,0.7,0.6h0.3c0,0,0,0,0.1,0.1c0.1,0.1,0.3,0.1,0.5,0.1c0.1,0,0.1,0,0.2,0h0.6
				c0.1-0.1,0.2-0.1,0.3-0.2c-0.2,0-0.3-0.1-0.5-0.1c0,0,0-0.1-0.2-0.1c0-0.1-0.1-0.3-0.1-0.5v-0.1c0-0.2,0-0.3-0.1-0.5
				c0,0,0,0,0-0.1c0-0.1,0-0.2,0.1-0.4c0.1,0,0.3,0,0.4,0c0-0.1,0-0.2,0-0.2c0.4-0.3,0.8-0.6,1.2-0.8c0-0.1,0-0.1-0.2-0.2l-0.2,0
				c-0.4-0.4-0.4-0.4-0.4-0.5c0-0.1,0-0.1,0.1-0.2c0.1-0.1,0.3-0.2,0.5-0.2h0.6c0-0.2,0.1-0.4,0.2-0.6c0.2-0.2,0.3-0.4,0.4-0.6
				c0.5,0,0.5,0,0.6-0.2c0,0,0-0.1-0.1-0.2h0h-0.1c-0.1,0.1-0.3,0.1-0.5,0.1c0-0.1,0-0.3,0-0.5l0.1-0.3c0.1,0,0.3,0,0.4,0.1l0.2,0.1
				c0.3,0,0.5,0,0.7-0.2c0,0,0-0.1,0.1-0.2l0.2-0.1c0-0.2,0-0.3,0-0.5c0-0.1,0-0.2,0.1-0.2c0.2,0,0.5,0,0.7,0H83
				c0.2,0,0.3-0.1,0.5-0.1c0.3,0,0.5,0,0.8,0.1c0,0,1-0.7,1.4-1l0.2-0.2l0.1-0.3c-0.1,0-0.2,0-0.2,0c0-0.1,0-0.1,0.1-0.4
				c-0.2-0.2-0.3-0.3-0.6-0.5c0-0.1,0-0.2,0-0.2h0.5c2,0.3,2,0.3,2.8-0.4c2.2-2,2.2-2,2.2-2c-0.1,0.1-0.2,0.3-0.3,0.4
				c0.2,0,2.8-1.9,2.8-2.8c0-0.5-0.1-1,2.3-2.3l0.7,0c0.3-0.2,0.6-0.3,0.8-0.5c0.6,0,1.2-0.1,1.8-0.2c0.1-0.2,0.2-0.3,0.3-0.4
				c0.3-0.1,0.3-0.1,2.2-2.3c0.1,0,0.1,0,0.9-1.4c0-0.1,0.1-0.2,0.2-0.3c0.3-0.3,0.5-0.7,0.6-1.1c0-0.1,0.1-0.3,0.1-0.4
				c0-0.1,0-0.2,0-0.2c0.1-0.2,0.1-0.3,0.1-0.5c0.1-0.4,0.3-0.7,0.5-1c0,0,1.6-1.4,2.1-1.8l1.5-1.7
				C107.7,83.8,107.8,83.4,107.9,83.1 M83,61L83,61c-0.1-0.1-0.3,0-0.4-0.2c-0.1-0.2,0-0.4,0-0.6c-0.4,0.1-0.8,0.2-1.2,0.2h-0.4
				c-0.2,0-0.4-0.2-0.6-0.2h-0.2c-0.2,0.1-0.2,0.2-0.4,0.3c0,0-0.6,0-0.7,0c-0.3,0-0.4-0.3-0.6-0.3c-0.2,0-0.5-0.4-0.8-0.4l-1.4-0.1
				c-0.3,0-0.5,0-0.8,0.1c0,0.4,0,0.8,0,1.2c0.2,0.3,0.5,0.5,0.8,0.7h0.4c0.5,0,0.8-0.5,1.3-0.5c0.2,0,0.4,0.1,0.7,0.1
				c0.2,0,0.4-0.1,0.7-0.1c0.5,0,1,0,1.5-0.2c0.1-0.1,0.3-0.1,0.4,0c0.3,0.1,0.7,0.1,1,0.1h0.4C82.8,61.3,82.9,61.1,83,61
				 M72.4,61.6L72.4,61.6c0-0.2,0.1-0.3-0.1-0.4c-0.1-0.1-0.2,0-0.3-0.1s-0.2-0.2-0.3-0.2h-0.1h-1.1c0.1,0.1,0.1,0.2,0.2,0.4
				l0.1,0.1c0.1,0.1,0.1,0.1,0.3,0c0.2-0.1,0.5,0.2,0.5,0.2s0.1,0.1,0.1,0.2c0,0.1,0,0.1,0,0.2c0.1,0,0.3,0.1,0.4,0
				C72.2,61.9,72.1,61.9,72.4,61.6 M71.2,59.3h3c-0.4-0.6-0.9-1-1.6-1.2h-0.4c-0.4,0.1-0.8,0.1-1.3,0c-0.3-0.1-0.4-0.4-0.6-0.6
				c-0.4-0.2-0.8-0.4-1.2-0.6c-0.5-0.2-0.5-0.2-0.5-0.4s-0.1-0.2-0.4-0.2h-0.9c-0.1,0-0.1,0-0.4,0.2c-0.2,0.1-0.3-0.1-0.5-0.1h-0.9
				c-0.7,0-0.7,0-0.8,0c-0.8,0.6,0.5,1.8,1.5,1.3c0.2-0.1,0.4-0.4,0.7-0.4c0.2,0,0.5,0,0.7,0c0,0,0.8,0.3,0.9,0.6
				c0,0.2,0.1,0.2,0.2,0.2c0.3,0.1,0.6,0.2,1,0.3c0.3,0,0.3,0,0.5,0.2C70.4,59,70.8,59.2,71.2,59.3 M105.2,13.6
				c-0.2-0.2-0.3-0.3-0.5-0.5c-0.1-0.1-0.2-0.2-0.3-0.2c-0.3-0.1-0.3-0.1-0.3-0.1H104c-0.2-0.1-0.3-0.3-0.4-0.5
				c-0.1-0.1-0.2-0.2-0.4-0.3l-0.3,0c-0.1,0-0.1,0.1-0.1,0.2c0,0,0.1,0.2,0,0.2l0,0.1c-0.2,0-0.4-0.1-0.6-0.1s-0.3,0.1-0.3,0.2
				s0,0.1-0.1,0.1h-0.3l-0.2-0.2l-0.2-0.2c-0.1-0.1-0.2-0.2-0.3-0.2l-0.1,0.1c0.1,0.1,0.2,0.2,0.2,0.2c-0.3-0.1-0.3-0.1-0.3-0.1
				s-0.4,0.1-0.4,0.2c0,0.2,0.4,0.6,0.6,0.6v-0.1c0.4-0.1,0.7,0.3,1,0.5c-0.3-0.1-0.6-0.1-0.8,0.1l0.4,0.4l0.1-0.1h0.3l0.1,0.1
				l0.4,0.5l0.3,0.2h0.2c0.1-0.1,0.3-0.1,0.4-0.1h0.2c0.3-0.1,0.4,0.2,0.6,0.3c0.2,0.1,0.4,0.1,0.6,0l0-0.3
				c-0.1-0.2-0.1-0.2-0.2-0.3c0-0.1,0-0.1,0-0.1h0.1c0-0.1-0.2-0.3,0-0.4C104.7,13.7,104.7,13.7,105.2,13.6 M91.3,30.8L91.3,30.8
				c0-0.2-0.1-0.3-0.1-0.4c-0.4,0-0.4,0-0.5-0.1c-0.3-0.1-0.5-0.3-0.7-0.4c-0.1-0.1-0.1-0.1-0.2-0.2c-0.2-0.1-0.4,0-0.7-0.1
				c-0.1,0-0.2-0.1-0.4-0.1c0.1-0.5,0.1-0.5,0.1-0.6s0.2-0.1,0.2-0.1c0.1-0.2,0.1-0.4,0-0.5c0,0-0.1-0.1-0.1-0.2c-0.1,0-0.2,0-0.3,0
				c-0.1,0-0.3,0.1-0.4,0.2c-0.1,0.1,0,0.2,0.1,0.3c0,0.1,0,0.3,0,0.4c0,0,0,0.1,0,0.1c-0.3,0.5-0.6,0.9-1,1.4
				c-0.1,0.1-0.3,0.3-0.3,0.5C87,31.1,87,31.2,87,31.4c0,0.1,0.1,0.3,0.1,0.4l2.5-0.1c0.2,0,0.3,0,0.6,0.3c0.3,0.3,0.6,0.5,1,0.6
				c0-0.1,0.1-0.1,0.2-0.1c0.1-0.1,0.2-0.1,0-0.8C91.2,31.4,91.2,31.1,91.3,30.8 M84.5,30L84.5,30c-0.1,0-0.2-0.1-0.3-0.1
				c-0.1,0-0.1,0-0.2,0c-0.1,0-0.2,0-0.3,0c-0.2-0.1-0.3-0.2-0.4-0.3c-0.1-0.1-0.2-0.2-0.3-0.2c-0.1,0-0.2,0-0.2,0l-0.3,0.2
				c0.1,0,0.2,0.1,0.3,0.2c0.1,0.1,0.1,0.2,0.2,0.3l0.1,0.1c0.1,0.1,0.2,0.1,0.3,0.2c0.1,0.1,0.2,0.2,0.2,0.2c0.1,0,0.1,0.1,0.2,0.1
				C84,30.5,84.1,30.6,84.5,30 M82.4,1.3c-0.2,0-0.4,0-0.6-0.1h-0.2c0.2,0,0.4,0.1,0.6,0.2c-0.1,0-0.2,0-0.3,0
				c0.1,0,0.2,0.1,0.4,0.1l0,0h0c0.2,0.1,0.5,0.2,0.7,0.3c-0.3-0.1-0.6-0.2-1-0.3l-0.4-0.1c-0.3-0.1-0.5-0.2-0.8-0.2h-0.1h-0.1
				c0.2,0,0.5,0.1,0.7,0.2h-0.1l0.1,0.1c-0.1,0-0.3-0.1-0.4-0.1v0c-0.1,0-0.2,0-0.3,0c-0.1,0-0.1,0-0.2,0l0.1,0.1l0,0l0,0l0,0v0
				c-0.2,0-0.4-0.1-0.6-0.2c0.1,0,0.2,0,0.3,0l-0.1,0c0.1,0,0.2,0,0.2,0L80.1,1l-0.1,0l-0.3-0.1l0,0L79,0.9c0,0,0,0,0.1,0H79h-0.2
				h-0.1l0,0h0.1h-0.1h-0.1h0.1l-0.2-0.1h0.3l-0.5-0.1h0h-0.2h-0.3l0.2,0.1h-0.1l0,0c0.2,0,0.3,0.1,0.5,0.1h-0.1H78
				c-0.1,0-0.2,0-0.3-0.1l0.1,0.1h-0.2l0,0l0.1,0l0,0l0,0h0.1h0.1h0.1l0.3,0.1h0h-0.1h-0.1H78h0l0,0h0h-0.1l0,0h0l0.1,0H78l0.2,0.1
				h0.2h0l0.1,0l0.2,0.1h0.1h0.1h0L79,1.3h-0.1h0l0,0l-0.1,0h-0.1h-0.1l-0.2-0.1l0,0h-0.1l0,0h-0.1h-0.1l-0.1,0H78
				c-0.1,0-0.1,0-0.2,0L78,1.4h0l0.1,0.1h0h0.1l0.1,0.1h0l0.1,0.1h0.1h-0.1h-0.1h0h0l0,0h-0.1h-0.1l-0.1-0.1l0,0h0l-0.1,0l0,0H78h0
				h-0.1h0h-0.1h-0.1l0.1,0.1l0.2,0.1l0,0l0,0l0,0l0.1,0.1l0,0l-0.1,0l-0.1-0.1l-0.1-0.1l0,0l0,0h0h0l-0.1,0h0l0,0l-0.1-0.1h0h0h0
				h-0.1l0,0v0l0,0l0,0l0,0l0,0l0,0h-0.1l0,0h-0.2l0,0l0,0l0,0h0.1l0,0h0l0,0l0,0h0h0.1h0.1l0.1,0l0,0l0.1,0l0,0h-0.1h-0.1h0h0l0,0
				h-0.1l0,0l-0.1,0l-0.1,0l0,0h0l0,0l0,0h0l0,0l0,0l0,0l0,0v0l0,0L77,1.6h0l0,0l0,0l0.2,0.2c-0.1,0-0.1,0-0.2,0l0,0l0,0h-0.2v0.1
				L76.8,2v0.1l0,0h-0.1l0,0l0,0l0,0l0,0v0l0,0h0v0.2h0.1l0,0l0,0h0.1h0.1H77l0,0.1l0,0l0,0v0l0.1,0.1v0.1l0,0H77l0,0l-0.1,0h-0.1
				h-0.1h-0.1c-0.1,0-0.1,0-0.2,0v0c0,0,0,0,0,0.1l0,0c-0.1,0-0.1,0-0.2,0c-0.1,0-0.2,0-0.3,0l0,0l0,0l0,0v0.1v0l0,0h-0.1
				c-0.1,0.1-0.1,0.1,0.1,0.3c0.2,0,0.2,0,0.3,0.1h0.3l0.1,0.1h0c0.1,0,0.1,0.1,0.2,0.1h0.1l0.1,0h0h0.2h0.1h0.1c0,0.1,0,0.1,0,0.2
				l0,0l-0.3,0.3h-0.1h0h0h0h-0.1h-0.1l-0.1,0h0l-0.2,0h0v0.1h-0.2l-0.1,0.1l0.1,0.1h0c0.2,0.1,0.3,0.1,0.5,0.2h-0.1l0,0v0l0,0
				l0.1,0l0,0v0l0,0l0,0h0h0L77,4.8h0l0.1,0h0.2h0.1l0,0v0c0,0-0.1-0.1-0.1-0.2h0.1c0.1,0,0.1,0,0.2,0h0h0h0l0,0V4.6h0.1h0
				c0.1,0,0.1,0,0.2,0v0l0,0l0,0h0.1l0,0v0c0.1-0.1,0.1,0,0.2,0h0h0.1h0.1l0,0l0.2,0.1l0,0h0.1h0.3h0c0.1,0,0.1,0,0.2,0.1l0.1,0h0.1
				l0.2,0.1l0.1,0h0.1L80.1,5l0.2,0.3l0.1,0.1l0,0l0.1,0h0.1h0.1h0.1h0.1l0.1,0.1v0c0.1,0,0.1,0.1,0.2,0.1l0.1,0l0.1,0.1l0.1,0
				c0,0,0,0,0.2,0.2c0.1,0.1,0.1,0.1,0.2,0.2h0.1l0.2,0.1c0,0,0,0.1,0,0.1c0,0.1,0,0.1,0.2,0.3c0.1,0.1,0.1,0.2,0.1,0.3
				c0,0.1,0,0.1,0,0.2h0.2c0,0.1,0.1,0.1,0,0.2l-0.1,0.1c0.1,0.1,0.2,0.2,0.2,0.4h-0.2c0,0.1,0.1,0.1,0.1,0.2
				c0.1,0.1,0.2,0.2,0.3,0.2c0.1,0,0.1,0,0.2,0h0.1c0.1,0,0.3,0,0.4-0.1l0-0.1c0.4-0.3,0.6,0.4,1.1,0.4h0.1c0.2,0.1,0.4,0.2,0.6,0.4
				v0.1H85h-0.1h-0.2c-0.4,0-0.8-0.3-1.3-0.1c0.1,0.1,0.3,0.3,0.5,0.4l-0.1,0.1h-0.1c0,0-0.3,0.2,0,0.4c0.3,0.2,0.6,0.2,0.9,0.3
				l0.1,0c0-0.1,0.1-0.1,0.1-0.2c0.1,0,0.2,0,0.3,0c-0.1-0.1-0.2-0.3-0.3-0.4c-0.1,0-0.2,0-0.3,0l-0.1-0.1h-0.2V9.1h0.3
				c0.2,0.1,0.4,0.1,0.5,0.2h0.3c0.1,0,0.2,0.1,0.3,0.2l0,0.1l-0.1,0.1l0.1,0.1l0,0.1c0,0,0,0.1,0.1,0.1c0.1,0.1,0.3,0.2,0.4,0.3
				l0.2,0.3h-0.3h-0.1c0,0.1-0.1,0.1-0.1,0.2h-0.3l-0.1,0l-0.1,0c0.1,0.2,0.1,0.3,0.2,0.5l-0.2,0c0,0.1,0,0.1-0.2,0.2l0,0.1l0.1,0.1
				c0,0,0,0.1,0.1,0.1c0.3,0.3,0.8,0.2,0.9,0.6c-0.1,0-0.2,0.1-0.2,0.1c0,0,0.4,0.9,1,0.7l0-0.1h0.1c0.1,0,0.1,0,0.2,0
				c0.1,0.1,0.1,0.1,0.1,0.3c0,0-0.1,0-0.1,0l-0.1,0.1c0.5,0.9,0.5,0.9,0.6,0.9c0.1-0.1,0.1-0.3,0.2-0.4H88c0.2,0.3,0.4,0.6,0.5,1
				c-0.1,0.1-0.2,0.2-0.2,0.2c-0.4,0.5,3.2,3.2,3.6,3.2c0.1,0,0.1,0,0.2,0c0.1,0,0.1-0.1,0.2-0.1h0.1c0.8,0.2,2,1.6,2.3,0.5
				l-0.1-0.1l-0.1-0.2c-0.2-0.4,0.1-0.8-0.2-1.2c-0.3-0.4-0.6-0.5-0.7-0.9l0-0.1c0.1,0,0.1-0.1,0.2-0.1c0.1,0,0.1,0,0.2,0
				c0.1,0,0.1,0,0.2-0.1c-0.2-0.3-0.2-0.3-0.1-0.5h0.1l0.1-0.1c-0.1-0.2-0.2-0.4-0.4-0.6c0.1-0.4-0.5-0.5-0.6-0.8
				c0.3-0.1,0.3-0.1,0.4-0.2c-0.1-0.1-0.2-0.3-0.2-0.4l0.6,0c-0.1-0.1-0.2-0.3-0.3-0.4h0.3c0.1,0.2,0.2,0.3,0.4,0.5
				c0.1,0,0.2,0,0.3,0c0.1-0.2,0-0.4,0.1-0.5h0.1c0.1,0,0.2,0,0.3-0.1l-0.1-0.1c-0.1-0.1,0-0.3,0-0.4c0-0.1-0.1-0.1-0.1-0.2l0.1-0.1
				l-0.1-0.3l0.1-0.1l-0.1-0.1v-0.1l0.1-0.1c-0.1-0.1-0.2-0.3-0.3-0.4l0,0h0.1h0h0l0,0l0.1,0h0l0.1,0.1c0.8,0.2,0.8,0.2,1,0.1
				c0.1-0.2,0-0.3,0-0.5c0.1,0,0.1-0.1,0.2-0.1c0-0.1,0.1-0.1,0.2-0.1l0-0.1l0.1-0.1c0-0.2-0.3-0.4-0.2-0.6c0.1,0,0.3,0,0.4-0.1
				c0-0.2-0.1-0.3-0.2-0.4l-0.1,0l0,0.1v0.1h-0.1c-0.2-0.1-0.4-0.2-0.6-0.2H96c-0.3,0-0.7-0.1-0.9-0.3C95,8.9,95,8.8,95,8.7l0,0
				c0.1,0,0.2,0,0.3-0.1c0-0.1,0-0.2-0.1-0.2c0.4,0.1,0.6,0.5,1,0.6L96.3,9l-0.2-0.2c0.1-0.1,0.2-0.1,0.3-0.1
				c-0.8-0.5-1.6-0.9-2.5-1.3V7.3c0.4,0.2,0.4,0.2,0.5,0.2c0.1,0,0.1,0,0.2,0l-0.5-0.3L94,7c-0.3-0.3-0.5-0.4-0.7-0.3l0.1,0.1
				c-0.1,0-0.2,0-0.2,0C93,6.8,93,6.7,93,6.6c-0.1-0.1-0.3-0.1-0.4-0.2l-0.1-0.1c0.1,0,0.2,0,0.2,0l0.4,0.2c0.1,0,0.2,0,0.2-0.1V6.5
				c0,0,0.1,0,0.1,0c0.1,0,0.2,0,0.2,0c-0.2-0.2-0.5-0.4-0.9-0.5l0,0.1c-0.3-0.1-0.3-0.1-0.4-0.2c0.2,0,0.2,0,0.3,0l-0.1-0.1h0.1
				c0,0,0.1,0,0.1-0.1c-0.5-0.2-1-0.4-1.5-0.6V5h0.1L91,4.7c-0.5-0.2-1.1-0.3-1.7-0.6l-0.1-0.1L89.1,4L89.2,4h0.2l0.4,0.1h0.1
				c0.3,0.2,0.6,0.3,0.9,0.4v0l-1.3-0.6c-0.1,0-0.1-0.1-0.2-0.1l-0.1,0l-0.3-0.1l-0.1,0h-0.1c-0.2-0.1-0.3-0.1-0.4-0.2h0.1l0-0.1
				c0,0-0.5-0.2-0.8-0.1c0.1,0,0.1,0.1,0.2,0.1c-0.2-0.1-0.4-0.2-0.6-0.3c0,0,0,0-0.9-0.4h0.1c-0.2,0-0.3-0.1-0.4-0.2v0
				c-0.5-0.2-1.1-0.5-1.6-0.6L84,1.7h-0.2c-0.1,0-0.2-0.1-0.4-0.1l0.2,0l0,0L83,1.5v0C82.8,1.4,82.7,1.3,82.4,1.3 M76.7,1.2
				l-0.1-0.1l-0.1,0h-0.1l-0.1-0.1L76.2,1h0h-0.1L76,1.1L76,1h-0.1c0,0,0,0-0.1-0.1l-0.1,0c0,0,0,0.1,0,0.1l0,0l-0.1-0.1h-0.1
				c0,0.1,0,0.1,0,0.1s-0.1-0.1-0.1-0.1h-0.1c0,0-0.1,0-0.1,0.2h0L75.1,1H75L75,1.1h-0.1l-0.2,0.1l-0.1,0.1h0.1c0,0,0,0,0.1,0.1
				l0,0.1c0,0-0.1,0-0.1,0l0-0.1h-0.1l0,0c0,0,0-0.1,0-0.1h-0.1V1.2h0h-0.1c-0.1,0.1-0.1,0.1-0.2,0.2H74l0-0.1h0l-0.3,0.1h-0.1
				l-0.2,0.1h-0.1l-0.1,0.1h0.1l0,0L73,1.7l0.1,0C73,1.8,73,1.8,73,1.9c0.1,0,0.2,0.1,0.3,0.1l0.2-0.1l0.1-0.1h0.2l-0.2,0.1L73.4,2
				l-0.1,0.1c0.4,0,0.4,0,0.6-0.2H74h0.2l0.2-0.1l0.1-0.1l0.1-0.1c0.1,0,0.1,0,0.2-0.1H75h-0.1l-0.3,0.2h0.2h0.1h0.1l-0.1,0.1
				c-0.1,0-0.1,0-0.2,0h-0.2L74.3,2C74.2,2,74.1,2,74,2H74h-0.1l-0.1,0.1h0.1l0,0.1v0.1l0.2,0.1H74h-0.2c-0.2-0.3-0.2-0.3-0.4-0.4
				l-0.2,0l-0.1,0.1v0.1v0.2l0.1,0.2l0.1,0.1l0.3,0c-0.1,0.1-0.2,0.1-0.3,0.2l-0.1,0.2l-0.2-0.3l-0.2-0.1l-0.3,0l-0.2,0L72.2,3
				l-0.1,0.2L72,3.3l0.2,0.1h0.3h0.2l-0.3,0.1l0,0.2c0.2,0.1,0.3,0.1,0.7-0.2L73,3.7l-0.3,0.2h-0.3c-0.1-0.1-0.3-0.1-0.3-0.2
				c0-0.1-0.1-0.1-0.1-0.1c-0.1,0-0.2,0-0.3,0C71.5,4,71.5,4,71.1,4.1l-0.2,0.2v0.3l0.2,0.1c0.1-0.1,0.3-0.1,0.4-0.1
				c0.2,0,0.3,0.1,0.5,0.1c0.2,0,0.2-0.1,0.3-0.2c0.1,0.1,0.1,0.1,0.5,0.1H73c0,0,0,0-0.1,0.2v0c0.1,0,0.2,0,0.3,0h0.2
				c0.6-0.2,0.6-0.2,0.6-0.4V4.2l-0.3,0.1V4.2L74,4.1l0.1-0.2V3.7h0.2c0.4,0,0.4,0,0.4,0c0.1-0.1-0.1-0.3-0.1-0.4h0.3
				c0.1,0,0.1,0,0.1,0c0,0,0-0.1-0.1-0.2c-0.1,0-0.2-0.1-0.3-0.1l-0.2,0.1l-0.1,0.1V3l0.2-0.1c0,0,0,0,0.2-0.2h0.2l0.1,0.1
				c0.3,0.1,0.3,0.1,0.5-0.1l-0.2-0.2h0.2l0.1,0.1h0.2l0.2-0.1l-0.1-0.2l-0.1-0.1H76L76,2.2l0.1-0.1c0.1-0.1,0.3-0.2,0.3-0.4h0.1
				V1.7l-0.1-0.1c0,0.1-0.1,0.1-0.2,0.1c-0.1-0.1-0.1-0.1-0.3,0V1.5l0.1,0h0.3c0.1,0,0.1,0,0.2-0.1h0.1C76.8,1.3,76.7,1.3,76.7,1.2
				 M72.8,2.9c0.1-0.1,0.1-0.1,0.2-0.2c-0.2-0.1-0.2-0.1-0.2-0.1l0.1-0.1l0.1-0.1V2.2c-0.1,0.1-0.1,0.1-0.2,0.1s0.1-0.1,0.1-0.2
				c0-0.1-0.1,0-0.1-0.1s0-0.1,0.1-0.1c0-0.1,0.1-0.1,0.1-0.2v0h-0.1c-0.1,0-0.2,0-0.3,0.1h0.2l0,0c-0.1,0.1-0.2,0.1-0.2,0.1h-0.1
				c-0.1,0-0.2,0-0.1,0.1c0,0.1,0,0-0.1,0.1h-0.1h-0.1l-0.2,0.2l-0.2,0.1l-0.2,0.2h0.1l-0.2,0.2v0.1h0.2l0.2-0.1h0.2l-0.1,0.1
				c-0.1,0-0.2,0.1-0.2,0.1h-0.2L71,3l0,0.1l-0.1,0.2l0.3,0.1l0.3,0l0.2,0.1l0.2-0.1h0.1c0,0,0.1,0,0.1-0.1L72.2,3l0.1,0.1
				c0.1,0,0.1-0.1,0.2-0.1s0,0,0.1,0c0.1,0,0.1,0.1,0.1,0C72.7,3,72.8,2.9,72.8,2.9 M70.8,4.2c0.1,0,0.2-0.1,0.3-0.1
				c0-0.1,0-0.2,0-0.3l-0.3,0.1l-0.3,0.2L70.8,4.2 M73.3,5.7L73.3,5.7l0-0.3l-0.4-0.1l-0.4-0.1l-0.4,0.1l-0.6,0.1l-0.3,0l-0.4-0.1
				h-0.4l-0.1-0.3l0.2-0.3l0.1-0.3h-0.4l-0.3,0c-0.1,0.2-0.2,0.5-0.3,0.7l-0.4,0.3v0.2l0.2,0.3l0.5,0l0.3-0.2
				c0.2,0.3,0.2,0.3,0.7,0.3h0.6l0.3-0.1L71.9,6l0.1,0.2C73,6.1,73,6.1,73,5.9C73,5.8,73,5.8,73.3,5.7 M66.9,6.1h0.2l0.1-0.2
				L66.9,6.1 M68.6,5.9l0.3-0.3l-0.1-0.2l0-0.2l-0.2,0l-0.4,0.1l-0.2,0.2v0.3h0.2L68.3,6L68.6,5.9 M69.3,4.8l0.3-0.2l0.1-0.2V4.3
				h-0.3l-0.1-0.1l-0.3,0l-0.3,0.2l0.1,0.2L69,4.8L69.3,4.8 M70.3,3.8l0.1-0.2h-0.5l-0.3,0.1L69.5,4h0.3l0.2,0L70.3,3.8 M70.2,3.5
				l0.2-0.1V3.2l-0.2,0V3l-0.2,0.1l-0.1,0.2l-0.3,0.3l0.2,0.1H70L70.2,3.5z M70.5,2.5l0.2-0.1L71,2.3V2.2h-0.1l-0.2,0.2h0.1
				L70.5,2.5 M69,3.7l0.2-0.1l0.2-0.2V3.3l0.2-0.2l0-0.1V2.9h-0.2l0.1-0.1V2.7h-0.2l-0.4,0.1l-0.1,0.2h0.1V3l-0.2,0.2h-0.2l-0.2,0.2
				h0.1l-0.1,0.1l0.2-0.1h0.1l0.2,0l-0.1,0.2L69,3.7 M68.2,3.8l0.2-0.1V3.6h-0.2l-0.2,0.2L68.2,3.8L68.2,3.8z M68.3,4.9
				c0.1-0.1,0.1-0.1,0.1-0.2c0,0,0-0.2-0.1-0.2c-0.1,0-0.2,0.1-0.3,0.1V4.4h-0.2c0,0.2-0.1,0.7-0.4,0.5l0.1-0.4h-0.2l-0.2,0.2
				l-0.2,0.2V4.9l0.3-0.4L67,4.3l-0.4,0.3c0,0.1-0.1,0.1-0.1,0.2c0,0.1,0,0.2,0,0.3l0.2,0.1l0.3-0.1l0.2,0L67,5.4l-0.2,0.4L67,5.6
				h0.3l0.2,0l0.2-0.2L68,5.1C68.1,5,68.2,5,68.3,4.9 M65.8,5.5c0.1-0.1,0-0.1,0-0.2l-0.1,0c-0.1,0-0.1,0.1-0.2,0.1l-0.2,0.2
				c0.1,0,0.1,0,0.2,0C65.7,5.6,65.8,5.6,65.8,5.5 M67.1,4.2l0.2-0.1l0.2-0.3l0-0.2C67.3,3.8,67.2,3.9,67.1,4.2 M74.2,12.4l0.3-0.4
				l-0.2-0.4c-0.3,0-0.5,0-0.8,0c-0.2,0.1-0.3,0.3-0.4,0.5l0.2,0.4l0.5,0.1L74.2,12.4 M68.7,7c0.1-0.1,0.3-0.2,0.4-0.3
				c-0.1-0.1-0.2-0.2-0.2-0.2h-0.3l-0.2-0.1c-0.5,0-0.5,0-0.6,0.1c-0.2,0.3-0.2,0.3-0.5,0.4l-0.4,0.6c-0.1,0.2-0.2,0.4-0.3,0.6L67,8
				l0.4-0.2l0.2-0.3l0.3,0.1l0.4-0.2L68.7,7 M65.7,8.4L66.2,8l0.1-0.3l-0.1-0.3L66,7.2C66.7,7,66.7,7,66.6,6.6V6.4h-0.3l-0.2,0.2H66
				l-0.1-0.1l-0.3,0.1l-0.2,0.2v0.3c-0.6,0.6-0.6,0.5-0.6,0.1h-0.2l-0.3,0.2l0.1,0.2l0.1,0.2L64.6,8c0,0.1-0.1,0.2-0.1,0.3v0.1
				c0,0.1,0.3,0.2,0.3,0.2c0.2-0.1,0.3-0.2,0.5-0.3L65.7,8.4 M63.8,7.2l0.4-0.3V6.7l-0.4-0.1l-0.3,0.2c0,0.2,0,0.2,0,0.2
				s0,0-0.1,0.3L63.8,7.2 M63.1,6.8l0.3-0.2h-0.2l-0.3,0.1L63.1,6.8L63.1,6.8z M67.4,3.3c0.2-0.1,0.2-0.1,0.2-0.2c0,0,0-0.1,0-0.1
				h-0.2l-0.3,0.1l-0.5,0.2h0.2h0.2L67.4,3.3 M66.7,3.5L67,3.4h-0.1h-0.3l-0.3,0.1L66,3.6l-0.4,0.3l0.1,0l0.2-0.1h0.3l0.3-0.1
				l0.1-0.2L66.7,3.5 M65.6,3.6h0.1l0.3-0.2V3.3H66l-0.2,0.2L65.6,3.6L65.6,3.6z M65.2,5.4L65.7,5l0.1-0.2h-0.2l-0.2,0.2l-0.1-0.1
				l0.1-0.3l0.2-0.2l0.2-0.2h-0.2l-0.3,0.1l-0.2,0.1l-0.2,0.1C65,4.8,65,4.8,64.6,5l0.2,0.1c-0.1,0.1-0.2,0.2-0.4,0.2h-0.3l0-0.2
				l0.2-0.3l0-0.1h-0.2V4.5l-0.1,0l-0.4,0.1l-0.5,0.2L62.7,5l-0.5,0.2l-0.3,0.3h0.3l0.1,0.1l0.3,0L63,5.4l0.3,0.1h0.2
				c-0.1,0.1-0.3,0.1-0.4,0.1h-0.3l-0.3,0.1l-0.2,0.2l0,0.1h0.4l0.6-0.2l0.5-0.2l0.3,0h0.4h0.4L65.2,5.4 M64.5,4.3l0.2,0.1L65,4.2
				h-0.3v0L64.5,4.3 M62.1,5.1l0.7-0.4l-0.4,0.1L62,5.1C62,5.1,62.1,5.1,62.1,5.1z M64.6,4l0.4-0.2L65,3.7l-0.4,0.2h-0.2h-0.1
				c-0.5,0.2-1,0.4-1.5,0.6h-0.2l-0.4,0.1l-0.3,0.2v0.1l0.4-0.2l-0.1,0.2l0.3-0.1l0.3-0.1h0.2l0.4-0.2l0.4-0.1l-0.3,0.2l0.2-0.1
				L64,4.4L64.6,4 M62.8,10.1L63,9.9l-0.2-0.3l-0.5-0.4V8.8l0.4-0.4l-0.1-0.3l0.4-0.5l0.1-0.3L63.1,7h-0.3l-0.4,0.4l-0.2,0.3L62,8.1
				l-0.3,0.2h-0.1V8l0.2-0.3l0.1-0.2l0.1-0.4l-0.2,0l-0.2,0.2l-0.1,0.2h-0.3L61,7.8l-0.3,0L61,7.6l0.3-0.2h-0.2l-0.1-0.1h-0.3
				l-0.3,0.2l-0.1-0.1l0.2-0.2l0.3-0.3l0-0.1h-0.3L60.1,7l-0.3,0.1l-0.4,0.1l-0.5,0.2l-0.4,0.3L58,7.9l-0.2,0.2H58l-0.1,0.2l0.4-0.1
				h0.4l0,0.2l-0.5,0.1l-0.4,0.1l-0.4,0.2L57.5,9h0.4h0.5c0.1,0,0.3,0,0.4,0C59,9,58.9,9.2,59,9.2c-0.1,0.1-0.2,0.2-0.3,0.2
				l-0.6-0.1h-0.6l-0.7,0.2l-0.3,0.5l0.5,0.1h0.4l-0.2,0.5l0.1,0.2h0.6h0.6l0.6-0.2l0.5-0.1l0.6-0.3l0.3-0.1v0.2l0.3,0l0.3,0.4
				l0.4,0l0.4,0l0.4-0.3l-0.1-0.3h0.3L62.8,10.1 M60,11.1l0.3-0.3l-0.7,0.2l-0.8,0.3l0.4,0.1l0.5-0.2C59.6,11.1,60,11.1,60,11.1z
				 M60.2,6.9l0.5-0.2L61,6.4L61,6.1L60.9,6l-0.5,0.2L60.3,6l-0.1-0.2l-0.3-0.1h-0.6L59.1,6l-0.5,0.4l-0.9,0.6l-1.5,0.8l0.2,0.3
				l-0.5,0.6l0.7-0.3h0.3L57.3,8c0.6-0.4,1.2-0.7,1.9-1l1-0.3 M88.4,27.3l0.3-0.3l-0.4-0.3l0.2-0.3l-0.1-0.6l-0.8-0.1l-0.2-0.4h-0.9
				l-0.6,0.4l-0.4,0.3l-0.4-0.1l0.1-0.5l0.8-0.3l0.9-0.2l0.4-0.4h-0.6l-0.7-0.3l-0.8-0.2l-0.6-0.4L83.7,23l-0.3-0.4l0.3-0.1l0.1-0.3
				l-0.6-0.7l-0.7-0.7l-1-1.3L81,19l-0.5,0.8c0,0.2,0.1,0.4,0.1,0.7l-0.6,0.3l-0.4,0.5h-0.6l-0.2-0.4l-0.4-0.3l-0.6,0.1l0.1-0.7
				l-0.1-1l-0.1-0.5l-0.7,0L76.4,18l-0.5-0.5l-0.9-0.6l-0.3,0.3l-0.8,0l-0.3-0.2h-0.9l-0.4,0.4l0.3,0.5l-0.2,0.7l0.1,0.5l0.3,0.6
				h-0.5v0.6l-0.3,0.3l0.4,0.3l0.6,0.5l0.1,0.8c0,0.3,0,0.6-0.1,1l-0.5,0.7l-0.7,0.5l-0.9,0.1l0.5,0.8c0,0.4,0,0.7-0.1,1.1l0.2,0.6
				l-0.2,0.5l-0.5,0.6l-1,0.1l-0.5-0.9l-0.6-0.8c0-0.2,0-0.4,0.1-0.6L68.7,25l0.2-0.8l-1.1-0.2L67,24l-0.4-0.3l-1-0.3L65.3,23
				l-0.8-0.5L63.7,22l-1.3,0.3l-0.2-0.5l-0.2-1.1l-0.5-0.3L61.4,20l0.6-1.3l0.8-0.9l0.8-0.8l0.8-0.3l0.6-0.4L65,15.9l-0.7-0.2
				l-0.8-0.3l1,0.2l0.8,0.2l0.4-0.1l0.2-0.5l0.6,0.3l0.4-0.1l0.1-0.4l0.3-0.2l0.3-0.5l-0.5-0.1l-0.6-0.1l-0.1-0.3l-0.6-0.3l0.5,0
				l0.7,0.2l0.4,0.2l0.6-0.2l0.5-0.4l-0.3-0.4h0.5l0.2,0.3l-0.3,0.4l-0.4,0.6c-0.1,0.3-0.1,0.6-0.2,0.8l-0.6,0.2l0.1,0.4l0.6,0
				c0,0.1,0,0.2,0,0.4c0.2,0,0.5,0,0.7-0.1l0.3-0.4l0.7,0l0.4,0.1l0.4,0.2H71l0.1-0.5l-0.6-0.1l-0.2-0.6l-0.6-0.1l-0.4-0.5l-0.4-0.1
				c0-0.1,0.1-0.2,0.1-0.3l0.4,0.1l0.3-0.2v-0.3h0.5l0.3-0.4l0.6-0.4l0.2-0.3L71.1,12L71,11.4l0.5-0.1l0.2-0.4l-0.2-0.4L71,10.3
				L70.5,10h0.6l0.1-0.2l0.4,0.1l0.3,0.2h0.5L73,10l-0.3-0.4L73,9.5l0.3,0.4l0.5,0.1l0.2,0.4l0.3,0.1l0.2,0.3l0.4,0.2l0.2,0.4
				l0.4,0.2l0.4,0.4l0.1,0.5L75.3,13l-0.5,0.6l0.3,0.5l-0.9,0.1l-0.5-0.1c-0.2,0-0.3,0-0.5,0l-0.6,0.4c0,0.2,0,0.3-0.1,0.5l0.7,0.1
				l0.6,0l0-0.3l0.3-0.2l0.4,0.1l0.7,0.2l0.7,0.7l0.2,0.4l0.5,0.5h0.6l0.7,0.6h1l0.7,0.3v-0.4l-1.2-0.8L78.1,16l-0.2-0.4l0.7,0.3
				l1.3,0.6l0.6,0.3c0-0.2-0.1-0.4-0.1-0.6l0.3-0.5L80,15.5l-0.2-0.8L79,14.5l-1-1l0.3-0.3l0.3-0.2l1.3,0.9l0.5,0.6l0.5,0.1v-0.7
				l0.6-0.2v-0.3h0.4l0.1-0.3l-0.1-0.4H81c0-0.1,0-0.2,0-0.2l-0.6-0.4L80.1,12l-0.5-0.2h-0.4L79,11.5l-0.2-0.3h-0.6h-0.3l-0.1-0.5
				h0.4l0.2-0.2l-0.6-0.2l0.1-0.2l0.3-0.1l-0.4-0.3l-0.4-0.1l0.1-0.3l-0.4-0.2h-0.5L76.6,9h-0.4L76,9l0.3-0.2l-0.4-0.1l-0.5,0.2
				L75,8.4V8.2h-0.3V7.9l-0.5-0.2h-0.6l-0.1,0.2l-0.3,0l-0.3-0.1l-0.2,0.3h-0.3l0.1-0.3l0.3-0.3l-0.2-0.4l0-0.4h-0.5L71.5,7h-0.4
				l-0.3,0.2l-0.2,0.4L70.7,8l-0.3,0.3l0.2,0.5l-0.3,0.1l-0.2-0.4l0.1-0.6l0.1-0.4L70.7,7l0.4-0.3h-0.5l-0.6,0.1l-0.7,0.4l-0.6,0.6
				l-0.4,0.8l0.4,0.1l0.3,0v0.3L68.7,9l-0.5,0.1l0.2,0.4H69l0.3-0.1l0.3,0.3l0.6,0.2l-0.4,0.1l-0.1,0.4l0.2,0.3L69,11.5L68.7,12
				l-0.5,0.4l-0.3-0.2l0-0.6l0.4-0.4l-0.4-0.6l-0.6,0.4l-0.3-0.8l-0.2-0.1L67,9.7l0.1-0.5l-0.3-0.1L67,8.9l-0.2-0.4l-0.5,0l-0.2,0.2
				h-0.2L65.4,9l-0.1,0.3l-0.2,0.3l0.2,0.4l0.3,0.3l-0.3,0.4l-0.4-0.1l-0.1,0.5h0.4l0.6-0.3c-0.1,0.2-0.2,0.3-0.2,0.5l-1.1,0.5
				l-0.3,0.7l-0.3-0.4l0.4-0.5h-0.3l0.2-0.5h0.3l0.3-0.7L64.2,10l-0.4,0.5l-0.5,0.2l0.4,0.5l-0.5,0.3l-0.3,0.4h-1.3l-0.4-0.3
				l-0.4-0.1L60.2,11l-0.6,0.3l-0.9,0.3l-0.2,0.5l-0.6,0.7l0.2-0.9l-0.3-0.4L57,11.8l-1.3-0.2l0.2-0.3l0.7-0.2l-0.2-0.5h-0.4
				l-0.6-0.5l0.1-0.4L55,9.6h-0.3l-0.4,0.3l-0.3,0.1l0.5-0.6l-0.8,0.6l-0.2-0.1L54,9l-0.2-0.1l-0.7,0.5l-0.6,0.3l-0.4,0.1l-0.7,0.2
				l-0.8,0.3l1-0.5l0.5-0.1l0.4-0.1L53,9.2l-0.1-0.1l-0.7,0.2l-0.9,0.3H51h-0.2L49.7,10l-0.3-0.1l0.3-0.5l-0.5-0.1L49.4,9l-0.1-0.1
				l-0.5,0.1L49,8.7l-0.3-0.1V8.4l-0.2,0h-0.1c-4,2.3-7.7,5.1-11,8.3l0.5-0.1l-0.1,0.3l-0.8,0.3l-0.5,0.4l-0.2,0.2l-0.4,0.4l1.1-0.5
				l0.5-0.1c0.2-0.3,0.5-0.6,0.8-0.8l0.3,0.1l-0.2,0.5v0.4l0.2,0.3L39,18l0.1,0.3l0.3,0l-0.1,0.5l0.1,0.5c0,0.2,0,0.5,0,0.7
				c0.1,0,0.2-0.1,0.3-0.1l0.1,0.3l-0.2,0.5l0.3,0.3l-0.4,0.4l0.2,0.4l-0.4,0.4l0.2,0.2l0.3,0.1L39.4,23l-0.1,0.6L39,24.2l-0.2,0.6
				l0.4,0.1l-0.3,0.8l0.1,0.7L38.8,27l0.3,0.4l0.4,0.3l0.3,0.2l-0.1,0.4l0.3,0.6l0.2,0.5l-0.2,1l-0.4,0.8l-0.1-0.5l-0.1-0.7l0.1-0.4
				l-0.3-0.4l-0.3-0.2l0.3-0.6H39l-0.1-0.3l-0.2-0.2l-0.2-0.2l-0.4,0.1v0.5l0.2,0.3l0.1,0.5l0.4,0.8l-0.1,0.8l-0.1,1l-0.4,0.8
				l-0.5,1.1c-0.2,0.4-0.3,0.8-0.5,1.3L37,34.9l-0.3,0.8l0,0.9l-0.4,0.8l-0.1,0.6l0.1,0.6L36,39.5l0.1,0.7l0.3,0.6v1.3l0.3,0.5
				l0,0.6l0.3,0.8l0.6,0l0.4,0.5l0.6,0.5l0.4,0.7v0.8l0.1,0.8l0.1,1.3l0.4,0.6l0.5,0.7l0.1,0.5l-0.5,0.4l0.2,0.5l0.5,0.6l0.7,0.6
				l0.4,0.6l-0.1,0.5l0.1,0.4l0.6,0.3l0.5,0.6l0.4,0.5v0.6l0.3-0.2l0.1-0.6l-0.2-0.7l-0.5-0.3l0-0.6l-0.6-0.6L42,52.4l-0.2-0.8
				L41.4,51l-0.1-0.8l-0.5-0.3l-0.2-1l-0.5-0.8l0.1-1h0.5l0.6,0.4l0.3,0.6l-0.1,0.9l0.6,1.2l0.6,1l0.6,0.7l0.4,0.7l0.1,0.8l0.7,0.5
				l0.5,0.8l0.4,0.8l0.8,1.1l0.3,0.9l0.5,0.5l-0.5,0.3l-0.1,0.6l1,0.9l0.8,0.8l1,0.4l1,0.7l1.3,0.6l1.4,0.8l1.1,0.4l0.7,0l0.2-0.4
				l0.8-0.1l0.9,0.5l1,0.9l0.6,0.7h0.8h0.3l0.5,0.2l0.5,0.7l1,0.4v-0.5L62,66c1.7,2.3,1.7,2.3,1.6,2.8l0.3,0.4l0.4-0.2l0.6,0.3
				c1.2,1.1,1.2,1.1,1.7,1l1.5,0.7l0.8,0.3l0-0.7l0.4-0.5l1.3,0.1l0.2,0.5l0.4,0l0.2-0.6l-0.5-0.6h-1.4l-0.9-0.1l-1.3-0.1l-0.6-0.4
				L65.7,68l0-0.7v-1l0.3-1.2c0-0.3,0-0.6,0-0.8l-0.4-0.6l-0.9-0.5l-1.3,0.1l-1-0.2l-1,0.4L60.9,63l0.6-0.5v-0.9l0.2-0.5l0.3-0.9
				c0-0.3,0-0.6,0-1l0.6-0.4l0.1-0.7l-0.4-0.3l-1.4,0.1L60,58l-0.4,0.7l-0.4,1l-0.4,0.9L58,60.7L56.9,61l-1.1,0.1l-0.5-0.7l-0.9-0.5
				l-0.3-0.8l-0.6-1l-0.3-1.8L53.1,55l0.5-1l0.3-1.1l-0.4-1.2l0.9-1.1h0.7l0.7-0.6l0.7-0.6l0.9,0.2l0.6,0.2l0.6-0.2l0.4,0.6h0.8
				l0.6,0l-0.1-0.5l0.3-0.8h1l0.7-0.1l1.3,0.1l0.5,0.7h0.4l0.3-0.4l0.4-0.1l0.6,0.6l0.5,0.7v0.8l0.3,0.5l0.1,0.5l0.4,0.4l0.2,0.6
				l0.5,0.3l0,0.6l0.5,0.1l0.3-0.4l0.2-0.7l-0.3-0.8l-0.3-1.3l-0.6-1.1c0-0.5,0-0.9,0.1-1.7c0.1-0.2,0.2-0.5,0.3-0.8l0.6-1l0.8-0.3
				l1-0.8l0.9-0.6l0.9-0.3l0.1-0.6l0.6-0.4l-0.5-1l-0.4-0.5l0.2-0.5l-0.4-0.5l0.6-0.3l0.5,0.7l0.3-0.7l0.4-0.6l0.4-0.4l0.4-1.3H76
				l0.8-0.4l0.9-0.1l-0.2-0.5l-0.1-1.1l0.6-0.8h0.7l0.2-0.5h0.9l0.8-0.5l0.5-0.6c1.5-0.1,1.5-0.1,2.2,0.2L83,34.4
				c-0.4,0-0.8,0-1.2,0l-0.6,0.5c0,0.2,0,0.5,0.1,0.7l0.5,0.2l0.5-0.4l0.4-0.3l0.7-0.2l0.8-0.4l0.8-0.2l0.5-0.7L86,33v-0.6l-0.8,0.2
				l-0.5,0.9l-1,0.1L83,33.2l-0.9-0.6l-0.5-1.1l0.7-0.5l-0.1-0.8l-1.1-0.1L80,30.4l-1.2,0.7l-1.2,1.2l-1,0.7l0.4-0.6l0.6-0.7
				l0.4-0.3l-1-0.2h1.2l0.3-0.6l0.6-0.5l0.8-0.1l0.3-0.6l0.6-0.2h1l1.9-0.1l1,0.1l0.7-0.1l0.6-0.5l0.5-0.7l1.2-0.1l0.6-0.2"/>
		</g>
	</g>
	<path class="st4" d="M104.2,47.7c-9.1,10.2-19,19.8-29.4,28.7c-5.2,4.4-10.6,8.7-16,12.9c-5.5,4.1-11.1,8-16.9,11.7
		c-2.9,1.8-5.9,3.6-8.9,5.2c-3,1.6-6.1,3.2-9.3,4.6c-3.2,1.4-6.6,2.5-10.1,3.2c-1.9,0.4-3.8,0.4-5.7,0c-1-0.3-2-0.8-2.8-1.5
		c-0.8-0.8-1.4-1.8-1.6-2.9c-0.4-1.9-0.3-3.9,0.3-5.7c0.5-1.7,1.1-3.4,1.9-5c1.6-3.1,3.3-6.1,5.3-8.9c4-5.6,8.3-10.9,13.1-15.8
		c-4.1,5.5-8.1,11-11.6,16.8c-1.8,2.9-3.4,5.8-4.7,8.9c-0.7,1.5-1.2,3.1-1.6,4.6c-0.4,1.4-0.5,2.9-0.2,4.4c0.2,0.6,0.5,1.1,0.9,1.5
		c0.5,0.4,1.1,0.6,1.7,0.7c1.5,0.2,3,0.2,4.5-0.1c3.2-0.7,6.4-1.8,9.3-3.2c6.1-2.8,12.1-6,17.7-9.7c5.8-3.6,11.3-7.4,16.8-11.4
		s10.9-8.1,16.2-12.3C83.7,65.8,94.1,56.9,104.2,47.7z"/>
	<path class="st5" d="M124.5,41.8c-2.2,1.9-7.2-0.4-11.3-5.1s-5.6-10-3.5-11.9l24.5-21.3l14.8,17L124.5,41.8z"/>
	<path class="st5" d="M149,20.5c-2.2,1.9-6.4-1.1-10.5-5.8c-4.1-4.7-6.5-9.3-4.3-11.2c4.8-4.2,19.3-1.9,19.3-1.9
		S153.9,16.3,149,20.5z"/>
	<path class="st5" d="M134.5,47.3c3.3-2.8,4.4-18,4.4-18l-17.7,15.4l7,8.1L134.5,47.3z"/>

		<rect x="123.9" y="41.2" transform="matrix(0.7547 -0.6561 0.6561 0.7547 0.6358 94.8646)" class="st6" width="6.6" height="10.7"/>
	<path class="st5" d="M105.7,14.2c3.3-2.8,18.4-1.8,18.4-1.8l-17.7,15.4l-7-8.1L105.7,14.2z"/>

		<rect x="102.1" y="16.2" transform="matrix(0.7547 -0.6561 0.6561 0.7547 11.7356 74.4223)" class="st6" width="6.6" height="10.7"/>
	<path class="st6" d="M124.7,41c-0.4,0-0.8,0-1.3,0c-0.2,0-0.5-0.1-0.7-0.1c-0.5-0.1-1-0.3-1.5-0.5c-2.5-1.2-4.6-2.9-6.4-5
		c-1.8-2-3.2-4.4-4.1-7c-0.2-0.5-0.3-1-0.3-1.5c0-0.2,0-0.5,0-0.7c0-0.4,0-0.9,0.1-1.3c0.1-0.2,0.1-0.4,0.2-0.5
		c0.1-0.3,0.4-0.6,0.6-0.9l-4.6,4c-2.2,1.9-0.6,7.2,3.5,11.9c4.1,4.7,9.1,7,11.3,5.1l4.6-4c-0.3,0.2-0.6,0.4-0.9,0.6
		C125.1,41,124.9,41,124.7,41z"/>
	<path class="st6" d="M133.2,33.6c-0.4,0.1-0.8,0.1-1.3,0c-0.2,0-0.5-0.1-0.7-0.1c-0.5-0.1-1-0.3-1.5-0.5c-2.5-1.2-4.6-2.9-6.4-5
		c-1.8-2-3.2-4.4-4.1-7c-0.2-0.5-0.3-1-0.3-1.5c0-0.2,0-0.5,0-0.7c0-0.4,0-0.9,0.1-1.3c0.1-0.2,0.1-0.4,0.2-0.5
		c0.1-0.3,0.4-0.6,0.6-0.9l-4.6,4c-2.2,1.9-0.6,7.2,3.5,11.9s9.1,7,11.3,5.1l4.6-4c-0.3,0.2-0.6,0.4-0.9,0.5
		C133.5,33.5,133.4,33.6,133.2,33.6z"/>
	<path class="st6" d="M141.7,26.2c-0.4,0-0.8,0-1.3,0c-0.2,0-0.5-0.1-0.7-0.1c-0.5-0.1-1-0.3-1.5-0.5c-2.5-1.2-4.6-2.9-6.4-5
		c-1.8-2-3.2-4.4-4.1-7c-0.2-0.5-0.3-1-0.3-1.5c0-0.2,0-0.5,0-0.7c0-0.4,0-0.9,0.1-1.3c0-0.2,0.1-0.4,0.2-0.5
		c0.2-0.3,0.4-0.6,0.7-0.8l-4.6,4c-2.2,1.9-0.6,7.2,3.5,11.9s9.1,7,11.3,5.1l4.6-4c-0.3,0.2-0.6,0.4-0.9,0.5
		C142.1,26.2,141.9,26.2,141.7,26.2z"/>
</g>
</svg>
