<svg width="134" height="18" viewBox="0 0 134 18" fill="none" xmlns="http://www.w3.org/2000/svg">
<g clip-path="url(#clip0_2303_39443)">
<path d="M130.893 6.29324C131.74 5.85324 132.553 4.88658 132.553 3.57324C132.553 1.31991 130.773 0.0732422 128.273 0.0732422H122.96V13.7666H128.46C131.333 13.7666 133.24 12.2666 133.24 9.69991C133.24 7.88657 132.173 6.76658 130.893 6.29324ZM125.513 2.13324H128.047C129.453 2.13324 130.14 2.72658 130.14 3.79324C130.14 4.85991 129.453 5.41991 128.073 5.41991H125.507V2.13324H125.513ZM128.173 11.5132H125.513V7.60658H128.173C129.927 7.60658 130.767 8.32657 130.767 9.57991C130.767 10.8266 129.927 11.5132 128.173 11.5132Z" fill="#1E154B"/>
<path d="M113.887 0.0732422H109.447V13.7666H113.887C117.701 13.7666 120.921 11.4866 120.921 6.91991C120.921 2.35324 117.701 0.0732422 113.887 0.0732422ZM113.701 11.5132H112.041V2.29324H113.701C116.047 2.29324 118.294 3.51324 118.294 6.91991C118.294 10.3266 116.047 11.5132 113.701 11.5132Z" fill="#1E154B"/>
<path d="M105.254 10.4867C105.001 11.4267 104.194 11.9267 102.941 11.9267C101.441 11.9267 100.407 10.9267 100.221 9.3334H107.507C107.547 9.06673 107.567 8.7934 107.567 8.52006C107.567 6.14007 106.067 3.7334 102.754 3.7334C99.4406 3.7334 97.9072 6.20006 97.9072 8.80007C97.9072 11.3934 99.7206 13.9267 102.941 13.9267C105.381 13.9267 107.221 12.5801 107.601 10.4867H105.254ZM102.754 5.54673C104.194 5.54673 105.034 6.48673 105.161 7.7334H100.281C100.534 6.26673 101.414 5.54673 102.754 5.54673Z" fill="#1E154B"/>
<path d="M97.0999 5.91992V3.88659H94.3799V0.919922H91.9732V3.89326H90.0332V5.92659H91.9732V10.3333C91.9732 12.5199 93.3799 13.7733 95.5332 13.7733H97.0999V11.7333H95.7865C94.9132 11.7333 94.3799 11.2333 94.3799 10.2333V5.91992H97.0999Z" fill="#1E154B"/>
<path d="M87.0264 3.88672L84.773 10.6734L82.4664 3.88672H80.0264L83.6197 13.7667L82.2464 17.7667H84.5264L86.0597 13.2934L89.4997 3.88672H87.0264Z" fill="#1E154B"/>
<path d="M75.0868 3.73341C73.8068 3.73341 72.7401 4.29341 72.1801 5.10674V0.0800781H69.7734V13.7667H72.1801V12.5467C72.7401 13.3934 73.8401 13.9201 75.0268 13.9201C78.0001 13.9201 79.7468 11.8601 79.7468 8.82008C79.7468 5.79341 77.9934 3.73341 75.0868 3.73341ZM74.6801 11.8601C73.0868 11.8601 72.0201 10.6401 72.0201 8.82674C72.0201 7.01341 73.0801 5.82674 74.6801 5.82674C76.2734 5.82674 77.3401 7.01341 77.3401 8.82674C77.3401 10.6401 76.2734 11.8601 74.6801 11.8601Z" fill="#1E154B"/>
<path d="M63.3603 3.7334C60.7937 3.7334 59.1403 5.26673 59.0137 7.2334H61.1737C61.207 6.36006 61.987 5.54673 63.267 5.54673C64.547 5.54673 65.267 6.2334 65.267 7.20006C65.267 7.5734 65.047 7.86006 64.547 7.86006H62.7337C60.5137 7.86006 59.0137 9.04673 59.0137 10.9867C59.0137 12.6734 60.3603 13.9267 62.2937 13.9267C63.7337 13.9267 64.8537 13.2734 65.2603 12.3001V13.7667H67.6403V7.42007C67.647 5.20007 65.867 3.7334 63.3603 3.7334ZM65.267 9.60673C65.267 11.0734 64.3937 12.1401 62.8937 12.1401C61.987 12.1401 61.3603 11.6401 61.3603 10.8601C61.3603 10.0134 62.047 9.4534 63.047 9.4534H65.267V9.60673Z" fill="#1E154B"/>
<path d="M42.9469 3.88672V9.29339C42.9469 10.7334 41.9802 11.7934 40.6335 11.7934C39.2869 11.7934 38.5735 10.8534 38.5735 9.51339V3.88672H36.2002V10.0134C36.2002 12.3267 37.5735 13.9201 39.8602 13.9201C41.2669 13.9201 42.3935 13.3267 42.9535 12.2334V13.7667H45.3602V3.88672H42.9469Z" fill="#1E154B"/>
<path d="M32.4735 3.88672L30.1935 10.6734L27.9068 3.88672H25.4668L29.0668 13.7667L27.6935 17.7667H29.9735L31.5068 13.2934L34.9468 3.88672H32.4735Z" fill="#1E154B"/>
<path d="M54.6406 3.88673V5.0134C54.0806 4.26006 53.0139 3.7334 51.7606 3.7334C48.8206 3.7334 47.1006 5.82673 47.1006 8.82673C47.1006 11.8267 48.8206 13.9267 51.7939 13.9267C53.2339 13.9267 54.1673 13.4267 54.6673 12.6801V12.8401C54.6673 14.6867 54.0739 15.9334 52.1339 15.9334C50.9139 15.9334 50.2873 15.4334 49.8806 14.4667H47.4739C48.0073 16.8734 49.6339 17.9334 52.1339 17.9334C55.2606 17.9334 56.9473 16.0601 56.9473 12.8401L57.0406 3.90007L54.6406 3.88673ZM52.1406 11.8601C50.5473 11.8601 49.4806 10.6401 49.4806 8.82673C49.4806 7.0134 50.5406 5.82673 52.1406 5.82673C53.7339 5.82673 54.8273 7.0134 54.8273 8.82673C54.8273 10.6401 53.7673 11.8601 52.1406 11.8601Z" fill="#1E154B"/>
<path d="M5.33375 0.0732422C5.78042 0.0732422 6.00042 0.0732422 6.17375 0.159909C6.32042 0.233242 6.44708 0.359909 6.52042 0.506576C6.60708 0.679909 6.60708 0.899909 6.60708 1.34658V6.95324C6.60708 7.61991 6.60708 7.95324 6.46708 8.15324C6.34708 8.33324 6.15375 8.45324 5.94042 8.48658C5.69375 8.52658 5.39375 8.38658 4.79375 8.10658L3.22042 7.37324C2.08708 6.84658 1.52042 6.57991 1.10708 6.17324C0.740417 5.81324 0.460417 5.37324 0.287083 4.88658C0.09375 4.34658 0.09375 3.71991 0.09375 2.46658V1.34658C0.09375 0.899909 0.09375 0.679909 0.180417 0.506576C0.25375 0.359909 0.380417 0.233242 0.527083 0.159909C0.700417 0.0732422 0.920417 0.0732422 1.36708 0.0732422H5.33375Z" fill="#FF5F3B"/>
<path d="M18.367 0.0732422C18.8136 0.0732422 19.0336 0.0732422 19.207 0.159909C19.3603 0.233242 19.4803 0.359909 19.5536 0.506576C19.6403 0.679909 19.6403 0.899909 19.6403 1.34658V2.46658C19.6403 3.71991 19.6403 4.34658 19.447 4.89324C19.2736 5.37991 18.9936 5.81991 18.627 6.17991C18.2136 6.58658 17.647 6.85324 16.5136 7.37991L13.127 8.95991V1.34658C13.127 0.899909 13.127 0.679909 13.2136 0.506576C13.287 0.359909 13.4136 0.233242 13.5603 0.159909C13.7336 0.0732422 13.9536 0.0732422 14.4003 0.0732422H18.367Z" fill="#FF5F3B"/>
<path d="M13.1266 8.95996V16.5733C13.1266 17.02 13.1266 17.24 13.0399 17.4133C12.9666 17.5666 12.8399 17.6866 12.6933 17.76C12.5199 17.8466 12.2999 17.8466 11.8533 17.8466H7.88661C7.43995 17.8466 7.21995 17.8466 7.04661 17.76C6.89995 17.6866 6.77328 17.56 6.69995 17.4133C6.61328 17.24 6.61328 17.02 6.61328 16.5733V15.4533C6.61328 14.2 6.61328 13.5733 6.80661 13.0266C6.97995 12.54 7.25995 12.1 7.62661 11.74C8.03995 11.3333 8.60662 11.0666 9.73995 10.54L13.1266 8.95996Z" fill="#FF5F3B"/>
</g>
<defs>
<clipPath id="clip0_2303_39443">
<rect width="133.333" height="18" fill="white"/>
</clipPath>
</defs>
</svg>
