<?xml version="1.0" encoding="utf-8"?>
<!-- Generator: Adobe Illustrator 23.0.4, SVG Export Plug-In . SVG Version: 6.00 Build 0)  -->
<svg version="1.1" id="Layer_1" xmlns="http://www.w3.org/2000/svg" xmlns:xlink="http://www.w3.org/1999/xlink" x="0px" y="0px"
	 viewBox="0 0 660.6 115.1" style="enable-background:new 0 0 660.6 115.1;" xml:space="preserve">
<style type="text/css">
	.st0{fill:#A3A6B4;}
</style>
<title>yb</title>
<g>
	<path class="st0" d="M197.4,91.7c-0.3-0.3-0.5-0.7-0.5-1.1c0-0.4,0.1-0.9,0.3-1.3l6.3-14.7l-15.2-36c-0.2-0.3-0.3-0.7-0.3-1.1
		c0.1-0.5,0.2-0.9,0.6-1.2c0.3-0.3,0.7-0.5,1.2-0.5h6.6c0.9,0,1.8,0.6,2.1,1.5l10.6,25.9l10.7-26c0.4-0.9,1.3-1.5,2.2-1.5h6.4
		c0.4,0,0.9,0.2,1.2,0.5c0.3,0.3,0.5,0.7,0.5,1.1c0,0.4-0.1,0.9-0.3,1.3l-22.5,52.1c-0.3,0.9-1.2,1.6-2.2,1.5h-6.4
		C198.1,92.1,197.7,92,197.4,91.7z"/>
	<path class="st0" d="M240.6,73.1c-2.8-3.2-4.2-7.6-4.2-13.1V37.6c0-0.5,0.2-1,0.6-1.4c0.4-0.3,0.8-0.5,1.3-0.5h7.2
		c1.1,0,1.9,0.9,1.9,1.9c0,0,0,0,0,0v21.9c0,6.5,2.8,9.8,8.5,9.8c2.8,0,4.9-0.9,6.6-2.6c1.6-1.7,2.4-4.1,2.4-7.2V37.6
		c0-0.5,0.2-1,0.6-1.4c0.4-0.3,0.9-0.5,1.4-0.5h7.1c0.5,0,1,0.2,1.4,0.5c0.4,0.4,0.5,0.9,0.5,1.4v37.5c0,0.5-0.2,1-0.5,1.4
		c-0.4,0.4-0.9,0.6-1.4,0.6h-6.6c-1,0-1.9-0.8-1.9-1.9c0,0,0,0,0,0v-3.3c-2.9,4-7.3,6-13.2,6C247.2,77.8,243.4,76.2,240.6,73.1z"/>
	<path class="st0" d="M293.5,92.2c-2.9-1.6-5-3.3-6.2-5.4c-1.2-2-1.8-3.7-1.8-5.2c0-0.5,0.2-1,0.6-1.3c0.4-0.3,0.8-0.5,1.3-0.5h7.1
		c0.4,0,0.9,0.1,1.2,0.4c0.4,0.3,0.7,0.8,0.8,1.3c0.6,1.4,1.5,2.6,2.6,3.5c1.2,1,3,1.5,5.4,1.5c3.2,0,5.5-0.7,7-2.1
		c1.5-1.4,2.2-3.8,2.2-7.3v-5.4c-2.8,3.4-6.9,5.1-12.2,5.1c-5.5,0-9.7-1.7-12.4-5c-2.8-3.3-4.3-7.9-4.5-13.7l-0.1-2.1l0.1-2.1
		c0.2-5.7,1.7-10.2,4.5-13.7s6.9-5.2,12.4-5.2c2.6-0.1,5.1,0.5,7.4,1.6c2.1,1,3.8,2.5,5.2,4.3v-3.1c0-0.5,0.2-1.1,0.6-1.4
		c0.4-0.4,0.9-0.6,1.4-0.6h6.5c0.5,0,1,0.2,1.4,0.6c0.4,0.4,0.6,0.9,0.6,1.4l0.1,38.3c0,5.9-1.6,10.4-4.9,13.7
		c-3.3,3.2-8.2,4.9-14.9,4.9C300.2,94.5,296.4,93.7,293.5,92.2z M311.3,65.4c1.5-2,2.4-4.5,2.4-7c0-0.4,0.1-1.3,0.1-2.5
		c0-1.3,0-2.1-0.1-2.5c-0.1-2.5-0.9-5-2.4-7c-1.5-1.9-3.7-2.9-6.7-2.9c-5.7,0-8.7,3.5-9.1,10.5l-0.1,1.9c0,8.3,3,12.4,9.1,12.4
		C307.6,68.3,309.8,67.3,311.3,65.4z"/>
	<path class="st0" d="M339.8,76.2c-2.1-1-4-2.5-5.3-4.4c-3.4-4.8-2.3-11.4,2.4-14.9c2.9-2.2,6.9-3.7,12-4.5l10.9-1.6v-1.7
		c0-2.3-0.6-4-1.7-5.2s-3-1.7-5.6-1.7c-1.5-0.1-2.9,0.3-4.2,1c-0.9,0.5-1.8,1.2-2.6,1.9l-1.3,1.3c-0.1,0.6-0.6,1-1.2,1H337
		c-0.5,0-0.9-0.2-1.2-0.5c-0.4-0.3-0.5-0.8-0.5-1.3c0-1.3,0.7-2.8,2-4.5c1.5-1.9,3.5-3.4,5.8-4.4c2.6-1.2,5.8-1.9,9.6-1.9
		c6.3,0,10.8,1.4,13.7,4.2c2.9,2.8,4.3,6.5,4.3,11.1v25c0,0.5-0.2,1-0.5,1.4c-0.4,0.4-0.9,0.6-1.4,0.6H362c-0.5,0-1-0.2-1.3-0.6
		c-0.4-0.4-0.6-0.8-0.6-1.4V72c-1.3,1.8-3,3.2-4.9,4.2c-2.5,1.2-5.2,1.7-7.9,1.6C344.7,77.9,342.1,77.3,339.8,76.2z M357.1,67.3
		c1.9-1.9,2.8-4.7,2.8-8.3v-1.6l-7.9,1.3c-6.1,1-9.1,3-9.1,6.1c-0.1,1.6,0.7,3.1,2.1,3.9c1.5,1,3.3,1.4,5,1.4
		C352.6,70.3,355.2,69.2,357.1,67.3z"/>
	<path class="st0" d="M391,72.2v2.9c0,0.5-0.2,1-0.6,1.4c-0.4,0.4-0.9,0.6-1.4,0.6h-6.4c-1,0-1.9-0.8-1.9-1.9c0,0,0,0,0,0V22.5
		c0-0.5,0.2-1,0.6-1.4c0.4-0.3,0.9-0.5,1.4-0.5h6.9c1-0.1,1.8,0.7,1.9,1.7c0,0.1,0,0.2,0,0.3v17.7c3-3.5,7-5.2,12.2-5.2
		c5.4,0,9.5,1.7,12.4,5.2c2.9,3.5,4.4,8,4.6,13.6c0,0.6,0.1,1.5,0.1,2.6s0,1.9-0.1,2.6c-0.2,5.7-1.7,10.3-4.6,13.7
		c-2.9,3.4-7,5.1-12.3,5.1C398.2,77.8,393.9,75.9,391,72.2z M409.7,58.8c0-0.5,0.1-1.3,0.1-2.4s0-1.8-0.1-2.4
		c-0.4-7-3.4-10.5-9.1-10.5c-2.9,0-5.1,0.9-6.7,2.8c-1.5,1.9-2.4,4.3-2.4,6.8c-0.1,0.6-0.1,1.7-0.1,3.1c0,1.4,0,2.4,0.1,3
		c0,2.6,0.9,5.1,2.4,7.2c1.5,2,3.7,2.9,6.8,2.9C406.3,69.3,409.3,65.7,409.7,58.8L409.7,58.8z"/>
	<path class="st0" d="M434.2,91.7c-0.3-0.3-0.5-0.7-0.5-1.1c0-0.4,0.1-0.9,0.3-1.3l6.3-14.7l-15.3-36c-0.2-0.3-0.3-0.7-0.3-1.1
		c0-0.5,0.2-0.9,0.6-1.2c0.3-0.3,0.7-0.5,1.2-0.5h6.6c0.9,0,1.8,0.6,2.1,1.5l10.6,25.9l10.8-25.9c0.4-0.9,1.2-1.5,2.2-1.5h6.4
		c0.4,0,0.9,0.2,1.2,0.5c0.3,0.3,0.5,0.7,0.5,1.1c0,0.4-0.1,0.9-0.3,1.3L444,90.6c-0.3,0.9-1.2,1.6-2.2,1.5h-6.4
		C435,92.1,434.5,92,434.2,91.7z"/>
	<path class="st0" d="M481.5,73.3c-2.4-2.5-3.7-6.2-3.7-11.1v-18h-6.3c-1,0-1.9-0.8-1.9-1.9v-4.7c0-1.1,0.8-1.9,1.9-1.9c0,0,0,0,0,0
		h6.3V22.5c0-0.5,0.2-1,0.6-1.4c0.4-0.3,0.9-0.5,1.4-0.5h6.6c1-0.1,1.8,0.7,1.9,1.7c0,0.1,0,0.2,0,0.3v13.2h9.9
		c1.1,0,1.9,0.9,1.9,1.9c0,0,0,0,0,0v4.7c0,1.1-0.8,1.9-1.9,1.9c0,0,0,0,0,0h-9.9v17.1c0,2.3,0.4,4,1.2,5.2c0.8,1.2,2.1,1.7,3.9,1.7
		h5.6c1-0.1,1.8,0.7,1.9,1.7c0,0.1,0,0.2,0,0.3v5c0,0.5-0.2,1-0.5,1.4c-0.4,0.4-0.9,0.6-1.4,0.6h-6.5
		C487.6,77,483.9,75.8,481.5,73.3z"/>
	<path class="st0" d="M511.7,72.7c-3.5-3.4-5.3-8.2-5.5-14.5l-0.1-2c0-6.6,1.7-11.8,5.2-15.7c3.5-3.8,8.3-5.7,14.4-5.7
		c6.3,0,11.2,1.9,14.6,5.7c3.4,3.8,5.1,8.9,5.2,15.3v1.7c0,0.5-0.2,1-0.6,1.4c-0.4,0.4-0.9,0.6-1.4,0.6H517v0.6
		c0,2.7,0.9,5.2,2.4,7.4c1.5,1.9,3.8,3,6.2,2.9c2.9,0.1,5.7-1.3,7.4-3.7c0.3-0.4,0.7-0.8,1.1-1.1c0.4-0.2,0.9-0.2,1.4-0.2h7
		c0.4,0,0.9,0.1,1.2,0.4c0.3,0.3,0.5,0.7,0.5,1.1c0,1.3-0.8,2.8-2.3,4.5c-1.8,1.9-4,3.5-6.5,4.5c-3.1,1.3-6.4,2-9.8,1.9
		C519.8,77.8,515.1,76.1,511.7,72.7z M534.4,52.7v-0.2c0-3.1-0.8-5.6-2.3-7.5c-1.6-1.9-3.9-2.9-6.4-2.8c-2.4-0.1-4.8,0.9-6.4,2.8
		c-1.5,1.9-2.3,4.4-2.3,7.5v0.2H534.4z"/>
	<path class="st0" d="M556.4,76.4c-0.4-0.4-0.6-0.9-0.6-1.4V23.4c0-0.5,0.2-1.1,0.6-1.5c0.4-0.4,0.9-0.6,1.4-0.6h20.9
		c7.8,0,13.9,1.9,18.3,5.6c4.3,3.7,6.6,9.1,6.8,16.1c0.1,1.5,0.1,3.6,0.1,6.1c0,2.5,0,4.6-0.1,6c-0.5,14.6-8.8,21.9-24.7,21.9h-21.3
		C557.2,77,556.7,76.8,556.4,76.4z M578.7,65.1c3.3,0,5.8-0.8,7.4-2.4c1.6-1.6,2.4-4.1,2.5-7.6c0.1-1.5,0.2-3.5,0.2-6
		s-0.1-4.4-0.2-5.9c-0.1-3.4-1-5.9-2.7-7.5c-1.7-1.6-4.2-2.4-7.6-2.4h-7.6v31.8L578.7,65.1z"/>
	<path class="st0" d="M613.5,76.4c-0.4-0.4-0.6-0.9-0.6-1.4V23.4c0-0.5,0.2-1.1,0.6-1.5c0.4-0.4,0.9-0.6,1.4-0.6h24.6
		c6.7,0,11.7,1.4,15,4.1c3.3,2.8,4.9,6.7,4.9,11.8c0.1,2.4-0.7,4.7-2,6.6c-1.2,1.7-2.7,3.1-4.5,4.1c2.2,1,4.1,2.7,5.5,4.7
		c1.5,2.2,2.3,4.8,2.2,7.5c0,5.4-1.8,9.5-5.3,12.5c-3.5,3-8.6,4.5-15.1,4.4h-25.3C614.4,77,613.9,76.8,613.5,76.4z M637.8,43.4
		c2,0,3.5-0.5,4.5-1.6c1.1-1.1,1.7-2.6,1.6-4.1c0.1-1.5-0.5-2.9-1.5-4c-1-1-2.6-1.6-4.6-1.6h-9.9v11.3L637.8,43.4z M638.5,66.3
		c2.1,0,3.7-0.6,4.8-1.8c2.3-2.5,2.3-6.4,0-8.9c-1.3-1.2-3-1.9-4.8-1.8h-10.7v12.5H638.5z"/>
	<path class="st0" d="M112.2,17.6c-22.1-22.1-57.9-22.1-79.9,0c-16,16-20.9,40-12.5,61c-3.9,3.9-7.6,7.9-11.1,12.2
		c-2,2.5-3.9,5.1-5.6,7.8c-0.9,1.4-1.6,2.8-2.2,4.4c-0.3,0.8-0.6,1.6-0.7,2.5c-0.2,1-0.2,2,0.1,2.9c0.1,0.3,0.2,0.5,0.3,0.8
		c0.1,0.3,0.3,0.5,0.5,0.7c0.4,0.4,0.9,0.8,1.4,1c0.9,0.4,1.9,0.6,2.9,0.5c1.7-0.1,3.4-0.3,5-0.8c3.1-0.9,6.1-2.1,9-3.5
		c5-2.4,9.8-5.1,14.5-8.1c22.9,21.3,58.6,19.9,79.9-2.9c9.7-10.5,15.1-24.2,15.1-38.5l0,0C128.8,42.6,122.9,28.2,112.2,17.6z
		 M17.9,104.1c-2.7,1.4-5.5,2.6-8.4,3.6c-1.4,0.5-2.8,0.7-4.2,0.8c-0.6,0-1.2,0-1.7-0.2c-0.4-0.1-0.7-0.4-0.8-0.8
		c-0.2-0.6-0.2-1.2-0.1-1.7c0.1-0.7,0.3-1.4,0.5-2.1c0.5-1.4,1.1-2.8,1.9-4.1c1.5-2.7,3.1-5.3,5-7.8c3.1-4.4,6.5-8.7,10-12.9
		c2.7,6.6,6.6,12.6,11.4,17.7C27,99.3,22.5,101.9,17.9,104.1L17.9,104.1z M109.9,95.1c-20,20-52.2,20.8-73.2,1.9
		c5-3.3,9.9-6.6,14.7-10.1c5.1-3.7,10.1-7.6,14.9-11.6s9.7-8.1,14.3-12.3c4.6-4.3,9.2-8.6,13.7-13c-5,3.8-9.9,7.8-14.7,11.7
		s-9.9,7.7-14.9,11.5s-10,7.5-15.2,11c-5.1,3.6-10.1,7-15.4,10.3c-20.5-21-20.1-54.7,0.9-75.2s54.7-20.1,75.2,0.9
		C130.7,41.2,130.5,74.6,109.9,95.1L109.9,95.1z"/>
	<path class="st0" d="M144.9,3.7c0,0-13.8-2.2-18.5,1.8l-8.5,7.4l-0.8,0.7l-0.4,0.3c0,0-14.4-1-17.6,1.8L96,18.4l0,0l-1.2,1
		l-1.3,1.1l-0.3,0.3l6.7,7.7c-2.1,1.8-0.6,6.9,3.3,11.4s8.7,6.7,10.8,4.9l6.7,7.7l0.2-0.2l2.6-2.3l0,0l3.2-2.8
		c3.1-2.7,4.2-17.1,4.2-17.1l0.8-0.7l0.7-0.6l8.2-7.1C145.1,17.7,144.9,3.7,144.9,3.7z M103.2,25.6l0.5-0.4L103.2,25.6z M129,31.6
		l-0.5,0.4L129,31.6z"/>
</g>
</svg>
