<svg width="260" height="36" viewBox="0 0 260 36" fill="none" xmlns="http://www.w3.org/2000/svg">
<path d="M255.242 12.272C256.893 11.414 258.479 9.529 258.479 6.968C258.479 2.574 255.008 0.142998 250.133 0.142998H239.772V26.845H250.497C256.1 26.845 259.818 23.92 259.818 18.915C259.818 15.379 257.738 13.195 255.242 12.272ZM244.751 4.16H249.691C252.434 4.16 253.773 5.317 253.773 7.397C253.773 9.477 252.434 10.569 249.743 10.569H244.738V4.16H244.751ZM249.938 22.451H244.751V14.833H249.938C253.357 14.833 254.995 16.237 254.995 18.681C254.995 21.112 253.357 22.451 249.938 22.451Z" fill="white"/>
<path d="M222.079 0.142998H213.421V26.845H222.079C229.515 26.845 235.794 22.399 235.794 13.494C235.794 4.589 229.515 0.142998 222.079 0.142998ZM221.715 22.451H218.478V4.472H221.715C226.291 4.472 230.672 6.851 230.672 13.494C230.672 20.137 226.291 22.451 221.715 22.451Z" fill="white"/>
<path d="M205.244 20.449C204.75 22.282 203.177 23.257 200.733 23.257C197.808 23.257 195.793 21.307 195.429 18.2H209.638C209.716 17.68 209.755 17.147 209.755 16.614C209.755 11.973 206.83 7.28 200.369 7.28C193.908 7.28 190.918 12.09 190.918 17.16C190.918 22.217 194.454 27.157 200.733 27.157C205.491 27.157 209.079 24.531 209.82 20.449H205.244ZM200.369 10.816C203.177 10.816 204.815 12.649 205.062 15.08H195.546C196.04 12.22 197.756 10.816 200.369 10.816Z" fill="white"/>
<path d="M189.345 11.544V7.579H184.041V1.794H179.348V7.592H175.565V11.557H179.348V20.15C179.348 24.414 182.091 26.858 186.29 26.858H189.345V22.88H186.784C185.081 22.88 184.041 21.905 184.041 19.955V11.544H189.345Z" fill="white"/>
<path d="M169.702 7.57899L165.308 20.813L160.81 7.57899H156.052L163.059 26.845L160.381 34.645H164.827L167.817 25.922L174.525 7.57899H169.702Z" fill="white"/>
<path d="M146.419 7.28C143.923 7.28 141.843 8.372 140.751 9.958V0.155998H136.058V26.845H140.751V24.466C141.843 26.117 143.988 27.144 146.302 27.144C152.1 27.144 155.506 23.127 155.506 17.199C155.506 11.297 152.087 7.28 146.419 7.28ZM145.626 23.127C142.519 23.127 140.439 20.748 140.439 17.212C140.439 13.676 142.506 11.362 145.626 11.362C148.733 11.362 150.813 13.676 150.813 17.212C150.813 20.748 148.733 23.127 145.626 23.127Z" fill="white"/>
<path d="M123.552 7.28C118.547 7.28 115.323 10.27 115.076 14.105H119.288C119.353 12.402 120.874 10.816 123.37 10.816C125.866 10.816 127.27 12.155 127.27 14.04C127.27 14.768 126.841 15.327 125.866 15.327H122.33C118.001 15.327 115.076 17.641 115.076 21.424C115.076 24.713 117.702 27.157 121.472 27.157C124.28 27.157 126.464 25.883 127.257 23.985V26.845H131.898V14.469C131.911 10.14 128.44 7.28 123.552 7.28ZM127.27 18.733C127.27 21.593 125.567 23.673 122.642 23.673C120.874 23.673 119.652 22.698 119.652 21.177C119.652 19.526 120.991 18.434 122.941 18.434H127.27V18.733Z" fill="white"/>
<path d="M83.746 7.57899V18.122C83.746 20.93 81.861 22.997 79.235 22.997C76.609 22.997 75.218 21.164 75.218 18.551V7.57899H70.59V19.526C70.59 24.037 73.268 27.144 77.727 27.144C80.47 27.144 82.667 25.987 83.759 23.855V26.845H88.452V7.57899H83.746Z" fill="white"/>
<path d="M63.323 7.57899L58.877 20.813L54.418 7.57899H49.66L56.68 26.845L54.002 34.645H58.448L61.438 25.922L68.146 7.57899H63.323Z" fill="white"/>
<path d="M106.548 7.579V9.776C105.456 8.307 103.376 7.28 100.932 7.28C95.199 7.28 91.845 11.362 91.845 17.212C91.845 23.062 95.199 27.157 100.997 27.157C103.805 27.157 105.625 26.182 106.6 24.726V25.038C106.6 28.639 105.443 31.07 101.66 31.07C99.281 31.07 98.059 30.095 97.266 28.21H92.573C93.613 32.903 96.785 34.97 101.66 34.97C107.757 34.97 111.046 31.317 111.046 25.038L111.228 7.605L106.548 7.579ZM101.673 23.127C98.566 23.127 96.486 20.748 96.486 17.212C96.486 13.676 98.553 11.362 101.673 11.362C104.78 11.362 106.912 13.676 106.912 17.212C106.912 20.748 104.845 23.127 101.673 23.127Z" fill="white"/>
<path d="M10.4 0.142998C11.271 0.142998 11.7 0.142998 12.038 0.311998C12.324 0.454998 12.571 0.701998 12.714 0.987998C12.883 1.326 12.883 1.755 12.883 2.626V13.559C12.883 14.859 12.883 15.509 12.61 15.899C12.376 16.25 11.999 16.484 11.583 16.549C11.102 16.627 10.517 16.354 9.34701 15.808L6.27901 14.378C4.06901 13.351 2.96401 12.831 2.15801 12.038C1.44301 11.336 0.897007 10.478 0.559007 9.529C0.182007 8.476 0.182007 7.254 0.182007 4.81V2.626C0.182007 1.755 0.182007 1.326 0.351007 0.987998C0.494007 0.701998 0.741007 0.454998 1.02701 0.311998C1.36501 0.142998 1.79401 0.142998 2.66501 0.142998H10.4Z" fill="#FF6542"/>
<path d="M35.815 0.142998C36.686 0.142998 37.115 0.142998 37.453 0.311998C37.752 0.454998 37.986 0.701998 38.129 0.987998C38.298 1.326 38.298 1.755 38.298 2.626V4.81C38.298 7.254 38.298 8.476 37.921 9.542C37.583 10.491 37.037 11.349 36.322 12.051C35.516 12.844 34.411 13.364 32.201 14.391L25.597 17.472V2.626C25.597 1.755 25.597 1.326 25.766 0.987998C25.909 0.701998 26.156 0.454998 26.442 0.311998C26.78 0.142998 27.209 0.142998 28.08 0.142998H35.815Z" fill="#FF6542"/>
<path d="M25.597 17.472V32.318C25.597 33.189 25.597 33.618 25.428 33.956C25.285 34.255 25.038 34.489 24.752 34.632C24.414 34.801 23.985 34.801 23.114 34.801H15.379C14.508 34.801 14.079 34.801 13.741 34.632C13.455 34.489 13.208 34.242 13.065 33.956C12.896 33.618 12.896 33.189 12.896 32.318V30.134C12.896 27.69 12.896 26.468 13.273 25.402C13.611 24.453 14.157 23.595 14.872 22.893C15.678 22.1 16.783 21.58 18.993 20.553L25.597 17.472Z" fill="#FF6542"/>
</svg>
