<svg width="32" height="30" viewBox="0 0 32 30" fill="none" xmlns="http://www.w3.org/2000/svg">
<path d="M8.66915 0.177454C9.3906 0.177454 9.75133 0.177454 10.0277 0.317091C10.2691 0.439273 10.467 0.637091 10.5921 0.881454C10.7317 1.15782 10.7317 1.51855 10.7317 2.24V11.3076C10.7317 12.384 10.7317 12.9222 10.5048 13.2509C10.307 13.5389 10.0015 13.7338 9.65533 13.792C9.2597 13.8589 8.77388 13.632 7.79642 13.1753L5.25679 11.9913C3.42406 11.136 2.50479 10.7084 1.83569 10.048C1.24224 9.46327 0.788421 8.75345 0.512058 7.968C0.197876 7.08364 0.197876 6.07127 0.197876 4.04655V2.23709C0.197876 1.51564 0.197876 1.15491 0.337512 0.878545C0.459694 0.637091 0.657512 0.439273 0.901876 0.314182C1.17824 0.174545 1.53897 0.174545 2.26042 0.174545H8.66915V0.177454Z" fill="#FF6947"/>
<path d="M29.7397 0.17746C30.4612 0.17746 30.8219 0.17746 31.0983 0.317096C31.3397 0.439278 31.5375 0.637096 31.6626 0.88146C31.8023 1.15782 31.8022 1.51855 31.8022 2.24001V4.04946C31.8022 6.07419 31.8023 7.08364 31.4881 7.97091C31.2088 8.75637 30.7579 9.46619 30.1644 10.0509C29.4924 10.7113 28.5761 11.1389 26.7433 11.9942L21.2684 14.5455V2.24001C21.2684 1.51855 21.2684 1.15782 21.4081 0.88146C21.5303 0.640005 21.7281 0.442187 21.9724 0.317096C22.2488 0.17746 22.6095 0.17746 23.331 0.17746H29.7397Z" fill="#FF6947"/>
<path d="M21.2684 14.5455V26.8538C21.2684 27.5753 21.2684 27.936 21.1288 28.2124C21.0066 28.4538 20.8088 28.6516 20.5644 28.7767C20.2881 28.9164 19.9273 28.9164 19.2059 28.9164H12.7972C12.0757 28.9164 11.715 28.9164 11.4386 28.7767C11.1972 28.6545 10.9993 28.4567 10.8743 28.2124C10.7346 27.936 10.7346 27.5753 10.7346 26.8538V25.0415C10.7346 23.0167 10.7346 22.0073 11.0488 21.12C11.3252 20.3345 11.779 19.6247 12.3724 19.04C13.0444 18.3796 13.9608 17.952 15.7935 17.0967L21.2684 14.5455Z" fill="#FF6947"/>
</svg>
