
    <svg xmlns="http://www.w3.org/2000/svg" viewBox="0 0 126.9 115.12">
      <path style="fill:#f75821;fill-rule:evenodd;" d="M110.8.23H58.39a16.1,16.1,0,0,0-16.1,16.1v14H16.1A16.1,16.1,0,0,0,0,46.39V98.8a16.1,16.1,0,0,0,16.1,16.09H68.5A16.1,16.1,0,0,0,84.6,98.8v-14h26.2a16.09,16.09,0,0,0,16.1-16.09V16.33A16.1,16.1,0,0,0,110.8.23Z"/>
      <path style="fill:#fff;" d="M63.09,12.5h29.3c10.9,0,17,6.79,17,15.19,0,7.5-4.82,12.51-10.36,13.67,6.34,1,11.53,7.33,11.53,14.65,0,9.2-6.17,16.08-17.33,16.08H63.09ZM90.25,37.15c5.36,0,8.4-3.22,8.4-7.68s-3-7.77-8.4-7.77H73.54V37.15Zm.45,25.73c5.72,0,9.11-3.13,9.11-8.31,0-4.47-3.13-8.22-9.11-8.22H73.54V62.88Z"/>
      <polygon style="fill:#fff;" points="58.77 43.45 42.39 69.19 25.83 43.45 13.77 43.45 37.08 78.55 37.08 114.89 47.61 114.89 47.61 78.55 58.77 61.68 58.77 43.45"/>
    </svg>
