<svg id="Layer_1" data-name="Layer 1" xmlns="http://www.w3.org/2000/svg" viewBox="0 0 587.16 115.12"><defs><style>.cls-1,.cls-3{fill:#f75821;}.cls-2{fill:#fff;}.cls-3{fill-rule:evenodd;}</style></defs><title>yb</title><path class="cls-1" d="M175.87,63.91,147.93,21.09h17.61l18,29.13,17.83-29.13H219L191.3,63.91V93.59H175.87Z"/><path class="cls-1" d="M253.22,85.65a24.57,24.57,0,0,1-18.48,7.93c-11.52,0-17-6.3-17-16.52V39.78h13.81V71.63c0,7.28,3.8,9.67,9.67,9.67a15.45,15.45,0,0,0,12-6V39.78H267v53.5H253.22Z"/><path class="cls-1" d="M284.26,97.07c4.24,4.67,9.78,6.52,16.41,6.52s14.46-2.93,14.46-13.26V85c-4.13,5.22-9.78,8.26-16.2,8.26-13.15,0-23.15-9.24-23.15-26.74,0-17.17,9.89-26.74,23.15-26.74a20.22,20.22,0,0,1,16.2,8V40.09H329V90c0,20-15.43,24.89-28.37,24.89-9,0-16-2.07-22.61-7.83Zm30.87-39c-2.28-3.48-7.28-6-11.85-6-7.83,0-13.26,5.43-13.26,14.46S295.45,81,303.28,81c4.56,0,9.56-2.61,11.85-6Z"/><path class="cls-1" d="M370.69,88.15c-3.59,4.24-9.78,4.74-16.63,4.74-8.37,0-18.26-3.65-18.26-15.39,0-12.28,9.89-16.74,18.26-16.74,7,0,13.15,2.17,16.63,6.41V59.89c0-5.33-4.57-8.8-11.52-8.8a22.09,22.09,0,0,0-15.33,6.2L338.63,48a34.44,34.44,0,0,1,22.93-8.26c12,0,22.93,4.78,22.93,19.89V93.59h-13.8Zm0-13.7c-2.28-3-6.63-4.57-11.09-4.57-5.43,0-9.89,2.83-9.89,7.94,0,4.89,4.46,7.72,9.89,7.72,4.46,0,8.8-1.52,11.09-4.57Z"/><path class="cls-2" d="M397.74,93.58V21.08h29.78c12.17,0,20,7.07,20,18.48,0,9.13-6.2,15.33-12.72,16.63,7.72,1.2,14.13,9.24,14.13,17.83,0,12.07-7.83,19.57-20.76,19.57ZM441,40.21c0-7.39-4.89-13.48-14.24-13.48H403.94V53.58h22.83C436.11,53.58,441,47.71,441,40.21Zm1.41,33.37c0-7.39-5.11-14.35-15.22-14.35H403.94v28.7H427.2C436.77,87.92,442.42,82.38,442.42,73.58Z"/><path class="cls-2" d="M458.87,107.9a13.09,13.09,0,0,0,4.57.87c3.48,0,5.87-1.41,8-6.41L475.61,93,453.33,40.08h6.31l19.13,45.87,18.91-45.87h6.41l-27.17,64c-2.83,6.63-7.28,9.78-13.37,9.78a22.23,22.23,0,0,1-5.65-.76Z"/><path class="cls-2" d="M517.74,82.05V44.66H509v-5h8.7V25.31h5.76V39.66h10.65v5H523.5V81.18c0,4.24,1.74,7.17,5.43,7.17a8.2,8.2,0,0,0,5.87-2.5L537,90.21c-2.07,2-4.57,3.26-8.91,3.26C521.11,93.47,517.74,89.23,517.74,82.05Z"/><path class="cls-2" d="M538.61,66.77c0-14.78,10.34-26.7,24.49-26.7,15.52,0,24.06,12.24,24.06,27v1.48H544.52c.53,11.08,7.92,20.27,19.95,20.27a22.4,22.4,0,0,0,16.68-7.07L584,85.34c-5.07,5.28-11.5,8.23-19.95,8.23C549.16,93.58,538.61,82.49,538.61,66.77Zm24.38-22c-12,0-18,10.55-18.47,19.42h37C581.46,55.58,575.76,44.81,563,44.81Z"/><path class="cls-3" d="M110.8.23H58.39a16.1,16.1,0,0,0-16.1,16.1v14H16.1A16.1,16.1,0,0,0,0,46.39V98.8a16.1,16.1,0,0,0,16.1,16.09H68.5A16.1,16.1,0,0,0,84.6,98.8v-14h26.2a16.09,16.09,0,0,0,16.1-16.09V16.33A16.1,16.1,0,0,0,110.8.23Z"/><path class="cls-2" d="M63.09,12.5h29.3c10.9,0,17,6.79,17,15.19,0,7.5-4.82,12.51-10.36,13.67,6.34,1,11.53,7.33,11.53,14.65,0,9.2-6.17,16.08-17.33,16.08H63.09ZM90.25,37.15c5.36,0,8.4-3.22,8.4-7.68s-3-7.77-8.4-7.77H73.54V37.15Zm.45,25.73c5.72,0,9.11-3.13,9.11-8.31,0-4.47-3.13-8.22-9.11-8.22H73.54V62.88Z"/><polygon class="cls-2" points="58.77 43.45 42.39 69.19 25.83 43.45 13.77 43.45 37.08 78.55 37.08 114.89 47.61 114.89 47.61 78.55 58.77 61.68 58.77 43.45"/></svg>
