<svg width="134" height="18" viewBox="0 0 134 18" fill="none" xmlns="http://www.w3.org/2000/svg">
<g opacity="0.3" clip-path="url(#clip0_4_372)">
<path d="M130.893 6.2933C131.74 5.8533 132.553 4.88664 132.553 3.5733C132.553 1.31997 130.773 0.0733032 128.273 0.0733032H122.96V13.7666H128.46C131.333 13.7666 133.24 12.2666 133.24 9.69997C133.24 7.88664 132.173 6.76664 130.893 6.2933ZM125.513 2.1333H128.047C129.453 2.1333 130.14 2.72664 130.14 3.7933C130.14 4.85997 129.453 5.41997 128.073 5.41997H125.507V2.1333H125.513ZM128.173 11.5133H125.513V7.60664H128.173C129.927 7.60664 130.767 8.32664 130.767 9.57997C130.767 10.8266 129.927 11.5133 128.173 11.5133Z" fill="black"/>
<path d="M113.887 0.0733032H109.447V13.7666H113.887C117.7 13.7666 120.92 11.4866 120.92 6.91997C120.92 2.3533 117.7 0.0733032 113.887 0.0733032ZM113.7 11.5133H112.04V2.2933H113.7C116.047 2.2933 118.293 3.5133 118.293 6.91997C118.293 10.3266 116.047 11.5133 113.7 11.5133Z" fill="black"/>
<path d="M105.253 10.4866C105 11.4266 104.193 11.9266 102.94 11.9266C101.44 11.9266 100.406 10.9266 100.22 9.33328H107.506C107.546 9.06661 107.566 8.79328 107.566 8.51994C107.566 6.13994 106.066 3.73328 102.753 3.73328C99.4398 3.73328 97.9065 6.19994 97.9065 8.79994C97.9065 11.3933 99.7198 13.9266 102.94 13.9266C105.38 13.9266 107.22 12.5799 107.6 10.4866H105.253ZM102.753 5.54661C104.193 5.54661 105.033 6.48661 105.16 7.73328H100.28C100.533 6.26661 101.413 5.54661 102.753 5.54661Z" fill="black"/>
<path d="M97.0999 5.91998V3.88665H94.3799V0.919983H91.9732V3.89332H90.0332V5.92665H91.9732V10.3333C91.9732 12.52 93.3799 13.7733 95.5332 13.7733H97.0999V11.7333H95.7865C94.9132 11.7333 94.3799 11.2333 94.3799 10.2333V5.91998H97.0999Z" fill="black"/>
<path d="M87.0266 3.88666L84.7733 10.6733L82.4666 3.88666H80.0266L83.6199 13.7667L82.2466 17.7667H84.5266L86.0599 13.2933L89.4999 3.88666H87.0266Z" fill="black"/>
<path d="M75.0865 3.73329C73.8065 3.73329 72.7399 4.29329 72.1799 5.10662V0.0799561H69.7732V13.7666H72.1799V12.5466C72.7399 13.3933 73.8399 13.92 75.0265 13.92C77.9999 13.92 79.7465 11.86 79.7465 8.81996C79.7465 5.79329 77.9932 3.73329 75.0865 3.73329ZM74.6799 11.86C73.0865 11.86 72.0199 10.64 72.0199 8.82662C72.0199 7.01329 73.0799 5.82662 74.6799 5.82662C76.2732 5.82662 77.3399 7.01329 77.3399 8.82662C77.3399 10.64 76.2732 11.86 74.6799 11.86Z" fill="black"/>
<path d="M63.3599 3.73328C60.7932 3.73328 59.1399 5.26661 59.0132 7.23328H61.1732C61.2065 6.35994 61.9865 5.54661 63.2665 5.54661C64.5465 5.54661 65.2665 6.23328 65.2665 7.19994C65.2665 7.57328 65.0465 7.85994 64.5465 7.85994H62.7332C60.5132 7.85994 59.0132 9.04661 59.0132 10.9866C59.0132 12.6733 60.3599 13.9266 62.2932 13.9266C63.7332 13.9266 64.8532 13.2733 65.2599 12.2999V13.7666H67.6398V7.41994C67.6465 5.19994 65.8665 3.73328 63.3599 3.73328ZM65.2665 9.60661C65.2665 11.0733 64.3932 12.1399 62.8932 12.1399C61.9865 12.1399 61.3599 11.6399 61.3599 10.8599C61.3599 10.0133 62.0465 9.45328 63.0465 9.45328H65.2665V9.60661Z" fill="black"/>
<path d="M42.9466 3.88666V9.29332C42.9466 10.7333 41.98 11.7933 40.6333 11.7933C39.2866 11.7933 38.5733 10.8533 38.5733 9.51332V3.88666H36.2V10.0133C36.2 12.3267 37.5733 13.92 39.86 13.92C41.2666 13.92 42.3933 13.3267 42.9533 12.2333V13.7667H45.36V3.88666H42.9466Z" fill="black"/>
<path d="M32.4732 3.88666L30.1932 10.6733L27.9066 3.88666H25.4666L29.0666 13.7667L27.6932 17.7667H29.9732L31.5066 13.2933L34.9466 3.88666H32.4732Z" fill="black"/>
<path d="M54.6399 3.88661V5.01328C54.0799 4.25994 53.0132 3.73328 51.7599 3.73328C48.8199 3.73328 47.0999 5.82661 47.0999 8.82661C47.0999 11.8266 48.8199 13.9266 51.7932 13.9266C53.2332 13.9266 54.1665 13.4266 54.6665 12.6799V12.8399C54.6665 14.6866 54.0732 15.9333 52.1332 15.9333C50.9132 15.9333 50.2865 15.4333 49.8799 14.4666H47.4732C48.0065 16.8733 49.6332 17.9333 52.1332 17.9333C55.2599 17.9333 56.9465 16.0599 56.9465 12.8399L57.0399 3.89994L54.6399 3.88661ZM52.1399 11.8599C50.5465 11.8599 49.4799 10.6399 49.4799 8.82661C49.4799 7.01328 50.5399 5.82661 52.1399 5.82661C53.7332 5.82661 54.8265 7.01328 54.8265 8.82661C54.8265 10.6399 53.7665 11.8599 52.1399 11.8599Z" fill="black"/>
<path d="M5.33326 0.0733032C5.77993 0.0733032 5.99993 0.0733032 6.17326 0.15997C6.31993 0.233303 6.44659 0.35997 6.51993 0.506637C6.60659 0.67997 6.60659 0.89997 6.60659 1.34664V6.9533C6.60659 7.61997 6.60659 7.9533 6.46659 8.1533C6.34659 8.3333 6.15326 8.4533 5.93993 8.48664C5.69326 8.52664 5.39326 8.38664 4.79326 8.10664L3.21993 7.3733C2.08659 6.84664 1.51993 6.57997 1.1066 6.1733C0.739928 5.8133 0.459928 5.3733 0.286595 4.88664C0.0932617 4.34664 0.0932617 3.71997 0.0932617 2.46664V1.34664C0.0932617 0.89997 0.0932617 0.67997 0.179928 0.506637C0.253262 0.35997 0.379928 0.233303 0.526595 0.15997C0.699928 0.0733032 0.919928 0.0733032 1.3666 0.0733032H5.33326Z" fill="black"/>
<path d="M18.3667 0.0733032C18.8134 0.0733032 19.0334 0.0733032 19.2067 0.15997C19.36 0.233303 19.48 0.35997 19.5534 0.506637C19.64 0.67997 19.64 0.89997 19.64 1.34664V2.46664C19.64 3.71997 19.64 4.34664 19.4467 4.8933C19.2734 5.37997 18.9934 5.81997 18.6267 6.17997C18.2134 6.58664 17.6467 6.8533 16.5134 7.37997L13.1267 8.95997V1.34664C13.1267 0.89997 13.1267 0.67997 13.2134 0.506637C13.2867 0.35997 13.4134 0.233303 13.56 0.15997C13.7334 0.0733032 13.9534 0.0733032 14.4 0.0733032H18.3667Z" fill="black"/>
<path d="M13.1266 8.95996V16.5733C13.1266 17.02 13.1266 17.24 13.0399 17.4133C12.9666 17.5666 12.8399 17.6866 12.6933 17.76C12.5199 17.8466 12.2999 17.8466 11.8533 17.8466H7.88661C7.43995 17.8466 7.21995 17.8466 7.04661 17.76C6.89995 17.6866 6.77328 17.56 6.69995 17.4133C6.61328 17.24 6.61328 17.02 6.61328 16.5733V15.4533C6.61328 14.2 6.61328 13.5733 6.80661 13.0266C6.97995 12.54 7.25995 12.1 7.62661 11.74C8.03995 11.3333 8.60662 11.0666 9.73995 10.54L13.1266 8.95996Z" fill="black"/>
</g>
<defs>
<clipPath id="clip0_4_372">
<rect width="133.333" height="18" fill="white"/>
</clipPath>
</defs>
</svg>
