<?xml version="1.0" encoding="utf-8"?>
<!-- Generator: Adobe Illustrator 21.0.0, SVG Export Plug-In . SVG Version: 6.00 Build 0)  -->
<svg version="1.1" id="Layer_1" xmlns="http://www.w3.org/2000/svg" xmlns:xlink="http://www.w3.org/1999/xlink" x="0px" y="0px"
	 viewBox="0 0 587.2 115.1" fill="#a3a6b4" style="enable-background:new 0 0 587.2 115.1;" xml:space="preserve">
<title>yb</title>
<path d="M175.9,63.9l-27.9-42.8h17.6l18,29.1l17.8-29.1H219l-27.7,42.8v29.7h-15.4V63.9z"/>
<path d="M253.2,85.7c-4.7,5.2-11.5,8-18.5,7.9c-11.5,0-17-6.3-17-16.5V39.8h13.8v31.9c0,7.3,3.8,9.7,9.7,9.7c4.7-0.1,9.1-2.3,12-6
	V39.8H267v53.5h-13.8V85.7z"/>
<path d="M284.3,97.1c4.2,4.7,9.8,6.5,16.4,6.5s14.5-2.9,14.5-13.3V85c-4.1,5.2-9.8,8.3-16.2,8.3c-13.1,0-23.1-9.2-23.1-26.7
	c0-17.2,9.9-26.7,23.1-26.7c6.4,0,12.4,2.9,16.2,8v-7.7H329V90c0,20-15.4,24.9-28.4,24.9c-9,0-16-2.1-22.6-7.8L284.3,97.1z
	 M315.1,58.1c-2.3-3.5-7.3-6-11.9-6c-7.8,0-13.3,5.4-13.3,14.5S295.5,81,303.3,81c4.6,0,9.6-2.6,11.9-6V58.1z"/>
<path d="M370.7,88.2c-3.6,4.2-9.8,4.7-16.6,4.7c-8.4,0-18.3-3.7-18.3-15.4c0-12.3,9.9-16.7,18.3-16.7c7,0,13.1,2.2,16.6,6.4v-7.3
	c0-5.3-4.6-8.8-11.5-8.8c-5.7,0-11.2,2.2-15.3,6.2l-5.2-9.3c6.4-5.5,14.5-8.4,22.9-8.3c12,0,22.9,4.8,22.9,19.9v34h-13.8V88.2z
	 M370.7,74.5c-2.3-3-6.6-4.6-11.1-4.6c-5.4,0-9.9,2.8-9.9,7.9c0,4.9,4.5,7.7,9.9,7.7c4.5,0,8.8-1.5,11.1-4.6V74.5z"/>
<path d="M397.7,93.6V21.1h29.8c12.2,0,20,7.1,20,18.5c0,9.1-6.2,15.3-12.7,16.6c7.7,1.2,14.1,9.2,14.1,17.8
	c0,12.1-7.8,19.6-20.8,19.6L397.7,93.6z M441,40.2c0-7.4-4.9-13.5-14.2-13.5h-22.8v26.9h22.8C436.1,53.6,441,47.7,441,40.2z
	 M442.4,73.6c0-7.4-5.1-14.4-15.2-14.4h-23.2v28.7h23.3C436.8,87.9,442.4,82.4,442.4,73.6L442.4,73.6z"/>
<path d="M458.9,107.9c1.5,0.6,3,0.9,4.6,0.9c3.5,0,5.9-1.4,8-6.4l4.2-9.4l-22.3-52.9h6.3L478.8,86l18.9-45.9h6.4l-27.2,64
	c-2.8,6.6-7.3,9.8-13.4,9.8c-1.9,0-3.8-0.3-5.6-0.8L458.9,107.9z"/>
<path d="M517.7,82.1V44.7H509v-5h8.7V25.3h5.8v14.3h10.7v5h-10.6v36.5c0,4.2,1.7,7.2,5.4,7.2c2.2,0,4.3-0.9,5.9-2.5l2.2,4.4
	c-2.1,2-4.6,3.3-8.9,3.3C521.1,93.5,517.7,89.2,517.7,82.1z"/>
<path d="M538.6,66.8c0-14.8,10.3-26.7,24.5-26.7c15.5,0,24.1,12.2,24.1,27v1.5h-42.6c0.5,11.1,7.9,20.3,20,20.3
	c6.3,0.1,12.4-2.5,16.7-7.1l2.8,3.6c-5.1,5.3-11.5,8.2-20,8.2C549.2,93.6,538.6,82.5,538.6,66.8z M563,44.8c-12,0-18,10.5-18.5,19.4
	h37C581.5,55.6,575.8,44.8,563,44.8L563,44.8z"/>
<g>
	<path d="M98.7,29.5c0-4.5-3-7.8-8.4-7.8H73.5v15.4h16.7C95.6,37.2,98.7,33.9,98.7,29.5z"/>
	<path d="M90.7,46.4H73.5v16.5h17.2c5.7,0,9.1-3.1,9.1-8.3C99.8,50.1,96.7,46.4,90.7,46.4z"/>
	<path d="M110.8,0.2H58.4c-8.9,0-16.1,7.2-16.1,16.1v14H16.1C7.2,30.3,0,37.5,0,46.4v52.4c0,8.9,7.2,16.1,16.1,16.1h21V78.6
		L13.8,43.5h12.1l16.6,25.7l16.4-25.7v18.2L47.6,78.6v36.3h20.9c8.9,0,16.1-7.2,16.1-16.1v-14h26.2c8.9,0,16.1-7.2,16.1-16.1
		c0,0,0,0,0,0V16.3C126.9,7.4,119.7,0.2,110.8,0.2z M93.2,72.1H63.1V12.5h29.3c10.9,0,17,6.8,17,15.2c0,7.5-4.8,12.5-10.4,13.7
		c6.3,1,11.5,7.3,11.5,14.7C110.6,65.2,104.4,72.1,93.2,72.1z"/>
</g>
</svg>
