<?xml version="1.0" encoding="UTF-8" standalone="no"?><!DOCTYPE svg PUBLIC "-//W3C//DTD SVG 1.1//EN" "http://www.w3.org/Graphics/SVG/1.1/DTD/svg11.dtd"><svg width="100%" height="100%" viewBox="0 0 31 36" version="1.1" xmlns="http://www.w3.org/2000/svg" xmlns:xlink="http://www.w3.org/1999/xlink" xml:space="preserve" style="fill-rule:evenodd;clip-rule:evenodd;stroke-linejoin:round;stroke-miterlimit:1.41421;"><path d="M25.143,34.429l-19.286,0c-1.594,0 -2.956,-0.566 -4.088,-1.698c-1.132,-1.132 -1.698,-2.494 -1.698,-4.088l0,-19.286c0,-1.594 0.566,-2.956 1.698,-4.088c1.132,-1.132 2.494,-1.698 4.088,-1.698l19.286,0c1.594,0 2.956,0.566 4.088,1.698c1.132,1.132 1.698,2.494 1.698,4.088l0,19.286c0,1.594 -0.566,2.956 -1.698,4.088c-1.132,1.132 -2.494,1.698 -4.088,1.698Zm-10.579,-4.429l0,-18.723l-2.107,0l0,18.723l2.107,0Zm3.979,0l0,-18.723l-2.107,0l0,18.723l2.107,0Zm-7.958,-7.723l0,-14.277l-2.106,0l0,14.277l2.106,0Zm11.936,0l0,-11l-2.106,0l0,11l2.106,0Z" style="fill:#fff;"/></svg>