<?xml version="1.0" encoding="utf-8"?>
<!-- Generator: Adobe Illustrator 23.0.1, SVG Export Plug-In . SVG Version: 6.00 Build 0)  -->
<svg version="1.1" id="Layer_1" xmlns="http://www.w3.org/2000/svg" xmlns:xlink="http://www.w3.org/1999/xlink" x="0px" y="0px"
	 viewBox="0 0 622.3 254.4" style="enable-background:new 0 0 622.3 254.4;" xml:space="preserve">
<style type="text/css">
	.st0{fill:#E01E5A;}
	.st1{fill:#36C5F0;}
	.st2{fill:#2EB67D;}
	.st3{fill:#ECB22E;}
</style>
<g>
	<g>
		<path d="M221.5,161.5l6.2-14.4c6.7,5,15.6,7.6,24.4,7.6c6.5,0,10.6-2.5,10.6-6.3c-0.1-10.6-38.9-2.3-39.2-28.9
			c-0.1-13.5,11.9-23.9,28.9-23.9c10.1,0,20.2,2.5,27.4,8.2l-5.8,14.7c-6.6-4.2-14.8-7.2-22.6-7.2c-5.3,0-8.8,2.5-8.8,5.7
			c0.1,10.4,39.2,4.7,39.6,30.1c0,13.8-11.7,23.5-28.5,23.5C241.4,170.6,230.1,167.7,221.5,161.5"/>
		<path d="M459.4,141.9c-3.1,5.4-8.9,9.1-15.6,9.1c-9.9,0-17.9-8-17.9-17.9s8-17.9,17.9-17.9c6.7,0,12.5,3.7,15.6,9.1l17.1-9.5
			c-6.4-11.4-18.7-19.2-32.7-19.2c-20.7,0-37.5,16.8-37.5,37.5c0,20.7,16.8,37.5,37.5,37.5c14.1,0,26.3-7.7,32.7-19.2L459.4,141.9z"
			/>
		<rect x="290.8" y="64.5" width="21.4" height="104.7"/>
		<polygon points="484.9,64.5 484.9,169.2 506.3,169.2 506.3,137.8 531.7,169.2 559.1,169.2 526.8,131.9 556.7,97.1 530.5,97.1 
			506.3,126 506.3,64.5 		"/>
		<path d="M375.8,142.1c-3.1,5.1-9.5,8.9-16.7,8.9c-9.9,0-17.9-8-17.9-17.9s8-17.9,17.9-17.9c7.2,0,13.6,4,16.7,9.2V142.1z
			 M375.8,97.1v8.5c-3.5-5.9-12.2-10-21.3-10c-18.8,0-33.6,16.6-33.6,37.4c0,20.8,14.8,37.6,33.6,37.6c9.1,0,17.8-4.1,21.3-10v8.5
			h21.4v-72H375.8z"/>
	</g>
	<g>
		<g>
			<path class="st0" d="M89.2,142c0,7.3-5.9,13.2-13.2,13.2s-13.2-5.9-13.2-13.2s5.9-13.2,13.2-13.2h13.2V142z"/>
			<path class="st0" d="M95.8,142c0-7.3,5.9-13.2,13.2-13.2s13.2,5.9,13.2,13.2V175c0,7.3-5.9,13.2-13.2,13.2s-13.2-5.9-13.2-13.2
				V142z"/>
		</g>
		<g>
			<path class="st1" d="M109,89c-7.3,0-13.2-5.9-13.2-13.2c0-7.3,5.9-13.2,13.2-13.2s13.2,5.9,13.2,13.2V89H109z"/>
			<path class="st1" d="M109,95.7c7.3,0,13.2,5.9,13.2,13.2c0,7.3-5.9,13.2-13.2,13.2H75.9c-7.3,0-13.2-5.9-13.2-13.2
				c0-7.3,5.9-13.2,13.2-13.2H109z"/>
		</g>
		<g>
			<path class="st2" d="M161.9,108.9c0-7.3,5.9-13.2,13.2-13.2s13.2,5.9,13.2,13.2c0,7.3-5.9,13.2-13.2,13.2h-13.2V108.9z"/>
			<path class="st2" d="M155.3,108.9c0,7.3-5.9,13.2-13.2,13.2s-13.2-5.9-13.2-13.2V75.8c0-7.3,5.9-13.2,13.2-13.2
				s13.2,5.9,13.2,13.2V108.9z"/>
		</g>
		<g>
			<path class="st3" d="M142.1,161.8c7.3,0,13.2,5.9,13.2,13.2c0,7.3-5.9,13.2-13.2,13.2s-13.2-5.9-13.2-13.2v-13.2H142.1z"/>
			<path class="st3" d="M142.1,155.2c-7.3,0-13.2-5.9-13.2-13.2s5.9-13.2,13.2-13.2h33.1c7.3,0,13.2,5.9,13.2,13.2
				s-5.9,13.2-13.2,13.2H142.1z"/>
		</g>
	</g>
</g>
</svg>
