<?xml version="1.0" standalone="no"?>
<!DOCTYPE svg PUBLIC "-//W3C//DTD SVG 20010904//EN"
 "http://www.w3.org/TR/2001/REC-SVG-20010904/DTD/svg10.dtd">
<svg version="1.0" xmlns="http://www.w3.org/2000/svg"
 width="700.000000pt" height="700.000000pt" viewBox="0 0 700.000000 700.000000"
 preserveAspectRatio="xMidYMid meet">
<metadata>
Created by potrace 1.14, written by Peter Selinger 2001-2017
</metadata>
<g transform="translate(0.000000,700.000000) scale(0.100000,-0.100000)"
fill="#000000" stroke="none">
<path d="M3407 5944 c-1 -1 -42 -4 -92 -8 -506 -36 -990 -230 -1385 -555 -64
-53 -270 -257 -318 -316 -249 -305 -403 -605 -496 -969 -33 -125 -38 -151 -51
-241 -3 -22 -7 -49 -10 -60 -22 -105 -23 -429 -1 -605 6 -46 18 -135 21 -150
22 -110 41 -184 71 -280 55 -176 56 -160 -16 -232 -343 -346 -633 -727 -720
-948 -12 -30 -24 -66 -27 -80 -2 -14 -8 -41 -12 -60 -19 -87 7 -181 65 -235
63 -59 96 -70 219 -70 125 1 212 22 415 102 175 69 543 258 717 370 29 18 58
33 65 33 7 0 29 -15 48 -33 72 -66 313 -238 358 -254 9 -4 19 -10 22 -13 11
-15 282 -140 375 -174 98 -35 251 -80 310 -91 119 -23 197 -36 240 -40 28 -3
72 -7 98 -11 62 -7 349 -8 402 0 22 3 65 8 95 11 30 3 78 10 105 15 28 5 61
11 75 14 193 33 455 126 660 233 516 269 939 739 1148 1275 41 104 107 318
117 381 3 18 8 39 10 47 4 17 15 79 21 128 2 17 7 49 10 70 13 82 11 469 -2
572 -18 145 -23 177 -34 223 -7 33 -4 55 20 127 15 47 31 100 34 116 23 123
47 267 52 309 2 28 6 59 9 70 2 11 4 37 4 59 1 42 12 55 130 156 152 129 292
252 318 280 50 52 85 130 117 255 28 110 51 312 51 443 0 73 -1 75 -25 79
-128 16 -209 21 -350 18 -91 -2 -178 -6 -195 -10 -16 -3 -49 -10 -72 -16 -71
-15 -144 -56 -218 -121 -95 -82 -183 -160 -285 -249 l-85 -75 -205 2 -206 2
-125 84 c-136 91 -153 100 -280 164 -280 141 -575 223 -899 249 -74 7 -288 13
-293 9z m228 -258 c66 -4 138 -9 160 -12 102 -13 294 -58 406 -95 121 -39 449
-192 449 -209 0 -4 -61 -60 -135 -124 -74 -64 -135 -120 -135 -125 0 -4 39
-53 86 -107 168 -193 183 -210 190 -217 4 -4 -1 -25 -11 -47 -108 -240 379
-790 614 -694 19 8 35 13 35 12 3 -6 182 -214 201 -234 11 -11 35 -39 54 -62
26 -33 36 -39 46 -29 32 31 85 77 89 77 4 0 14 -64 22 -141 11 -115 4 -433
-11 -489 -2 -8 -7 -40 -10 -70 -4 -30 -20 -107 -36 -170 -136 -531 -436 -964
-884 -1280 -170 -120 -421 -243 -600 -295 -33 -9 -80 -23 -105 -30 -85 -25
-212 -48 -360 -64 -78 -8 -399 -7 -437 2 -12 3 -46 8 -75 11 -203 22 -488 114
-708 228 -93 49 -292 176 -338 216 -13 11 -33 27 -45 35 -20 13 -17 17 88 87
134 89 499 346 517 363 7 7 47 37 88 67 41 30 82 60 90 67 8 6 89 69 180 139
91 70 167 130 170 134 3 3 25 21 50 40 25 19 50 40 55 46 6 5 35 30 65 55 53
42 323 272 346 294 6 5 41 37 78 70 95 84 103 91 275 254 304 287 392 376 396
399 5 27 -26 62 -54 62 -15 0 -367 -267 -425 -322 -31 -30 -446 -356 -647
-509 -467 -355 -849 -629 -1258 -902 l-224 -150 -34 39 c-216 250 -357 494
-455 789 -17 50 -32 97 -33 105 -61 264 -73 362 -73 580 0 151 8 247 33 409 7
45 41 180 65 256 166 537 553 1004 1057 1278 279 151 612 246 924 263 62 4
116 8 117 10 2 1 9 1 15 -1 7 -2 66 -6 132 -9z m-2332 -3313 c81 -160 192
-332 290 -448 28 -33 57 -67 64 -76 12 -15 1 -24 -107 -88 -66 -39 -123 -71
-126 -71 -2 0 -23 -12 -46 -26 -62 -39 -343 -179 -428 -212 -176 -70 -313
-100 -350 -77 -33 20 22 175 125 354 60 105 203 320 232 349 7 7 13 17 13 20
0 4 10 18 23 32 12 14 42 52 66 85 25 33 47 62 50 65 3 3 28 34 56 70 54 70
87 110 91 110 2 0 23 -39 47 -87z"/>
</g>
</svg>
