<?xml version="1.0" standalone="no"?>
<!DOCTYPE svg PUBLIC "-//W3C//DTD SVG 20010904//EN"
 "http://www.w3.org/TR/2001/REC-SVG-20010904/DTD/svg10.dtd">
<svg version="1.0" xmlns="http://www.w3.org/2000/svg"
 width="192.000000pt" height="192.000000pt" viewBox="0 0 192.000000 192.000000"
 preserveAspectRatio="xMidYMid meet">
<metadata>
Created by potrace 1.14, written by Peter Selinger 2001-2017
</metadata>
<g transform="translate(0.000000,192.000000) scale(0.100000,-0.100000)"
fill="#000000" stroke="none">
<path d="M68 1828 c-18 -3 -41 -17 -51 -30 -17 -21 -19 -39 -15 -218 4 -188 5
-197 31 -251 37 -77 97 -129 209 -182 300 -143 312 -148 349 -135 30 10 54 57
46 88 -3 11 -1 20 5 20 5 0 6 4 3 10 -5 8 -6 45 -4 150 0 8 0 35 0 60 0 25 0
52 0 60 0 8 0 35 0 60 0 25 0 53 0 63 0 9 0 42 0 72 0 30 0 61 0 68 3 65 -10
130 -28 149 -20 19 -33 21 -267 22 -135 0 -260 -2 -278 -6z"/>
<path d="M1361 1829 c-60 -8 -80 -34 -79 -104 1 -30 -1 -57 -4 -60 -3 -3 -2
-20 1 -38 4 -18 4 -49 0 -69 -3 -21 -3 -38 1 -38 4 0 4 -18 0 -40 -4 -22 -4
-40 0 -40 4 0 4 -18 0 -40 -4 -22 -4 -40 0 -40 4 0 4 -18 0 -40 -4 -22 -4 -40
0 -40 4 0 4 -18 0 -40 -4 -23 -3 -40 2 -40 5 0 7 -4 3 -10 -3 -5 -5 -29 -5
-52 0 -24 0 -52 0 -63 0 -11 0 -38 0 -60 0 -22 -3 -45 -7 -51 -5 -7 -37 -25
-73 -42 -36 -16 -105 -49 -155 -72 -49 -23 -115 -54 -145 -67 -136 -62 -205
-125 -238 -216 -8 -23 -16 -80 -18 -126 -2 -47 -5 -90 -8 -97 -3 -8 -1 -16 3
-18 5 -3 5 -24 1 -46 -4 -21 -5 -42 -2 -45 3 -3 5 -25 3 -49 -2 -34 3 -49 21
-71 l24 -27 272 -1 c349 0 319 -21 325 226 1 42 -1 77 -4 77 -3 0 -3 22 1 50
3 27 3 55 -1 61 -3 6 -3 25 0 43 4 17 4 46 0 63 -3 18 -3 51 1 73 4 23 3 40
-2 40 -5 0 -7 4 -3 10 3 5 5 29 5 52 0 24 0 52 0 63 0 11 0 38 0 60 0 22 3 45
7 51 5 7 37 25 73 42 36 16 106 49 155 72 50 23 118 55 153 71 127 59 172 98
219 189 27 54 28 59 31 251 4 195 4 196 -20 224 l-24 28 -235 1 c-129 0 -254
-2 -278 -5z"/>
</g>
</svg>
