<svg width="9" height="11" viewBox="0 0 9 11" fill="none" xmlns="http://www.w3.org/2000/svg">
<path d="M0.884943 11V0.818182H4.96165C5.7107 0.818182 6.33546 0.929214 6.83594 1.15128C7.33641 1.37334 7.7126 1.68158 7.96449 2.07599C8.21638 2.46709 8.34233 2.91785 8.34233 3.42827C8.34233 3.82599 8.26278 4.17566 8.10369 4.47727C7.9446 4.77557 7.72585 5.02083 7.44744 5.21307C7.17235 5.40199 6.85748 5.53622 6.50284 5.61577V5.7152C6.89063 5.73177 7.25355 5.84115 7.59162 6.04332C7.933 6.2455 8.20975 6.52888 8.42188 6.89347C8.634 7.25473 8.74006 7.68561 8.74006 8.18608C8.74006 8.72633 8.60582 9.20857 8.33736 9.63281C8.07221 10.0537 7.67945 10.3868 7.15909 10.6321C6.63873 10.8774 5.9974 11 5.23509 11H0.884943ZM3.03764 9.24006H4.79261C5.39252 9.24006 5.83002 9.12571 6.10511 8.89702C6.38021 8.66501 6.51776 8.35677 6.51776 7.9723C6.51776 7.69058 6.44981 7.442 6.31392 7.22656C6.17803 7.01113 5.98414 6.84209 5.73224 6.71946C5.48366 6.59683 5.18703 6.53551 4.84233 6.53551H3.03764V9.24006ZM3.03764 5.07884H4.63352C4.9285 5.07884 5.19034 5.02746 5.41903 4.92472C5.65104 4.81866 5.83333 4.66951 5.96591 4.47727C6.1018 4.28504 6.16974 4.05469 6.16974 3.78622C6.16974 3.41832 6.03883 3.12169 5.77699 2.89631C5.51847 2.67093 5.15057 2.55824 4.6733 2.55824H3.03764V5.07884Z" fill="black"/>
</svg>
