<svg width="14" height="13" viewBox="0 0 14 13" fill="none" xmlns="http://www.w3.org/2000/svg">
<path d="M10.4999 7.58323L6.41656 3.4999M12.2499 12.2499H4.66656M6.37997 11.7032L11.4367 6.64646C12.1297 5.95343 12.4762 5.60692 12.606 5.20734C12.7202 4.85587 12.7202 4.47726 12.606 4.12579C12.4762 3.72621 12.1297 3.3797 11.4367 2.68667L11.3131 2.56313C10.6201 1.8701 10.2736 1.52359 9.87401 1.39376C9.52253 1.27956 9.14393 1.27956 8.79245 1.39376C8.39288 1.52359 8.04636 1.8701 7.35333 2.56313L2.56313 7.35333C1.8701 8.04636 1.52359 8.39288 1.39376 8.79245C1.27956 9.14393 1.27956 9.52254 1.39376 9.87401C1.52359 10.2736 1.8701 10.6201 2.56313 11.3131L2.95316 11.7032C3.15494 11.9049 3.25583 12.0058 3.37357 12.078C3.47795 12.1419 3.59175 12.1891 3.71079 12.2177C3.84506 12.2499 3.98774 12.2499 4.2731 12.2499H5.06003C5.34539 12.2499 5.48807 12.2499 5.62233 12.2177C5.74138 12.1891 5.85518 12.1419 5.95956 12.078C6.0773 12.0058 6.17819 11.9049 6.37997 11.7032Z" stroke="#67666C" stroke-linecap="round" stroke-linejoin="round"/>
</svg>
