<svg width="24" height="24" viewBox="0 0 24 24" fill="none" xmlns="http://www.w3.org/2000/svg">
<g clip-path="url(#clip0_4415_7113)">
<path d="M19 15.6811V5.04673L12.5 5.94048V16.9811L19 15.6811ZM11.5 16.9811V5.94048L5 5.04673V15.6811L11.5 16.9811ZM18.8625 4.0561C19.4656 3.97485 20 4.44048 20 5.04673V15.6811C20 16.1592 19.6625 16.5686 19.1969 16.6624L12.3938 18.0217C12.1344 18.0749 11.8688 18.0749 11.6094 18.0217L4.80312 16.6592C4.33437 16.5655 4 16.1561 4 15.678V5.04673C4 4.44048 4.53438 3.97485 5.1375 4.0561L12 4.99985L18.8625 4.0561ZM2 6.04673C2 5.48735 2.45625 5.04673 3 5.04673V6.04673V8.99985V17.0811L11.8031 18.8405C11.9313 18.8655 12.0656 18.8655 12.1969 18.8405L21 17.0811V8.99985V6.04673V5.04673C21.5437 5.04673 22 5.48735 22 6.04673V17.0811C22 17.5592 21.6625 17.9686 21.1969 18.0624L12.3938 19.8217C12.1344 19.8749 11.8688 19.8749 11.6094 19.8217L2.80313 18.0592C2.3375 17.9686 2 17.5561 2 17.0811V6.04673Z" fill="black"/>
</g>
<defs>
<clipPath id="clip0_4415_7113">
<rect width="20" height="16" fill="white" transform="translate(2 4)"/>
</clipPath>
</defs>
</svg>
