<svg width="24" height="24" viewBox="0 0 24 24" fill="none" xmlns="http://www.w3.org/2000/svg">
<g clip-path="url(#clip0_4416_3827)">
<path d="M18 5.38119C18 4.24994 16.6187 3.69994 15.8438 4.52181L15.0969 5.30931C13.6031 6.88431 11.5656 7.83119 9.39687 7.94994L8.4875 7.99994H6C4.89688 7.99994 4 8.89681 4 9.99994V12.9999C4 14.1031 4.89688 14.9999 6 14.9999V18.2499C6 19.2156 6.78438 19.9999 7.75 19.9999H8.25C9.21562 19.9999 10 19.2156 10 18.2499V15.1062C11.9406 15.3531 13.7438 16.2624 15.0969 17.6937L15.8438 18.4781C16.6219 19.2968 18 18.7468 18 17.6187V5.38431V5.38119ZM9 15.0281V18.2499C9 18.6656 8.66563 18.9999 8.25 18.9999H7.75C7.33437 18.9999 7 18.6656 7 18.2499V14.9999H8.4875L9 15.0281ZM16.5688 5.20931C16.725 5.04369 17 5.15619 17 5.38119V17.6156C17 17.8406 16.725 17.9531 16.5688 17.7874L15.825 17.0031C14.5156 15.6249 12.8344 14.6749 11 14.2656V8.73119C12.8344 8.32181 14.5156 7.37494 15.825 5.99369L16.5688 5.20931ZM10 8.90306V14.0999C9.81875 14.0781 9.6375 14.0656 9.45312 14.0531L8.52812 13.9999H8.51562H8.50313H6.00312C5.45 13.9999 5.00312 13.5531 5.00312 12.9999V9.99994C5.00312 9.44681 5.45 8.99994 6.00312 8.99994H8.50313H8.51562H8.52812L9.45625 8.94994C9.6375 8.94056 9.82188 8.92494 10.0031 8.90306H10ZM19.5 9.99994C19.225 9.99994 19 10.2249 19 10.4999V12.4999C19 12.7749 19.225 12.9999 19.5 12.9999C19.775 12.9999 20 12.7749 20 12.4999V10.4999C20 10.2249 19.775 9.99994 19.5 9.99994Z" fill="black"/>
</g>
<defs>
<clipPath id="clip0_4416_3827">
<rect width="16" height="16" fill="white" transform="translate(4 4)"/>
</clipPath>
</defs>
</svg>
