<svg width="24" height="24" viewBox="0 0 24 24" fill="none" xmlns="http://www.w3.org/2000/svg">
<path d="M12.4928 5.88965C9.42999 5.88965 6.9375 8.35725 6.9375 11.3895C6.9375 13.2069 7.8745 14.9192 9.40653 15.9385V17.5004C9.40653 19.1858 10.7917 20.5559 12.4928 20.5559C14.194 20.5559 15.5791 19.1858 15.5791 17.5004V15.9385C17.1112 14.9192 18.0481 13.2081 18.0481 11.3895C18.0481 8.35725 15.5557 5.88965 12.4928 5.88965ZM14.652 15.0732C14.4619 15.182 14.3446 15.3836 14.3446 15.6012V17.5004C14.3446 18.5112 13.5138 19.3337 12.4928 19.3337C11.4719 19.3337 10.641 18.5112 10.641 17.5004V15.5999C10.641 15.3824 10.5238 15.1807 10.3337 15.072C8.98063 14.291 8.17202 12.9148 8.17202 11.3895C8.17202 9.03067 10.1102 7.11184 12.4928 7.11184C14.8754 7.11184 16.8136 9.03067 16.8136 11.3895C16.8136 12.9148 16.005 14.291 14.652 15.0732Z" fill="black"/>
<path d="M22.3713 10.7783H21.1368C20.7961 10.7783 20.5195 11.0521 20.5195 11.3894C20.5195 11.7267 20.7961 12.0005 21.1368 12.0005H22.3713C22.712 12.0005 22.9886 11.7267 22.9886 11.3894C22.9886 11.0521 22.712 10.7783 22.3713 10.7783Z" fill="black"/>
<path d="M3.85178 10.7783H2.61726C2.27653 10.7783 2 11.0521 2 11.3894C2 11.7267 2.27653 12.0005 2.61726 12.0005H3.85178C4.1925 12.0005 4.46903 11.7267 4.46903 11.3894C4.46903 11.0521 4.1925 10.7783 3.85178 10.7783Z" fill="black"/>
<path d="M12.4923 3.44438C12.833 3.44438 13.1095 3.17061 13.1095 2.83328V1.61109C13.1095 1.27377 12.833 1 12.4923 1C12.1515 1 11.875 1.27377 11.875 1.61109V2.83328C11.875 3.17061 12.1515 3.44438 12.4923 3.44438Z" fill="black"/>
<path d="M6.81678 4.90514L5.94398 4.04105C5.70325 3.80272 5.3119 3.80272 5.07117 4.04105C4.83044 4.27938 4.83044 4.66681 5.07117 4.90514L5.94398 5.76923C6.06372 5.889 6.22174 5.94889 6.37976 5.94889C6.53778 5.94889 6.6958 5.889 6.81678 5.77045C7.05751 5.5309 7.05751 5.14469 6.81678 4.90514Z" fill="black"/>
<path d="M19.0416 4.04105L18.1688 4.90514C17.9281 5.14346 17.9281 5.5309 18.1688 5.76923C18.2898 5.889 18.4478 5.94767 18.6058 5.94767C18.7639 5.94767 18.9219 5.88778 19.0429 5.76923L19.9157 4.90514C20.1564 4.66681 20.1564 4.27938 19.9157 4.04105C19.6749 3.80272 19.2836 3.80272 19.0416 4.04105Z" fill="black"/>
<path d="M13.7308 21.7773H11.2618C10.9211 21.7773 10.6445 22.0511 10.6445 22.3884C10.6445 22.7258 10.9211 22.9995 11.2618 22.9995H13.7308C14.0715 22.9995 14.3481 22.7258 14.3481 22.3884C14.3481 22.0511 14.0715 21.7773 13.7308 21.7773Z" fill="black"/>
</svg>
