<svg width="48" height="48" viewBox="0 0 48 48" fill="none" xmlns="http://www.w3.org/2000/svg">
<path d="M38.0001 12.6844C34.6262 8.51082 29.5266 6 24.0001 6C14.059 6 6.0001 14.0589 6.0001 24C6.0001 33.9411 14.059 42 24.0001 42C33.5292 42 41.3922 34.5733 41.9666 25.1061C42.0001 24.5548 41.5803 24.0808 41.029 24.0474C40.4778 24.0139 40.0038 24.4337 39.9703 24.985C39.4599 33.3981 32.4701 40 24.0001 40C15.1635 40 8.0001 32.8366 8.0001 24C8.0001 15.1634 15.1635 8 24.0001 8C28.9389 8 33.4922 10.2543 36.4916 14H31.0001C30.4478 14 30.0001 14.4477 30.0001 15C30.0001 15.5523 30.4478 16 31.0001 16H39.0001C39.5524 16 40.0001 15.5523 40.0001 15V7C40.0001 6.44772 39.5524 6 39.0001 6C38.4478 6 38.0001 6.44772 38.0001 7V12.6844Z" fill="#B7C3CB"/>
<path d="M23 27.5858L30.2929 20.2929C30.6834 19.9024 31.3166 19.9024 31.7071 20.2929C32.0976 20.6834 32.0976 21.3166 31.7071 21.7071L23.7071 29.7071C23.3166 30.0976 22.6834 30.0976 22.2929 29.7071L18.2929 25.7071C17.9024 25.3166 17.9024 24.6834 18.2929 24.2929C18.6834 23.9024 19.3166 23.9024 19.7071 24.2929L23 27.5858Z" fill="#B7C3CB"/>
</svg>
