<?xml version="1.0" encoding="UTF-8"?>
<svg width="67px" height="70px" viewBox="0 0 67 70" version="1.1" xmlns="http://www.w3.org/2000/svg" xmlns:xlink="http://www.w3.org/1999/xlink">
    <title>YB-Icons-Website-2021_YB-Backup-2</title>
    <g id="Page-1" stroke="none" stroke-width="1" fill="none" fill-rule="evenodd">
        <g id="Yugabyte_Cloud_Sprint3_SM" transform="translate(-238.000000, -2873.000000)" fill-rule="nonzero">
            <g id="Group-9" transform="translate(100.000000, 2055.000000)">
                <g id="YB-Icons-Website-2021_YB-Backup-2" transform="translate(138.000000, 818.000000)">
                    <path d="M30.1890034,55.2061856 C28.1443299,55.4467354 25.9793814,55.6872852 23.9347079,55.6872852 C14.0721649,55.6872852 3.12714777,52.4398625 3.12714777,47.628866 L3.12714777,40.7731959 L4.93127148,41.8556701 C9.3814433,44.5017182 16.4776632,46.185567 23.814433,46.185567 C25.7388316,46.185567 27.6632302,46.0652921 29.467354,45.8247423 C29.7079038,44.862543 29.9484536,43.9003436 30.3092784,42.9381443 C28.1443299,43.1786942 25.9793814,43.419244 23.814433,43.419244 C13.95189,43.419244 3.00687285,40.1718213 3.00687285,35.3608247 L3.00687285,28.5051546 L4.81099656,29.5876289 C9.26116838,32.233677 16.3573883,33.9175258 23.6941581,33.9175258 C31.1512027,33.9175258 38.2474227,32.3539519 42.5773196,29.5876289 L44.3814433,28.5051546 L44.3814433,31.3917526 C45.2233677,31.2714777 46.185567,31.1512027 47.1477663,31.1512027 L47.1477663,10.8247423 C47.1477663,4.08934708 35.2405498,0 23.5738832,0 C12.0274914,0 0,4.08934708 0,10.8247423 L0,47.628866 C0,54.3642612 11.9072165,58.4536082 23.5738832,58.4536082 C26.0996564,58.4536082 28.5051546,58.2130584 30.9106529,57.8522337 C30.9106529,57.0103093 30.4295533,56.04811 30.1890034,55.2061856 Z M23.9347079,2.76632302 C36.3230241,2.76632302 44.6219931,6.8556701 44.742268,10.8247423 C44.742268,11.0652921 44.742268,11.3058419 44.6219931,11.4261168 C44.6219931,11.5463918 44.5017182,11.7869416 44.5017182,11.9072165 C44.5017182,12.0274914 44.3814433,12.1477663 44.3814433,12.1477663 C44.2611684,12.3883162 44.1408935,12.5085911 44.0206186,12.7491409 L44.0206186,12.8694158 C42.0962199,15.395189 35.6013746,18.4020619 26.2199313,18.7628866 C25.4982818,18.7628866 24.7766323,18.7628866 24.0549828,18.7628866 C14.1924399,18.7628866 3.24742268,15.5154639 3.24742268,10.7044674 C3.24742268,5.89347079 14.0721649,2.76632302 23.9347079,2.76632302 Z M4.93127148,17.3195876 L5.05154639,17.4398625 C5.65292096,17.8006873 6.13402062,18.0412371 6.8556701,18.4020619 C7.45704467,18.6426117 8.05841924,19.0034364 8.78006873,19.2439863 L9.02061856,19.3642612 C9.74226804,19.604811 10.3436426,19.8453608 11.185567,20.0859107 C11.9072165,20.3264605 12.7491409,20.4467354 13.4707904,20.6872852 L13.7113402,20.6872852 C14.4329897,20.8075601 15.2749141,21.04811 15.9965636,21.1683849 L16.1168385,21.1683849 C16.9587629,21.2886598 17.8006873,21.4089347 18.6426117,21.5292096 L18.7628866,21.5292096 C19.604811,21.6494845 20.3264605,21.6494845 21.1683849,21.7697595 L21.4089347,21.7697595 C22.2508591,21.7697595 23.0927835,21.8900344 23.9347079,21.8900344 C24.7766323,21.8900344 25.6185567,21.8900344 26.4604811,21.7697595 L26.7010309,21.7697595 C27.5429553,21.7697595 28.2646048,21.6494845 29.1065292,21.5292096 L29.347079,21.5292096 C30.1890034,21.4089347 30.9106529,21.2886598 31.7525773,21.1683849 L32.1134021,21.1683849 C32.8350515,21.04811 33.556701,20.9278351 34.1580756,20.8075601 L34.6391753,20.6872852 C35.3608247,20.5670103 35.9621993,20.3264605 36.5635739,20.2061856 L37.0446735,20.0859107 C37.6460481,19.9656357 38.2474227,19.7250859 38.8487973,19.4845361 C38.9690722,19.4845361 39.209622,19.3642612 39.3298969,19.3642612 C39.9312715,19.1237113 40.4123711,18.8831615 40.8934708,18.6426117 L41.2542955,18.5223368 C41.8556701,18.2817869 42.3367698,18.0412371 42.8178694,17.6804124 L42.9381443,17.5601375 L44.742268,16.4776632 L44.742268,23.3333333 C44.742268,28.024055 33.7972509,31.3917526 23.9347079,31.3917526 C14.0721649,31.3917526 3.12714777,28.1443299 3.12714777,23.3333333 L3.12714777,18.6426117 L3.00687285,16.4776632 L4.93127148,17.3195876 Z"
                          id="Shape" fill="#333"></path>
                    <g id="Group" transform="translate(28.024055, 31.030928)" fill="#FF6E42">
                        <path d="M29.5876289,22.2508591 C28.9862543,22.0103093 28.2646048,22.2508591 28.024055,22.8522337 C26.580756,26.4604811 23.2130584,28.7457045 19.3642612,28.7457045 C16.1168385,28.7457045 13.2302405,27.0618557 11.5463918,24.4158076 L13.2302405,23.6941581 L8.05841924,19.3642612 L7.6975945,26.0996564 L9.3814433,25.3780069 C11.4261168,28.8659794 15.1546392,31.1512027 19.3642612,31.1512027 C24.1752577,31.1512027 28.3848797,28.2646048 30.1890034,23.814433 C30.4295533,23.2130584 30.1890034,22.4914089 29.5876289,22.2508591 Z"
                              id="Path"></path>
                        <path d="M19.4845361,7.93814433 C14.6735395,7.93814433 10.4639175,10.8247423 8.65979381,15.2749141 C8.41924399,15.8762887 8.65979381,16.5979381 9.26116838,16.838488 C9.3814433,16.838488 9.50171821,16.9587629 9.74226804,16.9587629 C10.2233677,16.9587629 10.5841924,16.7182131 10.8247423,16.2371134 C12.2680412,12.628866 15.6357388,10.3436426 19.4845361,10.3436426 C22.6116838,10.3436426 25.3780069,11.9072165 27.0618557,14.4329897 L25.4982818,15.1546392 L30.6701031,19.4845361 L31.0309278,12.7491409 L29.2268041,13.4707904 C27.1821306,9.98281787 23.4536082,7.93814433 19.4845361,7.93814433 Z"
                              id="Path"></path>
                        <path d="M19.4845361,0 C8.78006873,0 0,8.78006873 0,19.4845361 C0,30.1890034 8.78006873,38.9690722 19.4845361,38.9690722 C30.1890034,38.9690722 38.9690722,30.1890034 38.9690722,19.4845361 C38.9690722,8.78006873 30.1890034,0 19.4845361,0 Z M19.4845361,36.5635739 C10.1030928,36.5635739 2.40549828,28.8659794 2.40549828,19.4845361 C2.40549828,10.1030928 10.1030928,2.40549828 19.4845361,2.40549828 C28.8659794,2.40549828 36.5635739,10.1030928 36.5635739,19.4845361 C36.5635739,28.8659794 28.8659794,36.5635739 19.4845361,36.5635739 Z"
                              id="Shape"></path>
                    </g>
                </g>
            </g>
        </g>
    </g>
</svg>