<svg width="350" height="150" viewBox="0 0 350 150" fill="none" xmlns="http://www.w3.org/2000/svg">
<rect width="350" height="150" fill="white"/>
<g opacity="0.45">
<path d="M71 38.1562C71 33.738 74.5817 30.1562 79 30.1562H263C267.418 30.1562 271 33.738 271 38.1562V150H71V38.1562Z" fill="#D7DEE4"/>
</g>
<path d="M79 28C79 23.5817 82.5817 20 87 20H271C275.418 20 279 23.5817 279 28V150H79V28Z" fill="url(#paint0_linear_2752_42554)"/>
<path d="M94.5176 84L102.611 79.9531L94.5176 75.9062V77.2256L99.959 79.9463V79.96L94.5176 82.6807V84ZM110.664 75.4004H111.423V77.4238H109.399V75.8926C109.399 74.2201 110.074 73.3245 111.423 73.2061V73.9648C110.917 74.1061 110.664 74.5117 110.664 75.1816V75.4004ZM113.699 75.4004H114.458V77.4238H112.435V75.8926C112.435 74.2201 113.109 73.3245 114.458 73.2061V73.9648C113.952 74.1061 113.699 74.5117 113.699 75.1816V75.4004ZM116.358 84V73.8828H118.464V77.9912H122.647V73.8828H124.753V84H122.647V79.3857H118.464V84H116.358ZM133.394 83.7471C132.432 84.0296 131.521 84.1709 130.659 84.1709C129.406 84.1709 128.417 83.8154 127.692 83.1045C126.968 82.3936 126.605 81.4229 126.605 80.1924C126.605 79.0303 126.936 78.096 127.597 77.3896C128.262 76.6787 129.139 76.3232 130.229 76.3232C131.327 76.3232 132.129 76.6696 132.635 77.3623C133.141 78.055 133.394 79.151 133.394 80.6504H128.738C128.875 82.0814 129.661 82.7969 131.097 82.7969C131.776 82.7969 132.541 82.6396 133.394 82.3252V83.7471ZM128.711 79.5088H131.404C131.404 78.2282 130.992 77.5879 130.167 77.5879C129.328 77.5879 128.843 78.2282 128.711 79.5088ZM135.485 84V73.2061H137.509V84H135.485ZM140.038 84V73.2061H142.062V84H140.038ZM147.742 84.1709C146.571 84.1709 145.639 83.8177 144.946 83.1113C144.258 82.4004 143.914 81.4456 143.914 80.2471C143.914 79.0348 144.26 78.0778 144.953 77.376C145.65 76.6742 146.596 76.3232 147.79 76.3232C148.989 76.3232 149.934 76.6742 150.627 77.376C151.324 78.0778 151.673 79.0303 151.673 80.2334C151.673 81.4639 151.324 82.4277 150.627 83.125C149.93 83.8223 148.968 84.1709 147.742 84.1709ZM147.776 82.9062C148.938 82.9062 149.52 82.0153 149.52 80.2334C149.52 79.4176 149.365 78.7728 149.055 78.2988C148.749 77.8249 148.328 77.5879 147.79 77.5879C147.257 77.5879 146.835 77.8249 146.525 78.2988C146.22 78.7728 146.067 79.4222 146.067 80.2471C146.067 81.0628 146.22 81.71 146.525 82.1885C146.831 82.667 147.248 82.9062 147.776 82.9062ZM159.555 84L157.032 73.8828H159.021L160.867 81.2861L162.61 73.8828H164.367L166.021 81.2451L167.963 73.8828H169.419L166.767 84H164.757L163.198 77.0615L161.564 84H159.555ZM173.965 84.1709C172.794 84.1709 171.862 83.8177 171.169 83.1113C170.481 82.4004 170.137 81.4456 170.137 80.2471C170.137 79.0348 170.483 78.0778 171.176 77.376C171.873 76.6742 172.819 76.3232 174.013 76.3232C175.211 76.3232 176.157 76.6742 176.85 77.376C177.547 78.0778 177.896 79.0303 177.896 80.2334C177.896 81.4639 177.547 82.4277 176.85 83.125C176.152 83.8223 175.191 84.1709 173.965 84.1709ZM173.999 82.9062C175.161 82.9062 175.742 82.0153 175.742 80.2334C175.742 79.4176 175.587 78.7728 175.277 78.2988C174.972 77.8249 174.55 77.5879 174.013 77.5879C173.479 77.5879 173.058 77.8249 172.748 78.2988C172.443 78.7728 172.29 79.4222 172.29 80.2471C172.29 81.0628 172.443 81.71 172.748 82.1885C173.053 82.667 173.47 82.9062 173.999 82.9062ZM179.755 84V76.4941H181.778V77.9092C182.302 76.8519 183.1 76.3232 184.171 76.3232C184.299 76.3232 184.424 76.3369 184.547 76.3643V78.1689C184.26 78.0641 183.993 78.0117 183.747 78.0117C182.94 78.0117 182.284 78.4196 181.778 79.2354V84H179.755ZM186.126 84V73.2061H188.149V84H186.126ZM195.402 84V82.585C194.883 83.6423 194.065 84.1709 192.948 84.1709C192.046 84.1709 191.337 83.8405 190.822 83.1797C190.307 82.5189 190.05 81.6097 190.05 80.4521C190.05 79.1943 190.339 78.1917 190.918 77.4443C191.501 76.6969 192.283 76.3232 193.263 76.3232C194.047 76.3232 194.76 76.6331 195.402 77.2529V73.2061H197.433V84H195.402ZM195.402 78.4561C194.915 77.9092 194.393 77.6357 193.837 77.6357C193.34 77.6357 192.944 77.875 192.647 78.3535C192.351 78.832 192.203 79.4746 192.203 80.2812C192.203 81.8171 192.695 82.585 193.68 82.585C194.281 82.585 194.855 82.1999 195.402 81.4297V78.4561ZM199.88 84V82.3115H201.903V84H199.88ZM200.215 81.1357L199.88 75.9062V73.8828H201.903V75.9062L201.568 81.1357H200.215ZM204.48 75.2295H203.722V73.2061H205.745V74.7305C205.745 76.4076 205.071 77.3053 203.722 77.4238V76.665C204.228 76.5192 204.48 76.1113 204.48 75.4414V75.2295ZM207.516 75.2295H206.757V73.2061H208.78V74.7305C208.78 76.4076 208.106 77.3053 206.757 77.4238V76.665C207.263 76.5192 207.516 76.1113 207.516 75.4414V75.2295ZM214.673 84V81.8057H216.867V84H214.673ZM218.132 84V81.8057H220.326V84H218.132ZM221.591 84V81.8057H223.785V84H221.591ZM94.5176 108L102.611 103.953L94.5176 99.9062V101.226L99.959 103.946V103.96L94.5176 106.681V108ZM108.764 110.447V109.347H115.764V110.447H108.764Z" fill="white"/>
<mask id="path-5-inside-1_2752_42554" fill="white">
<path d="M79 20H279V45H79V20Z"/>
</mask>
<path d="M79 20H279V45H79V20Z" fill="#F0F3FF"/>
<path d="M279 44H79V46H279V44Z" fill="#A5A6F6" fill-opacity="0.4" mask="url(#path-5-inside-1_2752_42554)"/>
<circle cx="91.5" cy="32.5" r="4.5" fill="#F85F5F"/>
<circle cx="106.5" cy="32.5" r="4.5" fill="#FAC25E"/>
<circle cx="121.5" cy="32.5" r="4.5" fill="#35D08D"/>
<path d="M79.5 28C79.5 23.8579 82.8579 20.5 87 20.5H271C275.142 20.5 278.5 23.8579 278.5 28V149.5H79.5V28Z" stroke="#A5A6F6" stroke-opacity="0.2"/>
<defs>
<linearGradient id="paint0_linear_2752_42554" x1="272" y1="331.797" x2="92.6206" y2="109.969" gradientUnits="userSpaceOnUse">
<stop offset="0.0416667" stop-color="#ED35EC"/>
<stop offset="0.229766" stop-color="#ED35C5"/>
<stop offset="1" stop-color="#A5A6F6"/>
</linearGradient>
</defs>
</svg>
