<svg width="350" height="150" viewBox="0 0 350 150" fill="none" xmlns="http://www.w3.org/2000/svg">
<rect width="350" height="150" fill="white"/>
<path d="M123 56L123 124" stroke="#A5A6F6" stroke-width="1.5" stroke-linecap="round" stroke-dasharray="1 4"/>
<path d="M37 16.3909V19C37 19.3436 37.8536 19.8747 39.4097 20.2842C41.1351 20.7383 43.4866 21 46 21C48.5134 21 50.8649 20.7383 52.5903 20.2842C54.1464 19.8747 55 19.3436 55 19V16.3909C53.3864 17.4025 49.9832 18 46 18C42.0168 18 38.6136 17.4025 37 16.3909ZM36 15C36 13.1668 40.4337 12 46 12C51.5663 12 56 13.1668 56 15V27C56 28.8332 51.5663 30 46 30C40.4337 30 36 28.8332 36 27V15ZM55 20.3909C53.3864 21.4025 49.9832 22 46 22C42.0168 22 38.6136 21.4025 37 20.3909V23C37 23.3436 37.8536 23.8747 39.4097 24.2842C41.1351 24.7383 43.4866 25 46 25C48.5134 25 50.8649 24.7383 52.5903 24.2842C54.1464 23.8747 55 23.3436 55 23V20.3909ZM55 24.3909C53.3864 25.4025 49.9832 26 46 26C42.0168 26 38.6136 25.4025 37 24.3909V27C37 27.3436 37.8536 27.8747 39.4097 28.2842C41.1351 28.7383 43.4866 29 46 29C48.5134 29 50.8649 28.7383 52.5903 28.2842C54.1464 27.8747 55 27.3436 55 27V24.3909ZM46 17C48.5134 17 50.8649 16.7383 52.5903 16.2842C54.1464 15.8747 55 15.3436 55 15C55 14.6564 54.1464 14.1253 52.5903 13.7158C50.8649 13.2617 48.5134 13 46 13C43.4866 13 41.1351 13.2617 39.4097 13.7158C37.8536 14.1253 37 14.6564 37 15C37 15.3436 37.8536 15.8747 39.4097 16.2842C41.1351 16.7383 43.4866 17 46 17Z" fill="#A5A6F6"/>
<path d="M295 16.3909V19C295 19.3436 295.854 19.8747 297.41 20.2842C299.135 20.7383 301.487 21 304 21C306.513 21 308.865 20.7383 310.59 20.2842C312.146 19.8747 313 19.3436 313 19V16.3909C311.386 17.4025 307.983 18 304 18C300.017 18 296.614 17.4025 295 16.3909ZM294 15C294 13.1668 298.434 12 304 12C309.566 12 314 13.1668 314 15V27C314 28.8332 309.566 30 304 30C298.434 30 294 28.8332 294 27V15ZM313 20.3909C311.386 21.4025 307.983 22 304 22C300.017 22 296.614 21.4025 295 20.3909V23C295 23.3436 295.854 23.8747 297.41 24.2842C299.135 24.7383 301.487 25 304 25C306.513 25 308.865 24.7383 310.59 24.2842C312.146 23.8747 313 23.3436 313 23V20.3909ZM313 24.3909C311.386 25.4025 307.983 26 304 26C300.017 26 296.614 25.4025 295 24.3909V27C295 27.3436 295.854 27.8747 297.41 28.2842C299.135 28.7383 301.487 29 304 29C306.513 29 308.865 28.7383 310.59 28.2842C312.146 27.8747 313 27.3436 313 27V24.3909ZM304 17C306.513 17 308.865 16.7383 310.59 16.2842C312.146 15.8747 313 15.3436 313 15C313 14.6564 312.146 14.1253 310.59 13.7158C308.865 13.2617 306.513 13 304 13C301.487 13 299.135 13.2617 297.41 13.7158C295.854 14.1253 295 14.6564 295 15C295 15.3436 295.854 15.8747 297.41 16.2842C299.135 16.7383 301.487 17 304 17Z" fill="#A5A6F6"/>
<path d="M189 122.391V125C189 125.344 189.854 125.875 191.41 126.284C193.135 126.738 195.487 127 198 127C200.513 127 202.865 126.738 204.59 126.284C206.146 125.875 207 125.344 207 125V122.391C205.386 123.403 201.983 124 198 124C194.017 124 190.614 123.403 189 122.391ZM188 121C188 119.167 192.434 118 198 118C203.566 118 208 119.167 208 121V133C208 134.833 203.566 136 198 136C192.434 136 188 134.833 188 133V121ZM207 126.391C205.386 127.403 201.983 128 198 128C194.017 128 190.614 127.403 189 126.391V129C189 129.344 189.854 129.875 191.41 130.284C193.135 130.738 195.487 131 198 131C200.513 131 202.865 130.738 204.59 130.284C206.146 129.875 207 129.344 207 129V126.391ZM207 130.391C205.386 131.403 201.983 132 198 132C194.017 132 190.614 131.403 189 130.391V133C189 133.344 189.854 133.875 191.41 134.284C193.135 134.738 195.487 135 198 135C200.513 135 202.865 134.738 204.59 134.284C206.146 133.875 207 133.344 207 133V130.391ZM198 123C200.513 123 202.865 122.738 204.59 122.284C206.146 121.875 207 121.344 207 121C207 120.656 206.146 120.125 204.59 119.716C202.865 119.262 200.513 119 198 119C195.487 119 193.135 119.262 191.41 119.716C189.854 120.125 189 120.656 189 121C189 121.344 189.854 121.875 191.41 122.284C193.135 122.738 195.487 123 198 123Z" fill="#A5A6F6"/>
<path d="M161 122.391V125C161 125.344 161.854 125.875 163.41 126.284C165.135 126.738 167.487 127 170 127C172.513 127 174.865 126.738 176.59 126.284C178.146 125.875 179 125.344 179 125V122.391C177.386 123.403 173.983 124 170 124C166.017 124 162.614 123.403 161 122.391ZM160 121C160 119.167 164.434 118 170 118C175.566 118 180 119.167 180 121V133C180 134.833 175.566 136 170 136C164.434 136 160 134.833 160 133V121ZM179 126.391C177.386 127.403 173.983 128 170 128C166.017 128 162.614 127.403 161 126.391V129C161 129.344 161.854 129.875 163.41 130.284C165.135 130.738 167.487 131 170 131C172.513 131 174.865 130.738 176.59 130.284C178.146 129.875 179 129.344 179 129V126.391ZM179 130.391C177.386 131.403 173.983 132 170 132C166.017 132 162.614 131.403 161 130.391V133C161 133.344 161.854 133.875 163.41 134.284C165.135 134.738 167.487 135 170 135C172.513 135 174.865 134.738 176.59 134.284C178.146 133.875 179 133.344 179 133V130.391ZM170 123C172.513 123 174.865 122.738 176.59 122.284C178.146 121.875 179 121.344 179 121C179 120.656 178.146 120.125 176.59 119.716C174.865 119.262 172.513 119 170 119C167.487 119 165.135 119.262 163.41 119.716C161.854 120.125 161 120.656 161 121C161 121.344 161.854 121.875 163.41 122.284C165.135 122.738 167.487 123 170 123Z" fill="#A5A6F6"/>
<g opacity="0.7">
<path d="M159.75 62.7023V66.8333C159.75 67.3774 161.102 68.2183 163.565 68.8667C166.297 69.5856 170.02 70 174 70C177.98 70 181.703 69.5856 184.435 68.8667C186.898 68.2183 188.25 67.3774 188.25 66.8333V62.7023C185.695 64.304 180.307 65.25 174 65.25C167.693 65.25 162.305 64.304 159.75 62.7023ZM158.167 60.5C158.167 57.5974 165.187 55.75 174 55.75C182.813 55.75 189.833 57.5974 189.833 60.5V79.5C189.833 82.4026 182.813 84.25 174 84.25C165.187 84.25 158.167 82.4026 158.167 79.5V60.5ZM188.25 69.0357C185.695 70.6374 180.307 71.5833 174 71.5833C167.693 71.5833 162.305 70.6374 159.75 69.0357V73.1667C159.75 73.7107 161.102 74.5517 163.565 75.2C166.297 75.9189 170.02 76.3333 174 76.3333C177.98 76.3333 181.703 75.9189 184.435 75.2C186.898 74.5517 188.25 73.7107 188.25 73.1667V69.0357ZM188.25 75.369C185.695 76.9707 180.307 77.9167 174 77.9167C167.693 77.9167 162.305 76.9707 159.75 75.369V79.5C159.75 80.0441 161.102 80.885 163.565 81.5334C166.297 82.2522 170.02 82.6667 174 82.6667C177.98 82.6667 181.703 82.2522 184.435 81.5334C186.898 80.885 188.25 80.0441 188.25 79.5V75.369ZM174 63.6667C177.98 63.6667 181.703 63.2522 184.435 62.5334C186.898 61.885 188.25 61.0441 188.25 60.5C188.25 59.9559 186.898 59.115 184.435 58.4666C181.703 57.7478 177.98 57.3333 174 57.3333C170.02 57.3333 166.297 57.7478 163.565 58.4666C161.102 59.115 159.75 59.9559 159.75 60.5C159.75 61.0441 161.102 61.885 163.565 62.5334C166.297 63.2522 170.02 63.6667 174 63.6667Z" fill="url(#paint0_linear_2752_42594)"/>
</g>
<path d="M133 122.391V125C133 125.344 133.854 125.875 135.41 126.284C137.135 126.738 139.487 127 142 127C144.513 127 146.865 126.738 148.59 126.284C150.146 125.875 151 125.344 151 125V122.391C149.386 123.403 145.983 124 142 124C138.017 124 134.614 123.403 133 122.391ZM132 121C132 119.167 136.434 118 142 118C147.566 118 152 119.167 152 121V133C152 134.833 147.566 136 142 136C136.434 136 132 134.833 132 133V121ZM151 126.391C149.386 127.403 145.983 128 142 128C138.017 128 134.614 127.403 133 126.391V129C133 129.344 133.854 129.875 135.41 130.284C137.135 130.738 139.487 131 142 131C144.513 131 146.865 130.738 148.59 130.284C150.146 129.875 151 129.344 151 129V126.391ZM151 130.391C149.386 131.403 145.983 132 142 132C138.017 132 134.614 131.403 133 130.391V133C133 133.344 133.854 133.875 135.41 134.284C137.135 134.738 139.487 135 142 135C144.513 135 146.865 134.738 148.59 134.284C150.146 133.875 151 133.344 151 133V130.391ZM142 123C144.513 123 146.865 122.738 148.59 122.284C150.146 121.875 151 121.344 151 121C151 120.656 150.146 120.125 148.59 119.716C146.865 119.262 144.513 119 142 119C139.487 119 137.135 119.262 135.41 119.716C133.854 120.125 133 120.656 133 121C133 121.344 133.854 121.875 135.41 122.284C137.135 122.738 139.487 123 142 123Z" fill="#A5A6F6"/>
<path d="M35.4999 120.623V123.667C35.4999 124.068 36.4958 124.687 38.3113 125.165C40.3241 125.695 43.0676 126 45.9999 126C48.9323 126 51.6757 125.695 53.6886 125.165C55.504 124.687 56.4999 124.068 56.4999 123.667V120.623C54.6173 121.803 50.6469 122.5 45.9999 122.5C41.3529 122.5 37.3825 121.803 35.4999 120.623ZM34.3333 119C34.3333 116.861 39.5059 115.5 45.9999 115.5C52.4939 115.5 57.6666 116.861 57.6666 119V133C57.6666 135.139 52.4939 136.5 45.9999 136.5C39.5059 136.5 34.3333 135.139 34.3333 133V119ZM56.4999 125.289C54.6173 126.47 50.6469 127.167 45.9999 127.167C41.3529 127.167 37.3825 126.47 35.4999 125.289V128.333C35.4999 128.734 36.4958 129.354 38.3113 129.832C40.3241 130.361 43.0676 130.667 45.9999 130.667C48.9323 130.667 51.6757 130.361 53.6886 129.832C55.504 129.354 56.4999 128.734 56.4999 128.333V125.289ZM56.4999 129.956C54.6173 131.136 50.6469 131.833 45.9999 131.833C41.3529 131.833 37.3825 131.136 35.4999 129.956V133C35.4999 133.401 36.4958 134.021 38.3113 134.498C40.3241 135.028 43.0676 135.333 45.9999 135.333C48.9323 135.333 51.6757 135.028 53.6886 134.498C55.504 134.021 56.4999 133.401 56.4999 133V129.956ZM45.9999 121.333C48.9323 121.333 51.6757 121.028 53.6886 120.498C55.504 120.021 56.4999 119.401 56.4999 119C56.4999 118.599 55.504 117.979 53.6886 117.502C51.6757 116.972 48.9323 116.667 45.9999 116.667C43.0676 116.667 40.3241 116.972 38.3113 117.502C36.4958 117.979 35.4999 118.599 35.4999 119C35.4999 119.401 36.4958 120.021 38.3113 120.498C40.3241 121.028 43.0676 121.333 45.9999 121.333Z" fill="#A5A6F6"/>
<path d="M293.5 120.623V123.667C293.5 124.068 294.496 124.687 296.312 125.165C298.324 125.695 301.068 126 304 126C306.933 126 309.676 125.695 311.689 125.165C313.504 124.687 314.5 124.068 314.5 123.667V120.623C312.618 121.803 308.647 122.5 304 122.5C299.353 122.5 295.383 121.803 293.5 120.623ZM292.333 119C292.333 116.861 297.506 115.5 304 115.5C310.494 115.5 315.667 116.861 315.667 119V133C315.667 135.139 310.494 136.5 304 136.5C297.506 136.5 292.333 135.139 292.333 133V119ZM314.5 125.289C312.618 126.47 308.647 127.167 304 127.167C299.353 127.167 295.383 126.47 293.5 125.289V128.333C293.5 128.734 294.496 129.354 296.312 129.832C298.324 130.361 301.068 130.667 304 130.667C306.933 130.667 309.676 130.361 311.689 129.832C313.504 129.354 314.5 128.734 314.5 128.333V125.289ZM314.5 129.956C312.618 131.136 308.647 131.833 304 131.833C299.353 131.833 295.383 131.136 293.5 129.956V133C293.5 133.401 294.496 134.021 296.312 134.498C298.324 135.028 301.068 135.333 304 135.333C306.933 135.333 309.676 135.028 311.689 134.498C313.504 134.021 314.5 133.401 314.5 133V129.956ZM304 121.333C306.933 121.333 309.676 121.028 311.689 120.498C313.504 120.021 314.5 119.401 314.5 119C314.5 118.599 313.504 117.979 311.689 117.502C309.676 116.972 306.933 116.667 304 116.667C301.068 116.667 298.324 116.972 296.312 117.502C294.496 117.979 293.5 118.599 293.5 119C293.5 119.401 294.496 120.021 296.312 120.498C298.324 121.028 301.068 121.333 304 121.333Z" fill="#A5A6F6"/>
<line x1="105.961" y1="67.2131" x2="60.2131" y2="37.039" stroke="#A5A6F6" stroke-width="1.5" stroke-linecap="round"/>
<line x1="120.955" y1="123.819" x2="59.8189" y2="37.0451" stroke="#A5A6F6" stroke-width="1.5" stroke-linecap="round" stroke-dasharray="1 4"/>
<line x1="45.25" y1="106.25" x2="45.25" y2="43.75" stroke="#A5A6F6" stroke-width="1.5" stroke-linecap="round" stroke-dasharray="1 4"/>
<line x1="66.75" y1="128.25" x2="126.25" y2="128.25" stroke="#A5A6F6" stroke-width="1.5" stroke-linecap="round"/>
<line x1="211.75" y1="128.25" x2="277.25" y2="128.25" stroke="#5D5FEF" stroke-width="1.5" stroke-linecap="round"/>
<path d="M237.5 103.5L284.483 117.074" stroke="#7879F1" stroke-width="1.5" stroke-linecap="round"/>
<path d="M195.5 81.5L226.739 99.972" stroke="#ED35C5" stroke-width="1.5" stroke-linecap="round"/>
<path d="M122.75 69.25H153" stroke="#ED35C5" stroke-width="1.5" stroke-linecap="round"/>
<line x1="125.75" y1="50.25" x2="223.25" y2="50.25" stroke="#7879F1" stroke-width="1.5" stroke-linecap="round"/>
<line x1="234.439" y1="56.0344" x2="289.034" y2="35.5611" stroke="#7879F1" stroke-width="1.5" stroke-linecap="round"/>
<circle cx="60" cy="37" r="3" fill="#A5A6F6" stroke="#A5A6F6" stroke-width="2"/>
<circle cx="109" cy="69" r="4" fill="#8047F5"/>
<circle cx="123" cy="69" r="4" fill="#C161C1"/>
<circle cx="150" cy="69" r="4" fill="#FA5CD7"/>
<circle cx="197" cy="83" r="4" fill="#FA5CD7"/>
<circle cx="224" cy="99" r="4" fill="#C161C1"/>
<circle cx="123" cy="50" r="4" fill="#FA5CD7"/>
<circle cx="224" cy="50" r="4" fill="#FA5CD7"/>
<circle cx="45" cy="107" r="4" fill="#7879F1"/>
<circle cx="45" cy="39" r="3" fill="#A5A6F6" stroke="#A5A6F6" stroke-width="2"/>
<circle cx="67" cy="128" r="4" fill="#7879F1"/>
<circle cx="124" cy="128" r="4" fill="#8047F5"/>
<circle cx="215" cy="128" r="4" fill="#8047F5"/>
<circle cx="237" cy="103" r="4" fill="#8047F5"/>
<circle cx="237" cy="56" r="3" fill="#A5A6F6" stroke="#A5A6F6" stroke-width="2"/>
<circle cx="282" cy="116" r="4" fill="#7879F1"/>
<circle cx="282" cy="128" r="4" fill="#7879F1"/>
<circle cx="289" cy="36" r="3" transform="rotate(90 289 36)" fill="#A5A6F6" stroke="#A5A6F6" stroke-width="2"/>
<circle cx="304" cy="39" r="3" transform="rotate(90 304 39)" fill="#A5A6F6" stroke="#A5A6F6" stroke-width="2"/>
<circle cx="304" cy="107" r="3" transform="rotate(90 304 107)" fill="#A5A6F6" stroke="#A5A6F6" stroke-width="2"/>
<path d="M303.75 36.75L303.75 108.25" stroke="#A5A6F6" stroke-width="1.5" stroke-linecap="round" stroke-dasharray="1 4"/>
<path d="M224 58L224 91" stroke="#A5A6F6" stroke-width="1.5" stroke-linecap="round" stroke-dasharray="1 4"/>
<defs>
<linearGradient id="paint0_linear_2752_42594" x1="233.375" y1="-1.24999" x2="253.118" y2="84.7481" gradientUnits="userSpaceOnUse">
<stop offset="0.0416667" stop-color="#ED35EC"/>
<stop offset="0.435378" stop-color="#ED35C5"/>
<stop offset="0.931175" stop-color="#7879F1"/>
</linearGradient>
</defs>
</svg>
