<svg width="591" height="323" viewBox="0 0 591 323" fill="none" xmlns="http://www.w3.org/2000/svg">
<path d="M135.154 157.599V146.291L246.816 207.069V218.377L171.55 196.468C140.232 168.986 136.333 163.402 135.154 157.599Z" fill="#93AEEE"/>
<g filter="url(#filter0_i_1333_2412)">
<path d="M171.177 79.821C186.779 79.821 199.427 67.1732 199.427 51.5714C199.427 35.9696 186.779 23.3218 171.177 23.3218C155.575 23.3218 142.928 35.9696 142.928 51.5714C142.928 67.1732 155.575 79.821 171.177 79.821Z" fill="url(#paint0_linear_1333_2412)"/>
</g>
<path d="M156.683 66.6502H185.669" stroke="white" stroke-linecap="round" stroke-linejoin="round"/>
<path d="M161.72 66.6518V63.5012C161.72 63.334 161.654 63.1739 161.535 63.0554C161.417 62.9369 161.257 62.871 161.089 62.871H158.569C158.402 62.871 158.242 62.9369 158.124 63.0554C158.006 63.1739 157.939 63.334 157.939 63.5012V66.6518" stroke="white" stroke-linecap="round" stroke-linejoin="round"/>
<path d="M169.282 66.6502V58.4585C169.282 58.2914 169.215 58.1313 169.097 58.0128C168.979 57.8951 168.819 57.8284 168.652 57.8284H166.131C165.964 57.8284 165.803 57.8951 165.686 58.0128C165.567 58.1313 165.501 58.2914 165.501 58.4585V66.6502" stroke="white" stroke-linecap="round" stroke-linejoin="round"/>
<path d="M176.843 66.6504V53.4178C176.843 53.2506 176.776 53.0906 176.658 52.9721C176.54 52.8544 176.38 52.7877 176.213 52.7877H173.692C173.525 52.7877 173.364 52.8544 173.246 52.9721C173.128 53.0906 173.062 53.2506 173.062 53.4178V66.6504" stroke="white" stroke-linecap="round" stroke-linejoin="round"/>
<path d="M184.405 66.6511V48.3767C184.405 48.2096 184.338 48.0495 184.221 47.9318C184.102 47.8133 183.942 47.7466 183.775 47.7466H181.255C181.087 47.7466 180.927 47.8133 180.809 47.9318C180.69 48.0495 180.624 48.2096 180.624 48.3767V66.6511" stroke="white" stroke-linecap="round" stroke-linejoin="round"/>
<path d="M159.835 54.0478L182.519 38.9249" stroke="white" stroke-linecap="round" stroke-linejoin="round"/>
<path d="M181.889 43.9659L182.519 38.9249L177.478 38.2947" stroke="white" stroke-linecap="round" stroke-linejoin="round"/>
<g filter="url(#filter1_i_1333_2412)">
<path d="M412.179 42.4032C423.884 42.4032 433.372 32.9109 433.372 21.2016C433.372 9.49229 423.884 0 412.179 0C400.475 0 390.986 9.49229 390.986 21.2016C390.986 32.9109 400.475 42.4032 412.179 42.4032Z" fill="url(#paint1_linear_1333_2412)"/>
</g>
<path d="M422.335 11.0481L412.179 23.4158L408.648 19.4404" stroke="white" stroke-width="1.5" stroke-linecap="round" stroke-linejoin="round"/>
<path d="M419.141 18.3213C419.23 18.5353 419.362 18.7283 419.529 18.8878C419.696 19.0475 419.895 19.1702 420.113 19.248L421.23 19.6455C421.552 19.76 421.831 19.9715 422.028 20.251C422.226 20.5305 422.331 20.8643 422.331 21.2066C422.331 21.5487 422.226 21.8825 422.028 22.162C421.831 22.4415 421.552 22.653 421.23 22.7675L420.113 23.165C419.895 23.2426 419.695 23.3651 419.526 23.5247C419.359 23.6842 419.226 23.8774 419.138 24.0914C419.049 24.3055 419.007 24.5358 419.013 24.7675C419.018 24.9992 419.072 25.227 419.173 25.4362L419.685 26.506C419.834 26.8152 419.882 27.1626 419.824 27.5004C419.766 27.8383 419.605 28.15 419.363 28.3923C419.121 28.6348 418.809 28.7959 418.472 28.8537C418.134 28.9114 417.786 28.8628 417.477 28.7146L416.407 28.2058C416.197 28.1062 415.97 28.0517 415.738 28.0457C415.507 28.0398 415.277 28.0826 415.063 28.1712C414.848 28.2599 414.656 28.3925 414.496 28.5605C414.336 28.7285 414.214 28.9282 414.136 29.1465L413.739 30.264C413.625 30.5865 413.413 30.8657 413.133 31.063C412.855 31.2604 412.521 31.3664 412.179 31.3664C411.836 31.3664 411.503 31.2604 411.224 31.063C410.944 30.8657 410.733 30.5865 410.618 30.264L410.221 29.1465C410.143 28.9282 410.021 28.7285 409.861 28.5605C409.701 28.3925 409.509 28.2599 409.294 28.1712C409.081 28.0826 408.851 28.0398 408.619 28.0457C408.387 28.0517 408.16 28.1062 407.95 28.2058L406.881 28.7146C406.572 28.8628 406.224 28.9114 405.888 28.8537C405.55 28.7959 405.238 28.6348 404.995 28.3923C404.753 28.15 404.592 27.8383 404.535 27.5004C404.477 27.1626 404.525 26.8152 404.673 26.506L405.182 25.4345C405.282 25.2252 405.337 24.9974 405.342 24.7658C405.348 24.5341 405.305 24.3038 405.217 24.0897C405.129 23.8757 404.995 23.6825 404.828 23.523C404.66 23.3633 404.46 23.2408 404.242 23.1633L403.124 22.7657C402.802 22.6513 402.524 22.4398 402.326 22.1603C402.129 21.8808 402.023 21.547 402.023 21.2048C402.023 20.8626 402.129 20.5288 402.326 20.2492C402.524 19.9697 402.802 19.7582 403.124 19.6438L404.242 19.2462C404.46 19.1688 404.66 19.0463 404.827 18.8869C404.995 18.7276 405.127 18.5346 405.217 18.3207C405.305 18.1069 405.348 17.8767 405.343 17.6452C405.337 17.4138 405.282 17.186 405.183 16.9768L404.673 15.9052C404.525 15.5961 404.477 15.2487 404.535 14.9108C404.592 14.5729 404.753 14.2613 404.995 14.0189C405.238 13.7766 405.55 13.6154 405.888 13.5576C406.224 13.5 406.572 13.5485 406.881 13.6967L407.953 14.2055C408.161 14.305 408.389 14.3595 408.62 14.3655C408.851 14.3715 409.081 14.3289 409.296 14.2403C409.51 14.1519 409.703 14.0195 409.862 13.8517C410.021 13.684 410.145 13.4846 410.222 13.2665L410.619 12.149C410.733 11.8266 410.945 11.5475 411.225 11.35C411.503 11.1526 411.838 11.0466 412.179 11.0466C412.522 11.0466 412.855 11.1526 413.135 11.35C413.414 11.5475 413.625 11.8266 413.74 12.149L414.137 13.2665C414.215 13.4843 414.337 13.6834 414.497 13.8508C414.657 14.0183 414.849 14.1502 415.064 14.2383" stroke="white" stroke-width="1.5" stroke-linecap="round" stroke-linejoin="round"/>
<path fill-rule="evenodd" clip-rule="evenodd" d="M455.86 117.316L472.787 113.458L460.917 100.708L443.99 104.565L455.86 117.316Z" fill="url(#paint2_linear_1333_2412)"/>
<path fill-rule="evenodd" clip-rule="evenodd" d="M477.846 96.8503L472.789 113.458L460.919 100.708L465.976 84.0997L477.846 96.8503Z" fill="url(#paint3_linear_1333_2412)"/>
<path fill-rule="evenodd" clip-rule="evenodd" d="M444.189 103.911L460.45 100.206L465.307 84.2517L449.047 87.9573L444.189 103.911Z" fill="url(#paint4_linear_1333_2412)"/>
<circle cx="282.527" cy="171.402" r="143.318" transform="rotate(2.30845 282.527 171.402)" stroke="url(#paint5_linear_1333_2412)" stroke-dasharray="10 10"/>
<path d="M422.747 91.8737V98.5071C381.514 130.155 332.088 151.272 367.616 175.254L392.497 187.395C381.622 183.23 373.467 179.203 367.616 175.254L331.324 157.545L343.76 138.308L422.747 91.8737Z" fill="#93AEEE"/>
<path d="M408.876 91.8737C371.173 113.233 349.069 122.7 305.473 128.758L328.171 185.188H389.961C326.542 156.487 350.869 136.955 422.747 91.8737H408.876Z" fill="#CCD7EF"/>
<path d="M590.988 91.8737V106.744C498.554 177.691 387.752 225.031 467.397 278.792L523.174 306.01C498.795 296.674 480.513 287.646 467.397 278.792L386.039 239.092L413.918 195.968L590.988 91.8737Z" fill="#93AEEE"/>
<path d="M559.893 91.8737C475.373 139.757 425.82 160.979 328.088 174.56L378.972 301.063H517.489C375.32 236.722 429.856 192.935 590.988 91.8737H559.893Z" fill="#CCD7EF"/>
<path d="M254.589 144.171L252.469 149.825C200.299 152.367 172.622 155.517 201.686 175.777L234.447 194.348C219.677 186.927 208.923 180.822 201.686 175.777L168.37 156.892L174.377 144.171H254.589Z" fill="#93AEEE"/>
<path d="M227.734 210.249C69.1699 133.019 138.334 131.45 258.477 131.45L253.529 145.584C162.673 148.118 159.315 157.733 237.628 189.401L227.734 210.249Z" fill="#CCD7EF"/>
<path d="M230.561 226.15V212.723L174.73 204.949L67.3086 226.15V253.006L180.384 298.943C63.1767 235.032 103.694 226.754 230.561 226.15Z" fill="#93AEEE"/>
<path d="M106.886 301.063C-71.208 210.603 -9.72412 173.853 166.251 192.228L246.816 215.55C81.5767 218.158 46.9668 231.704 202.292 301.063H106.886Z" fill="#CCD7EF"/>
<path d="M564.133 98.9409C445.404 168.199 319.608 214.136 439.751 296.823" stroke="white" stroke-width="4" stroke-dasharray="20 20"/>
<path d="M408.655 97.5275C336.569 142.758 300.546 147.078 378.266 198.588" stroke="white" stroke-width="4" stroke-dasharray="20 20"/>
<path d="M248.23 137.104C155.65 137.104 117.486 155.478 219.961 195.055" stroke="white" stroke-width="4" stroke-dasharray="20 20"/>
<path d="M183.917 207.776C58.1213 184.454 -18.2045 223.324 138.687 292.582" stroke="white" stroke-width="4" stroke-dasharray="20 20"/>
<path d="M270.137 99.6476H298.406L387.453 301.063H190.278L270.137 99.6476Z" fill="url(#paint6_linear_1333_2412)"/>
<path d="M272.258 99.6476H295.579L378.972 301.063H199.465L272.258 99.6476Z" fill="url(#paint7_linear_1333_2412)"/>
<g style="mix-blend-mode:darken" opacity="0.7">
<path d="M284.979 101.061L287.099 209.896" stroke="url(#paint8_linear_1333_2412)" stroke-width="7" stroke-dasharray="16 16"/>
</g>
<g style="mix-blend-mode:darken" opacity="0.7">
<path d="M287.099 267.847L287.805 301.063" stroke="url(#paint9_linear_1333_2412)" stroke-width="7" stroke-dasharray="16 16"/>
</g>
<path fill-rule="evenodd" clip-rule="evenodd" d="M80.3437 195.055L106.994 188.982L88.3056 168.906L61.6548 174.98L80.3437 195.055Z" fill="url(#paint10_linear_1333_2412)"/>
<path fill-rule="evenodd" clip-rule="evenodd" d="M114.958 162.833L106.996 188.981L88.3076 168.906L96.2695 142.757L114.958 162.833Z" fill="url(#paint11_linear_1333_2412)"/>
<path fill-rule="evenodd" clip-rule="evenodd" d="M61.9678 173.95L87.5689 168.116L95.2175 142.997L69.616 148.831L61.9678 173.95Z" fill="url(#paint12_linear_1333_2412)"/>
<path d="M320.24 225.595C320.548 222.241 319.905 220.348 318.139 216.961L316.739 215.794L313.472 217.427C313.134 222.066 315.338 227.462 316.039 226.762C316.739 226.062 315.767 224.563 316.739 223.261C317.374 224.654 317.55 225.457 316.973 226.995C316.666 228.342 316.779 228.833 318.139 228.629C319.371 227.668 319.84 227.014 320.24 225.595Z" fill="#FCC6A0"/>
<path d="M303.204 293.504C294.5 294.924 293.894 292.7 295.97 286.503H299.936C302.706 288.007 303.293 289.646 303.204 293.504Z" fill="#20232C"/>
<path d="M270.766 240.53C267.863 234.71 268.064 230.513 267.966 223.261L299.47 217.661L300.637 223.261C301.726 236.65 301.949 244.46 302.504 258.266L299.937 286.036H294.803C293.573 272.274 292.991 264.715 292.469 251.965C289.259 244.952 288.033 240.831 286.402 233.296C286.402 233.296 285.468 232.129 284.301 233.296C283.135 234.463 284.301 262.466 284.301 262.466C281.162 274.297 281.356 281.239 282.435 293.737C278.518 293.495 277.464 294.692 276.134 297.471C272.902 285.154 272.517 278.192 272.867 265.734C274.087 261.994 273.855 259.636 273.567 255.466C271.646 249.667 271.352 246.384 270.766 240.53Z" fill="#D9D9D9"/>
<path d="M270.766 240.53C267.863 234.71 268.064 230.513 267.966 223.261L299.47 217.661L300.637 223.261C301.726 236.65 301.949 244.46 302.504 258.266L299.937 286.036H294.803C293.573 272.274 292.991 264.715 292.469 251.965C289.259 244.952 288.033 240.831 286.402 233.296C286.402 233.296 285.468 232.129 284.301 233.296C283.135 234.463 284.301 262.466 284.301 262.466C281.162 274.297 281.356 281.239 282.435 293.737C278.518 293.495 277.464 294.692 276.134 297.471C272.902 285.154 272.517 278.192 272.867 265.734C274.087 261.994 273.855 259.636 273.567 255.466C271.646 249.667 271.352 246.384 270.766 240.53Z" fill="url(#paint13_linear_1333_2412)"/>
<path d="M299.937 222.328C302.137 222.755 303.326 222.52 305.304 220.694L299.003 218.828L299.937 222.328Z" fill="url(#paint14_linear_1333_2412)"/>
<path d="M299.937 222.328C302.137 222.755 303.326 222.52 305.304 220.694L299.003 218.828L299.937 222.328Z" fill="black" fill-opacity="0.09"/>
<path d="M295.036 170.288C289.223 170.795 286.944 170.175 283.835 168.188C283.288 168.981 282.981 169.339 282.434 169.821C276.784 169.129 273.617 169.248 267.966 169.821C262.31 176.08 260.329 180.257 256.531 187.557C254.724 190.341 254.176 191.99 254.898 195.258C258.924 198.433 261.573 200.108 266.799 202.959L265.166 224.895C275.9 220.928 289.388 218.366 305.304 220.928L303.437 215.094L303.336 214.8C300.941 207.815 299.567 203.809 298.303 196.191C298.07 191.758 301.804 189.891 303.437 191.991C304.389 196.083 305.54 198.19 308.104 201.792C310.516 208.161 311.605 211.691 313.005 217.894C315.185 217.032 316.411 216.85 318.606 217.194C318.105 207.388 317.038 203.008 313.938 196.891C312.258 194.006 311.974 192.435 311.838 189.657C311.684 180.359 309.788 178.311 305.304 176.589L295.969 173.555C296.011 172.237 295.74 171.529 295.036 170.288Z" fill="url(#paint15_linear_1333_2412)"/>
<path d="M266.566 202.959C268.886 197.135 269.992 193.775 269.599 186.623C268.928 193.136 268.336 196.731 266.566 202.959Z" fill="url(#paint16_linear_1333_2412)"/>
<path d="M266.566 202.959C268.886 197.135 269.992 193.775 269.599 186.623C268.928 193.136 268.336 196.731 266.566 202.959Z" fill="black" fill-opacity="0.09"/>
<path d="M286.402 304.472C286.402 290.003 273.8 293.27 277.534 305.639V315.206C281.734 325.474 288.969 324.774 288.969 311.939C286.905 309.057 286.404 307.42 286.402 304.472Z" fill="#20232C"/>
<path d="M283.134 165.154C280.942 163.289 280.653 161.628 280.568 158.387L285.468 154.419L293.636 165.621C293.551 167.634 293.751 168.694 294.336 170.521C289.366 172.836 287.539 171.652 284.535 168.888C284.486 167.486 284.141 166.665 283.134 165.154Z" fill="#FCC6A0"/>
<path d="M283.834 165.621C283.688 161.889 282.724 160.519 280.334 158.62C279.981 156.98 280.05 156.06 280.334 154.419C283.368 144.618 303.203 151.386 293.636 166.321C290.13 170.896 285.001 167.955 283.834 165.621Z" fill="#000041"/>
<defs>
<filter id="filter0_i_1333_2412" x="142.928" y="23.3218" width="56.4993" height="63.4993" filterUnits="userSpaceOnUse" color-interpolation-filters="sRGB">
<feFlood flood-opacity="0" result="BackgroundImageFix"/>
<feBlend mode="normal" in="SourceGraphic" in2="BackgroundImageFix" result="shape"/>
<feColorMatrix in="SourceAlpha" type="matrix" values="0 0 0 0 0 0 0 0 0 0 0 0 0 0 0 0 0 0 127 0" result="hardAlpha"/>
<feOffset dy="7"/>
<feGaussianBlur stdDeviation="9.5"/>
<feComposite in2="hardAlpha" operator="arithmetic" k2="-1" k3="1"/>
<feColorMatrix type="matrix" values="0 0 0 0 0 0 0 0 0 0 0 0 0 0 0 0 0 0 0.2 0"/>
<feBlend mode="normal" in2="shape" result="effect1_innerShadow_1333_2412"/>
</filter>
<filter id="filter1_i_1333_2412" x="390.986" y="0" width="42.3859" height="49.4032" filterUnits="userSpaceOnUse" color-interpolation-filters="sRGB">
<feFlood flood-opacity="0" result="BackgroundImageFix"/>
<feBlend mode="normal" in="SourceGraphic" in2="BackgroundImageFix" result="shape"/>
<feColorMatrix in="SourceAlpha" type="matrix" values="0 0 0 0 0 0 0 0 0 0 0 0 0 0 0 0 0 0 127 0" result="hardAlpha"/>
<feOffset dy="7"/>
<feGaussianBlur stdDeviation="9.5"/>
<feComposite in2="hardAlpha" operator="arithmetic" k2="-1" k3="1"/>
<feColorMatrix type="matrix" values="0 0 0 0 1 0 0 0 0 0.431373 0 0 0 0 0.258824 0 0 0 0.4 0"/>
<feBlend mode="normal" in2="shape" result="effect1_innerShadow_1333_2412"/>
</filter>
<linearGradient id="paint0_linear_1333_2412" x1="142.928" y1="51.5714" x2="199.427" y2="51.5714" gradientUnits="userSpaceOnUse">
<stop offset="0.14064" stop-color="#FF6E42"/>
<stop offset="0.557316" stop-color="#D847C0"/>
<stop offset="0.927115" stop-color="#9867F9"/>
</linearGradient>
<linearGradient id="paint1_linear_1333_2412" x1="390.986" y1="21.2016" x2="433.372" y2="21.2016" gradientUnits="userSpaceOnUse">
<stop offset="0.14064" stop-color="#FF6E42"/>
<stop offset="0.557316" stop-color="#D847C0"/>
<stop offset="0.927115" stop-color="#9867F9"/>
</linearGradient>
<linearGradient id="paint2_linear_1333_2412" x1="463.885" y1="103.895" x2="452.893" y2="114.128" gradientUnits="userSpaceOnUse">
<stop stop-color="#FF6E42"/>
<stop offset="1" stop-color="#EFC053"/>
</linearGradient>
<linearGradient id="paint3_linear_1333_2412" x1="473.181" y1="91.8398" x2="465.147" y2="105.033" gradientUnits="userSpaceOnUse">
<stop stop-color="#FF6E42"/>
<stop offset="1" stop-color="#EFC053"/>
</linearGradient>
<linearGradient id="paint4_linear_1333_2412" x1="465.307" y1="84.2517" x2="444.189" y2="103.911" gradientUnits="userSpaceOnUse">
<stop stop-color="#FF6E42"/>
<stop offset="1" stop-color="#EFC053"/>
</linearGradient>
<linearGradient id="paint5_linear_1333_2412" x1="282.527" y1="27.5845" x2="282.527" y2="315.22" gradientUnits="userSpaceOnUse">
<stop stop-color="#FF6E42"/>
<stop offset="0.484375" stop-color="#D847C0" stop-opacity="0.17"/>
<stop offset="1" stop-color="#D847C0" stop-opacity="0"/>
</linearGradient>
<linearGradient id="paint6_linear_1333_2412" x1="292.752" y1="297.529" x2="177.379" y2="59.9702" gradientUnits="userSpaceOnUse">
<stop stop-color="#FF6E42"/>
<stop offset="0.348958" stop-color="#D847C0"/>
<stop offset="0.796875" stop-color="#9867F9" stop-opacity="0.6"/>
</linearGradient>
<linearGradient id="paint7_linear_1333_2412" x1="289.219" y1="-5.65376" x2="289.219" y2="301.063" gradientUnits="userSpaceOnUse">
<stop stop-color="#E5EDFF" stop-opacity="0.42"/>
<stop offset="1" stop-color="#E5EDFF"/>
</linearGradient>
<linearGradient id="paint8_linear_1333_2412" x1="285.478" y1="101.051" x2="287.599" y2="209.886" gradientUnits="userSpaceOnUse">
<stop stop-color="#FF6E42"/>
<stop offset="0.5" stop-color="#D847C0"/>
<stop offset="1" stop-color="#9867F9"/>
</linearGradient>
<linearGradient id="paint9_linear_1333_2412" x1="287.599" y1="267.836" x2="288.305" y2="301.052" gradientUnits="userSpaceOnUse">
<stop stop-color="#FF6E42"/>
<stop offset="0.5" stop-color="#D847C0"/>
<stop offset="1" stop-color="#9867F9"/>
</linearGradient>
<linearGradient id="paint10_linear_1333_2412" x1="92.9777" y1="173.925" x2="75.6716" y2="190.036" gradientUnits="userSpaceOnUse">
<stop stop-color="#FF6E42"/>
<stop offset="1" stop-color="#EFC053"/>
</linearGradient>
<linearGradient id="paint11_linear_1333_2412" x1="107.614" y1="154.944" x2="94.9641" y2="175.717" gradientUnits="userSpaceOnUse">
<stop stop-color="#FF6E42"/>
<stop offset="1" stop-color="#EFC053"/>
</linearGradient>
<linearGradient id="paint12_linear_1333_2412" x1="95.2175" y1="142.997" x2="61.9678" y2="173.95" gradientUnits="userSpaceOnUse">
<stop stop-color="#FF6E42"/>
<stop offset="1" stop-color="#EFC053"/>
</linearGradient>
<linearGradient id="paint13_linear_1333_2412" x1="280.75" y1="238.258" x2="284.168" y2="296.594" gradientUnits="userSpaceOnUse">
<stop stop-color="#4E5F6D"/>
<stop offset="1" stop-color="#768DA0"/>
</linearGradient>
<linearGradient id="paint14_linear_1333_2412" x1="298.891" y1="220.559" x2="305.434" y2="220.559" gradientUnits="userSpaceOnUse">
<stop offset="0.14064" stop-color="#FF6E42"/>
<stop offset="0.557316" stop-color="#D847C0"/>
<stop offset="0.927115" stop-color="#9867F9"/>
</linearGradient>
<linearGradient id="paint15_linear_1333_2412" x1="253.454" y1="194.84" x2="319.93" y2="194.84" gradientUnits="userSpaceOnUse">
<stop offset="0.14064" stop-color="#FF6E42"/>
<stop offset="0.557316" stop-color="#D847C0"/>
<stop offset="0.927115" stop-color="#9867F9"/>
</linearGradient>
<linearGradient id="paint16_linear_1333_2412" x1="266.51" y1="194.301" x2="269.742" y2="194.301" gradientUnits="userSpaceOnUse">
<stop offset="0.14064" stop-color="#FF6E42"/>
<stop offset="0.557316" stop-color="#D847C0"/>
<stop offset="0.927115" stop-color="#9867F9"/>
</linearGradient>
</defs>
</svg>
