<svg width="48" height="48" viewBox="0 0 48 48" fill="none" xmlns="http://www.w3.org/2000/svg">
<path d="M24 4.8C13.4132 4.8 4.80005 13.4131 4.80005 24C4.80005 34.5869 13.4132 43.2 24 43.2C34.5869 43.2 43.2 34.5869 43.2 24C43.2 13.4131 34.5869 4.8 24 4.8ZM6.76805 24.96H14.9568C15.0279 28.1165 15.4368 31.0483 16.1204 33.6H9.64229C7.96613 31.1021 6.94469 28.1434 6.76805 24.96ZM24.96 12.48V6.91584C26.5517 7.49184 28.1146 9.45408 29.2743 12.48H24.96ZM29.9079 14.4C30.6029 16.8288 31.0503 19.7472 31.1252 23.04H24.96V14.4H29.9079ZM23.04 6.91584V12.48H18.7258C19.8855 9.45408 21.4484 7.48992 23.04 6.91584ZM23.04 14.4V23.04H16.8749C16.9498 19.7472 17.3972 16.8288 18.0922 14.4H23.04ZM14.9568 23.04H6.76805C6.94469 19.8566 7.96613 16.8979 9.64229 14.4H16.1204C15.4368 16.9517 15.026 19.8835 14.9568 23.04ZM16.8749 24.96H23.04V33.6H18.0922C17.3972 31.1712 16.9498 28.2528 16.8749 24.96ZM23.04 35.52V41.0842C21.4484 40.5082 19.8855 38.5459 18.7258 35.52H23.04ZM24.96 41.0842V35.52H29.2743C28.1146 38.5459 26.5517 40.5101 24.96 41.0842ZM24.96 33.6V24.96H31.1252C31.0503 28.2528 30.6029 31.1712 29.9079 33.6H24.96ZM33.0432 24.96H41.2301C41.0535 28.1434 40.032 31.1021 38.3559 33.6H31.8778C32.5632 31.0483 32.9741 28.1165 33.0432 24.96ZM33.0432 23.04C32.9722 19.8835 32.5632 16.9517 31.8797 14.4H38.3578C40.034 16.8979 41.0554 19.8566 41.232 23.04H33.0432ZM36.8429 12.48H31.2884C30.5588 10.3949 29.6352 8.6496 28.5658 7.35168C31.8048 8.24256 34.6599 10.0474 36.8429 12.48ZM19.4343 7.35168C18.3648 8.6496 17.4413 10.3949 16.7117 12.48H11.1572C13.3402 10.0474 16.1952 8.24256 19.4343 7.35168ZM11.1572 35.52H16.7117C17.4413 37.6051 18.3648 39.3504 19.4343 40.6483C16.1952 39.7574 13.3402 37.9526 11.1572 35.52ZM28.5658 40.6483C29.6352 39.3504 30.5588 37.6051 31.2884 35.52H36.8429C34.6599 37.9526 31.8048 39.7574 28.5658 40.6483Z" fill="#B7C3CB"/>
</svg>
