<svg width="116" height="116" viewBox="0 0 116 116" fill="none" xmlns="http://www.w3.org/2000/svg">
<g opacity="0.5">
<path d="M99.0832 35.1739L57.9998 57.998M57.9998 57.998L16.9165 35.1739M57.9998 57.998L58 103.915M101.5 77.6145V38.3818C101.5 36.7257 101.5 35.8976 101.256 35.1591C101.04 34.5057 100.687 33.906 100.221 33.4C99.6939 32.828 98.97 32.4259 97.5223 31.6216L61.7556 11.7513C60.3849 10.9897 59.6995 10.609 58.9737 10.4597C58.3313 10.3276 57.6687 10.3276 57.0263 10.4597C56.3005 10.609 55.6151 10.9897 54.2444 11.7513L18.4777 31.6216C17.03 32.4259 16.3061 32.8281 15.7791 33.4C15.3128 33.906 14.9599 34.5058 14.744 35.1591C14.5 35.8976 14.5 36.7257 14.5 38.3818V77.6145C14.5 79.2706 14.5 80.0986 14.744 80.8372C14.9599 81.4905 15.3128 82.0902 15.7791 82.5962C16.3061 83.1682 17.03 83.5704 18.4777 84.3746L54.2444 104.245C55.6151 105.007 56.3005 105.387 57.0263 105.537C57.6687 105.669 58.3313 105.669 58.9737 105.537C59.6995 105.387 60.3849 105.007 61.7556 104.245L97.5223 84.3746C98.97 83.5704 99.6939 83.1682 100.221 82.5962C100.687 82.0902 101.04 81.4905 101.256 80.8372C101.5 80.0986 101.5 79.2706 101.5 77.6145Z" stroke="#4E5F6D" stroke-linecap="round" stroke-linejoin="round"/>
</g>
</svg>
