<svg width="217" height="140" viewBox="0 0 217 140" fill="none" xmlns="http://www.w3.org/2000/svg">
<g clip-path="url(#clip0_2748_42396)">
<circle opacity="0.1" cx="202.5" cy="134.5" r="80.5" fill="#A5A6F6"/>
<circle opacity="0.1" cx="90.5" cy="174.5" r="80.5" fill="#A5A6F6"/>
<path d="M113.333 101.4C113.333 87.5234 113.333 65.8667 113.333 65.8667C-nan -nan -nan -nan -nan -nanC-nan -nan -nan -nan -nan -nanC-nan -nan -nan -nan 113.333 65.8667C113.333 61.0129 113.333 58.586 114.278 56.7321C115.109 55.1013 116.435 53.7755 118.065 52.9446C119.919 52 122.346 52 127.2 52H184.667C189.52 52 191.947 52 193.801 52.9446C195.432 53.7755 196.758 55.1013 197.589 56.7321C198.533 58.586 198.533 61.0129 198.533 65.8667V101.4H171.805C170.745 101.4 170.215 101.4 169.717 101.52C169.275 101.626 168.852 101.801 168.464 102.039C168.027 102.307 167.652 102.681 166.903 103.431L166.631 103.703C165.881 104.452 165.507 104.827 165.069 105.095C164.682 105.332 164.259 105.507 163.817 105.614C163.318 105.733 162.788 105.733 161.728 105.733H150.139C149.079 105.733 148.549 105.733 148.05 105.614C147.608 105.507 147.185 105.332 146.797 105.095C146.36 104.827 145.985 104.452 145.236 103.703L144.964 103.431C144.215 102.681 143.84 102.307 143.403 102.039C143.015 101.801 142.592 101.626 142.15 101.52C141.651 101.4 141.121 101.4 140.061 101.4C-nan -nan -nan -nan -nan -nanC-nan -nan -nan -nan -nan -nanC-nan -nan -nan -nan 140.061 101.4C140.061 101.4 123.771 101.4 113.333 101.4ZM113.333 101.4C110.94 101.4 109 103.34 109 105.733V107.178C109 109.864 109 111.208 109.295 112.31C110.097 115.301 112.433 117.637 115.424 118.438C116.526 118.733 117.869 118.733 120.556 118.733H191.311C193.998 118.733 195.341 118.733 196.443 118.438C199.434 117.637 201.77 115.301 202.571 112.31C202.867 111.208 202.867 109.864 202.867 107.178C202.867 105.834 202.867 105.163 202.719 104.612C202.318 103.116 201.15 101.948 199.655 101.548C199.104 101.4 198.432 101.4 197.089 101.4H194.2" stroke="#9192F6" stroke-width="2" stroke-linecap="round" stroke-linejoin="round"/>
<path d="M142.5 74.0864V78C142.5 78.5154 143.78 79.3121 146.115 79.9263C148.703 80.6074 152.23 81 156 81C159.77 81 163.297 80.6074 165.885 79.9263C168.22 79.3121 169.5 78.5154 169.5 78V74.0864C167.08 75.6038 161.975 76.5 156 76.5C150.025 76.5 144.92 75.6038 142.5 74.0864ZM141 72C141 69.2501 147.651 67.5 156 67.5C164.349 67.5 171 69.2501 171 72V90C171 92.7499 164.349 94.5 156 94.5C147.651 94.5 141 92.7499 141 90V72ZM169.5 80.0864C167.08 81.6038 161.975 82.5 156 82.5C150.025 82.5 144.92 81.6038 142.5 80.0864V84C142.5 84.5154 143.78 85.3121 146.115 85.9263C148.703 86.6074 152.23 87 156 87C159.77 87 163.297 86.6074 165.885 85.9263C168.22 85.3121 169.5 84.5154 169.5 84V80.0864ZM169.5 86.0864C167.08 87.6038 161.975 88.5 156 88.5C150.025 88.5 144.92 87.6038 142.5 86.0864V90C142.5 90.5154 143.78 91.3121 146.115 91.9263C148.703 92.6074 152.23 93 156 93C159.77 93 163.297 92.6074 165.885 91.9263C168.22 91.3121 169.5 90.5154 169.5 90V86.0864ZM156 75C159.77 75 163.297 74.6074 165.885 73.9263C168.22 73.3121 169.5 72.5154 169.5 72C169.5 71.4846 168.22 70.6879 165.885 70.0737C163.297 69.3926 159.77 69 156 69C152.23 69 148.703 69.3926 146.115 70.0737C143.78 70.6879 142.5 71.4846 142.5 72C142.5 72.5154 143.78 73.3121 146.115 73.9263C148.703 74.6074 152.23 75 156 75Z" fill="#A5A6F6"/>
</g>
<defs>
<clipPath id="clip0_2748_42396">
<rect width="217" height="140" fill="white"/>
</clipPath>
</defs>
</svg>
