<svg width="48" height="48" viewBox="0 0 48 48" fill="none" xmlns="http://www.w3.org/2000/svg">
<path d="M34 15.4142L25.7071 23.7071C25.3166 24.0976 24.6834 24.0976 24.2929 23.7071C23.9024 23.3166 23.9024 22.6834 24.2929 22.2929L32.5858 14H27C26.4477 14 26 13.5523 26 13C26 12.4477 26.4477 12 27 12H35C35.5523 12 36 12.4477 36 13V21C36 21.5523 35.5523 22 35 22C34.4477 22 34 21.5523 34 21V15.4142ZM9 26C9.55228 26 10 26.4477 10 27C10 27.5523 9.55228 28 9 28C8.44772 28 8 28.4477 8 29C8 29.5523 7.55228 30 7 30C6.44772 30 6 29.5523 6 29C6 27.3431 7.34315 26 9 26ZM19 28C18.4477 28 18 27.5523 18 27C18 26.4477 18.4477 26 19 26C20.6569 26 22 27.3431 22 29C22 29.5523 21.5523 30 21 30C20.4477 30 20 29.5523 20 29C20 28.4477 19.5523 28 19 28ZM20 39C20 38.4477 20.4477 38 21 38C21.5523 38 22 38.4477 22 39C22 40.6569 20.6569 42 19 42C18.4477 42 18 41.5523 18 41C18 40.4477 18.4477 40 19 40C19.5523 40 20 39.5523 20 39ZM6 39C6 38.4477 6.44772 38 7 38C7.55228 38 8 38.4477 8 39C8 39.5523 8.44772 40 9 40C9.55228 40 10 40.4477 10 41C10 41.5523 9.55228 42 9 42C7.34315 42 6 40.6569 6 39ZM6 33C6 32.4477 6.44772 32 7 32C7.55228 32 8 32.4477 8 33V35C8 35.5523 7.55228 36 7 36C6.44772 36 6 35.5523 6 35V33ZM22 34V35C22 35.5523 21.5523 36 21 36C20.4477 36 20 35.5523 20 35V33C20 32.4477 20.4477 32 21 32H37C38.6569 32 40 30.6569 40 29V11C40 9.34315 38.6569 8 37 8H19C17.3431 8 16 9.34315 16 11V27C16 27.5523 15.5523 28 15 28H13C12.4477 28 12 27.5523 12 27C12 26.4477 12.4477 26 13 26H14V11C14 8.23858 16.2386 6 19 6H37C39.7614 6 42 8.23858 42 11V29C42 31.7614 39.7614 34 37 34H22ZM13 42C12.4477 42 12 41.5523 12 41C12 40.4477 12.4477 40 13 40H15C15.5523 40 16 40.4477 16 41C16 41.5523 15.5523 42 15 42H13Z" fill="#B7C3CB"/>
</svg>
