<?xml version="1.0" encoding="UTF-8" standalone="no"?>
<svg
   width="189"
   height="189"
   viewBox="0 0 189 189"
   fill="none"
   version="1.1"
   id="svg3"
   sodipodi:docname="voyager-rotate.svg"
   inkscape:version="1.4 (e7c3feb1, 2024-10-09)"
   xmlns:inkscape="http://www.inkscape.org/namespaces/inkscape"
   xmlns:sodipodi="http://sodipodi.sourceforge.net/DTD/sodipodi-0.dtd"
   xmlns="http://www.w3.org/2000/svg"
   xmlns:svg="http://www.w3.org/2000/svg">
  <defs
     id="defs3" />
  <sodipodi:namedview
     id="namedview3"
     pagecolor="#ffffff"
     bordercolor="#000000"
     borderopacity="0.25"
     inkscape:showpageshadow="2"
     inkscape:pageopacity="0.0"
     inkscape:pagecheckerboard="0"
     inkscape:deskcolor="#d1d1d1"
     inkscape:zoom="0.13756614"
     inkscape:cx="94.5"
     inkscape:cy="90.865385"
     inkscape:window-width="1448"
     inkscape:window-height="844"
     inkscape:window-x="73"
     inkscape:window-y="25"
     inkscape:window-maximized="0"
     inkscape:current-layer="svg3" />
  <rect
     width="189"
     height="189"
     fill="#ffffff"
     id="rect1"
     x="-189"
     y="-189"
     transform="scale(-1)" />
  <path
     d="m 102.375,71.214 c 0,-8.511 17.6288,-15.411 39.375,-15.411 21.7462,0 39.375,6.9 39.375,15.411 m -78.75,0 c 0,8.511 17.6288,15.411 39.375,15.411 21.7462,0 39.375,-6.9 39.375,-15.411 m -78.75,0 V 23.286 c 0,-8.511 17.6288,-15.411 39.375,-15.411 21.7462,0 39.375,6.9 39.375,15.411 m 0,47.928 V 23.401 m -78.75,23.841 c 0,-8.511 17.6288,-15.411 39.375,-15.411 21.7462,0 39.375,6.9 39.375,15.411"
     stroke="#4e5f6d"
     stroke-width="2"
     stroke-linecap="round"
     stroke-linejoin="round"
     id="path1" />
  <path
     d="m 7.875,168.7962 c 0,-6.809 14.103,-12.3287 31.5,-12.3287 17.397,0 31.5,5.5197 31.5,12.3287 m -63,0 c 0,6.809 14.103,12.3288 31.5,12.3288 17.397,0 31.5,-5.5198 31.5,-12.3288 m -63,0 v -38.3424 c 0,-6.809 14.103,-12.3288 31.5,-12.3288 17.397,0 31.5,5.5198 31.5,12.3288 v 38.3424 m -63,-19.1778 c 0,-6.809 14.103,-12.3287 31.5,-12.3287 17.397,0 31.5,5.5197 31.5,12.3287"
     stroke="#4e5f6d"
     stroke-width="2"
     stroke-linecap="round"
     stroke-linejoin="round"
     id="path2" />
  <path
     d="m 144.75,120.2243 v -1.8493 c 0,10.3571 0,15.5357 -2.0156,19.4916 -1.773,3.4797 -4.6021,6.3088 -8.0818,8.0818 -3.9559,2.0156 -9.1345,2.0156 -19.4916,2.0156 h -13.5617 m 0,0 15.411,-15.4109 m -15.411,15.4109 15.411,15.411"
     stroke="#4e5f6d"
     stroke-width="2"
     stroke-linecap="round"
     stroke-linejoin="round"
     id="path3" />
</svg>
