<svg width="189" height="189" viewBox="0 0 189 189" fill="none" xmlns="http://www.w3.org/2000/svg">
<rect width="189" height="189" fill="white"/>
<path d="M86.625 117.786C86.625 126.297 68.9962 133.197 47.25 133.197C25.5038 133.197 7.875 126.297 7.875 117.786M86.625 117.786C86.625 109.275 68.9962 102.375 47.25 102.375C25.5038 102.375 7.875 109.275 7.875 117.786M86.625 117.786V165.714C86.625 174.225 68.9962 181.125 47.25 181.125C25.5038 181.125 7.875 174.225 7.875 165.714M7.875 117.786V165.599M86.625 141.758C86.625 150.269 68.9962 157.169 47.25 157.169C25.5038 157.169 7.875 150.269 7.875 141.758" stroke="#4E5F6D" stroke-width="2" stroke-linecap="round" stroke-linejoin="round"/>
<path d="M181.125 20.2038C181.125 27.0128 167.022 32.5325 149.625 32.5325C132.228 32.5325 118.125 27.0128 118.125 20.2038M181.125 20.2038C181.125 13.3948 167.022 7.875 149.625 7.875C132.228 7.875 118.125 13.3948 118.125 20.2038M181.125 20.2038V58.5462C181.125 65.3552 167.022 70.875 149.625 70.875C132.228 70.875 118.125 65.3552 118.125 58.5462V20.2038M181.125 39.3816C181.125 46.1906 167.022 51.7103 149.625 51.7103C132.228 51.7103 118.125 46.1906 118.125 39.3816" stroke="#4E5F6D" stroke-width="2" stroke-linecap="round" stroke-linejoin="round"/>
<path d="M44.25 68.7757V70.625C44.25 60.2679 44.25 55.0893 46.2656 51.1334C48.0386 47.6537 50.8677 44.8246 54.3474 43.0516C58.3033 41.036 63.4819 41.036 73.839 41.036H87.4007M87.4007 41.036L71.9897 56.4469M87.4007 41.036L71.9897 25.625" stroke="#4E5F6D" stroke-width="2" stroke-linecap="round" stroke-linejoin="round"/>
</svg>
