<svg width="217" height="140" viewBox="0 0 217 140" fill="none" xmlns="http://www.w3.org/2000/svg">
<g clip-path="url(#clip0_2748_42372)">
<ellipse opacity="0.05" cx="210.5" cy="87.5" rx="80.5" ry="76.1487" fill="#2FB3FF"/>
<ellipse cx="140.5" cy="152.77" rx="80.5" ry="76.1487" fill="#F5FBFF"/>
<g opacity="0.5">
<path d="M175.372 90.3499C167.905 90.3499 161.852 84.2968 161.852 76.8299C161.852 70.5288 166.162 65.2344 171.995 63.7349C171.993 63.5935 171.992 63.4519 171.992 63.3099C171.992 50.2428 182.585 39.6499 195.652 39.6499C207.853 39.6499 217.897 48.8857 219.174 60.7477C225.153 62.7965 229.452 68.4662 229.452 75.1399C229.452 83.5402 222.642 90.3499 214.242 90.3499C201.603 90.3499 189.526 90.3499 175.372 90.3499Z" stroke="#2FB3FF" stroke-width="2" stroke-linecap="round" stroke-linejoin="round"/>
</g>
<g opacity="0.5">
<path d="M137.658 131.375C132.393 131.375 128.125 127.107 128.125 121.842C128.125 117.399 131.165 113.665 135.278 112.608C135.276 112.508 135.275 112.408 135.275 112.308C135.275 103.094 142.744 95.625 151.958 95.625C160.562 95.625 167.644 102.137 168.545 110.502C172.761 111.946 175.792 115.944 175.792 120.65C175.792 126.573 170.99 131.375 165.067 131.375C156.155 131.375 147.639 131.375 137.658 131.375Z" stroke="#2FB3FF" stroke-width="2" stroke-linecap="round" stroke-linejoin="round"/>
</g>
<g opacity="0.5">
<path d="M114.438 88.3499C110.801 88.3499 107.852 85.401 107.852 81.7632C107.852 78.6935 109.952 76.1142 112.793 75.3836C112.792 75.3147 112.792 75.2457 112.792 75.1766C112.792 68.8106 117.952 63.6499 124.318 63.6499C130.262 63.6499 135.156 68.1494 135.778 73.9283C138.691 74.9264 140.785 77.6886 140.785 80.9399C140.785 85.0323 137.467 88.3499 133.375 88.3499C127.218 88.3499 121.334 88.3499 114.438 88.3499Z" stroke="#2FB3FF" stroke-width="2" stroke-linecap="round" stroke-linejoin="round"/>
</g>
<path d="M190 114.391V117C190 117.344 190.854 117.875 192.41 118.284C194.135 118.738 196.487 119 199 119C201.513 119 203.865 118.738 205.59 118.284C207.146 117.875 208 117.344 208 117V114.391C206.386 115.403 202.983 116 199 116C195.017 116 191.614 115.403 190 114.391ZM189 113C189 111.167 193.434 110 199 110C204.566 110 209 111.167 209 113V125C209 126.833 204.566 128 199 128C193.434 128 189 126.833 189 125V113ZM208 118.391C206.386 119.403 202.983 120 199 120C195.017 120 191.614 119.403 190 118.391V121C190 121.344 190.854 121.875 192.41 122.284C194.135 122.738 196.487 123 199 123C201.513 123 203.865 122.738 205.59 122.284C207.146 121.875 208 121.344 208 121V118.391ZM208 122.391C206.386 123.403 202.983 124 199 124C195.017 124 191.614 123.403 190 122.391V125C190 125.344 190.854 125.875 192.41 126.284C194.135 126.738 196.487 127 199 127C201.513 127 203.865 126.738 205.59 126.284C207.146 125.875 208 125.344 208 125V122.391ZM199 115C201.513 115 203.865 114.738 205.59 114.284C207.146 113.875 208 113.344 208 113C208 112.656 207.146 112.125 205.59 111.716C203.865 111.262 201.513 111 199 111C196.487 111 194.135 111.262 192.41 111.716C190.854 112.125 190 112.656 190 113C190 113.344 190.854 113.875 192.41 114.284C194.135 114.738 196.487 115 199 115Z" fill="#A5A6F6"/>
<path d="M84 114.391V117C84 117.344 84.8536 117.875 86.4097 118.284C88.1351 118.738 90.4866 119 93 119C95.5134 119 97.8649 118.738 99.5903 118.284C101.146 117.875 102 117.344 102 117V114.391C100.386 115.403 96.9832 116 93 116C89.0168 116 85.6136 115.403 84 114.391ZM83 113C83 111.167 87.4337 110 93 110C98.5663 110 103 111.167 103 113V125C103 126.833 98.5663 128 93 128C87.4337 128 83 126.833 83 125V113ZM102 118.391C100.386 119.403 96.9832 120 93 120C89.0168 120 85.6136 119.403 84 118.391V121C84 121.344 84.8536 121.875 86.4097 122.284C88.1351 122.738 90.4866 123 93 123C95.5134 123 97.8649 122.738 99.5903 122.284C101.146 121.875 102 121.344 102 121V118.391ZM102 122.391C100.386 123.403 96.9832 124 93 124C89.0168 124 85.6136 123.403 84 122.391V125C84 125.344 84.8536 125.875 86.4097 126.284C88.1351 126.738 90.4866 127 93 127C95.5134 127 97.8649 126.738 99.5903 126.284C101.146 125.875 102 125.344 102 125V122.391ZM93 115C95.5134 115 97.8649 114.738 99.5903 114.284C101.146 113.875 102 113.344 102 113C102 112.656 101.146 112.125 99.5903 111.716C97.8649 111.262 95.5134 111 93 111C90.4866 111 88.1351 111.262 86.4097 111.716C84.8536 112.125 84 112.656 84 113C84 113.344 84.8536 113.875 86.4097 114.284C88.1351 114.738 90.4866 115 93 115Z" fill="#A5A6F6"/>
<path d="M141 41.0456V43.5136C141 43.8386 141.854 44.341 143.41 44.7284C145.135 45.1579 147.487 45.4055 150 45.4055C152.513 45.4055 154.865 45.1579 156.59 44.7284C158.146 44.341 159 43.8386 159 43.5136V41.0456C157.386 42.0025 153.983 42.5676 150 42.5676C146.017 42.5676 142.614 42.0025 141 41.0456ZM140 39.7298C140 37.9957 144.434 36.892 150 36.892C155.566 36.892 160 37.9957 160 39.7298V51.0812C160 52.8153 155.566 53.919 150 53.919C144.434 53.919 140 52.8153 140 51.0812V39.7298ZM159 44.8294C157.386 45.7863 153.983 46.3514 150 46.3514C146.017 46.3514 142.614 45.7863 141 44.8294V47.2974C141 47.6224 141.854 48.1248 143.41 48.5122C145.135 48.9417 147.487 49.1893 150 49.1893C152.513 49.1893 154.865 48.9417 156.59 48.5122C158.146 48.1248 159 47.6224 159 47.2974V44.8294ZM159 48.6131C157.386 49.57 153.983 50.1352 150 50.1352C146.017 50.1352 142.614 49.57 141 48.6131V51.0812C141 51.4062 141.854 51.9086 143.41 52.296C145.135 52.7255 147.487 52.973 150 52.973C152.513 52.973 154.865 52.7255 156.59 52.296C158.146 51.9086 159 51.4062 159 51.0812V48.6131ZM150 41.6217C152.513 41.6217 154.865 41.3741 156.59 40.9446C158.146 40.5573 159 40.0549 159 39.7298C159 39.4048 158.146 38.9024 156.59 38.515C154.865 38.0855 152.513 37.8379 150 37.8379C147.487 37.8379 145.135 38.0855 143.41 38.515C141.854 38.9024 141 39.4048 141 39.7298C141 40.0549 141.854 40.5573 143.41 40.9446C145.135 41.3741 147.487 41.6217 150 41.6217Z" fill="#A5A6F6"/>
</g>
<defs>
<clipPath id="clip0_2748_42372">
<rect width="217" height="140" fill="white"/>
</clipPath>
</defs>
</svg>
