<?xml version="1.0" encoding="UTF-8"?>
<svg width="493px" height="294px" viewBox="0 0 493 294" version="1.1" xmlns="http://www.w3.org/2000/svg" xmlns:xlink="http://www.w3.org/1999/xlink">
    <!-- Generator: Sketch 51.2 (57519) - http://www.bohemiancoding.com/sketch -->
    <title>Group 3</title>
    <desc>Created with Sketch.</desc>
    <defs></defs>
    <g id="Symbols" stroke="none" stroke-width="1" fill="none" fill-rule="evenodd">
        <g id="enterprise-edition" transform="translate(0.000000, -2.000000)">
            <g id="Group-3">
                <path d="M1.80894837,274.940877 C7.23579347,229.740549 63.6166595,204.791502 96.4858121,189.707625 C129.354965,174.623748 114.057301,145.633134 75.9731465,130.894723 C37.888992,116.156312 88.0250177,46.2483758 171.287819,56.7940985 C254.550621,67.3398212 289.222044,141.707577 351.125798,56.7940985 C389.26019,4.48509234 436.225294,-10.3714481 492,12.2244771 C492,21.05411 492,115.313232 492,295.001843 C174.053206,295.001843 10.0847403,295.001843 0.094601539,295.001843 C0.307319028,289.375361 0.878767971,282.688373 1.80894837,274.940877 Z" id="Path-2" fill="#FFFFFF" fill-rule="nonzero"></path>
                <g id="Group-10" transform="translate(243.000000, 189.000000)">
                    <path d="M248.997613,105.995232 C248.997613,66.5574483 248.997613,37.4138867 248.997613,18.564547 C224.512749,6.6697667 197.033252,0 168,0 C94.0278193,0 30.1418453,43.2968323 0.173280515,105.995232 C21.9610735,105.995232 104.902518,105.995232 248.997613,105.995232 Z" id="Path" fill="#FFFFFF"></path>
                    <path d="M200.49923,3 L197.07106,8.02216425 C197.07106,8.02216425 180.709305,31.1531756 189.764223,37.1764945 C198.817403,43.1980669 196.052794,29.6966816 210.5987,25.7376025 C225.142868,21.7785234 223.957788,27.3355546 237.725224,50.7250325 C251.49266,74.1145104 214.407639,41.6629851 198.417742,47.9011106 C182.429583,54.1409825 195.267374,70.8312864 194.356843,79.2157323 C193.442837,87.5984318 176.280024,80.5272755 163.019983,90.7349585 C155.250255,96.7159155 155.241977,101.942373 159.745926,105.997832 C164.522764,106.003807 184.319702,105.997832 189.095635,106.003807 C189.544756,103.776543 190.053339,101.098919 191.004908,98.0034575 C194.878579,85.3950722 214.789155,96.2360022 225.265515,105.997757 C235.516518,105.997757 243.427657,105.997757 248.998933,105.997757 C248.998933,53.9412881 248.998933,24.8524342 248.998933,18.7311949 C240.056222,14.2025665 232.283179,11.0444982 225.679803,9.25699005 C218.154602,7.21994737 209.761078,5.13428401 200.49923,3 Z" id="Stroke-8" fill="#F5F6F8"></path>
                    <path d="M7.575,94.8041667 L14.1144967,91.0426394 C14.1144967,91.0426394 46.7165763,72.0247747 69.292584,73.2044869 C91.8703264,74.3841992 101.898133,76.6810763 112.904262,71.3576031 C123.908656,66.0306551 130.288568,45.6315367 140.861044,42.8134318 C151.431785,39.9953268 165.997343,31.6869558 161.851614,22.6384413 C157.70762,13.5899268 128.668438,9.69288038 128.668438,9.69288038 L115.765823,7.77444346 C90.5935214,15.2236287 68.4574092,26.9032914 49.3574864,42.8134318 C30.2575636,58.7235721 15.6249231,76.7546321 5.45956505,96.9066117 L7.575,94.8041667 Z" id="Stroke-6" fill="#F5F6F8"></path>
                    <path d="M248.998047,18.5647581 C224.513074,6.66984562 197.033424,0 168,0 C94.0283305,0 30.1427282,43.302302 0.173901822,106" id="Path" stroke="#202951" stroke-width="2" stroke-linecap="round"></path>
                    <path d="M7.575,94.8041667 L14.1144967,91.0426394 C14.1144967,91.0426394 46.7165763,72.0247747 69.292584,73.2044869 C91.8703264,74.3841992 101.898133,76.6810763 112.904262,71.3576031 C123.908656,66.0306551 130.288568,45.6315367 140.861044,42.8134318 C151.431785,39.9953268 165.997343,31.6869558 161.851614,22.6384413 C157.70762,13.5899268 128.668438,9.69288038 128.668438,9.69288038 L115.765823,7.77444346" id="Stroke-6" stroke="#202951" stroke-width="2" stroke-linecap="round"></path>
                    <path d="M200.54923,3.24838932 L197.12106,8.27055356 C197.12106,8.27055356 180.759305,31.4015649 189.814223,37.4248838 C198.867403,43.4464562 196.102794,29.9450709 210.6487,25.9859918 C225.192868,22.0269127 224.007788,27.5839439 237.775224,50.9734218 C251.54266,74.3628997 214.457639,41.9113744 198.467742,48.1494999 C182.479583,54.3893718 195.317374,71.0796757 194.406843,79.4641216 C193.492837,87.8468211 176.330024,80.7756648 163.069983,90.9833478 C155.455967,96.8444414 155.295426,101.980974 159.5306,106.000989 M189.196071,106.001529 C189.633244,103.824951 190.138771,101.232049 191.054908,98.2518468 C194.896329,85.7484324 214.508736,96.3055049 225.051905,106.002122" id="Stroke-8" stroke="#202951" stroke-width="2" stroke-linecap="round" stroke-linejoin="round"></path>
                </g>
                <g id="Group-41" transform="translate(232.000000, 74.000000) rotate(-30.000000) translate(-232.000000, -74.000000) translate(201.000000, 7.000000)">
                    <path d="M61.4324991,27.9774436 C61.4324991,24.1352895 52.7662799,17.4394683 52.7662799,17.4394683 C52.7662799,17.4394683 44.0977448,23.9222942 44.0977448,27.9774436 L44.0977448,105.792536 C44.0977448,107.73303 45.6471036,109.307548 47.5577479,109.307548 L57.973654,109.307548 C59.8831403,109.307548 61.4324991,107.73303 61.4324991,105.792536 L61.4324991,27.9774436 Z" id="Stroke-1" stroke="#202951" stroke-width="2" fill="#FFFFFF"></path>
                    <path d="M18.1433215,27.9774436 C18.1433215,24.1352895 9.47710231,17.4394683 9.47710231,17.4394683 C9.47710231,17.4394683 0.808567175,23.9222942 0.808567175,27.9774436 L0.808567175,105.792536 C0.808567175,107.73303 2.35792598,109.307548 4.26857024,109.307548 L14.6844764,109.307548 C16.5939627,109.307548 18.1433215,107.73303 18.1433215,105.792536 L18.1433215,27.9774436 Z" id="Stroke-3" stroke="#202951" stroke-width="2" fill="#FFFFFF"></path>
                    <path d="M46.3834543,19.4963446 C46.3834543,12.7322707 31.1203016,0.93868183 31.1203016,0.93868183 C31.1203016,0.93868183 15.8583068,12.356881 15.8583068,19.4963446 L15.8583068,109.661638 C15.8583068,113.078978 18.5853172,115.851448 21.9492091,115.851448 L40.292552,115.851448 C43.6576018,115.851448 46.3834543,113.078978 46.3834543,109.661638 L46.3834543,19.4963446 Z" id="Fill-5" fill="#FFFFFF"></path>
                    <path d="M46.3834543,19.4963446 C46.3834543,12.7322707 31.1203016,0.93868183 31.1203016,0.93868183 C31.1203016,0.93868183 15.8583068,12.356881 15.8583068,19.4963446 L15.8583068,109.661638 C15.8583068,113.078978 18.5853172,115.851448 21.9492091,115.851448 L40.292552,115.851448 C43.6576018,115.851448 46.3834543,113.078978 46.3834543,109.661638 L46.3834543,19.4963446 Z" id="Stroke-7" stroke="#202951" stroke-width="2"></path>
                    <path d="M41.7854886,53.5076075 C41.7854886,48.8921738 31.3434207,40.8437823 31.3434207,40.8437823 C31.3434207,40.8437823 20.902482,48.6346161 20.902482,53.5076075 L20.902482,101.599923 L41.7854886,101.599923 L41.7854886,53.5076075 Z" id="Stroke-9" stroke="#202951" stroke-width="2"></path>
                    <path d="M38.3981396,110.618563 L24.289831,110.618563 C22.4188852,110.618563 20.902482,109.08123 20.902482,107.18446 L20.902482,101.599465 L41.7854886,101.599465 L41.7854886,107.18446 C41.7854886,109.08123 40.2679562,110.618563 38.3981396,110.618563 Z" id="Stroke-11" stroke="#202951" stroke-width="2"></path>
                    <polygon id="Fill-13" fill="#FFFFFF" points="54.4440118 84.3429858 41.7854886 67.95087 41.7854886 104.312292 54.5535361 106.109472"></polygon>
                    <polygon id="Stroke-15" stroke="#202951" stroke-width="2" points="54.4440118 84.3429858 41.7854886 67.95087 41.7854886 104.312292 54.5535361 106.109472"></polygon>
                    <polygon id="Fill-17" fill="#FFFFFF" points="8.19766498 84.3429858 20.8573173 67.95087 20.8573173 104.312292 8.08926981 106.109472"></polygon>
                    <polygon id="Stroke-19" stroke="#202951" stroke-width="2" points="8.19766498 84.3429858 20.8573173 67.95087 20.8573173 104.312292 8.08926981 106.109472"></polygon>
                    <path d="M36.1289545,57.6236082 C36.1289545,60.3159445 33.9768587,62.4977443 31.3211771,62.4977443 C28.6666246,62.4977443 26.5133998,60.3159445 26.5133998,57.6236082 C26.5133998,54.9312719 28.6666246,52.7494721 31.3211771,52.7494721 C33.9768587,52.7494721 36.1289545,54.9312719 36.1289545,57.6236082" id="Fill-21" fill="#F75821"></path>
                    <path d="M36.1289545,57.6236082 C36.1289545,60.3159445 33.9768587,62.4977443 31.3211771,62.4977443 C28.6666246,62.4977443 26.5133998,60.3159445 26.5133998,57.6236082 C26.5133998,54.9312719 28.6666246,52.7494721 31.3211771,52.7494721 C33.9768587,52.7494721 36.1289545,54.9312719 36.1289545,57.6236082 Z" id="Stroke-23" stroke="#202951" stroke-width="2"></path>
                    <path d="M36.1509722,74.3995421 C36.1509722,77.0918784 33.9988765,79.2736782 31.3431949,79.2736782 C28.6886424,79.2736782 26.5354175,77.0918784 26.5354175,74.3995421 C26.5354175,71.7072058 28.6886424,69.5242613 31.3431949,69.5242613 C33.9988765,69.5242613 36.1509722,71.7072058 36.1509722,74.3995421" id="Fill-25" fill="#F75821"></path>
                    <path d="M36.1509722,74.3995421 C36.1509722,77.0918784 33.9988765,79.2736782 31.3431949,79.2736782 C28.6886424,79.2736782 26.5354175,77.0918784 26.5354175,74.3995421 C26.5354175,71.7072058 28.6886424,69.5242613 31.3431949,69.5242613 C33.9988765,69.5242613 36.1509722,71.7072058 36.1509722,74.3995421 Z" id="Stroke-27" stroke="#202951" stroke-width="2"></path>
                    <path d="M36.1509722,91.1743313 C36.1509722,93.8666676 33.9988765,96.0484674 31.3431949,96.0484674 C28.6886424,96.0484674 26.5354175,93.8666676 26.5354175,91.1743313 C26.5354175,88.481995 28.6886424,86.3001952 31.3431949,86.3001952 C33.9988765,86.3001952 36.1509722,88.481995 36.1509722,91.1743313" id="Fill-29" fill="#F75821"></path>
                    <path d="M36.1509722,91.1743313 C36.1509722,93.8666676 33.9988765,96.0484674 31.3431949,96.0484674 C28.6886424,96.0484674 26.5354175,93.8666676 26.5354175,91.1743313 C26.5354175,88.481995 28.6886424,86.3001952 31.3431949,86.3001952 C33.9988765,86.3001952 36.1509722,88.481995 36.1509722,91.1743313 Z" id="Stroke-31" stroke="#202951" stroke-width="2"></path>
                    <path d="M31.3209513,133.255848 C31.3209513,133.255848 37.8438564,129.435981 37.8438564,124.56299 C37.8438564,119.689999 36.8649125,115.851677 36.8649125,115.851677 L25.7781192,115.851677 C25.7781192,115.851677 24.7980462,119.947556 24.7980462,124.56299 C24.7980462,129.179568 31.3209513,133.255848 31.3209513,133.255848 Z" id="Fill-33" fill="#F75821"></path>
                    <path d="M24.7980462,124.56299 C24.7980462,129.179568 31.3209513,133.255848 31.3209513,133.255848 C31.3209513,133.255848 37.8438564,129.435981 37.8438564,124.56299 C37.8438564,119.689999 36.8649125,115.851677 36.8649125,115.851677 L25.7781192,115.851677 C25.7781192,115.851677 24.7980462,119.947556 24.7980462,124.56299 Z" id="Stroke-35" stroke="#202951" stroke-width="2"></path>
                    <path d="M48.0007632,113.758715 C48.0007632,116.67422 52.2065098,119.248509 52.2065098,119.248509 C52.2065098,119.248509 56.4122563,116.836152 56.4122563,113.758715 C56.4122563,110.681279 55.7810668,109.732095 55.7810668,109.732095 L48.6326808,109.732095 C48.6326808,109.732095 48.0007632,110.843934 48.0007632,113.758715" id="Fill-33" fill="#F75821"></path>
                    <path d="M5.90194567,113.709968 C5.90194567,116.625473 10.1076922,119.199762 10.1076922,119.199762 C10.1076922,119.199762 14.3134388,116.787405 14.3134388,113.709968 C14.3134388,110.632532 13.6822492,109.683348 13.6822492,109.683348 L6.53386328,109.683348 C6.53386328,109.683348 5.90194567,110.795187 5.90194567,113.709968" id="Fill-33-Copy" fill="#F75821"></path>
                    <path d="M48.0007632,113.758715 C48.0007632,116.67422 52.2065098,119.248509 52.2065098,119.248509 C52.2065098,119.248509 56.4122563,116.836152 56.4122563,113.758715 C56.4122563,110.681279 55.7810668,109.732095 55.7810668,109.732095 L48.6326808,109.732095 C48.6326808,109.732095 48.0007632,110.843934 48.0007632,113.758715 Z" id="Stroke-35" stroke="#202951" stroke-width="2"></path>
                    <path d="M5.90194567,113.709968 C5.90194567,116.625473 10.1076922,119.199762 10.1076922,119.199762 C10.1076922,119.199762 14.3134388,116.787405 14.3134388,113.709968 C14.3134388,110.632532 13.6822492,109.683348 13.6822492,109.683348 L6.53386328,109.683348 C6.53386328,109.683348 5.90194567,110.795187 5.90194567,113.709968 Z" id="Stroke-35-Copy" stroke="#202951" stroke-width="2"></path>
                    <path d="M0.808914565,56 L15.8578436,56" id="Stroke-37" stroke="#202951" stroke-width="2"></path>
                    <path d="M46.3834543,56 L61.4323833,56" id="Stroke-39" stroke="#202951" stroke-width="2"></path>
                </g>
                <g id="Group" transform="translate(419.253521, 120.364737) rotate(60.000000) translate(-419.253521, -120.364737) translate(390.253521, 99.864737)">
                    <g id="Group-2" transform="translate(28.500000, 18.500000) rotate(-30.000000) translate(-28.500000, -18.500000) translate(18.000000, 17.000000)" fill-rule="nonzero" stroke="#202951" stroke-linecap="square" stroke-width="2">
                        <path d="M0.5,1.5 L20.7249379,1.5" id="Line"></path>
                    </g>
                    <g id="Group-2" transform="translate(34.500000, 28.500000) rotate(60.000000) translate(-34.500000, -28.500000) translate(24.000000, 27.000000)" fill-rule="nonzero" stroke="#202951" stroke-linecap="square" stroke-width="2">
                        <path d="M0.5,1.5 L20.7249379,1.5" id="Line"></path>
                    </g>
                    <path d="M22.0012115,14.2175022 L28.220765,10.6257542 C30.20946,9.4775285 32.7755427,10.1646255 33.924192,12.1546791 L37.0109958,17.5028524 C38.1596452,19.49214 37.4712213,22.0597534 35.4825264,23.2079791 L29.2629729,26.7997271 C27.2742779,27.9487187 24.7081952,27.2608557 23.5595458,25.2715681 L20.4727421,19.9226289 C19.3240927,17.9333413 20.0117508,15.3664939 22.0012115,14.2175022" id="Fill-66" stroke="#202951" stroke-width="2" fill="#FFFFFF"></path>
                    <path d="M1.9131859,29.1520517 L13.4088689,22.5131778 C15.2375187,21.4568714 17.5777003,22.0834549 18.6329262,23.9134156 L18.6581965,23.9555453 C19.7141882,25.7855061 19.0870256,28.1256191 17.25761,29.1819255 L5.76269284,35.8207994 C3.93327727,36.8771058 1.59386137,36.2505223 0.537869708,34.4205615 L0.513365188,34.3784319 C-0.543392239,32.5484711 0.0837703209,30.208358 1.9131859,29.1520517" id="Fill-68" stroke="#202951" stroke-width="2" fill="#FFFFFF"></path>
                    <path d="M39.9131859,7.1520517 L51.4088689,0.513177769 C53.2375187,-0.543128582 55.5769346,0.0834548807 56.6329262,1.91341563 L56.6574307,1.95554532 C57.7141882,3.78550607 57.0870256,6.12561913 55.25761,7.18192548 L43.7626928,13.8207994 C41.9332773,14.8771058 39.5938614,14.2505223 38.5378697,12.4205615 L38.5133652,12.3784319 C37.4566078,10.5484711 38.0837703,8.20835805 39.9131859,7.1520517" id="Fill-70" stroke="#202951" stroke-width="2" fill="#FFFFFF"></path>
                    <path d="M29.036418,22.2578248 C29.2220295,21.5650013 28.8109438,20.8534865 28.1195724,20.6678198 C27.4269553,20.4821531 26.7156525,20.8933613 26.5300411,21.5861848 C26.3444297,22.2790083 26.7555153,22.990523 27.4481324,23.1761898 C28.1395038,23.3618565 28.8520523,22.9506483 29.036418,22.2578248" id="Fill-76" fill="#4A90E2"></path>
                    <path d="M25.8136771,16.8616126 C25.1223142,16.6759482 24.4110201,17.0871513 24.225411,17.7799663 C24.0398018,18.4727813 24.4496368,19.1830413 25.1422454,19.3687058 C25.834854,19.5543702 26.5461481,19.1444132 26.7317572,18.4515982 C26.9173664,17.7587832 26.5062857,17.0472771 25.8136771,16.8616126 Z" id="Fill-78" fill="#FE5A30"></path>
                    <path d="M42.2227318,38.8338861 C42.5445266,37.6327366 41.8318266,36.399182 40.631035,36.0772913 C39.432403,35.7554005 38.1992159,36.4683129 37.8774211,37.6694624 C37.5556262,38.8706119 38.2661666,40.1020061 39.4669582,40.4238969 C40.6677498,40.7457877 41.9009369,40.0350355 42.2227318,38.8338861" id="Fill-78" fill="#FE5A30"></path>
                    <path d="M44,35 C44,30.581722 40.418278,27 36,27 C31.581722,27 28,30.581722 28,35 C28,35 44,35 44,35 Z" id="Oval-2" stroke="#202951" stroke-width="2" fill="#FFFFFF" fill-rule="nonzero" stroke-linejoin="round" transform="translate(36.000000, 31.000000) rotate(-30.000000) translate(-36.000000, -31.000000) "></path>
                </g>
            </g>
        </g>
    </g>
</svg>