<svg xmlns="http://www.w3.org/2000/svg" width="702" height="680" viewBox="0 0 702 680"><path d="M496 71q.791 0-1.093 2.22l1.19.252Q496.792 71 496 71m-1.093 2.22q-.385 1.816-3.62 4.198l2.848 1.626q1.578-3.756 1.963-5.572l-1.19-.253m-3.62 4.199q-1.111 1.945-3.62 5.99l4.528 2.032q.828-4.45 1.939-6.396l-2.847-1.626m-3.62 5.99q-1.066 2.375-3.674 7.116l5.93 2.414q1.206-5.123 2.272-7.498l-4.528-2.032m-3.674 7.116q-.922 2.264-3.584 6.14l6.233 3.26q2.359-4.723 3.28-6.986l-5.93-2.414m-3.583 6.14q-2.783 5.324-9.819 15.488l9.452 4.776q3.817-11.681 6.6-17.004l-6.233-3.26m-9.819 15.488q-1.872 3.704-5.793 11.407l10.58 4.838q2.793-7.764 4.665-11.469l-9.452-4.776m-5.793 11.407q-1.339 2.928-4.187 8.408l9.745 5.218q3.684-5.861 5.022-8.788l-10.58-4.838m-4.187 8.408q-1.371 2.562-3.162 8.901l9.597 3.793q1.939-4.914 3.31-7.476l-9.745-5.218m-3.162 8.901q-3.928 9.938-15.316 28.032l11.167 5.607q9.818-19.908 13.746-29.846l-9.597-3.793M442.133 168.9q-3.064 6.102-9.845 18.211l12.296 6.171q5.652-12.673 8.716-18.775l-11.167-5.607m-9.845 18.211q-2.046 4.077-5.981 12.723l12.715 5.843q3.516-8.318 5.562-12.395l-12.296-6.17m-5.981 12.722q-4.81 10.465-15.987 30.715l13.037 6.632q10.855-21.038 15.665-31.504l-12.715-5.843m-15.987 30.715q-3.35 6.587-10.94 19.22l13.094 7.305q7.532-13.306 10.883-19.893l-13.037-6.632m-10.94 19.22q-2.679 4.803-7.743 15.114l13.578 6.844q4.58-9.85 7.26-14.653l-13.094-7.305m-7.744 15.114q-6.212 12.324-20.576 35.962l13.32 7.59q14.623-24.384 20.834-36.708l-13.578-6.844m-20.576 35.962q-4.228 7.42-13.288 21.99l13.193 7.946q9.186-14.927 13.414-22.347l-13.319-7.59m-13.288 21.99q-6.63 11.008-20.587 32.9l13.096 8.185q14.055-22.131 20.684-33.138l-13.193-7.946m-20.587 32.9q-4.017 6.427-12.25 19.387l13.08 8.254q8.249-13.03 12.266-19.457l-13.096-8.185m-12.25 19.388q-2.726 4.32-8.326 12.993l13.038 8.347q5.641-8.765 8.368-13.086l-13.08-8.254m-8.326 12.993q-4.487 7.009-14.705 19.838l12.452 9.213q10.804-13.696 15.29-20.704l-13.037-8.347m-14.705 19.838q-2.96 4-8.761 12.53l12.7 8.875q5.553-8.192 8.513-12.192l-12.452-9.213m-8.761 12.53q-3.272 4.683-10.823 12.486l11.735 10.12q8.516-9.049 11.788-13.731l-12.7-8.875M282.32 432.97q-2.074 2.405-5.344 8.335l10.26 8.366q4.745-4.176 6.82-6.58l-11.736-10.121.325 19.976a6.62 6.62 0 1 0-13.24 0 6.62 6.62 0 0 0 13.24 0m-5.669-11.641l-6.081 7.457 10.26 8.367 6.082-7.458-10.26-8.366M165 462q.764 0 1.184 2.075l.85-.822Q165.764 462 165 462m1.184 2.075q.773.798 2.929 2.118l1.025-2.07q-2.332-.071-3.104-.87l-.85.822m2.929 2.118q2.405 1.191 7.808 3.335l1.196-4.82q-5.574.607-7.98-.584l-1.024 2.069m7.808 3.335q2.356.585 7.208 2.061l1.21-6.06q-4.865-.235-7.222-.82l-1.196 4.819m7.208 2.061q3.132.626 9.44 2.541l1.383-7.736q-6.481-.24-9.613-.865l-1.21 6.06m9.44 2.541q2.547.455 7.723 1.447l1.382-7.941q-5.176-.787-7.722-1.242l-1.383 7.736m7.723 1.447q2.566.447 8.19.81l.724-8.168q-4.966-.136-7.532-.583l-1.382 7.94m8.19.81q4.913.436 14.748 2.848l1.002-11.199q-10.113.62-15.026.184l-.724 8.168m14.748 2.847q3.932.351 12.109.95l.67-11.736q-7.845-.061-11.777-.413l-1.002 11.199m12.109.95q3.452.198 10.62.185l.373-11.422q-6.87-.301-10.323-.499l-.67 11.737m10.62.184q3.52.115 11.284-.939l-.922-11.283q-6.469.915-9.989.8l-.373 11.422m11.284-.939q3.89-.318 11.986-1.226l-1.405-11.66q-7.612 1.285-11.503 1.603l.922 11.283m11.986-1.226q2.915-.352 8.584-1.153l-.83-10.727q-6.244-.131-9.16.22l1.406 11.66m8.584-1.153q3.058-.236 9.53-1.582l-1.495-10.246q-5.806.865-8.865 1.101l.83 10.727m9.53-1.582q4.777-.697 14.877-2.285l-2.697-12.061q-8.898 3.403-13.675 4.1l1.495 10.246m14.877-2.285q3.966-.886 12.004-2.466l-2.622-12.273q-8.113 1.791-12.079 2.678l2.697 12.061m12.004-2.466q2.776-.593 8.497-3.204l-3.096-10.661q-5.247.999-8.023 1.592l2.622 12.273m8.497-3.204q2.313-.672 6.846-2.797l-2.815-9.298q-4.813.762-7.127 1.434l3.096 10.66m6.846-2.796q6.68-2.022 20.596-4.82l-3.441-11.646q-13.29 5.146-19.97 7.168l2.815 9.298m20.596-4.82q4.13-1.22 12.665-3.868l-3.992-12.091q-7.985 3.093-12.114 4.313l3.441 11.647m12.665-3.869q2.985-.985 8.863-3.518l-3.627-11.013q-6.244 1.454-9.228 2.44l3.992 12.091m8.863-3.518q4.94-1.627 15.18-3.68l-3.79-12.68q-10.078 3.72-15.017 5.347l3.627 11.013m15.18-3.68q3.201-.956 9.638-3.828l-3.883-11.5q-6.344 1.691-9.544 2.648l3.79 12.68m9.637-3.828q2.363-.798 6.941-3.43l-3.558-9.799q-4.903.931-7.266 1.729l3.883 11.5m6.941-3.43q1.631-.593 4.585-2.65l-2.807-7.986q-3.705.245-5.336.837l3.558 9.798 12.373-8.385a4.232 4.232 0 1 0-8.464 0 4.232 4.232 0 0 0 8.464 0m-7.788 5.736l4.96-1.744-2.807-7.985-4.96 1.743 2.807 7.986M496 69q.692 0 1.08 1.877l.778-.764Q496.692 69 496 69m1.08 1.877q.816.831 1.73 3.085l1.797-1.475q-1.933-1.543-2.75-2.374l-.777.764m1.73 3.085q.788.96 1.132 3.336l2.824-1.372q-1.37-2.478-2.16-3.44l-1.797 1.476m1.133 3.336q.622 1.281 1.626 4.033l3.437-1.722q-1.616-2.402-2.239-3.683l-2.824 1.372m1.626 4.033q1.186 2.368 1.948 7.67l5.408-2.123q-2.733-4.9-3.92-7.269l-3.436 1.722m1.948 7.67q1.136 2.893 1.468 9.006l7.284-1.926q-2.208-6.31-3.344-9.203l-5.408 2.124m1.468 9.005q1.02 3.863.02 11.562l9.619-.947q-1.334-8.677-2.355-12.54l-7.284 1.925m.02 11.562q.356 3.627.183 10.834l10.439-.562q-.646-7.593-1.003-11.219l-9.62.947m.184 10.834q.169 3.136.383 9.392l10.266-.32q-.041-6.498-.21-9.634l-10.439.562m.383 9.392q.08 2.559.57 7.686l9.423-.18q.353-5.268.273-7.826l-10.266.32m.57 7.686q.103 5.397-2.195 15.9l11.957.68q-.235-11.363-.339-16.76l-9.423.18m-2.195 15.9q-.238 4.176-.719 12.778l12.471.455q-.032-8.377.205-12.553l-11.957-.68m-.719 12.778q-.25 6.869-2.34 20.413l13.7 1.14q.86-14.23 1.111-21.098l-12.47-.455m-2.341 20.413q-.649 7.799-4.158 22.786l14.29 2.36q2.92-16.208 3.569-24.007l-13.701-1.139m-4.158 22.786q-.766 4.645-3.028 13.563l14.268 3.111q2.284-9.67 3.05-14.315l-14.29-2.359m-3.028 13.563q-.742 3.405-.783 11.14l12.996 1.761q1.312-6.385 2.055-9.79l-14.268-3.11m-.783 11.138q-1.025 7.56-6.568 21.219l13.587 3.83q4.952-15.726 5.977-23.287l-12.996-1.762m-6.568 21.219q-2.043 7.247-8.695 20.21l13.59 5.6q6.649-14.733 8.692-21.98l-13.587-3.83m-8.695 20.21q-1.865 4.527-5.758 13.685l13.845 5.68q3.637-9.238 5.503-13.764l-13.59-5.6m-5.758 13.684q-1.241 3.026-3.018 9.32l11.967 5.212q3.655-5.826 4.896-8.852l-13.845-5.68m-3.018 9.32q-1.832 4.207-6.887 11.212l11.78 6.838q5.242-8.631 7.074-12.838l-11.967-5.212m-6.887 11.212q-1.54 2.653-4.458 7.347l9.677 7.12q5.02-4.976 6.56-7.629l-11.779-6.838m-4.458 7.347q-1.848 2.511-5.08 8.245l9.22 6.263q3.69-4.877 5.537-7.389l-9.677-7.12m-5.08 8.246q-3.445 5.071-13.347 11.177l8.912 9.43q10.21-9.273 13.655-14.344l-9.22-6.263m-13.347 11.177q-2.947 2.785-8.878 8.556l8.92 9.314q5.923-5.655 8.87-8.44l-8.912-9.43m-8.878 8.556q-2.06 1.973-5.686 6.611l7.88 8.127q4.665-3.45 6.725-5.424l-8.92-9.314m-5.685 6.611q-3.847 3.731-13.14 7.906l7.426 10.762q9.747-6.81 13.595-10.541l-7.88-8.127m-13.141 7.906q-4.107 2.834-12.753 8.053l7.923 11.656q8.15-6.113 12.256-8.947l-7.426-10.762m-12.753 8.053q-2.861 1.945-8.312 5.495l6.36 11.093q7.014-2.987 9.875-4.932l-7.923-11.656m-8.312 5.495q-2.345 1.345-6.703 5.653l6.294 9.103q4.424-2.318 6.769-3.663l-6.36-11.093m-6.703 5.653q-1.907 1.32-5.305 3.607l4.483 8.466q5.208-1.652 7.116-2.97l-6.294-9.103m-5.305 3.607q-5.69 3.014-17.9 7.621l5.427 10.777q11.266-6.918 16.956-9.932l-4.483-8.466m-17.9 7.621q-3.89 1.959-11.923 6.12l6.113 11.19q7.348-4.574 11.237-6.533l-5.427-10.777m-11.923 6.12q-2.77 1.513-8.077 4.453l4.99 10.497q6.43-2.247 9.2-3.76l-6.113-11.19m-8.077 4.453q-4.204 1.999-12.57 8.911l7.961 10.119q5.396-6.535 9.6-8.533l-4.99-10.497m-12.571 8.911q-2.319 1.824-6.418 7.175l7.955 8.21q4.105-3.442 6.424-5.266l-7.961-10.119m-6.418 7.175q-1.77 1.715-4.845 5.794l7.003 7.108q4.027-2.976 5.797-4.691l-7.955-8.211m-4.845 5.794q-1.753 1.727-4.439 7.217l7.59 5.074q2.098-3.456 3.852-5.183l-7.003-7.108m-4.439 7.217q-1.135 1.698-2.972 5.523l6.8 4.41q2.627-3.161 3.762-4.859l-7.59-5.074m-2.972 5.523q-1.325 2.043-4.536 4.95l5.912 5.405q4.098-3.901 5.423-5.945l-6.799-4.41m-4.536 4.95q-.735.804-1.527 3.44l4.968 3.78q1.736-1.01 2.471-1.815l-5.912-5.405 2.079 7.957a3.121 3.121 0 1 0-6.243 0 3.121 3.121 0 0 0 6.243 0m-3.606-4.517l-2 2.627 4.968 3.78 2-2.627-4.968-3.78M173 454q.785 0 1.9-1.555l-.972-.719Q173.785 454 173 454m1.9-1.555q.82-1.11 3.325-2.535l-1.964-1.805q-1.513 2.512-2.333 3.621l.973.72m3.324-2.536q.958-1.043 3.564-1.865l-2.015-2.935q-2.555 1.952-3.513 2.995l1.964 1.805m3.564-1.865q1.298-.892 4.071-2.71l-2.628-3.376q-2.16 2.26-3.458 3.151l2.015 2.935m4.071-2.71q1.216-.947 3.898-1.898l-2.24-4.077q-3.07 1.652-4.286 2.599l2.628 3.376m3.898-1.898q1.935-1.063 6.155-2.095l-2.288-5.24q-4.173 2.195-6.107 3.258l2.24 4.077m6.155-2.095q2.805-1.224 8.847-2.533l-2.698-6.915q-5.632 2.983-8.437 4.208l2.288 5.24m8.847-2.533q3.165-1.235 9.843-2.958l-3.121-8.27q-6.255 3.078-9.42 4.313l2.698 6.915m9.843-2.958q2.573-.972 7.858-3.589l-3.68-8.034q-4.726 2.382-7.3 3.353l3.122 8.27m7.858-3.589q2.564-1.174 7.658-2.374l-2.722-8.5q-6.052 1.665-8.616 2.84l3.68 8.034m7.658-2.374q2.087-.67 6.284-2.71l-2.827-7.671q-4.092 1.213-6.18 1.882l2.723 8.499m6.284-2.71q2.883-1.062 8.773-2.238l-2.523-8.496q-6.194 2-9.077 3.063l2.827 7.67m8.773-2.237q2.16-.642 6.532-2.57l-2.66-7.777q-4.234 1.21-6.395 1.851l2.523 8.496m6.532-2.57q3.398-1.161 10.416-2.071l-2.454-9.228q-7.222 2.36-10.621 3.522l2.659 7.778m10.416-2.072q2.666-.709 7.765-1.386l-1.485-9.138q-6.068.587-8.734 1.296l2.454 9.228m7.765-1.386q2.827-.46 8.485-1.192l-1.266-9.137q-5.878.731-8.704 1.19l1.485 9.14m8.485-1.193q1.91-.265 6.069-2.267l-2.14-7.724q-3.285.59-5.195.854l1.266 9.137m6.069-2.267q1.585-.439 4.647-1.801l-1.807-6.713q-3.394.351-4.98.79l2.14 7.724L296.476 409a3.476 3.476 0 1 0-6.952 0 3.476 3.476 0 0 0 6.952 0m-7.386 4.653l4.814-1.297-1.808-6.712-4.813 1.296 1.807 6.713" paint-order="stroke fill markers"/><path d="M185 465q.686 0 1.59 1.444l.502-.96Q185.686 465 185 465m1.59 1.444q.998.522 2.231 2.524l1.405-1.786q-2.136-1.175-3.134-1.698l-.502.96m2.231 2.524q1.172.921 4.087 2.553l1.434-3.11q-2.944-.307-4.116-1.229l-1.405 1.786m4.087 2.553q1.569.723 4.653 2.536l1.74-4.035q-3.39-.887-4.959-1.61l-1.434 3.11m4.653 2.535q2.26.975 6.514 3.682l2.372-5.394q-4.885-1.348-7.146-2.323l-1.74 4.035m6.514 3.682q3.289 1.446 9.766 5.158l3.05-7.611q-7.156-1.495-10.444-2.941l-2.372 5.394m9.766 5.158q2.394.96 7.655 2.56l2.585-7.833q-4.796-1.379-7.19-2.338l-3.05 7.61m7.655 2.562q2.509.828 7.406 2.731l2.836-7.861q-5.148-1.875-7.657-2.704l-2.585 7.834m7.406 2.731q2.165.781 7.083 1.771l2.12-7.7q-4.202-1.15-6.367-1.932l-2.836 7.861m7.083 1.771q1.87.515 5.406 1.538l2.409-6.903q-3.825-1.82-5.695-2.335l-2.12 7.7m5.406 1.538q2.78.97 8.66 2.94l2.25-7.883q-5.72-.99-8.501-1.96l-2.409 6.903m8.66 2.94q2.191.626 7.203 1.176l1.425-7.735q-4.186-.699-6.377-1.324l-2.25 7.883m7.202 1.176q3.056.563 9.817 1.113l.581-8.707q-5.917.422-8.973-.14l-1.425 7.734m9.817 1.113q2.473.165 7.298.651l.916-8.375q-5.16-.818-7.633-.983l-.58 8.707 19.433-2.72a4.213 4.213 0 1 0-8.425 0 4.213 4.213 0 0 0 8.425 0m-12.136 3.371l7.465.817.917-8.375-7.466-.817-.916 8.375M122 558q2.64 0 8.154-.836l-1.129-3.387Q124.64 558 122 558m8.154-.836q2.064-.688 6.494-1.554l-1.712-4.75q-3.847 2.229-5.911 2.917l1.129 3.387m6.494-1.554q2.557-.921 7.867-.755l-1.294-6.47q-5.728 1.553-8.285 2.475l1.712 4.75m7.867-.755q4.035-.806 12.548-1.54l-2.099-9.033q-7.708 3.297-11.743 4.103l1.294 6.47m12.548-1.54q4.24-.985 12.809-.913l-1.606-11.014q-9.061 1.91-13.302 2.894l2.099 9.033m12.809-.913q2.964-.432 8.771-1.244l-1.094-10.42q-6.32.218-9.283.65l1.606 11.014m8.771-1.244q3.945-.414 12.077-1.055l-1.387-11.251q-7.839 1.471-11.784 1.885l1.094 10.42m12.077-1.054q3.273-.404 9.678-.888l-.812-10.952q-6.98.186-10.253.589l1.387 11.25m9.678-.887q2.794-.208 8.297-.778l-.441-10.136q-5.874-.245-8.668-.038l.812 10.952m8.297-.778q1.919-.083 4.944-.025l1.196-8.455q-4.662-1.74-6.581-1.656l.441 10.136m4.944-.025q2.905.411 9.276.624l.408-8.887q-5.583.22-8.488-.192l-1.196 8.455m9.276.624q3.277.15 9.785 1.02l.674-9.523q-6.774-.234-10.051-.384l-.408 8.887m9.785 1.02q3.938.278 12.137.975l.318-10.767q-7.843.548-11.781.269l-.674 9.522m12.137.976q2.962.087 9.038-.094l.2-10.227q-5.958-.359-8.92-.446l-.318 10.767m9.038-.094q3.119.062 8.924.976l1.14-10.05q-6.744-1.092-9.863-1.153l-.201 10.227m8.924.976q3.922.444 11.399 2.495l1.905-10.934q-8.243-1.166-12.165-1.61l-1.139 10.049m11.399 2.495q3.242.565 9.643 1.834l2.164-10.618q-6.66-1.585-9.902-2.15l-1.905 10.934m9.643 1.834q2.412.491 7.801.491l1.334-9.534q-4.56-1.084-6.97-1.575l-2.165 10.618m7.801.491q3.993.56 12.128 2.141l1.33-10.843q-8.131-.273-12.124-.832l-1.334 9.534m12.128 2.141q4.613.566 14.385 1.573l.684-12.442q-9.127.591-13.74.026l-1.329 10.843m14.385 1.573q4.626.255 13.943 1.304l.827-13.31q-9.46-.182-14.086-.436l-.684 12.442m13.943 1.304q4.945.307 15.206.916l.429-14.238q-9.863.32-14.808.013l-.827 13.31m15.206.915q3.96.12 12.09-.137l.255-13.512q-7.956-.47-11.916-.589l-.429 14.238m12.09-.137q2.939.055 9.318-1.319l-.595-11.772q-5.53-.365-8.468-.42l-.254 13.511m9.317-1.319q3.263-.164 10.195-1.493l-1.325-11.127q-6.202.683-9.465.848l.595 11.772m10.195-1.493q3.258-.388 10.013-1.754l-1.714-10.75q-6.366.99-9.624 1.377l1.325 11.127m10.013-1.754q3.573-.57 10.684-1.137l-1.307-11.051q-7.518.87-11.09 1.439l1.713 10.749m10.684-1.137q2.657-.314 8.303-2.235l-2.037-9.86q-4.916.73-7.573 1.044l1.307 11.05m8.303-2.234q2.207-.456 6.76-2.485l-2.411-8.584q-4.18.753-6.386 1.208l2.037 9.86m6.76-2.484q3.944-1.107 12.192-2.656l-2.948-10.177q-7.712 3.14-11.655 4.249l2.411 8.584m12.192-2.656q3.694-1.07 11.427-4.055l-4.066-10.49q-6.614 3.298-10.309 4.368l2.948 10.177m11.427-4.055q3.632-1.408 11.135-4.926l-4.935-10.6q-6.634 3.628-10.266 5.035l4.066 10.49m11.135-4.925q2.478-1.153 7.26-4.12l-4.488-9.46q-5.229 1.826-7.707 2.98l4.935 10.6m7.26-4.12q3.911-1.856 12.13-5.245l-5.215-10.577q-7.492 4.506-11.403 6.362l4.488 9.46m12.13-5.245q4.427-2.183 13.761-5.734l-5.756-12.025q-8.794 4.999-13.22 7.182l5.216 10.577m13.76-5.734q5.197-2.487 15.977-6.104l-5.443-13.161q-11.094 4.753-16.29 7.24l5.756 12.025m15.977-6.104q4.465-1.847 13.644-6.407l-6.392-13.15q-8.23 4.55-12.695 6.396l5.443 13.161m13.644-6.407q3.146-1.53 9.148-8.36l-8.451-10.065q-3.943 3.746-7.09 5.275l6.393 13.15 19.613-20.21a6.571 6.571 0 1 0-13.143 0 6.571 6.571 0 0 0 13.143 0M521.34 504.5l8.119-6.817-8.451-10.065-8.12 6.817 8.452 10.065" paint-order="stroke fill markers" /></svg>
