<svg width="49" height="49" viewBox="0 0 49 49" fill="none" xmlns="http://www.w3.org/2000/svg">
<rect width="49" height="49" rx="24.5" fill="#F8F8F8"/>
<path d="M26.4965 33.4411L25.5055 34.4321C25.0859 34.8517 24.4074 34.8517 23.9923 34.4321L15.3147 25.7589C14.8951 25.3393 14.8951 24.6609 15.3147 24.2457L23.9923 15.5681C24.4119 15.1485 25.0904 15.1485 25.5055 15.5681L26.4965 16.5591C26.9205 16.9831 26.9116 17.675 26.4786 18.0902L21.0998 23.2146H33.9287C34.5224 23.2146 35 23.6922 35 24.2859V25.7143C35 26.308 34.5224 26.7856 33.9287 26.7856H21.0998L26.4786 31.91C26.9161 32.3252 26.925 33.0171 26.4965 33.4411Z" fill="black"/>
</svg>
