<?xml version="1.0" encoding="UTF-8"?> <svg xmlns="http://www.w3.org/2000/svg" width="132" height="21" viewBox="0 0 132 21" fill="none"><path d="M18.7385 15.5666V11.9782L18.3448 11.7587L9.39191 16.8474L0.890764 12.0163L0.892578 9.93547L9.39191 14.7122L18.7385 9.4529V5.91892L18.3448 5.69941L9.39191 10.7881L1.2409 6.15476L9.39191 1.55043L15.9737 5.26764L16.4671 4.99007V4.57644L9.39191 0.581665L0.0471802 5.85905V6.37972L9.39191 11.6535L17.8931 6.85321V8.95764L9.39191 13.7887L0.440853 8.70184L0.0471802 8.92136V12.5079L9.39191 17.7672L17.8931 12.9833V15.075L9.39191 19.9061L0.440853 14.8174L0.0471802 15.0369V15.5666L9.39191 20.8259L18.7385 15.5666Z" fill="#FF3621"></path><path fill-rule="evenodd" clip-rule="evenodd" d="M36.5227 1.64478V17.8906V17.8924H34.0209V16.6823C34.0209 16.5934 33.9647 16.5118 33.8794 16.481C33.796 16.4501 33.6998 16.4755 33.6418 16.5445C32.771 17.5804 31.4503 18.1736 30.0225 18.1736C28.515 18.1736 27.1217 17.5695 26.0985 16.4719C25.0735 15.3707 24.5075 13.865 24.5075 12.234C24.5075 8.90504 26.9294 6.29628 30.0225 6.29628C31.4775 6.29628 32.7964 6.86593 33.6436 7.85827C33.7016 7.9254 33.7978 7.95079 33.8812 7.91995C33.9647 7.88911 34.0209 7.80747 34.0209 7.71858V1.64478H36.5227ZM27.0328 12.2358C27.0328 14.2931 28.593 15.9059 30.5849 15.9059C32.5769 15.9059 34.137 14.2931 34.137 12.2358C34.137 10.1786 32.5769 8.56579 30.5849 8.56579C28.593 8.56579 27.0328 10.1786 27.0328 12.2358Z" fill="black"></path><path fill-rule="evenodd" clip-rule="evenodd" d="M49.8821 6.57929V17.8906H47.4022V16.6624C47.4022 16.5735 47.3459 16.4919 47.2606 16.461C47.1772 16.4302 47.081 16.4556 47.023 16.5263C46.1558 17.5731 44.8369 18.1736 43.4037 18.1736C40.3106 18.1736 37.8887 15.5648 37.8887 12.2358C37.8887 8.90686 40.3106 6.2981 43.4037 6.2981C44.8986 6.2981 46.183 6.8496 47.023 7.85283C47.081 7.92177 47.1754 7.94717 47.2606 7.91633C47.3459 7.88549 47.4022 7.80566 47.4022 7.71495V6.57929H49.8821ZM40.4158 12.2358C40.4158 14.2931 41.976 15.9059 43.9679 15.9059C45.9599 15.9059 47.5201 14.2931 47.5201 12.2358C47.5201 10.1786 45.9599 8.56579 43.9679 8.56579C41.976 8.56579 40.4158 10.1786 40.4158 12.2358Z" fill="black"></path><path fill-rule="evenodd" clip-rule="evenodd" d="M71.0824 6.57929V17.8906H68.6024V16.6624C68.6024 16.5735 68.5462 16.4919 68.4609 16.461C68.3775 16.4302 68.2813 16.4574 68.2233 16.5263C67.3561 17.5731 66.0372 18.1736 64.604 18.1736C61.5109 18.1736 59.089 15.5648 59.089 12.2358C59.089 8.90686 61.5109 6.2981 64.604 6.2981C66.0989 6.2981 67.3833 6.8496 68.2233 7.85283C68.2813 7.92177 68.3757 7.94717 68.4609 7.91633C68.5462 7.88549 68.6024 7.80566 68.6024 7.71495V6.57929H71.0824ZM61.6161 12.2358C61.6161 14.2931 63.1763 15.9059 65.1682 15.9059C67.1602 15.9059 68.7204 14.2931 68.7204 12.2358C68.7204 10.1786 67.1602 8.56579 65.1682 8.56579C63.1763 8.56579 61.6161 10.1786 61.6161 12.2358Z" fill="black"></path><path fill-rule="evenodd" clip-rule="evenodd" d="M75.7012 16.5372C75.6758 16.5372 75.6504 16.5408 75.6269 16.5499C75.5434 16.5789 75.4872 16.6606 75.489 16.7476V17.8887H72.9854L72.9909 1.64294H75.4926L75.4872 7.78569C75.4872 7.8764 75.5434 7.95803 75.6287 7.98887C75.7121 8.01971 75.8083 7.99432 75.8663 7.92538C76.7371 6.88949 78.0578 6.29626 79.4856 6.29626C80.9931 6.29626 82.3864 6.90038 83.4096 7.99794C84.4364 9.09914 85.0006 10.6049 85.0006 12.2358C85.0006 15.5648 82.5787 18.1736 79.4856 18.1736C78.0306 18.1736 76.7117 17.6039 75.8645 16.6116C75.8228 16.5644 75.7647 16.5372 75.7012 16.5372ZM78.9214 8.56578C76.9294 8.56578 75.3692 10.1786 75.3692 12.2358C75.3692 14.2931 76.9294 15.9059 78.9214 15.9059C80.9133 15.9059 82.4735 14.2931 82.4735 12.2358C82.4735 10.1786 80.9133 8.56578 78.9214 8.56578Z" fill="black"></path><path d="M92.201 8.89411C92.4351 8.89411 92.6546 8.91406 92.807 8.95035V6.38694C92.7253 6.36698 92.5584 6.34521 92.3897 6.34521C91.0926 6.34521 89.8934 7.0092 89.2603 8.07774C89.2113 8.16119 89.1115 8.2011 89.019 8.1757C88.9247 8.1503 88.8594 8.06504 88.8594 7.96889V6.57924H86.3794V17.8905H88.8811V12.9161C88.8829 10.4361 90.1547 8.89411 92.201 8.89411Z" fill="black"></path><rect x="94.3726" y="6.57922" width="2.52712" height="11.3113" fill="black"></rect><path d="M95.608 1.65747C94.7626 1.65747 94.075 2.34504 94.075 3.19044C94.075 4.03583 94.7626 4.7234 95.608 4.7234C96.4534 4.7234 97.141 4.03583 97.141 3.19044C97.1392 2.34504 96.4516 1.65747 95.608 1.65747Z" fill="black"></path><path d="M104.323 6.2981C100.855 6.2981 98.3383 8.79619 98.3383 12.2358C98.3383 13.9085 98.9279 15.4215 100 16.4973C101.078 17.5785 102.605 18.1736 104.3 18.1736C105.702 18.1736 106.798 17.896 108.857 16.383L107.436 14.8845C106.424 15.5576 105.481 15.8841 104.557 15.8841C102.466 15.8841 100.887 14.3167 100.887 12.2377C100.887 10.1586 102.466 8.59119 104.557 8.59119C105.555 8.59119 106.48 8.91774 107.387 9.59079L108.975 8.08686C107.132 6.48314 105.439 6.2981 104.323 6.2981Z" fill="black"></path><path d="M113.254 12.9035C113.294 12.8672 113.347 12.8472 113.399 12.8472H113.412C113.474 12.8527 113.528 12.8817 113.566 12.927L117.568 17.8888L120.647 17.8906L115.469 11.6281C115.399 11.5428 115.404 11.4177 115.482 11.3397L120.242 6.57931H117.191L113.091 10.6974C113.031 10.7591 112.939 10.7773 112.857 10.7446C112.775 10.7101 112.725 10.6321 112.725 10.5469L112.73 1.64661H110.223V17.8924H112.725V13.4858C112.725 13.4259 112.75 13.3679 112.794 13.328L113.254 12.9035Z" fill="black"></path><path d="M124.727 18.1736C126.779 18.1736 128.856 16.9327 128.856 14.5616C128.856 13.0141 127.887 11.9474 125.895 11.2979L124.533 10.8517C123.617 10.5469 123.172 10.1078 123.172 9.5128C123.172 8.83249 123.784 8.35718 124.658 8.35718C125.491 8.35718 126.231 8.89962 126.699 9.84661L128.709 8.76537C127.976 7.24329 126.427 6.29993 124.658 6.29993C122.416 6.29993 120.787 7.74037 120.787 9.72506C120.787 11.2925 121.725 12.3538 123.653 12.9651L125.041 13.4114C126.024 13.7217 126.425 14.1099 126.425 14.7521C126.425 15.71 125.536 16.0492 124.776 16.0492C123.76 16.0492 122.864 15.3907 122.421 14.3276L120.395 15.3852C121.064 17.1051 122.721 18.1736 124.727 18.1736Z" fill="black"></path><path d="M56.8158 18.0575C57.605 18.0575 58.3216 17.9885 58.7153 17.925V15.7626C58.3851 15.8061 57.8191 15.8442 57.4599 15.8442C56.4439 15.8442 55.6675 15.67 55.6675 13.4822V8.83246C55.6675 8.71454 55.7636 8.61839 55.8815 8.61839H58.318L58.3161 6.57746L55.8797 6.57928C55.7618 6.57928 55.6657 6.48313 55.6657 6.36521V3.08521L53.1784 3.08702L53.1803 6.36521C53.1803 6.48313 53.0841 6.57928 52.9662 6.57928H51.2228L51.2246 8.6202L52.9662 8.61839C53.0841 8.61839 53.1803 8.71454 53.1803 8.83246V14.1008C53.1821 18.0575 55.8217 18.0575 56.8158 18.0575Z" fill="black"></path><path fill-rule="evenodd" clip-rule="evenodd" d="M130.864 6.76609C130.783 6.68264 130.685 6.61552 130.57 6.56653C130.454 6.51574 130.338 6.48853 130.211 6.48853C130.084 6.48853 129.963 6.51211 129.848 6.56291C129.734 6.6137 129.634 6.68083 129.553 6.76428C129.469 6.84773 129.406 6.94751 129.357 7.0618C129.308 7.17609 129.284 7.29583 129.284 7.41919C129.284 7.49176 129.291 7.56069 129.308 7.62963C129.324 7.69857 129.346 7.76388 129.377 7.82556C129.406 7.88724 129.442 7.94348 129.484 7.99791C129.526 8.05233 129.573 8.10131 129.625 8.14304C129.68 8.18658 129.736 8.22286 129.796 8.2537C129.856 8.28454 129.919 8.30813 129.99 8.32445C130.061 8.34078 130.131 8.34985 130.204 8.34985C130.307 8.34985 130.405 8.33534 130.5 8.30268C130.594 8.27184 130.679 8.22649 130.754 8.16844C130.828 8.1122 130.895 8.04326 130.951 7.96707C131.008 7.88906 131.051 7.80379 131.082 7.71127C131.113 7.61875 131.127 7.5226 131.127 7.42282C131.127 7.29764 131.104 7.17791 131.057 7.06361C131.01 6.94932 130.946 6.84954 130.864 6.76609ZM130.674 8.05959C130.61 8.11038 130.538 8.14848 130.456 8.17569C130.375 8.20291 130.289 8.21742 130.202 8.21742C130.115 8.21742 130.03 8.20291 129.95 8.17569C129.87 8.14848 129.798 8.11038 129.734 8.0614C129.669 8.01242 129.613 7.95437 129.565 7.88906C129.518 7.82375 129.48 7.74937 129.455 7.66954C129.429 7.58972 129.417 7.50627 129.417 7.421C129.417 7.31578 129.437 7.21237 129.478 7.11441C129.52 7.01463 129.575 6.93118 129.645 6.85861C129.716 6.78605 129.799 6.72799 129.897 6.68627C129.995 6.64454 130.099 6.62277 130.208 6.62277C130.316 6.62277 130.418 6.64454 130.516 6.68627C130.614 6.72799 130.697 6.78605 130.766 6.8568C130.835 6.92937 130.892 7.01282 130.931 7.11078C130.971 7.20875 130.991 7.31215 130.991 7.41919C130.991 7.50445 130.979 7.58791 130.953 7.66773C130.928 7.74937 130.892 7.82193 130.843 7.88724C130.794 7.95255 130.737 8.01061 130.674 8.05959ZM130.54 7.36114C130.52 7.40286 130.492 7.43552 130.456 7.4591C130.42 7.48268 130.378 7.50083 130.327 7.5099L130.614 7.91627H130.467L130.191 7.51897H130.017V7.91627H129.894V6.90941H130.244C130.353 6.90941 130.434 6.93662 130.489 6.99286C130.543 7.0491 130.57 7.12167 130.57 7.21419C130.57 7.27224 130.56 7.31941 130.54 7.36114ZM130.215 7.40649H130.017V7.02552H130.233C130.298 7.02552 130.349 7.04366 130.387 7.07631C130.425 7.10897 130.443 7.15432 130.443 7.21237C130.443 7.26861 130.425 7.31578 130.389 7.35207C130.353 7.38835 130.295 7.40649 130.215 7.40649Z" fill="black"></path></svg> 