<svg width="155" height="36" viewBox="0 0 155 36" fill="none" xmlns="http://www.w3.org/2000/svg">
<g clip-path="url(#clip0_6142_49959)">
<path d="M31.9346 11.4218C30.7892 11.3967 29.6522 11.6221 28.6024 12.0824C27.5527 12.5426 26.6155 13.2266 25.856 14.0869C24.2566 15.8512 23.4438 18.1813 23.4438 21.0288C23.4438 23.8762 24.2825 26.0686 25.9376 27.7287C27.5927 29.3888 29.7488 30.2598 32.3502 30.2598C33.9378 30.2971 35.5102 29.943 36.9295 29.2287C38.221 28.5438 39.1116 27.8366 39.5829 27.1257L39.6014 27.1033L37.5418 23.2285V23.2062H37.245V23.2285C36.7467 24.0244 36.0611 24.6852 35.2485 25.1529C34.384 25.7003 33.3836 25.9931 32.3613 25.9979C31.3064 26.0201 30.2848 25.6273 29.515 24.9035C29.1423 24.562 28.8456 24.1454 28.6441 23.6811C28.4427 23.2167 28.3411 22.715 28.346 22.2087H40.4661L40.4995 20.8799C40.4995 18.0994 39.6757 15.8065 38.054 14.0608C37.2808 13.2084 36.3347 12.5318 35.2792 12.0766C34.2237 11.6214 33.0833 11.3981 31.9346 11.4218ZM35.7198 18.8959H28.4091C28.6002 18.0776 29.0006 17.3233 29.5707 16.7073C29.8864 16.3651 30.2728 16.0962 30.7029 15.9194C31.133 15.7426 31.5964 15.6621 32.0607 15.6837C32.5377 15.667 33.0128 15.753 33.4538 15.936C33.8949 16.119 34.2917 16.3947 34.6176 16.7445C35.2015 17.3275 35.5872 18.0803 35.7198 18.8959Z" fill="#E2401B"/>
<path d="M55.0279 13.6587C54.5172 12.9502 53.8282 12.3902 53.0314 12.0358C52.1801 11.6308 51.2497 11.4211 50.3075 11.4217C49.1774 11.39 48.055 11.6176 47.026 12.0872C45.997 12.5568 45.0885 13.256 44.3699 14.1314C42.8856 15.9292 42.1211 18.2258 42.1211 20.9319C42.1211 23.6379 42.8447 25.901 44.2735 27.6318C45.7022 29.3626 47.6987 30.2373 50.211 30.2373C51.3397 30.2665 52.4576 30.0105 53.4618 29.4929C54.3341 29.0307 55.0652 28.3399 55.5771 27.4941H55.6105L56.0484 29.8279V29.8688H59.6183V5.97241H55.0279V13.6587ZM53.9999 17.1762C54.8156 18.2533 55.2351 19.5801 55.1874 20.9319C55.241 22.2515 54.8136 23.5456 53.9851 24.5721C53.5982 25.0323 53.1124 25.3987 52.5641 25.6436C52.0159 25.8886 51.4195 26.0058 50.8196 25.9866C50.2304 26.015 49.6431 25.8987 49.1089 25.6476C48.5747 25.3966 48.1097 25.0184 47.7544 24.5461C47.0105 23.4922 46.6324 22.2223 46.6782 20.9319C46.6674 19.6348 47.0562 18.3661 47.7915 17.299C48.1161 16.7914 48.5656 16.3762 49.0966 16.0932C49.6276 15.8103 50.2222 15.6692 50.8233 15.6836C51.4325 15.6645 52.0376 15.7897 52.5895 16.049C53.1414 16.3084 53.6246 16.6945 53.9999 17.1762Z" fill="#E2401B"/>
<path d="M71.705 11.4218C70.5158 11.3838 69.3378 11.6625 68.2909 12.2295C67.4613 12.682 66.7739 13.3574 66.3055 14.1799H66.2758L65.9901 11.8051H62.2568V35.7983H66.825V27.8738H66.8807C67.3875 28.6014 68.0725 29.186 68.8698 29.5711C69.7361 30.0188 70.697 30.2511 71.6716 30.2485C72.7388 30.2874 73.8 30.0715 74.7678 29.6185C75.7356 29.1655 76.5822 28.4884 77.238 27.643C78.6037 25.9122 79.2939 23.6566 79.2939 20.9431C79.2939 18.2296 78.5888 15.9405 77.1898 14.1464C76.5582 13.2867 75.7309 12.5908 74.7768 12.1169C73.8227 11.6429 72.7695 11.4046 71.705 11.4218ZM74.7257 20.9319C74.7723 22.2328 74.3801 23.5114 73.6124 24.561C73.2815 25.0119 72.8477 25.3767 72.3473 25.6247C71.8469 25.8727 71.2945 25.9969 70.7364 25.9866C70.1716 26.0059 69.61 25.8944 69.0951 25.6607C68.5803 25.427 68.126 25.0775 67.7676 24.6392C67.0254 23.7422 66.6543 22.4952 66.6543 20.917C66.6543 19.3388 67.0254 18.0174 67.7676 17.0795C68.1148 16.6242 68.5653 16.2587 69.0816 16.0134C69.598 15.768 70.1653 15.6498 70.7364 15.6687C71.3095 15.6559 71.8765 15.7887 72.3846 16.0549C72.8926 16.3211 73.3253 16.712 73.6421 17.1911C74.3881 18.292 74.7675 19.6015 74.7257 20.9319Z" fill="#E2401B"/>
<path d="M93.6518 13.2456C92.2861 12.0359 90.5048 11.4217 88.3599 11.4217C86.8784 11.4024 85.4134 11.7353 84.0849 12.3932C82.813 13.0338 81.721 13.9832 80.9083 15.155V15.1811L83.1349 18.9033V18.9256H83.4243V18.8996C83.912 17.9186 84.6335 17.0735 85.5247 16.4392C86.3303 15.857 87.2965 15.5409 88.2894 15.5347C89.0204 15.4869 89.7488 15.662 90.3787 16.0372C90.5951 16.1786 90.7724 16.3724 90.8944 16.6008C91.0163 16.8291 91.0789 17.0846 91.0763 17.3437C91.0763 17.8201 90.7943 18.1774 90.2117 18.438C88.9197 18.8991 87.5932 19.2563 86.2447 19.5063C84.2481 19.9306 82.7972 20.6229 81.9288 21.5832C81.0421 22.5784 80.5728 23.8785 80.6188 25.2124C80.6188 26.7794 81.0975 28.0226 82.0475 28.9159C82.9975 29.8093 84.4077 30.2596 86.2558 30.2596C88.7162 30.2596 90.4826 29.3328 91.5105 27.5015H91.5439L92.0041 29.8762H95.678V18.3971C95.6965 16.1898 95.0026 14.459 93.6518 13.2456ZM89.9408 25.2905C89.0986 25.8723 88.0945 26.172 87.0722 26.1466C85.8179 26.1466 85.2167 25.7 85.2167 24.7843C85.216 24.5709 85.2626 24.3601 85.3531 24.1669C85.4436 23.9738 85.5757 23.8033 85.74 23.6677C86.3167 23.272 86.9728 23.0077 87.6622 22.8934C89.7107 22.4319 90.8463 21.9592 91.1357 21.4455V23.3066C91.1246 24.051 90.7275 24.7285 89.9408 25.2905Z" fill="#E2401B"/>
<path d="M107.542 11.4217C106.479 11.4109 105.43 11.66 104.484 12.1475C103.575 12.6147 102.807 13.3162 102.258 14.1798H102.228L101.939 11.8051H98.2202V29.8651H102.792V20.7383C102.737 19.4397 103.11 18.159 103.853 17.0943C104.198 16.6358 104.648 16.268 105.165 16.0222C105.682 15.7765 106.251 15.6603 106.822 15.6836C108.808 15.6836 109.813 16.8561 109.813 19.1676V29.8651H114.382V17.7234C114.408 16.8885 114.265 16.057 113.96 15.2795C113.656 14.502 113.197 13.7948 112.611 13.2009C111.465 12.021 109.739 11.4217 107.542 11.4217Z" fill="#E2401B"/>
<path d="M128.995 13.6587C128.484 12.9502 127.796 12.3902 126.999 12.0358C126.147 11.6312 125.217 11.4214 124.275 11.4217C123.144 11.388 122.021 11.6147 120.992 12.0845C119.963 12.5543 119.055 13.2545 118.337 14.1314C116.853 15.9292 116.088 18.2258 116.088 20.9319C116.088 23.6379 116.831 25.901 118.241 27.6318C119.651 29.3626 121.666 30.2373 124.178 30.2373C125.307 30.2665 126.425 30.0105 127.429 29.4929C128.301 29.0296 129.031 28.3391 129.544 27.4941H129.574L130.016 29.8279V29.8688H133.586V5.97241H128.995V13.6587ZM127.964 17.1762C128.782 18.2521 129.203 19.5794 129.155 20.9319C129.209 22.2522 128.78 23.5468 127.949 24.5721C127.562 25.0322 127.077 25.3986 126.53 25.6436C125.982 25.8885 125.386 26.0058 124.787 25.9866C124.198 26.015 123.61 25.8987 123.076 25.6476C122.542 25.3966 122.077 25.0184 121.722 24.5461C120.976 23.4926 120.597 22.2228 120.642 20.9319C120.631 19.6348 121.02 18.3662 121.755 17.299C122.079 16.7911 122.529 16.3757 123.06 16.0927C123.591 15.8098 124.186 15.6689 124.787 15.6836C125.396 15.6639 126.001 15.7888 126.553 16.0482C127.105 16.3076 127.589 16.6941 127.964 17.1762Z" fill="#E2401B"/>
<path d="M148.574 13.2457C147.205 12.0359 145.427 11.4218 143.282 11.4218C141.806 11.4044 140.346 11.7373 139.022 12.3933C137.749 13.0321 136.657 13.9819 135.845 15.1551L135.827 15.1812L138.053 18.9034V18.9257H138.339V18.8996C138.826 17.919 139.546 17.0738 140.436 16.4393C141.243 15.857 142.21 15.5409 143.204 15.5348C143.935 15.4874 144.664 15.6626 145.294 16.0373C145.509 16.1794 145.686 16.3734 145.807 16.6017C145.928 16.83 145.99 17.0851 145.988 17.3438C145.988 17.8202 145.706 18.1775 145.127 18.4381C143.835 18.8992 142.508 19.2564 141.16 19.5064C139.163 19.9307 137.708 20.623 136.84 21.5833C135.956 22.5803 135.487 23.8792 135.53 25.2125C135.53 26.7795 136.012 28.0227 136.959 28.916C137.905 29.8094 139.323 30.2597 141.167 30.2597C143.631 30.2597 145.398 29.3329 146.425 27.5016H146.459L146.919 29.8763H150.593V18.3972C150.634 16.1899 149.94 14.4591 148.574 13.2457ZM144.863 25.2906C144.021 25.8719 143.017 26.1715 141.995 26.1467C140.74 26.1467 140.139 25.7001 140.139 24.7844C140.137 24.5709 140.183 24.3596 140.274 24.1664C140.365 23.9731 140.497 23.8027 140.662 23.6678C141.238 23.2708 141.895 23.0064 142.585 22.8935C144.629 22.432 145.769 21.9593 146.058 21.4456V23.3067C146.062 24.0511 145.661 24.7286 144.863 25.2906Z" fill="#E2401B"/>
<path d="M18.4377 22.7447C18.0915 22.1143 17.7793 21.4657 17.5025 20.8017C18.5311 20.3519 19.4578 19.6972 20.2264 18.8773C21.4288 17.6986 22.0299 16.0336 22.0299 13.8822C22.0299 11.3883 21.216 9.45029 19.5881 8.06812C17.9497 6.68295 15.8633 5.94568 13.7211 5.99487H3.27466V29.8168H8.3587V21.2558H10.2921L11.4722 21.226C11.9101 22.2943 12.8861 24.643 13.4539 25.8936L18.4377 22.7447ZM8.3587 10.7481H13.0382C15.3885 10.7481 16.5637 11.6997 16.5637 13.603C16.5637 15.6477 15.2525 16.6688 12.63 16.6664H8.3587V10.7481Z" fill="#E2401B"/>
<path d="M23.6924 28.1046L22.3602 27.1592L16.8494 30.7399L18.7791 31.4918L22.1412 31.4844L24.5793 29.7424L23.6924 28.1046Z" fill="#E2401B"/>
<path d="M19.2838 24.1255L14.1738 27.3526L15.61 29.6083L21.0466 26.1727L19.2838 24.1255Z" fill="#E2401B"/>
</g>
<defs>
<clipPath id="clip0_6142_49959">
<rect width="147.359" height="29.8296" fill="white" transform="translate(3.27466 5.96875)"/>
</clipPath>
</defs>
</svg>
