<svg xmlns="http://www.w3.org/2000/svg" width="24" height="24" viewBox="0 0 24 24">
  <g fill="none" fill-rule="evenodd">
    <polygon points="0 0 24 0 24 24 0 24"/>
    <path fill="currentColor" d="M16.5,2 C16.776,2 17,2.224 17,2.5 L17,2.5 L17,5 L19.5,5 C20.878,5 22,6.121 22,7.5 L22,7.5 L22,19.5 C22,20.879 20.878,22 19.5,22 L19.5,22 L4.5,22 C3.122,22 2,20.879 2,19.5 L2,19.5 L2,7.5 C2,6.121 3.122,5 4.5,5 L4.5,5 L7,5 L7,2.5 C7,2.224 7.224,2 7.5,2 C7.776,2 8,2.224 8,2.5 L8,2.5 L8,5 L16,5 L16,2.5 C16,2.224 16.224,2 16.5,2 Z M21,10 L3,10 L3,19.5 C3,20.327 3.673,21 4.5,21 L4.5,21 L19.5,21 C20.327,21 21,20.327 21,19.5 L21,19.5 L21,10 Z M6.5,18 C6.776,18 7,18.224 7,18.5 C7,18.776 6.776,19 6.5,19 L6.5,19 L5.5,19 C5.224,19 5,18.776 5,18.5 C5,18.224 5.224,18 5.5,18 L5.5,18 Z M12.5,18 C12.776,18 13,18.224 13,18.5 C13,18.776 12.776,19 12.5,19 L12.5,19 L11.5,19 C11.224,19 11,18.776 11,18.5 C11,18.224 11.224,18 11.5,18 L11.5,18 Z M9.5,18 C9.776,18 10,18.224 10,18.5 C10,18.776 9.776,19 9.5,19 L9.5,19 L8.5,19 C8.224,19 8,18.776 8,18.5 C8,18.224 8.224,18 8.5,18 L8.5,18 Z M15.5,18 C15.776,18 16,18.224 16,18.5 C16,18.776 15.776,19 15.5,19 L15.5,19 L14.5,19 C14.224,19 14,18.776 14,18.5 C14,18.224 14.224,18 14.5,18 L14.5,18 Z M18.5,18 C18.776,18 19,18.224 19,18.5 C19,18.776 18.776,19 18.5,19 L18.5,19 L17.5,19 C17.224,19 17,18.776 17,18.5 C17,18.224 17.224,18 17.5,18 L17.5,18 Z M6.5,15 C6.776,15 7,15.224 7,15.5 C7,15.776 6.776,16 6.5,16 L6.5,16 L5.5,16 C5.224,16 5,15.776 5,15.5 C5,15.224 5.224,15 5.5,15 L5.5,15 Z M12.5,15 C12.776,15 13,15.224 13,15.5 C13,15.776 12.776,16 12.5,16 L12.5,16 L11.5,16 C11.224,16 11,15.776 11,15.5 C11,15.224 11.224,15 11.5,15 L11.5,15 Z M9.5,15 C9.776,15 10,15.224 10,15.5 C10,15.776 9.776,16 9.5,16 L9.5,16 L8.5,16 C8.224,16 8,15.776 8,15.5 C8,15.224 8.224,15 8.5,15 L8.5,15 Z M15.5,15 C15.776,15 16,15.224 16,15.5 C16,15.776 15.776,16 15.5,16 L15.5,16 L14.5,16 C14.224,16 14,15.776 14,15.5 C14,15.224 14.224,15 14.5,15 L14.5,15 Z M18.5,15 C18.776,15 19,15.224 19,15.5 C19,15.776 18.776,16 18.5,16 L18.5,16 L17.5,16 C17.224,16 17,15.776 17,15.5 C17,15.224 17.224,15 17.5,15 L17.5,15 Z M6.5,12 C6.776,12 7,12.224 7,12.5 C7,12.776 6.776,13 6.5,13 L6.5,13 L5.5,13 C5.224,13 5,12.776 5,12.5 C5,12.224 5.224,12 5.5,12 L5.5,12 Z M12.5,12 C12.776,12 13,12.224 13,12.5 C13,12.776 12.776,13 12.5,13 L12.5,13 L11.5,13 C11.224,13 11,12.776 11,12.5 C11,12.224 11.224,12 11.5,12 L11.5,12 Z M9.5,12 C9.776,12 10,12.224 10,12.5 C10,12.776 9.776,13 9.5,13 L9.5,13 L8.5,13 C8.224,13 8,12.776 8,12.5 C8,12.224 8.224,12 8.5,12 L8.5,12 Z M15.5,12 C15.776,12 16,12.224 16,12.5 C16,12.776 15.776,13 15.5,13 L15.5,13 L14.5,13 C14.224,13 14,12.776 14,12.5 C14,12.224 14.224,12 14.5,12 L14.5,12 Z M18.5,12 C18.776,12 19,12.224 19,12.5 C19,12.776 18.776,13 18.5,13 L18.5,13 L17.5,13 C17.224,13 17,12.776 17,12.5 C17,12.224 17.224,12 17.5,12 L17.5,12 Z M19.5,6 L4.5,6 C3.673,6 3,6.673 3,7.5 L3,7.5 L3,9 L21,9 L21,7.5 C21,6.673 20.327,6 19.5,6 L19.5,6 Z"/>
  </g>
</svg>
