<svg width="18" height="19" viewBox="0 0 18 19" fill="none" xmlns="http://www.w3.org/2000/svg">
<path d="M9 2C4.85686 2 1.5 5.35686 1.5 9.5C1.5 13.6431 4.85686 17 9 17C13.1431 17 16.5 13.6431 16.5 9.5C16.5 5.35686 13.1431 2 9 2ZM9 15.5484C5.65827 15.5484 2.95161 12.8417 2.95161 9.5C2.95161 6.15827 5.65827 3.45161 9 3.45161C12.3417 3.45161 15.0484 6.15827 15.0484 9.5C15.0484 12.8417 12.3417 15.5484 9 15.5484Z" fill="#EF5824"/>
<path d="M12.8571 8.53571H9.96429V5.64286C9.96429 5.28788 9.67641 5 9.32143 5H8.67857C8.32359 5 8.03571 5.28788 8.03571 5.64286V8.53571H5.14286C4.78788 8.53571 4.5 8.82359 4.5 9.17857V9.82143C4.5 10.1764 4.78788 10.4643 5.14286 10.4643H8.03571V13.3571C8.03571 13.7121 8.32359 14 8.67857 14H9.32143C9.67641 14 9.96429 13.7121 9.96429 13.3571V10.4643H12.8571C13.2121 10.4643 13.5 10.1764 13.5 9.82143V9.17857C13.5 8.82359 13.2121 8.53571 12.8571 8.53571Z" fill="#EF5824"/>
</svg>
