<svg width="24" height="24" viewBox="0 0 24 24" fill="none" xmlns="http://www.w3.org/2000/svg">
<path fill-rule="evenodd" clip-rule="evenodd" d="M2 12C2 6.47715 6.47715 2 12 2C14.6522 2 17.1957 3.05357 19.0711 4.92893C20.9464 6.8043 22 9.34784 22 12C22 17.5228 17.5228 22 12 22C6.47715 22 2 17.5228 2 12ZM3 12C3 16.9706 7.02944 21 12 21C14.3869 21 16.6761 20.0518 18.364 18.364C20.0518 16.6761 21 14.3869 21 12C21 7.02944 16.9706 3 12 3C7.02944 3 3 7.02944 3 12ZM12 7C12.2455 7 12.4496 7.17688 12.4919 7.41012L12.5 7.5V11.5H16.5C16.7761 11.5 17 11.7239 17 12C17 12.2455 16.8231 12.4496 16.5899 12.4919L16.5 12.5H12.5V16.5C12.5 16.7761 12.2761 17 12 17C11.7545 17 11.5504 16.8231 11.5081 16.5899L11.5 16.5V12.5H7.5C7.22386 12.5 7 12.2761 7 12C7 11.7545 7.17688 11.5504 7.41012 11.5081L7.5 11.5H11.5V7.5C11.5 7.22386 11.7239 7 12 7Z" fill="#2B59C3"/>
</svg>
