<svg width="23" height="23" viewBox="0 0 23 23" fill="none" xmlns="http://www.w3.org/2000/svg">
<path fill-rule="evenodd" clip-rule="evenodd" d="M11.8254 6.41012C11.7831 6.17688 11.579 6 11.3335 6C11.0574 6 10.8335 6.22386 10.8335 6.5V10.5H6.8335L6.74362 10.5081C6.51037 10.5504 6.3335 10.7545 6.3335 11C6.3335 11.2761 6.55735 11.5 6.8335 11.5H10.8335V15.5L10.8416 15.5899C10.8839 15.8231 11.088 16 11.3335 16C11.6096 16 11.8335 15.7761 11.8335 15.5V11.5H15.8335L15.9234 11.4919C16.1566 11.4496 16.3335 11.2455 16.3335 11C16.3335 10.7239 16.1096 10.5 15.8335 10.5H11.8335V6.5L11.8254 6.41012Z" fill="#0B1117"/>
</svg>
