<svg width="14" height="14" viewBox="0 0 14 14" fill="none" xmlns="http://www.w3.org/2000/svg">
<path d="M6.98689 1.75C7.52449 1.75 8.0226 2.02072 8.31293 2.46407L8.36818 2.55501L12.6122 9.87982C12.9035 10.3674 12.9074 10.9729 12.6222 11.464C12.3549 11.9244 11.8726 12.2172 11.3427 12.2475L11.2362 12.25H2.73758C2.17118 12.2461 1.65009 11.942 1.37141 11.4526C1.11132 10.9958 1.09946 10.4428 1.33391 9.97801L1.38792 9.87982L5.6056 2.55501C5.88493 2.05802 6.41345 1.75 6.98689 1.75Z" fill="#FFA400"/>
<path d="M6.99976 8.75C7.32181 8.75 7.58356 8.48901 7.58374 8.16699V5.25C7.58374 4.92783 7.32192 4.66699 6.99976 4.66699C6.67774 4.66717 6.41675 4.92794 6.41675 5.25V8.16699C6.41692 8.4889 6.67785 8.74982 6.99976 8.75ZM6.99976 10.5C7.32181 10.5 7.58356 10.239 7.58374 9.91699C7.58374 9.59483 7.32192 9.33301 6.99976 9.33301C6.67774 9.33318 6.41675 9.59493 6.41675 9.91699C6.41692 10.2389 6.67785 10.4998 6.99976 10.5Z" fill="#FFEEC8"/>
</svg>
