<svg xmlns="http://www.w3.org/2000/svg" viewBox="0 0 24 24">
  <g fill="none" fill-rule="evenodd">
    <polygon points="0 0 24 0 24 24 0 24"/>
    <path fill="currentColor" d="M11.9773851,3 C12.8989794,3 13.7528965,3.4640923 14.2506034,4.2241204 L14.3453098,4.38002201 L21.6208037,16.9368409 C22.1201905,17.7726026 22.126747,18.8106335 21.637957,19.6525423 C21.1797163,20.4418318 20.3528527,20.9437927 19.4445732,20.9956732 L19.2619169,21 L4.69285323,21 C3.7218804,20.9932899 2.82857829,20.471935 2.35085442,19.6330157 C1.90497881,18.8500244 1.88465733,17.9019791 2.28657006,17.1051583 L2.37915577,16.9368409 L9.60946032,4.38002201 C10.0883188,3.5280339 10.9943511,3 11.9773851,3 Z M11.9773851,4 C11.4069564,4 10.8784234,4.28032428 10.5581293,4.74714924 L10.4760642,4.87901863 L3.25534717,17.4188042 L3.17942197,17.5555087 C2.92693952,18.0560733 2.94137601,18.6491745 3.21983666,19.1381724 C3.49553946,19.6223274 3.9927852,19.9394898 4.54192782,19.9922419 L4.69285323,20 L19.2382353,20.0002804 L19.3875466,19.9973005 C19.9640801,19.9643692 20.4855596,19.6457935 20.7731412,19.150453 C21.0515768,18.670866 21.0734992,18.090574 20.8349368,17.5868253 L20.7555495,17.4381743 L13.4906485,4.89920791 L13.4140199,4.77195986 C13.0996128,4.29184157 12.5590245,4 11.9773851,4 Z M12,16 C12.5522847,16 13,16.4477153 13,17 C13,17.5522847 12.5522847,18 12,18 C11.4477153,18 11,17.5522847 11,17 C11,16.4477153 11.4477153,16 12,16 Z M12,8 C12.5522847,8 13,8.44771525 13,9 L13,9 L13,14 C13,14.5522847 12.5522847,15 12,15 C11.4477153,15 11,14.5522847 11,14 L11,14 L11,9 C11,8.44771525 11.4477153,8 12,8 Z"/>
  </g>
</svg>
