<svg width="24" height="24" viewBox="0 0 24 24" fill="none" xmlns="http://www.w3.org/2000/svg">
<path d="M17.2 6C16.9792 6 16.8 6.1792 16.8 6.4C16.8 7.2064 11.568 10 6 10C4.8976 10 4 10.8968 4 12C4 13.1032 4.8976 14 6 14C6.5392 14 7.0816 14.0392 7.62 14.0984C7.6256 14.1192 7.6248 14.1416 7.6344 14.1624L9.2344 17.7624C9.3008 17.912 9.4472 18 9.6 18C9.6536 18 9.7096 17.9888 9.7624 17.9656C9.964 17.876 10.0552 17.6392 9.9656 17.4376L8.5376 14.224C12.9016 14.9456 16.8 17.2704 16.8 18.4C16.8 18.6208 16.9792 18.8 17.2 18.8C17.4208 18.8 17.6 18.6208 17.6 18.4V6.4C17.6 6.1792 17.4208 6 17.2 6ZM16.8 16.928C14.968 15.096 10.2944 13.2 6 13.2C5.3384 13.2 4.8 12.6616 4.8 12C4.8 11.3384 5.3384 10.8 6 10.8C10.216 10.8 14.9504 9.1632 16.8 7.6192V16.928Z" fill="#232329"/>
<path d="M19.6 10.8008C19.3792 10.8008 19.2 10.98 19.2 11.2008V14.4008C19.2 14.6216 19.3792 14.8008 19.6 14.8008C19.8208 14.8008 20 14.6216 20 14.4008V11.2008C20 10.98 19.8208 10.8008 19.6 10.8008Z" fill="#232329"/>
</svg>
