<svg width="49" height="48" viewBox="0 0 49 48" fill="none" xmlns="http://www.w3.org/2000/svg">
<path d="M5.75 26.5C5.0625 26.5 4.5 27.0625 4.5 27.75V30.25C4.5 30.9375 5.0625 31.5 5.75 31.5H14.5V26.5H5.75ZM43.9531 12.2031L36.3047 4.54688C35.9531 4.19531 35.4766 4 34.9766 4H34.5V14H44.5V13.5234C44.5 13.0312 44.3047 12.5547 43.9531 12.2031ZM32 14.625V4H16.375C15.3359 4 14.5 4.83594 14.5 5.875V26.5H24.5V21.4062C24.5 20.2891 25.8516 19.7344 26.6406 20.5234L34.1094 28.0625C34.625 28.5859 34.625 29.4219 34.1094 29.9375L26.6328 37.4688C25.8437 38.2578 24.4922 37.7031 24.4922 36.5859V31.5H14.5V42.125C14.5 43.1641 15.3359 44 16.375 44H42.625C43.6641 44 44.5 43.1641 44.5 42.125V16.5H33.875C32.8438 16.5 32 15.6562 32 14.625Z" fill="#E5E5E9"/>
</svg>
