<svg width="16" height="16" viewBox="0 0 16 16" fill="none" xmlns="http://www.w3.org/2000/svg">
<path d="M12.7999 13.7616H4.47988C3.9506 13.7616 3.51988 13.3308 3.51988 12.8016C3.51988 12.2723 3.9506 11.8416 4.47988 11.8416H12.1599C12.3365 11.8416 12.4799 11.6982 12.4799 11.5216V3.20156C12.4799 2.319 11.7618 1.60156 10.8799 1.60156H4.47988C3.59796 1.60156 2.87988 2.319 2.87988 3.20156V12.8016C2.87988 13.6841 3.59796 14.4016 4.47988 14.4016H12.7999C12.9765 14.4016 13.1199 14.2582 13.1199 14.0816C13.1199 13.9049 12.9765 13.7616 12.7999 13.7616ZM3.51988 3.20156C3.51988 2.67228 3.9506 2.24156 4.47988 2.24156H10.8799C11.4092 2.24156 11.8399 2.67228 11.8399 3.20156V11.2016H4.47988C4.1202 11.2016 3.7874 11.3212 3.51988 11.5222V3.20156Z" fill="#2B59C3"/>
<path d="M9.59994 6.07812H5.75994C5.5833 6.07812 5.43994 6.22148 5.43994 6.39812C5.43994 6.57476 5.5833 6.71812 5.75994 6.71812H9.59994C9.77658 6.71812 9.91994 6.57476 9.91994 6.39812C9.91994 6.22148 9.77658 6.07812 9.59994 6.07812Z" fill="#2B59C3"/>
<path d="M9.59994 7.85938H5.75994C5.5833 7.85938 5.43994 8.00274 5.43994 8.17938C5.43994 8.35602 5.5833 8.49938 5.75994 8.49938H9.59994C9.77658 8.49938 9.91994 8.35602 9.91994 8.17938C9.91994 8.00274 9.77658 7.85938 9.59994 7.85938Z" fill="#2B59C3"/>
<path d="M9.59994 4.30469H5.75994C5.5833 4.30469 5.43994 4.44805 5.43994 4.62469C5.43994 4.80133 5.5833 4.94469 5.75994 4.94469H9.59994C9.77658 4.94469 9.91994 4.80133 9.91994 4.62469C9.91994 4.44805 9.77658 4.30469 9.59994 4.30469Z" fill="#2B59C3"/>
<path d="M9.59994 7.85938H5.75994C5.5833 7.85938 5.43994 8.00274 5.43994 8.17938C5.43994 8.35602 5.5833 8.49938 5.75994 8.49938H9.59994C9.77658 8.49938 9.91994 8.35602 9.91994 8.17938C9.91994 8.00274 9.77658 7.85938 9.59994 7.85938Z" fill="#2B59C3"/>
</svg>
