<svg width="20" height="16" viewBox="0 0 20 16" fill="none" xmlns="http://www.w3.org/2000/svg">
<g clip-path="url(#clip0_9440_82322)">
<path d="M17 11.6811V1.04673L10.5 1.94048V12.9811L17 11.6811ZM9.5 12.9811V1.94048L3 1.04673V11.6811L9.5 12.9811ZM16.8625 0.0561024C17.4656 -0.0251476 18 0.440477 18 1.04673V11.6811C18 12.1592 17.6625 12.5686 17.1969 12.6624L10.3938 14.0217C10.1344 14.0749 9.86875 14.0749 9.60938 14.0217L2.80312 12.6592C2.33437 12.5655 2 12.1561 2 11.678V1.04673C2 0.440477 2.53438 -0.0251476 3.1375 0.0561024L10 0.999852L16.8625 0.0561024ZM0 2.04673C0 1.48735 0.45625 1.04673 1 1.04673V2.04673V4.99985V13.0811L9.80313 14.8405C9.93125 14.8655 10.0656 14.8655 10.1969 14.8405L19 13.0811V4.99985V2.04673V1.04673C19.5438 1.04673 20 1.48735 20 2.04673V13.0811C20 13.5592 19.6625 13.9686 19.1969 14.0624L10.3938 15.8217C10.1344 15.8749 9.86875 15.8749 9.60938 15.8217L0.803125 14.0592C0.3375 13.9686 0 13.5561 0 13.0811V2.04673Z" fill="#7879F1"/>
</g>
<defs>
<clipPath id="clip0_9440_82322">
<rect width="20" height="16" fill="white"/>
</clipPath>
</defs>
</svg>
