<svg xmlns="http://www.w3.org/2000/svg" width="62" height="62" viewBox="0 0 62 62" fill="none">
  <path d="M61.7578 12.0673H40.9176V7.13449C40.9176 5.49824 39.5855 4.1748 37.9387 4.1748H24.0492C22.4023 4.1748 21.0703 5.49824 21.0703 7.13449V12.0673H0.242188V32.7731C0.242188 34.6981 1.04141 36.4546 2.33711 37.7059H2.22812V57.4251H59.7719V37.7059H59.6629C60.9586 36.4546 61.7578 34.7101 61.7578 32.7731V12.0673ZM23.0562 7.14652C23.0562 6.60512 23.5043 6.15996 24.0492 6.15996H37.9387C38.4836 6.15996 38.9316 6.60512 38.9316 7.14652V12.0793H23.0562V7.14652ZM57.7859 55.44H4.21406V38.9932C5.12227 39.4264 6.12734 39.667 7.19297 39.667H22.0754C22.0754 41.8446 23.8555 43.6132 26.0473 43.6132H35.9648C38.1566 43.6132 39.9367 41.8446 39.9367 39.667H54.8191C55.8848 39.667 56.8898 39.4143 57.798 38.9932V55.44H57.7859ZM24.0492 39.667V37.6939C24.0492 36.611 24.9332 35.7207 26.0352 35.7207H35.9648C37.0547 35.7207 37.9508 36.599 37.9508 37.6939V39.667C37.9508 40.7498 37.0668 41.6401 35.9648 41.6401H26.0352C24.9453 41.6401 24.0492 40.7618 24.0492 39.667ZM59.7719 32.7731C59.7719 35.4921 57.5438 37.7059 54.807 37.7059H39.9246C39.9246 35.805 38.5563 34.2168 36.752 33.8439C36.4977 33.7957 25.4902 33.7957 25.2359 33.8439C23.4316 34.2168 22.0633 35.805 22.0633 37.7059H7.19297C4.45625 37.7059 2.22812 35.4921 2.22812 32.7731V14.0404H59.7719V32.7731Z" fill="currentColor"/>
</svg>