<svg xmlns="http://www.w3.org/2000/svg" width="67" height="67" viewBox="0 0 67 67" fill="none">
  <path d="M63.5191 29.2949H59.2269V31.4474H63.5191V29.2949Z" fill="currentColor"/>
  <path d="M7.77302 29.2949H3.48083V31.4474H7.77302V29.2949Z" fill="currentColor"/>
  <path d="M50.9404 49.3846L53.9758 52.4282L55.4931 50.906L52.4577 47.8623L50.9404 49.3846Z" fill="currentColor"/>
  <path d="M16.0564 11.3663L13.0336 8.32129L11.5156 9.84379L14.5516 12.8888L16.0564 11.3663Z" fill="currentColor"/>
  <path d="M34.573 0.262451H32.4269V4.56745H34.573V0.262451Z" fill="currentColor"/>
  <path d="M11.5117 50.8991L13.0292 52.4211L16.0642 49.3771L14.5467 47.855L11.5117 50.8991Z" fill="currentColor"/>
  <path d="M55.4843 9.84379L53.9663 8.32129L50.9435 11.3663L52.4484 12.8888L55.4843 9.84379Z" fill="currentColor"/>
  <path d="M32.2699 7.82255C20.3355 8.45255 10.7828 18.7425 10.9921 30.765C11.123 38.6269 15.232 45.7275 21.9974 49.77C23.7378 50.82 24.8371 52.7625 24.9156 54.8888C24.2744 55.4794 23.8556 56.3194 23.8556 57.2644C23.8556 58.6819 24.7847 59.8763 26.0541 60.3094C26.499 64.0369 29.6658 66.9375 33.5 66.9375C37.3341 66.9375 40.5009 64.0369 40.9459 60.3094C42.2152 59.8763 43.1443 58.6819 43.1443 57.2644C43.1443 56.3194 42.7255 55.4794 42.0843 54.8888C42.1628 52.7494 43.3013 50.8069 45.1857 49.6519C51.9642 45.5175 56.0078 38.3119 56.0078 30.3713C56.0209 17.5088 45.225 7.1138 32.2699 7.82255ZM33.5 64.785C30.9089 64.785 28.7498 62.9344 28.2525 60.48H38.7605C38.2502 62.9344 36.091 64.785 33.5 64.785ZM39.9382 58.3407H27.0748C26.4859 58.3407 26.0017 57.855 26.0017 57.2644C26.0017 56.6738 26.4859 56.1882 27.0748 56.1882H39.9382C40.5271 56.1882 41.0113 56.6738 41.0113 57.2644C41.0113 57.855 40.5271 58.3407 39.9382 58.3407ZM31.3539 54.0357V43.2863H35.646V54.0357H31.3539ZM44.0865 47.8144C41.8095 49.2057 40.3308 51.4763 40.0037 54.0357H39.9382H37.7921V43.2863H39.9382V41.1338H27.0748V43.2863H29.2209V54.0357H27.0748H27.0093C26.6953 51.4894 25.2558 49.2057 23.0966 47.9194C16.9855 44.2707 13.256 37.8394 13.1382 30.7257C12.955 19.8582 21.5918 10.5394 32.3877 9.97505C44.1257 9.34505 53.8748 18.7425 53.8748 30.3713C53.8748 37.5507 50.2107 44.0738 44.0865 47.8144Z" fill="currentColor"/>
</svg>