<svg width="32" height="32" viewBox="0 0 32 32" fill="none" xmlns="http://www.w3.org/2000/svg">
<rect width="32" height="32" rx="16" fill="#FFEEC8"/>
<path d="M15.9871 10.75C16.5247 10.75 17.0228 11.0207 17.3132 11.4641L17.3684 11.555L21.6125 18.8798C21.9038 19.3674 21.9076 19.9729 21.6225 20.464C21.3552 20.9244 20.8728 21.2172 20.343 21.2475L20.2364 21.25H11.7378C11.1714 21.2461 10.6503 20.942 10.3717 20.4526C10.1116 19.9958 10.0997 19.4428 10.3342 18.978L10.3882 18.8798L14.6058 11.555C14.8852 11.058 15.4137 10.75 15.9871 10.75Z" fill="#FFA400"/>
<path fill-rule="evenodd" clip-rule="evenodd" d="M16.0003 19.5C15.6782 19.5 15.417 19.2388 15.417 18.9167C15.417 18.5945 15.6782 18.3333 16.0003 18.3333C16.3225 18.3333 16.5837 18.5945 16.5837 18.9167C16.5837 19.2388 16.3225 19.5 16.0003 19.5ZM16.0004 17.75C15.6782 17.75 15.417 17.4888 15.417 17.1667V14.25C15.417 13.9278 15.6782 13.6667 16.0004 13.6667C16.3225 13.6667 16.5837 13.9278 16.5837 14.25V17.1667C16.5837 17.4888 16.3225 17.75 16.0004 17.75Z" fill="white"/>
</svg>
