<svg width="20" height="20" viewBox="0 0 20 20" fill="none" xmlns="http://www.w3.org/2000/svg">
<path fill-rule="evenodd" clip-rule="evenodd" d="M12.2659 7.32509L8.69092 10.9084L7.31592 9.53342C7.11226 9.29561 6.79249 9.19202 6.48807 9.26525C6.18366 9.33848 5.94597 9.57616 5.87275 9.88058C5.79952 10.185 5.90311 10.5048 6.14092 10.7084L8.09926 12.6751C8.25652 12.8311 8.46942 12.918 8.69092 12.9168C8.90954 12.9158 9.11904 12.829 9.27426 12.6751L13.4409 8.50842C13.5987 8.35195 13.6874 8.13896 13.6874 7.91676C13.6874 7.69456 13.5987 7.48156 13.4409 7.32509C13.1159 7.00199 12.591 7.00199 12.2659 7.32509Z" fill="#97A5B0"/>
</svg>
