<svg width="19" height="18" viewBox="0 0 19 18" fill="none" xmlns="http://www.w3.org/2000/svg">
<path fill-rule="evenodd" clip-rule="evenodd" d="M11.3733 6.59261L8.15581 9.81761L6.91831 8.58011C6.73502 8.36607 6.44723 8.27284 6.17325 8.33875C5.89927 8.40465 5.68536 8.61857 5.61946 8.89254C5.55355 9.16652 5.64678 9.45431 5.86081 9.63761L7.62331 11.4076C7.76485 11.548 7.95646 11.6263 8.15581 11.6251C8.35257 11.6243 8.54112 11.5462 8.68081 11.4076L12.4308 7.65761C12.5728 7.51678 12.6527 7.32508 12.6527 7.12511C12.6527 6.92513 12.5728 6.73343 12.4308 6.59261C12.1383 6.30181 11.6658 6.30181 11.3733 6.59261Z" fill="#097345"/>
</svg>
