<svg xmlns="http://www.w3.org/2000/svg" width="24" height="24" viewBox="0 0 24 24" fill="none">
  <path fill-rule="evenodd" clip-rule="evenodd" d="M14.7201 8.79006L10.4301 13.0901L8.78008 11.4401C8.53569 11.1547 8.15196 11.0304 7.78666 11.1183C7.42136 11.2061 7.13614 11.4913 7.04827 11.8566C6.9604 12.2219 7.08471 12.6057 7.37008 12.8501L9.72008 15.2101C9.9088 15.3972 10.1643 15.5016 10.4301 15.5001C10.6924 15.499 10.9438 15.3948 11.1301 15.2101L16.1301 10.2101C16.3194 10.0223 16.4259 9.7667 16.4259 9.50006C16.4259 9.23342 16.3194 8.97783 16.1301 8.79006C15.74 8.40234 15.1101 8.40234 14.7201 8.79006Z" fill="currentColor"/>
</svg>