<svg width="32" height="32" viewBox="0 0 32 32" fill="none" xmlns="http://www.w3.org/2000/svg">
<rect width="32" height="32" rx="16" fill="#E5EDFF"/>
<path fill-rule="evenodd" clip-rule="evenodd" d="M18.7201 12.7908L14.4301 17.0908L12.7801 15.4408C12.5357 15.1554 12.152 15.0311 11.7867 15.119C11.4214 15.2069 11.1361 15.4921 11.0483 15.8574C10.9604 16.2227 11.0847 16.6064 11.3701 16.8508L13.7201 19.2108C13.9088 19.398 14.1643 19.5023 14.4301 19.5008C14.6924 19.4997 14.9438 19.3955 15.1301 19.2108L20.1301 14.2108C20.3194 14.023 20.4259 13.7674 20.4259 13.5008C20.4259 13.2342 20.3194 12.9786 20.1301 12.7908C19.74 12.4031 19.1101 12.4031 18.7201 12.7908Z" fill="#2B59C3"/>
</svg>
