<svg width="18" height="18" viewBox="0 0 18 18" fill="none" xmlns="http://www.w3.org/2000/svg">
<path fill-rule="evenodd" clip-rule="evenodd" d="M11.0401 6.59261L7.82256 9.81761L6.58506 8.58011C6.40177 8.36607 6.11397 8.27284 5.84 8.33875C5.56602 8.40465 5.35211 8.61857 5.2862 8.89254C5.2203 9.16652 5.31353 9.45431 5.52756 9.63761L7.29006 11.4076C7.4316 11.548 7.62321 11.6263 7.82256 11.6251C8.01932 11.6243 8.20787 11.5462 8.34756 11.4076L12.0976 7.65761C12.2395 7.51678 12.3194 7.32508 12.3194 7.12511C12.3194 6.92513 12.2395 6.73343 12.0976 6.59261C11.805 6.30181 11.3326 6.30181 11.0401 6.59261V6.59261Z" fill="#097245"/>
</svg>
