<svg width="24" height="24" viewBox="0 0 24 24" fill="none" xmlns="http://www.w3.org/2000/svg">
<g id="In Use/Check">
<path id="Path" fill-rule="evenodd" clip-rule="evenodd" d="M14.723 8.79079L10.433 13.0908L8.78301 11.4408C8.53862 11.1554 8.15489 11.0311 7.78959 11.119C7.42429 11.2069 7.13907 11.4921 7.0512 11.8574C6.96333 12.2227 7.08764 12.6064 7.37301 12.8508L9.72301 15.2108C9.91173 15.398 10.1672 15.5023 10.433 15.5008C10.6954 15.4997 10.9468 15.3955 11.133 15.2108L16.133 10.2108C16.3223 10.023 16.4288 9.76743 16.4288 9.50079C16.4288 9.23416 16.3223 8.97856 16.133 8.79079C15.743 8.40307 15.1131 8.40307 14.723 8.79079Z" fill="white"/>
</g>
</svg>
