<svg width="24" height="24" viewBox="0 0 24 24" fill="none" xmlns="http://www.w3.org/2000/svg">
<path fill-rule="evenodd" clip-rule="evenodd" d="M2 12C2 6.47715 6.47715 2 12 2C14.6522 2 17.1957 3.05357 19.0711 4.92893C20.9464 6.8043 22 9.34784 22 12C22 17.5228 17.5228 22 12 22C6.47715 22 2 17.5228 2 12ZM10.5188 13.2591L14.7126 9.30868C14.9287 8.99027 15.3658 8.90436 15.6919 9.11604C16.0168 9.32787 16.1048 9.75843 15.8589 10.1111L11.1787 14.691C11.062 14.8633 10.8724 14.9747 10.6515 14.9977L10.5907 15C10.4039 15 10.2249 14.9278 10.0907 14.7976L8.20674 12.9514C7.93109 12.6813 7.93109 12.2426 8.20674 11.9725C8.48239 11.7023 8.9301 11.7023 9.2057 11.9724L10.5188 13.2591Z" fill="#2B59C3"/>
</svg>
