<svg width="24" height="24" viewBox="0 0 24 24" fill="none" xmlns="http://www.w3.org/2000/svg">
<path fill-rule="evenodd" clip-rule="evenodd" d="M17.7147 6.98221C17.8497 6.78735 17.8304 6.51792 17.6569 6.34435C17.4616 6.14909 17.145 6.14909 16.9497 6.34435L12 11.2941L7.05025 6.34435L6.981 6.2865C6.78614 6.1515 6.51671 6.17079 6.34315 6.34435C6.14788 6.53962 6.14788 6.8562 6.34315 7.05146L11.2929 12.0012L6.34315 16.951L6.28529 17.0202C6.15029 17.2151 6.16958 17.4845 6.34315 17.6581C6.53841 17.8533 6.85499 17.8533 7.05025 17.6581L12 12.7083L16.9497 17.6581L17.019 17.7159C17.2139 17.8509 17.4833 17.8316 17.6569 17.6581C17.8521 17.4628 17.8521 17.1462 17.6569 16.951L12.7071 12.0012L17.6569 7.05146L17.7147 6.98221Z" fill="#0B1117"/>
</svg>
