<svg width="16" height="16" viewBox="0 0 16 16" fill="none" xmlns="http://www.w3.org/2000/svg">
<g id="In Use/Close (Thic)">
<path id="Union" fill-rule="evenodd" clip-rule="evenodd" d="M6.49363 5.25628C6.15192 4.91457 5.5979 4.91457 5.25619 5.25628C4.91448 5.59799 4.91448 6.15201 5.25619 6.49372L7.18312 8.42065L5.25632 10.3475C4.91461 10.6892 4.91461 11.2432 5.25632 11.5849C5.59803 11.9266 6.15205 11.9266 6.49376 11.5849L8.42056 9.65809L10.3474 11.5849C10.6891 11.9266 11.2431 11.9266 11.5848 11.5849C11.9265 11.2432 11.9265 10.6892 11.5848 10.3475L9.658 8.42065L11.5849 6.49372C11.9266 6.15201 11.9266 5.59799 11.5849 5.25628C11.2432 4.91457 10.6892 4.91457 10.3475 5.25628L8.42056 7.18321L6.49363 5.25628Z" fill="#67666C"/>
</g>
</svg>
