<svg width="15" height="15" viewBox="0 0 15 15" fill="none" xmlns="http://www.w3.org/2000/svg">
<path fill-rule="evenodd" clip-rule="evenodd" d="M10.8441 4.1538C10.6391 3.94873 10.3059 3.94873 10.1009 4.1538L7.49895 6.75662L4.89701 4.1538C4.69201 3.94873 4.35875 3.94873 4.15375 4.1538C3.94875 4.35887 3.94875 4.69224 4.15375 4.89731L6.75569 7.50013L4.15375 10.1029C3.94875 10.308 3.94875 10.6414 4.15375 10.8465C4.25678 10.9495 4.39134 11 4.52591 11C4.66047 11 4.79504 10.9485 4.89806 10.8465L7.5 8.24364L10.1019 10.8465C10.205 10.9495 10.3395 11 10.4741 11C10.6087 11 10.7432 10.9485 10.8462 10.8465C11.0513 10.6414 11.0513 10.308 10.8462 10.1029L8.24221 7.50013L10.8441 4.89731C11.0491 4.69224 11.0491 4.35992 10.8441 4.1538Z" fill="#6D7C88"/>
</svg>
