<svg width="32" height="32" viewBox="0 0 32 32" fill="none" xmlns="http://www.w3.org/2000/svg">
<circle cx="16" cy="16" r="16" fill="#D7DEE4"/>
<path fill-rule="evenodd" clip-rule="evenodd" d="M21.7147 10.9803C21.8497 10.7854 21.8304 10.516 21.6569 10.3424C21.4616 10.1471 21.145 10.1471 20.9497 10.3424L16 15.2921L11.0503 10.3424L10.981 10.2845C10.7861 10.1495 10.5167 10.1688 10.3431 10.3424C10.1479 10.5377 10.1479 10.8542 10.3431 11.0495L15.2929 15.9993L10.3431 20.949L10.2853 21.0183C10.1503 21.2131 10.1696 21.4825 10.3431 21.6561C10.5384 21.8514 10.855 21.8514 11.0503 21.6561L16 16.7064L20.9497 21.6561L21.019 21.714C21.2139 21.849 21.4833 21.8297 21.6569 21.6561C21.8521 21.4608 21.8521 21.1443 21.6569 20.949L16.7071 15.9993L21.6569 11.0495L21.7147 10.9803Z" fill="#0B1117"/>
</svg>
