<svg width="32" height="32" viewBox="0 0 32 32" fill="none" xmlns="http://www.w3.org/2000/svg">
<circle opacity="0.4" cx="16" cy="16" r="16" fill="#F0F4F7"/>
<path fill-rule="evenodd" clip-rule="evenodd" d="M21.7147 10.9812C21.8497 10.7864 21.8304 10.5169 21.6569 10.3434C21.4616 10.1481 21.145 10.1481 20.9497 10.3434L16 15.2931L11.0503 10.3434L10.981 10.2855C10.7861 10.1505 10.5167 10.1698 10.3431 10.3434C10.1479 10.5386 10.1479 10.8552 10.3431 11.0505L15.2929 16.0002L10.3431 20.95L10.2853 21.0192C10.1503 21.2141 10.1696 21.4835 10.3431 21.6571C10.5384 21.8523 10.855 21.8523 11.0503 21.6571L16 16.7073L20.9497 21.6571L21.019 21.7149C21.2139 21.8499 21.4833 21.8307 21.6569 21.6571C21.8521 21.4618 21.8521 21.1452 21.6569 20.95L16.7071 16.0002L21.6569 11.0505L21.7147 10.9812Z" fill="white"/>
</svg>
