<svg width="20" height="20" viewBox="0 0 20 20" fill="none" xmlns="http://www.w3.org/2000/svg">
<path fill-rule="evenodd" clip-rule="evenodd" d="M12.0831 2.5013C12.0831 1.35071 11.1504 0.417969 9.99977 0.417969L9.86279 0.4224C8.77605 0.492937 7.91644 1.39673 7.91644 2.5013C7.91644 3.5092 8.63217 4.34993 9.5831 4.54296V7.53587C8.9787 7.63727 8.44784 7.95553 8.07326 8.40791L5.48104 6.91129C5.78934 5.99124 5.41911 4.95103 4.54625 4.44708C4.2141 4.25532 3.8511 4.16541 3.4934 4.16766L3.35959 4.17281C2.69247 4.21996 2.05992 4.58686 1.70036 5.20964C1.12506 6.20608 1.46647 7.48023 2.46291 8.05552C2.79506 8.24729 3.15806 8.3372 3.51576 8.33494L3.64957 8.32979C4.18431 8.292 4.69685 8.04876 5.06438 7.63298L7.65606 9.12929C7.555 9.40079 7.49977 9.6946 7.49977 10.0013C7.49977 10.308 7.555 10.6018 7.65606 10.8733L5.06438 12.3696C4.66628 11.9193 4.09806 11.6713 3.51576 11.6677L3.38144 11.6712C3.0678 11.6895 2.75354 11.7793 2.46291 11.9471C1.46647 12.5224 1.12506 13.7965 1.70036 14.793C2.08389 15.4573 2.77802 15.8304 3.4934 15.8349L3.62772 15.8314C3.94136 15.8131 4.25562 15.7233 4.54625 15.5555C5.41911 15.0516 5.78934 14.0114 5.48104 13.0913L8.07326 11.5947C8.44784 12.0471 8.9787 12.3653 9.5831 12.4667V15.4596C8.63217 15.6527 7.91644 16.4934 7.91644 17.5013C7.91644 18.6519 8.84918 19.5846 9.99977 19.5846L10.1368 19.5802C11.2235 19.5097 12.0831 18.6059 12.0831 17.5013C12.0831 16.4934 11.3674 15.6527 10.4164 15.4596V12.4667C11.0208 12.3653 11.5517 12.0471 11.9263 11.5947L14.5185 13.0913C14.2102 14.0114 14.5804 15.0516 15.4533 15.5555C15.7854 15.7473 16.1484 15.8372 16.5061 15.8349L16.6399 15.8298C17.3071 15.7826 17.9396 15.4157 18.2992 14.793C18.8745 13.7965 18.5331 12.5224 17.5366 11.9471C17.2045 11.7553 16.8415 11.6654 16.4838 11.6677L16.35 11.6728C15.8152 11.7106 15.3027 11.9538 14.9352 12.3696L12.3435 10.8733C12.4445 10.6018 12.4998 10.308 12.4998 10.0013C12.4998 9.6946 12.4445 9.40079 12.3435 9.12929L14.9352 7.63298C15.3333 8.08334 15.9015 8.33127 16.4838 8.33494L16.6181 8.33145C16.9317 8.31313 17.246 8.22332 17.5366 8.05552C18.5331 7.48023 18.8745 6.20608 18.2992 5.20964C17.9156 4.54534 17.2215 4.17217 16.5061 4.16766L16.3718 4.17116C16.0582 4.18948 15.7439 4.27929 15.4533 4.44708C14.5804 4.95103 14.2102 5.99124 14.5185 6.91129L11.9263 8.40791C11.5517 7.95553 11.0208 7.63727 10.4164 7.53587V4.54296C11.3674 4.34993 12.0831 3.5092 12.0831 2.5013ZM9.99977 16.2513C9.30941 16.2513 8.74977 16.8109 8.74977 17.5013C8.74977 18.1917 9.30941 18.7513 9.99977 18.7513C10.6901 18.7513 11.2498 18.1917 11.2498 17.5013C11.2498 16.8109 10.6901 16.2513 9.99977 16.2513ZM15.87 14.8338C15.2721 14.4887 15.0673 13.7242 15.4124 13.1263C15.7576 12.5284 16.5221 12.3236 17.12 12.6688C17.7178 13.0139 17.9227 13.7784 17.5775 14.3763C17.2323 14.9742 16.4678 15.179 15.87 14.8338ZM2.87958 12.6688C2.28171 13.0139 2.07687 13.7784 2.42205 14.3763C2.76723 14.9742 3.53171 15.179 4.12958 14.8338C4.72745 14.4887 4.93229 13.7242 4.58711 13.1263C4.24193 12.5284 3.47745 12.3236 2.87958 12.6688ZM2.87958 7.33383C2.28171 6.98866 2.07687 6.22417 2.42205 5.6263C2.76723 5.02844 3.53171 4.82359 4.12958 5.16877C4.72745 5.51395 4.93229 6.27844 4.58711 6.8763C4.24193 7.47417 3.47745 7.67901 2.87958 7.33383ZM15.87 5.16877C15.2721 5.51395 15.0673 6.27844 15.4124 6.8763C15.7576 7.47417 16.5221 7.67901 17.12 7.33383C17.7178 6.98866 17.9227 6.22417 17.5775 5.6263C17.2323 5.02844 16.4678 4.82359 15.87 5.16877ZM9.99977 1.2513C9.30941 1.2513 8.74977 1.81095 8.74977 2.5013C8.74977 3.19166 9.30941 3.7513 9.99977 3.7513C10.6901 3.7513 11.2498 3.19166 11.2498 2.5013C11.2498 1.81095 10.6901 1.2513 9.99977 1.2513ZM9.99977 8.33464C9.0793 8.33464 8.3331 9.08083 8.3331 10.0013C8.3331 10.9218 9.0793 11.668 9.99977 11.668C10.9202 11.668 11.6664 10.9218 11.6664 10.0013C11.6664 9.08083 10.9202 8.33464 9.99977 8.33464Z" fill="#6D7C88"/>
</svg>
