<svg width="14" height="15" viewBox="0 0 14 15" fill="none" xmlns="http://www.w3.org/2000/svg">
<path fill-rule="evenodd" clip-rule="evenodd" d="M6.96746 4.38637C6.35225 4.66729 6.0958 5.00194 6.0958 5.27767C6.0958 5.55339 6.35225 5.88804 6.96746 6.16896C7.5594 6.43925 8.3956 6.61334 9.3333 6.61334C10.271 6.61334 11.1072 6.43925 11.6991 6.16896C12.3144 5.88804 12.5708 5.55339 12.5708 5.27767C12.5708 5.00194 12.3144 4.66729 11.6991 4.38637C11.1072 4.11608 10.271 3.94199 9.3333 3.94199C8.3956 3.94199 7.5594 4.11608 6.96746 4.38637ZM12.5708 6.2474C12.3838 6.40262 12.1591 6.53608 11.9172 6.64653C11.2424 6.95466 10.3286 7.13834 9.3333 7.13834C8.338 7.13834 7.4242 6.95466 6.74939 6.64653C6.5075 6.53608 6.28277 6.40262 6.0958 6.2474V7.76368C6.0958 8.0394 6.35225 8.37405 6.96746 8.65497C7.5594 8.92527 8.3956 9.09935 9.3333 9.09935C10.271 9.09935 11.1072 8.92527 11.6991 8.65497C12.3144 8.37405 12.5708 8.0394 12.5708 7.76368V6.2474ZM13.0958 5.27767C13.0958 4.67074 12.5687 4.20631 11.9172 3.9088C11.2424 3.60067 10.3286 3.41699 9.3333 3.41699C8.338 3.41699 7.4242 3.60067 6.74939 3.9088C6.09786 4.20631 5.5708 4.67074 5.5708 5.27767V10.2361C5.5708 10.2381 5.57082 10.2401 5.57087 10.242C5.57082 10.244 5.5708 10.246 5.5708 10.248C5.5708 10.8549 6.09786 11.3193 6.74939 11.6168C7.4242 11.925 8.338 12.1087 9.3333 12.1087C10.3286 12.1087 11.2424 11.925 11.9172 11.6168C12.5687 11.3193 13.0958 10.8549 13.0958 10.248V5.27767ZM12.5708 8.73341C12.3838 8.88863 12.1591 9.02209 11.9172 9.13254C11.2424 9.44067 10.3286 9.62435 9.3333 9.62435C8.338 9.62435 7.4242 9.44067 6.74939 9.13254C6.5075 9.02209 6.28277 8.88863 6.0958 8.73341V10.2361C6.0958 10.2381 6.09578 10.2401 6.09573 10.242C6.09578 10.244 6.0958 10.246 6.0958 10.248C6.0958 10.5237 6.35225 10.8584 6.96746 11.1393C7.5594 11.4096 8.3956 11.5837 9.3333 11.5837C10.271 11.5837 11.1072 11.4096 11.6991 11.1393C12.3144 10.8584 12.5708 10.5237 12.5708 10.248V8.73341Z" fill="#E5E5E9" stroke="#E5E5E9" stroke-width="0.3" stroke-linecap="round" stroke-linejoin="round"/>
<path fill-rule="evenodd" clip-rule="evenodd" d="M2.58264 4.14616C2.45715 3.72448 2.06653 3.41699 1.60409 3.41699C1.04029 3.41699 0.583252 3.87403 0.583252 4.43783C0.583252 5.00162 1.04029 5.45866 1.60409 5.45866C2.06653 5.45866 2.45715 5.15117 2.58264 4.72949H2.91659C3.39983 4.72949 3.79159 5.12124 3.79159 5.60449V7.50033H2.62492C2.61086 7.50033 2.59703 7.50132 2.58351 7.50324C2.45895 7.08007 2.06759 6.77116 1.60409 6.77116C1.04029 6.77116 0.583252 7.2282 0.583252 7.79199C0.583252 8.35578 1.04029 8.81283 1.60409 8.81283C2.06759 8.81283 2.45895 8.50392 2.58351 8.08074C2.59704 8.08266 2.61086 8.08366 2.62492 8.08366H3.79159V10.1253C3.79159 10.6086 3.39983 11.0003 2.91659 11.0003H2.61458C2.54382 10.5056 2.11836 10.1253 1.60409 10.1253C1.04029 10.1253 0.583252 10.5824 0.583252 11.1462C0.583252 11.7099 1.04029 12.167 1.60409 12.167C2.01131 12.167 2.36284 11.9285 2.52668 11.5837H2.91659C3.722 11.5837 4.37492 10.9307 4.37492 10.1253V8.08366H4.95825C5.11934 8.08366 5.24992 7.95307 5.24992 7.79199C5.24992 7.63091 5.11933 7.50033 4.95825 7.50033H4.37492V5.60449C4.37492 4.79908 3.722 4.14616 2.91659 4.14616H2.58264ZM2.04159 4.43643C2.04079 4.19549 1.84522 4.00042 1.60409 4.00042C1.36247 4.00042 1.16659 4.1963 1.16659 4.43792C1.16659 4.67954 1.36247 4.87542 1.60409 4.87542C1.84526 4.87542 2.04085 4.68029 2.04159 4.43929C2.04159 4.4388 2.04159 4.43831 2.04159 4.43783C2.04159 4.43736 2.04159 4.4369 2.04159 4.43643ZM1.60409 8.22959C1.84572 8.22959 2.04159 8.03371 2.04159 7.79209C2.04159 7.55046 1.84572 7.35459 1.60409 7.35459C1.36247 7.35459 1.16659 7.55046 1.16659 7.79209C1.16659 8.03371 1.36247 8.22959 1.60409 8.22959ZM2.04159 11.1463C2.04159 11.3879 1.84572 11.5838 1.60409 11.5838C1.36247 11.5838 1.16659 11.3879 1.16659 11.1463C1.16659 10.9046 1.36247 10.7088 1.60409 10.7088C1.84572 10.7088 2.04159 10.9046 2.04159 11.1463Z" fill="#E5E5E9"/>
<path d="M2.58264 4.14616L2.43888 4.18895L2.47078 4.29616H2.58264V4.14616ZM2.58264 4.72949V4.57949H2.47078L2.43888 4.6867L2.58264 4.72949ZM3.79159 7.50033V7.65033H3.94159V7.50033H3.79159ZM2.58351 7.50324L2.43961 7.5456L2.47623 7.67L2.60462 7.65175L2.58351 7.50324ZM2.58351 8.08074L2.60462 7.93223L2.47623 7.91399L2.43961 8.03839L2.58351 8.08074ZM3.79159 8.08366H3.94159V7.93366H3.79159V8.08366ZM2.61458 11.0003L2.46609 11.0216L2.48451 11.1503H2.61458V11.0003ZM2.52668 11.5837V11.4337H2.43187L2.39119 11.5193L2.52668 11.5837ZM4.37492 8.08366V7.93366H4.22492V8.08366H4.37492ZM4.37492 7.50033H4.22492V7.65033H4.37492V7.50033ZM2.04159 4.43643L2.19159 4.43713L2.19159 4.43593L2.04159 4.43643ZM2.04159 4.43929L2.19159 4.43975L2.19159 4.43856L2.04159 4.43929ZM1.60409 3.56699C1.99835 3.56699 2.33179 3.82913 2.43888 4.18895L2.72641 4.10337C2.58251 3.61984 2.1347 3.26699 1.60409 3.26699V3.56699ZM0.733252 4.43783C0.733252 3.95688 1.12314 3.56699 1.60409 3.56699V3.26699C0.957452 3.26699 0.433252 3.79119 0.433252 4.43783H0.733252ZM1.60409 5.30866C1.12314 5.30866 0.733252 4.91877 0.733252 4.43783H0.433252C0.433252 5.08446 0.957452 5.60866 1.60409 5.60866V5.30866ZM2.43888 4.6867C2.33179 5.04653 1.99835 5.30866 1.60409 5.30866V5.60866C2.1347 5.60866 2.58251 5.25581 2.72641 4.77228L2.43888 4.6867ZM2.91659 4.57949H2.58264V4.87949H2.91659V4.57949ZM3.94159 5.60449C3.94159 5.0384 3.48268 4.57949 2.91659 4.57949V4.87949C3.31699 4.87949 3.64159 5.20409 3.64159 5.60449H3.94159ZM3.94159 7.50033V5.60449H3.64159V7.50033H3.94159ZM2.62492 7.65033H3.79159V7.35033H2.62492V7.65033ZM2.60462 7.65175C2.61117 7.65082 2.61795 7.65033 2.62492 7.65033V7.35033C2.60378 7.35033 2.5829 7.35182 2.5624 7.35474L2.60462 7.65175ZM1.60409 6.92116C1.99926 6.92116 2.33333 7.1845 2.43961 7.5456L2.7274 7.46089C2.58457 6.97563 2.13592 6.62116 1.60409 6.62116V6.92116ZM0.733252 7.79199C0.733252 7.31104 1.12314 6.92116 1.60409 6.92116V6.62116C0.957452 6.62116 0.433252 7.14536 0.433252 7.79199H0.733252ZM1.60409 8.66283C1.12314 8.66283 0.733252 8.27294 0.733252 7.79199H0.433252C0.433252 8.43863 0.957452 8.96283 1.60409 8.96283V8.66283ZM2.43961 8.03839C2.33333 8.39948 1.99926 8.66283 1.60409 8.66283V8.96283C2.13592 8.96283 2.58457 8.60835 2.7274 8.1231L2.43961 8.03839ZM2.62492 7.93366C2.61795 7.93366 2.61117 7.93317 2.60462 7.93223L2.5624 8.22925C2.5829 8.23216 2.60378 8.23366 2.62492 8.23366V7.93366ZM3.79159 7.93366H2.62492V8.23366H3.79159V7.93366ZM3.94159 10.1253V8.08366H3.64159V10.1253H3.94159ZM2.91659 11.1503C3.48268 11.1503 3.94159 10.6914 3.94159 10.1253H3.64159C3.64159 10.5257 3.31699 10.8503 2.91659 10.8503V11.1503ZM2.61458 11.1503H2.91659V10.8503H2.61458V11.1503ZM2.76307 10.9791C2.68189 10.4115 2.19406 9.97533 1.60409 9.97533V10.2753C2.04267 10.2753 2.40575 10.5997 2.46609 11.0216L2.76307 10.9791ZM1.60409 9.97533C0.957452 9.97533 0.433252 10.4995 0.433252 11.1462H0.733252C0.733252 10.6652 1.12314 10.2753 1.60409 10.2753V9.97533ZM0.433252 11.1462C0.433252 11.7928 0.957452 12.317 1.60409 12.317V12.017C1.12314 12.017 0.733252 11.6271 0.733252 11.1462H0.433252ZM1.60409 12.317C2.07137 12.317 2.47442 12.0432 2.66217 11.648L2.39119 11.5193C2.25126 11.8139 1.95125 12.017 1.60409 12.017V12.317ZM2.91659 11.4337H2.52668V11.7337H2.91659V11.4337ZM4.22492 10.1253C4.22492 10.8479 3.63916 11.4337 2.91659 11.4337V11.7337C3.80484 11.7337 4.52492 11.0136 4.52492 10.1253H4.22492ZM4.22492 8.08366V10.1253H4.52492V8.08366H4.22492ZM4.95825 7.93366H4.37492V8.23366H4.95825V7.93366ZM5.09992 7.79199C5.09992 7.87023 5.03649 7.93366 4.95825 7.93366V8.23366C5.20218 8.23366 5.39992 8.03592 5.39992 7.79199H5.09992ZM4.95825 7.65033C5.03649 7.65033 5.09992 7.71375 5.09992 7.79199H5.39992C5.39992 7.54807 5.20218 7.35033 4.95825 7.35033V7.65033ZM4.37492 7.65033H4.95825V7.35033H4.37492V7.65033ZM4.22492 5.60449V7.50033H4.52492V5.60449H4.22492ZM2.91659 4.29616C3.63916 4.29616 4.22492 4.88192 4.22492 5.60449H4.52492C4.52492 4.71623 3.80484 3.99616 2.91659 3.99616V4.29616ZM2.58264 4.29616H2.91659V3.99616H2.58264V4.29616ZM1.60409 4.15042C1.76254 4.15042 1.89106 4.27861 1.89159 4.43693L2.19159 4.43593C2.19051 4.11237 1.9279 3.85042 1.60409 3.85042V4.15042ZM1.31659 4.43792C1.31659 4.27914 1.44531 4.15042 1.60409 4.15042V3.85042C1.27962 3.85042 1.01659 4.11345 1.01659 4.43792H1.31659ZM1.60409 4.72542C1.44531 4.72542 1.31659 4.5967 1.31659 4.43792H1.01659C1.01659 4.76239 1.27962 5.02542 1.60409 5.02542V4.72542ZM1.89159 4.43883C1.8911 4.59719 1.76257 4.72542 1.60409 4.72542V5.02542C1.92795 5.02542 2.19059 4.76338 2.19159 4.43975L1.89159 4.43883ZM2.19159 4.43856C2.19159 4.43832 2.19159 4.43807 2.19159 4.43783H1.89159C1.89159 4.43856 1.89159 4.43929 1.89159 4.44002L2.19159 4.43856ZM2.19159 4.43783C2.19159 4.43759 2.19159 4.43736 2.19159 4.43713L1.89159 4.43574C1.89159 4.43643 1.89159 4.43713 1.89159 4.43783H2.19159ZM1.89159 7.79209C1.89159 7.95087 1.76287 8.07959 1.60409 8.07959V8.37959C1.92856 8.37959 2.19159 8.11655 2.19159 7.79209H1.89159ZM1.60409 7.50459C1.76287 7.50459 1.89159 7.63331 1.89159 7.79209H2.19159C2.19159 7.46762 1.92856 7.20459 1.60409 7.20459V7.50459ZM1.31659 7.79209C1.31659 7.63331 1.44531 7.50459 1.60409 7.50459V7.20459C1.27962 7.20459 1.01659 7.46762 1.01659 7.79209H1.31659ZM1.60409 8.07959C1.44531 8.07959 1.31659 7.95087 1.31659 7.79209H1.01659C1.01659 8.11655 1.27962 8.37959 1.60409 8.37959V8.07959ZM1.60409 11.7338C1.92856 11.7338 2.19159 11.4707 2.19159 11.1463H1.89159C1.89159 11.305 1.76287 11.4338 1.60409 11.4338V11.7338ZM1.01659 11.1463C1.01659 11.4707 1.27962 11.7338 1.60409 11.7338V11.4338C1.44531 11.4338 1.31659 11.305 1.31659 11.1463H1.01659ZM1.60409 10.5588C1.27962 10.5588 1.01659 10.8218 1.01659 11.1463H1.31659C1.31659 10.9875 1.44531 10.8588 1.60409 10.8588V10.5588ZM2.19159 11.1463C2.19159 10.8218 1.92856 10.5588 1.60409 10.5588V10.8588C1.76287 10.8588 1.89159 10.9875 1.89159 11.1463H2.19159Z" fill="#E5E5E9"/>
</svg>
