<svg width="16" height="18" viewBox="0 0 16 18" fill="none" xmlns="http://www.w3.org/2000/svg">
<path fill-rule="evenodd" clip-rule="evenodd" d="M4 4.001V5.001H2.5C1.67157 5.001 1 5.67257 1 6.501V15.501C1 16.3294 1.67157 17.001 2.5 17.001H9.5C10.3284 17.001 11 16.3294 11 15.501V14.001H12V15.501C12 16.8817 10.8807 18.001 9.5 18.001H2.5C1.11929 18.001 0 16.8817 0 15.501V6.501C0 5.12029 1.11929 4.001 2.5 4.001H4ZM12 1.001H6.5C5.67157 1.001 5 1.67258 5 2.501V11.501C5 12.3294 5.67157 13.001 6.5 13.001H13.5C14.3284 13.001 15 12.3294 15 11.501V4.001H12.5C12.2239 4.001 12 3.77714 12 3.501V1.001ZM16 3.52898V11.501C16 12.8817 14.8807 14.001 13.5 14.001H6.5C5.11929 14.001 4 12.8817 4 11.501V2.501C4 1.12029 5.11929 0.00100238 6.5 0.00100238H12.472C12.6048 -0.00741709 12.7429 0.0368419 12.8536 0.147449L15.8536 3.14745C15.9642 3.25806 16.0084 3.39623 16 3.52898ZM13 3.001H14.2929L13 1.70811V3.001ZM7.5 10.001C7.22386 10.001 7 9.77714 7 9.501C7 9.22486 7.22386 9.001 7.5 9.001H9.5C9.77614 9.001 10 9.22486 10 9.501C10 9.77714 9.77614 10.001 9.5 10.001H7.5ZM7.5 8.001C7.22386 8.001 7 7.77714 7 7.501C7 7.22486 7.22386 7.001 7.5 7.001H12.5C12.7761 7.001 13 7.22486 13 7.501C13 7.77714 12.7761 8.001 12.5 8.001H7.5ZM7.5 6.001C7.22386 6.001 7 5.77714 7 5.501C7 5.22486 7.22386 5.001 7.5 5.001H12.5C12.7761 5.001 13 5.22486 13 5.501C13 5.77714 12.7761 6.001 12.5 6.001H7.5Z" fill="#2B59C3"/>
</svg>
