<svg width="46" height="43" viewBox="0 0 46 43" fill="none" xmlns="http://www.w3.org/2000/svg">
<path fill-rule="evenodd" clip-rule="evenodd" d="M0.0022436 7.99681C0.0776053 3.36595 8.11781 0 17.9184 0C27.7652 0 35.8351 3.39782 35.8351 8.0625C35.8351 8.10195 35.8345 8.14132 35.8333 8.18059V16.125C35.8333 16.6198 35.4322 17.0208 34.9375 17.0208C34.4977 17.0208 34.1319 16.7039 34.0561 16.286L34.0417 16.125V11.6674C31.1293 14.3771 24.9809 16.125 17.9184 16.125C10.8531 16.125 4.70264 14.3757 1.79167 11.6642V15.2292C1.79167 18.4813 8.96241 21.5 17.9167 21.5C18.5183 21.5 19.0989 21.4874 19.6677 21.4615C20.1619 21.439 20.5808 21.8215 20.6032 22.3157C20.6257 22.81 20.2433 23.2289 19.749 23.2513C19.1526 23.2784 18.5449 23.2917 17.9167 23.2917C15.4548 23.2917 13.1041 23.0794 10.9629 22.688L9.9898 22.4948C6.43067 21.7302 3.53249 20.4536 1.79167 18.833V23.2917C1.79167 26.5438 8.96241 29.5625 17.9167 29.5625C18.5183 29.5625 19.0989 29.5499 19.6677 29.524C20.1619 29.5015 20.5808 29.884 20.6032 30.3782C20.6257 30.8725 20.2433 31.2914 19.749 31.3138C19.1526 31.3409 18.5449 31.3542 17.9167 31.3542C15.4548 31.3542 13.1041 31.1419 10.9629 30.7505L9.9898 30.5573C6.43067 29.7927 3.53249 28.5161 1.79167 26.8955V31.3524C1.79167 34.6045 8.96241 37.6232 17.9167 37.6232C18.5197 37.6232 19.1035 37.6105 19.6674 37.5847C20.1616 37.5621 20.5806 37.9445 20.6032 38.4387C20.6258 38.9329 20.2435 39.3519 19.7493 39.3745C19.1574 39.4016 18.5463 39.4149 17.9167 39.4149C15.4548 39.4149 13.1041 39.2026 10.9629 38.8112L9.9898 38.618C4.24499 37.3838 0.222162 34.8158 0.00890794 31.6201L0 31.3524V23.2917V15.2292V8.06071C0 8.03922 0.000756255 8.01792 0.0022436 7.99681ZM17.9185 1.79167C26.828 1.79167 33.9725 4.78132 34.0429 8.01429C34.0421 8.03025 34.0417 8.04633 34.0417 8.0625V8.15178C33.9119 11.369 26.7903 14.3333 17.9185 14.3333C8.96461 14.3333 1.79346 11.3139 1.79346 8.0625C1.79346 4.8111 8.96461 1.79167 17.9185 1.79167Z" fill="#0B1117"/>
<circle cx="34" cy="31" r="12" fill="#67666C"/>
<path d="M29.6667 29.3334C31.258 29.3334 32.7841 29.9656 33.9093 31.0908C35.0345 32.216 35.6667 33.7421 35.6667 35.3334M29.6667 24.6667C32.4957 24.6667 35.2088 25.7906 37.2092 27.7909C39.2095 29.7913 40.3334 32.5044 40.3334 35.3334M31 34.6667C31 35.0349 30.7015 35.3334 30.3334 35.3334C29.9652 35.3334 29.6667 35.0349 29.6667 34.6667C29.6667 34.2986 29.9652 34.0001 30.3334 34.0001C30.7015 34.0001 31 34.2986 31 34.6667Z" stroke="white" stroke-width="2" stroke-linecap="round" stroke-linejoin="round"/>
</svg>
