<svg xmlns="http://www.w3.org/2000/svg" width="24" height="24" viewBox="0 0 24 24">
  <g fill="none" fill-rule="evenodd">
    <polygon points="0 0 24 0 24 24 0 24"/>
    <path fill="currentColor" d="M14.625,3 C15.204899,3 15.6823199,3.43876095 15.7433987,4.00241886 L15.75,4.125 L15.75,6 L20.625,6 C20.8321068,6 21,6.16789322 21,6.375 C21,6.55621843 20.8714568,6.70741398 20.7005756,6.74238133 L20.625,6.75 L19.087,6.75 L17.7639468,19.3209374 C17.669269,20.2219866 16.9466837,20.9182872 16.0583848,20.9932971 L15.9,21 L8.1,21 C7.1936528,21 6.42548351,20.3536338 6.25845126,19.4778444 L6.23530939,19.3209966 L4.912,6.75 L3.375,6.75 C3.16789322,6.75 3,6.58210678 3,6.375 C3,6.19378157 3.12854325,6.04258602 3.29942442,6.00761867 L3.375,6 L8.25,6 L8.25,4.125 C8.25,3.54510101 8.68876095,3.06768014 9.25241886,3.00660135 L9.375,3 L14.625,3 Z M18.333,6.75 L5.666,6.75 L6.98119683,19.2425625 C7.03707042,19.7743105 7.4573944,20.1871843 7.9781604,20.2434533 L8.1,20.25 L15.8998032,20.2500001 C16.4342726,20.2497195 16.8884987,19.874878 16.9988262,19.3629456 L17.0180616,19.2424819 L18.333,6.75 Z M12,9.375 C12.1812184,9.375 12.332414,9.50354325 12.3673813,9.67442442 L12.375,9.75 L12.375,17.625 C12.375,17.8321068 12.2071068,18 12,18 C11.8187816,18 11.667586,17.8714568 11.6326187,17.7005756 L11.625,17.625 L11.625,9.75 C11.625,9.54289322 11.7928932,9.375 12,9.375 Z M15.3928369,9.37542445 C15.5738503,9.38404413 15.7187605,9.51963352 15.7455603,9.69198451 L15.7495756,9.76783693 L15.3745756,17.6428369 C15.3647245,17.8497093 15.1890354,18.0094266 14.9821631,17.9995756 C14.8011497,17.9909559 14.6562395,17.8553665 14.6294397,17.6830155 L14.6254244,17.6071631 L15.0004244,9.73216307 C15.0102755,9.5252907 15.1859646,9.36557338 15.3928369,9.37542445 Z M8.60716307,9.37542445 C8.78817639,9.36680477 8.94531498,9.48801088 8.98837074,9.65703541 L8.99957555,9.73216307 L9.37457555,17.6071631 C9.38442662,17.8140354 9.2247093,17.9897245 9.01783693,17.9995756 C8.83682361,18.0081952 8.67968502,17.8869891 8.63662926,17.7179646 L8.62542445,17.6428369 L8.25042445,9.76783693 C8.24057338,9.56096457 8.4002907,9.38527551 8.60716307,9.37542445 Z M14.625,3.75 L9.375,3.75 C9.19378157,3.75 9.04258602,3.87854325 9.00761867,4.04942442 L9,4.125 L9,6 L15,6 L15,4.125 C15,3.94378157 14.8714568,3.79258602 14.7005756,3.75761867 L14.625,3.75 Z"/>
  </g>
</svg>
