<svg width="14" height="15" viewBox="0 0 14 15" fill="none" xmlns="http://www.w3.org/2000/svg">
<path d="M8.00325 11.1471H8.55013C8.62265 11.1471 8.6922 11.1183 8.74348 11.067C8.79476 11.0158 8.82357 10.9462 8.82357 10.8737V5.95182C8.82357 5.8793 8.79476 5.80975 8.74348 5.75847C8.6922 5.70719 8.62265 5.67839 8.55013 5.67839H8.00325C7.93073 5.67839 7.86118 5.70719 7.80991 5.75847C7.75863 5.80975 7.72982 5.8793 7.72982 5.95182V10.8737C7.72982 10.9462 7.75863 11.0158 7.80991 11.067C7.86118 11.1183 7.93073 11.1471 8.00325 11.1471ZM11.7402 3.49089H9.8624L9.08766 2.19889C8.99043 2.03689 8.8529 1.90283 8.68845 1.80978C8.524 1.71674 8.33826 1.66788 8.14932 1.66797H5.85199C5.66312 1.66796 5.47747 1.71685 5.31311 1.80989C5.14875 1.90294 5.01128 2.03695 4.91409 2.19889L4.1389 3.49089H2.26107C2.16437 3.49089 2.07164 3.5293 2.00327 3.59767C1.9349 3.66604 1.89648 3.75878 1.89648 3.85547V4.22005C1.89648 4.31675 1.9349 4.40948 2.00327 4.47785C2.07164 4.54622 2.16437 4.58464 2.26107 4.58464H2.62565V12.2409C2.62565 12.531 2.74089 12.8092 2.946 13.0143C3.15112 13.2194 3.42932 13.3346 3.7194 13.3346H10.2819C10.572 13.3346 10.8502 13.2194 11.0553 13.0143C11.2604 12.8092 11.3757 12.531 11.3757 12.2409V4.58464H11.7402C11.8369 4.58464 11.9297 4.54622 11.998 4.47785C12.0664 4.40948 12.1048 4.31675 12.1048 4.22005V3.85547C12.1048 3.75878 12.0664 3.66604 11.998 3.59767C11.9297 3.5293 11.8369 3.49089 11.7402 3.49089ZM5.81211 2.82803C5.82429 2.80775 5.84153 2.79097 5.86214 2.77935C5.88275 2.76773 5.90603 2.76165 5.92969 2.76172H8.07161C8.09524 2.76169 8.11846 2.76779 8.13903 2.77941C8.15959 2.79103 8.1768 2.80778 8.18896 2.82803L8.58682 3.49089H5.41449L5.81211 2.82803ZM10.2819 12.2409H3.7194V4.58464H10.2819V12.2409ZM5.45117 11.1471H5.99805C6.07057 11.1471 6.14012 11.1183 6.1914 11.067C6.24268 11.0158 6.27148 10.9462 6.27148 10.8737V5.95182C6.27148 5.8793 6.24268 5.80975 6.1914 5.75847C6.14012 5.70719 6.07057 5.67839 5.99805 5.67839H5.45117C5.37865 5.67839 5.3091 5.70719 5.25782 5.75847C5.20654 5.80975 5.17773 5.8793 5.17773 5.95182V10.8737C5.17773 10.9462 5.20654 11.0158 5.25782 11.067C5.3091 11.1183 5.37865 11.1471 5.45117 11.1471Z" fill="#EF5824"/>
</svg>
