<svg width="14" height="15" viewBox="0 0 14 15" fill="none" xmlns="http://www.w3.org/2000/svg">
<rect width="14" height="14" transform="translate(0 0.5)" fill="white"/>
<path fill-rule="evenodd" clip-rule="evenodd" d="M7.11998 1.72318L6.49505 2.3481C6.32249 2.52067 6.32249 2.80046 6.49505 2.97303L10.1526 6.63059H6.93857L2.41835 2.11037C2.25505 1.94707 1.98278 1.95459 1.81021 2.12716L1.18529 2.75208C1.01272 2.92465 1.0052 3.19692 1.1685 3.36022L6.17562 8.36734V8.39814H6.20642L8.18052 10.3722L6.49492 12.0578C6.32235 12.2304 6.32235 12.5102 6.49492 12.6828L7.11985 13.3077C7.29241 13.4802 7.5722 13.4802 7.74477 13.3077L9.43037 11.6221L11.2843 13.476C11.4476 13.6393 11.7199 13.6318 11.8925 13.4592L12.5174 12.8343C12.6899 12.6617 12.6975 12.3895 12.5342 12.2262L10.6802 10.3722L13.0899 7.96256C13.3309 7.71321 13.331 7.31772 13.09 7.0683L7.7449 1.72318C7.57234 1.55061 7.29255 1.55061 7.11998 1.72318ZM9.43037 9.12238L10.1546 8.39814H8.70612L9.43037 9.12238ZM1.50472 7.95625V7.07247C1.50472 6.82843 1.70256 6.63059 1.94661 6.63059H2.82974L4.59729 8.39814H1.94661C1.70256 8.39814 1.50472 8.2003 1.50472 7.95625Z" fill="#E73E36"/>
</svg>
