<svg xmlns="http://www.w3.org/2000/svg" width="12" height="14" viewBox="0 0 12 14" fill="none">
  <path d="M10.7999 12.7617H2.47988C1.9506 12.7617 1.51988 12.331 1.51988 11.8017C1.51988 11.2724 1.9506 10.8417 2.47988 10.8417H10.1599C10.3365 10.8417 10.4799 10.6983 10.4799 10.5217V2.20168C10.4799 1.31912 9.7618 0.601685 8.87988 0.601685H2.47988C1.59796 0.601685 0.879883 1.31912 0.879883 2.20168V11.8017C0.879883 12.6842 1.59796 13.4017 2.47988 13.4017H10.7999C10.9765 13.4017 11.1199 13.2583 11.1199 13.0817C11.1199 12.905 10.9765 12.7617 10.7999 12.7617ZM1.51988 2.20168C1.51988 1.6724 1.9506 1.24168 2.47988 1.24168H8.87988C9.40916 1.24168 9.83988 1.6724 9.83988 2.20168V10.2017H2.47988C2.1202 10.2017 1.7874 10.3214 1.51988 10.5223V2.20168Z" fill="#44518B"/>
  <path d="M7.59994 5.08215H3.75994C3.5833 5.08215 3.43994 5.22551 3.43994 5.40215C3.43994 5.57879 3.5833 5.72215 3.75994 5.72215H7.59994C7.77658 5.72215 7.91994 5.57879 7.91994 5.40215C7.91994 5.22551 7.77658 5.08215 7.59994 5.08215Z" fill="#44518B"/>
  <path d="M7.5997 6.85962H3.7597C3.58306 6.85962 3.4397 7.00298 3.4397 7.17962C3.4397 7.35626 3.58306 7.49962 3.7597 7.49962H7.5997C7.77634 7.49962 7.9197 7.35626 7.9197 7.17962C7.9197 7.00298 7.77634 6.85962 7.5997 6.85962Z" fill="#44518B"/>
  <path d="M7.5997 3.30481H3.7597C3.58306 3.30481 3.4397 3.44817 3.4397 3.62481C3.4397 3.80145 3.58306 3.94481 3.7597 3.94481H7.5997C7.77634 3.94481 7.9197 3.80145 7.9197 3.62481C7.9197 3.44817 7.77634 3.30481 7.5997 3.30481Z" fill="#44518B"/>
  <path d="M7.5997 6.85962H3.7597C3.58306 6.85962 3.4397 7.00298 3.4397 7.17962C3.4397 7.35626 3.58306 7.49962 3.7597 7.49962H7.5997C7.77634 7.49962 7.9197 7.35626 7.9197 7.17962C7.9197 7.00298 7.77634 6.85962 7.5997 6.85962Z" fill="#44518B"/>
</svg>