<svg width="24" height="24" viewBox="0 0 24 24" fill="none" xmlns="http://www.w3.org/2000/svg">
<path fill-rule="evenodd" clip-rule="evenodd" d="M13.3666 2.20808C13.1927 2.07392 12.9782 2 12.7561 2C12.4896 2 12.2341 2.10645 12.0464 2.29569L9.22741 5.12466L2.28994 12.0521L2.20339 12.1518C2.07099 12.3262 1.99877 12.5405 2.00003 12.7619V17.0003L2.00676 17.1169C2.0645 17.6141 2.48704 18 2.99968 18H7.23814L7.36987 17.992C7.58712 17.9644 7.79067 17.866 7.94788 17.7101L14.8654 10.7826L17.7043 8.00361L17.7919 7.90437C17.9261 7.73044 18 7.51599 18 7.29387C18 7.02733 17.8936 6.77183 17.7043 6.58413L13.4659 2.29569L13.3666 2.20808ZM10.7352 5.02812L12.756 3L16.9992 7.29313L14.9789 9.27174L14.6213 8.91421L11.0858 5.37868L10.7352 5.02812ZM10.0294 5.73652L9.93401 5.83228L2.99993 12.7564L3.00002 16.999L7.24302 17L14.1658 10.068L14.2644 9.97147L13.9142 9.62132L10.3787 6.08579L10.0294 5.73652ZM21.5 20C21.7761 20 22 20.2239 22 20.5C22 20.7455 21.8231 20.9496 21.5899 20.9919L21.5 21H2.5C2.22386 21 2 20.7761 2 20.5C2 20.2545 2.17688 20.0504 2.41012 20.0081L2.5 20H21.5Z" fill="#EF5824"/>
</svg>
