<svg width="24" height="24" viewBox="0 0 24 24" fill="none" xmlns="http://www.w3.org/2000/svg">
<path fill-rule="evenodd" clip-rule="evenodd" d="M20 5H4.16667C3.57858 5 3.04522 5.2343 2.65483 5.61464C2.64391 5.62457 2.63335 5.63506 2.62319 5.6461C2.23781 6.03725 2 6.57418 2 7.16667V17.1667C2 18.3633 2.97005 19.3333 4.16667 19.3333H20C21.1966 19.3333 22.1667 18.3633 22.1667 17.1667V7.16667C22.1667 6.57418 21.9289 6.03724 21.5435 5.6461C21.5333 5.63505 21.5228 5.62457 21.5118 5.61464C21.1215 5.2343 20.5881 5 20 5ZM20.3148 6.04296C20.2146 6.01497 20.1091 6 20 6H4.16667C4.0576 6 3.95203 6.01497 3.85189 6.04296L12.0833 12.77L20.3148 6.04296ZM3.09148 6.71303C3.03257 6.85248 3 7.00577 3 7.16667V17.1667C3 17.811 3.52233 18.3333 4.16667 18.3333H20C20.6443 18.3333 21.1667 17.811 21.1667 17.1667V7.16667C21.1667 7.00577 21.1341 6.85248 21.0752 6.71303L12.3998 13.8038C12.2387 13.9355 12.0159 13.9519 11.8394 13.8532L11.7669 13.8038L3.09148 6.71303Z" fill="#44518B"/>
</svg>
