<svg width="14" height="12" viewBox="0 0 14 12" fill="none" xmlns="http://www.w3.org/2000/svg">
<path fill-rule="evenodd" clip-rule="evenodd" d="M6.6514 0C7.2658 0 7.83522 0.309721 8.16703 0.816406L8.2305 0.919922L13.0801 9.29102C13.413 9.84817 13.4176 10.5403 13.0918 11.1016C12.7864 11.6277 12.2353 11.9624 11.6299 11.9971L11.5078 12H1.79496C1.14772 11.9955 0.551884 11.6481 0.233433 11.0889C-0.0638046 10.5669 -0.076497 9.93453 0.191441 9.40332L0.252964 9.29102L5.07328 0.919922C5.39253 0.352098 5.99618 3.73838e-05 6.6514 0ZM6.6514 0.666992C6.27116 0.667026 5.91862 0.853851 5.70511 1.16504L5.65042 1.25293L0.836949 9.6123L0.786167 9.7041C0.618031 10.0377 0.627936 10.4329 0.813511 10.7588C0.997304 11.0814 1.3284 11.2929 1.69437 11.3281L1.79496 11.333L11.4922 11.334L11.5918 11.3311C11.9761 11.309 12.324 11.0968 12.5157 10.7666C12.701 10.447 12.7156 10.0603 12.5567 9.72461L12.5039 9.625L7.66019 1.2666L7.60941 1.18164C7.3998 0.861562 7.03916 0.666992 6.6514 0.666992ZM6.66703 8.66699C7.0349 8.66723 7.33287 8.96512 7.33304 9.33301C7.33304 9.70105 7.03501 9.99976 6.66703 10C6.29884 10 6.00003 9.7012 6.00003 9.33301C6.00021 8.96497 6.29895 8.66699 6.66703 8.66699ZM6.66703 3.33301C7.03501 3.33325 7.33304 3.63196 7.33304 4V7.33301C7.33304 7.70105 7.03501 7.99976 6.66703 8C6.29884 8 6.00003 7.7012 6.00003 7.33301V4C6.00003 3.63181 6.29884 3.33301 6.66703 3.33301Z" fill="#DA1515"/>
</svg>
