<svg width="18" height="18" viewBox="0 0 18 18" fill="none" xmlns="http://www.w3.org/2000/svg">
<path d="M16.3312 13.7907C16.8119 14.6239 16.2085 15.6654 15.2484 15.6654H2.75141C1.78951 15.6654 1.18894 14.6223 1.66868 13.7907L7.91727 2.95664C8.39818 2.12307 9.60269 2.12458 10.0827 2.95664L16.3312 13.7907V13.7907ZM9 11.5508C8.33842 11.5508 7.80209 12.0871 7.80209 12.7487C7.80209 13.4103 8.33842 13.9466 9 13.9466C9.66159 13.9466 10.1979 13.4103 10.1979 12.7487C10.1979 12.0871 9.66159 11.5508 9 11.5508ZM7.86269 7.24489L8.05586 10.7866C8.0649 10.9523 8.20193 11.082 8.3679 11.082H9.63211C9.79808 11.082 9.93511 10.9523 9.94415 10.7866L10.1373 7.24489C10.1471 7.06588 10.0046 6.91536 9.82529 6.91536H8.17469C7.99542 6.91536 7.85292 7.06588 7.86269 7.24489V7.24489Z" fill="#E73E36"/>
</svg>
