<svg width="22" height="22" viewBox="0 0 22 22" fill="none" xmlns="http://www.w3.org/2000/svg">
<path fill-rule="evenodd" clip-rule="evenodd" d="M11.0002 1.8335C13.4313 1.8335 15.7629 2.79927 17.482 4.51835C19.2011 6.23743 20.1668 8.56901 20.1668 11.0002C20.1668 16.0628 16.0628 20.1668 11.0002 20.1668C5.93755 20.1668 1.8335 16.0628 1.8335 11.0002C1.8335 5.93755 5.93755 1.8335 11.0002 1.8335ZM11.0002 2.75016C6.44381 2.75016 2.75016 6.44381 2.75016 11.0002C2.75016 15.5565 6.44381 19.2502 11.0002 19.2502C15.5565 19.2502 19.2502 15.5565 19.2502 11.0002C19.2502 8.81213 18.381 6.71371 16.8338 5.16653C15.2866 3.61936 13.1882 2.75016 11.0002 2.75016ZM10.0835 14.6668C10.0835 15.1731 10.4939 15.5835 11.0002 15.5835C11.5064 15.5835 11.9168 15.1731 11.9168 14.6668C11.9168 14.1606 11.5064 13.7502 11.0002 13.7502C10.4939 13.7502 10.0835 14.1606 10.0835 14.6668ZM10.0835 11.9168C10.0835 12.4231 10.4939 12.8335 11.0002 12.8335C11.5064 12.8335 11.9168 12.4231 11.9168 11.9168V7.3335C11.9168 6.82723 11.5064 6.41683 11.0002 6.41683C10.4939 6.41683 10.0835 6.82724 10.0835 7.3335V11.9168Z" fill="#8F0000"/>
</svg>