<svg width="14" height="15" viewBox="0 0 14 15" fill="none" xmlns="http://www.w3.org/2000/svg">
<path d="M12.7024 11.2271C13.0762 11.8751 12.6069 12.6852 11.8602 12.6852H2.14031C1.39217 12.6852 0.925057 11.8739 1.29819 11.2271L6.1582 2.80063C6.53225 2.1523 7.46908 2.15347 7.84246 2.80063L12.7024 11.2271ZM7.00033 9.48496C6.48576 9.48496 6.06862 9.9021 6.06862 10.4167C6.06862 10.9312 6.48576 11.3484 7.00033 11.3484C7.5149 11.3484 7.93204 10.9312 7.93204 10.4167C7.93204 9.9021 7.5149 9.48496 7.00033 9.48496ZM6.11575 6.13594L6.266 8.89056C6.27303 9.01946 6.37961 9.12037 6.50869 9.12037H7.49197C7.62105 9.12037 7.72763 9.01946 7.73466 8.89056L7.88491 6.13594C7.89251 5.99671 7.78165 5.87963 7.64222 5.87963H6.35842C6.21899 5.87963 6.10815 5.99671 6.11575 6.13594Z" fill="#FF9933"/>
</svg>