<svg width="16" height="16" viewBox="0 0 16 16" fill="none" xmlns="http://www.w3.org/2000/svg">
  <path d="M12.5834 9.66683H11.75C11.6395 9.66683 11.5336 9.71073 11.4554 9.78887C11.3773 9.86701 11.3334 9.97299 11.3334 10.0835V13.0002H3.00004V4.66683H6.75004C6.86055 4.66683 6.96653 4.62293 7.04467 4.54479C7.12281 4.46665 7.16671 4.36067 7.16671 4.25016V3.41683C7.16671 3.30632 7.12281 3.20034 7.04467 3.1222C6.96653 3.04406 6.86055 3.00016 6.75004 3.00016H2.58337C2.25185 3.00016 1.93391 3.13186 1.69949 3.36628C1.46507 3.6007 1.33337 3.91864 1.33337 4.25016L1.33337 13.4168C1.33337 13.7484 1.46507 14.0663 1.69949 14.3007C1.93391 14.5351 2.25185 14.6668 2.58337 14.6668H11.75C12.0816 14.6668 12.3995 14.5351 12.6339 14.3007C12.8683 14.0663 13 13.7484 13 13.4168V10.0835C13 9.97299 12.9561 9.86701 12.878 9.78887C12.7999 9.71073 12.6939 9.66683 12.5834 9.66683ZM14.0417 1.3335H10.7084C10.1519 1.3335 9.87374 2.00824 10.2657 2.4012L11.1961 3.33167L4.849 9.67647C4.79073 9.73453 4.7445 9.80352 4.71296 9.8795C4.68141 9.95547 4.66517 10.0369 4.66517 10.1192C4.66517 10.2014 4.68141 10.2829 4.71296 10.3589C4.7445 10.4348 4.79073 10.5038 4.849 10.5619L5.43936 11.1512C5.49743 11.2095 5.56642 11.2557 5.64239 11.2872C5.71836 11.3188 5.79981 11.335 5.88207 11.335C5.96433 11.335 6.04578 11.3188 6.12175 11.2872C6.19772 11.2557 6.26672 11.2095 6.32478 11.1512L12.6688 4.80537L13.599 5.73454C13.9896 6.12516 14.6667 5.85173 14.6667 5.29183V1.9585C14.6667 1.79274 14.6009 1.63376 14.4836 1.51655C14.3664 1.39934 14.2075 1.3335 14.0417 1.3335V1.3335Z" fill="#EF5824"/>
</svg>
