<svg xmlns="http://www.w3.org/2000/svg" width="24" height="24" viewBox="0 0 24 24">
  <g fill="none" fill-rule="evenodd">
    <polygon points="0 0 24 0 24 24 0 24"/>
    <path fill="#6D7C88" d="M12,6 C17.147,6 21.695,11.45 21.886,11.683 C22.038,11.867 22.038,12.133 21.886,12.317 C21.695,12.55 17.147,18 12,18 C6.853,18 2.305,12.55 2.114,12.318 C1.962,12.133 1.962,11.868 2.114,11.683 C2.305,11.45 6.853,6 12,6 Z M12,7 C8.003,7 4.207,10.853 3.166,12 C4.207,13.147 8.002,17 12,17 C15.998,17 19.793,13.147 20.834,12 C19.793,10.853 15.997,7 12,7 Z M12,9 C13.654,9 15,10.346 15,12 C15,13.654 13.654,15 12,15 C10.346,15 9,13.654 9,12 C9,10.346 10.346,9 12,9 Z M12,10 C10.897,10 10,10.897 10,12 C10,13.103 10.897,14 12,14 C13.103,14 14,13.103 14,12 C14,10.897 13.103,10 12,10 Z"/>
  </g>
</svg>
