<svg xmlns="http://www.w3.org/2000/svg" width="14" height="20" viewBox="0 0 14 15" fill="current">
  <path opacity="0.25" d="M10.0625 10.125H8.375C8.09886 10.125 7.875 10.3489 7.875 10.625V11.375C7.875 11.6511 8.09886 11.875 8.375 11.875H10.0625V12.8554C10.0625 13.3008 10.6011 13.5239 10.9161 13.2089L12.7714 11.3536C12.9667 11.1583 12.9667 10.8417 12.7714 10.6464L10.9161 8.79105C10.6011 8.47607 10.0625 8.69915 10.0625 9.14461V10.125Z" />
  <path d="M10.0625 2.14461V3.125H6.75C5.92157 3.125 5.25 3.79657 5.25 4.625V9.625C5.25 9.90114 5.02614 10.125 4.75 10.125H1.8125C1.53636 10.125 1.3125 10.3489 1.3125 10.625V11.375C1.3125 11.6511 1.53636 11.875 1.8125 11.875H5.5C6.32843 11.875 7 11.2034 7 10.375V5.375C7 5.09886 7.22386 4.875 7.5 4.875H10.0625V5.85539C10.0625 6.30085 10.6011 6.52393 10.9161 6.20895L12.7714 4.35355C12.9667 4.15829 12.9667 3.84171 12.7714 3.64645L10.9161 1.79105C10.6011 1.47607 10.0625 1.69915 10.0625 2.14461Z" />
  <rect opacity="0.25" x="1.3125" y="3.125" width="3.0625" height="1.75" rx="0.5" />
</svg>