<svg width="48" height="48" viewBox="0 0 48 48" fill="none" xmlns="http://www.w3.org/2000/svg">
<path d="M5.25 26.5C4.5625 26.5 4 27.0625 4 27.75V30.25C4 30.9375 4.5625 31.5 5.25 31.5H14V26.5H5.25ZM43.4531 12.2031L35.8047 4.54688C35.4531 4.19531 34.9766 4 34.4766 4H34V14H44V13.5234C44 13.0312 43.8047 12.5547 43.4531 12.2031ZM31.5 14.625V4H15.875C14.8359 4 14 4.83594 14 5.875V26.5H24V21.4062C24 20.2891 25.3516 19.7344 26.1406 20.5234L33.6094 28.0625C34.125 28.5859 34.125 29.4219 33.6094 29.9375L26.1328 37.4688C25.3437 38.2578 23.9922 37.7031 23.9922 36.5859V31.5H14V42.125C14 43.1641 14.8359 44 15.875 44H42.125C43.1641 44 44 43.1641 44 42.125V16.5H33.375C32.3438 16.5 31.5 15.6562 31.5 14.625Z" fill="#E5E5E9"/>
</svg>
