<svg width="50" height="20" viewBox="0 0 50 20" fill="none" xmlns="http://www.w3.org/2000/svg">
<rect width="50" height="20" rx="10" fill="#E9EEF2"/>
<path fill-rule="evenodd" clip-rule="evenodd" d="M12.8133 7.86L9.95335 10.7267L8.85335 9.62667C8.69042 9.43642 8.4346 9.35354 8.19107 9.41213C7.94754 9.47071 7.75739 9.66085 7.69881 9.90439C7.64023 10.1479 7.7231 10.4037 7.91335 10.5667L9.48001 12.14C9.60583 12.2648 9.77615 12.3344 9.95335 12.3333C10.1282 12.3326 10.2958 12.2632 10.42 12.14L13.7533 8.80667C13.8796 8.68149 13.9505 8.51109 13.9505 8.33333C13.9505 8.15557 13.8796 7.98518 13.7533 7.86C13.4933 7.60152 13.0734 7.60152 12.8133 7.86V7.86Z" fill="#4E5F6D"/>
<path d="M20.0128 14V5.63636H25.0277V6.5348H21.0256V9.3608H24.652V10.2592H21.0256V14H20.0128ZM27.7751 5.63636V14H26.7623V5.63636H27.7751ZM29.8058 14V5.63636H32.6317C33.2879 5.63636 33.8242 5.75479 34.2408 5.99165C34.66 6.22579 34.9704 6.54297 35.1719 6.94318C35.3733 7.34339 35.4741 7.78989 35.4741 8.28267C35.4741 8.77545 35.3733 9.22331 35.1719 9.62624C34.9731 10.0292 34.6655 10.3504 34.2489 10.59C33.8324 10.8269 33.2988 10.9453 32.6481 10.9453H30.6225V10.0469H32.6154C33.0646 10.0469 33.4254 9.96928 33.6976 9.8141C33.9699 9.65891 34.1673 9.44928 34.2898 9.18519C34.415 8.91838 34.4776 8.61754 34.4776 8.28267C34.4776 7.9478 34.415 7.64832 34.2898 7.38423C34.1673 7.12015 33.9685 6.91323 33.6935 6.76349C33.4186 6.61103 33.0537 6.5348 32.5991 6.5348H30.8185V14H29.8058ZM41.6794 7.72727C41.6304 7.31345 41.4317 6.99219 41.0832 6.76349C40.7347 6.5348 40.3073 6.42045 39.8009 6.42045C39.4306 6.42045 39.1066 6.48035 38.8289 6.60014C38.5539 6.71993 38.3389 6.88465 38.1837 7.09428C38.0312 7.30392 37.955 7.54214 37.955 7.80895C37.955 8.0322 38.0081 8.22414 38.1143 8.38477C38.2232 8.54267 38.362 8.67472 38.5308 8.78089C38.6996 8.88435 38.8766 8.97011 39.0617 9.03817C39.2468 9.10352 39.417 9.15661 39.5722 9.19744L40.4216 9.42614C40.6394 9.48331 40.8817 9.56226 41.1485 9.663C41.4181 9.76373 41.6753 9.90122 41.9204 10.0755C42.1681 10.247 42.3723 10.4675 42.5329 10.737C42.6936 11.0066 42.7739 11.3374 42.7739 11.7294C42.7739 12.1813 42.6555 12.5897 42.4186 12.9545C42.1845 13.3194 41.8414 13.6093 41.3895 13.8244C40.9403 14.0395 40.3944 14.147 39.7519 14.147C39.1529 14.147 38.6343 14.0504 38.1959 13.8571C37.7603 13.6638 37.4173 13.3942 37.1668 13.0485C36.9191 12.7027 36.7789 12.3011 36.7462 11.8438H37.7916C37.8189 12.1596 37.925 12.4209 38.1102 12.6278C38.298 12.832 38.5349 12.9845 38.8208 13.0852C39.1093 13.1832 39.4197 13.2322 39.7519 13.2322C40.1385 13.2322 40.4856 13.1696 40.7932 13.0444C41.1009 12.9164 41.3445 12.7395 41.5242 12.5135C41.7039 12.2848 41.7938 12.018 41.7938 11.7131C41.7938 11.4354 41.7162 11.2094 41.561 11.0352C41.4058 10.8609 41.2016 10.7193 40.9484 10.6104C40.6952 10.5015 40.4216 10.4062 40.1276 10.3246L39.0985 10.0305C38.445 9.84268 37.9278 9.57451 37.5466 9.22603C37.1655 8.87754 36.9749 8.42152 36.9749 7.85795C36.9749 7.38968 37.1015 6.9813 37.3547 6.63281C37.6106 6.2816 37.9536 6.00935 38.3838 5.81605C38.8167 5.62003 39.2999 5.52202 39.8335 5.52202C40.3726 5.52202 40.8518 5.61867 41.271 5.81197C41.6903 6.00254 42.0225 6.26391 42.2675 6.59606C42.5152 6.92821 42.6459 7.30528 42.6595 7.72727H41.6794Z" fill="#4E5F6D"/>
</svg>
