<svg width="16" height="17" viewBox="0 0 16 17" fill="none" xmlns="http://www.w3.org/2000/svg">
<path d="M13.7472 10.6934C13.7472 10.88 13.5872 10.96 13.4006 11.04C12.6539 11.36 11.8539 11.6534 11.0006 11.6534C9.80057 11.6534 9.24057 10.9067 7.80057 10.9067C6.76057 10.9067 5.66724 11.28 4.78724 11.68C4.73391 11.7067 4.68057 11.7067 4.62724 11.7334V13.76C4.62724 14.3175 4.2074 14.6667 3.74724 14.6667C3.24057 14.6667 2.84057 14.2667 2.84057 13.76V4.00004C2.49391 3.73337 2.25391 3.30671 2.25391 2.82671C2.25391 2.00004 2.92057 1.33337 3.74724 1.33337C4.57391 1.33337 5.24057 2.00004 5.24057 2.82671C5.24057 3.30671 5.02724 3.73337 4.65391 4.00004V4.82671C4.7613 4.79093 6.18432 4.08004 7.64057 4.08004C9.34031 4.08004 10.1842 4.80004 10.9472 4.80004C11.9606 4.80004 13.0806 4.08004 13.3472 4.08004C13.5606 4.08004 13.7472 4.24004 13.7472 4.42671V10.6934Z" fill="#4E5F6D"/>
</svg>
