<svg width="16" height="17" viewBox="0 0 16 17" fill="none" xmlns="http://www.w3.org/2000/svg">
<path d="M10.3324 4.40547C8.93692 4.40547 7.7844 3.49967 6.02989 3.49967C5.38002 3.49967 4.79789 3.61383 4.25788 3.81251C4.33272 3.61706 4.36457 3.40778 4.35127 3.19891C4.30512 2.45839 3.69807 1.8644 2.95671 1.83425C2.12356 1.80034 1.43749 2.46571 1.43749 3.29133C1.43749 3.7868 1.68481 4.22428 2.06249 4.48782V14.5413C2.06249 14.8865 2.34231 15.1663 2.68749 15.1663H3.10416C3.44934 15.1663 3.72916 14.8865 3.72916 14.5413V12.083C4.46643 11.7688 5.38494 11.5069 6.70924 11.5069C8.10476 11.5069 9.25726 12.4127 11.0118 12.4127C12.2662 12.4127 13.2687 11.9884 14.202 11.3487C14.4281 11.1937 14.5625 10.9364 14.5625 10.6623V4.33157C14.5625 3.72238 13.9305 3.31933 13.378 3.57594C12.4838 3.99126 11.387 4.40547 10.3324 4.40547Z" fill="#EF5824"/>
</svg>