<svg width="19" height="18" viewBox="0 0 19 18" fill="none" xmlns="http://www.w3.org/2000/svg">
<path fill-rule="evenodd" clip-rule="evenodd" d="M10.0286 1.50058L10.1236 1.5115C10.317 1.54825 10.4598 1.66711 10.4925 1.81132L10.4996 1.87451V7.4997H15.0001C15.1761 7.4997 15.3402 7.56945 15.4302 7.68345C15.5022 7.77406 15.5185 7.8829 15.4791 7.98195L15.4392 8.05397L9.43849 16.3042C9.34948 16.4265 9.17946 16.5 8.99944 16.5C8.95844 16.5 8.91643 16.4963 8.87543 16.488C8.68203 16.4512 8.53917 16.3324 8.50648 16.1882L8.49939 16.125V10.4998H3.99888C3.82286 10.4998 3.65885 10.43 3.56984 10.316C3.49783 10.2254 3.48151 10.1166 3.52087 10.0175L3.56083 9.94553L9.56151 1.69525C9.65495 1.56668 9.83876 1.49265 10.0286 1.50058Z" fill="#2B59C3"/>
</svg>
