<svg width="24" height="24" viewBox="0 0 24 24" fill="none" xmlns="http://www.w3.org/2000/svg">
<path fill-rule="evenodd" clip-rule="evenodd" d="M12.7047 2.00077L12.8314 2.01533C13.0893 2.06433 13.2798 2.22282 13.3234 2.41509L13.3328 2.49934V9.9996H19.3335C19.5682 9.9996 19.7869 10.0926 19.9069 10.2446C20.0029 10.3654 20.0247 10.5105 19.9722 10.6426L19.9189 10.7386L11.918 21.739C11.7993 21.902 11.5726 22 11.3326 22C11.2779 22 11.2219 21.995 11.1672 21.984C10.9094 21.935 10.7189 21.7765 10.6753 21.5842L10.6659 21.5V13.9997H4.66518C4.43049 13.9997 4.21179 13.9067 4.09311 13.7547C3.9971 13.6339 3.97534 13.4888 4.02783 13.3567L4.08111 13.2607L12.082 2.26034C12.2066 2.0889 12.4517 1.9902 12.7047 2.00077ZM12.332 3.615L5.507 12.999L11.6659 12.9997L11.665 20.386L18.492 10.999L12.3328 10.9996L12.332 3.615Z" fill="#4E5F6D"/>
</svg>
