<svg width="115" height="16" viewBox="0 0 115 16" fill="none" xmlns="http://www.w3.org/2000/svg">
<path d="M0 8L8 8" stroke="#7879F1" stroke-width="2"/>
<path d="M19.169 12.1225C18.6626 12.1225 18.2107 11.9932 17.8132 11.7346C17.4184 11.4732 17.1081 11.1016 16.8821 10.6197C16.6589 10.1351 16.5472 9.5538 16.5472 8.87589C16.5472 8.19798 16.6602 7.61808 16.8862 7.13619C17.1149 6.6543 17.428 6.28539 17.8255 6.02947C18.223 5.77356 18.6735 5.6456 19.1772 5.6456C19.5665 5.6456 19.8796 5.71094 20.1165 5.84162C20.3561 5.96958 20.5412 6.11932 20.6719 6.29084C20.8053 6.46236 20.9087 6.61346 20.9822 6.74414H21.0558V3.63636H22.2768V12H21.0843V11.024H20.9822C20.9087 11.1574 20.8026 11.3098 20.6637 11.4814C20.5276 11.6529 20.3397 11.8026 20.1001 11.9306C19.8606 12.0585 19.5502 12.1225 19.169 12.1225ZM19.4386 11.0811C19.7898 11.0811 20.0865 10.9886 20.3288 10.8034C20.5739 10.6156 20.759 10.3556 20.8842 10.0234C21.0122 9.69129 21.0762 9.30469 21.0762 8.86364C21.0762 8.42803 21.0136 8.04687 20.8883 7.72017C20.7631 7.39347 20.5793 7.13891 20.337 6.9565C20.0947 6.77409 19.7952 6.68288 19.4386 6.68288C19.071 6.68288 18.7647 6.77817 18.5197 6.96875C18.2747 7.15933 18.0895 7.41933 17.9643 7.74876C17.8418 8.07818 17.7805 8.44981 17.7805 8.86364C17.7805 9.28291 17.8432 9.65998 17.9684 9.99485C18.0936 10.3297 18.2788 10.5952 18.5238 10.7912C18.7715 10.9845 19.0765 11.0811 19.4386 11.0811ZM26.7231 12.1266C26.105 12.1266 25.5728 11.9946 25.1263 11.7305C24.6825 11.4637 24.3395 11.0893 24.0972 10.6074C23.8576 10.1228 23.7378 9.55516 23.7378 8.90447C23.7378 8.26196 23.8576 7.69567 24.0972 7.20561C24.3395 6.71555 24.6771 6.33304 25.11 6.05806C25.5456 5.78308 26.0547 5.6456 26.6373 5.6456C26.9912 5.6456 27.3343 5.70413 27.6664 5.8212C27.9986 5.93827 28.2967 6.12204 28.5608 6.37251C28.8249 6.62299 29.0331 6.94833 29.1856 7.34854C29.3381 7.74603 29.4143 8.22929 29.4143 8.7983V9.23118H24.428V8.31641H28.2177C28.2177 7.99515 28.1524 7.71064 28.0217 7.46289C27.891 7.21242 27.7073 7.01503 27.4704 6.87074C27.2363 6.72644 26.9613 6.6543 26.6455 6.6543C26.3024 6.6543 26.0029 6.7387 25.747 6.90749C25.4938 7.07357 25.2978 7.29137 25.159 7.5609C25.0228 7.82771 24.9548 8.11766 24.9548 8.43075V9.14542C24.9548 9.56469 25.0283 9.92134 25.1753 10.2154C25.325 10.5094 25.5333 10.734 25.8001 10.8892C26.0669 11.0417 26.3787 11.1179 26.7353 11.1179C26.9667 11.1179 27.1777 11.0852 27.3683 11.0199C27.5589 10.9518 27.7236 10.8511 27.8624 10.7177C28.0013 10.5843 28.1075 10.4196 28.181 10.2235L29.3367 10.4318C29.2441 10.7721 29.0781 11.0703 28.8385 11.3262C28.6016 11.5794 28.3035 11.7768 27.9441 11.9183C27.5875 12.0572 27.1804 12.1266 26.7231 12.1266ZM35.4695 7.2587L34.3628 7.45472C34.3166 7.31315 34.243 7.17839 34.1423 7.05043C34.0443 6.92247 33.9109 6.81765 33.7421 6.73597C33.5733 6.6543 33.3623 6.61346 33.1091 6.61346C32.7633 6.61346 32.4748 6.69105 32.2433 6.84624C32.0119 6.9987 31.8962 7.19608 31.8962 7.43839C31.8962 7.64802 31.9738 7.81682 32.129 7.94478C32.2842 8.07274 32.5347 8.17756 32.8804 8.25923L33.8769 8.48793C34.454 8.62133 34.8842 8.82688 35.1673 9.10458C35.4505 9.38228 35.5921 9.74302 35.5921 10.1868C35.5921 10.5625 35.4832 10.8974 35.2654 11.1914C35.0503 11.4827 34.7494 11.7114 34.3628 11.8775C33.979 12.0436 33.5338 12.1266 33.0274 12.1266C32.325 12.1266 31.7519 11.9769 31.3081 11.6774C30.8644 11.3752 30.5921 10.9464 30.4914 10.391L31.6716 10.2113C31.7451 10.5189 31.8962 10.7517 32.1249 10.9096C32.3536 11.0648 32.6517 11.1424 33.0193 11.1424C33.4195 11.1424 33.7394 11.0594 33.979 10.8933C34.2185 10.7245 34.3383 10.5189 34.3383 10.2766C34.3383 10.0806 34.2648 9.9159 34.1178 9.78249C33.9735 9.64909 33.7516 9.54835 33.4521 9.48029L32.3904 9.24751C31.805 9.11411 31.3721 8.90175 31.0917 8.61044C30.814 8.31913 30.6752 7.95022 30.6752 7.50373C30.6752 7.13346 30.7786 6.80948 30.9855 6.53178C31.1924 6.25408 31.4783 6.03764 31.8431 5.88246C32.2079 5.72455 32.6259 5.6456 33.0969 5.6456C33.7748 5.6456 34.3084 5.79261 34.6977 6.08665C35.087 6.37796 35.3443 6.76864 35.4695 7.2587ZM36.9346 12V5.72727H38.1557V12H36.9346ZM37.5513 4.75941C37.3389 4.75941 37.1565 4.68862 37.004 4.54705C36.8543 4.40276 36.7794 4.23124 36.7794 4.03249C36.7794 3.83102 36.8543 3.6595 37.004 3.51793C37.1565 3.37364 37.3389 3.30149 37.5513 3.30149C37.7636 3.30149 37.9447 3.37364 38.0944 3.51793C38.2469 3.6595 38.3231 3.83102 38.3231 4.03249C38.3231 4.23124 38.2469 4.40276 38.0944 4.54705C37.9447 4.68862 37.7636 4.75941 37.5513 4.75941ZM42.4284 14.483C41.9301 14.483 41.5013 14.4176 41.142 14.2869C40.7853 14.1563 40.494 13.9834 40.268 13.7683C40.0421 13.5532 39.8733 13.3177 39.7616 13.0618L40.8112 12.6289C40.8847 12.7487 40.9827 12.8753 41.1052 13.0087C41.2304 13.1448 41.3992 13.2605 41.6116 13.3558C41.8267 13.4511 42.103 13.4988 42.4406 13.4988C42.9034 13.4988 43.286 13.3858 43.5882 13.1598C43.8904 12.9366 44.0415 12.5799 44.0415 12.0898V10.8565H43.9639C43.8904 10.9899 43.7842 11.1383 43.6453 11.3017C43.5092 11.465 43.3213 11.6066 43.0818 11.7264C42.8422 11.8462 42.5305 11.9061 42.1466 11.9061C41.6511 11.9061 41.2046 11.7904 40.8071 11.5589C40.4123 11.3248 40.0992 10.9804 39.8678 10.5257C39.6391 10.0684 39.5248 9.50616 39.5248 8.83913C39.5248 8.17211 39.6378 7.60038 39.8637 7.12393C40.0924 6.64749 40.4055 6.28267 40.803 6.02947C41.2005 5.77356 41.6511 5.6456 42.1547 5.6456C42.5441 5.6456 42.8585 5.71094 43.0981 5.84162C43.3377 5.96958 43.5242 6.11932 43.6576 6.29084C43.7937 6.46236 43.8985 6.61346 43.972 6.74414H44.0619V5.72727H45.2584V12.1388C45.2584 12.6779 45.1332 13.1203 44.8827 13.4661C44.6323 13.8118 44.2933 14.0678 43.8659 14.2338C43.4411 14.3999 42.962 14.483 42.4284 14.483ZM42.4161 10.8933C42.7673 10.8933 43.0641 10.8116 43.3064 10.6483C43.5514 10.4822 43.7365 10.2453 43.8618 9.93768C43.9897 9.62731 44.0537 9.25568 44.0537 8.8228C44.0537 8.4008 43.9911 8.02918 43.8659 7.70792C43.7406 7.38666 43.5568 7.13619 43.3145 6.9565C43.0722 6.77409 42.7728 6.68288 42.4161 6.68288C42.0486 6.68288 41.7423 6.77817 41.4972 6.96875C41.2522 7.1566 41.0671 7.41252 40.9419 7.73651C40.8193 8.06049 40.7581 8.42259 40.7581 8.8228C40.7581 9.2339 40.8207 9.59464 40.9459 9.90501C41.0712 10.2154 41.2563 10.4577 41.5013 10.6319C41.7491 10.8062 42.054 10.8933 42.4161 10.8933ZM48.1171 8.27557V12H46.896V5.72727H48.0681V6.74822H48.1457C48.29 6.41607 48.516 6.14927 48.8236 5.9478C49.134 5.74633 49.5247 5.6456 49.9956 5.6456C50.4231 5.6456 50.7974 5.73544 51.1187 5.91513C51.44 6.09209 51.6891 6.35618 51.866 6.70739C52.043 7.05859 52.1315 7.49284 52.1315 8.01012V12H50.9104V8.15714C50.9104 7.70247 50.792 7.34718 50.5551 7.09126C50.3183 6.83262 49.9929 6.7033 49.5791 6.7033C49.296 6.7033 49.0441 6.76456 48.8236 6.88707C48.6058 7.00959 48.4329 7.18928 48.305 7.42614C48.1797 7.66027 48.1171 7.94342 48.1171 8.27557ZM55.5945 12.1388C55.1971 12.1388 54.8377 12.0653 54.5164 11.9183C54.1952 11.7686 53.9406 11.5521 53.7528 11.269C53.5676 10.9859 53.4751 10.6387 53.4751 10.2276C53.4751 9.8737 53.5431 9.58239 53.6792 9.35369C53.8154 9.125 53.9991 8.94395 54.2306 8.81055C54.462 8.67714 54.7206 8.57641 55.0065 8.50835C55.2923 8.44028 55.5837 8.38855 55.8804 8.35316C56.2561 8.3096 56.5611 8.27421 56.7952 8.24698C57.0293 8.21703 57.1995 8.16939 57.3057 8.10405C57.4118 8.03871 57.4649 7.93253 57.4649 7.78551V7.75692C57.4649 7.40027 57.3642 7.12393 57.1627 6.92791C56.964 6.73189 56.6672 6.63388 56.2725 6.63388C55.8614 6.63388 55.5374 6.72508 55.3005 6.90749C55.0664 7.08718 54.9044 7.28729 54.8145 7.50781L53.667 7.24645C53.8031 6.86529 54.0019 6.55765 54.2632 6.32351C54.5273 6.08665 54.8309 5.91513 55.1739 5.80895C55.517 5.70005 55.8777 5.6456 56.2561 5.6456C56.5066 5.6456 56.772 5.67554 57.0525 5.73544C57.3356 5.79261 57.5997 5.89879 57.8447 6.05398C58.0925 6.20916 58.2953 6.43105 58.4532 6.71964C58.6111 7.0055 58.6901 7.37713 58.6901 7.83452V12H57.4976V11.1424H57.4486C57.3696 11.3003 57.2512 11.4555 57.0933 11.608C56.9354 11.7604 56.7326 11.887 56.4848 11.9877C56.2371 12.0885 55.9403 12.1388 55.5945 12.1388ZM55.86 11.1587C56.1976 11.1587 56.4862 11.092 56.7258 10.9586C56.9681 10.8252 57.1518 10.651 57.2771 10.4359C57.405 10.2181 57.469 9.98532 57.469 9.73757V8.92898C57.4255 8.97254 57.3411 9.01338 57.2158 9.05149C57.0933 9.08688 56.9531 9.11819 56.7952 9.14542C56.6373 9.16992 56.4835 9.19306 56.3337 9.21484C56.184 9.2339 56.0587 9.25024 55.958 9.26385C55.7211 9.2938 55.5047 9.34416 55.3087 9.41495C55.1154 9.48574 54.9602 9.58783 54.8431 9.72124C54.7288 9.85192 54.6716 10.0262 54.6716 10.244C54.6716 10.5462 54.7832 10.7749 55.0065 10.93C55.2297 11.0825 55.5142 11.1587 55.86 11.1587ZM63.2445 5.72727V6.70739H59.8182V5.72727H63.2445ZM60.7371 4.22443H61.9581V10.1582C61.9581 10.3951 61.9935 10.5734 62.0643 10.6932C62.1351 10.8103 62.2263 10.8906 62.3379 10.9341C62.4523 10.975 62.5762 10.9954 62.7096 10.9954C62.8076 10.9954 62.8933 10.9886 62.9668 10.975C63.0403 10.9614 63.0975 10.9505 63.1384 10.9423L63.3589 11.951C63.2881 11.9782 63.1874 12.0054 63.0567 12.0327C62.926 12.0626 62.7627 12.079 62.5666 12.0817C62.2454 12.0871 61.9459 12.0299 61.6682 11.9102C61.3905 11.7904 61.1659 11.6052 60.9944 11.3548C60.8228 11.1043 60.7371 10.7898 60.7371 10.4114V4.22443ZM67.2314 12.1266C66.6133 12.1266 66.0811 11.9946 65.6346 11.7305C65.1908 11.4637 64.8478 11.0893 64.6055 10.6074C64.3659 10.1228 64.2461 9.55516 64.2461 8.90447C64.2461 8.26196 64.3659 7.69567 64.6055 7.20561C64.8478 6.71555 65.1854 6.33304 65.6183 6.05806C66.0539 5.78308 66.563 5.6456 67.1456 5.6456C67.4995 5.6456 67.8426 5.70413 68.1747 5.8212C68.5069 5.93827 68.805 6.12204 69.0691 6.37251C69.3332 6.62299 69.5414 6.94833 69.6939 7.34854C69.8464 7.74603 69.9226 8.22929 69.9226 8.7983V9.23118H64.9363V8.31641H68.726C68.726 7.99515 68.6607 7.71064 68.53 7.46289C68.3993 7.21242 68.2156 7.01503 67.9787 6.87074C67.7446 6.72644 67.4696 6.6543 67.1538 6.6543C66.8107 6.6543 66.5112 6.7387 66.2553 6.90749C66.0021 7.07357 65.8061 7.29137 65.6673 7.5609C65.5311 7.82771 65.4631 8.11766 65.4631 8.43075V9.14542C65.4631 9.56469 65.5366 9.92134 65.6836 10.2154C65.8333 10.5094 66.0416 10.734 66.3084 10.8892C66.5752 11.0417 66.887 11.1179 67.2436 11.1179C67.475 11.1179 67.686 11.0852 67.8766 11.0199C68.0672 10.9518 68.2319 10.8511 68.3707 10.7177C68.5096 10.5843 68.6158 10.4196 68.6893 10.2235L69.845 10.4318C69.7524 10.7721 69.5864 11.0703 69.3468 11.3262C69.1099 11.5794 68.8118 11.7768 68.4524 11.9183C68.0958 12.0572 67.6887 12.1266 67.2314 12.1266ZM73.6256 12.1225C73.1192 12.1225 72.6672 11.9932 72.2698 11.7346C71.875 11.4732 71.5646 11.1016 71.3386 10.6197C71.1154 10.1351 71.0038 9.5538 71.0038 8.87589C71.0038 8.19798 71.1168 7.61808 71.3427 7.13619C71.5714 6.6543 71.8845 6.28539 72.282 6.02947C72.6795 5.77356 73.1301 5.6456 73.6337 5.6456C74.0231 5.6456 74.3362 5.71094 74.573 5.84162C74.8126 5.96958 74.9977 6.11932 75.1284 6.29084C75.2618 6.46236 75.3653 6.61346 75.4388 6.74414H75.5123V3.63636H76.7334V12H75.5409V11.024H75.4388C75.3653 11.1574 75.2591 11.3098 75.1203 11.4814C74.9841 11.6529 74.7963 11.8026 74.5567 11.9306C74.3171 12.0585 74.0067 12.1225 73.6256 12.1225ZM73.8951 11.0811C74.2463 11.0811 74.5431 10.9886 74.7854 10.8034C75.0304 10.6156 75.2155 10.3556 75.3408 10.0234C75.4687 9.69129 75.5327 9.30469 75.5327 8.86364C75.5327 8.42803 75.4701 8.04687 75.3449 7.72017C75.2196 7.39347 75.0359 7.13891 74.7935 6.9565C74.5512 6.77409 74.2518 6.68288 73.8951 6.68288C73.5276 6.68288 73.2213 6.77817 72.9763 6.96875C72.7312 7.15933 72.5461 7.41933 72.4209 7.74876C72.2983 8.07818 72.2371 8.44981 72.2371 8.86364C72.2371 9.28291 72.2997 9.65998 72.4249 9.99485C72.5502 10.3297 72.7353 10.5952 72.9803 10.7912C73.2281 10.9845 73.533 11.0811 73.8951 11.0811ZM83.345 12.1388C82.9475 12.1388 82.5882 12.0653 82.2669 11.9183C81.9457 11.7686 81.6911 11.5521 81.5032 11.269C81.3181 10.9859 81.2255 10.6387 81.2255 10.2276C81.2255 9.8737 81.2936 9.58239 81.4297 9.35369C81.5659 9.125 81.7496 8.94395 81.981 8.81055C82.2125 8.67714 82.4711 8.57641 82.757 8.50835C83.0428 8.44028 83.3341 8.38855 83.6309 8.35316C84.0066 8.3096 84.3115 8.27421 84.5457 8.24698C84.7798 8.21703 84.95 8.16939 85.0562 8.10405C85.1623 8.03871 85.2154 7.93253 85.2154 7.78551V7.75692C85.2154 7.40027 85.1147 7.12393 84.9132 6.92791C84.7145 6.73189 84.4177 6.63388 84.0229 6.63388C83.6118 6.63388 83.2879 6.72508 83.051 6.90749C82.8169 7.08718 82.6549 7.28729 82.565 7.50781L81.4175 7.24645C81.5536 6.86529 81.7524 6.55765 82.0137 6.32351C82.2778 6.08665 82.5814 5.91513 82.9244 5.80895C83.2674 5.70005 83.6282 5.6456 84.0066 5.6456C84.2571 5.6456 84.5225 5.67554 84.803 5.73544C85.0861 5.79261 85.3502 5.89879 85.5952 6.05398C85.843 6.20916 86.0458 6.43105 86.2037 6.71964C86.3616 7.0055 86.4406 7.37713 86.4406 7.83452V12H85.2481V11.1424H85.1991C85.1201 11.3003 85.0017 11.4555 84.8438 11.608C84.6859 11.7604 84.4831 11.887 84.2353 11.9877C83.9876 12.0885 83.6908 12.1388 83.345 12.1388ZM83.6105 11.1587C83.9481 11.1587 84.2367 11.092 84.4763 10.9586C84.7186 10.8252 84.9023 10.651 85.0276 10.4359C85.1555 10.2181 85.2195 9.98532 85.2195 9.73757V8.92898C85.1759 8.97254 85.0915 9.01338 84.9663 9.05149C84.8438 9.08688 84.7036 9.11819 84.5457 9.14542C84.3878 9.16992 84.2339 9.19306 84.0842 9.21484C83.9345 9.2339 83.8092 9.25024 83.7085 9.26385C83.4716 9.2938 83.2552 9.34416 83.0592 9.41495C82.8659 9.48574 82.7107 9.58783 82.5936 9.72124C82.4793 9.85192 82.4221 10.0262 82.4221 10.244C82.4221 10.5462 82.5337 10.7749 82.757 10.93C82.9802 11.0825 83.2647 11.1587 83.6105 11.1587ZM92.7674 7.2587L91.6607 7.45472C91.6144 7.31315 91.5409 7.17839 91.4402 7.05043C91.3422 6.92247 91.2087 6.81765 91.04 6.73597C90.8712 6.6543 90.6602 6.61346 90.407 6.61346C90.0612 6.61346 89.7726 6.69105 89.5412 6.84624C89.3098 6.9987 89.1941 7.19608 89.1941 7.43839C89.1941 7.64802 89.2717 7.81682 89.4268 7.94478C89.582 8.07274 89.8325 8.17756 90.1783 8.25923L91.1747 8.48793C91.7519 8.62133 92.1821 8.82688 92.4652 9.10458C92.7483 9.38228 92.8899 9.74302 92.8899 10.1868C92.8899 10.5625 92.781 10.8974 92.5632 11.1914C92.3481 11.4827 92.0473 11.7114 91.6607 11.8775C91.2768 12.0436 90.8317 12.1266 90.3253 12.1266C89.6229 12.1266 89.0498 11.9769 88.606 11.6774C88.1622 11.3752 87.89 10.9464 87.7892 10.391L88.9695 10.2113C89.043 10.5189 89.1941 10.7517 89.4228 10.9096C89.6515 11.0648 89.9496 11.1424 90.3171 11.1424C90.7173 11.1424 91.0372 11.0594 91.2768 10.8933C91.5164 10.7245 91.6362 10.5189 91.6362 10.2766C91.6362 10.0806 91.5627 9.9159 91.4157 9.78249C91.2714 9.64909 91.0495 9.54835 90.75 9.48029L89.6882 9.24751C89.1029 9.11411 88.67 8.90175 88.3896 8.61044C88.1119 8.31913 87.973 7.95022 87.973 7.50373C87.973 7.13346 88.0765 6.80948 88.2834 6.53178C88.4903 6.25408 88.7762 6.03764 89.141 5.88246C89.5058 5.72455 89.9237 5.6456 90.3947 5.6456C91.0726 5.6456 91.6062 5.79261 91.9956 6.08665C92.3849 6.37796 92.6422 6.76864 92.7674 7.2587Z" fill="#5D5FEF"/>
<path d="M114.707 8.70711C115.098 8.31658 115.098 7.68342 114.707 7.29289L108.343 0.928933C107.953 0.538408 107.319 0.538408 106.929 0.928933C106.538 1.31946 106.538 1.95262 106.929 2.34315L112.586 8L106.929 13.6569C106.538 14.0474 106.538 14.6805 106.929 15.0711C107.319 15.4616 107.953 15.4616 108.343 15.0711L114.707 8.70711ZM102 9L114 9L114 7L102 7L102 9Z" fill="#7879F1"/>
</svg>
