<svg width="32" height="32" viewBox="0 0 32 32" fill="none" xmlns="http://www.w3.org/2000/svg">
<path d="M20.9187 7.47405L17.652 1.78516H9.08162C8.31866 1.78516 7.60754 2.19256 7.23717 2.85923L0.303841 14.9407C-0.0739366 15.6 -0.0739366 16.4 0.303841 17.0666L2.94088 21.6666L6.20014 16.0074L11.1038 7.47405H20.9187Z" fill="#F8BB16"/>
<path d="M31.7185 14.9407L24.7852 2.85923C24.4 2.19997 23.6963 1.78516 22.9407 1.78516H17.6519L20.9185 7.47405L25.8222 16.0074L20.9185 24.5407H27.437L31.7185 17.0666C32.0889 16.4074 32.0889 15.6 31.7185 14.9407Z" fill="#EA4334"/>
<path d="M27.43 24.5333H11.0892L6.18553 16L2.92627 21.6593L7.22257 29.1407C7.60775 29.8 8.31145 30.2148 9.06701 30.2148H22.9263C23.6892 30.2148 24.4003 29.8074 24.7707 29.1407L27.43 24.5333Z" fill="#0074BC"/>
<path fill-rule="evenodd" clip-rule="evenodd" d="M11.0818 24.5335H20.9041L25.8226 16.0001L20.9041 7.4668H11.0893L6.18555 16.0001L11.0818 24.5335ZM11.7337 16.0075C11.7337 13.6446 13.6374 11.7409 16.0004 11.7409C18.3559 11.7409 20.267 13.6446 20.267 16.0075C20.267 18.3705 18.3633 20.2742 16.0004 20.2742C13.6374 20.2742 11.7337 18.3705 11.7337 16.0075Z" fill="#E2E3E4"/>
</svg>
