<svg width="16" height="16" viewBox="0 0 16 16" fill="none" xmlns="http://www.w3.org/2000/svg">
<path fill-rule="evenodd" clip-rule="evenodd" d="M7.9887 2.66406C8.16734 2.66406 8.33223 2.75179 8.43028 2.89457L8.46805 2.95904L9.8262 5.66243L12.8567 6.09644C13.0665 6.11406 13.2461 6.25137 13.3148 6.44678C13.361 6.61756 13.316 6.79787 13.1989 6.92774L10.9447 9.07174L11.4773 12.0418C11.5161 12.242 11.433 12.446 11.2642 12.5647C11.1729 12.6297 11.0628 12.6645 10.95 12.6641C10.8856 12.6643 10.822 12.6522 10.7627 12.6286L10.705 12.6013L7.9887 11.1999L5.26176 12.5961C5.08335 12.6889 4.86679 12.6748 4.70252 12.5595C4.55489 12.4557 4.47278 12.2864 4.48057 12.1116L4.48948 12.0366L5.02208 9.06651L2.82242 6.97491C2.68291 6.83822 2.63168 6.63707 2.68927 6.45201C2.74437 6.28611 2.87938 6.15978 3.04699 6.11199L3.12068 6.09644L6.15121 5.6572L7.50936 2.95904C7.59835 2.77864 7.78454 2.66406 7.9887 2.66406ZM9.38686 6.27298L7.98868 3.4894L6.59054 6.26716L3.51402 6.71273L5.74166 8.83079L5.19402 11.8807L7.98987 10.4504L10.7713 11.8861L10.2251 8.83602L12.4593 6.71273L9.38686 6.27298Z" fill="#4E5F6D"/>
</svg>
