<svg xmlns="http://www.w3.org/2000/svg" width="24" height="24" viewBox="0 0 24 24">
  <g fill="none" fill-rule="evenodd">
    <polygon points="0 0 24 0 24 24 0 24"/>
    <path fill="currentColor" d="M12,2 C14.6521649,2 17.195704,3.0535684 19.0710678,4.92893219 C20.9464316,6.80429597 22,9.3478351 22,12 C22,17.5228475 17.5228475,22 12,22 C6.4771525,22 2,17.5228475 2,12 C2,6.4771525 6.4771525,2 12,2 Z M12,3 C7.02943725,3 3,7.02943725 3,12 C3,16.9705627 7.02943725,21 12,21 C16.9705627,21 21,16.9705627 21,12 C21,9.61305159 20.0517884,7.32386638 18.363961,5.63603897 C16.6761336,3.94821156 14.3869484,3 12,3 Z M12,10 C12.5522847,10 13,10.4477153 13,11 L13,16 C13,16.5522847 12.5522847,17 12,17 C11.4477153,17 11,16.5522847 11,16 L11,11 C11,10.4477153 11.4477153,10 12,10 Z M12,7 C12.5522847,7 13,7.44771525 13,8 C13,8.55228475 12.5522847,9 12,9 C11.4477153,9 11,8.55228475 11,8 C11,7.44771525 11.4477153,7 12,7 Z"/>
  </g>
</svg>
