<svg width="18" height="18" viewBox="0 0 18 18" fill="none" xmlns="http://www.w3.org/2000/svg">
<path d="M9 3.75C10.3924 3.75 11.7277 4.30312 12.7123 5.28769C13.6969 6.27226 14.25 7.60761 14.25 9C14.25 11.8995 11.8995 14.25 9 14.25C6.10051 14.25 3.75 11.8995 3.75 9C3.75 6.10051 6.10051 3.75 9 3.75Z" fill="#97A5B0"/>
<path fill-rule="evenodd" clip-rule="evenodd" d="M9 6C8.58579 6 8.25 6.33579 8.25 6.75C8.25 7.16421 8.58579 7.5 9 7.5C9.41421 7.5 9.75 7.16421 9.75 6.75C9.75 6.33579 9.41421 6 9 6ZM9 8.25C8.58579 8.25 8.25 8.58579 8.25 9V11.25C8.25 11.6642 8.58579 12 9 12C9.41421 12 9.75 11.6642 9.75 11.25V9C9.75 8.58579 9.41421 8.25 9 8.25Z" fill="white"/>
</svg>
