<svg width="14" height="14" viewBox="0 0 14 14" fill="none" xmlns="http://www.w3.org/2000/svg">
<path opacity="0.5" fill-rule="evenodd" clip-rule="evenodd" d="M1.16699 6.99984C1.16699 3.77818 3.77866 1.1665 7.00033 1.1665C8.54742 1.1665 10.0312 1.78109 11.1251 2.87505C12.2191 3.96901 12.8337 5.45274 12.8337 6.99984C12.8337 10.2215 10.222 12.8332 7.00033 12.8332C3.77866 12.8332 1.16699 10.2215 1.16699 6.99984ZM6.41699 4.6665C6.41699 4.34434 6.67816 4.08317 7.00033 4.08317C7.32249 4.08317 7.58366 4.34434 7.58366 4.6665C7.58366 4.98867 7.32249 5.24984 7.00033 5.24984C6.67816 5.24984 6.41699 4.98867 6.41699 4.6665ZM6.41699 6.4165C6.41699 6.09434 6.67816 5.83317 7.00033 5.83317C7.32249 5.83317 7.58366 6.09434 7.58366 6.4165V9.33317C7.58366 9.65534 7.32249 9.9165 7.00033 9.9165C6.67816 9.9165 6.41699 9.65534 6.41699 9.33317V6.4165Z" fill="#67666C"/>
</svg>
