<svg width="32" height="32" viewBox="0 0 32 32" fill="none" xmlns="http://www.w3.org/2000/svg">
<path d="M17.2497 16.1393C17.3177 16.2267 17.3463 16.3527 17.327 16.4693L17.143 17.2747C17.1237 17.4007 17.0363 17.498 16.9303 17.556L16.185 17.9053C16.0783 17.9633 15.943 17.9633 15.8363 17.9053L15.091 17.556C14.9843 17.498 14.8977 17.4007 14.8783 17.2747L14.6943 16.4693C14.675 16.3527 14.7043 16.2267 14.7717 16.1393L15.2943 15.4893C15.3617 15.392 15.4783 15.334 15.6037 15.334H16.417C16.543 15.334 16.659 15.392 16.727 15.4893L17.2497 16.1393Z" fill="#0277BD"/>
<path d="M16.8742 10.2202L16.9062 10.4702C16.9956 11.1615 17.0596 11.8602 17.1236 12.5515C17.1489 12.8268 17.1749 13.0962 17.1936 13.3715C17.2062 13.5828 17.4429 13.6915 17.6156 13.5702C17.8329 13.4102 18.0569 13.2502 18.2869 13.0962C18.8622 12.7055 19.4309 12.3148 20.0189 11.9368L20.2362 11.8022C19.3222 10.9695 18.1589 10.3995 16.8742 10.2202ZM16.8742 10.2202L16.9062 10.4702C16.9956 11.1615 17.0596 11.8602 17.1236 12.5515C17.1489 12.8268 17.1749 13.0962 17.1936 13.3715C17.2062 13.5828 17.4429 13.6915 17.6156 13.5702C17.8329 13.4102 18.0569 13.2502 18.2869 13.0962C18.8622 12.7055 19.4309 12.3148 20.0189 11.9368L20.2362 11.8022C19.3222 10.9695 18.1589 10.3995 16.8742 10.2202ZM16.8742 10.2202L16.9062 10.4702C16.9956 11.1615 17.0596 11.8602 17.1236 12.5515C17.1489 12.8268 17.1749 13.0962 17.1936 13.3715C17.2062 13.5828 17.4429 13.6915 17.6156 13.5702C17.8329 13.4102 18.0569 13.2502 18.2869 13.0962C18.8622 12.7055 19.4309 12.3148 20.0189 11.9368L20.2362 11.8022C19.3222 10.9695 18.1589 10.3995 16.8742 10.2202ZM16.8742 10.2202L16.9062 10.4702C16.9956 11.1615 17.0596 11.8602 17.1236 12.5515C17.1489 12.8268 17.1749 13.0962 17.1936 13.3715C17.2062 13.5828 17.4429 13.6915 17.6156 13.5702C17.8329 13.4102 18.0569 13.2502 18.2869 13.0962C18.8622 12.7055 19.4309 12.3148 20.0189 11.9368L20.2362 11.8022C19.3222 10.9695 18.1589 10.3995 16.8742 10.2202ZM16.8742 10.2202L16.9062 10.4702C16.9956 11.1615 17.0596 11.8602 17.1236 12.5515C17.1489 12.8268 17.1749 13.0962 17.1936 13.3715C17.2062 13.5828 17.4429 13.6915 17.6156 13.5702C17.8329 13.4102 18.0569 13.2502 18.2869 13.0962C18.8622 12.7055 19.4309 12.3148 20.0189 11.9368L20.2362 11.8022C19.3222 10.9695 18.1589 10.3995 16.8742 10.2202ZM21.4122 13.2235L21.2396 13.4095C20.7602 13.9222 20.2682 14.4148 19.7756 14.9082C19.4622 15.2282 19.1236 15.5355 18.7976 15.8495C19.2322 15.9582 19.6669 16.0735 20.1016 16.2015C20.7729 16.3935 21.4376 16.5795 22.1022 16.7968L22.3389 16.8735C22.3456 16.7708 22.3456 16.6622 22.3456 16.5535C22.3456 15.3308 22.0069 14.1908 21.4122 13.2235ZM21.4122 13.2235L21.2396 13.4095C20.7602 13.9222 20.2682 14.4148 19.7756 14.9082C19.4622 15.2282 19.1236 15.5355 18.7976 15.8495C19.2322 15.9582 19.6669 16.0735 20.1016 16.2015C20.7729 16.3935 21.4376 16.5795 22.1022 16.7968L22.3389 16.8735C22.3456 16.7708 22.3456 16.6622 22.3456 16.5535C22.3456 15.3308 22.0069 14.1908 21.4122 13.2235ZM16.8742 10.2202L16.9062 10.4702C16.9956 11.1615 17.0596 11.8602 17.1236 12.5515C17.1489 12.8268 17.1749 13.0962 17.1936 13.3715C17.2062 13.5828 17.4429 13.6915 17.6156 13.5702C17.8329 13.4102 18.0569 13.2502 18.2869 13.0962C18.8622 12.7055 19.4309 12.3148 20.0189 11.9368L20.2362 11.8022C19.3222 10.9695 18.1589 10.3995 16.8742 10.2202ZM16.8742 10.2202L16.9062 10.4702C16.9956 11.1615 17.0596 11.8602 17.1236 12.5515C17.1489 12.8268 17.1749 13.0962 17.1936 13.3715C17.2062 13.5828 17.4429 13.6915 17.6156 13.5702C17.8329 13.4102 18.0569 13.2502 18.2869 13.0962C18.8622 12.7055 19.4309 12.3148 20.0189 11.9368L20.2362 11.8022C19.3222 10.9695 18.1589 10.3995 16.8742 10.2202ZM21.7509 18.6802C21.0542 18.6355 20.3636 18.5715 19.6669 18.5075C19.3662 18.4822 19.0722 18.4502 18.7722 18.4175C18.5802 18.3922 18.4269 18.5842 18.4976 18.7695C18.6062 19.0575 18.7082 19.3462 18.8109 19.6408C19.0349 20.2942 19.2649 20.9535 19.4756 21.6195L19.5456 21.8502C20.6576 21.0882 21.5209 19.9868 21.9742 18.6928L21.7509 18.6802ZM21.4122 13.2235L21.2396 13.4095C20.7602 13.9222 20.2682 14.4148 19.7756 14.9082C19.4622 15.2282 19.1236 15.5355 18.7976 15.8495C19.2322 15.9582 19.6669 16.0735 20.1016 16.2015C20.7729 16.3935 21.4376 16.5795 22.1022 16.7968L22.3389 16.8735C22.3456 16.7708 22.3456 16.6622 22.3456 16.5535C22.3456 15.3308 22.0069 14.1908 21.4122 13.2235ZM21.4122 13.2235L21.2396 13.4095C20.7602 13.9222 20.2682 14.4148 19.7756 14.9082C19.4622 15.2282 19.1236 15.5355 18.7976 15.8495C19.2322 15.9582 19.6669 16.0735 20.1016 16.2015C20.7729 16.3935 21.4376 16.5795 22.1022 16.7968L22.3389 16.8735C22.3456 16.7708 22.3456 16.6622 22.3456 16.5535C22.3456 15.3308 22.0069 14.1908 21.4122 13.2235ZM21.7509 18.6802C21.0542 18.6355 20.3636 18.5715 19.6669 18.5075C19.3662 18.4822 19.0722 18.4502 18.7722 18.4175C18.5802 18.3922 18.4269 18.5842 18.4976 18.7695C18.6062 19.0575 18.7082 19.3462 18.8109 19.6408C19.0349 20.2942 19.2649 20.9535 19.4756 21.6195L19.5456 21.8502C20.6576 21.0882 21.5209 19.9868 21.9742 18.6928L21.7509 18.6802ZM16.8742 10.2202L16.9062 10.4702C16.9956 11.1615 17.0596 11.8602 17.1236 12.5515C17.1489 12.8268 17.1749 13.0962 17.1936 13.3715C17.2062 13.5828 17.4429 13.6915 17.6156 13.5702C17.8329 13.4102 18.0569 13.2502 18.2869 13.0962C18.8622 12.7055 19.4309 12.3148 20.0189 11.9368L20.2362 11.8022C19.3222 10.9695 18.1589 10.3995 16.8742 10.2202ZM16.8742 10.2202L16.9062 10.4702C16.9956 11.1615 17.0596 11.8602 17.1236 12.5515C17.1489 12.8268 17.1749 13.0962 17.1936 13.3715C17.2062 13.5828 17.4429 13.6915 17.6156 13.5702C17.8329 13.4102 18.0569 13.2502 18.2869 13.0962C18.8622 12.7055 19.4309 12.3148 20.0189 11.9368L20.2362 11.8022C19.3222 10.9695 18.1589 10.3995 16.8742 10.2202ZM21.7509 18.6802C21.0542 18.6355 20.3636 18.5715 19.6669 18.5075C19.3662 18.4822 19.0722 18.4502 18.7722 18.4175C18.5802 18.3922 18.4269 18.5842 18.4976 18.7695C18.6062 19.0575 18.7082 19.3462 18.8109 19.6408C19.0349 20.2942 19.2649 20.9535 19.4756 21.6195L19.5456 21.8502C20.6576 21.0882 21.5209 19.9868 21.9742 18.6928L21.7509 18.6802ZM21.4122 13.2235L21.2396 13.4095C20.7602 13.9222 20.2682 14.4148 19.7756 14.9082C19.4622 15.2282 19.1236 15.5355 18.7976 15.8495C19.2322 15.9582 19.6669 16.0735 20.1016 16.2015C20.7729 16.3935 21.4376 16.5795 22.1022 16.7968L22.3389 16.8735C22.3456 16.7708 22.3456 16.6622 22.3456 16.5535C22.3456 15.3308 22.0069 14.1908 21.4122 13.2235ZM21.4122 13.2235L21.2396 13.4095C20.7602 13.9222 20.2682 14.4148 19.7756 14.9082C19.4622 15.2282 19.1236 15.5355 18.7976 15.8495C19.2322 15.9582 19.6669 16.0735 20.1016 16.2015C20.7729 16.3935 21.4376 16.5795 22.1022 16.7968L22.3389 16.8735C22.3456 16.7708 22.3456 16.6622 22.3456 16.5535C22.3456 15.3308 22.0069 14.1908 21.4122 13.2235ZM21.7509 18.6802C21.0542 18.6355 20.3636 18.5715 19.6669 18.5075C19.3662 18.4822 19.0722 18.4502 18.7722 18.4175C18.5802 18.3922 18.4269 18.5842 18.4976 18.7695C18.6062 19.0575 18.7082 19.3462 18.8109 19.6408C19.0349 20.2942 19.2649 20.9535 19.4756 21.6195L19.5456 21.8502C20.6576 21.0882 21.5209 19.9868 21.9742 18.6928L21.7509 18.6802ZM16.8742 10.2202L16.9062 10.4702C16.9956 11.1615 17.0596 11.8602 17.1236 12.5515C17.1489 12.8268 17.1749 13.0962 17.1936 13.3715C17.2062 13.5828 17.4429 13.6915 17.6156 13.5702C17.8329 13.4102 18.0569 13.2502 18.2869 13.0962C18.8622 12.7055 19.4309 12.3148 20.0189 11.9368L20.2362 11.8022C19.3222 10.9695 18.1589 10.3995 16.8742 10.2202ZM17.7369 22.4135C17.3662 21.8242 17.0209 21.2162 16.6756 20.6142C16.5222 20.3515 16.3749 20.0888 16.2342 19.8202C16.1322 19.6342 15.8696 19.6342 15.7676 19.8202C15.6202 20.0955 15.4669 20.3648 15.3076 20.6268C14.9562 21.2288 14.6042 21.8308 14.2336 22.4202L14.0736 22.6762C14.6682 22.8622 15.3009 22.9582 15.9529 22.9582C16.6242 22.9582 17.2762 22.8555 17.8836 22.6568L17.7369 22.4135ZM16.8742 10.2202L16.9062 10.4702C16.9956 11.1615 17.0596 11.8602 17.1236 12.5515C17.1489 12.8268 17.1749 13.0962 17.1936 13.3715C17.2062 13.5828 17.4429 13.6915 17.6156 13.5702C17.8329 13.4102 18.0569 13.2502 18.2869 13.0962C18.8622 12.7055 19.4309 12.3148 20.0189 11.9368L20.2362 11.8022C19.3222 10.9695 18.1589 10.3995 16.8742 10.2202ZM21.7509 18.6802C21.0542 18.6355 20.3636 18.5715 19.6669 18.5075C19.3662 18.4822 19.0722 18.4502 18.7722 18.4175C18.5802 18.3922 18.4269 18.5842 18.4976 18.7695C18.6062 19.0575 18.7082 19.3462 18.8109 19.6408C19.0349 20.2942 19.2649 20.9535 19.4756 21.6195L19.5456 21.8502C20.6576 21.0882 21.5209 19.9868 21.9742 18.6928L21.7509 18.6802ZM21.4122 13.2235L21.2396 13.4095C20.7602 13.9222 20.2682 14.4148 19.7756 14.9082C19.4622 15.2282 19.1236 15.5355 18.7976 15.8495C19.2322 15.9582 19.6669 16.0735 20.1016 16.2015C20.7729 16.3935 21.4376 16.5795 22.1022 16.7968L22.3389 16.8735C22.3456 16.7708 22.3456 16.6622 22.3456 16.5535C22.3456 15.3308 22.0069 14.1908 21.4122 13.2235ZM21.4122 13.2235L21.2396 13.4095C20.7602 13.9222 20.2682 14.4148 19.7756 14.9082C19.4622 15.2282 19.1236 15.5355 18.7976 15.8495C19.2322 15.9582 19.6669 16.0735 20.1016 16.2015C20.7729 16.3935 21.4376 16.5795 22.1022 16.7968L22.3389 16.8735C22.3456 16.7708 22.3456 16.6622 22.3456 16.5535C22.3456 15.3308 22.0069 14.1908 21.4122 13.2235ZM21.7509 18.6802C21.0542 18.6355 20.3636 18.5715 19.6669 18.5075C19.3662 18.4822 19.0722 18.4502 18.7722 18.4175C18.5802 18.3922 18.4269 18.5842 18.4976 18.7695C18.6062 19.0575 18.7082 19.3462 18.8109 19.6408C19.0349 20.2942 19.2649 20.9535 19.4756 21.6195L19.5456 21.8502C20.6576 21.0882 21.5209 19.9868 21.9742 18.6928L21.7509 18.6802ZM16.8742 10.2202L16.9062 10.4702C16.9956 11.1615 17.0596 11.8602 17.1236 12.5515C17.1489 12.8268 17.1749 13.0962 17.1936 13.3715C17.2062 13.5828 17.4429 13.6915 17.6156 13.5702C17.8329 13.4102 18.0569 13.2502 18.2869 13.0962C18.8622 12.7055 19.4309 12.3148 20.0189 11.9368L20.2362 11.8022C19.3222 10.9695 18.1589 10.3995 16.8742 10.2202ZM17.7369 22.4135C17.3662 21.8242 17.0209 21.2162 16.6756 20.6142C16.5222 20.3515 16.3749 20.0888 16.2342 19.8202C16.1322 19.6342 15.8696 19.6342 15.7676 19.8202C15.6202 20.0955 15.4669 20.3648 15.3076 20.6268C14.9562 21.2288 14.6042 21.8308 14.2336 22.4202L14.0736 22.6762C14.6682 22.8622 15.3009 22.9582 15.9529 22.9582C16.6242 22.9582 17.2762 22.8555 17.8836 22.6568L17.7369 22.4135ZM13.2496 18.3282C12.9489 18.3668 12.6549 18.4115 12.3549 18.4435C11.6582 18.5268 10.9742 18.6102 10.2776 18.6742L9.93222 18.7062C10.3989 20.0128 11.2809 21.1268 12.4122 21.8828L12.5016 21.6135C12.7189 20.9475 12.9489 20.2942 13.1856 19.6348C13.2942 19.3148 13.4096 19.0008 13.5309 18.6808C13.6076 18.4942 13.4476 18.2962 13.2496 18.3282ZM17.7369 22.4135C17.3662 21.8242 17.0209 21.2162 16.6756 20.6142C16.5222 20.3515 16.3749 20.0888 16.2342 19.8202C16.1322 19.6342 15.8696 19.6342 15.7676 19.8202C15.6202 20.0955 15.4669 20.3648 15.3076 20.6268C14.9562 21.2288 14.6042 21.8308 14.2336 22.4202L14.0736 22.6762C14.6682 22.8622 15.3009 22.9582 15.9529 22.9582C16.6242 22.9582 17.2762 22.8555 17.8836 22.6568L17.7369 22.4135ZM16.8742 10.2202L16.9062 10.4702C16.9956 11.1615 17.0596 11.8602 17.1236 12.5515C17.1489 12.8268 17.1749 13.0962 17.1936 13.3715C17.2062 13.5828 17.4429 13.6915 17.6156 13.5702C17.8329 13.4102 18.0569 13.2502 18.2869 13.0962C18.8622 12.7055 19.4309 12.3148 20.0189 11.9368L20.2362 11.8022C19.3222 10.9695 18.1589 10.3995 16.8742 10.2202ZM21.7509 18.6802C21.0542 18.6355 20.3636 18.5715 19.6669 18.5075C19.3662 18.4822 19.0722 18.4502 18.7722 18.4175C18.5802 18.3922 18.4269 18.5842 18.4976 18.7695C18.6062 19.0575 18.7082 19.3462 18.8109 19.6408C19.0349 20.2942 19.2649 20.9535 19.4756 21.6195L19.5456 21.8502C20.6576 21.0882 21.5209 19.9868 21.9742 18.6928L21.7509 18.6802ZM21.4122 13.2235L21.2396 13.4095C20.7602 13.9222 20.2682 14.4148 19.7756 14.9082C19.4622 15.2282 19.1236 15.5355 18.7976 15.8495C19.2322 15.9582 19.6669 16.0735 20.1016 16.2015C20.7729 16.3935 21.4376 16.5795 22.1022 16.7968L22.3389 16.8735C22.3456 16.7708 22.3456 16.6622 22.3456 16.5535C22.3456 15.3308 22.0069 14.1908 21.4122 13.2235ZM21.4122 13.2235L21.2396 13.4095C20.7602 13.9222 20.2682 14.4148 19.7756 14.9082C19.4622 15.2282 19.1236 15.5355 18.7976 15.8495C19.2322 15.9582 19.6669 16.0735 20.1016 16.2015C20.7729 16.3935 21.4376 16.5795 22.1022 16.7968L22.3389 16.8735C22.3456 16.7708 22.3456 16.6622 22.3456 16.5535C22.3456 15.3308 22.0069 14.1908 21.4122 13.2235ZM21.7509 18.6802C21.0542 18.6355 20.3636 18.5715 19.6669 18.5075C19.3662 18.4822 19.0722 18.4502 18.7722 18.4175C18.5802 18.3922 18.4269 18.5842 18.4976 18.7695C18.6062 19.0575 18.7082 19.3462 18.8109 19.6408C19.0349 20.2942 19.2649 20.9535 19.4756 21.6195L19.5456 21.8502C20.6576 21.0882 21.5209 19.9868 21.9742 18.6928L21.7509 18.6802ZM16.8742 10.2202L16.9062 10.4702C16.9956 11.1615 17.0596 11.8602 17.1236 12.5515C17.1489 12.8268 17.1749 13.0962 17.1936 13.3715C17.2062 13.5828 17.4429 13.6915 17.6156 13.5702C17.8329 13.4102 18.0569 13.2502 18.2869 13.0962C18.8622 12.7055 19.4309 12.3148 20.0189 11.9368L20.2362 11.8022C19.3222 10.9695 18.1589 10.3995 16.8742 10.2202ZM17.7369 22.4135C17.3662 21.8242 17.0209 21.2162 16.6756 20.6142C16.5222 20.3515 16.3749 20.0888 16.2342 19.8202C16.1322 19.6342 15.8696 19.6342 15.7676 19.8202C15.6202 20.0955 15.4669 20.3648 15.3076 20.6268C14.9562 21.2288 14.6042 21.8308 14.2336 22.4202L14.0736 22.6762C14.6682 22.8622 15.3009 22.9582 15.9529 22.9582C16.6242 22.9582 17.2762 22.8555 17.8836 22.6568L17.7369 22.4135ZM13.2496 18.3282C12.9489 18.3668 12.6549 18.4115 12.3549 18.4435C11.6582 18.5268 10.9742 18.6102 10.2776 18.6742L9.93222 18.7062C10.3989 20.0128 11.2809 21.1268 12.4122 21.8828L12.5016 21.6135C12.7189 20.9475 12.9489 20.2942 13.1856 19.6348C13.2942 19.3148 13.4096 19.0008 13.5309 18.6808C13.6076 18.4942 13.4476 18.2962 13.2496 18.3282ZM13.2496 18.3282C12.9489 18.3668 12.6549 18.4115 12.3549 18.4435C11.6582 18.5268 10.9742 18.6102 10.2776 18.6742L9.93222 18.7062C10.3989 20.0128 11.2809 21.1268 12.4122 21.8828L12.5016 21.6135C12.7189 20.9475 12.9489 20.2942 13.1856 19.6348C13.2942 19.3148 13.4096 19.0008 13.5309 18.6808C13.6076 18.4942 13.4476 18.2962 13.2496 18.3282ZM17.7369 22.4135C17.3662 21.8242 17.0209 21.2162 16.6756 20.6142C16.5222 20.3515 16.3749 20.0888 16.2342 19.8202C16.1322 19.6342 15.8696 19.6342 15.7676 19.8202C15.6202 20.0955 15.4669 20.3648 15.3076 20.6268C14.9562 21.2288 14.6042 21.8308 14.2336 22.4202L14.0736 22.6762C14.6682 22.8622 15.3009 22.9582 15.9529 22.9582C16.6242 22.9582 17.2762 22.8555 17.8836 22.6568L17.7369 22.4135ZM16.8742 10.2202L16.9062 10.4702C16.9956 11.1615 17.0596 11.8602 17.1236 12.5515C17.1489 12.8268 17.1749 13.0962 17.1936 13.3715C17.2062 13.5828 17.4429 13.6915 17.6156 13.5702C17.8329 13.4102 18.0569 13.2502 18.2869 13.0962C18.8622 12.7055 19.4309 12.3148 20.0189 11.9368L20.2362 11.8022C19.3222 10.9695 18.1589 10.3995 16.8742 10.2202ZM21.7509 18.6802C21.0542 18.6355 20.3636 18.5715 19.6669 18.5075C19.3662 18.4822 19.0722 18.4502 18.7722 18.4175C18.5802 18.3922 18.4269 18.5842 18.4976 18.7695C18.6062 19.0575 18.7082 19.3462 18.8109 19.6408C19.0349 20.2942 19.2649 20.9535 19.4756 21.6195L19.5456 21.8502C20.6576 21.0882 21.5209 19.9868 21.9742 18.6928L21.7509 18.6802ZM21.4122 13.2235L21.2396 13.4095C20.7602 13.9222 20.2682 14.4148 19.7756 14.9082C19.4622 15.2282 19.1236 15.5355 18.7976 15.8495C19.2322 15.9582 19.6669 16.0735 20.1016 16.2015C20.7729 16.3935 21.4376 16.5795 22.1022 16.7968L22.3389 16.8735C22.3456 16.7708 22.3456 16.6622 22.3456 16.5535C22.3456 15.3308 22.0069 14.1908 21.4122 13.2235ZM21.4122 13.2235L21.2396 13.4095C20.7602 13.9222 20.2682 14.4148 19.7756 14.9082C19.4622 15.2282 19.1236 15.5355 18.7976 15.8495C19.2322 15.9582 19.6669 16.0735 20.1016 16.2015C20.7729 16.3935 21.4376 16.5795 22.1022 16.7968L22.3389 16.8735C22.3456 16.7708 22.3456 16.6622 22.3456 16.5535C22.3456 15.3308 22.0069 14.1908 21.4122 13.2235ZM21.7509 18.6802C21.0542 18.6355 20.3636 18.5715 19.6669 18.5075C19.3662 18.4822 19.0722 18.4502 18.7722 18.4175C18.5802 18.3922 18.4269 18.5842 18.4976 18.7695C18.6062 19.0575 18.7082 19.3462 18.8109 19.6408C19.0349 20.2942 19.2649 20.9535 19.4756 21.6195L19.5456 21.8502C20.6576 21.0882 21.5209 19.9868 21.9742 18.6928L21.7509 18.6802ZM16.8742 10.2202L16.9062 10.4702C16.9956 11.1615 17.0596 11.8602 17.1236 12.5515C17.1489 12.8268 17.1749 13.0962 17.1936 13.3715C17.2062 13.5828 17.4429 13.6915 17.6156 13.5702C17.8329 13.4102 18.0569 13.2502 18.2869 13.0962C18.8622 12.7055 19.4309 12.3148 20.0189 11.9368L20.2362 11.8022C19.3222 10.9695 18.1589 10.3995 16.8742 10.2202ZM17.7369 22.4135C17.3662 21.8242 17.0209 21.2162 16.6756 20.6142C16.5222 20.3515 16.3749 20.0888 16.2342 19.8202C16.1322 19.6342 15.8696 19.6342 15.7676 19.8202C15.6202 20.0955 15.4669 20.3648 15.3076 20.6268C14.9562 21.2288 14.6042 21.8308 14.2336 22.4202L14.0736 22.6762C14.6682 22.8622 15.3009 22.9582 15.9529 22.9582C16.6242 22.9582 17.2762 22.8555 17.8836 22.6568L17.7369 22.4135ZM13.2496 18.3282C12.9489 18.3668 12.6549 18.4115 12.3549 18.4435C11.6582 18.5268 10.9742 18.6102 10.2776 18.6742L9.93222 18.7062C10.3989 20.0128 11.2809 21.1268 12.4122 21.8828L12.5016 21.6135C12.7189 20.9475 12.9489 20.2942 13.1856 19.6348C13.2942 19.3148 13.4096 19.0008 13.5309 18.6808C13.6076 18.4942 13.4476 18.2962 13.2496 18.3282ZM12.8916 15.4075C12.6742 15.2088 12.4636 15.0102 12.2522 14.7988C11.7536 14.3055 11.2616 13.8188 10.7756 13.3128L10.5709 13.1015C9.93155 14.0942 9.56089 15.2788 9.56089 16.5535C9.56089 16.6755 9.56755 16.7902 9.56755 16.9055L9.86822 16.8028C10.5269 16.5662 11.1916 16.3608 11.8496 16.1435C12.1629 16.0408 12.4762 15.9515 12.7889 15.8555C12.9876 15.7982 13.0449 15.5482 12.8916 15.4075ZM13.2496 18.3282C12.9489 18.3668 12.6549 18.4115 12.3549 18.4435C11.6582 18.5268 10.9742 18.6102 10.2776 18.6742L9.93222 18.7062C10.3989 20.0128 11.2809 21.1268 12.4122 21.8828L12.5016 21.6135C12.7189 20.9475 12.9489 20.2942 13.1856 19.6348C13.2942 19.3148 13.4096 19.0008 13.5309 18.6808C13.6076 18.4942 13.4476 18.2962 13.2496 18.3282ZM17.7369 22.4135C17.3662 21.8242 17.0209 21.2162 16.6756 20.6142C16.5222 20.3515 16.3749 20.0888 16.2342 19.8202C16.1322 19.6342 15.8696 19.6342 15.7676 19.8202C15.6202 20.0955 15.4669 20.3648 15.3076 20.6268C14.9562 21.2288 14.6042 21.8308 14.2336 22.4202L14.0736 22.6762C14.6682 22.8622 15.3009 22.9582 15.9529 22.9582C16.6242 22.9582 17.2762 22.8555 17.8836 22.6568L17.7369 22.4135ZM16.8742 10.2202L16.9062 10.4702C16.9956 11.1615 17.0596 11.8602 17.1236 12.5515C17.1489 12.8268 17.1749 13.0962 17.1936 13.3715C17.2062 13.5828 17.4429 13.6915 17.6156 13.5702C17.8329 13.4102 18.0569 13.2502 18.2869 13.0962C18.8622 12.7055 19.4309 12.3148 20.0189 11.9368L20.2362 11.8022C19.3222 10.9695 18.1589 10.3995 16.8742 10.2202ZM21.7509 18.6802C21.0542 18.6355 20.3636 18.5715 19.6669 18.5075C19.3662 18.4822 19.0722 18.4502 18.7722 18.4175C18.5802 18.3922 18.4269 18.5842 18.4976 18.7695C18.6062 19.0575 18.7082 19.3462 18.8109 19.6408C19.0349 20.2942 19.2649 20.9535 19.4756 21.6195L19.5456 21.8502C20.6576 21.0882 21.5209 19.9868 21.9742 18.6928L21.7509 18.6802ZM21.4122 13.2235L21.2396 13.4095C20.7602 13.9222 20.2682 14.4148 19.7756 14.9082C19.4622 15.2282 19.1236 15.5355 18.7976 15.8495C19.2322 15.9582 19.6669 16.0735 20.1016 16.2015C20.7729 16.3935 21.4376 16.5795 22.1022 16.7968L22.3389 16.8735C22.3456 16.7708 22.3456 16.6622 22.3456 16.5535C22.3456 15.3308 22.0069 14.1908 21.4122 13.2235ZM21.4122 13.2235L21.2396 13.4095C20.7602 13.9222 20.2682 14.4148 19.7756 14.9082C19.4622 15.2282 19.1236 15.5355 18.7976 15.8495C19.2322 15.9582 19.6669 16.0735 20.1016 16.2015C20.7729 16.3935 21.4376 16.5795 22.1022 16.7968L22.3389 16.8735C22.3456 16.7708 22.3456 16.6622 22.3456 16.5535C22.3456 15.3308 22.0069 14.1908 21.4122 13.2235ZM19.6669 18.5075C19.3662 18.4822 19.0722 18.4502 18.7722 18.4175C18.5802 18.3922 18.4269 18.5842 18.4976 18.7695C18.6062 19.0575 18.7082 19.3462 18.8109 19.6408C19.0349 20.2942 19.2649 20.9535 19.4756 21.6195L19.5456 21.8502C20.6576 21.0882 21.5209 19.9868 21.9742 18.6928L21.7509 18.6802C21.0549 18.6355 20.3642 18.5715 19.6669 18.5075ZM20.2362 11.8022C19.3222 10.9695 18.1589 10.3995 16.8742 10.2202L16.9062 10.4702C16.9956 11.1615 17.0596 11.8602 17.1236 12.5515C17.1489 12.8268 17.1749 13.0962 17.1936 13.3715C17.2062 13.5828 17.4429 13.6915 17.6156 13.5702C17.8329 13.4102 18.0569 13.2502 18.2869 13.0962C18.8622 12.7055 19.4309 12.3148 20.0189 11.9368L20.2362 11.8022ZM16.6756 20.6142C16.5222 20.3515 16.3749 20.0888 16.2342 19.8202C16.1322 19.6342 15.8696 19.6342 15.7676 19.8202C15.6202 20.0955 15.4669 20.3648 15.3076 20.6268C14.9562 21.2288 14.6042 21.8308 14.2336 22.4202L14.0736 22.6762C14.6682 22.8622 15.3009 22.9582 15.9529 22.9582C16.6242 22.9582 17.2762 22.8555 17.8836 22.6568L17.7362 22.4135C17.3662 21.8248 17.0209 21.2162 16.6756 20.6142ZM13.2496 18.3282C12.9489 18.3668 12.6549 18.4115 12.3549 18.4435C11.6582 18.5268 10.9742 18.6102 10.2776 18.6742L9.93222 18.7062C10.3989 20.0128 11.2809 21.1268 12.4122 21.8828L12.5016 21.6135C12.7189 20.9475 12.9489 20.2942 13.1856 19.6348C13.2942 19.3148 13.4096 19.0008 13.5309 18.6808C13.6076 18.4942 13.4476 18.2962 13.2496 18.3282ZM12.7889 15.8555C12.9869 15.7982 13.0456 15.5482 12.8916 15.4075C12.6742 15.2088 12.4636 15.0102 12.2522 14.7988C11.7536 14.3055 11.2616 13.8188 10.7756 13.3128L10.5709 13.1015C9.93155 14.0942 9.56089 15.2788 9.56089 16.5535C9.56089 16.6755 9.56755 16.7902 9.56755 16.9055L9.86822 16.8028C10.5269 16.5662 11.1916 16.3608 11.8496 16.1435C12.1629 16.0415 12.4756 15.9522 12.7889 15.8555ZM29.8436 18.7828L27.4016 8.03617C27.2929 7.55617 26.9736 7.15883 26.5322 6.94083L16.6502 2.1635C16.2089 1.9455 15.6976 1.9455 15.2569 2.1635L5.37489 6.94083C4.93355 7.15883 4.61422 7.5555 4.50555 8.03617L2.06355 18.7828C1.95489 19.2628 2.07022 19.7628 2.37022 20.1408L9.20955 28.7608C9.51622 29.1448 9.98289 29.3695 10.4689 29.3695H21.4376C21.9236 29.3695 22.3902 29.1455 22.6969 28.7608L29.5362 20.1408C29.8369 19.7622 29.9522 19.2628 29.8436 18.7828ZM26.4302 19.2308C26.2382 19.2755 26.0469 19.2308 25.8936 19.1348C25.5802 18.9235 25.2482 18.8082 24.9156 18.7122C24.7496 18.6675 24.5769 18.6288 24.4109 18.6035C24.2449 18.5522 24.0529 18.6035 23.8609 18.6928C23.6689 18.8015 23.4962 18.7828 23.3176 18.7695H23.2982C22.7482 20.5948 21.5402 22.1382 19.9422 23.1182V23.1248C19.9936 23.2915 20.0509 23.4515 19.9996 23.6695C19.9549 23.8808 19.9482 24.0728 20.0382 24.2268C20.1082 24.3808 20.1856 24.5408 20.2682 24.6882C20.4409 24.9888 20.6329 25.2902 20.9136 25.5402C21.1949 25.8028 21.2142 26.2382 20.9582 26.5262C20.6962 26.8082 20.2616 26.8268 19.9736 26.5708C19.8262 26.4362 19.7496 26.2568 19.7496 26.0715C19.7369 25.6935 19.6409 25.3608 19.5256 25.0275C19.4682 24.8675 19.4042 24.7075 19.3276 24.5475C19.2702 24.3808 19.1169 24.2655 18.9309 24.1568C18.7522 24.0608 18.6622 23.9262 18.5729 23.7788C17.7549 24.0802 16.8729 24.2402 15.9522 24.2402C15.0449 24.2402 14.1756 24.0802 13.3696 23.7922C13.2929 23.9328 13.2036 24.0608 13.0242 24.1575C12.8389 24.2602 12.6856 24.3815 12.6282 24.5482C12.5516 24.7022 12.4809 24.8622 12.4236 25.0222C12.3082 25.3555 12.2062 25.6882 12.1996 26.0662C12.1869 26.4502 11.8609 26.7515 11.4776 26.7388C11.0942 26.7262 10.7936 26.4062 10.8062 26.0215C10.8129 25.8228 10.9022 25.6502 11.0362 25.5282C11.3176 25.2722 11.5096 24.9775 11.6882 24.6828C11.7716 24.5288 11.8482 24.3755 11.9182 24.2155C12.0076 24.0682 12.0016 23.8695 11.9629 23.6582C11.9182 23.4595 11.9629 23.2995 12.0142 23.1522C10.4096 22.1848 9.18222 20.6482 8.62022 18.8228C8.47289 18.8355 8.33289 18.8355 8.16622 18.7522C7.96822 18.6688 7.78289 18.6175 7.61622 18.6755C7.44355 18.7075 7.27755 18.7522 7.11155 18.8035C6.77889 18.9122 6.45289 19.0342 6.14622 19.2515C5.83289 19.4755 5.39822 19.3988 5.17489 19.0848C4.95755 18.7708 5.02755 18.3355 5.34089 18.1175C5.50089 18.0022 5.69889 17.9635 5.87755 17.9955C6.24222 18.0722 6.59355 18.0468 6.93889 18.0022C7.11155 17.9828 7.28422 17.9508 7.45022 17.9062C7.62289 17.8935 7.77622 17.7655 7.91689 17.6055C8.03822 17.4648 8.17889 17.4068 8.31955 17.3555C8.29422 17.0928 8.28089 16.8242 8.28089 16.5548C8.28089 14.9155 8.79222 13.3975 9.66822 12.1488C9.55289 12.0335 9.44422 11.9182 9.39955 11.7135C9.34222 11.5088 9.26555 11.3295 9.11822 11.2335C8.98422 11.1182 8.84955 11.0155 8.70889 10.9195C8.41489 10.7275 8.11422 10.5482 7.75622 10.4395C7.38555 10.3368 7.16822 9.94617 7.27689 9.5815C7.38555 9.21017 7.76889 8.99883 8.13955 9.1015C8.32489 9.15883 8.47822 9.2875 8.56155 9.4475C8.73422 9.78083 8.97089 10.0428 9.22022 10.2862C9.34155 10.4082 9.47622 10.5228 9.61022 10.6255C9.73155 10.7535 9.92355 10.7922 10.1342 10.8048C10.3582 10.8115 10.4982 10.9075 10.6456 11.0035L10.6522 11.0102C11.8542 9.84483 13.4389 9.07617 15.1969 8.9095C15.2162 8.73683 15.2289 8.5635 15.3629 8.39083C15.4909 8.21817 15.5802 8.04483 15.5609 7.87217C15.5676 7.6995 15.5609 7.52617 15.5482 7.34683C15.5096 7.00083 15.4589 6.65483 15.3116 6.3095C15.1582 5.9575 15.3242 5.5475 15.6762 5.3935C16.0276 5.24617 16.4369 5.40617 16.5902 5.75883C16.6669 5.94483 16.6602 6.14283 16.5902 6.3095C16.4429 6.6555 16.3922 7.00083 16.3536 7.34683C16.3409 7.52617 16.3342 7.69883 16.3409 7.87217C16.3216 8.04483 16.4109 8.21817 16.5389 8.39083C16.6729 8.5635 16.6862 8.73683 16.7049 8.9095C18.5076 9.08217 20.1309 9.88283 21.3456 11.0995C21.4929 11.0035 21.6329 10.9008 21.8569 10.8948C22.0676 10.8822 22.2596 10.8435 22.3809 10.7155C22.5149 10.6068 22.6429 10.4915 22.7709 10.3695C23.0136 10.1262 23.2502 9.8635 23.4229 9.53083C23.5956 9.18483 24.0176 9.05083 24.3562 9.23017C24.7016 9.40283 24.8356 9.8255 24.6569 10.1655C24.5676 10.3448 24.4142 10.4668 24.2349 10.5175C23.8769 10.6202 23.5762 10.8055 23.2889 10.9975C23.1482 11.1002 23.0076 11.2022 22.8796 11.3175C22.7322 11.4135 22.6556 11.5928 22.5982 11.7975C22.5536 12.0155 22.4322 12.1368 22.3109 12.2648C23.1416 13.4882 23.6216 14.9675 23.6216 16.5555C23.6216 16.7988 23.6089 17.0422 23.5896 17.2795H23.5962C23.7622 17.3308 23.9289 17.3755 24.0756 17.5482C24.2229 17.7022 24.3762 17.8168 24.5489 17.8302C24.7216 17.8688 24.8876 17.8942 25.0602 17.9135C25.4116 17.9455 25.7569 17.9582 26.1276 17.8748C26.5049 17.7915 26.8756 18.0288 26.9582 18.4062C27.0436 18.7762 26.8069 19.1475 26.4302 19.2308ZM21.2396 13.4095C20.7602 13.9222 20.2682 14.4148 19.7756 14.9082C19.4622 15.2282 19.1236 15.5355 18.7976 15.8495C19.2322 15.9582 19.6669 16.0735 20.1016 16.2015C20.7729 16.3935 21.4376 16.5795 22.1022 16.7968L22.3389 16.8735C22.3456 16.7708 22.3456 16.6622 22.3456 16.5535C22.3456 15.3302 22.0069 14.1902 21.4122 13.2235L21.2396 13.4095ZM19.6669 18.5075C19.3662 18.4822 19.0722 18.4502 18.7722 18.4175C18.5802 18.3922 18.4269 18.5842 18.4976 18.7695C18.6062 19.0575 18.7082 19.3462 18.8109 19.6408C19.0349 20.2942 19.2649 20.9535 19.4756 21.6195L19.5456 21.8502C20.6576 21.0882 21.5209 19.9868 21.9742 18.6928L21.7509 18.6802C21.0549 18.6355 20.3642 18.5715 19.6669 18.5075ZM20.2362 11.8022C19.3222 10.9695 18.1589 10.3995 16.8742 10.2202L16.9062 10.4702C16.9956 11.1615 17.0596 11.8602 17.1236 12.5515C17.1489 12.8268 17.1749 13.0962 17.1936 13.3715C17.2062 13.5828 17.4429 13.6915 17.6156 13.5702C17.8329 13.4102 18.0569 13.2502 18.2869 13.0962C18.8622 12.7055 19.4309 12.3148 20.0189 11.9368L20.2362 11.8022ZM16.6756 20.6142C16.5222 20.3515 16.3749 20.0888 16.2342 19.8202C16.1322 19.6342 15.8696 19.6342 15.7676 19.8202C15.6202 20.0955 15.4669 20.3648 15.3076 20.6268C14.9562 21.2288 14.6042 21.8308 14.2336 22.4202L14.0736 22.6762C14.6682 22.8622 15.3009 22.9582 15.9529 22.9582C16.6242 22.9582 17.2762 22.8555 17.8836 22.6568L17.7362 22.4135C17.3662 21.8248 17.0209 21.2162 16.6756 20.6142ZM14.7836 12.5515C14.8476 11.8595 14.9116 11.1615 15.0009 10.4702L15.0329 10.2202C13.7996 10.3928 12.6809 10.9248 11.7856 11.7062L11.9836 11.8282C12.5782 12.1995 13.1536 12.5902 13.7289 12.9808C14.0616 13.1922 14.3742 13.4288 14.6876 13.6535C14.7136 13.2875 14.7456 12.9162 14.7836 12.5515ZM13.2496 18.3282C12.9489 18.3668 12.6549 18.4115 12.3549 18.4435C11.6582 18.5268 10.9742 18.6102 10.2776 18.6742L9.93222 18.7062C10.3989 20.0128 11.2809 21.1268 12.4122 21.8828L12.5016 21.6135C12.7189 20.9475 12.9489 20.2942 13.1856 19.6348C13.2942 19.3148 13.4096 19.0008 13.5309 18.6808C13.6076 18.4942 13.4476 18.2962 13.2496 18.3282ZM12.7889 15.8555C12.9869 15.7982 13.0456 15.5482 12.8916 15.4075C12.6742 15.2088 12.4636 15.0102 12.2522 14.7988C11.7536 14.3055 11.2616 13.8188 10.7756 13.3128L10.5709 13.1015C9.93155 14.0942 9.56089 15.2788 9.56089 16.5535C9.56089 16.6755 9.56755 16.7902 9.56755 16.9055L9.86822 16.8028C10.5269 16.5662 11.1916 16.3608 11.8496 16.1435C12.1629 16.0415 12.4756 15.9522 12.7889 15.8555ZM12.8916 15.4075C12.6742 15.2088 12.4636 15.0102 12.2522 14.7988C11.7536 14.3055 11.2616 13.8188 10.7756 13.3128L10.5709 13.1015C9.93155 14.0942 9.56089 15.2788 9.56089 16.5535C9.56089 16.6755 9.56755 16.7902 9.56755 16.9055L9.86822 16.8028C10.5269 16.5662 11.1916 16.3608 11.8496 16.1435C12.1629 16.0408 12.4762 15.9515 12.7889 15.8555C12.9876 15.7982 13.0449 15.5482 12.8916 15.4075ZM13.2496 18.3282C12.9489 18.3668 12.6549 18.4115 12.3549 18.4435C11.6582 18.5268 10.9742 18.6102 10.2776 18.6742L9.93222 18.7062C10.3989 20.0128 11.2809 21.1268 12.4122 21.8828L12.5016 21.6135C12.7189 20.9475 12.9489 20.2942 13.1856 19.6348C13.2942 19.3148 13.4096 19.0008 13.5309 18.6808C13.6076 18.4942 13.4476 18.2962 13.2496 18.3282ZM17.7369 22.4135C17.3662 21.8242 17.0209 21.2162 16.6756 20.6142C16.5222 20.3515 16.3749 20.0888 16.2342 19.8202C16.1322 19.6342 15.8696 19.6342 15.7676 19.8202C15.6202 20.0955 15.4669 20.3648 15.3076 20.6268C14.9562 21.2288 14.6042 21.8308 14.2336 22.4202L14.0736 22.6762C14.6682 22.8622 15.3009 22.9582 15.9529 22.9582C16.6242 22.9582 17.2762 22.8555 17.8836 22.6568L17.7369 22.4135ZM16.8742 10.2202L16.9062 10.4702C16.9956 11.1615 17.0596 11.8602 17.1236 12.5515C17.1489 12.8268 17.1749 13.0962 17.1936 13.3715C17.2062 13.5828 17.4429 13.6915 17.6156 13.5702C17.8329 13.4102 18.0569 13.2502 18.2869 13.0962C18.8622 12.7055 19.4309 12.3148 20.0189 11.9368L20.2362 11.8022C19.3222 10.9695 18.1589 10.3995 16.8742 10.2202ZM21.7509 18.6802C21.0542 18.6355 20.3636 18.5715 19.6669 18.5075C19.3662 18.4822 19.0722 18.4502 18.7722 18.4175C18.5802 18.3922 18.4269 18.5842 18.4976 18.7695C18.6062 19.0575 18.7082 19.3462 18.8109 19.6408C19.0349 20.2942 19.2649 20.9535 19.4756 21.6195L19.5456 21.8502C20.6576 21.0882 21.5209 19.9868 21.9742 18.6928L21.7509 18.6802ZM21.4122 13.2235L21.2396 13.4095C20.7602 13.9222 20.2682 14.4148 19.7756 14.9082C19.4622 15.2282 19.1236 15.5355 18.7976 15.8495C19.2322 15.9582 19.6669 16.0735 20.1016 16.2015C20.7729 16.3935 21.4376 16.5795 22.1022 16.7968L22.3389 16.8735C22.3456 16.7708 22.3456 16.6622 22.3456 16.5535C22.3456 15.3308 22.0069 14.1908 21.4122 13.2235ZM21.4122 13.2235L21.2396 13.4095C20.7602 13.9222 20.2682 14.4148 19.7756 14.9082C19.4622 15.2282 19.1236 15.5355 18.7976 15.8495C19.2322 15.9582 19.6669 16.0735 20.1016 16.2015C20.7729 16.3935 21.4376 16.5795 22.1022 16.7968L22.3389 16.8735C22.3456 16.7708 22.3456 16.6622 22.3456 16.5535C22.3456 15.3308 22.0069 14.1908 21.4122 13.2235ZM21.7509 18.6802C21.0542 18.6355 20.3636 18.5715 19.6669 18.5075C19.3662 18.4822 19.0722 18.4502 18.7722 18.4175C18.5802 18.3922 18.4269 18.5842 18.4976 18.7695C18.6062 19.0575 18.7082 19.3462 18.8109 19.6408C19.0349 20.2942 19.2649 20.9535 19.4756 21.6195L19.5456 21.8502C20.6576 21.0882 21.5209 19.9868 21.9742 18.6928L21.7509 18.6802ZM16.8742 10.2202L16.9062 10.4702C16.9956 11.1615 17.0596 11.8602 17.1236 12.5515C17.1489 12.8268 17.1749 13.0962 17.1936 13.3715C17.2062 13.5828 17.4429 13.6915 17.6156 13.5702C17.8329 13.4102 18.0569 13.2502 18.2869 13.0962C18.8622 12.7055 19.4309 12.3148 20.0189 11.9368L20.2362 11.8022C19.3222 10.9695 18.1589 10.3995 16.8742 10.2202ZM17.7369 22.4135C17.3662 21.8242 17.0209 21.2162 16.6756 20.6142C16.5222 20.3515 16.3749 20.0888 16.2342 19.8202C16.1322 19.6342 15.8696 19.6342 15.7676 19.8202C15.6202 20.0955 15.4669 20.3648 15.3076 20.6268C14.9562 21.2288 14.6042 21.8308 14.2336 22.4202L14.0736 22.6762C14.6682 22.8622 15.3009 22.9582 15.9529 22.9582C16.6242 22.9582 17.2762 22.8555 17.8836 22.6568L17.7369 22.4135ZM13.2496 18.3282C12.9489 18.3668 12.6549 18.4115 12.3549 18.4435C11.6582 18.5268 10.9742 18.6102 10.2776 18.6742L9.93222 18.7062C10.3989 20.0128 11.2809 21.1268 12.4122 21.8828L12.5016 21.6135C12.7189 20.9475 12.9489 20.2942 13.1856 19.6348C13.2942 19.3148 13.4096 19.0008 13.5309 18.6808C13.6076 18.4942 13.4476 18.2962 13.2496 18.3282ZM12.8916 15.4075C12.6742 15.2088 12.4636 15.0102 12.2522 14.7988C11.7536 14.3055 11.2616 13.8188 10.7756 13.3128L10.5709 13.1015C9.93155 14.0942 9.56089 15.2788 9.56089 16.5535C9.56089 16.6755 9.56755 16.7902 9.56755 16.9055L9.86822 16.8028C10.5269 16.5662 11.1916 16.3608 11.8496 16.1435C12.1629 16.0408 12.4762 15.9515 12.7889 15.8555C12.9876 15.7982 13.0449 15.5482 12.8916 15.4075ZM13.2496 18.3282C12.9489 18.3668 12.6549 18.4115 12.3549 18.4435C11.6582 18.5268 10.9742 18.6102 10.2776 18.6742L9.93222 18.7062C10.3989 20.0128 11.2809 21.1268 12.4122 21.8828L12.5016 21.6135C12.7189 20.9475 12.9489 20.2942 13.1856 19.6348C13.2942 19.3148 13.4096 19.0008 13.5309 18.6808C13.6076 18.4942 13.4476 18.2962 13.2496 18.3282ZM17.7369 22.4135C17.3662 21.8242 17.0209 21.2162 16.6756 20.6142C16.5222 20.3515 16.3749 20.0888 16.2342 19.8202C16.1322 19.6342 15.8696 19.6342 15.7676 19.8202C15.6202 20.0955 15.4669 20.3648 15.3076 20.6268C14.9562 21.2288 14.6042 21.8308 14.2336 22.4202L14.0736 22.6762C14.6682 22.8622 15.3009 22.9582 15.9529 22.9582C16.6242 22.9582 17.2762 22.8555 17.8836 22.6568L17.7369 22.4135ZM16.8742 10.2202L16.9062 10.4702C16.9956 11.1615 17.0596 11.8602 17.1236 12.5515C17.1489 12.8268 17.1749 13.0962 17.1936 13.3715C17.2062 13.5828 17.4429 13.6915 17.6156 13.5702C17.8329 13.4102 18.0569 13.2502 18.2869 13.0962C18.8622 12.7055 19.4309 12.3148 20.0189 11.9368L20.2362 11.8022C19.3222 10.9695 18.1589 10.3995 16.8742 10.2202ZM21.7509 18.6802C21.0542 18.6355 20.3636 18.5715 19.6669 18.5075C19.3662 18.4822 19.0722 18.4502 18.7722 18.4175C18.5802 18.3922 18.4269 18.5842 18.4976 18.7695C18.6062 19.0575 18.7082 19.3462 18.8109 19.6408C19.0349 20.2942 19.2649 20.9535 19.4756 21.6195L19.5456 21.8502C20.6576 21.0882 21.5209 19.9868 21.9742 18.6928L21.7509 18.6802ZM21.4122 13.2235L21.2396 13.4095C20.7602 13.9222 20.2682 14.4148 19.7756 14.9082C19.4622 15.2282 19.1236 15.5355 18.7976 15.8495C19.2322 15.9582 19.6669 16.0735 20.1016 16.2015C20.7729 16.3935 21.4376 16.5795 22.1022 16.7968L22.3389 16.8735C22.3456 16.7708 22.3456 16.6622 22.3456 16.5535C22.3456 15.3308 22.0069 14.1908 21.4122 13.2235ZM21.4122 13.2235L21.2396 13.4095C20.7602 13.9222 20.2682 14.4148 19.7756 14.9082C19.4622 15.2282 19.1236 15.5355 18.7976 15.8495C19.2322 15.9582 19.6669 16.0735 20.1016 16.2015C20.7729 16.3935 21.4376 16.5795 22.1022 16.7968L22.3389 16.8735C22.3456 16.7708 22.3456 16.6622 22.3456 16.5535C22.3456 15.3308 22.0069 14.1908 21.4122 13.2235ZM21.7509 18.6802C21.0542 18.6355 20.3636 18.5715 19.6669 18.5075C19.3662 18.4822 19.0722 18.4502 18.7722 18.4175C18.5802 18.3922 18.4269 18.5842 18.4976 18.7695C18.6062 19.0575 18.7082 19.3462 18.8109 19.6408C19.0349 20.2942 19.2649 20.9535 19.4756 21.6195L19.5456 21.8502C20.6576 21.0882 21.5209 19.9868 21.9742 18.6928L21.7509 18.6802ZM16.8742 10.2202L16.9062 10.4702C16.9956 11.1615 17.0596 11.8602 17.1236 12.5515C17.1489 12.8268 17.1749 13.0962 17.1936 13.3715C17.2062 13.5828 17.4429 13.6915 17.6156 13.5702C17.8329 13.4102 18.0569 13.2502 18.2869 13.0962C18.8622 12.7055 19.4309 12.3148 20.0189 11.9368L20.2362 11.8022C19.3222 10.9695 18.1589 10.3995 16.8742 10.2202ZM17.7369 22.4135C17.3662 21.8242 17.0209 21.2162 16.6756 20.6142C16.5222 20.3515 16.3749 20.0888 16.2342 19.8202C16.1322 19.6342 15.8696 19.6342 15.7676 19.8202C15.6202 20.0955 15.4669 20.3648 15.3076 20.6268C14.9562 21.2288 14.6042 21.8308 14.2336 22.4202L14.0736 22.6762C14.6682 22.8622 15.3009 22.9582 15.9529 22.9582C16.6242 22.9582 17.2762 22.8555 17.8836 22.6568L17.7369 22.4135ZM13.2496 18.3282C12.9489 18.3668 12.6549 18.4115 12.3549 18.4435C11.6582 18.5268 10.9742 18.6102 10.2776 18.6742L9.93222 18.7062C10.3989 20.0128 11.2809 21.1268 12.4122 21.8828L12.5016 21.6135C12.7189 20.9475 12.9489 20.2942 13.1856 19.6348C13.2942 19.3148 13.4096 19.0008 13.5309 18.6808C13.6076 18.4942 13.4476 18.2962 13.2496 18.3282ZM17.7369 22.4135C17.3662 21.8242 17.0209 21.2162 16.6756 20.6142C16.5222 20.3515 16.3749 20.0888 16.2342 19.8202C16.1322 19.6342 15.8696 19.6342 15.7676 19.8202C15.6202 20.0955 15.4669 20.3648 15.3076 20.6268C14.9562 21.2288 14.6042 21.8308 14.2336 22.4202L14.0736 22.6762C14.6682 22.8622 15.3009 22.9582 15.9529 22.9582C16.6242 22.9582 17.2762 22.8555 17.8836 22.6568L17.7369 22.4135ZM16.8742 10.2202L16.9062 10.4702C16.9956 11.1615 17.0596 11.8602 17.1236 12.5515C17.1489 12.8268 17.1749 13.0962 17.1936 13.3715C17.2062 13.5828 17.4429 13.6915 17.6156 13.5702C17.8329 13.4102 18.0569 13.2502 18.2869 13.0962C18.8622 12.7055 19.4309 12.3148 20.0189 11.9368L20.2362 11.8022C19.3222 10.9695 18.1589 10.3995 16.8742 10.2202ZM21.7509 18.6802C21.0542 18.6355 20.3636 18.5715 19.6669 18.5075C19.3662 18.4822 19.0722 18.4502 18.7722 18.4175C18.5802 18.3922 18.4269 18.5842 18.4976 18.7695C18.6062 19.0575 18.7082 19.3462 18.8109 19.6408C19.0349 20.2942 19.2649 20.9535 19.4756 21.6195L19.5456 21.8502C20.6576 21.0882 21.5209 19.9868 21.9742 18.6928L21.7509 18.6802ZM21.4122 13.2235L21.2396 13.4095C20.7602 13.9222 20.2682 14.4148 19.7756 14.9082C19.4622 15.2282 19.1236 15.5355 18.7976 15.8495C19.2322 15.9582 19.6669 16.0735 20.1016 16.2015C20.7729 16.3935 21.4376 16.5795 22.1022 16.7968L22.3389 16.8735C22.3456 16.7708 22.3456 16.6622 22.3456 16.5535C22.3456 15.3308 22.0069 14.1908 21.4122 13.2235ZM21.4122 13.2235L21.2396 13.4095C20.7602 13.9222 20.2682 14.4148 19.7756 14.9082C19.4622 15.2282 19.1236 15.5355 18.7976 15.8495C19.2322 15.9582 19.6669 16.0735 20.1016 16.2015C20.7729 16.3935 21.4376 16.5795 22.1022 16.7968L22.3389 16.8735C22.3456 16.7708 22.3456 16.6622 22.3456 16.5535C22.3456 15.3308 22.0069 14.1908 21.4122 13.2235ZM21.7509 18.6802C21.0542 18.6355 20.3636 18.5715 19.6669 18.5075C19.3662 18.4822 19.0722 18.4502 18.7722 18.4175C18.5802 18.3922 18.4269 18.5842 18.4976 18.7695C18.6062 19.0575 18.7082 19.3462 18.8109 19.6408C19.0349 20.2942 19.2649 20.9535 19.4756 21.6195L19.5456 21.8502C20.6576 21.0882 21.5209 19.9868 21.9742 18.6928L21.7509 18.6802ZM16.8742 10.2202L16.9062 10.4702C16.9956 11.1615 17.0596 11.8602 17.1236 12.5515C17.1489 12.8268 17.1749 13.0962 17.1936 13.3715C17.2062 13.5828 17.4429 13.6915 17.6156 13.5702C17.8329 13.4102 18.0569 13.2502 18.2869 13.0962C18.8622 12.7055 19.4309 12.3148 20.0189 11.9368L20.2362 11.8022C19.3222 10.9695 18.1589 10.3995 16.8742 10.2202ZM17.7369 22.4135C17.3662 21.8242 17.0209 21.2162 16.6756 20.6142C16.5222 20.3515 16.3749 20.0888 16.2342 19.8202C16.1322 19.6342 15.8696 19.6342 15.7676 19.8202C15.6202 20.0955 15.4669 20.3648 15.3076 20.6268C14.9562 21.2288 14.6042 21.8308 14.2336 22.4202L14.0736 22.6762C14.6682 22.8622 15.3009 22.9582 15.9529 22.9582C16.6242 22.9582 17.2762 22.8555 17.8836 22.6568L17.7369 22.4135ZM17.7369 22.4135C17.3662 21.8242 17.0209 21.2162 16.6756 20.6142C16.5222 20.3515 16.3749 20.0888 16.2342 19.8202C16.1322 19.6342 15.8696 19.6342 15.7676 19.8202C15.6202 20.0955 15.4669 20.3648 15.3076 20.6268C14.9562 21.2288 14.6042 21.8308 14.2336 22.4202L14.0736 22.6762C14.6682 22.8622 15.3009 22.9582 15.9529 22.9582C16.6242 22.9582 17.2762 22.8555 17.8836 22.6568L17.7369 22.4135ZM16.8742 10.2202L16.9062 10.4702C16.9956 11.1615 17.0596 11.8602 17.1236 12.5515C17.1489 12.8268 17.1749 13.0962 17.1936 13.3715C17.2062 13.5828 17.4429 13.6915 17.6156 13.5702C17.8329 13.4102 18.0569 13.2502 18.2869 13.0962C18.8622 12.7055 19.4309 12.3148 20.0189 11.9368L20.2362 11.8022C19.3222 10.9695 18.1589 10.3995 16.8742 10.2202ZM21.7509 18.6802C21.0542 18.6355 20.3636 18.5715 19.6669 18.5075C19.3662 18.4822 19.0722 18.4502 18.7722 18.4175C18.5802 18.3922 18.4269 18.5842 18.4976 18.7695C18.6062 19.0575 18.7082 19.3462 18.8109 19.6408C19.0349 20.2942 19.2649 20.9535 19.4756 21.6195L19.5456 21.8502C20.6576 21.0882 21.5209 19.9868 21.9742 18.6928L21.7509 18.6802ZM21.4122 13.2235L21.2396 13.4095C20.7602 13.9222 20.2682 14.4148 19.7756 14.9082C19.4622 15.2282 19.1236 15.5355 18.7976 15.8495C19.2322 15.9582 19.6669 16.0735 20.1016 16.2015C20.7729 16.3935 21.4376 16.5795 22.1022 16.7968L22.3389 16.8735C22.3456 16.7708 22.3456 16.6622 22.3456 16.5535C22.3456 15.3308 22.0069 14.1908 21.4122 13.2235ZM21.4122 13.2235L21.2396 13.4095C20.7602 13.9222 20.2682 14.4148 19.7756 14.9082C19.4622 15.2282 19.1236 15.5355 18.7976 15.8495C19.2322 15.9582 19.6669 16.0735 20.1016 16.2015C20.7729 16.3935 21.4376 16.5795 22.1022 16.7968L22.3389 16.8735C22.3456 16.7708 22.3456 16.6622 22.3456 16.5535C22.3456 15.3308 22.0069 14.1908 21.4122 13.2235ZM21.7509 18.6802C21.0542 18.6355 20.3636 18.5715 19.6669 18.5075C19.3662 18.4822 19.0722 18.4502 18.7722 18.4175C18.5802 18.3922 18.4269 18.5842 18.4976 18.7695C18.6062 19.0575 18.7082 19.3462 18.8109 19.6408C19.0349 20.2942 19.2649 20.9535 19.4756 21.6195L19.5456 21.8502C20.6576 21.0882 21.5209 19.9868 21.9742 18.6928L21.7509 18.6802ZM16.8742 10.2202L16.9062 10.4702C16.9956 11.1615 17.0596 11.8602 17.1236 12.5515C17.1489 12.8268 17.1749 13.0962 17.1936 13.3715C17.2062 13.5828 17.4429 13.6915 17.6156 13.5702C17.8329 13.4102 18.0569 13.2502 18.2869 13.0962C18.8622 12.7055 19.4309 12.3148 20.0189 11.9368L20.2362 11.8022C19.3222 10.9695 18.1589 10.3995 16.8742 10.2202ZM17.7369 22.4135C17.3662 21.8242 17.0209 21.2162 16.6756 20.6142C16.5222 20.3515 16.3749 20.0888 16.2342 19.8202C16.1322 19.6342 15.8696 19.6342 15.7676 19.8202C15.6202 20.0955 15.4669 20.3648 15.3076 20.6268C14.9562 21.2288 14.6042 21.8308 14.2336 22.4202L14.0736 22.6762C14.6682 22.8622 15.3009 22.9582 15.9529 22.9582C16.6242 22.9582 17.2762 22.8555 17.8836 22.6568L17.7369 22.4135ZM16.8742 10.2202L16.9062 10.4702C16.9956 11.1615 17.0596 11.8602 17.1236 12.5515C17.1489 12.8268 17.1749 13.0962 17.1936 13.3715C17.2062 13.5828 17.4429 13.6915 17.6156 13.5702C17.8329 13.4102 18.0569 13.2502 18.2869 13.0962C18.8622 12.7055 19.4309 12.3148 20.0189 11.9368L20.2362 11.8022C19.3222 10.9695 18.1589 10.3995 16.8742 10.2202ZM21.7509 18.6802C21.0542 18.6355 20.3636 18.5715 19.6669 18.5075C19.3662 18.4822 19.0722 18.4502 18.7722 18.4175C18.5802 18.3922 18.4269 18.5842 18.4976 18.7695C18.6062 19.0575 18.7082 19.3462 18.8109 19.6408C19.0349 20.2942 19.2649 20.9535 19.4756 21.6195L19.5456 21.8502C20.6576 21.0882 21.5209 19.9868 21.9742 18.6928L21.7509 18.6802ZM21.4122 13.2235L21.2396 13.4095C20.7602 13.9222 20.2682 14.4148 19.7756 14.9082C19.4622 15.2282 19.1236 15.5355 18.7976 15.8495C19.2322 15.9582 19.6669 16.0735 20.1016 16.2015C20.7729 16.3935 21.4376 16.5795 22.1022 16.7968L22.3389 16.8735C22.3456 16.7708 22.3456 16.6622 22.3456 16.5535C22.3456 15.3308 22.0069 14.1908 21.4122 13.2235ZM21.4122 13.2235L21.2396 13.4095C20.7602 13.9222 20.2682 14.4148 19.7756 14.9082C19.4622 15.2282 19.1236 15.5355 18.7976 15.8495C19.2322 15.9582 19.6669 16.0735 20.1016 16.2015C20.7729 16.3935 21.4376 16.5795 22.1022 16.7968L22.3389 16.8735C22.3456 16.7708 22.3456 16.6622 22.3456 16.5535C22.3456 15.3308 22.0069 14.1908 21.4122 13.2235ZM21.7509 18.6802C21.0542 18.6355 20.3636 18.5715 19.6669 18.5075C19.3662 18.4822 19.0722 18.4502 18.7722 18.4175C18.5802 18.3922 18.4269 18.5842 18.4976 18.7695C18.6062 19.0575 18.7082 19.3462 18.8109 19.6408C19.0349 20.2942 19.2649 20.9535 19.4756 21.6195L19.5456 21.8502C20.6576 21.0882 21.5209 19.9868 21.9742 18.6928L21.7509 18.6802ZM16.8742 10.2202L16.9062 10.4702C16.9956 11.1615 17.0596 11.8602 17.1236 12.5515C17.1489 12.8268 17.1749 13.0962 17.1936 13.3715C17.2062 13.5828 17.4429 13.6915 17.6156 13.5702C17.8329 13.4102 18.0569 13.2502 18.2869 13.0962C18.8622 12.7055 19.4309 12.3148 20.0189 11.9368L20.2362 11.8022C19.3222 10.9695 18.1589 10.3995 16.8742 10.2202ZM16.8742 10.2202L16.9062 10.4702C16.9956 11.1615 17.0596 11.8602 17.1236 12.5515C17.1489 12.8268 17.1749 13.0962 17.1936 13.3715C17.2062 13.5828 17.4429 13.6915 17.6156 13.5702C17.8329 13.4102 18.0569 13.2502 18.2869 13.0962C18.8622 12.7055 19.4309 12.3148 20.0189 11.9368L20.2362 11.8022C19.3222 10.9695 18.1589 10.3995 16.8742 10.2202ZM21.4122 13.2235L21.2396 13.4095C20.7602 13.9222 20.2682 14.4148 19.7756 14.9082C19.4622 15.2282 19.1236 15.5355 18.7976 15.8495C19.2322 15.9582 19.6669 16.0735 20.1016 16.2015C20.7729 16.3935 21.4376 16.5795 22.1022 16.7968L22.3389 16.8735C22.3456 16.7708 22.3456 16.6622 22.3456 16.5535C22.3456 15.3308 22.0069 14.1908 21.4122 13.2235ZM21.4122 13.2235L21.2396 13.4095C20.7602 13.9222 20.2682 14.4148 19.7756 14.9082C19.4622 15.2282 19.1236 15.5355 18.7976 15.8495C19.2322 15.9582 19.6669 16.0735 20.1016 16.2015C20.7729 16.3935 21.4376 16.5795 22.1022 16.7968L22.3389 16.8735C22.3456 16.7708 22.3456 16.6622 22.3456 16.5535C22.3456 15.3308 22.0069 14.1908 21.4122 13.2235ZM16.8742 10.2202L16.9062 10.4702C16.9956 11.1615 17.0596 11.8602 17.1236 12.5515C17.1489 12.8268 17.1749 13.0962 17.1936 13.3715C17.2062 13.5828 17.4429 13.6915 17.6156 13.5702C17.8329 13.4102 18.0569 13.2502 18.2869 13.0962C18.8622 12.7055 19.4309 12.3148 20.0189 11.9368L20.2362 11.8022C19.3222 10.9695 18.1589 10.3995 16.8742 10.2202ZM16.8742 10.2202L16.9062 10.4702C16.9956 11.1615 17.0596 11.8602 17.1236 12.5515C17.1489 12.8268 17.1749 13.0962 17.1936 13.3715C17.2062 13.5828 17.4429 13.6915 17.6156 13.5702C17.8329 13.4102 18.0569 13.2502 18.2869 13.0962C18.8622 12.7055 19.4309 12.3148 20.0189 11.9368L20.2362 11.8022C19.3222 10.9695 18.1589 10.3995 16.8742 10.2202ZM21.4122 13.2235L21.2396 13.4095C20.7602 13.9222 20.2682 14.4148 19.7756 14.9082C19.4622 15.2282 19.1236 15.5355 18.7976 15.8495C19.2322 15.9582 19.6669 16.0735 20.1016 16.2015C20.7729 16.3935 21.4376 16.5795 22.1022 16.7968L22.3389 16.8735C22.3456 16.7708 22.3456 16.6622 22.3456 16.5535C22.3456 15.3308 22.0069 14.1908 21.4122 13.2235ZM21.4122 13.2235L21.2396 13.4095C20.7602 13.9222 20.2682 14.4148 19.7756 14.9082C19.4622 15.2282 19.1236 15.5355 18.7976 15.8495C19.2322 15.9582 19.6669 16.0735 20.1016 16.2015C20.7729 16.3935 21.4376 16.5795 22.1022 16.7968L22.3389 16.8735C22.3456 16.7708 22.3456 16.6622 22.3456 16.5535C22.3456 15.3308 22.0069 14.1908 21.4122 13.2235ZM16.8742 10.2202L16.9062 10.4702C16.9956 11.1615 17.0596 11.8602 17.1236 12.5515C17.1489 12.8268 17.1749 13.0962 17.1936 13.3715C17.2062 13.5828 17.4429 13.6915 17.6156 13.5702C17.8329 13.4102 18.0569 13.2502 18.2869 13.0962C18.8622 12.7055 19.4309 12.3148 20.0189 11.9368L20.2362 11.8022C19.3222 10.9695 18.1589 10.3995 16.8742 10.2202ZM16.8742 10.2202L16.9062 10.4702C16.9956 11.1615 17.0596 11.8602 17.1236 12.5515C17.1489 12.8268 17.1749 13.0962 17.1936 13.3715C17.2062 13.5828 17.4429 13.6915 17.6156 13.5702C17.8329 13.4102 18.0569 13.2502 18.2869 13.0962C18.8622 12.7055 19.4309 12.3148 20.0189 11.9368L20.2362 11.8022C19.3222 10.9695 18.1589 10.3995 16.8742 10.2202ZM16.8742 10.2202L16.9062 10.4702C16.9956 11.1615 17.0596 11.8602 17.1236 12.5515C17.1489 12.8268 17.1749 13.0962 17.1936 13.3715C17.2062 13.5828 17.4429 13.6915 17.6156 13.5702C17.8329 13.4102 18.0569 13.2502 18.2869 13.0962C18.8622 12.7055 19.4309 12.3148 20.0189 11.9368L20.2362 11.8022C19.3222 10.9695 18.1589 10.3995 16.8742 10.2202Z" fill="#0277BD"/>
</svg>
