<svg width="20" height="20" viewBox="0 0 20 20" fill="none" xmlns="http://www.w3.org/2000/svg">
<path d="M9.93067 0.00167897C9.75386 0.0104212 9.58063 0.0534491 9.42113 0.128239L2.46815 3.38912C2.28819 3.47347 2.13007 3.59622 2.00552 3.74823C1.88098 3.90024 1.79322 4.07762 1.74875 4.26718L0.0334044 11.5919C-0.0062055 11.7607 -0.0106384 11.9355 0.0203681 12.1059C0.0513746 12.2764 0.11719 12.4391 0.213921 12.5843C0.237375 12.6199 0.262601 12.6542 0.289506 12.6873L5.10208 18.5606C5.22666 18.7126 5.3848 18.8353 5.56476 18.9196C5.74472 19.0039 5.94189 19.0477 6.14161 19.0476L13.8593 19.0459C14.059 19.046 14.2561 19.0024 14.4361 18.9182C14.616 18.8341 14.7742 18.7115 14.8989 18.5597L19.7097 12.6856C19.8343 12.5335 19.9221 12.3561 19.9666 12.1665C20.0111 11.9768 20.0111 11.7798 19.9667 11.5902L18.2486 4.26543C18.2042 4.07587 18.1164 3.8985 17.9919 3.74648C17.8673 3.59447 17.7092 3.47173 17.5292 3.38737L10.5754 0.128239C10.3747 0.0341593 10.1531 -0.00935853 9.93067 0.00167897Z" fill="#326CE5"/>
</svg>
