<svg width="24" height="24" viewBox="0 0 24 24" fill="none" xmlns="http://www.w3.org/2000/svg">
<path d="M15.1875 17.9591L8.57812 21.5565L2 18.0685V2.44346L8.57812 6.19346M15.1875 17.9591L21.7387 21.4683L21.7812 6.05284L15.1875 2.44346L8.57812 6.19346M8.57812 6.19346V21.5565M15.1875 2.44346V17.9591M19.875 7.02421L18.3842 8.51509M18.3842 8.51509L16.8933 10.006M18.3842 8.51509L16.8933 7.02421M18.3842 8.51509L19.875 10.006" stroke="#97A5B0" stroke-linecap="round" stroke-linejoin="round"/>
<path d="M12.7621 15.355C13.0561 15.355 13.2951 15.5933 13.2953 15.8872C13.2953 15.98 13.2687 16.0661 13.2269 16.1421C13.2221 16.151 13.2176 16.1599 13.2123 16.1685C13.2021 16.1848 13.191 16.2002 13.1791 16.2153C13.1709 16.2257 13.1626 16.2358 13.1537 16.2456C13.1426 16.2577 13.1307 16.2687 13.1185 16.2798C13.1041 16.2929 13.0894 16.3054 13.0736 16.3169C13.0653 16.323 13.0569 16.3289 13.0482 16.3345C13.0294 16.3466 13.0099 16.357 12.9896 16.3667C12.9795 16.3715 12.9698 16.3772 12.9594 16.3813C12.9398 16.3892 12.9194 16.3944 12.8988 16.3999C12.8862 16.4033 12.8737 16.4072 12.8607 16.4097C12.8287 16.4157 12.7959 16.4204 12.7621 16.4204L12.6556 16.4097C12.6317 16.4048 12.609 16.3962 12.5863 16.3882C12.5792 16.3857 12.5718 16.3841 12.5648 16.3813C12.5505 16.3756 12.5374 16.3677 12.5238 16.3608C12.5061 16.3519 12.4885 16.3433 12.472 16.3325C12.4642 16.3274 12.4571 16.3214 12.4496 16.3159C12.4318 16.3029 12.4149 16.289 12.3988 16.2739C12.3887 16.2644 12.3788 16.2549 12.3695 16.2446C12.3579 16.2319 12.3476 16.2184 12.3373 16.2046C12.3282 16.1924 12.319 16.1804 12.3109 16.1675C12.3004 16.1505 12.2912 16.1329 12.2826 16.1147C12.2771 16.1032 12.2716 16.0916 12.267 16.0796C12.2602 16.0622 12.2553 16.0441 12.2504 16.0259C12.2466 16.0119 12.2413 15.9983 12.2386 15.9839C12.2329 15.9526 12.2299 15.9202 12.2299 15.8872C12.2299 15.8504 12.2335 15.8145 12.2406 15.7798C12.2548 15.7105 12.2824 15.646 12.3207 15.5894C12.4163 15.4479 12.5785 15.3551 12.7621 15.355ZM15.0804 15.0327C15.1845 15.054 15.2776 15.1059 15.35 15.1782C15.4461 15.2745 15.5061 15.4074 15.5062 15.5542C15.5062 15.6437 15.4808 15.7272 15.4418 15.8013C15.4348 15.8145 15.4283 15.8278 15.4203 15.8403C15.4124 15.8526 15.4037 15.864 15.3949 15.8755C15.3849 15.8886 15.3748 15.9014 15.3636 15.9136C15.3525 15.9257 15.3407 15.9367 15.3285 15.9478C15.3163 15.9588 15.3036 15.9691 15.2904 15.979C15.2784 15.988 15.267 15.9974 15.2543 16.0054C15.2371 16.0161 15.219 16.0249 15.2006 16.0337C15.1902 16.0386 15.1801 16.0441 15.1693 16.0483C15.1472 16.0572 15.1244 16.064 15.101 16.0698C15.0925 16.0719 15.0842 16.075 15.0756 16.0767C15.0423 16.0832 15.0082 16.0874 14.973 16.0874L14.8656 16.0767C14.8409 16.0716 14.8176 16.0625 14.7943 16.0542C14.7882 16.052 14.7818 16.0507 14.7758 16.0483C14.7571 16.0409 14.7396 16.0314 14.722 16.022C14.7112 16.0162 14.7002 16.0109 14.6898 16.0044C14.6748 15.9949 14.6608 15.9841 14.6469 15.9731C14.6341 15.9632 14.6216 15.953 14.6097 15.9419C14.6008 15.9335 14.5927 15.9245 14.5844 15.9155C14.5695 15.8996 14.5552 15.8834 14.5424 15.8657C14.5362 15.8571 14.5305 15.8483 14.5248 15.8394C14.513 15.8209 14.503 15.8016 14.4935 15.7817C14.4882 15.7704 14.4825 15.7593 14.4779 15.7476C14.4689 15.7245 14.4612 15.7008 14.4554 15.6763C14.454 15.6701 14.4518 15.664 14.4506 15.6577C14.444 15.6243 14.4408 15.5895 14.4408 15.5542C14.4409 15.4807 14.4558 15.4108 14.4828 15.3472C14.5098 15.2835 14.5489 15.2264 14.597 15.1782C14.6934 15.082 14.8261 15.022 14.973 15.022L15.0804 15.0327ZM10.5511 14.8081C10.7349 14.8081 10.8978 14.901 10.9935 15.0425C11.0239 15.0872 11.0443 15.1379 11.0599 15.1909C11.074 15.2385 11.0843 15.2882 11.0844 15.3403C11.0844 15.4331 11.0577 15.5193 11.016 15.5952C11.0111 15.6041 11.0067 15.613 11.0013 15.6216C10.9911 15.6379 10.98 15.6534 10.9681 15.6685C10.96 15.6789 10.9517 15.689 10.9427 15.6987C10.9313 15.7112 10.9192 15.7226 10.9066 15.7339C10.8939 15.7454 10.8813 15.7568 10.8676 15.7671C10.8568 15.7751 10.8457 15.7824 10.8344 15.7896C10.8165 15.8009 10.7979 15.8107 10.7787 15.8198C10.7686 15.8246 10.7589 15.8303 10.7484 15.8345C10.7241 15.8442 10.6991 15.8518 10.6732 15.8579C10.667 15.8594 10.661 15.8616 10.6547 15.8628C10.6212 15.8694 10.5866 15.8735 10.5511 15.8735L10.4447 15.8628C10.4207 15.8579 10.398 15.8493 10.3754 15.8413C10.3683 15.8388 10.3608 15.8373 10.3539 15.8345C10.3348 15.8268 10.3171 15.8168 10.2992 15.8071C10.2893 15.8018 10.2794 15.7965 10.2699 15.7905C10.2554 15.7814 10.2415 15.7717 10.2279 15.7612C10.2143 15.7508 10.2014 15.7397 10.1888 15.728C10.1784 15.7182 10.1682 15.7084 10.1586 15.6978C10.147 15.6851 10.1366 15.6715 10.1263 15.6577C10.1172 15.6455 10.108 15.6336 10.1 15.6206C10.0894 15.6037 10.0803 15.586 10.0717 15.5679C10.0663 15.5566 10.0606 15.5454 10.056 15.5337C10.048 15.5132 10.0419 15.4919 10.0365 15.4702C10.0339 15.4598 10.0307 15.4496 10.0287 15.439C10.0227 15.407 10.0189 15.374 10.0189 15.3403C10.0191 15.0466 10.2574 14.8084 10.5511 14.8081ZM3.78845 14.6421C4.08242 14.6422 4.32065 14.8803 4.32068 15.1743C4.32068 15.2225 4.31216 15.2686 4.30017 15.313C4.2944 15.3344 4.28794 15.3552 4.27966 15.3755C4.27794 15.3797 4.27661 15.384 4.27478 15.3882C4.2635 15.4139 4.24976 15.438 4.23474 15.4614C4.22776 15.4723 4.22001 15.4824 4.21228 15.4927C4.20072 15.5081 4.1883 15.5226 4.17517 15.5366C4.16537 15.5471 4.15551 15.5572 4.1449 15.5669C4.13219 15.5785 4.11864 15.5888 4.10486 15.5991C4.09338 15.6077 4.08187 15.6159 4.0697 15.6235C4.0502 15.6358 4.03025 15.647 4.00916 15.6567C4.00265 15.6597 3.99626 15.6628 3.98962 15.6655C3.96353 15.6763 3.93656 15.6844 3.90857 15.6909C3.90265 15.6923 3.89698 15.6946 3.89099 15.6958C3.85757 15.7024 3.82284 15.7075 3.78748 15.7075L3.68005 15.6958C3.64744 15.6891 3.61644 15.6779 3.5863 15.6655C3.57723 15.6618 3.56875 15.657 3.55994 15.6528C3.53941 15.643 3.51934 15.6329 3.50037 15.6206C3.48855 15.613 3.47733 15.6047 3.46619 15.5962C3.45328 15.5863 3.44102 15.5759 3.42908 15.5649C3.41462 15.5516 3.40098 15.5378 3.38806 15.5229C3.37951 15.5132 3.37147 15.5031 3.36365 15.4927C3.35436 15.4803 3.34549 15.4678 3.33728 15.4546C3.32864 15.4407 3.32121 15.4263 3.31384 15.4116C3.30614 15.3963 3.29857 15.3809 3.29236 15.3647C3.28479 15.3451 3.27902 15.3249 3.2738 15.3042C3.27142 15.2947 3.26786 15.2855 3.26599 15.2759C3.25961 15.243 3.25526 15.2091 3.25525 15.1743C3.25529 15.101 3.2704 15.0308 3.29724 14.9673C3.36457 14.8078 3.50756 14.6883 3.68103 14.6528C3.71558 14.6458 3.75182 14.6421 3.78845 14.6421ZM5.9281 14.2612C6.03832 14.2613 6.14102 14.2946 6.22595 14.3521C6.28269 14.3904 6.33116 14.4399 6.36951 14.4966C6.42681 14.5815 6.46033 14.6843 6.46033 14.7944C6.46029 14.8423 6.45169 14.888 6.43982 14.9321C6.43418 14.9531 6.42834 14.9738 6.42029 14.9937C6.41649 15.003 6.4119 15.0119 6.40759 15.021C6.39792 15.0414 6.38649 15.0607 6.37439 15.0796C6.36728 15.0907 6.35982 15.1013 6.35193 15.1118C6.34037 15.1273 6.32795 15.1417 6.31482 15.1558C6.30454 15.1668 6.29376 15.1769 6.28259 15.187C6.27143 15.1971 6.26041 15.2072 6.24841 15.2163C6.23537 15.2262 6.22232 15.2359 6.20837 15.2446C6.19144 15.2552 6.17378 15.2643 6.15564 15.2729C6.14525 15.2779 6.13514 15.2833 6.12439 15.2876C6.10228 15.2965 6.07949 15.3032 6.05603 15.3091C6.04754 15.3112 6.03928 15.3142 6.03064 15.3159C5.99864 15.3222 5.96579 15.3254 5.93201 15.3257C5.93061 15.3257 5.92853 15.3257 5.92712 15.3257V15.3267L5.91638 15.3247C5.85841 15.3235 5.80334 15.3128 5.75134 15.2944C5.74424 15.2919 5.73682 15.2904 5.72986 15.2876C5.7108 15.2799 5.69307 15.27 5.67517 15.2603C5.66525 15.2549 5.6554 15.2496 5.64587 15.2437C5.62956 15.2334 5.61406 15.2224 5.599 15.2104C5.58863 15.2023 5.57845 15.194 5.56873 15.1851C5.55664 15.174 5.54556 15.1621 5.53455 15.1499C5.52177 15.1358 5.50964 15.1214 5.49841 15.106C5.49165 15.0967 5.48504 15.0874 5.47888 15.0776C5.46733 15.0594 5.45694 15.0406 5.44763 15.021C5.44227 15.0097 5.43657 14.9985 5.43201 14.9868C5.424 14.9663 5.41792 14.945 5.41248 14.9233C5.40988 14.913 5.40664 14.9027 5.40466 14.8921C5.3987 14.8602 5.3949 14.8271 5.3949 14.7935C5.39493 14.757 5.39864 14.7214 5.40564 14.687C5.44097 14.5136 5.56086 14.3707 5.72009 14.3032C5.78369 14.2763 5.85372 14.2613 5.92712 14.2612H5.9281ZM8.23376 14.2612C8.52768 14.2612 8.76668 14.4996 8.76697 14.7935L8.75525 14.9009C8.74868 14.933 8.73801 14.9639 8.72595 14.9937C8.72215 15.003 8.71757 15.0119 8.71326 15.021C8.70357 15.0415 8.69217 15.0607 8.68005 15.0796C8.6723 15.0917 8.66432 15.1033 8.65564 15.1147C8.64566 15.1279 8.63552 15.1407 8.62439 15.1528C8.61327 15.1649 8.60141 15.176 8.58923 15.187C8.57702 15.1981 8.56435 15.2083 8.55115 15.2183C8.53919 15.2272 8.52772 15.2367 8.51501 15.2446C8.49785 15.2554 8.4797 15.2642 8.4613 15.2729C8.45091 15.2779 8.44081 15.2833 8.43005 15.2876C8.40793 15.2964 8.38516 15.3032 8.36169 15.3091C8.3532 15.3112 8.34495 15.3142 8.3363 15.3159C8.30306 15.3224 8.26892 15.3266 8.23376 15.3267L8.12634 15.3159C8.10165 15.3109 8.07837 15.3018 8.05505 15.2935C8.04893 15.2913 8.04252 15.29 8.0365 15.2876C8.01783 15.2801 8.00034 15.2707 7.98279 15.2612C7.97197 15.2554 7.96092 15.2502 7.95056 15.2437C7.93451 15.2335 7.91949 15.2222 7.90466 15.2104C7.8943 15.2023 7.88411 15.194 7.87439 15.1851C7.86232 15.174 7.85121 15.1621 7.84021 15.1499C7.82745 15.1358 7.81529 15.1214 7.80408 15.106C7.79759 15.097 7.79146 15.0879 7.78552 15.0786C7.77378 15.0602 7.76372 15.0409 7.75427 15.021C7.7489 15.0097 7.74322 14.9986 7.73865 14.9868C7.72963 14.9637 7.72194 14.9401 7.71619 14.9155C7.71473 14.9093 7.71254 14.9033 7.7113 14.897C7.70474 14.8636 7.70154 14.8288 7.70154 14.7935C7.70175 14.573 7.83567 14.384 8.02673 14.3032C8.09031 14.2764 8.16041 14.2613 8.23376 14.2612ZM17.1605 14.0474C17.3441 14.0475 17.5063 14.1403 17.6019 14.2817C17.6323 14.3265 17.6527 14.3771 17.6683 14.4302C17.6824 14.4778 17.6927 14.5274 17.6927 14.5796C17.6927 14.6276 17.6842 14.674 17.6722 14.7183C17.6666 14.7392 17.6608 14.7599 17.6527 14.7798C17.6489 14.7891 17.6443 14.798 17.64 14.8071C17.6303 14.8276 17.6189 14.8468 17.6068 14.8657C17.5997 14.8768 17.5922 14.8874 17.5844 14.8979C17.5728 14.9134 17.5604 14.9278 17.5472 14.9419C17.5374 14.9524 17.5276 14.9625 17.517 14.9722C17.5038 14.9842 17.4903 14.9957 17.476 15.0063C17.4652 15.0143 17.4541 15.0216 17.4427 15.0288C17.4249 15.0401 17.4063 15.0499 17.3871 15.0591C17.377 15.0639 17.3673 15.0696 17.3568 15.0737C17.3325 15.0835 17.3075 15.0911 17.2816 15.0972C17.2754 15.0986 17.2694 15.1008 17.2631 15.1021C17.2311 15.1084 17.1982 15.1115 17.1644 15.1118C17.163 15.1118 17.161 15.1118 17.1595 15.1118V15.1128L17.1488 15.1108C17.0908 15.1096 17.0358 15.0989 16.9838 15.0806C16.9767 15.0781 16.9692 15.0765 16.9623 15.0737C16.9432 15.0661 16.9255 15.0561 16.9076 15.0464C16.8977 15.041 16.8878 15.0358 16.8783 15.0298C16.862 15.0195 16.8465 15.0085 16.8314 14.9966C16.821 14.9884 16.8109 14.9801 16.8011 14.9712C16.7887 14.9598 16.7773 14.9476 16.766 14.9351C16.7554 14.9234 16.7452 14.9115 16.7357 14.8989C16.7248 14.8845 16.7148 14.8695 16.7054 14.854C16.6972 14.8404 16.69 14.8264 16.683 14.812C16.6767 14.7991 16.6697 14.7865 16.6644 14.7729C16.6564 14.7524 16.6503 14.7312 16.6449 14.7095C16.6423 14.6991 16.6391 14.6888 16.6371 14.6782C16.6311 14.6463 16.6273 14.6133 16.6273 14.5796C16.6275 14.3958 16.721 14.2338 16.8627 14.1382C16.9193 14.1 16.9838 14.0722 17.0531 14.0581C17.0877 14.0511 17.1239 14.0474 17.1605 14.0474ZM18.5863 12.5024C18.6597 12.5024 18.7297 12.5175 18.7933 12.5444C18.8573 12.5714 18.9149 12.6103 18.9633 12.6587C19.0353 12.7309 19.0875 12.8235 19.1088 12.9272C19.1159 12.9619 19.1195 12.9979 19.1195 13.0347L19.1078 13.1421C19.1038 13.1615 19.0972 13.1801 19.0912 13.1987C19.0824 13.2257 19.0707 13.251 19.058 13.2759C19.0502 13.2912 19.0428 13.3064 19.0336 13.3208C19.0257 13.333 19.017 13.3444 19.0082 13.356C18.9982 13.3691 18.9881 13.3819 18.9769 13.394C18.9661 13.4058 18.9546 13.4165 18.9427 13.4272C18.9294 13.4395 18.9153 13.4506 18.9008 13.4614C18.8898 13.4695 18.8791 13.4776 18.8676 13.4849C18.8519 13.4947 18.8355 13.503 18.8187 13.5112C18.8064 13.5172 18.7944 13.5237 18.7816 13.5288C18.7586 13.538 18.7348 13.5444 18.7103 13.5503C18.7031 13.552 18.6962 13.5547 18.6888 13.5562C18.6556 13.5627 18.6215 13.5679 18.5863 13.5679L18.4789 13.5562C18.4479 13.5498 18.4178 13.5403 18.389 13.5288C18.3734 13.5226 18.359 13.514 18.3441 13.5063C18.3289 13.4985 18.3135 13.4912 18.2992 13.4819C18.288 13.4747 18.2776 13.4665 18.267 13.4585C18.2514 13.4468 18.2362 13.4347 18.222 13.4214C18.2135 13.4133 18.2056 13.4046 18.1976 13.396C18.1832 13.3805 18.1701 13.3642 18.1576 13.3472C18.1503 13.3372 18.1427 13.3274 18.1361 13.3169C18.1251 13.2994 18.1158 13.281 18.1068 13.2622C18.1013 13.2506 18.0959 13.2391 18.0912 13.2271C18.0899 13.2237 18.0876 13.2207 18.0863 13.2173L18.0648 13.1421C18.0645 13.1405 18.0642 13.1388 18.0638 13.1372C18.0574 13.104 18.0541 13.0697 18.0541 13.0347C18.0541 12.9979 18.0577 12.9619 18.0648 12.9272C18.1004 12.754 18.2201 12.6118 18.3793 12.5444C18.4429 12.5175 18.5129 12.5025 18.5863 12.5024Z" fill="#97A5B0"/>
</svg>
