<svg viewBox="0 0 24 24" fill="none" xmlns="http://www.w3.org/2000/svg">
  <path d="M19.5625 3C19.252 3 19 3.252 19 3.5625C19 4.6965 11.6425 8.625 3.8125 8.625C2.26225 8.625 1 9.88613 1 11.4375C1 12.9889 2.26225 14.25 3.8125 14.25C4.57075 14.25 5.3335 14.3051 6.09062 14.3884C6.0985 14.4176 6.09737 14.4491 6.11087 14.4784L8.36087 19.5409C8.45425 19.7512 8.66012 19.875 8.875 19.875C8.95037 19.875 9.02912 19.8593 9.10337 19.8266C9.38687 19.7006 9.51512 19.3676 9.38912 19.0841L7.381 14.565C13.5179 15.5797 19 18.849 19 20.4375C19 20.748 19.252 21 19.5625 21C19.873 21 20.125 20.748 20.125 20.4375V3.5625C20.125 3.252 19.873 3 19.5625 3ZM19 18.3675C16.4237 15.7912 9.8515 13.125 3.8125 13.125C2.88212 13.125 2.125 12.3679 2.125 11.4375C2.125 10.5071 2.88212 9.75 3.8125 9.75C9.74125 9.75 16.399 7.44825 19 5.277V18.3675Z" fill="currentColor" />
  <path d="M22.9375 9.75C22.627 9.75 22.375 10.002 22.375 10.3125V14.8125C22.375 15.123 22.627 15.375 22.9375 15.375C23.248 15.375 23.5 15.123 23.5 14.8125V10.3125C23.5 10.002 23.248 9.75 22.9375 9.75Z" fill="currentColor" />
</svg>