<svg width="20" height="20" viewBox="0 0 20 20" fill="none" xmlns="http://www.w3.org/2000/svg">
<path d="M5.20833 4.58333V5C5.20833 6.15059 4.27559 7.08333 3.125 7.08333H2.70833V10.4167H3.15948C4.31008 10.4167 5.24282 11.3494 5.24282 12.5V12.9167H15.2083V12.5C15.2083 11.3494 16.1411 10.4167 17.2917 10.4167H17.7083V7.08333H17.2917C16.1411 7.08333 15.2083 6.15059 15.2083 5V4.58333H5.20833ZM4.375 4.58333H3.95833C3.26798 4.58333 2.70833 5.14298 2.70833 5.83333V6.25H3.125C3.81536 6.25 4.375 5.69036 4.375 5V4.58333ZM4.40948 12.9167V12.5C4.40948 11.8096 3.84984 11.25 3.15948 11.25H2.70833V11.6667C2.70833 12.357 3.26798 12.9167 3.95833 12.9167H4.40948ZM4.97929 13.75C4.93189 13.7687 4.88022 13.779 4.82615 13.779C4.77208 13.779 4.72041 13.7687 4.67301 13.75H3.95833C2.80774 13.75 1.875 12.8173 1.875 11.6667V5.83333C1.875 4.68274 2.80774 3.75 3.95833 3.75H16.4583C17.6089 3.75 18.5417 4.68274 18.5417 5.83333V11.6667C18.5417 12.8173 17.6089 13.75 16.4583 13.75H4.97929ZM16.0417 12.9167H16.4583C17.1487 12.9167 17.7083 12.357 17.7083 11.6667V11.25H17.2917C16.6013 11.25 16.0417 11.8096 16.0417 12.5V12.9167ZM16.0417 4.58333V5C16.0417 5.69036 16.6013 6.25 17.2917 6.25H17.7083V5.83333C17.7083 5.14298 17.1487 4.58333 16.4583 4.58333H16.0417ZM10.2083 12.0833C8.36738 12.0833 6.875 10.5909 6.875 8.75C6.875 6.90905 8.36738 5.41667 10.2083 5.41667C12.0493 5.41667 13.5417 6.90905 13.5417 8.75C13.5417 10.5909 12.0493 12.0833 10.2083 12.0833ZM10.2083 11.25C11.589 11.25 12.7083 10.1307 12.7083 8.75C12.7083 7.36929 11.589 6.25 10.2083 6.25C8.82762 6.25 7.70833 7.36929 7.70833 8.75C7.70833 10.1307 8.82762 11.25 10.2083 11.25ZM2.29167 15.4167C2.06155 15.4167 1.875 15.2301 1.875 15C1.875 14.7699 2.06155 14.5833 2.29167 14.5833H18.125C18.3551 14.5833 18.5417 14.7699 18.5417 15C18.5417 15.2301 18.3551 15.4167 18.125 15.4167H2.29167ZM2.29167 17.0833C2.06155 17.0833 1.875 16.8968 1.875 16.6667C1.875 16.4365 2.06155 16.25 2.29167 16.25H18.125C18.3551 16.25 18.5417 16.4365 18.5417 16.6667C18.5417 16.8968 18.3551 17.0833 18.125 17.0833H2.29167Z" fill="#6D7C88"/>
</svg>
