<svg width="28" height="24" viewBox="0 0 28 24" fill="none" xmlns="http://www.w3.org/2000/svg">
<path fill-rule="evenodd" clip-rule="evenodd" d="M2.30648 15.9998C2.30648 14.1589 3.79886 12.6665 5.63981 12.6665H22.3598C24.2008 12.6665 25.6931 14.1589 25.6931 15.9998V18.6665C25.6931 20.5075 24.2008 21.9998 22.3598 21.9998H5.63981C3.79886 21.9998 2.30648 20.5075 2.30648 18.6665V15.9998ZM27.0265 7.99984C27.0265 9.69739 26.1201 11.1832 24.7649 11.9998C26.1201 12.8164 27.0265 14.3023 27.0265 15.9998V18.6665C27.0265 21.2438 24.9371 23.3332 22.3598 23.3332H5.63981C3.06248 23.3332 0.973145 21.2438 0.973145 18.6665V15.9998C0.973145 14.3023 1.87953 12.8164 3.23476 11.9998C1.87953 11.1832 0.973145 9.69739 0.973145 7.99984V5.33317C0.973145 2.75584 3.06248 0.666504 5.63981 0.666504H22.3598C24.9371 0.666504 27.0265 2.75584 27.0265 5.33317V7.99984ZM5.63981 1.99984C3.79886 1.99984 2.30648 3.49222 2.30648 5.33317V7.99984C2.30648 9.84079 3.79886 11.3332 5.63981 11.3332H22.3598C23.2439 11.3332 24.0917 10.982 24.7168 10.3569C25.342 9.73174 25.6931 8.88389 25.6931 7.99984V5.33317C25.6931 3.49222 24.2008 1.99984 22.3598 1.99984H5.63981ZM5.50905 6.74524C5.52282 7.11505 5.8298 7.40595 6.19981 7.39984C6.38746 7.39674 6.56549 7.31622 6.69174 7.17735C6.81799 7.03848 6.88122 6.8536 6.86648 6.6665C6.8374 6.29758 6.51865 6.01964 6.1492 6.04107C5.77976 6.0625 5.49528 6.37543 5.50905 6.74524ZM10.5331 7.39984C10.2558 7.40523 10.0029 7.24156 9.89426 6.98628C9.7856 6.731 9.84293 6.43531 10.0391 6.23913C10.2353 6.04295 10.531 5.98563 10.7863 6.09428C11.0415 6.20294 11.2052 6.45578 11.1998 6.73317C11.1927 7.09838 10.8984 7.39274 10.5331 7.39984ZM16.9731 7.39984H22.3065C22.6747 7.39984 22.9731 7.10136 22.9731 6.73317C22.9731 6.36498 22.6747 6.0665 22.3065 6.0665H16.9731C16.605 6.0665 16.3065 6.36498 16.3065 6.73317C16.3065 7.10136 16.605 7.39984 16.9731 7.39984ZM5.56215 17.6561C5.67161 17.9097 5.92363 18.0719 6.19981 18.0665C6.57015 18.0592 6.86655 17.7569 6.86648 17.3865C6.86643 17.1103 6.69927 16.8615 6.44353 16.7571C6.18779 16.6527 5.89429 16.7133 5.70091 16.9106C5.50752 17.1078 5.45268 17.4025 5.56215 17.6561ZM10.5331 18.0665C10.2558 18.0719 10.0029 17.9082 9.89426 17.6529C9.7856 17.3977 9.84293 17.102 10.0391 16.9058C10.2353 16.7096 10.531 16.6523 10.7863 16.761C11.0415 16.8696 11.2052 17.1224 11.1998 17.3998C11.1927 17.765 10.8984 18.0594 10.5331 18.0665ZM16.9731 18.0665H22.3065C22.6747 18.0665 22.9731 17.768 22.9731 17.3998C22.9731 17.0316 22.6747 16.7332 22.3065 16.7332H16.9731C16.605 16.7332 16.3065 17.0316 16.3065 17.3998C16.3065 17.768 16.605 18.0665 16.9731 18.0665Z" fill="#4E5F6D"/>
</svg>