<svg xmlns="http://www.w3.org/2000/svg" viewBox="0 0 13 13" fill="none">
  <path d="M4.83333 8.5V4.5M8.16667 8.5V4.5M3.7 12.5H9.3C10.4201 12.5 10.9802 12.5 11.408 12.282C11.7843 12.0903 12.0903 11.7843 12.282 11.408C12.5 10.9802 12.5 10.4201 12.5 9.3V3.7C12.5 2.5799 12.5 2.01984 12.282 1.59202C12.0903 1.21569 11.7843 0.909734 11.408 0.717987C10.9802 0.5 10.4201 0.5 9.3 0.5H3.7C2.5799 0.5 2.01984 0.5 1.59202 0.717987C1.21569 0.909734 0.909734 1.21569 0.717987 1.59202C0.5 2.01984 0.5 2.5799 0.5 3.7V9.3C0.5 10.4201 0.5 10.9802 0.717987 11.408C0.909734 11.7843 1.21569 12.0903 1.59202 12.282C2.01984 12.5 2.5799 12.5 3.7 12.5Z" stroke="#0B1117" stroke-linecap="round" stroke-linejoin="round"/>
</svg>