<svg width="14" height="15" viewBox="0 0 14 15" fill="none" xmlns="http://www.w3.org/2000/svg">
<path fill-rule="evenodd" clip-rule="evenodd" d="M8.46998 11.8812C8.46998 12.0745 8.31328 12.2312 8.11998 12.2312H5.83331C4.33846 12.2312 3.12664 11.0194 3.12664 9.52457V3.9654L1.99498 5.07957C1.85523 5.19455 1.65087 5.18403 1.52366 5.05531C1.39645 4.92658 1.38835 4.72212 1.50498 4.58374L3.21998 2.87457C3.28565 2.80867 3.37486 2.77163 3.46789 2.77163C3.56093 2.77163 3.65014 2.80867 3.71581 2.87457L5.42498 4.58374C5.5619 4.72066 5.5619 4.94265 5.42498 5.07957C5.28806 5.21649 5.06607 5.21649 4.92914 5.07957L3.81498 3.9654V9.5304C3.81652 10.0636 4.03022 10.5743 4.4089 10.9497C4.78758 11.3251 5.3001 11.5343 5.83331 11.5312H8.13748C8.32391 11.5406 8.47021 11.6946 8.46998 11.8812ZM12.2471 9.81829C12.154 9.81829 12.0648 9.85533 11.9991 9.92124L10.8791 11.0412V5.47624C10.8791 4.75737 10.5932 4.06803 10.0843 3.56027C9.57546 3.0525 8.88551 2.76802 8.16665 2.76957H5.87998C5.68668 2.76957 5.52998 2.92627 5.52998 3.11957C5.52998 3.31287 5.68668 3.46957 5.87998 3.46957H8.16665C9.2749 3.46957 10.1733 4.36798 10.1733 5.47624V11.0412L9.05331 9.92124C8.96474 9.83266 8.83564 9.79807 8.71465 9.83049C8.59366 9.86291 8.49915 9.95742 8.46673 10.0784C8.43432 10.1994 8.46891 10.3285 8.55748 10.4171L10.2725 12.1321C10.3382 12.198 10.4274 12.235 10.5204 12.235C10.6134 12.235 10.7026 12.198 10.7683 12.1321L12.495 10.4171C12.5609 10.3514 12.5979 10.2622 12.5979 10.1692C12.5979 10.0761 12.5609 9.98691 12.495 9.92124C12.4293 9.85533 12.3401 9.81829 12.2471 9.81829Z" fill="#E5E5E9"/>
<path d="M8.46998 11.8812L8.21998 11.8809V11.8812H8.46998ZM5.83331 12.2312V11.9812V12.2312ZM3.12664 9.52457H2.87664H3.12664ZM3.12664 3.9654H3.37664V3.36844L2.95125 3.78725L3.12664 3.9654ZM1.99498 5.07957L2.15381 5.27263L2.16242 5.26554L2.17037 5.25772L1.99498 5.07957ZM1.50498 4.58374L1.3285 4.40666L1.32081 4.41432L1.31381 4.42263L1.50498 4.58374ZM3.21998 2.87457L3.39645 3.05165L3.39706 3.05104L3.21998 2.87457ZM3.71581 2.87457L3.53873 3.05104L3.53903 3.05135L3.71581 2.87457ZM5.42498 4.58374L5.2482 4.76051L5.42498 4.58374ZM4.92914 5.07957L4.75237 5.25635L4.92914 5.07957ZM3.81498 3.9654L3.99175 3.78863L3.56498 3.36185V3.9654H3.81498ZM3.81498 9.5304H3.56498L3.56498 9.53112L3.81498 9.5304ZM5.83331 11.5312V11.2812L5.83186 11.2812L5.83331 11.5312ZM8.13748 11.5312L8.14999 11.2812H8.13748V11.5312ZM11.9991 9.92124L12.1759 10.098L12.1762 10.0977L11.9991 9.92124ZM10.8791 11.0412H10.6291V11.6448L11.0559 11.218L10.8791 11.0412ZM10.8791 5.47624L10.6291 5.47623V5.47624H10.8791ZM8.16665 2.76957V3.01957L8.16718 3.01957L8.16665 2.76957ZM5.87998 2.76957V2.51957V2.76957ZM8.16665 3.46957V3.21957V3.46957ZM10.1733 11.0412L9.99654 11.218L10.4233 11.6448V11.0412H10.1733ZM9.05331 9.92124L8.87653 10.098L9.05331 9.92124ZM8.55748 10.4171L8.3807 10.5938L8.55748 10.4171ZM10.2725 12.1321L10.4496 11.9556L10.4493 11.9553L10.2725 12.1321ZM10.7683 12.1321L10.5921 11.9547L10.5912 11.9556L10.7683 12.1321ZM12.495 10.4171L12.6712 10.5944L12.6714 10.5942L12.495 10.4171ZM12.495 9.92124L12.3179 10.0977L12.3185 10.0983L12.495 9.92124ZM8.21998 11.8812C8.21998 11.9365 8.17521 11.9812 8.11998 11.9812V12.4812C8.45135 12.4812 8.71998 12.2126 8.71998 11.8812H8.21998ZM8.11998 11.9812H5.83331V12.4812H8.11998V11.9812ZM5.83331 11.9812C4.47653 11.9812 3.37664 10.8813 3.37664 9.52457H2.87664C2.87664 11.1575 4.20039 12.4812 5.83331 12.4812V11.9812ZM3.37664 9.52457V3.9654H2.87664V9.52457H3.37664ZM2.95125 3.78725L1.81958 4.90142L2.17037 5.25772L3.30204 4.14355L2.95125 3.78725ZM1.83614 4.88651C1.79621 4.91936 1.73783 4.91636 1.70148 4.87958L1.34584 5.23103C1.56391 5.4517 1.91424 5.46973 2.15381 5.27263L1.83614 4.88651ZM1.70148 4.87958C1.66514 4.8428 1.66282 4.78438 1.69614 4.74484L1.31381 4.42263C1.11389 4.65985 1.12777 5.01037 1.34584 5.23103L1.70148 4.87958ZM1.68145 4.76081L3.39645 3.05165L3.0435 2.69749L1.3285 4.40666L1.68145 4.76081ZM3.39706 3.05104C3.41582 3.03221 3.44131 3.02163 3.46789 3.02163V2.52163C3.3084 2.52163 3.15548 2.58513 3.04289 2.6981L3.39706 3.05104ZM3.46789 3.02163C3.49448 3.02163 3.51996 3.03221 3.53873 3.05104L3.89289 2.6981C3.78031 2.58513 3.62739 2.52163 3.46789 2.52163V3.02163ZM3.53903 3.05135L5.2482 4.76051L5.60175 4.40696L3.89259 2.69779L3.53903 3.05135ZM5.2482 4.76051C5.28749 4.7998 5.28749 4.8635 5.2482 4.90279L5.60175 5.25635C5.83631 5.02179 5.83631 4.64151 5.60175 4.40696L5.2482 4.76051ZM5.2482 4.90279C5.20891 4.94208 5.14521 4.94208 5.10592 4.90279L4.75237 5.25635C4.98692 5.4909 5.3672 5.4909 5.60175 5.25635L5.2482 4.90279ZM5.10592 4.90279L3.99175 3.78863L3.6382 4.14218L4.75237 5.25635L5.10592 4.90279ZM3.56498 3.9654V9.5304H4.06498V3.9654H3.56498ZM3.56498 9.53112C3.56671 10.1308 3.80704 10.7051 4.23289 11.1272L4.58491 10.7721C4.2534 10.4435 4.06633 9.99647 4.06498 9.52968L3.56498 9.53112ZM4.23289 11.1272C4.65875 11.5494 5.23513 11.7847 5.83477 11.7812L5.83186 11.2812C5.36508 11.284 4.91641 11.1008 4.58491 10.7721L4.23289 11.1272ZM5.83331 11.7812H8.13748V11.2812H5.83331V11.7812ZM8.12498 11.7809C8.17824 11.7836 8.22004 11.8276 8.21998 11.8809L8.71998 11.8815C8.72038 11.5615 8.46958 11.2975 8.14998 11.2815L8.12498 11.7809ZM12.2471 9.56829C12.0876 9.56829 11.9346 9.63179 11.8221 9.74477L12.1762 10.0977C12.195 10.0789 12.2205 10.0683 12.2471 10.0683V9.56829ZM11.8224 9.74446L10.7024 10.8645L11.0559 11.218L12.1759 10.098L11.8224 9.74446ZM11.1291 11.0412V5.47624H10.6291V11.0412H11.1291ZM11.1291 5.47624C11.1291 4.69097 10.8168 3.93797 10.2609 3.3833L9.90773 3.73723C10.3696 4.1981 10.6291 4.82377 10.6291 5.47623L11.1291 5.47624ZM10.2609 3.3833C9.70504 2.82863 8.95137 2.51788 8.16611 2.51957L8.16718 3.01957C8.81965 3.01816 9.44587 3.27637 9.90773 3.73723L10.2609 3.3833ZM8.16665 2.51957H5.87998V3.01957H8.16665V2.51957ZM5.87998 2.51957C5.54861 2.51957 5.27998 2.7882 5.27998 3.11957H5.77998C5.77998 3.06434 5.82475 3.01957 5.87998 3.01957V2.51957ZM5.27998 3.11957C5.27998 3.45094 5.54861 3.71957 5.87998 3.71957V3.21957C5.82475 3.21957 5.77998 3.1748 5.77998 3.11957H5.27998ZM5.87998 3.71957H8.16665V3.21957H5.87998V3.71957ZM8.16665 3.71957C9.13683 3.71957 9.92331 4.50606 9.92331 5.47624H10.4233C10.4233 4.22991 9.41297 3.21957 8.16665 3.21957V3.71957ZM9.92331 5.47624V11.0412H10.4233V5.47624H9.92331ZM10.3501 10.8645L9.23009 9.74446L8.87653 10.098L9.99654 11.218L10.3501 10.8645ZM9.23009 9.74446C9.07836 9.59273 8.85721 9.53347 8.64995 9.58901L8.77936 10.072C8.81407 10.0627 8.85112 10.0726 8.87653 10.098L9.23009 9.74446ZM8.64995 9.58901C8.44268 9.64455 8.28079 9.80644 8.22525 10.0137L8.70822 10.1431C8.71752 10.1084 8.74464 10.0813 8.77936 10.072L8.64995 9.58901ZM8.22525 10.0137C8.16972 10.221 8.22897 10.4421 8.3807 10.5938L8.73426 10.2403C8.70884 10.2149 8.69891 10.1778 8.70822 10.1431L8.22525 10.0137ZM8.3807 10.5938L10.0957 12.3088L10.4493 11.9553L8.73426 10.2403L8.3807 10.5938ZM10.0954 12.3085C10.208 12.4215 10.3609 12.485 10.5204 12.485V11.985C10.4938 11.985 10.4683 11.9744 10.4496 11.9556L10.0954 12.3085ZM10.5204 12.485C10.6799 12.485 10.8328 12.4215 10.9454 12.3085L10.5912 11.9556C10.5725 11.9744 10.547 11.985 10.5204 11.985V12.485ZM10.9445 12.3094L12.6712 10.5944L12.3188 10.2397L10.5921 11.9547L10.9445 12.3094ZM12.6714 10.5942C12.7844 10.4816 12.8479 10.3286 12.8479 10.1692H12.3479C12.3479 10.1957 12.3373 10.2212 12.3185 10.24L12.6714 10.5942ZM12.8479 10.1692C12.8479 10.0097 12.7844 9.85673 12.6714 9.74415L12.3185 10.0983C12.3373 10.1171 12.3479 10.1426 12.3479 10.1692H12.8479ZM12.6721 9.74477C12.5595 9.63179 12.4066 9.56829 12.2471 9.56829V10.0683C12.2736 10.0683 12.2991 10.0789 12.3179 10.0977L12.6721 9.74477Z" fill="#E5E5E9"/>
</svg>