<svg width="20" height="20" viewBox="0 0 20 20" fill="none" xmlns="http://www.w3.org/2000/svg">
<path fill-rule="evenodd" clip-rule="evenodd" d="M11.6985 2.83112L11.1321 3.39755C10.9592 3.5704 10.862 3.80488 10.862 4.04937C10.862 4.24406 10.9237 4.4334 11.0376 4.59049L11.1097 4.67701C11.1487 4.71775 11.158 4.74022 11.158 4.76365C11.158 4.78708 11.1487 4.80956 11.1321 4.82612L8.12704 7.83117C8.07119 7.88703 7.9955 7.9184 7.91658 7.91841H5.65095C5.35094 7.91848 5.06333 8.03767 4.85128 8.24978L4.49418 8.60688C4.05263 9.04856 4.05263 9.76446 4.49414 10.2061L6.90884 12.6208L2.62204 16.9076L2.57383 16.9653C2.46133 17.1277 2.4774 17.3522 2.62204 17.4969C2.78476 17.6596 3.04858 17.6596 3.21129 17.4969L7.4981 13.21L9.91275 15.6247C10.3544 16.0663 11.0703 16.0663 11.512 15.6248L11.8692 15.2676C12.0812 15.0556 12.2004 14.7679 12.2005 14.468V12.2029C12.2005 12.1241 12.2319 12.0484 12.2877 11.9926L15.2927 8.98757C15.3096 8.97064 15.3321 8.96131 15.3555 8.96128C15.3742 8.96126 15.3923 8.96715 15.4074 8.97805L15.4422 9.00941C15.5906 9.15971 15.825 9.25686 16.0695 9.25686C16.314 9.25686 16.5485 9.15971 16.7213 8.98681L17.2877 8.42042C17.7293 7.97874 17.7293 7.26285 17.2878 6.82121L13.2977 2.83117C12.856 2.38962 12.1401 2.38962 11.6985 2.83112ZM7.79272 12.3262L10.502 15.0354C10.6182 15.1516 10.8066 15.1516 10.9228 15.0355L11.2799 14.6783C11.3358 14.6225 11.3671 14.5468 11.3671 14.4679V12.2028C11.3672 11.9029 11.4864 11.6153 11.6985 11.4033L14.7031 8.39865C14.8758 8.22557 15.1102 8.12819 15.3547 8.12795C15.5494 8.12775 15.7388 8.1892 15.9219 8.32332L16.0071 8.39764C16.0236 8.41421 16.0461 8.42352 16.0695 8.42352C16.093 8.42352 16.1154 8.41421 16.132 8.39759L16.6984 7.83121C16.8146 7.71499 16.8146 7.5266 16.6985 7.41042L12.7085 3.42047C12.5923 3.30428 12.4039 3.30428 12.2877 3.42042L11.7212 3.9869C11.7047 4.00346 11.6954 4.02593 11.6954 4.04937C11.6954 4.05544 11.696 4.06146 11.6965 4.06644C11.6976 4.07677 11.6982 4.08265 11.6918 4.07535L11.7212 4.11184C11.8942 4.28469 11.9913 4.51916 11.9913 4.76365C11.9913 5.00814 11.8942 5.24261 11.7213 5.41542L8.71634 8.42038C8.50429 8.63249 8.21668 8.75168 7.91667 8.75175H5.65104C5.57211 8.75176 5.49643 8.78313 5.44058 8.83899L5.08348 9.19609C4.9673 9.31231 4.9673 9.50071 5.08344 9.61688L7.79272 12.3262Z" fill="#4E5F6D"/>
</svg>
