<svg width="20" height="20" viewBox="0 0 20 20" fill="none" xmlns="http://www.w3.org/2000/svg">
<path fill-rule="evenodd" clip-rule="evenodd" d="M10.5736 4.64523C10.5242 4.3731 10.2861 4.16675 9.99971 4.16675C9.67754 4.16675 9.41637 4.42792 9.41637 4.75008V9.41676H4.74984L4.64498 9.42615C4.37286 9.47555 4.1665 9.71372 4.1665 10.0001C4.1665 10.3223 4.42767 10.5834 4.74984 10.5834H9.41637V15.2501L9.42577 15.3549C9.47516 15.6271 9.71334 15.8334 9.99971 15.8334C10.3219 15.8334 10.583 15.5722 10.583 15.2501V10.5834H15.2498L15.3547 10.574C15.6268 10.5246 15.8332 10.2865 15.8332 10.0001C15.8332 9.67792 15.572 9.41676 15.2498 9.41676H10.583V4.75008L10.5736 4.64523Z" fill="#333333"/>
</svg>
