<svg width="24" height="24" viewBox="0 0 24 24" fill="none" xmlns="http://www.w3.org/2000/svg">
  <path d="M11.8093 1C5.83976 1 1 5.83919 1 11.809C1 17.7785 5.83976 22.6181 11.8093 22.6181C17.7789 22.6181 22.6185 17.7785 22.6185 11.809C22.6185 5.83919 17.7787 1 11.8093 1ZM11.8093 21.2302C10.1109 21.2302 8.73385 20.0956 8.73385 18.6964H14.8848C14.8848 20.0954 13.5078 21.2302 11.8093 21.2302ZM16.8891 17.8573H6.72905V16.015H16.8893V17.8573H16.8891ZM16.8526 15.0668H6.75804C6.72447 15.0281 6.69013 14.9899 6.6577 14.9506C5.61772 13.6879 5.3728 13.0286 5.13493 12.3568C5.13093 12.3347 6.39599 12.6153 7.2931 12.8171C7.2931 12.8171 7.75472 12.9239 8.4296 13.0469C7.78162 12.2874 7.39687 11.3218 7.39687 10.3348C7.39687 8.16808 9.0587 6.27467 8.45917 4.74427C9.04268 4.79177 9.66682 5.97577 9.70897 7.82701C10.3293 6.96978 10.5889 5.40427 10.5889 4.44441C10.5889 3.45059 11.2438 2.29616 11.8988 2.25667C11.3149 3.21902 12.0501 4.04402 12.7036 6.0906C12.9487 6.85933 12.9174 8.15301 13.1066 8.97343C13.1694 7.26945 13.4624 4.78318 14.5434 3.9248C14.0665 5.00579 14.614 6.35841 14.9884 7.00869C15.5925 8.05782 15.9588 8.85269 15.9588 10.356C15.9588 11.3639 15.5866 12.3129 14.9589 13.0548C15.6726 12.9209 16.1655 12.8001 16.1655 12.8001L18.4836 12.3478C18.4838 12.3476 18.1469 13.7329 16.8526 15.0668Z" fill="#3E477C"/>
</svg>
