<svg width="16" height="16" viewBox="0 0 16 16" fill="none" xmlns="http://www.w3.org/2000/svg">
<path fill-rule="evenodd" clip-rule="evenodd" d="M1.33331 7.99992C1.33331 4.31802 4.31808 1.33325 7.99998 1.33325C11.6819 1.33325 14.6666 4.31802 14.6666 7.99992C14.6666 11.6818 11.6819 14.6666 7.99998 14.6666C4.31808 14.6666 1.33331 11.6818 1.33331 7.99992ZM14.0869 7.99992C14.0869 4.63819 11.3617 1.91296 7.99998 1.91296C4.63825 1.91296 1.91302 4.63819 1.91302 7.99992C1.91302 11.3617 4.63825 14.0869 7.99998 14.0869C11.3617 14.0869 14.0869 11.3617 14.0869 7.99992ZM7.99998 10.608L8.05898 10.612C8.27119 10.6408 8.43476 10.8227 8.43476 11.0428C8.43476 11.283 8.2401 11.4776 7.99998 11.4776C7.75986 11.4776 7.5652 11.283 7.5652 11.0428C7.5652 10.8227 7.72876 10.6408 7.94098 10.612L7.99998 10.608ZM9.95312 6.29348C9.67864 5.31803 8.72656 4.69465 7.72273 4.83311C6.71891 4.97158 5.97115 5.82943 5.97099 6.84276C5.97097 7.00284 6.10072 7.13263 6.26081 7.13266C6.42089 7.13268 6.55068 7.00293 6.5507 6.84285C6.55081 6.11904 7.08493 5.50629 7.80195 5.40738C8.51896 5.30848 9.19902 5.75376 9.39508 6.4505C9.59113 7.14725 9.24307 7.88183 8.57969 8.17135L8.48289 8.21792C8.0102 8.46725 7.71013 8.95937 7.71012 9.49961V9.73845L7.71479 9.79056C7.73934 9.92577 7.85768 10.0283 7.99998 10.0283C8.16006 10.0283 8.28983 9.89854 8.28983 9.73845V9.49961L8.29405 9.41394C8.32476 9.10293 8.52109 8.82944 8.81157 8.70266C9.7403 8.29733 10.2276 7.26893 9.95312 6.29348Z" fill="#4E5F6D"/>
</svg>
