<svg xmlns="http://www.w3.org/2000/svg" width="16" height="16" viewBox="0 0 16 16" fill="none">
  <circle cx="7.99993" cy="7.99993" r="5.71429" fill="white"/>
  <path d="M14.6668 7.99992C14.6668 11.6826 11.6818 14.6666 8.00016 14.6666C4.31852 14.6666 1.3335 11.6826 1.3335 7.99992C1.3335 4.31935 4.31852 1.33325 8.00016 1.33325C11.6818 1.33325 14.6668 4.31935 14.6668 7.99992ZM8.17906 3.53755C6.71409 3.53755 5.77973 4.15468 5.04602 5.25148C4.95097 5.39357 4.98277 5.58522 5.11901 5.68852L6.05178 6.39578C6.1917 6.50188 6.39105 6.47664 6.49976 6.33874C6.97997 5.72965 7.30925 5.37645 8.04016 5.37645C8.58933 5.37645 9.2686 5.72989 9.2686 6.26242C9.2686 6.665 8.93627 6.87175 8.39403 7.17575C7.76167 7.53024 6.92489 7.97145 6.92489 9.07519V9.18271C6.92489 9.36086 7.06933 9.5053 7.24747 9.5053H8.75285C8.931 9.5053 9.07543 9.36086 9.07543 9.18271V9.14688C9.07543 8.38177 11.3116 8.34992 11.3116 6.27949C11.3116 4.7203 9.69428 3.53755 8.17906 3.53755ZM8.00016 10.2042C7.31831 10.2042 6.7636 10.7589 6.7636 11.4408C6.7636 12.1226 7.31831 12.6773 8.00016 12.6773C8.68202 12.6773 9.23672 12.1226 9.23672 11.4408C9.23672 10.7589 8.68202 10.2042 8.00016 10.2042Z" fill="#44518B"/>
</svg>