<svg width="17" height="16" viewBox="0 0 17 16" fill="none" xmlns="http://www.w3.org/2000/svg">
<path fill-rule="evenodd" clip-rule="evenodd" d="M8.33333 13.3332C11.2789 13.3332 13.6667 10.9454 13.6667 7.99984C13.6667 5.05432 11.2789 2.6665 8.33333 2.6665C5.38781 2.6665 3 5.05432 3 7.99984C3 10.9454 5.38781 13.3332 8.33333 13.3332ZM8.33333 12.4443C10.7879 12.4443 12.7778 10.4544 12.7778 7.99984C12.7778 5.54524 10.7879 3.55539 8.33333 3.55539C5.87873 3.55539 3.88889 5.54524 3.88889 7.99984C3.88889 10.4544 5.87873 12.4443 8.33333 12.4443Z" fill="#4E5F6D"/>
<rect x="5.40625" y="4.44434" width="9.30341" height="0.888889" transform="rotate(45 5.40625 4.44434)" fill="#4E5F6D"/>
</svg>
