<svg width="48" height="48" viewBox="0 0 48 48" fill="none" xmlns="http://www.w3.org/2000/svg">
<g opacity="0.1">
<path fill-rule="evenodd" clip-rule="evenodd" d="M16.5 4C16.5 3.17157 15.8284 2.5 15 2.5C14.1716 2.5 13.5 3.17157 13.5 4V6.10134C12.5207 6.10522 11.6844 6.12027 10.9711 6.17855C9.97792 6.2597 9.09173 6.43207 8.26747 6.85205C6.96915 7.51358 5.91358 8.56915 5.25206 9.86747C4.83207 10.6917 4.6597 11.5779 4.57855 12.5711C4.49997 13.5329 4.49998 14.7183 4.5 16.1765V16.1766V16.24V18.4V31.36V31.4234C4.49998 32.8817 4.49997 34.0671 4.57855 35.0289C4.6597 36.0221 4.83207 36.9083 5.25206 37.7325C5.91358 39.0308 6.96915 40.0864 8.26747 40.7479C9.09173 41.1679 9.97792 41.3403 10.9711 41.4214C11.9329 41.5 13.1182 41.5 14.5764 41.5H14.5765H14.64H27.3854C26.4345 40.6607 25.6444 39.6433 25.0673 38.5H14.64C13.1031 38.5 12.0407 38.4988 11.2154 38.4314C10.4077 38.3654 9.9603 38.2435 9.62944 38.0749C8.89561 37.701 8.29898 37.1044 7.92508 36.3706C7.75649 36.0397 7.63458 35.5923 7.56859 34.7846C7.50117 33.9593 7.5 32.8969 7.5 31.36V19.9H36.9V24.427C37.9904 24.7568 39.002 25.2679 39.9 25.9251V18.4V16.24V16.1765V16.1764C39.9 14.7182 39.9 13.5329 39.8214 12.5711C39.7403 11.5779 39.5679 10.6917 39.1479 9.86747C38.4864 8.56915 37.4309 7.51358 36.1325 6.85205C35.3083 6.43207 34.4221 6.2597 33.4289 6.17855C32.7156 6.12027 31.8793 6.10522 30.9 6.10134V4C30.9 3.17157 30.2284 2.5 29.4 2.5C28.5716 2.5 27.9 3.17157 27.9 4V6.1H16.5V4ZM11.2154 9.16859C11.8191 9.11927 12.5496 9.1054 13.5 9.10151V11.2C13.5 12.0284 14.1716 12.7 15 12.7C15.8284 12.7 16.5 12.0284 16.5 11.2V9.1H27.9V11.2C27.9 12.0284 28.5716 12.7 29.4 12.7C30.2284 12.7 30.9 12.0284 30.9 11.2V9.10151C31.8504 9.1054 32.5809 9.11927 33.1846 9.16859C33.9923 9.23458 34.4397 9.35649 34.7706 9.52507C35.5044 9.89898 36.101 10.4956 36.4749 11.2294C36.6435 11.5603 36.7654 12.0077 36.8314 12.8154C36.8988 13.6406 36.9 14.7031 36.9 16.24V16.9H7.5V16.24C7.5 14.7031 7.50117 13.6406 7.56859 12.8154C7.63458 12.0077 7.75649 11.5603 7.92508 11.2294C8.29898 10.4956 8.89561 9.89898 9.62944 9.52507C9.9603 9.35649 10.4077 9.23458 11.2154 9.16859Z" fill="#333333"/>
<path d="M34 28V34L38 36M44 34C44 39.5228 39.5228 44 34 44C28.4772 44 24 39.5228 24 34C24 28.4772 28.4772 24 34 24C39.5228 24 44 28.4772 44 34Z" stroke="#333333" stroke-width="3" stroke-linecap="round" stroke-linejoin="round"/>
</g>
</svg>
