<svg width="24" height="24" viewBox="0 0 24 24" fill="none" xmlns="http://www.w3.org/2000/svg">
<path fill-rule="evenodd" clip-rule="evenodd" d="M3.1001 7.79688C3.1001 7.52073 3.32396 7.29688 3.6001 7.29688H9.56361L15.1136 15.3969H19.043L17.293 13.6469C17.0978 13.4516 17.0978 13.1351 17.293 12.9398C17.4883 12.7445 17.8049 12.7445 18.0001 12.9398L20.6036 15.5433C20.7989 15.7386 20.7989 16.0552 20.6036 16.2504L18.0001 18.854C17.8049 19.0492 17.4883 19.0492 17.293 18.854C17.0978 18.6587 17.0978 18.3421 17.293 18.1469L19.043 16.3969H14.5866L9.03658 8.29688H3.6001C3.32396 8.29688 3.1001 8.07302 3.1001 7.79688Z" fill="#4E5F6D"/>
<path fill-rule="evenodd" clip-rule="evenodd" d="M3.1001 15.8984C3.1001 16.1746 3.32396 16.3984 3.6001 16.3984H9.41362L10.6674 14.5685C10.8235 14.3407 10.7654 14.0295 10.5376 13.8734C10.3098 13.7174 9.9986 13.7755 9.84252 14.0033L8.88658 15.3984H3.6001C3.32396 15.3984 3.1001 15.6223 3.1001 15.8984ZM18.0001 10.7555L20.6036 8.15199C20.7989 7.95673 20.7989 7.64015 20.6036 7.44488L18.0001 4.84136C17.8049 4.64609 17.4883 4.64609 17.293 4.84136C17.0978 5.03662 17.0978 5.3532 17.293 5.54846L19.043 7.29844H14.3241L13.0702 9.12836C12.9142 9.35615 12.9723 9.66735 13.2001 9.82344C13.4279 9.97952 13.7391 9.92139 13.8952 9.69359L14.8511 8.29844H19.043L17.293 10.0484C17.0978 10.2437 17.0978 10.5603 17.293 10.7555C17.4883 10.9508 17.8049 10.9508 18.0001 10.7555Z" fill="#4E5F6D"/>
</svg>
