<svg width="24" height="24" viewBox="0 0 24 24" fill="none" xmlns="http://www.w3.org/2000/svg">
<path d="M12.539 6.44531C9.75466 6.44531 7.48877 8.68858 7.48877 11.4452C7.48877 13.0973 8.34058 14.6539 9.73334 15.5806V17.0005C9.73334 18.5327 10.9925 19.7782 12.539 19.7782C14.0856 19.7782 15.3448 18.5327 15.3448 17.0005V15.5806C16.7375 14.6539 17.5893 13.0984 17.5893 11.4452C17.5893 8.68858 15.3234 6.44531 12.539 6.44531ZM14.5019 14.7939C14.3291 14.8928 14.2225 15.0762 14.2225 15.2739V17.0005C14.2225 17.9194 13.4672 18.6672 12.539 18.6672C11.6109 18.6672 10.8556 17.9194 10.8556 17.0005V15.2728C10.8556 15.075 10.749 14.8917 10.5762 14.7928C9.34615 14.0829 8.61105 12.8318 8.61105 11.4452C8.61105 9.30078 10.373 7.55639 12.539 7.55639C14.7051 7.55639 16.467 9.30078 16.467 11.4452C16.467 12.8318 15.7319 14.0829 14.5019 14.7939Z" fill="white"/>
<path d="M21.5184 10.8887H20.3961C20.0864 10.8887 19.835 11.1376 19.835 11.4442C19.835 11.7509 20.0864 11.9997 20.3961 11.9997H21.5184C21.8281 11.9997 22.0795 11.7509 22.0795 11.4442C22.0795 11.1376 21.8281 10.8887 21.5184 10.8887Z" fill="white"/>
<path d="M4.68343 10.8887H3.56114C3.25139 10.8887 3 11.1376 3 11.4442C3 11.7509 3.25139 11.9997 3.56114 11.9997H4.68343C4.99318 11.9997 5.24457 11.7509 5.24457 11.4442C5.24457 11.1376 4.99318 10.8887 4.68343 10.8887Z" fill="white"/>
<path d="M12.5397 4.22215C12.8494 4.22215 13.1008 3.97327 13.1008 3.66662V2.55554C13.1008 2.24888 12.8494 2 12.5397 2C12.2299 2 11.9785 2.24888 11.9785 2.55554V3.66662C11.9785 3.97327 12.2299 4.22215 12.5397 4.22215Z" fill="white"/>
<path d="M7.38092 5.55057L6.58747 4.76503C6.36863 4.54837 6.01286 4.54837 5.79402 4.76503C5.57517 4.98169 5.57517 5.33391 5.79402 5.55057L6.58747 6.3361C6.69633 6.44498 6.83998 6.49943 6.98364 6.49943C7.12729 6.49943 7.27094 6.44498 7.38092 6.33721C7.59977 6.11944 7.59977 5.76834 7.38092 5.55057Z" fill="white"/>
<path d="M18.4908 4.76503L17.6973 5.55057C17.4785 5.76723 17.4785 6.11944 17.6973 6.3361C17.8073 6.44498 17.951 6.49831 18.0946 6.49831C18.2383 6.49831 18.3819 6.44387 18.4919 6.3361L19.2854 5.55057C19.5042 5.33391 19.5042 4.98169 19.2854 4.76503C19.0665 4.54837 18.7108 4.54837 18.4908 4.76503Z" fill="white"/>
<path d="M13.6622 20.8887H11.4176C11.1078 20.8887 10.8564 21.1376 10.8564 21.4442C10.8564 21.7509 11.1078 21.9997 11.4176 21.9997H13.6622C13.9719 21.9997 14.2233 21.7509 14.2233 21.4442C14.2233 21.1376 13.9719 20.8887 13.6622 20.8887Z" fill="white"/>
</svg>
