<svg width="12" height="14" viewBox="0 0 12 14" fill="none" xmlns="http://www.w3.org/2000/svg">
<path d="M7.14567 11.1666H7.77067C7.85355 11.1666 7.93304 11.1337 7.99164 11.0751C8.05025 11.0165 8.08317 10.937 8.08317 10.8541V5.22915C8.08317 5.14627 8.05025 5.06678 7.99164 5.00818C7.93304 4.94957 7.85355 4.91665 7.77067 4.91665H7.14567C7.06279 4.91665 6.9833 4.94957 6.9247 5.00818C6.86609 5.06678 6.83317 5.14627 6.83317 5.22915V10.8541C6.83317 10.937 6.86609 11.0165 6.9247 11.0751C6.9833 11.1337 7.06279 11.1666 7.14567 11.1666ZM11.4165 2.41665H9.27041L8.38499 0.940084C8.27388 0.754932 8.11669 0.601722 7.92875 0.495385C7.74081 0.389048 7.52853 0.33321 7.3126 0.333313H4.68708C4.47123 0.3333 4.25906 0.389181 4.07122 0.495513C3.88338 0.601846 3.72627 0.755007 3.6152 0.940084L2.72926 2.41665H0.583171C0.472664 2.41665 0.366683 2.46055 0.288543 2.53869C0.210403 2.61683 0.166504 2.72281 0.166504 2.83331L0.166504 3.24998C0.166504 3.36049 0.210403 3.46647 0.288543 3.54461C0.366683 3.62275 0.472664 3.66665 0.583171 3.66665H0.999837V12.4166C0.999837 12.7482 1.13153 13.0661 1.36595 13.3005C1.60037 13.535 1.91832 13.6666 2.24984 13.6666H9.74984C10.0814 13.6666 10.3993 13.535 10.6337 13.3005C10.8681 13.0661 10.9998 12.7482 10.9998 12.4166V3.66665H11.4165C11.527 3.66665 11.633 3.62275 11.7111 3.54461C11.7893 3.46647 11.8332 3.36049 11.8332 3.24998V2.83331C11.8332 2.72281 11.7893 2.61683 11.7111 2.53869C11.633 2.46055 11.527 2.41665 11.4165 2.41665ZM4.6415 1.65909C4.65543 1.63592 4.67513 1.61675 4.69869 1.60346C4.72224 1.59018 4.74884 1.58324 4.77588 1.58331H7.2238C7.25079 1.58328 7.27734 1.59025 7.30084 1.60353C7.32434 1.61681 7.34401 1.63595 7.35791 1.65909L7.8126 2.41665H4.18708L4.6415 1.65909ZM9.74984 12.4166H2.24984V3.66665H9.74984V12.4166ZM4.229 11.1666H4.854C4.93688 11.1666 5.01637 11.1337 5.07497 11.0751C5.13358 11.0165 5.1665 10.937 5.1665 10.8541V5.22915C5.1665 5.14627 5.13358 5.06678 5.07497 5.00818C5.01637 4.94957 4.93688 4.91665 4.854 4.91665H4.229C4.14612 4.91665 4.06664 4.94957 4.00803 5.00818C3.94943 5.06678 3.9165 5.14627 3.9165 5.22915V10.8541C3.9165 10.937 3.94943 11.0165 4.00803 11.0751C4.06664 11.1337 4.14612 11.1666 4.229 11.1666Z" fill="#818182"/>
</svg>
