<svg xmlns="http://www.w3.org/2000/svg" width="12" height="12" viewBox="0 0 12 12" fill="none">
  <path fill-rule="evenodd" clip-rule="evenodd" d="M3.9667 3.9618C3.5803 4.45447 3.3499 5.07534 3.3499 5.75002C3.3499 7.35165 4.64828 8.65002 6.2499 8.65002C6.92458 8.65002 7.54545 8.41963 8.03812 8.03322L3.9667 3.9618ZM4.46168 3.46683L8.5331 7.53825C8.91951 7.04557 9.1499 6.42471 9.1499 5.75002C9.1499 4.1484 7.85153 2.85002 6.2499 2.85002C5.57522 2.85002 4.95435 3.08042 4.46168 3.46683ZM2.6499 5.75002C2.6499 3.7618 4.26168 2.15002 6.2499 2.15002C8.23813 2.15002 9.8499 3.7618 9.8499 5.75002C9.8499 7.73825 8.23813 9.35002 6.2499 9.35002C4.26168 9.35002 2.6499 7.73825 2.6499 5.75002Z" fill="#6D7C88"/>
</svg>