<svg width="32" height="32" viewBox="0 0 32 32" fill="none" xmlns="http://www.w3.org/2000/svg">
<g clip-path="url(#clip0_2254_8579)">
<path fill-rule="evenodd" clip-rule="evenodd" d="M7.12886 22.4883C6.2272 21.3975 5.75656 19.8866 6.02565 18.3334C6.27749 16.8798 7.18986 15.327 9.13078 14.0243L15.8187 22.1153C14.174 23.7763 12.4768 24.3797 11.0018 24.3536C9.42583 24.3256 8.03052 23.5791 7.12886 22.4883ZM8.80425 12.6879C6.3512 14.1992 5.08433 16.1496 4.74442 18.1115C4.43516 19.8965 4.90463 21.6327 5.8539 22.962C4.62397 23.771 3.80012 25.0754 3.45995 26.4218C3.09677 27.8594 3.26086 29.4572 4.21477 30.6113L5.21702 29.7828C4.60069 29.0372 4.42685 27.9033 4.72066 26.7403C5.00864 25.6004 5.72274 24.5411 6.72732 23.9494C7.83212 24.9646 9.32435 25.6243 10.9788 25.6537C12.9696 25.689 15.1234 24.8117 17.0694 22.6871C17.348 22.3829 17.3484 21.925 17.0955 21.619L9.85656 12.8614C9.59589 12.5461 9.14507 12.478 8.80425 12.6879ZM24.4651 8.158C25.3668 9.24881 25.8374 10.7597 25.5683 12.3129C25.3165 13.7665 24.4041 15.3193 22.4632 16.622L15.7753 8.53103C17.4199 6.86996 19.1171 6.26657 20.5921 6.29274C22.1682 6.3207 23.5635 7.0672 24.4651 8.158ZM22.7897 17.9584C25.2428 16.4471 26.5097 14.4968 26.8496 12.5348C27.0937 11.1255 26.8525 9.74658 26.2729 8.57434C27.3144 7.76077 28.0177 6.57745 28.3253 5.35974C28.6885 3.92218 28.5244 2.32432 27.5705 1.17029L26.5682 1.99874C27.1846 2.74436 27.3584 3.87829 27.0646 5.04123C26.829 5.97381 26.3082 6.85246 25.5764 7.4652C25.5406 7.41944 25.5043 7.37422 25.4674 7.32955C24.338 5.96318 22.5924 5.0277 20.6152 4.99262C18.6244 4.95731 16.4706 5.83456 14.5246 7.95931C14.246 8.26348 14.2456 8.72141 14.4985 9.02739L15.7671 10.5621C15.7414 10.5778 15.7166 10.5956 15.6927 10.6153L13.1683 12.7019C12.8915 12.9307 12.8526 13.3405 13.0814 13.6173C13.3102 13.8941 13.72 13.933 13.9968 13.7042L16.5212 11.6175C16.545 11.5978 16.5671 11.5767 16.5874 11.5545L19.2647 14.7935C19.2393 14.8092 19.2146 14.8268 19.1909 14.8464L16.6665 16.9331C16.3897 17.1618 16.3508 17.5716 16.5796 17.8484C16.8083 18.1252 17.2182 18.1641 17.4949 17.9353L20.0193 15.8487C20.043 15.829 20.065 15.8081 20.0852 15.786L21.7374 17.7849C21.9981 18.1002 22.4489 18.1684 22.7897 17.9584Z" fill="white"/>
<path d="M6.02565 18.3334L6.51831 18.4188L6.51831 18.4188L6.02565 18.3334ZM7.12886 22.4883L6.74348 22.8069L7.12886 22.4883ZM9.13078 14.0243L9.51616 13.7058L9.22786 13.357L8.85214 13.6092L9.13078 14.0243ZM15.8187 22.1153L16.174 22.4671L16.4924 22.1456L16.2041 21.7968L15.8187 22.1153ZM11.0018 24.3536L10.993 24.8535L11.0018 24.3536ZM4.74442 18.1115L4.25176 18.0261L4.74442 18.1115ZM8.80425 12.6879L9.06652 13.1136L9.06652 13.1136L8.80425 12.6879ZM5.8539 22.962L6.12867 23.3797L6.56273 23.0942L6.2608 22.6714L5.8539 22.962ZM3.45995 26.4218L3.94472 26.5443L3.94472 26.5443L3.45995 26.4218ZM4.21477 30.6113L3.82939 30.9298L4.14794 31.3152L4.53333 30.9966L4.21477 30.6113ZM5.21702 29.7828L5.53557 30.1682L5.92096 29.8496L5.6024 29.4642L5.21702 29.7828ZM4.72066 26.7403L4.23589 26.6178L4.72066 26.7403ZM6.72732 23.9494L7.06561 23.5813L6.79281 23.3306L6.47358 23.5186L6.72732 23.9494ZM10.9788 25.6537L10.9699 26.1536L10.9699 26.1536L10.9788 25.6537ZM17.0694 22.6871L16.7007 22.3494L17.0694 22.6871ZM17.0955 21.619L16.7101 21.9375L17.0955 21.619ZM9.85656 12.8614L9.47117 13.18L9.47117 13.18L9.85656 12.8614ZM25.5683 12.3129L26.061 12.3982L25.5683 12.3129ZM24.4651 8.158L24.0798 8.47656L24.4651 8.158ZM22.4632 16.622L22.0778 16.9405L22.3661 17.2893L22.7418 17.0371L22.4632 16.622ZM15.7753 8.53103L15.42 8.17924L15.1016 8.5008L15.3899 8.84959L15.7753 8.53103ZM20.5921 6.29274L20.601 5.79282L20.601 5.79282L20.5921 6.29274ZM26.8496 12.5348L27.3422 12.6202L27.3422 12.6202L26.8496 12.5348ZM22.7897 17.9584L22.5275 17.5327L22.7897 17.9584ZM26.2729 8.57434L25.9651 8.18031L25.6442 8.43095L25.8247 8.79594L26.2729 8.57434ZM28.3253 5.35974L27.8405 5.23726L27.8405 5.23727L28.3253 5.35974ZM27.5705 1.17029L27.9559 0.851736L27.6373 0.466349L27.2519 0.784908L27.5705 1.17029ZM26.5682 1.99874L26.2497 1.61336L25.8643 1.93191L26.1829 2.3173L26.5682 1.99874ZM27.0646 5.04123L27.5494 5.1637L27.5494 5.1637L27.0646 5.04123ZM25.5764 7.4652L25.1824 7.77302L25.5008 8.18064L25.8974 7.84855L25.5764 7.4652ZM25.4674 7.32955L25.082 7.64811L25.082 7.64811L25.4674 7.32955ZM20.6152 4.99262L20.6063 5.49255L20.6063 5.49255L20.6152 4.99262ZM14.5246 7.95931L14.1559 7.62161L14.1559 7.62161L14.5246 7.95931ZM14.4985 9.02739L14.1131 9.34595L14.1131 9.34595L14.4985 9.02739ZM15.7671 10.5621L16.0289 10.988L16.5189 10.6868L16.1525 10.2435L15.7671 10.5621ZM15.6927 10.6153L16.0113 11.0007L15.6927 10.6153ZM13.1683 12.7019L12.8497 12.3166L13.1683 12.7019ZM13.0814 13.6173L12.696 13.9359L13.0814 13.6173ZM13.9968 13.7042L13.6782 13.3188L13.9968 13.7042ZM16.5212 11.6175L16.8397 12.0029L16.5212 11.6175ZM16.5874 11.5545L16.9728 11.236L16.6064 10.7927L16.2184 11.2172L16.5874 11.5545ZM19.2647 14.7935L19.527 15.2192L20.0162 14.9178L19.6501 14.4749L19.2647 14.7935ZM19.1909 14.8464L19.5094 15.2318L19.5094 15.2318L19.1909 14.8464ZM16.6665 16.9331L16.985 17.3184L16.6665 16.9331ZM16.5796 17.8484L16.1942 18.167L16.5796 17.8484ZM17.4949 17.9353L17.1764 17.5499L17.4949 17.9353ZM20.0193 15.8487L20.3379 16.234L20.3379 16.234L20.0193 15.8487ZM20.0852 15.786L20.4706 15.4675L20.1045 15.0246L19.7164 15.4484L20.0852 15.786ZM21.7374 17.7849L22.1228 17.4663L21.7374 17.7849ZM5.53299 18.2481C5.23758 19.9532 5.75418 21.6101 6.74348 22.8069L7.51425 22.1698C6.70022 21.185 6.27555 19.82 6.51831 18.4188L5.53299 18.2481ZM8.85214 13.6092C6.81345 14.9774 5.81117 16.6425 5.53299 18.2481L6.51831 18.4188C6.74381 17.1172 7.56626 15.6765 9.40941 14.4395L8.85214 13.6092ZM16.2041 21.7968L9.51616 13.7058L8.74539 14.3429L15.4334 22.4339L16.2041 21.7968ZM10.993 24.8535C12.6221 24.8824 14.4464 24.2119 16.174 22.4671L15.4634 21.7635C13.9017 23.3408 12.3316 23.8771 11.0107 23.8537L10.993 24.8535ZM6.74348 22.8069C7.73278 24.0037 9.26278 24.8228 10.993 24.8535L11.0107 23.8537C9.58888 23.8284 8.32827 23.1546 7.51425 22.1698L6.74348 22.8069ZM5.23708 18.1968C5.54884 16.3974 6.71587 14.5619 9.06652 13.1136L8.54198 12.2622C5.98653 13.8366 4.61981 15.9017 4.25176 18.0261L5.23708 18.1968ZM6.2608 22.6714C5.38456 21.4444 4.95198 19.8424 5.23708 18.1968L4.25176 18.0261C3.91834 19.9506 4.42471 21.821 5.447 23.2526L6.2608 22.6714ZM3.94472 26.5443C4.25863 25.3018 5.01719 24.1108 6.12867 23.3797L5.57913 22.5443C4.23074 23.4312 3.3416 24.849 2.97518 26.2993L3.94472 26.5443ZM4.60016 30.2927C3.77634 29.2961 3.60807 27.8768 3.94472 26.5443L2.97518 26.2993C2.58546 27.8419 2.74538 29.6184 3.82939 30.9298L4.60016 30.2927ZM4.89846 29.3974L3.89621 30.2259L4.53333 30.9966L5.53557 30.1682L4.89846 29.3974ZM4.23589 26.6178C3.91521 27.8872 4.0859 29.1992 4.83163 30.1014L5.6024 29.4642C5.11549 28.8752 4.93849 27.9194 5.20543 26.8628L4.23589 26.6178ZM6.47358 23.5186C5.33715 24.1879 4.55151 25.3686 4.23589 26.6178L5.20543 26.8628C5.46577 25.8323 6.10833 24.8943 6.98106 24.3803L6.47358 23.5186ZM10.9876 25.1538C9.46249 25.1267 8.08574 24.5186 7.06561 23.5813L6.38902 24.3176C7.57851 25.4106 9.18621 26.122 10.9699 26.1536L10.9876 25.1538ZM16.7007 22.3494C14.8359 24.3854 12.8136 25.1861 10.9876 25.1538L10.9699 26.1536C13.1255 26.1918 15.4109 25.2381 17.4381 23.0248L16.7007 22.3494ZM16.7101 21.9375C16.8086 22.0567 16.806 22.2344 16.7007 22.3494L17.4381 23.0248C17.89 22.5314 17.8882 21.7932 17.4809 21.3004L16.7101 21.9375ZM9.47117 13.18L16.7101 21.9375L17.4809 21.3004L10.2419 12.5429L9.47117 13.18ZM9.06652 13.1136C9.19841 13.0324 9.372 13.06 9.47117 13.18L10.2419 12.5429C9.81977 12.0321 9.09174 11.9235 8.54198 12.2622L9.06652 13.1136ZM26.061 12.3982C26.3564 10.6931 25.8398 9.03628 24.8505 7.83945L24.0798 8.47656C24.8938 9.46135 25.3184 10.8263 25.0757 12.2275L26.061 12.3982ZM22.7418 17.0371C24.7805 15.6689 25.7828 14.0038 26.061 12.3982L25.0757 12.2275C24.8502 13.5291 24.0277 14.9698 22.1846 16.2068L22.7418 17.0371ZM15.3899 8.84959L22.0778 16.9405L22.8486 16.3034L16.1607 8.21247L15.3899 8.84959ZM20.601 5.79282C18.9719 5.76391 17.1476 6.43442 15.42 8.17924L16.1306 8.88282C17.6923 7.30551 19.2624 6.76923 20.5833 6.79266L20.601 5.79282ZM24.8505 7.83945C23.8612 6.64262 22.3312 5.82351 20.601 5.79282L20.5833 6.79266C22.0051 6.81788 23.2657 7.49178 24.0798 8.47656L24.8505 7.83945ZM26.3569 12.4495C26.0451 14.2489 24.8781 16.0845 22.5275 17.5327L23.052 18.3841C25.6074 16.8097 26.9742 14.7446 27.3422 12.6202L26.3569 12.4495ZM25.8247 8.79594C26.3599 9.87838 26.582 11.1502 26.3569 12.4495L27.3422 12.6202C27.6055 11.1008 27.3451 9.61478 26.7211 8.35273L25.8247 8.79594ZM27.8405 5.23727C27.5569 6.35981 26.9094 7.44263 25.9651 8.18031L26.5807 8.96837C27.7193 8.07891 28.4784 6.79509 28.8101 5.48221L27.8405 5.23727ZM27.1851 1.48885C28.0089 2.48549 28.1772 3.90474 27.8405 5.23726L28.8101 5.48221C29.1998 3.93962 29.0399 2.16315 27.9559 0.851736L27.1851 1.48885ZM26.8868 2.38412L27.889 1.55568L27.2519 0.784908L26.2497 1.61336L26.8868 2.38412ZM27.5494 5.1637C27.87 3.89439 27.6994 2.58236 26.9536 1.68019L26.1829 2.3173C26.6698 2.90636 26.8468 3.86219 26.5798 4.91876L27.5494 5.1637ZM25.8974 7.84855C26.7172 7.16206 27.2904 6.18854 27.5494 5.1637L26.5798 4.91875C26.3675 5.75907 25.8991 6.54286 25.2554 7.08185L25.8974 7.84855ZM25.082 7.64811C25.116 7.68922 25.1494 7.73086 25.1824 7.77302L25.9704 7.15739C25.9318 7.10802 25.8926 7.05921 25.8528 7.01099L25.082 7.64811ZM20.6063 5.49255C22.4292 5.52488 24.0401 6.38765 25.082 7.64811L25.8528 7.011C24.6358 5.53871 22.7556 4.53052 20.6241 4.4927L20.6063 5.49255ZM14.8933 8.29701C16.7581 6.26094 18.7804 5.46015 20.6063 5.49255L20.6241 4.4927C18.4684 4.45446 16.1831 5.40817 14.1559 7.62161L14.8933 8.29701ZM14.8839 8.70883C14.7854 8.58965 14.788 8.41201 14.8933 8.29701L14.1559 7.62161C13.7041 8.11495 13.7058 8.85318 14.1131 9.34595L14.8839 8.70883ZM16.1525 10.2435L14.8839 8.70883L14.1131 9.34595L15.3817 10.8806L16.1525 10.2435ZM16.0113 11.0007C16.0171 10.9958 16.0231 10.9916 16.0289 10.988L15.5052 10.1361C15.4598 10.164 15.416 10.1953 15.3741 10.2299L16.0113 11.0007ZM13.4869 13.0873L16.0113 11.0007L15.3741 10.2299L12.8497 12.3166L13.4869 13.0873ZM13.4668 13.2987C13.414 13.2348 13.4229 13.1402 13.4869 13.0873L12.8497 12.3166C12.3601 12.7213 12.2913 13.4462 12.696 13.9359L13.4668 13.2987ZM13.6782 13.3188C13.6143 13.3716 13.5196 13.3627 13.4668 13.2987L12.696 13.9359C13.1007 14.4255 13.8257 14.4943 14.3153 14.0896L13.6782 13.3188ZM16.2026 11.2322L13.6782 13.3188L14.3153 14.0896L16.8397 12.0029L16.2026 11.2322ZM16.2184 11.2172C16.2137 11.2223 16.2085 11.2273 16.2026 11.2322L16.8397 12.0029C16.8816 11.9683 16.9205 11.9312 16.9565 11.8918L16.2184 11.2172ZM19.6501 14.4749L16.9728 11.236L16.202 11.8731L18.8794 15.112L19.6501 14.4749ZM19.5094 15.2318C19.5153 15.227 19.5211 15.2228 19.527 15.2192L19.0025 14.3678C18.9574 14.3955 18.9139 14.4266 18.8723 14.461L19.5094 15.2318ZM16.985 17.3184L19.5094 15.2318L18.8723 14.461L16.3479 16.5477L16.985 17.3184ZM16.965 17.5298C16.9121 17.4659 16.9211 17.3713 16.985 17.3184L16.3479 16.5477C15.8583 16.9524 15.7895 17.6774 16.1942 18.167L16.965 17.5298ZM17.1764 17.5499C17.1124 17.6028 17.0178 17.5938 16.965 17.5298L16.1942 18.167C16.5989 18.6566 17.3239 18.7254 17.8135 18.3207L17.1764 17.5499ZM19.7008 15.4633L17.1764 17.5499L17.8135 18.3207L20.3379 16.234L19.7008 15.4633ZM19.7164 15.4484C19.7118 15.4535 19.7066 15.4584 19.7007 15.4633L20.3379 16.234C20.3794 16.1997 20.4182 16.1628 20.454 16.1237L19.7164 15.4484ZM22.1228 17.4663L20.4706 15.4675L19.6998 16.1046L21.352 18.1034L22.1228 17.4663ZM22.5275 17.5327C22.3956 17.6139 22.222 17.5863 22.1228 17.4663L21.352 18.1034C21.7742 18.6142 22.5022 18.7228 23.052 18.3841L22.5275 17.5327Z" fill="white"/>
</g>
<defs>
<clipPath id="clip0_2254_8579">
<rect width="32" height="32" fill="white"/>
</clipPath>
</defs>
</svg>
