<svg width="18" height="17" viewBox="0 0 18 17" fill="none" xmlns="http://www.w3.org/2000/svg">
<path d="M1.96793 9.7474L1.14213 8.9216C0.792467 8.57193 0.792467 8.00652 1.14213 7.66058L8.36975 0.42924C8.71941 0.0795763 9.28482 0.0795763 9.63077 0.42924L16.8584 7.65686C17.208 8.00652 17.208 8.57193 16.8584 8.91788L16.0326 9.74368C15.6792 10.0971 15.1026 10.0896 14.7567 9.7288L10.49 5.25013V15.9409C10.49 16.4356 10.092 16.8337 9.59729 16.8337H8.40695C7.91221 16.8337 7.51419 16.4356 7.51419 15.9409V5.25013L3.24383 9.73252C2.89789 10.0971 2.32131 10.1045 1.96793 9.7474Z" fill="#EF5824"/>
</svg>
