<svg width="24" height="24" viewBox="0 0 24 24" fill="none" xmlns="http://www.w3.org/2000/svg">
<path fill-rule="evenodd" clip-rule="evenodd" d="M20.4919 13.5899C20.4496 13.8231 20.2455 14 20 14C19.7239 14 19.5 13.7761 19.5 13.5L19.5 7.5L19.4931 7.35554C19.4204 6.59489 18.7797 6 18 6L6 6L5.85554 6.00687C5.09489 6.07955 4.5 6.7203 4.5 7.5L4.5 13.5L4.49194 13.5899C4.44961 13.8231 4.24546 14 4 14C3.72386 14 3.5 13.7761 3.5 13.5L3.5 7.5L3.50532 7.33562C3.58996 6.03154 4.67452 5 6 5L18 5L18.1644 5.00532C19.4685 5.08996 20.5 6.17452 20.5 7.5L20.5 13.5L20.4919 13.5899ZM11.5002 11.2055L9.35425 13.3525C9.15825 13.5475 8.84125 13.5475 8.64625 13.3525C8.45125 13.1575 8.45125 12.8405 8.64625 12.6455L11.6462 9.6465C11.6922 9.5995 11.7472 9.5625 11.8092 9.5375C11.9312 9.4875 12.0692 9.4875 12.1912 9.5375C12.2522 9.5625 12.3082 9.5995 12.3542 9.6465L15.3542 12.6455C15.5492 12.8405 15.5492 13.1575 15.3542 13.3525C15.2562 13.4495 15.1282 13.4985 15.0002 13.4985C14.8722 13.4985 14.7442 13.4495 14.6462 13.3515L12.5002 11.2055L12.5002 19.4985C12.5002 19.7745 12.2762 19.9985 12.0002 19.9985C11.7242 19.9985 11.5002 19.7745 11.5002 19.4985L11.5002 11.2055Z" fill="#97A5B0"/>
</svg>
