<svg width="18" height="15" viewBox="0 0 18 15" fill="none" xmlns="http://www.w3.org/2000/svg">
<path fill-rule="evenodd" clip-rule="evenodd" d="M17.4919 8.58988C17.4496 8.82313 17.2455 9 17 9C16.7239 9 16.5 8.77614 16.5 8.5L16.5 2.5L16.4931 2.35554C16.4204 1.59489 15.7797 1 15 1L3 1L2.85554 1.00687C2.09489 1.07955 1.5 1.7203 1.5 2.5L1.5 8.5L1.49194 8.58988C1.44961 8.82313 1.24546 9 0.999998 9C0.723856 9 0.499998 8.77614 0.499999 8.5L0.5 2.5L0.505317 2.33562C0.589961 1.03154 1.67452 2.05359e-07 3 4.37114e-07L15 2.53526e-06L15.1644 0.00532025C16.4685 0.0899641 17.5 1.17452 17.5 2.5L17.5 8.5L17.4919 8.58988ZM8.50025 6.2055L6.35425 8.3525C6.15825 8.5475 5.84125 8.5475 5.64625 8.3525C5.45125 8.1575 5.45125 7.8405 5.64625 7.6455L8.64625 4.6465C8.69225 4.5995 8.74725 4.5625 8.80925 4.5375C8.93125 4.4875 9.06925 4.4875 9.19125 4.5375C9.25225 4.5625 9.30825 4.5995 9.35425 4.6465L12.3542 7.6455C12.5492 7.8405 12.5492 8.1575 12.3542 8.3525C12.2562 8.4495 12.1282 8.4985 12.0002 8.4985C11.8722 8.4985 11.7442 8.4495 11.6462 8.3515L9.50025 6.2055L9.50025 14.4985C9.50025 14.7745 9.27625 14.9985 9.00025 14.9985C8.72425 14.9985 8.50025 14.7745 8.50025 14.4985L8.50025 6.2055Z" fill="#2B59C3"/>
</svg>
