<svg width="49" height="48" viewBox="0 0 49 48" fill="none" xmlns="http://www.w3.org/2000/svg">
<path d="M14.1906 23.6611L7.49447 27.1768C6.66964 27.6099 6.15122 28.4768 6.15122 29.423V30.7368C6.15122 32.1321 7.26015 33.2632 8.62817 33.2632C9.08415 33.2632 9.45378 33.6402 9.45378 34.1053C9.45378 34.5703 9.08415 34.9474 8.62817 34.9474C6.34822 34.9474 4.5 33.0623 4.5 30.7368V29.423C4.5 27.846 5.36402 26.4011 6.73875 25.6794L12.2831 22.7684C10.5135 21.1946 9.45367 18.9007 9.45367 16.4211C9.45367 11.7702 13.1501 8 17.7098 8C20.4782 8 23.0155 9.40117 24.5425 11.6927C24.7988 12.0774 24.7008 12.6011 24.3237 12.8625C23.9466 13.124 23.4331 13.0241 23.1768 12.6394C21.9541 10.8045 19.9255 9.68421 17.7098 9.68421C14.062 9.68421 11.1049 12.7004 11.1049 16.4211C11.1049 18.7987 12.3215 20.9611 14.2757 22.177C14.6649 22.4192 14.788 22.9374 14.5506 23.3344C14.4617 23.4831 14.3349 23.5936 14.1906 23.6611ZM20.9483 29.1652L14.208 32.2902C13.3238 32.7001 12.7561 33.5993 12.7561 34.59V35.7895C12.7561 37.1847 13.865 38.3158 15.2329 38.3158H33.3964C34.7643 38.3158 35.8732 37.1847 35.8732 35.7895V34.59C35.8732 33.5993 35.3055 32.7001 34.4213 32.2902L27.6811 29.1652C26.653 29.634 25.5137 29.8947 24.3147 29.8947C23.1157 29.8947 21.9764 29.634 20.9483 29.1652ZM19.2325 28.1107C17.3004 26.5693 16.0586 24.1694 16.0586 21.4737C16.0586 16.8229 19.7549 13.0526 24.3147 13.0526C28.8744 13.0526 32.5708 16.8229 32.5708 21.4737C32.5708 24.1694 31.3289 26.5693 29.3969 28.1107L35.1046 30.7569C36.5783 31.4401 37.5245 32.9389 37.5245 34.59V35.7895C37.5245 38.1149 35.6763 40 33.3964 40H15.2329C12.9531 40 11.1049 38.1149 11.1049 35.7895V34.59C11.1049 32.9389 12.0511 31.4401 13.5247 30.7569L19.2325 28.1107ZM24.3147 28.2105C27.9625 28.2105 30.9196 25.1943 30.9196 21.4737C30.9196 17.753 27.9625 14.7368 24.3147 14.7368C20.6669 14.7368 17.7098 17.753 17.7098 21.4737C17.7098 25.1943 20.6669 28.2105 24.3147 28.2105Z" fill="#67666C"/>
<path d="M7.49447 27.1768L14.1906 23.6611C14.3349 23.5936 14.4617 23.4831 14.5506 23.3344C14.788 22.9374 14.6649 22.4192 14.2757 22.177C12.3215 20.9611 11.1049 18.7987 11.1049 16.4211C11.1049 12.7004 14.062 9.68421 17.7098 9.68421C19.9255 9.68421 21.9541 10.8045 23.1768 12.6394C23.4331 13.0241 23.9466 13.124 24.3237 12.8625C24.7008 12.6011 24.7988 12.0774 24.5425 11.6927C23.0155 9.40117 20.4782 8 17.7098 8C13.1501 8 9.45367 11.7702 9.45367 16.4211C9.45367 18.9007 10.5135 21.1946 12.2831 22.7684L6.73875 25.6794C5.36402 26.4011 4.5 27.846 4.5 29.423V30.7368C4.5 33.0623 6.34822 34.9474 8.62817 34.9474C9.08415 34.9474 9.45378 34.5703 9.45378 34.1053C9.45378 33.6402 9.08415 33.2632 8.62817 33.2632C7.26015 33.2632 6.15122 32.1321 6.15122 30.7368V29.423C6.15122 28.4768 6.66964 27.6099 7.49447 27.1768Z" fill="#67666C"/>
<path d="M41.5055 27.1768L34.8094 23.6611C34.6651 23.5936 34.5383 23.4831 34.4494 23.3344C34.212 22.9374 34.3351 22.4192 34.7243 22.177C36.6785 20.9611 37.8951 18.7987 37.8951 16.4211C37.8951 12.7004 34.938 9.68421 31.2902 9.68421C29.0745 9.68421 27.0459 10.8045 25.8232 12.6394C25.5669 13.0241 25.0534 13.124 24.6763 12.8625C24.2992 12.6011 24.2012 12.0774 24.4575 11.6927C25.9845 9.40117 28.5218 8 31.2902 8C35.8499 8 39.5463 11.7702 39.5463 16.4211C39.5463 18.9007 38.4865 21.1946 36.7169 22.7684L42.2613 25.6794C43.636 26.4011 44.5 27.846 44.5 29.423V30.7368C44.5 33.0623 42.6518 34.9474 40.3718 34.9474C39.9159 34.9474 39.5462 34.5703 39.5462 34.1053C39.5462 33.6402 39.9159 33.2632 40.3718 33.2632C41.7398 33.2632 42.8488 32.1321 42.8488 30.7368V29.423C42.8488 28.4768 42.3304 27.6099 41.5055 27.1768Z" fill="#67666C"/>
</svg>
