<svg width="16" height="16" viewBox="0 0 16 16" fill="none" xmlns="http://www.w3.org/2000/svg">
<path d="M8.00016 8.83301C10.0705 8.83301 11.7502 7.15332 11.7502 5.08301C11.7502 3.0127 10.0705 1.33301 8.00016 1.33301C5.92985 1.33301 4.25016 3.0127 4.25016 5.08301C4.25016 7.15332 5.92985 8.83301 8.00016 8.83301ZM11.3335 9.66634H9.8986C9.32048 9.93197 8.67725 10.083 8.00016 10.083C7.32308 10.083 6.68245 9.93197 6.10173 9.66634H4.66683C2.82568 9.66634 1.3335 11.1585 1.3335 12.9997V13.4163C1.3335 14.1064 1.89339 14.6663 2.5835 14.6663H13.4168C14.1069 14.6663 14.6668 14.1064 14.6668 13.4163V12.9997C14.6668 11.1585 13.1746 9.66634 11.3335 9.66634Z" fill="black"/>
</svg>
