<svg width="20" height="18" viewBox="0 0 20 18" fill="none" xmlns="http://www.w3.org/2000/svg">
<path fill-rule="evenodd" clip-rule="evenodd" d="M12.063 1.87211C11.6067 1.17542 10.824 0.75 9.97919 0.75C9.07807 0.75 8.24754 1.23403 7.80859 2.01502L1.18081 13.5254L1.09594 13.6797C0.727521 14.4101 0.746149 15.2792 1.15487 15.9969C1.59278 16.7659 2.41164 17.2438 3.3017 17.25H16.6567L16.8241 17.246C17.6567 17.1985 18.4147 16.7383 18.8347 16.0148C19.2828 15.2431 19.2768 14.2916 18.819 13.5254L12.1498 2.01502L12.063 1.87211ZM8.6782 2.35155C8.97181 1.92363 9.4563 1.66667 9.97919 1.66667C10.5124 1.66667 11.0079 1.93419 11.2961 2.3743L11.3663 2.49094L18.0258 13.985L18.0986 14.1213C18.3173 14.583 18.2972 15.115 18.042 15.5546C17.7784 16.0086 17.3003 16.3007 16.7718 16.3309L16.635 16.3336L3.3017 16.3333L3.16335 16.3262C2.65997 16.2779 2.20416 15.9871 1.95144 15.5433C1.69618 15.0951 1.68295 14.5514 1.91439 14.0925L1.98399 13.9672L8.60298 2.47243L8.6782 2.35155ZM9.08325 13.5833C9.08325 14.0896 9.49366 14.5 9.99992 14.5C10.5062 14.5 10.9166 14.0896 10.9166 13.5833C10.9166 13.0771 10.5062 12.6667 9.99992 12.6667C9.49366 12.6667 9.08325 13.0771 9.08325 13.5833ZM9.08325 10.8333C9.08325 11.3396 9.49366 11.75 9.99992 11.75C10.5062 11.75 10.9166 11.3396 10.9166 10.8333V6.25C10.9166 5.74374 10.5062 5.33333 9.99992 5.33333C9.49366 5.33333 9.08325 5.74374 9.08325 6.25V10.8333Z" fill="#C88900"/>
</svg>
