<svg width="16" height="17" viewBox="0 0 16 17" fill="none" xmlns="http://www.w3.org/2000/svg">
<path d="M13.609 11.268C13.1058 10.7273 12.1644 9.91407 12.1644 7.25C12.1644 5.22657 10.7457 3.60677 8.83267 3.20938V2.66667C8.83267 2.20651 8.45975 1.83334 7.99986 1.83334C7.53996 1.83334 7.16704 2.20651 7.16704 2.66667V3.20938C5.25402 3.60677 3.83527 5.22657 3.83527 7.25C3.83527 9.91407 2.89387 10.7273 2.39074 11.268C2.23449 11.4359 2.16522 11.6367 2.16652 11.8333C2.16939 12.2604 2.50454 12.6667 3.00246 12.6667H12.9973C13.4952 12.6667 13.8306 12.2604 13.8332 11.8333C13.8345 11.6367 13.7652 11.4357 13.609 11.268ZM3.92512 11.4167C4.47772 10.6883 5.08189 9.48099 5.08475 7.26511C5.08475 7.2599 5.08319 7.25521 5.08319 7.25C5.08319 5.63907 6.38892 4.33334 7.99986 4.33334C9.61079 4.33334 10.9165 5.63907 10.9165 7.25C10.9165 7.25521 10.915 7.2599 10.915 7.26511C10.9178 9.48125 11.522 10.6885 12.0746 11.4167H3.92512ZM7.99986 15.1667C8.91965 15.1667 9.66574 14.4206 9.66574 13.5H6.33397C6.33397 14.4206 7.08006 15.1667 7.99986 15.1667Z" fill="#EF5824"/>
</svg>