<svg width="14" height="14" viewBox="0 0 14 14" fill="none" xmlns="http://www.w3.org/2000/svg">
<path fill-rule="evenodd" clip-rule="evenodd" d="M7.00008 1.16797C3.77842 1.16797 1.16675 3.77964 1.16675 7.0013C1.16675 10.223 3.77842 12.8346 7.00008 12.8346C10.2217 12.8346 12.8334 10.223 12.8334 7.0013C12.8334 5.45421 12.2188 3.97047 11.1249 2.87651C10.0309 1.78255 8.54718 1.16797 7.00008 1.16797Z" fill="#DA1515"/>
<path fill-rule="evenodd" clip-rule="evenodd" d="M7.00008 9.91797C6.67792 9.91797 6.41675 9.6568 6.41675 9.33464C6.41675 9.01247 6.67792 8.7513 7.00008 8.7513C7.32225 8.7513 7.58341 9.01247 7.58341 9.33464C7.58341 9.6568 7.32225 9.91797 7.00008 9.91797ZM7.00008 8.16797C6.67792 8.16797 6.41675 7.9068 6.41675 7.58464V4.66797C6.41675 4.3458 6.67792 4.08464 7.00008 4.08464C7.32225 4.08464 7.58341 4.3458 7.58341 4.66797V7.58464C7.58341 7.9068 7.32225 8.16797 7.00008 8.16797Z" fill="white"/>
</svg>
