<svg width="16" height="16" viewBox="0 0 16 16" fill="none" xmlns="http://www.w3.org/2000/svg">
<path d="M14.5555 4.17411C14.4972 3.93895 14.2029 3.85926 14.0316 4.03062L12.0951 5.96707L10.3274 5.67254L10.0329 3.90484L11.9693 1.96838C12.1417 1.79599 12.0587 1.50224 11.822 1.44339C10.5881 1.13766 9.22951 1.46708 8.26519 2.43114C7.2329 3.46343 6.94879 4.95978 7.37848 6.26447L1.82146 11.8215C1.17068 12.4723 1.17068 13.5275 1.82146 14.1782C2.47224 14.829 3.52744 14.829 4.17822 14.1782L9.73055 8.62592C11.0358 9.06107 12.5292 8.77383 13.5683 7.73478C14.5337 6.76941 14.8626 5.40874 14.5555 4.17411V4.17411ZM3.0001 13.6246C2.65505 13.6246 2.3751 13.3447 2.3751 12.9996C2.3751 12.6543 2.65505 12.3746 3.0001 12.3746C3.34515 12.3746 3.6251 12.6543 3.6251 12.9996C3.6251 13.3447 3.34515 13.6246 3.0001 13.6246Z" fill="white"/>
</svg>
