<svg width="12" height="12" viewBox="0 0 12 12" fill="none" xmlns="http://www.w3.org/2000/svg">
<g clip-path="url(#clip0_9120_29461)">
<path d="M3.27742 0.5636C3.55022 0.5636 3.68662 0.5636 3.79112 0.6164C3.88242 0.6626 3.95722 0.7374 4.00452 0.8298C4.05732 0.9343 4.05732 1.0707 4.05732 1.3435V4.7722C4.05732 5.1792 4.05732 5.3827 3.97152 5.507C3.89672 5.6159 3.78122 5.6896 3.65032 5.7116C3.50072 5.7369 3.31702 5.6511 2.94742 5.4784L1.98712 5.0307C1.29412 4.7073 0.946519 4.5456 0.693519 4.2959C0.469119 4.0748 0.297519 3.8064 0.193019 3.5094C0.0742188 3.175 0.0742188 2.7922 0.0742188 2.0266V1.3424C0.0742188 1.0696 0.0742188 0.9332 0.127019 0.8287C0.173219 0.7374 0.248019 0.6626 0.340419 0.6153C0.444919 0.5625 0.581319 0.5625 0.854119 0.5625H3.27742V0.5636Z" fill="#97A5B0"/>
<path d="M11.2462 0.570312C11.519 0.570312 11.6554 0.570312 11.7599 0.623112C11.8512 0.669312 11.926 0.744112 11.9733 0.836512C12.0261 0.941012 12.0261 1.07741 12.0261 1.35021V2.03441C12.0261 2.80001 12.0261 3.18171 11.9073 3.51721C11.8017 3.81421 11.6312 4.08261 11.4068 4.30371C11.1527 4.55341 10.8062 4.71511 10.1132 5.03851L8.04297 6.00321V1.35021C8.04297 1.07741 8.04297 0.941012 8.09577 0.836512C8.14197 0.745212 8.21677 0.670412 8.30917 0.623112C8.41367 0.570312 8.55007 0.570312 8.82287 0.570312H11.2462Z" fill="#97A5B0"/>
<path d="M8.04169 6V10.6541C8.04169 10.9269 8.04169 11.0633 7.98889 11.1678C7.94269 11.2591 7.86789 11.3339 7.77549 11.3812C7.67099 11.434 7.53459 11.434 7.26179 11.434H4.83849C4.56569 11.434 4.42929 11.434 4.32479 11.3812C4.23349 11.335 4.15869 11.2602 4.11139 11.1678C4.05859 11.0633 4.05859 10.9269 4.05859 10.6541V9.9688C4.05859 9.2032 4.05859 8.8215 4.17739 8.486C4.28189 8.189 4.45349 7.9206 4.67789 7.6995C4.93199 7.4498 5.27849 7.2881 5.97149 6.9647L8.04169 6Z" fill="#97A5B0"/>
</g>
<defs>
<clipPath id="clip0_9120_29461">
<rect width="12" height="12" fill="white"/>
</clipPath>
</defs>
</svg>
