<svg xmlns="http://www.w3.org/2000/svg" width="14" height="14" viewBox="0 0 14 14" fill="none">
  <g clip-path="url(#clip0_543_51628)">
    <path d="M3.75258 0.657539C4.07217 0.657539 4.23196 0.657539 4.35438 0.719394C4.46134 0.773518 4.54897 0.861147 4.60438 0.969394C4.66624 1.09182 4.66624 1.25161 4.66624 1.5712V5.58795C4.66624 6.06476 4.66624 6.30316 4.56572 6.44878C4.47809 6.57635 4.34278 6.66269 4.18943 6.68847C4.01418 6.71811 3.79897 6.61759 3.36598 6.41527L2.24098 5.89079C1.42912 5.51192 1.02191 5.32249 0.725515 5.02996C0.462629 4.77094 0.261598 4.45651 0.139175 4.10857C0 3.71682 0 3.26836 0 2.37146V1.56991C0 1.25032 0 1.09053 0.0618557 0.968106C0.115979 0.861147 0.203608 0.773518 0.311856 0.718106C0.434278 0.65625 0.594072 0.65625 0.91366 0.65625H3.75258V0.657539Z" fill="#4E5F6D"/>
    <path d="M13.0866 0.658203C13.4062 0.658203 13.5659 0.658203 13.6884 0.720059C13.7953 0.774182 13.883 0.861811 13.9384 0.970059C14.0002 1.09248 14.0002 1.25228 14.0002 1.57186V2.37341C14.0002 3.27032 14.0002 3.71748 13.861 4.11052C13.7373 4.45846 13.5376 4.77289 13.2747 5.03191C12.977 5.32444 12.5711 5.51387 11.7592 5.89274L9.33398 7.02289V1.57186C9.33398 1.25228 9.33399 1.09248 9.39584 0.970059C9.44996 0.8631 9.53759 0.775471 9.64584 0.720059C9.76826 0.658203 9.92806 0.658203 10.2476 0.658203H13.0866Z" fill="#4E5F6D"/>
    <path d="M9.33372 7.02148V12.4738C9.33372 12.7934 9.33372 12.9532 9.27186 13.0756C9.21774 13.1826 9.13011 13.2702 9.02186 13.3256C8.89944 13.3875 8.73965 13.3875 8.42006 13.3875H5.58114C5.26155 13.3875 5.10176 13.3875 4.97934 13.3256C4.87238 13.2715 4.78475 13.1839 4.72934 13.0756C4.66748 12.9532 4.66748 12.7934 4.66748 12.4738V11.671C4.66748 10.7741 4.66748 10.3269 4.80666 9.93386C4.92908 9.58592 5.13011 9.27148 5.393 9.01246C5.69068 8.71994 6.0966 8.53051 6.90846 8.15164L9.33372 7.02148Z" fill="#4E5F6D"/>
  </g>
  <defs>
    <clipPath id="clip0_543_51628">
      <rect width="14" height="14" fill="white"/>
    </clipPath>
  </defs>
</svg>