<svg width="24" height="24" viewBox="0 0 24 24" fill="none" xmlns="http://www.w3.org/2000/svg">
<path fill-rule="evenodd" clip-rule="evenodd" d="M17.7147 6.98099C17.8497 6.78612 17.8304 6.5167 17.6569 6.34313C17.4616 6.14787 17.145 6.14787 16.9497 6.34313L12 11.2929L7.05025 6.34313L6.981 6.28528C6.78614 6.15028 6.51671 6.16957 6.34315 6.34313C6.14788 6.5384 6.14788 6.85498 6.34315 7.05024L11.2929 12L6.34315 16.9497L6.28529 17.019C6.15029 17.2139 6.16958 17.4833 6.34315 17.6568C6.53841 17.8521 6.85499 17.8521 7.05025 17.6568L12 12.7071L16.9497 17.6568L17.019 17.7147C17.2139 17.8497 17.4833 17.8304 17.6569 17.6568C17.8521 17.4616 17.8521 17.145 17.6569 16.9497L12.7071 12L17.6569 7.05024L17.7147 6.98099Z" fill="#25323D"/>
</svg>
