<?xml version="1.0" encoding="utf-8"?>
<!-- Generator: Adobe Illustrator 22.1.0, SVG Export Plug-In . SVG Version: 6.00 Build 0)  -->
<svg version="1.1" id="Layer_1" xmlns="http://www.w3.org/2000/svg" xmlns:xlink="http://www.w3.org/1999/xlink" x="0px" y="0px"
	 viewBox="0 0 26 27" style="enable-background:new 0 0 26 27;" xml:space="preserve">
<style type="text/css">
	.st0{fill:#60A763;stroke:#202951;stroke-linejoin:round;}
	.st1{fill:none;stroke:#202951;}
	.st2{fill:none;stroke:#202951;stroke-linecap:round;stroke-linejoin:round;}
	.st3{fill:#202951;}
	.st4{fill:#FFFFFF;}
</style>
<g id="Group" transform="translate(1.000000, 1.000000)">
	<path id="Fill-1" class="st0" d="M18.3,19.3c0,0-0.5,2.7-9.2,2.7S0,19.3,0,19.3V2.7C0,2.7,0.8,0,9.1,0c8.3,0,9.2,2.7,9.2,2.7V19.3z
		"/>
	<path id="Path" class="st1" d="M0,2.8c0,1.5,4.1,2.8,9.2,2.8l0,0c5.1,0,9.2-1.2,9.2-2.8"/>
	<path id="Path_1_" class="st2" d="M0,8.3c0,1.5,4.1,2.8,9.2,2.8l0,0c5.1,0,9.2-1.2,9.2-2.8"/>
	<path id="Path-Copy" class="st2" d="M0,13.8c0,1.5,4.1,2.8,9.2,2.8l0,0c5.1,0,9.2-1.2,9.2-2.8"/>
	<path id="Path-Copy-2" class="st2" d="M0,19.4c0,1.5,4.1,2.8,9.2,2.8l0,0c5.1,0,9.2-1.2,9.2-2.8"/>
	<path id="Fill-16" class="st3" d="M17.5,25.8c-4,0-7.3-3.2-7.3-7.2s3.3-7.2,7.3-7.2s7.3,3.2,7.3,7.2S21.5,25.8,17.5,25.8"/>
	<g>
		<path class="st4" d="M13.8,18.7c0.4,0,0.6-0.3,0.6-0.6V17c0-0.2,0.2-0.4,0.4-0.4h3.2v1.5L22,16l-3.9-2.1v1.5h-3.2
			c-0.9,0-1.7,0.8-1.7,1.7v1.1C13.2,18.5,13.5,18.7,13.8,18.7z"/>
		<path class="st4" d="M21.3,18.7c-0.4,0-0.6,0.3-0.6,0.6v1.1c0,0.2-0.2,0.4-0.4,0.4h-3.2v-1.5l-3.9,2.1l3.9,2.1v-1.5h3.2
			c0.9,0,1.7-0.8,1.7-1.7v-1.1C22,19,21.7,18.7,21.3,18.7z"/>
	</g>
</g>
</svg>
