<?xml version="1.0" encoding="utf-8"?>
<!-- Generator: Adobe Illustrator 22.1.0, SVG Export Plug-In . SVG Version: 6.00 Build 0)  -->
<svg version="1.1" id="Layer_1" xmlns="http://www.w3.org/2000/svg" xmlns:xlink="http://www.w3.org/1999/xlink" x="0px" y="0px"
	 viewBox="0 0 26 27" style="enable-background:new 0 0 26 27;" xml:space="preserve">
<style type="text/css">
	.st0{fill:#F75821;stroke:#202951;stroke-linejoin:round;}
	.st1{fill:none;stroke:#202951;}
	.st2{fill:none;stroke:#202951;stroke-linecap:round;stroke-linejoin:round;}
	.st3{fill:#202951;}
	.st4{fill:#FFFFFF;}
</style>
<g id="ico-prim" transform="translate(1.000000, 1.000000)">
	<path id="Fill-1" class="st0" d="M18.3,19.3c0,0-0.5,2.7-9.2,2.7S0,19.3,0,19.3V2.7C0,2.7,0.8,0,9.1,0c8.3,0,9.2,2.7,9.2,2.7V19.3z
		"/>
	<path id="Path" class="st1" d="M0,2.8c0,1.5,4.1,2.8,9.2,2.8l0,0c5.1,0,9.2-1.2,9.2-2.8"/>
	<path id="Path_1_" class="st2" d="M0,8.3c0,1.5,4.1,2.8,9.2,2.8l0,0c5.1,0,9.2-1.2,9.2-2.8"/>
	<path id="Path-Copy" class="st2" d="M0,13.8c0,1.5,4.1,2.8,9.2,2.8l0,0c5.1,0,9.2-1.2,9.2-2.8"/>
	<path id="Path-Copy-2" class="st2" d="M0,19.4c0,1.5,4.1,2.8,9.2,2.8l0,0c5.1,0,9.2-1.2,9.2-2.8"/>
	<path id="Fill-16" class="st3" d="M17.5,25.8c-4,0-7.3-3.2-7.3-7.2s3.3-7.2,7.3-7.2s7.3,3.2,7.3,7.2S21.5,25.8,17.5,25.8"/>
	<path id="Fill-21" class="st4" d="M20.3,15.1c-0.3-0.2-0.8-0.1-0.9,0.3l-2.4,4.1l-1.4-0.8c-0.3-0.2-0.8-0.1-0.9,0.3l-0.4,0.7
		c-0.2,0.3-0.1,0.8,0.3,0.9l2,1.2l0.7,0.4c0.3,0.2,0.8,0.1,0.9-0.3l0.4-0.7l2.7-4.7c0.2-0.3,0.1-0.8-0.3-0.9L20.3,15.1z"/>
</g>
</svg>
