<?xml version="1.0" encoding="utf-8"?>
<!-- Generator: Adobe Illustrator 22.1.0, SVG Export Plug-In . SVG Version: 6.00 Build 0)  -->
<svg version="1.1" id="Layer_1" xmlns="http://www.w3.org/2000/svg" xmlns:xlink="http://www.w3.org/1999/xlink" x="0px" y="0px"
	 viewBox="0 0 33 34" style="enable-background:new 0 0 33 34;" xml:space="preserve">
<style type="text/css">
	.st0{fill:#F75821;stroke:#202951;stroke-width:1.25;stroke-linejoin:round;}
	.st1{fill:none;stroke:#202951;stroke-width:1.25;}
	.st2{fill:none;stroke:#202951;stroke-width:1.25;stroke-linecap:round;stroke-linejoin:round;}
	.st3{fill:#202951;}
	.st4{fill:#FFFFFF;}
</style>
<title>map/read-replica/count copy 4</title>
<desc>Created with Sketch.</desc>
<g id="Universes-Overview">
	<g id="Universes-Overview-Copy" transform="translate(-96.000000, -369.000000)">
		<g id="Group-2" transform="translate(96.000000, 369.000000)">
			<g id="map_x2F_primary_x2F_count" transform="translate(0.000000, 0.000000)">
				<g id="ico-prim" transform="translate(1.000000, 1.000000)">
					<path id="Fill-1" class="st0" d="M24,25c0,0-0.7,3.5-12,3.5S0,25,0,25V3.5C0,3.5,1.1,0,12,0c10.9,0,12,3.5,12,3.5V25z"/>
					<path id="Path" class="st1" d="M0,3.6c0,2,5.4,3.6,12,3.6l0,0c6.6,0,12-1.6,12-3.6"/>
					<path id="Path_1_" class="st2" d="M0,10.8c0,2,5.4,3.6,12,3.6l0,0c6.6,0,12-1.6,12-3.6"/>
					<path id="Path-Copy" class="st2" d="M0,17.9c0,2,5.4,3.6,12,3.6l0,0c6.6,0,12-1.6,12-3.6"/>
					<path id="Path-Copy-2" class="st2" d="M0,25.1c0,2,5.4,3.6,12,3.6l0,0c6.6,0,12-1.6,12-3.6"/>
					<path id="Fill-16" class="st3" d="M23.9,32.7c-4.4,0-8-3.6-8-7.9s3.6-7.9,8-7.9s8,3.6,8,7.9S28.3,32.7,23.9,32.7"/>
					<path id="Fill-21" class="st4" d="M26.6,20.7c-0.4-0.2-0.9-0.1-1.1,0.3l-2.8,4.9l-1.7-1c-0.4-0.2-0.9-0.1-1.1,0.3L19.4,26
						c-0.2,0.4-0.1,0.9,0.3,1.1l2.4,1.4l0.8,0.5c0.4,0.2,0.9,0.1,1.1-0.3l0.5-0.8l3.2-5.6c0.2-0.4,0.1-0.9-0.3-1.1L26.6,20.7z"/>
				</g>
			</g>
		</g>
	</g>
</g>
</svg>
