<svg width="18" height="18" viewBox="0 0 18 18" fill="none" xmlns="http://www.w3.org/2000/svg">
<path d="M16.3312 13.7917C16.8119 14.6249 16.2085 15.6663 15.2484 15.6663H2.75141C1.78951 15.6663 1.18894 14.6232 1.66868 13.7917L7.91727 2.95762C8.39818 2.12405 9.60269 2.12556 10.0827 2.95762L16.3312 13.7917V13.7917ZM9 11.5518C8.33842 11.5518 7.80209 12.0881 7.80209 12.7497C7.80209 13.4113 8.33842 13.9476 9 13.9476C9.66159 13.9476 10.1979 13.4113 10.1979 12.7497C10.1979 12.0881 9.66159 11.5518 9 11.5518ZM7.86269 7.24587L8.05586 10.7875C8.0649 10.9533 8.20193 11.083 8.3679 11.083H9.63211C9.79808 11.083 9.93511 10.9533 9.94415 10.7875L10.1373 7.24587C10.1471 7.06686 10.0046 6.91634 9.82529 6.91634H8.17469C7.99542 6.91634 7.85292 7.06686 7.86269 7.24587V7.24587Z" fill="#FF9933"/>
</svg>
