<svg width="24" height="24" viewBox="0 0 24 24" fill="none" xmlns="http://www.w3.org/2000/svg">
<path fill-rule="evenodd" clip-rule="evenodd" d="M12.9443 10.2118C11.8896 10.6934 11.45 11.267 11.45 11.7397C11.45 12.2124 11.8896 12.7861 12.9443 13.2676C13.959 13.731 15.3925 14.0294 17 14.0294C18.6075 14.0294 20.041 13.731 21.0557 13.2676C22.1104 12.7861 22.55 12.2124 22.55 11.7397C22.55 11.267 22.1104 10.6934 21.0557 10.2118C20.041 9.74842 18.6075 9.44999 17 9.44999C15.3925 9.44999 13.959 9.74842 12.9443 10.2118ZM22.55 13.4021C22.2295 13.6682 21.8442 13.897 21.4295 14.0863C20.2727 14.6146 18.7062 14.9294 17 14.9294C15.2938 14.9294 13.7272 14.6146 12.5704 14.0863C12.1558 13.897 11.7705 13.6682 11.45 13.4021V16.0014C11.45 16.4741 11.8896 17.0478 12.9443 17.5294C13.959 17.9927 15.3925 18.2912 17 18.2912C18.6075 18.2912 20.041 17.9927 21.0557 17.5294C22.1104 17.0478 22.55 16.4741 22.55 16.0014V13.4021ZM23.45 11.7397C23.45 10.6993 22.5465 9.9031 21.4295 9.39309C20.2727 8.86486 18.7062 8.54999 17 8.54999C15.2938 8.54999 13.7272 8.86486 12.5704 9.39309C11.4535 9.9031 10.55 10.6993 10.55 11.7397V20.2399C10.55 20.2433 10.55 20.2467 10.5501 20.2501C10.55 20.2535 10.55 20.2569 10.55 20.2603C10.55 21.3007 11.4535 22.0969 12.5704 22.6069C13.7272 23.1351 15.2938 23.45 17 23.45C18.7062 23.45 20.2727 23.1351 21.4295 22.6069C22.5465 22.0969 23.45 21.3007 23.45 20.2603V11.7397ZM22.55 17.6639C22.2295 17.9299 21.8442 18.1587 21.4295 18.3481C20.2727 18.8763 18.7062 19.1912 17 19.1912C15.2938 19.1912 13.7272 18.8763 12.5704 18.3481C12.1558 18.1587 11.7705 17.9299 11.45 17.6639V20.2399C11.45 20.2433 11.4499 20.2467 11.4499 20.2501C11.4499 20.2535 11.45 20.2569 11.45 20.2603C11.45 20.7329 11.8896 21.3066 12.9443 21.7882C13.959 22.2516 15.3925 22.55 17 22.55C18.6075 22.55 20.041 22.2516 21.0557 21.7882C22.1104 21.3066 22.55 20.7329 22.55 20.2603V17.6639Z" fill="#0B1117"/>
<path fill-rule="evenodd" clip-rule="evenodd" d="M4.80679 19.3182C4.98253 19.4939 5.26745 19.4939 5.44319 19.3182L7.31819 17.4432C7.49392 17.2675 7.49392 16.9826 7.31819 16.8068L5.44319 14.9318C5.26745 14.7561 4.98253 14.7561 4.80679 14.9318C4.63105 15.1076 4.63105 15.3925 4.80679 15.5682L5.91359 16.675H4.59999C3.9625 16.675 3.51145 16.6747 3.15884 16.6459C2.81147 16.6175 2.59945 16.5637 2.43281 16.4788C2.09411 16.3063 1.81875 16.0309 1.64618 15.6922C1.56127 15.5256 1.50753 15.3135 1.47915 14.9662C1.45034 14.6135 1.44999 14.1625 1.44999 13.525V13C1.44999 12.7515 1.24852 12.55 0.999988 12.55C0.75146 12.55 0.549988 12.7515 0.549988 13L0.549988 13.5447C0.549984 14.1581 0.549981 14.6459 0.582137 15.0395C0.615065 15.4425 0.683942 15.7861 0.84427 16.1008C1.10313 16.6088 1.51618 17.0219 2.02421 17.2807C2.33887 17.4411 2.68253 17.5099 3.08555 17.5429C3.47911 17.575 3.96693 17.575 4.5803 17.575H5.91359L4.80679 18.6818C4.63105 18.8576 4.63105 19.1425 4.80679 19.3182Z" fill="#0B1117"/>
<path fill-rule="evenodd" clip-rule="evenodd" d="M2.22055 2.89959C1.62868 3.18496 1.44999 3.49241 1.44999 3.6875C1.44999 3.88259 1.62868 4.19003 2.22055 4.4754C2.78063 4.74544 3.58599 4.92501 4.49999 4.92501C5.41399 4.92501 6.21935 4.74544 6.77943 4.4754C7.3713 4.19003 7.54999 3.88259 7.54999 3.6875C7.54999 3.49241 7.3713 3.18496 6.77943 2.89959C6.21935 2.62955 5.41399 2.44999 4.49999 2.44999C3.58599 2.44999 2.78063 2.62955 2.22055 2.89959ZM7.54999 5.0738C7.42862 5.1524 7.30077 5.22319 7.1703 5.28609C6.46363 5.62681 5.51898 5.82501 4.49999 5.82501C3.48099 5.82501 2.53635 5.62681 1.82968 5.28609C1.69921 5.22319 1.57136 5.1524 1.44999 5.0738V7.31248C1.44999 7.50756 1.62868 7.81501 2.22055 8.10038C2.78063 8.37042 3.58599 8.54999 4.49999 8.54999C5.41399 8.54999 6.21935 8.37042 6.77943 8.10038C7.3713 7.81501 7.54999 7.50756 7.54999 7.31248V5.0738ZM8.44999 3.6875C8.44999 2.9506 7.84518 2.41429 7.1703 2.0889C6.46363 1.74818 5.51898 1.54999 4.49999 1.54999C3.48099 1.54999 2.53635 1.74818 1.82968 2.0889C1.1548 2.41429 0.549988 2.9506 0.549988 3.6875V7.47189C0.549988 7.54959 0.56968 7.62269 0.604345 7.68647C0.767282 8.23343 1.2748 8.64354 1.82968 8.91107C2.53635 9.25179 3.48099 9.44999 4.49999 9.44999C5.51898 9.44999 6.46363 9.25179 7.1703 8.91107C7.72518 8.64354 8.23269 8.23343 8.39563 7.68647C8.4303 7.62269 8.44999 7.54959 8.44999 7.47189V3.6875Z" fill="#0B1117"/>
</svg>
