<svg width="16" height="12" viewBox="0 0 16 12" fill="none" xmlns="http://www.w3.org/2000/svg">
<path d="M14.6206 0.167918C13.1934 0.248909 10.3569 0.543706 8.60587 1.6156C8.48503 1.68956 8.41654 1.82107 8.41654 1.95857V11.4345C8.41654 11.7353 8.74546 11.9254 9.0228 11.7858C10.8244 10.879 13.4299 10.6316 14.7182 10.5639C15.1581 10.5408 15.5 10.1881 15.5 9.76548V0.967411C15.5003 0.506205 15.1003 0.140834 14.6206 0.167918ZM7.39413 1.6156C5.64332 0.543706 2.80681 0.24917 1.3797 0.167918C0.900007 0.140834 0.5 0.506205 0.5 0.967411V9.76574C0.5 10.1887 0.841933 10.5413 1.28178 10.5642C2.57061 10.6319 5.17742 10.8796 6.97902 11.7869C7.25559 11.9262 7.58346 11.7364 7.58346 11.4363V1.95389C7.58346 1.81612 7.51523 1.68982 7.39413 1.6156Z" fill="#EF5824"/>
</svg>
