<svg width="24" height="23" viewBox="0 0 24 23" fill="none" xmlns="http://www.w3.org/2000/svg">
<path d="M11.9321 5.11182C8.60204 5.11182 5.89209 7.69172 5.89209 10.862C5.89209 12.7621 6.91084 14.5523 8.57654 15.618V17.251C8.57654 19.0131 10.0825 20.4456 11.9321 20.4456C13.7817 20.4456 15.2877 19.0131 15.2877 17.251V15.618C16.9534 14.5523 17.9721 12.7634 17.9721 10.862C17.9721 7.69172 15.2622 5.11182 11.9321 5.11182ZM14.2797 14.7133C14.073 14.827 13.9454 15.0379 13.9454 15.2653V17.251C13.9454 18.3078 13.0421 19.1678 11.9321 19.1678C10.8221 19.1678 9.91877 18.3078 9.91877 17.251V15.264C9.91877 15.0366 9.79126 14.8257 9.58455 14.712C8.11347 13.8955 7.23432 12.4567 7.23432 10.862C7.23432 8.39579 9.34161 6.38963 11.9321 6.38963C14.5226 6.38963 16.6299 8.39579 16.6299 10.862C16.6299 12.4567 15.7507 13.8955 14.2797 14.7133Z" fill="#333333"/>
<path d="M22.6706 10.2218H21.3283C20.9579 10.2218 20.6572 10.508 20.6572 10.8607C20.6572 11.2134 20.9579 11.4996 21.3283 11.4996H22.6706C23.041 11.4996 23.3417 11.2134 23.3417 10.8607C23.3417 10.508 23.041 10.2218 22.6706 10.2218Z" fill="#333333"/>
<path d="M2.53678 10.2218H1.19455C0.824096 10.2218 0.523438 10.508 0.523438 10.8607C0.523438 11.2134 0.824096 11.4996 1.19455 11.4996H2.53678C2.90723 11.4996 3.20789 11.2134 3.20789 10.8607C3.20789 10.508 2.90723 10.2218 2.53678 10.2218Z" fill="#333333"/>
<path d="M11.9326 2.55562C12.303 2.55562 12.6037 2.26939 12.6037 1.91672V0.638906C12.6037 0.28623 12.303 0 11.9326 0C11.5621 0 11.2615 0.28623 11.2615 0.638906V1.91672C11.2615 2.26939 11.5621 2.55562 11.9326 2.55562Z" fill="#333333"/>
<path d="M5.76315 4.08334L4.8142 3.17992C4.55247 2.93075 4.12698 2.93075 3.86525 3.17992C3.60351 3.4291 3.60351 3.83416 3.86525 4.08334L4.8142 4.98675C4.94439 5.11197 5.1162 5.17459 5.288 5.17459C5.45981 5.17459 5.63161 5.11197 5.76315 4.98803C6.02489 4.73758 6.02489 4.33379 5.76315 4.08334Z" fill="#333333"/>
<path d="M19.05 3.17992L18.1011 4.08334C17.8394 4.33251 17.8394 4.73758 18.1011 4.98675C18.2326 5.11198 18.4044 5.17331 18.5762 5.17331C18.748 5.17331 18.9198 5.1107 19.0514 4.98675L20.0003 4.08334C20.2621 3.83416 20.2621 3.4291 20.0003 3.17992C19.7386 2.93075 19.3131 2.93075 19.05 3.17992Z" fill="#333333"/>
<path d="M13.2748 21.7222H10.5903C10.2198 21.7222 9.91919 22.0084 9.91919 22.3611C9.91919 22.7138 10.2198 23 10.5903 23H13.2748C13.6452 23 13.9459 22.7138 13.9459 22.3611C13.9459 22.0084 13.6452 21.7222 13.2748 21.7222Z" fill="#333333"/>
</svg>
