<svg width="24" height="24" viewBox="0 0 24 24" fill="none" xmlns="http://www.w3.org/2000/svg">
<path d="M12 22C6.47715 22 2 17.5228 2 12C2 6.47715 6.47715 2 12 2C17.5228 2 22 6.47715 22 12C22 17.5228 17.5228 22 12 22ZM12 21C16.9706 21 21 16.9706 21 12C21 7.02944 16.9706 3 12 3C7.02944 3 3 7.02944 3 12C3 16.9706 7.02944 21 12 21ZM15.7906 14.0931C16.0153 14.2536 16.0674 14.5659 15.9069 14.7906C15.7464 15.0153 15.4341 15.0674 15.2094 14.9069L11.7094 12.4069C11.6157 12.3399 11.5479 12.2427 11.5176 12.1316L10.0176 6.63156C9.94496 6.36515 10.102 6.09028 10.3684 6.01762C10.6349 5.94496 10.9097 6.10203 10.9824 6.36844L12.4355 11.6966L15.7906 14.0931Z" fill="#67666C"/>
</svg>
