<svg width="18" height="18" viewBox="0 0 18 18" fill="none" xmlns="http://www.w3.org/2000/svg">
<path fill-rule="evenodd" clip-rule="evenodd" d="M10.688 3.16809C10.3147 2.59807 9.67424 2.25 8.98304 2.25C8.24576 2.25 7.56624 2.64603 7.2071 3.28502L1.78437 12.7026L1.71493 12.8289C1.41349 13.4265 1.42873 14.1375 1.76314 14.7248C2.12143 15.354 2.79141 15.745 3.51964 15.75H14.4464L14.5834 15.7468C15.2646 15.7078 15.8848 15.3314 16.2285 14.7394C16.5951 14.108 16.5901 13.3295 16.2156 12.7026L10.759 3.28502L10.688 3.16809ZM7.9186 3.56036C8.15882 3.21024 8.55522 3 8.98304 3C9.41927 3 9.82471 3.21888 10.0605 3.57897L10.118 3.67441L15.5667 13.0786L15.6262 13.1901C15.8051 13.5679 15.7887 14.0031 15.5799 14.3628C15.3642 14.7343 14.9731 14.9733 14.5407 14.998L14.4287 15.0002L3.51964 15L3.40645 14.9942C2.99459 14.9546 2.62165 14.7167 2.41488 14.3536C2.20603 13.9869 2.1952 13.5421 2.38457 13.1666L2.44151 13.0641L7.85705 3.65926L7.9186 3.56036ZM8.25 12.75C8.25 13.1642 8.58579 13.5 9 13.5C9.41421 13.5 9.75 13.1642 9.75 12.75C9.75 12.3358 9.41421 12 9 12C8.58579 12 8.25 12.3358 8.25 12.75ZM8.25 10.5C8.25 10.9142 8.58579 11.25 9 11.25C9.41421 11.25 9.75 10.9142 9.75 10.5V6.75C9.75 6.33579 9.41421 6 9 6C8.58579 6 8.25 6.33579 8.25 6.75V10.5Z" fill="#C88900"/>
</svg>
