<?xml version="1.0" encoding="utf-8"?>
<!-- Generator: Adobe Illustrator 23.0.4, SVG Export Plug-In . SVG Version: 6.00 Build 0)  -->
<svg version="1.1" id="Calque_2" xmlns="http://www.w3.org/2000/svg" xmlns:xlink="http://www.w3.org/1999/xlink" x="0px" y="0px"
	 viewBox="0 0 841.89 595.28" style="enable-background:new 0 0 841.89 595.28;" xml:space="preserve">
<style type="text/css">
	.st0{fill:#555555;}
</style>
<g>
	<g>
		<g>
			<g>
				<path class="st0" d="M95.58,282.93h34.09c10.14,0,17.92,2.25,23.34,6.75c5.42,4.5,8.14,10.91,8.14,19.23
					c0,8.36-2.71,14.79-8.14,19.29c-5.42,4.5-13.2,6.74-23.34,6.74h-13.55v27.64H95.58V282.93z M116.12,297.82v22.24h11.36
					c3.98,0,7.06-0.96,9.23-2.9c2.17-1.94,3.25-4.69,3.25-8.25c0-3.55-1.08-6.29-3.25-8.21c-2.17-1.92-5.24-2.88-9.23-2.88H116.12z"
					/>
				<path class="st0" d="M197.76,301.4c10.28,0,18.31,2.78,24.09,8.32c5.78,5.55,8.67,13.23,8.67,23.05c0,9.81-2.89,17.5-8.67,23.04
					c-5.78,5.55-13.81,8.32-24.09,8.32c-10.31,0-18.38-2.77-24.19-8.32c-5.81-5.54-8.72-13.23-8.72-23.04
					c0-9.82,2.91-17.5,8.72-23.05C179.39,304.17,187.45,301.4,197.76,301.4z M197.76,315.05c-4.23,0-7.46,1.52-9.68,4.56
					c-2.22,3.04-3.34,7.42-3.34,13.15c0,5.72,1.11,10.11,3.34,13.15s5.45,4.56,9.68,4.56c4.16,0,7.34-1.52,9.55-4.56
					c2.2-3.04,3.31-7.42,3.31-13.15c0-5.73-1.1-10.11-3.31-13.15C205.11,316.57,201.92,315.05,197.76,315.05z"/>
				<path class="st0" d="M285.61,304.7v14.51c-4.09-1.71-8.04-2.99-11.84-3.84c-3.81-0.85-7.4-1.28-10.78-1.28
					c-3.63,0-6.32,0.46-8.08,1.36c-1.76,0.91-2.64,2.31-2.64,4.19c0,1.53,0.67,2.7,2,3.52c1.33,0.82,3.72,1.42,7.17,1.82l3.36,0.48
					c9.78,1.24,16.36,3.29,19.74,6.13c3.38,2.84,5.07,7.31,5.07,13.39c0,6.36-2.35,11.15-7.04,14.35c-4.69,3.2-11.7,4.8-21.02,4.8
					c-3.95,0-8.03-0.31-12.24-0.93c-4.21-0.62-8.55-1.56-12.99-2.8v-14.51c3.8,1.85,7.71,3.24,11.71,4.16
					c4,0.93,8.06,1.39,12.19,1.39c3.74,0,6.54-0.51,8.43-1.55c1.88-1.03,2.83-2.56,2.83-4.59c0-1.7-0.65-2.97-1.95-3.81
					c-1.3-0.83-3.89-1.48-7.77-1.95l-3.36-0.42c-8.5-1.07-14.46-3.04-17.87-5.92c-3.42-2.88-5.12-7.26-5.12-13.12
					c0-6.33,2.17-11.02,6.51-14.08c4.34-3.06,10.99-4.59,19.95-4.59c3.52,0,7.22,0.27,11.1,0.8
					C276.84,302.73,281.05,303.57,285.61,304.7z"/>
				<path class="st0" d="M319.36,285.87v16.97h19.68v13.66h-19.68v25.34c0,2.77,0.55,4.65,1.65,5.62c1.1,0.98,3.29,1.47,6.56,1.47
					h9.82v13.66H321c-7.54,0-12.88-1.58-16.03-4.72c-3.15-3.15-4.72-8.49-4.72-16.03V316.5h-9.49v-13.66h9.49v-16.97H319.36z"/>
				<path class="st0" d="M385.91,352.44c-2.63,3.49-5.53,6.05-8.7,7.68c-3.16,1.64-6.83,2.46-10.99,2.46
					c-7.29,0-13.32-2.88-18.08-8.62c-4.77-5.74-7.15-13.06-7.15-21.95c0-8.93,2.38-16.24,7.15-21.95
					c4.76-5.71,10.79-8.56,18.08-8.56c4.16,0,7.82,0.82,10.99,2.45c3.17,1.64,6.07,4.21,8.7,7.73v-8.85h19.2v53.72
					c0,9.6-3.03,16.94-9.1,22c-6.06,5.07-14.86,7.6-26.38,7.6c-3.74,0-7.35-0.28-10.83-0.85c-3.48-0.57-6.99-1.44-10.51-2.61v-14.88
					c3.34,1.92,6.62,3.35,9.82,4.29c3.2,0.94,6.42,1.42,9.65,1.42c6.26,0,10.85-1.37,13.76-4.11c2.92-2.74,4.38-7.02,4.38-12.85
					V352.44z M373.32,315.27c-3.94,0-7.02,1.46-9.23,4.38c-2.21,2.92-3.31,7.04-3.31,12.38c0,5.48,1.07,9.63,3.2,12.46
					c2.14,2.82,5.25,4.24,9.33,4.24c3.98,0,7.08-1.46,9.28-4.37c2.2-2.92,3.31-7.02,3.31-12.32c0-5.34-1.1-9.46-3.31-12.38
					C380.39,316.73,377.3,315.27,373.32,315.27z"/>
				<path class="st0" d="M462.39,319.11c-1.67-0.78-3.34-1.36-4.99-1.74c-1.65-0.37-3.31-0.56-4.98-0.56
					c-4.91,0-8.69,1.58-11.34,4.72c-2.65,3.15-3.98,7.65-3.98,13.52v27.53H418v-59.75h19.1v9.81c2.45-3.91,5.27-6.77,8.46-8.56
					c3.18-1.8,7-2.7,11.44-2.7c0.64,0,1.33,0.03,2.08,0.08c0.75,0.05,1.83,0.17,3.25,0.34L462.39,319.11z"/>
				<path class="st0" d="M526.06,332.55v5.44h-44.65c0.46,4.48,2.08,7.84,4.85,10.08c2.77,2.24,6.65,3.36,11.63,3.36
					c4.02,0,8.14-0.59,12.35-1.78c4.21-1.19,8.54-3,12.99-5.42v14.72c-4.52,1.71-9.03,3-13.55,3.87c-4.52,0.87-9.04,1.3-13.55,1.3
					c-10.81,0-19.21-2.74-25.2-8.24c-5.99-5.49-8.99-13.2-8.99-23.12c0-9.74,2.94-17.41,8.83-23c5.89-5.58,13.99-8.37,24.3-8.37
					c9.39,0,16.9,2.83,22.54,8.48C523.24,315.53,526.06,323.09,526.06,332.55z M506.43,326.2c0-3.63-1.06-6.55-3.18-8.78
					c-2.11-2.22-4.88-3.33-8.29-3.33c-3.7,0-6.71,1.04-9.01,3.12c-2.31,2.08-3.75,5.08-4.32,8.99H506.43z"/>
				<path class="st0" d="M591.33,285.45v16.86c-4.37-1.96-8.64-3.43-12.8-4.43c-4.16-0.99-8.09-1.49-11.79-1.49
					c-4.91,0-8.54,0.68-10.88,2.02c-2.35,1.35-3.52,3.45-3.52,6.3c0,2.13,0.79,3.8,2.37,4.98c1.58,1.19,4.46,2.22,8.62,3.07
					l8.75,1.76c8.86,1.78,15.15,4.48,18.89,8.1c3.73,3.63,5.6,8.79,5.6,15.47c0,8.78-2.61,15.32-7.82,19.6
					c-5.21,4.29-13.17,6.43-23.87,6.43c-5.05,0-10.12-0.48-15.2-1.44c-5.09-0.96-10.17-2.38-15.26-4.27v-17.33
					c5.08,2.7,10,4.74,14.75,6.11c4.75,1.37,9.33,2.05,13.74,2.05c4.48,0,7.91-0.74,10.29-2.24c2.38-1.5,3.57-3.63,3.57-6.4
					c0-2.49-0.81-4.41-2.42-5.76c-1.62-1.35-4.85-2.56-9.68-3.63l-7.95-1.76c-7.97-1.71-13.79-4.43-17.47-8.17
					c-3.68-3.73-5.52-8.76-5.52-15.09c0-7.93,2.56-14.03,7.68-18.29c5.12-4.27,12.48-6.4,22.09-6.4c4.38,0,8.87,0.33,13.5,0.99
					C581.61,283.14,586.39,284.13,591.33,285.45z"/>
				<path class="st0" d="M647.7,364.02h-1.6c-13.12,0-23.33-3.63-30.62-10.88c-7.29-7.25-10.94-17.35-10.94-30.3
					c0-12.91,3.64-23.03,10.91-30.35c7.27-7.33,17.29-10.99,30.06-10.99c12.91,0,22.96,3.63,30.17,10.88
					c7.2,7.26,10.8,17.41,10.8,30.46c0,8.96-1.91,16.68-5.73,23.15c-3.83,6.48-9.33,11.35-16.51,14.62l16.06,17.92h-19.58
					L647.7,364.02z M645.51,296.38c-6.26,0-11.11,2.31-14.56,6.93s-5.17,11.13-5.17,19.53c0,8.54,1.69,15.07,5.07,19.61
					c3.38,4.53,8.27,6.8,14.67,6.8c6.3,0,11.17-2.31,14.62-6.93c3.45-4.62,5.17-11.11,5.17-19.47c0-8.39-1.73-14.9-5.17-19.53
					S651.81,296.38,645.51,296.38z"/>
				<path class="st0" d="M696.54,282.93h20.54v64.13h36.06v15.52h-56.6V282.93z"/>
				<path class="st0" d="M139.16,445h-32.11l-5.07,14.51H81.33l29.5-79.65h24.48l29.5,79.65h-20.64L139.16,445z M112.17,430.22
					h21.81l-10.88-31.69L112.17,430.22z"/>
				<path class="st0" d="M229.13,423.13v36.38h-19.21v-5.92v-21.93c0-5.16-0.12-8.71-0.35-10.67c-0.23-1.96-0.63-3.4-1.2-4.32
					c-0.75-1.24-1.76-2.22-3.04-2.91c-1.28-0.69-2.74-1.04-4.37-1.04c-3.98,0-7.12,1.54-9.39,4.62c-2.28,3.07-3.41,7.33-3.41,12.77
					v29.4h-19.1v-59.75h19.1v8.74c2.88-3.48,5.94-6.05,9.18-7.71c3.24-1.65,6.81-2.48,10.72-2.48c6.9,0,12.13,2.12,15.71,6.35
					C227.35,408.9,229.13,415.05,229.13,423.13z"/>
				<path class="st0" d="M269.82,398.32c10.28,0,18.31,2.78,24.09,8.32c5.78,5.55,8.67,13.23,8.67,23.05
					c0,9.81-2.89,17.5-8.67,23.04c-5.78,5.55-13.81,8.32-24.09,8.32c-10.31,0-18.38-2.77-24.19-8.32
					c-5.81-5.54-8.72-13.23-8.72-23.04c0-9.82,2.91-17.5,8.72-23.05C251.44,401.1,259.5,398.32,269.82,398.32z M269.82,411.98
					c-4.23,0-7.46,1.52-9.68,4.56c-2.22,3.04-3.34,7.42-3.34,13.15c0,5.72,1.11,10.11,3.34,13.15s5.45,4.56,9.68,4.56
					c4.16,0,7.34-1.52,9.55-4.56c2.2-3.04,3.31-7.42,3.31-13.15c0-5.73-1.1-10.11-3.31-13.15
					C277.16,413.49,273.98,411.98,269.82,411.98z"/>
				<path class="st0" d="M371.05,423.13v36.38h-19.21v-5.92v-21.93c0-5.16-0.12-8.71-0.35-10.67c-0.23-1.96-0.63-3.4-1.2-4.32
					c-0.75-1.24-1.76-2.22-3.04-2.91c-1.28-0.69-2.74-1.04-4.37-1.04c-3.98,0-7.12,1.54-9.39,4.62c-2.28,3.07-3.41,7.33-3.41,12.77
					v29.4h-19.1v-59.75h19.1v8.74c2.88-3.48,5.94-6.05,9.18-7.71c3.24-1.65,6.81-2.48,10.72-2.48c6.9,0,12.13,2.12,15.71,6.35
					C369.26,408.9,371.05,415.05,371.05,423.13z"/>
				<path class="st0" d="M375.45,399.76h19.1l16.06,40.54l13.66-40.54h19.1l-25.13,65.4c-2.52,6.65-5.47,11.3-8.83,13.95
					c-3.36,2.65-7.8,3.98-13.31,3.98h-11.04v-12.53h5.98c3.24,0,5.59-0.52,7.07-1.55c1.48-1.03,2.62-2.88,3.44-5.54l0.53-1.66
					L375.45,399.76z"/>
				<path class="st0" d="M504.42,409.68c2.42-3.7,5.29-6.52,8.62-8.46c3.32-1.94,6.98-2.91,10.96-2.91c6.86,0,12.09,2.12,15.69,6.35
					c3.59,4.24,5.39,10.38,5.39,18.46v36.38h-19.21v-31.15c0.04-0.46,0.06-0.95,0.08-1.44c0.02-0.5,0.03-1.21,0.03-2.14
					c0-4.23-0.62-7.3-1.87-9.2c-1.25-1.91-3.25-2.85-6.03-2.85c-3.63,0-6.43,1.49-8.4,4.48c-1.97,2.98-3,7.31-3.06,12.96v29.34
					h-19.21v-31.15c0-6.62-0.57-10.88-1.71-12.78c-1.14-1.91-3.16-2.85-6.08-2.85c-3.66,0-6.49,1.5-8.48,4.51
					c-1.99,3-2.99,7.3-2.99,12.88v29.4h-19.21v-59.75h19.21v8.74c2.35-3.38,5.04-5.92,8.08-7.63c3.04-1.7,6.39-2.56,10.06-2.56
					c4.12,0,7.77,1,10.93,2.98C500.39,403.3,502.78,406.09,504.42,409.68z"/>
				<path class="st0" d="M557.43,376.5h19.1v15.58h-19.1V376.5z M557.43,399.76h19.1v59.75h-19.1V399.76z"/>
				<path class="st0" d="M586.48,399.76h52.12v13.33l-31.47,32.76h31.47v13.66h-53.45v-13.34l31.47-32.75h-30.14V399.76z"/>
				<path class="st0" d="M707.18,429.47v5.44h-44.65c0.46,4.48,2.08,7.84,4.85,10.08c2.77,2.24,6.65,3.36,11.63,3.36
					c4.02,0,8.14-0.59,12.35-1.78c4.21-1.19,8.54-3,12.99-5.42v14.72c-4.52,1.71-9.03,3-13.55,3.87c-4.52,0.87-9.04,1.3-13.55,1.3
					c-10.81,0-19.21-2.74-25.2-8.24c-5.99-5.49-8.99-13.2-8.99-23.12c0-9.74,2.94-17.41,8.83-23c5.89-5.58,13.99-8.37,24.3-8.37
					c9.39,0,16.9,2.83,22.54,8.48C704.36,412.45,707.18,420.01,707.18,429.47z M687.55,423.13c0-3.63-1.06-6.55-3.18-8.78
					c-2.11-2.22-4.88-3.33-8.29-3.33c-3.7,0-6.71,1.04-9.01,3.12c-2.31,2.08-3.75,5.08-4.32,8.99H687.55z"/>
				<path class="st0" d="M760.56,416.03c-1.67-0.78-3.34-1.36-4.99-1.74c-1.65-0.37-3.31-0.56-4.98-0.56
					c-4.91,0-8.69,1.58-11.34,4.72c-2.65,3.15-3.98,7.65-3.98,13.52v27.53h-19.1v-59.75h19.1v9.81c2.45-3.91,5.27-6.77,8.46-8.56
					c3.18-1.8,7-2.7,11.44-2.7c0.64,0,1.33,0.03,2.08,0.08c0.75,0.05,1.83,0.17,3.25,0.34L760.56,416.03z"/>
			</g>
		</g>
	</g>
	<g>
		<path class="st0" d="M475.73,142.44l-48.26-27.86c-5.51-3.18-12.63-3.18-18.14,0l-48.27,27.86c-5.59,3.23-9.07,9.25-9.07,15.71
			v55.73c0,6.46,3.47,12.48,9.07,15.71l48.27,27.86c2.75,1.59,5.89,2.43,9.07,2.43c3.18,0,6.32-0.84,9.07-2.43l48.26-27.86
			c5.6-3.23,9.07-9.25,9.07-15.71v-55.73C484.8,151.69,481.32,145.67,475.73,142.44z M475.36,213.88c0,3.1-1.67,5.99-4.35,7.53
			l-48.26,27.86c-2.64,1.53-6.06,1.53-8.7,0l-48.26-27.86c-2.68-1.55-4.35-4.44-4.35-7.53v-55.73c0-3.1,1.67-5.99,4.35-7.53
			l48.26-27.87c1.32-0.76,2.82-1.16,4.35-1.16s3.03,0.4,4.35,1.16l48.26,27.87c2.68,1.55,4.35,4.44,4.35,7.53V213.88z"/>
		<polygon class="st0" points="432.75,137.94 418.4,149.74 404.04,137.94 394.17,172.93 376.66,172.93 376.66,176.93 460.14,176.93 
			460.14,172.93 442.63,172.93 		"/>
		<path class="st0" d="M385.81,190.33c-5.35,0-9.68,4.33-9.68,9.68v0.26c0,5.63,2.71,10.59,6.85,13.78l10.17-23.72H385.81z"/>
		<path class="st0" d="M397.22,190.33l-11.03,25.72c0.96,0.45,1.96,0.8,3.01,1.07l11.49-26.79H397.22z"/>
		<path class="st0" d="M442.98,190.33l-11.03,25.72c0.96,0.45,1.96,0.8,3.01,1.07l11.49-26.79H442.98z"/>
		<path class="st0" d="M431.56,190.33c-3.5,0-6.54,1.88-8.24,4.66c-1.27-0.37-2.86-0.61-4.92-0.61c-2.06,0-3.65,0.24-4.92,0.61
			c-1.7-2.78-4.74-4.66-8.24-4.66h-3.43l-11.61,27.08c1.1,0.22,2.24,0.34,3.41,0.34h3.83c9.65,0,17.48-7.83,17.48-17.48v-0.26
			c0-0.42-0.07-0.83-0.12-1.24c0.94-0.25,2.14-0.41,3.61-0.41c1.46,0,2.66,0.16,3.61,0.41c-0.05,0.41-0.12,0.81-0.12,1.24v0.26
			c0,5.63,2.71,10.59,6.85,13.78l10.17-23.72H431.56z"/>
		<path class="st0" d="M450.99,190.33h-3.43l-11.61,27.08c1.1,0.22,2.24,0.34,3.41,0.34h3.83c9.65,0,17.48-7.83,17.48-17.48v-0.26
			C460.67,194.66,456.33,190.33,450.99,190.33z"/>
	</g>
</g>
</svg>
