<?xml version="1.0" encoding="utf-8"?>
<!-- Generator: Adobe Illustrator 23.0.4, SVG Export Plug-In . SVG Version: 6.00 Build 0)  -->
<svg version="1.1" id="Calque_1" xmlns="http://www.w3.org/2000/svg" xmlns:xlink="http://www.w3.org/1999/xlink" x="0px" y="0px"
	 viewBox="0 0 1269.96 595.28" style="enable-background:new 0 0 1269.96 595.28;" xml:space="preserve">
<style type="text/css">
	.st0{fill:#555555;}
</style>
<g>
	<g>
		<g>
			<g>
				<path class="st0" d="M369.74,204.55h36c10.7,0,18.92,2.38,24.65,7.13c5.73,4.75,8.59,11.52,8.59,20.3
					c0,8.83-2.87,15.62-8.59,20.37c-5.73,4.75-13.94,7.13-24.65,7.13h-14.31v29.18h-21.69V204.55z M391.43,220.27v23.49h12
					c4.21,0,7.45-1.02,9.74-3.07c2.29-2.05,3.44-4.95,3.44-8.71c0-3.75-1.14-6.64-3.44-8.67c-2.29-2.03-5.54-3.04-9.74-3.04H391.43z
					"/>
				<path class="st0" d="M477.65,224.04c10.85,0,19.33,2.93,25.44,8.79c6.1,5.86,9.15,13.97,9.15,24.34
					c0,10.37-3.05,18.48-9.15,24.34c-6.1,5.86-14.58,8.79-25.44,8.79c-10.89,0-19.41-2.93-25.55-8.79
					c-6.14-5.86-9.21-13.97-9.21-24.34c0-10.37,3.07-18.48,9.21-24.34C458.24,226.97,466.76,224.04,477.65,224.04z M477.65,238.47
					c-4.47,0-7.88,1.6-10.22,4.82c-2.35,3.21-3.52,7.84-3.52,13.88c0,6.05,1.18,10.68,3.52,13.89c2.35,3.21,5.75,4.82,10.22,4.82
					c4.39,0,7.75-1.61,10.09-4.82c2.33-3.21,3.49-7.84,3.49-13.89c0-6.04-1.17-10.68-3.49-13.88
					C485.4,240.07,482.04,238.47,477.65,238.47z"/>
				<path class="st0" d="M570.41,227.53v15.33c-4.32-1.8-8.49-3.16-12.5-4.06c-4.02-0.9-7.82-1.35-11.38-1.35
					c-3.83,0-6.68,0.48-8.53,1.43c-1.86,0.96-2.79,2.43-2.79,4.42c0,1.62,0.7,2.86,2.11,3.72c1.4,0.86,3.93,1.5,7.57,1.91l3.55,0.51
					c10.33,1.31,17.28,3.47,20.84,6.48c3.57,3,5.35,7.72,5.35,14.14c0,6.73-2.48,11.78-7.44,15.15c-4.95,3.38-12.36,5.07-22.19,5.07
					c-4.17,0-8.48-0.33-12.93-0.99s-9.02-1.64-13.72-2.96v-15.32c4.02,1.95,8.14,3.42,12.37,4.39c4.22,0.98,8.52,1.47,12.87,1.47
					c3.95,0,6.91-0.55,8.9-1.64c1.99-1.09,2.99-2.7,2.99-4.85c0-1.8-0.69-3.14-2.06-4.03c-1.38-0.88-4.11-1.57-8.2-2.06l-3.55-0.45
					c-8.98-1.13-15.27-3.21-18.87-6.25c-3.61-3.04-5.41-7.66-5.41-13.86c0-6.68,2.29-11.64,6.87-14.87
					c4.58-3.23,11.6-4.85,21.07-4.85c3.72,0,7.62,0.28,11.72,0.84C561.15,225.45,565.6,226.33,570.41,227.53z"/>
				<path class="st0" d="M606.05,207.65v17.92h20.79v14.42h-20.79v26.76c0,2.93,0.58,4.91,1.74,5.94c1.17,1.03,3.47,1.55,6.93,1.55
					h10.37v14.42h-17.3c-7.96,0-13.6-1.66-16.93-4.98c-3.33-3.33-4.99-8.97-4.99-16.93v-26.76h-10.02v-14.42h10.02v-17.92H606.05z"
					/>
				<path class="st0" d="M676.33,277.95c-2.78,3.68-5.84,6.39-9.19,8.12c-3.34,1.73-7.21,2.59-11.6,2.59c-7.7,0-14.06-3.03-19.1-9.1
					c-5.04-6.06-7.55-13.79-7.55-23.18c0-9.42,2.51-17.15,7.55-23.18c5.03-6.03,11.4-9.04,19.1-9.04c4.39,0,8.26,0.87,11.6,2.59
					c3.35,1.73,6.41,4.45,9.19,8.17v-9.35h20.28v56.73c0,10.14-3.2,17.89-9.6,23.24c-6.4,5.35-15.69,8.03-27.85,8.03
					c-3.95,0-7.76-0.3-11.44-0.9c-3.68-0.6-7.38-1.52-11.1-2.76v-15.72c3.53,2.03,6.99,3.54,10.37,4.54
					c3.38,0.99,6.78,1.49,10.2,1.49c6.61,0,11.46-1.45,14.54-4.34c3.08-2.89,4.62-7.42,4.62-13.57V277.95z M663.03,238.69
					c-4.16,0-7.42,1.54-9.74,4.62c-2.33,3.08-3.49,7.44-3.49,13.07c0,5.79,1.13,10.17,3.38,13.16c2.26,2.98,5.54,4.48,9.86,4.48
					c4.21,0,7.47-1.54,9.8-4.62c2.33-3.07,3.49-7.42,3.49-13.01c0-5.63-1.17-9.99-3.49-13.07
					C670.51,240.23,667.24,238.69,663.03,238.69z"/>
				<path class="st0" d="M757.09,242.75c-1.77-0.82-3.52-1.44-5.27-1.83c-1.74-0.39-3.5-0.59-5.26-0.59
					c-5.18,0-9.18,1.66-11.97,4.99c-2.8,3.32-4.2,8.08-4.2,14.28v29.07h-20.17v-63.09h20.17v10.37c2.59-4.13,5.57-7.14,8.93-9.04
					c3.36-1.89,7.39-2.84,12.08-2.84c0.68,0,1.41,0.03,2.19,0.08c0.79,0.06,1.94,0.18,3.44,0.37L757.09,242.75z"/>
				<path class="st0" d="M824.33,256.94v5.74h-47.15c0.49,4.73,2.19,8.28,5.13,10.65c2.93,2.37,7.02,3.55,12.28,3.55
					c4.24,0,8.59-0.63,13.04-1.89c4.45-1.26,9.02-3.17,13.72-5.72v15.55c-4.77,1.8-9.54,3.17-14.31,4.09
					c-4.77,0.92-9.54,1.38-14.31,1.38c-11.42,0-20.29-2.9-26.62-8.7c-6.33-5.8-9.49-13.94-9.49-24.42c0-10.29,3.1-18.38,9.32-24.28
					c6.22-5.9,14.77-8.84,25.66-8.84c9.91,0,17.84,2.98,23.8,8.96C821.36,238.97,824.33,246.95,824.33,256.94z M803.6,250.24
					c0-3.83-1.12-6.92-3.36-9.27c-2.23-2.35-5.15-3.52-8.76-3.52c-3.91,0-7.08,1.09-9.52,3.29c-2.44,2.2-3.96,5.36-4.56,9.49H803.6z
					"/>
				<path class="st0" d="M893.26,207.2V225c-4.62-2.07-9.12-3.63-13.52-4.68c-4.39-1.05-8.54-1.58-12.45-1.58
					c-5.18,0-9.01,0.71-11.49,2.14c-2.48,1.43-3.72,3.64-3.72,6.64c0,2.26,0.83,4.01,2.5,5.27c1.67,1.26,4.71,2.34,9.1,3.24
					l9.24,1.86c9.35,1.88,16,4.73,19.94,8.56c3.94,3.83,5.91,9.28,5.91,16.34c0,9.28-2.75,16.18-8.25,20.7
					c-5.5,4.53-13.9,6.79-25.21,6.79c-5.34,0-10.69-0.5-16.05-1.52c-5.37-1.01-10.74-2.52-16.11-4.51v-18.31
					c5.37,2.86,10.56,5.01,15.57,6.45c5.02,1.44,9.85,2.17,14.51,2.17c4.73,0,8.36-0.79,10.87-2.37c2.52-1.58,3.77-3.83,3.77-6.76
					c0-2.63-0.85-4.65-2.56-6.08c-1.71-1.43-5.12-2.7-10.22-3.83l-8.4-1.86c-8.42-1.8-14.56-4.67-18.45-8.62
					c-3.89-3.94-5.83-9.26-5.83-15.94c0-8.38,2.7-14.82,8.11-19.32s13.18-6.76,23.32-6.76c4.62,0,9.37,0.35,14.26,1.04
					C882.99,204.77,888.05,205.81,893.26,207.2z"/>
				<path class="st0" d="M952.78,290.18h-1.69c-13.86,0-24.64-3.83-32.33-11.49c-7.7-7.66-11.55-18.32-11.55-31.99
					c0-13.64,3.84-24.32,11.52-32.06c7.68-7.73,18.26-11.6,31.74-11.6c13.63,0,24.25,3.83,31.86,11.49
					c7.61,7.66,11.41,18.39,11.41,32.17c0,9.46-2.02,17.61-6.05,24.45c-4.04,6.84-9.85,11.98-17.44,15.44l16.96,18.93h-20.68
					L952.78,290.18z M950.47,218.75c-6.61,0-11.74,2.44-15.38,7.33c-3.64,4.88-5.46,11.76-5.46,20.62c0,9.01,1.78,15.91,5.35,20.7
					c3.57,4.79,8.73,7.18,15.49,7.18c6.65,0,11.79-2.44,15.44-7.32c3.64-4.88,5.46-11.74,5.46-20.56c0-8.86-1.82-15.74-5.46-20.62
					C962.27,221.19,957.12,218.75,950.47,218.75z"/>
				<path class="st0" d="M1004.36,204.55h21.69v67.72h38.08v16.39h-59.77V204.55z"/>
				<path class="st0" d="M420.78,375.69h-33.91l-5.35,15.32h-21.8l31.16-84.11h25.85l31.15,84.11h-21.8L420.78,375.69z
					 M392.27,360.08h23.04l-11.49-33.46L392.27,360.08z"/>
				<path class="st0" d="M515.79,352.59v38.42h-20.28v-6.25V361.6c0-5.45-0.12-9.2-0.37-11.27c-0.24-2.07-0.67-3.59-1.27-4.56
					c-0.79-1.31-1.86-2.34-3.21-3.07s-2.89-1.1-4.62-1.1c-4.21,0-7.52,1.63-9.92,4.87c-2.4,3.25-3.6,7.74-3.6,13.49v31.04h-20.17
					v-63.09h20.17v9.24c3.04-3.68,6.27-6.39,9.69-8.14c3.42-1.75,7.19-2.62,11.32-2.62c7.28,0,12.81,2.23,16.59,6.7
					C513.9,337.57,515.79,344.06,515.79,352.59z"/>
				<path class="st0" d="M558.75,326.4c10.85,0,19.33,2.93,25.44,8.79c6.1,5.86,9.15,13.97,9.15,24.34s-3.05,18.48-9.15,24.34
					c-6.1,5.86-14.58,8.79-25.44,8.79c-10.89,0-19.41-2.93-25.55-8.79c-6.14-5.86-9.21-13.97-9.21-24.34s3.07-18.48,9.21-24.34
					S547.86,326.4,558.75,326.4z M558.75,340.82c-4.47,0-7.88,1.6-10.22,4.82c-2.35,3.21-3.52,7.84-3.52,13.88
					c0,6.05,1.18,10.68,3.52,13.89c2.35,3.21,5.75,4.82,10.22,4.82c4.39,0,7.75-1.61,10.09-4.82c2.33-3.21,3.49-7.84,3.49-13.89
					c0-6.04-1.17-10.68-3.49-13.88C566.5,342.42,563.14,340.82,558.75,340.82z"/>
				<path class="st0" d="M665.65,352.59v38.42h-20.28v-6.25V361.6c0-5.45-0.12-9.2-0.37-11.27c-0.24-2.07-0.67-3.59-1.27-4.56
					c-0.79-1.31-1.86-2.34-3.21-3.07s-2.89-1.1-4.62-1.1c-4.21,0-7.52,1.63-9.92,4.87c-2.4,3.25-3.6,7.74-3.6,13.49v31.04h-20.17
					v-63.09h20.17v9.24c3.04-3.68,6.27-6.39,9.69-8.14s7.19-2.62,11.32-2.62c7.28,0,12.81,2.23,16.59,6.7
					C663.76,337.57,665.65,344.06,665.65,352.59z"/>
				<path class="st0" d="M670.31,327.92h20.17l16.96,42.81l14.42-42.81h20.17l-26.54,69.07c-2.67,7.02-5.77,11.93-9.32,14.73
					c-3.55,2.8-8.23,4.2-14.06,4.2h-11.66v-13.24h6.31c3.42,0,5.91-0.54,7.46-1.63c1.56-1.09,2.77-3.04,3.64-5.86l0.56-1.75
					L670.31,327.92z"/>
				<path class="st0" d="M806.49,338.4c2.56-3.91,5.59-6.88,9.1-8.93c3.51-2.05,7.37-3.07,11.58-3.07c7.25,0,12.77,2.23,16.56,6.7
					c3.79,4.47,5.69,10.97,5.69,19.49v38.42h-20.28v-32.9c0.04-0.49,0.07-0.99,0.09-1.52c0.02-0.53,0.03-1.28,0.03-2.26
					c0-4.47-0.66-7.71-1.97-9.71c-1.32-2.01-3.44-3.02-6.37-3.02c-3.83,0-6.79,1.58-8.87,4.73c-2.08,3.16-3.17,7.72-3.24,13.69
					v30.98h-20.28v-32.9c0-6.98-0.6-11.48-1.8-13.49c-1.2-2.01-3.34-3.02-6.42-3.02c-3.87,0-6.85,1.59-8.96,4.76
					c-2.1,3.17-3.16,7.71-3.16,13.61v31.04h-20.28v-63.09h20.28v9.24c2.48-3.56,5.32-6.25,8.53-8.05c3.21-1.8,6.75-2.7,10.62-2.7
					c4.36,0,8.21,1.05,11.55,3.15C802.23,331.65,804.77,334.6,806.49,338.4z"/>
				<path class="st0" d="M862.47,303.36h20.17v16.45h-20.17V303.36z M862.47,327.92h20.17v63.09h-20.17V327.92z"/>
				<path class="st0" d="M893.15,327.92h55.04V342l-33.24,34.59h33.24v14.42h-56.44v-14.08l33.24-34.59h-31.83V327.92z"/>
				<path class="st0" d="M1020.61,359.3v5.74h-47.15c0.49,4.73,2.19,8.28,5.13,10.65c2.93,2.37,7.02,3.55,12.28,3.55
					c4.24,0,8.59-0.63,13.04-1.89c4.45-1.26,9.02-3.17,13.72-5.72v15.55c-4.77,1.8-9.54,3.17-14.31,4.09
					c-4.77,0.92-9.54,1.38-14.31,1.38c-11.42,0-20.29-2.9-26.62-8.7c-6.33-5.8-9.49-13.94-9.49-24.42c0-10.29,3.1-18.38,9.32-24.28
					c6.22-5.9,14.77-8.84,25.66-8.84c9.91,0,17.84,2.98,23.8,8.96C1017.64,341.32,1020.61,349.3,1020.61,359.3z M999.88,352.59
					c0-3.83-1.12-6.92-3.36-9.27c-2.23-2.35-5.15-3.52-8.76-3.52c-3.91,0-7.08,1.09-9.52,3.29c-2.44,2.2-3.96,5.36-4.56,9.49H999.88
					z"/>
				<path class="st0" d="M1076.98,345.1c-1.77-0.82-3.52-1.44-5.27-1.83c-1.74-0.39-3.5-0.59-5.26-0.59
					c-5.18,0-9.18,1.66-11.97,4.99c-2.8,3.32-4.2,8.08-4.2,14.28v29.07h-20.17v-63.09h20.17v10.37c2.59-4.13,5.57-7.14,8.93-9.04
					c3.36-1.89,7.39-2.84,12.08-2.84c0.68,0,1.41,0.03,2.19,0.08c0.79,0.06,1.94,0.18,3.44,0.37L1076.98,345.1z"/>
			</g>
		</g>
	</g>
	<g>
		<path class="st0" d="M323.64,251.4l-50.97-29.43c-5.82-3.36-13.34-3.36-19.15,0l-50.97,29.43c-5.91,3.41-9.58,9.77-9.58,16.59
			v58.85c0,6.82,3.67,13.18,9.58,16.59l50.97,29.43c2.91,1.68,6.22,2.57,9.58,2.57c3.36,0,6.67-0.89,9.58-2.57l50.97-29.43
			c5.91-3.41,9.58-9.77,9.58-16.59v-58.85C333.22,261.17,329.55,254.82,323.64,251.4z M323.25,326.85c0,3.27-1.76,6.32-4.59,7.96
			l-50.97,29.43c-2.79,1.61-6.4,1.61-9.19,0l-50.97-29.43c-2.84-1.64-4.59-4.68-4.59-7.96v-58.85c0-3.27,1.76-6.32,4.59-7.96
			l50.97-29.43c1.39-0.81,2.98-1.23,4.59-1.23c1.61,0,3.2,0.42,4.59,1.23l50.97,29.43c2.83,1.64,4.59,4.68,4.59,7.96V326.85z"/>
		<polygon class="st0" points="278.26,246.65 263.1,259.11 247.94,246.65 237.51,283.59 219.02,283.59 219.02,287.82 307.18,287.82 
			307.18,283.59 288.69,283.59 		"/>
		<path class="st0" d="M228.68,301.97c-5.65,0-10.22,4.58-10.22,10.22v0.27c0,5.95,2.86,11.18,7.23,14.56l10.74-25.05H228.68z"/>
		<path class="st0" d="M240.74,301.97l-11.64,27.16c1.01,0.48,2.07,0.85,3.18,1.13l12.13-28.29H240.74z"/>
		<path class="st0" d="M289.06,301.97l-11.64,27.16c1.01,0.48,2.07,0.85,3.18,1.13l12.13-28.29H289.06z"/>
		<path class="st0" d="M277,301.97c-3.7,0-6.91,1.98-8.7,4.92c-1.34-0.4-3.03-0.65-5.2-0.65c-2.17,0-3.85,0.25-5.2,0.65
			c-1.8-2.94-5-4.92-8.7-4.92h-3.62l-12.26,28.59c1.17,0.23,2.37,0.36,3.6,0.36h4.04c10.2,0,18.46-8.27,18.46-18.46v-0.27
			c0-0.45-0.08-0.88-0.13-1.31c1-0.26,2.26-0.43,3.81-0.43c1.55,0,2.81,0.17,3.81,0.43c-0.06,0.43-0.13,0.86-0.13,1.31v0.27
			c0,5.95,2.86,11.18,7.23,14.56l10.74-25.05H277z"/>
		<path class="st0" d="M297.52,301.97h-3.62l-12.26,28.59c1.17,0.23,2.37,0.36,3.6,0.36h4.04c10.2,0,18.46-8.27,18.46-18.46v-0.27
			C307.74,306.55,303.16,301.97,297.52,301.97z"/>
	</g>
</g>
</svg>
