<svg width="16" height="16" viewBox="0 0 16 16" fill="none" xmlns="http://www.w3.org/2000/svg">
    <path d="M8 0.639648C8.6256 0.639807 9.18381 1.0336 9.39355 1.62305L9.66797 2.39648C9.74492 2.61296 9.91078 2.7861 10.123 2.87402C10.3353 2.96189 10.5749 2.95604 10.7822 2.85742L11.5225 2.50488C12.088 2.23481 12.7628 2.35001 13.2061 2.79297C13.6493 3.23622 13.7651 3.91118 13.4951 4.47656L13.1426 5.21777C13.0439 5.42523 13.0371 5.66468 13.125 5.87695C13.2129 6.08917 13.3869 6.25403 13.6035 6.33105L14.377 6.60645C14.9667 6.81595 15.3612 7.37412 15.3613 8C15.3613 8.62615 14.9668 9.18513 14.377 9.39453L13.6035 9.66895C13.387 9.74587 13.213 9.9117 13.125 10.124C13.0372 10.3363 13.0431 10.5762 13.1416 10.7832L13.4951 11.5225C13.7653 12.0881 13.6493 12.7628 13.2061 13.2061C12.7628 13.6492 12.0884 13.7649 11.5234 13.4951L10.7822 13.1436C10.5749 13.0449 10.3352 13.0382 10.123 13.126C9.91079 13.2139 9.74498 13.3879 9.66797 13.6045L9.39355 14.3779C9.18382 14.9674 8.6256 15.3612 8 15.3613C7.37432 15.3613 6.81628 14.9674 6.60645 14.3779L6.33105 13.6045C6.25398 13.388 6.08834 13.2139 5.87598 13.126C5.66369 13.0382 5.42427 13.0449 5.2168 13.1436L4.47754 13.4951C3.91185 13.7663 3.23661 13.6506 2.79297 13.207C2.34936 12.7634 2.23329 12.088 2.50391 11.5234L2.85645 10.7822C2.95518 10.5747 2.961 10.3344 2.87305 10.1221C2.78503 9.90998 2.61108 9.74489 2.39453 9.66797L1.62207 9.39355C1.03196 9.1841 0.637695 8.6252 0.637695 7.99902C0.637764 7.37291 1.03223 6.81482 1.62207 6.60547L2.39453 6.33008C2.61086 6.25313 2.78512 6.08808 2.87305 5.87598C2.96078 5.66407 2.95463 5.42494 2.85645 5.21777L2.50488 4.47754C2.23365 3.91182 2.34938 3.23661 2.79297 2.79297C3.23661 2.34932 3.91195 2.2332 4.47656 2.50391L5.21777 2.85645C5.42514 2.95482 5.66485 2.96078 5.87695 2.87305C6.08886 2.78529 6.25393 2.61202 6.33105 2.39648L6.60645 1.62305C6.81623 1.03353 7.37426 0.639648 8 0.639648ZM8 1.30664C7.65628 1.30664 7.34959 1.52288 7.23438 1.84668L6.95898 2.62012C6.81836 3.01359 6.51792 3.32946 6.13184 3.48926C5.74552 3.64904 5.30928 3.63733 4.93164 3.45801L4.18945 3.10547C3.8788 2.95652 3.50728 3.02006 3.26367 3.26367C3.02012 3.50728 2.95698 3.87868 3.10645 4.19043L3.45898 4.93164C3.63814 5.30936 3.64838 5.74564 3.48828 6.13184C3.3281 6.51794 3.01201 6.81791 2.61816 6.95801L1.84473 7.2334C1.5208 7.34851 1.30476 7.65524 1.30469 7.99902C1.30469 8.34298 1.52133 8.64952 1.8457 8.76465L2.61816 9.04004C3.0125 9.18011 3.32906 9.48059 3.48926 9.86719C3.64943 10.2539 3.63869 10.6906 3.45898 11.0684L3.10645 11.8105C2.95757 12.1211 3.02035 12.4917 3.26367 12.7354C3.50728 12.979 3.87884 13.0429 4.19043 12.8936L4.92969 12.541C5.3077 12.3612 5.74509 12.3506 6.13184 12.5107C6.51833 12.671 6.81881 12.9877 6.95898 13.3818L7.23438 14.1543C7.3496 14.4781 7.65628 14.6943 8 14.6943C8.34355 14.6942 8.64946 14.478 8.76465 14.1543L9.04004 13.3818C9.18008 12.9876 9.48069 12.671 9.86719 12.5107C10.2539 12.3506 10.6906 12.3613 11.0684 12.541L11.8105 12.8936C12.1212 13.0418 12.492 12.9778 12.7354 12.7344C12.9785 12.4909 13.0419 12.1202 12.8936 11.8096L12.54 11.0693C12.3604 10.6915 12.3496 10.2547 12.5098 9.86816C12.67 9.48183 12.9859 9.18103 13.3799 9.04102L14.1533 8.76562C14.4775 8.65057 14.6943 8.34396 14.6943 8C14.6942 7.65621 14.4776 7.34946 14.1533 7.23438L13.3809 6.95996C12.9865 6.81987 12.6699 6.51851 12.5098 6.13184C12.3497 5.74521 12.3602 5.30873 12.54 4.93066L12.8936 4.18945C13.0419 3.87881 12.9787 3.50812 12.7354 3.26465C12.4919 3.02117 12.1205 2.95793 11.8096 3.10645L11.0684 3.45996C10.6905 3.63964 10.2538 3.65037 9.86719 3.49023C9.48067 3.33002 9.18004 3.01328 9.04004 2.61914L8.76465 1.84668C8.64946 1.52297 8.34357 1.3068 8 1.30664ZM7.99902 4.91699C9.70175 4.91701 11.0828 6.29732 11.083 8C11.083 9.70287 9.70189 11.084 7.99902 11.084C6.2963 11.0838 4.91602 9.70277 4.91602 8C4.91624 6.29742 6.29643 4.91717 7.99902 4.91699ZM7.99902 5.58398C6.66462 5.58416 5.58323 6.66561 5.58301 8C5.58301 9.33458 6.66448 10.4168 7.99902 10.417C9.3337 10.417 10.416 9.33468 10.416 8C10.4158 6.66551 9.33356 5.584 7.99902 5.58398Z" fill="currentColor"/>
</svg>
