<svg xmlns="http://www.w3.org/2000/svg" width="14" height="14" viewBox="0 0 14 14" fill="none">
  <path d="M6.9868 1.75C7.52439 1.75 8.02251 2.02072 8.31284 2.46407L8.36809 2.55501L12.6121 9.87982C12.9034 10.3674 12.9073 10.9729 12.6221 11.464C12.3548 11.9244 11.8725 12.2172 11.3427 12.2475L11.2361 12.25H2.73749C2.17109 12.2461 1.64999 11.942 1.37132 11.4526C1.11123 10.9958 1.09937 10.4428 1.33382 9.97801L1.38783 9.87982L5.60551 2.55501C5.88484 2.05802 6.41336 1.75 6.9868 1.75Z" fill="currentColor"/>
  <path d="M6.99966 8.75C7.32172 8.75 7.58347 8.48901 7.58365 8.16699V5.25C7.58365 4.92783 7.32183 4.66699 6.99966 4.66699C6.67765 4.66717 6.41666 4.92794 6.41666 5.25V8.16699C6.41683 8.4889 6.67776 8.74982 6.99966 8.75ZM6.99966 10.5C7.32172 10.5 7.58347 10.239 7.58365 9.91699C7.58365 9.59483 7.32183 9.33301 6.99966 9.33301C6.67765 9.33318 6.41666 9.59493 6.41666 9.91699C6.41683 10.2389 6.67776 10.4998 6.99966 10.5Z" fill="white"/>
</svg>