<svg xmlns="http://www.w3.org/2000/svg" width="24" height="24" viewBox="0 0 24 24" fill="none">
  <path d="M12 2C14.6522 2 17.1959 3.05335 19.0713 4.92871C20.9467 6.80407 22 9.34784 22 12C22 17.5228 17.5228 22 12 22C6.47715 22 2 17.5228 2 12C2 6.47715 6.47715 2 12 2ZM15.6914 9.11621C15.3654 8.90479 14.929 8.99043 14.7129 9.30859L10.5186 13.2588L9.20605 11.9727C8.93047 11.7026 8.48269 11.7026 8.20703 11.9727C7.93138 12.2428 7.93138 12.681 8.20703 12.9512L10.0908 14.7979C10.225 14.9279 10.4042 15 10.5908 15L10.6514 14.998C10.8721 14.975 11.062 14.8635 11.1787 14.6914L15.8594 10.1113C16.1052 9.75869 16.0163 9.32802 15.6914 9.11621Z" fill="currentColor"/>
</svg>
