<svg xmlns="http://www.w3.org/2000/svg" width="24" height="24" viewBox="0 0 24 24" fill="none">
  <path d="M21.5 20C21.7762 20 22 20.2239 22 20.5C22 20.7455 21.8231 20.9499 21.5899 20.9922L21.5 21H2.50002C2.22387 21 2.00002 20.7761 2.00002 20.5C2.00002 20.2545 2.17692 20.0501 2.41017 20.0078L2.50002 20H21.5ZM12.7559 2C12.9779 2 13.1923 2.074 13.3662 2.20801L13.4658 2.2959L17.7041 6.58398C17.8934 6.77168 18 7.0274 18 7.29395C18 7.516 17.9261 7.7304 17.792 7.9043L17.7041 8.00391L14.8652 10.7822L7.94826 17.71C7.79111 17.8658 7.58729 17.9645 7.37013 17.9922L7.2383 18H3.00002C2.48748 18 2.06472 17.6142 2.00685 17.1172L2.00002 17V12.7617C1.99878 12.5404 2.07078 12.3258 2.20314 12.1514L2.29005 12.0518L9.22755 5.125L12.0459 2.2959C12.2335 2.10672 12.4894 2.00008 12.7559 2ZM9.93361 5.83203L3.00002 12.7568V16.999L7.24318 17L14.166 10.0684L14.2647 9.97168L10.0283 5.73535L9.93361 5.83203ZM10.7344 5.02734L14.9785 9.27148L16.999 7.29297L12.7559 3L10.7344 5.02734Z" fill="currentColor"/>
</svg>
