<svg xmlns="http://www.w3.org/2000/svg" width="22" height="22" viewBox="0 0 22 22" fill="none">
  <path fill-rule="evenodd" clip-rule="evenodd" d="M10.9997 1.83301C13.4308 1.83301 15.7624 2.79878 17.4815 4.51786C19.2006 6.23695 20.1663 8.56852 20.1663 10.9997C20.1663 16.0623 16.0623 20.1663 10.9997 20.1663C5.93706 20.1663 1.83301 16.0623 1.83301 10.9997C1.83301 5.93706 5.93706 1.83301 10.9997 1.83301ZM10.9997 2.74967C6.44333 2.74967 2.74967 6.44333 2.74967 10.9997C2.74967 15.556 6.44333 19.2497 10.9997 19.2497C15.556 19.2497 19.2497 15.556 19.2497 10.9997C19.2497 8.81164 18.3805 6.71322 16.8333 5.16604C15.2861 3.61887 13.1877 2.74967 10.9997 2.74967ZM10.083 14.6663C10.083 15.1726 10.4934 15.583 10.9997 15.583C11.5059 15.583 11.9163 15.1726 11.9163 14.6663C11.9163 14.1601 11.5059 13.7497 10.9997 13.7497C10.4934 13.7497 10.083 14.1601 10.083 14.6663ZM10.083 11.9163C10.083 12.4226 10.4934 12.833 10.9997 12.833C11.5059 12.833 11.9163 12.4226 11.9163 11.9163V7.33301C11.9163 6.82675 11.5059 6.41634 10.9997 6.41634C10.4934 6.41634 10.083 6.82675 10.083 7.33301V11.9163Z" fill="currentColor"/>
</svg>