<svg xmlns="http://www.w3.org/2000/svg" width="23" height="24" viewBox="0 0 23 24" fill="none">
  <path d="M11.451 5.33398C8.10969 5.33398 5.39062 8.0259 5.39062 11.3338C5.39062 13.3164 6.4128 15.1843 8.08411 16.2963V18.0003C8.08411 19.8389 9.59515 21.3335 11.451 21.3335C13.3068 21.3335 14.8178 19.8389 14.8178 18.0003V16.2963C16.4891 15.1843 17.5113 13.3177 17.5113 11.3338C17.5113 8.0259 14.7922 5.33398 11.451 5.33398ZM13.8064 15.3523C13.599 15.471 13.4711 15.691 13.4711 15.9283V18.0003C13.4711 19.1029 12.5647 20.0002 11.451 20.0002C10.3372 20.0002 9.43085 19.1029 9.43085 18.0003V15.927C9.43085 15.6897 9.30291 15.4697 9.09551 15.351C7.61948 14.499 6.73737 12.9977 6.73737 11.3338C6.73737 8.76055 8.85175 6.66728 11.451 6.66728C14.0502 6.66728 16.1645 8.76055 16.1645 11.3338C16.1645 12.9977 15.2824 14.499 13.8064 15.3523Z" fill="#0B1117"/>
  <path d="M22.2232 10.668H20.8765C20.5048 10.668 20.2031 10.9666 20.2031 11.3346C20.2031 11.7026 20.5048 12.0013 20.8765 12.0013H22.2232C22.5949 12.0013 22.8966 11.7026 22.8966 11.3346C22.8966 10.9666 22.5949 10.668 22.2232 10.668Z" fill="#0B1117"/>
  <path d="M2.02011 10.668H0.673371C0.30167 10.668 0 10.9666 0 11.3346C0 11.7026 0.30167 12.0013 0.673371 12.0013H2.02011C2.39181 12.0013 2.69348 11.7026 2.69348 11.3346C2.69348 10.9666 2.39181 10.668 2.02011 10.668Z" fill="#0B1117"/>
  <path d="M11.4507 2.66658C11.8224 2.66658 12.1241 2.36793 12.1241 1.99994V0.666646C12.1241 0.298657 11.8224 0 11.4507 0C11.079 0 10.7773 0.298657 10.7773 0.666646V1.99994C10.7773 2.36793 11.079 2.66658 11.4507 2.66658Z" fill="#0B1117"/>
  <path d="M5.2575 4.26068L4.30536 3.31804C4.04274 3.05805 3.61582 3.05805 3.35321 3.31804C3.0906 3.57803 3.0906 4.00069 3.35321 4.26068L4.30536 5.20332C4.43599 5.33398 4.60837 5.39931 4.78075 5.39931C4.95314 5.39931 5.12552 5.33398 5.2575 5.20465C5.52011 4.94332 5.52011 4.522 5.2575 4.26068Z" fill="#0B1117"/>
  <path d="M18.5905 3.31804L17.6384 4.26068C17.3758 4.52067 17.3758 4.94332 17.6384 5.20332C17.7703 5.33398 17.9427 5.39798 18.1151 5.39798C18.2875 5.39798 18.4599 5.33265 18.5919 5.20332L19.544 4.26068C19.8066 4.00069 19.8066 3.57803 19.544 3.31804C19.2814 3.05805 18.8545 3.05805 18.5905 3.31804Z" fill="#0B1117"/>
  <path d="M12.7965 22.668H10.1031C9.73136 22.668 9.42969 22.9666 9.42969 23.3346C9.42969 23.7026 9.73136 24.0013 10.1031 24.0013H12.7965C13.1682 24.0013 13.4699 23.7026 13.4699 23.3346C13.4699 22.9666 13.1682 22.668 12.7965 22.668Z" fill="#0B1117"/>
</svg>
