<svg xmlns="http://www.w3.org/2000/svg" width="18" height="18" viewBox="0 0 18 18" fill="none">
  <path d="M9 3.75C10.3924 3.75 11.7277 4.30312 12.7123 5.28769C13.6969 6.27226 14.25 7.60761 14.25 9C14.25 11.8995 11.8995 14.25 9 14.25C6.10051 14.25 3.75 11.8995 3.75 9C3.75 6.10051 6.10051 3.75 9 3.75Z" fill="#97A5B0"/>
  <path d="M9 8.25C9.41421 8.25 9.75 8.58579 9.75 9V11.25C9.75 11.6642 9.41421 12 9 12C8.58579 12 8.25 11.6642 8.25 11.25V9C8.25 8.58579 8.58579 8.25 9 8.25ZM9 6C9.41421 6 9.75 6.33579 9.75 6.75C9.75 7.16421 9.41421 7.5 9 7.5C8.58579 7.5 8.25 7.16421 8.25 6.75C8.25 6.33579 8.58579 6 9 6Z" fill="white"/>
</svg>
