<svg xmlns="http://www.w3.org/2000/svg" width="24" height="24" viewBox="0 0 24 24" fill="none">
  <path d="M12 2C17.5228 2 22 6.47715 22 12C22 17.5228 17.5228 22 12 22C6.47715 22 2 17.5228 2 12C2 6.47715 6.47715 2 12 2ZM12 3C7.02944 3 3 7.02944 3 12C3 16.9706 7.02944 21 12 21C16.9706 21 21 16.9706 21 12C21 7.02944 16.9706 3 12 3ZM9.5 8C10.0523 8 10.5 8.44772 10.5 9V15C10.5 15.5523 10.0523 16 9.5 16C8.94772 16 8.5 15.5523 8.5 15V9C8.5 8.44772 8.94772 8 9.5 8ZM14.5 8C15.0523 8 15.5 8.44772 15.5 9V15C15.5 15.5523 15.0523 16 14.5 16C13.9477 16 13.5 15.5523 13.5 15V9C13.5 8.44772 13.9477 8 14.5 8Z" fill="currentColor"/>
  <path d="M12 2V2.25C17.3848 2.25 21.75 6.61522 21.75 12H22H22.25C22.25 6.33908 17.6609 1.75 12 1.75V2ZM22 12H21.75C21.75 17.3848 17.3848 21.75 12 21.75V22V22.25C17.6609 22.25 22.25 17.6609 22.25 12H22ZM12 22V21.75C6.61522 21.75 2.25 17.3848 2.25 12H2H1.75C1.75 17.6609 6.33908 22.25 12 22.25V22ZM2 12H2.25C2.25 6.61522 6.61522 2.25 12 2.25V2V1.75C6.33908 1.75 1.75 6.33908 1.75 12H2ZM12 3V2.75C6.89137 2.75 2.75 6.89137 2.75 12H3H3.25C3.25 7.16751 7.16751 3.25 12 3.25V3ZM3 12H2.75C2.75 17.1086 6.89137 21.25 12 21.25V21V20.75C7.16751 20.75 3.25 16.8325 3.25 12H3ZM12 21V21.25C17.1086 21.25 21.25 17.1086 21.25 12H21H20.75C20.75 16.8325 16.8325 20.75 12 20.75V21ZM21 12H21.25C21.25 6.89137 17.1086 2.75 12 2.75V3V3.25C16.8325 3.25 20.75 7.16751 20.75 12H21ZM9.5 8V8.25C9.91421 8.25 10.25 8.58579 10.25 9H10.5H10.75C10.75 8.30964 10.1904 7.75 9.5 7.75V8ZM10.5 9H10.25V15H10.5H10.75V9H10.5ZM10.5 15H10.25C10.25 15.4142 9.91421 15.75 9.5 15.75V16V16.25C10.1904 16.25 10.75 15.6904 10.75 15H10.5ZM9.5 16V15.75C9.08579 15.75 8.75 15.4142 8.75 15H8.5H8.25C8.25 15.6904 8.80964 16.25 9.5 16.25V16ZM8.5 15H8.75V9H8.5H8.25V15H8.5ZM8.5 9H8.75C8.75 8.58579 9.08579 8.25 9.5 8.25V8V7.75C8.80964 7.75 8.25 8.30964 8.25 9H8.5ZM14.5 8V8.25C14.9142 8.25 15.25 8.58579 15.25 9H15.5H15.75C15.75 8.30964 15.1904 7.75 14.5 7.75V8ZM15.5 9H15.25V15H15.5H15.75V9H15.5ZM15.5 15H15.25C15.25 15.4142 14.9142 15.75 14.5 15.75V16V16.25C15.1904 16.25 15.75 15.6904 15.75 15H15.5ZM14.5 16V15.75C14.0858 15.75 13.75 15.4142 13.75 15H13.5H13.25C13.25 15.6904 13.8096 16.25 14.5 16.25V16ZM13.5 15H13.75V9H13.5H13.25V15H13.5ZM13.5 9H13.75C13.75 8.58579 14.0858 8.25 14.5 8.25V8V7.75C13.8096 7.75 13.25 8.30964 13.25 9H13.5Z" fill="currentColor"/>
</svg>
