<svg xmlns="http://www.w3.org/2000/svg" width="24" height="24" viewBox="0 0 24 24" fill="none">
  <path d="M15 2C15.276 2 15.5 2.224 15.5 2.5C15.5 2.776 15.276 3 15 3H12.5V7.02539C14.191 7.13839 15.7287 7.81031 16.9307 8.86328L18.1475 7.64746C18.3425 7.45246 18.6585 7.45247 18.8535 7.64746C19.0485 7.84246 19.0485 8.15852 18.8535 8.35352L17.6377 9.56934C18.7927 10.8903 19.5 12.611 19.5 14.5C19.5 18.636 16.136 22 12 22C7.864 22 4.5 18.636 4.5 14.5C4.5 10.533 7.59801 7.2844 11.5 7.02539V3H9C8.724 3 8.5 2.776 8.5 2.5C8.5 2.224 8.724 2 9 2H15ZM12 8C8.416 8 5.5 10.916 5.5 14.5C5.5 18.084 8.416 21 12 21C15.584 21 18.5 18.084 18.5 14.5C18.5 10.916 15.584 8 12 8ZM14.6465 11.1465C14.8425 10.9515 15.1585 10.9515 15.3535 11.1465C15.5485 11.3415 15.5485 11.6575 15.3535 11.8525L13.3496 13.8574C13.4426 14.0534 13.5 14.2701 13.5 14.5C13.5 15.327 12.826 16 11.999 16C11.172 16 10.499 15.327 10.499 14.5C10.499 13.673 11.172 13 11.999 13C12.2299 13 12.4467 13.0564 12.6416 13.1504L14.6465 11.1465ZM11.5508 14.7158C11.5721 14.7583 11.6 14.7969 11.6318 14.832C11.5994 14.7954 11.5715 14.7569 11.5508 14.7158Z" fill="currentColor"/>
  <path d="M12.5 3V2.75H12.25V3H12.5ZM12.5 7.02539H12.25V7.25924L12.4833 7.27483L12.5 7.02539ZM16.9307 8.86328L16.7659 9.05133L16.9419 9.20548L17.1074 9.04013L16.9307 8.86328ZM18.1475 7.64746L18.3242 7.82431L18.3242 7.82424L18.1475 7.64746ZM18.8535 7.64746L19.0303 7.47068L19.0303 7.47068L18.8535 7.64746ZM18.8535 8.35352L19.0303 8.53029V8.53029L18.8535 8.35352ZM17.6377 9.56934L17.4609 9.39256L17.2956 9.55788L17.4495 9.73389L17.6377 9.56934ZM11.5 7.02539L11.5166 7.27484L11.75 7.25935V7.02539H11.5ZM11.5 3H11.75V2.75H11.5V3ZM14.6465 11.1465L14.4702 10.9693L14.4698 10.9697L14.6465 11.1465ZM15.3535 11.1465L15.5303 10.9697V10.9697L15.3535 11.1465ZM15.3535 11.8525L15.1767 11.6758L15.1767 11.6758L15.3535 11.8525ZM13.3496 13.8574L13.1728 13.6807L13.0482 13.8053L13.1237 13.9646L13.3496 13.8574ZM13.5 14.5H13.75V14.5H13.5ZM11.999 16V16.25H11.999L11.999 16ZM10.499 14.5H10.249V14.5H10.499ZM11.999 13L11.999 12.75H11.999V13ZM12.6416 13.1504L12.5331 13.3756L12.6929 13.4526L12.8183 13.3272L12.6416 13.1504ZM11.5508 14.7158L11.7741 14.6034L11.3272 14.8277L11.5508 14.7158ZM11.6318 14.832L11.4464 14.9997L11.8189 14.6662L11.6318 14.832ZM15 2V2.25C15.1379 2.25 15.25 2.36207 15.25 2.5H15.5H15.75C15.75 2.08593 15.4141 1.75 15 1.75V2ZM15.5 2.5H15.25C15.25 2.63793 15.1379 2.75 15 2.75V3V3.25C15.4141 3.25 15.75 2.91407 15.75 2.5H15.5ZM15 3V2.75H12.5V3V3.25H15V3ZM12.5 3H12.25V7.02539H12.5H12.75V3H12.5ZM12.5 7.02539L12.4833 7.27483C14.1178 7.38406 15.6039 8.03335 16.7659 9.05133L16.9307 8.86328L17.0954 8.67523C15.8535 7.58727 14.2641 6.89273 12.5167 6.77595L12.5 7.02539ZM16.9307 8.86328L17.1074 9.04013L18.3242 7.82431L18.1475 7.64746L17.9708 7.47061L16.754 8.68643L16.9307 8.86328ZM18.1475 7.64746L18.3242 7.82424C18.4216 7.72688 18.5794 7.72687 18.6767 7.82424L18.8535 7.64746L19.0303 7.47068C18.7377 7.17807 18.2633 7.17805 17.9707 7.47068L18.1475 7.64746ZM18.8535 7.64746L18.6767 7.82424C18.7741 7.92161 18.7741 8.07937 18.6767 8.17674L18.8535 8.35352L19.0303 8.53029C19.3229 8.23766 19.3229 7.76332 19.0303 7.47068L18.8535 7.64746ZM18.8535 8.35352L18.6767 8.17674L17.4609 9.39256L17.6377 9.56934L17.8145 9.74611L19.0303 8.53029L18.8535 8.35352ZM17.6377 9.56934L17.4495 9.73389C18.5669 11.0119 19.25 12.6749 19.25 14.5H19.5H19.75C19.75 12.5472 19.0185 10.7688 17.8259 9.40478L17.6377 9.56934ZM19.5 14.5H19.25C19.25 18.4979 15.9979 21.75 12 21.75V22V22.25C16.2741 22.25 19.75 18.7741 19.75 14.5H19.5ZM12 22V21.75C8.00207 21.75 4.75 18.4979 4.75 14.5H4.5H4.25C4.25 18.7741 7.72593 22.25 12 22.25V22ZM4.5 14.5H4.75C4.75 10.6661 7.7445 7.52523 11.5166 7.27484L11.5 7.02539L11.4834 6.77594C7.45152 7.04358 4.25 10.3999 4.25 14.5H4.5ZM11.5 7.02539H11.75V3H11.5H11.25V7.02539H11.5ZM11.5 3V2.75H9V3V3.25H11.5V3ZM9 3V2.75C8.86207 2.75 8.75 2.63793 8.75 2.5H8.5H8.25C8.25 2.91407 8.58593 3.25 9 3.25V3ZM8.5 2.5H8.75C8.75 2.36207 8.86207 2.25 9 2.25V2V1.75C8.58593 1.75 8.25 2.08593 8.25 2.5H8.5ZM9 2V2.25H15V2V1.75H9V2ZM12 8V7.75C8.27793 7.75 5.25 10.7779 5.25 14.5H5.5H5.75C5.75 11.0541 8.55407 8.25 12 8.25V8ZM5.5 14.5H5.25C5.25 18.2221 8.27793 21.25 12 21.25V21V20.75C8.55407 20.75 5.75 17.9459 5.75 14.5H5.5ZM12 21V21.25C15.7221 21.25 18.75 18.2221 18.75 14.5H18.5H18.25C18.25 17.9459 15.4459 20.75 12 20.75V21ZM18.5 14.5H18.75C18.75 10.7779 15.7221 7.75 12 7.75V8V8.25C15.4459 8.25 18.25 11.0541 18.25 14.5H18.5ZM14.6465 11.1465L14.8228 11.3237C14.9215 11.2255 15.0796 11.2261 15.1767 11.3233L15.3535 11.1465L15.5303 10.9697C15.2374 10.6768 14.7634 10.6775 14.4702 10.9693L14.6465 11.1465ZM15.3535 11.1465L15.1767 11.3233C15.2741 11.4206 15.2741 11.5784 15.1767 11.6758L15.3535 11.8525L15.5303 12.0293C15.8229 11.7367 15.8229 11.2623 15.5303 10.9697L15.3535 11.1465ZM15.3535 11.8525L15.1767 11.6758L13.1728 13.6807L13.3496 13.8574L13.5264 14.0342L15.5303 12.0293L15.3535 11.8525ZM13.3496 13.8574L13.1237 13.9646C13.2032 14.1321 13.25 14.3124 13.25 14.5H13.5H13.75C13.75 14.2278 13.6819 13.9746 13.5755 13.7503L13.3496 13.8574ZM13.5 14.5H13.25C13.25 15.1887 12.6882 15.75 11.999 15.75L11.999 16L11.999 16.25C12.9639 16.25 13.75 15.4653 13.75 14.5H13.5ZM11.999 16V15.75C11.3101 15.75 10.749 15.1889 10.749 14.5H10.499H10.249C10.249 15.4651 11.034 16.25 11.999 16.25V16ZM10.499 14.5H10.749C10.749 13.8111 11.3101 13.25 11.999 13.25V13V12.75C11.034 12.75 10.249 13.5349 10.249 14.5H10.499ZM11.999 13L11.999 13.25C12.1885 13.25 12.3683 13.2962 12.5331 13.3756L12.6416 13.1504L12.7501 12.9252C12.525 12.8167 12.2714 12.75 11.999 12.75L11.999 13ZM12.6416 13.1504L12.8183 13.3272L14.8232 11.3233L14.6465 11.1465L14.4698 10.9697L12.4649 12.9736L12.6416 13.1504ZM11.5508 14.7158L11.3272 14.8277C11.3606 14.8945 11.4028 14.9515 11.4464 14.9997L11.6318 14.832L11.8172 14.6643C11.7973 14.6422 11.7835 14.6222 11.7744 14.604L11.5508 14.7158ZM11.6318 14.832L11.8189 14.6662C11.7966 14.641 11.7825 14.6202 11.7741 14.6034L11.5508 14.7158L11.3275 14.8282C11.3604 14.8936 11.4023 14.9499 11.4447 14.9978L11.6318 14.832Z" fill="currentColor"/>
</svg>
