<svg xmlns="http://www.w3.org/2000/svg" width="24" height="24" viewBox="0 0 24 24" fill="none">
  <path d="M15.5 2C15.776 2 16 2.224 16 2.5C16 2.776 15.776 3 15.5 3H13V7.02539C14.691 7.13839 16.2287 7.81031 17.4307 8.86328L18.6475 7.64746C18.8425 7.45246 19.1585 7.45247 19.3535 7.64746C19.5485 7.84246 19.5485 8.15852 19.3535 8.35352L18.1377 9.56934C19.2927 10.8903 20 12.611 20 14.5C20 18.636 16.636 22 12.5 22C8.364 22 5 18.636 5 14.5C5 10.533 8.09801 7.2844 12 7.02539V3H9.5C9.224 3 9 2.776 9 2.5C9 2.224 9.224 2 9.5 2H15.5ZM12.5 8C8.916 8 6 10.916 6 14.5C6 18.084 8.916 21 12.5 21C16.084 21 19 18.084 19 14.5C19 10.916 16.084 8 12.5 8ZM15.1465 11.1465C15.3425 10.9515 15.6585 10.9515 15.8535 11.1465C16.0485 11.3415 16.0485 11.6575 15.8535 11.8525L13.8496 13.8574C13.9426 14.0534 14 14.2701 14 14.5C14 15.327 13.326 16 12.499 16C11.672 16 10.999 15.327 10.999 14.5C10.999 13.673 11.672 13 12.499 13C12.7299 13 12.9467 13.0564 13.1416 13.1504L15.1465 11.1465ZM12.0508 14.7158C12.0721 14.7583 12.1 14.7969 12.1318 14.832C12.0994 14.7954 12.0715 14.7569 12.0508 14.7158Z" fill="currentColor"/>
</svg>