<svg width="20" height="20" viewBox="0 0 20 20" fill="none" xmlns="http://www.w3.org/2000/svg">
<path d="M16.6666 6.66663L11.6666 1.66663H7.33331C5.93318 1.66663 5.23312 1.66663 4.69834 1.93911C4.22793 2.17879 3.84548 2.56124 3.6058 3.03165C3.33331 3.56643 3.33331 4.26649 3.33331 5.66663V14.3333C3.33331 15.7334 3.33331 16.4335 3.6058 16.9683C3.84548 17.4387 4.22793 17.8211 4.69834 18.0608C5.23312 18.3333 5.93318 18.3333 7.33331 18.3333H12.6666C14.0668 18.3333 14.7668 18.3333 15.3016 18.0608C15.772 17.8211 16.1545 17.4387 16.3942 16.9683C16.6666 16.4335 16.6666 15.7334 16.6666 14.3333V6.66663ZM11.6666 1.66663V6.66663H16.6666M9.99998 15C9.99998 15 12.5 13.8084 12.5 12.021V9.9357L10.677 9.2843C10.239 9.1274 9.75998 9.1274 9.32198 9.2843L7.49998 9.9357V12.021C7.49998 13.8084 9.99998 15 9.99998 15Z" stroke="black" stroke-linecap="round" stroke-linejoin="round"/>
<g clip-path="url(#clip0_529_14967)">
<rect width="8.33333" height="8.33333" transform="translate(5.83331 8.33337)" fill="white"/>
<path d="M6.875 12.1528L6.875 15.625M11.0417 12.1528L11.0417 15.625M8.95833 9.375L8.95833 15.625M13.125 9.375V15.625" stroke="black" stroke-linecap="round" stroke-linejoin="round"/>
</g>
<rect width="8.33333" height="8.33333" transform="translate(5.83331 7.91663)" fill="white"/>
<path d="M12.0833 14.8611V9.30554M7.91663 14.8611V13.4722M9.99996 14.8611V11.3889" stroke="black" stroke-linecap="round" stroke-linejoin="round"/>
<defs>
<clipPath id="clip0_529_14967">
<rect width="8.33333" height="8.33333" fill="white" transform="translate(5.83331 8.33337)"/>
</clipPath>
</defs>
</svg>
