<svg xmlns="http://www.w3.org/2000/svg" width="24" height="24" viewBox="0 0 24 24" fill="none">
  <path d="M11.9997 6.16797C13.5468 6.16797 15.0307 6.78299 16.1247 7.87695C17.2185 8.97082 17.8336 10.4541 17.8337 12.001C17.8337 15.2226 15.2214 17.835 11.9997 17.835C8.77818 17.8348 6.16669 15.2225 6.16669 12.001C6.16686 8.77957 8.77829 6.16814 11.9997 6.16797ZM11.9997 13.751C11.6777 13.7512 11.4167 14.0129 11.4167 14.335C11.4169 14.6568 11.6778 14.9178 11.9997 14.918C12.3217 14.918 12.5835 14.657 12.5837 14.335C12.5837 14.0128 12.3219 13.751 11.9997 13.751ZM11.9997 9.08496C11.6777 9.08518 11.4167 9.34594 11.4167 9.66797V12.585C11.4169 12.9068 11.6778 13.1677 11.9997 13.168C12.3217 13.168 12.5835 12.907 12.5837 12.585V9.66797C12.5837 9.3458 12.3219 9.08496 11.9997 9.08496Z" fill="currentColor"/>
</svg>