<svg xmlns="http://www.w3.org/2000/svg" width="24" height="24" viewBox="0 0 24 24" fill="none">
  <path d="M12 2C17.5137 2 22 6.48632 22 12C22 17.5137 17.5137 22 12 22C6.48632 22 2 17.5137 2 12C2 6.48632 6.48632 2 12 2ZM12 3C7.03729 3 3 7.03729 3 12C3 16.9627 7.03729 21 12 21C16.9627 21 21 16.9627 21 12C21 7.03729 16.9627 3 12 3ZM14.7129 9.30859C14.929 8.99043 15.3654 8.90479 15.6914 9.11621C16.0163 9.32802 16.1052 9.75869 15.8594 10.1113L11.1787 14.6914C11.062 14.8635 10.8721 14.975 10.6514 14.998L10.5908 15C10.4042 15 10.225 14.9279 10.0908 14.7979L8.20703 12.9512C7.93138 12.681 7.93138 12.2428 8.20703 11.9727C8.48269 11.7026 8.93047 11.7026 9.20605 11.9727L10.5186 13.2588L14.7129 9.30859Z" fill="#097345"/>
</svg>