<svg xmlns="http://www.w3.org/2000/svg" width="24" height="24" viewBox="0 0 24 24" fill="none">
  <path d="M11.9774 3C12.899 3 13.7529 3.46409 14.2506 4.22412L14.3453 4.38002L21.6208 16.9368C22.1202 17.7726 22.1267 18.8106 21.638 19.6525C21.1797 20.4418 20.3529 20.9438 19.4446 20.9957L19.2619 21H4.69285C3.72188 20.9933 2.82858 20.4719 2.35085 19.633C1.90498 18.85 1.88466 17.902 2.28657 17.1052L2.37916 16.9368L9.60946 4.38002C10.0883 3.52803 10.9944 3 11.9774 3Z" fill="currentColor"/>
  <path d="M12 15C12.5523 15 13 14.5523 13 14V9C13 8.44771 12.5523 8 12 8C11.4477 8 11 8.44772 11 9V14C11 14.5523 11.4477 15 12 15ZM12 18C12.5523 18 13 17.5523 13 17C13 16.4477 12.5523 16 12 16C11.4477 16 11 16.4477 11 17C11 17.5523 11.4477 18 12 18Z" fill="white"/>
</svg>
