<svg xmlns="http://www.w3.org/2000/svg" xmlns:xlink="http://www.w3.org/1999/xlink" width="1024" zoomAndPan="magnify" viewBox="0 0 768 576" height="768" preserveAspectRatio="xMidYMid meet" version="1.0"><defs><g/><clipPath id="b43a7a27b8"><path d="M 46.179688 69.4375 L 223 69.4375 L 223 246 L 46.179688 246 Z M 46.179688 69.4375 " clip-rule="nonzero"/></clipPath><clipPath id="275fb6f101"><path d="M 73.179688 69.4375 L 198.867188 69.4375 C 206.027344 69.4375 212.894531 72.285156 217.960938 77.347656 C 223.023438 82.410156 225.867188 89.277344 225.867188 96.4375 L 225.867188 219.601562 C 225.867188 226.761719 223.023438 233.628906 217.960938 238.691406 C 212.894531 243.753906 206.027344 246.601562 198.867188 246.601562 L 73.179688 246.601562 C 66.015625 246.601562 59.148438 243.753906 54.085938 238.691406 C 49.023438 233.628906 46.179688 226.761719 46.179688 219.601562 L 46.179688 96.4375 C 46.179688 89.277344 49.023438 82.410156 54.085938 77.347656 C 59.148438 72.285156 66.015625 69.4375 73.179688 69.4375 " clip-rule="nonzero"/></clipPath><clipPath id="99c3f0c5c2"><path d="M 305.152344 329.398438 L 482 329.398438 L 482 506 L 305.152344 506 Z M 305.152344 329.398438 " clip-rule="nonzero"/></clipPath><clipPath id="17630a2c38"><path d="M 332.152344 329.398438 L 457.554688 329.398438 C 464.714844 329.398438 471.582031 332.246094 476.644531 337.308594 C 481.710938 342.371094 484.554688 349.238281 484.554688 356.398438 L 484.554688 479.5625 C 484.554688 486.722656 481.710938 493.589844 476.644531 498.652344 C 471.582031 503.714844 464.714844 506.5625 457.554688 506.5625 L 332.152344 506.5625 C 324.992188 506.5625 318.125 503.714844 313.0625 498.652344 C 307.996094 493.589844 305.152344 486.722656 305.152344 479.5625 L 305.152344 356.398438 C 305.152344 349.238281 307.996094 342.371094 313.0625 337.308594 C 318.125 332.246094 324.992188 329.398438 332.152344 329.398438 " clip-rule="nonzero"/></clipPath><clipPath id="53cd99c2cf"><path d="M 542.421875 71.515625 L 719 71.515625 L 719 248 L 542.421875 248 Z M 542.421875 71.515625 " clip-rule="nonzero"/></clipPath><clipPath id="21c3b24de2"><path d="M 569.421875 71.515625 L 694.820312 71.515625 C 701.980469 71.515625 708.851562 74.359375 713.914062 79.421875 C 718.976562 84.488281 721.820312 91.355469 721.820312 98.515625 L 721.820312 221.675781 C 721.820312 228.835938 718.976562 235.703125 713.914062 240.769531 C 708.851562 245.832031 701.980469 248.675781 694.820312 248.675781 L 569.421875 248.675781 C 562.257812 248.675781 555.390625 245.832031 550.328125 240.769531 C 545.265625 235.703125 542.421875 228.835938 542.421875 221.675781 L 542.421875 98.515625 C 542.421875 91.355469 545.265625 84.488281 550.328125 79.421875 C 555.390625 74.359375 562.257812 71.515625 569.421875 71.515625 " clip-rule="nonzero"/></clipPath><clipPath id="197878358f"><path d="M 64.03125 193.316406 L 206 193.316406 L 206 230 L 64.03125 230 Z M 64.03125 193.316406 " clip-rule="nonzero"/></clipPath><clipPath id="ed3ba0d7ad"><path d="M 82.089844 193.316406 L 187 193.316406 C 191.789062 193.316406 196.386719 195.21875 199.773438 198.605469 C 203.160156 201.992188 205.0625 206.585938 205.0625 211.378906 C 205.0625 216.167969 203.160156 220.761719 199.773438 224.148438 C 196.386719 227.535156 191.789062 229.4375 187 229.4375 L 82.089844 229.4375 C 77.300781 229.4375 72.707031 227.535156 69.320312 224.148438 C 65.933594 220.761719 64.03125 216.167969 64.03125 211.378906 C 64.03125 206.585938 65.933594 201.992188 69.320312 198.605469 C 72.707031 195.21875 77.300781 193.316406 82.089844 193.316406 " clip-rule="nonzero"/></clipPath><clipPath id="7b0190e7ad"><path d="M 328.417969 454.625 L 462 454.625 L 462 491 L 328.417969 491 Z M 328.417969 454.625 " clip-rule="nonzero"/></clipPath><clipPath id="58db984954"><path d="M 346.480469 454.625 L 443.226562 454.625 C 448.015625 454.625 452.609375 456.527344 455.996094 459.914062 C 459.382812 463.300781 461.285156 467.894531 461.285156 472.683594 C 461.285156 477.472656 459.382812 482.066406 455.996094 485.457031 C 452.609375 488.84375 448.015625 490.746094 443.226562 490.746094 L 346.480469 490.746094 C 341.691406 490.746094 337.097656 488.84375 333.710938 485.457031 C 330.324219 482.066406 328.417969 477.472656 328.417969 472.683594 C 328.417969 467.894531 330.324219 463.300781 333.710938 459.914062 C 337.097656 456.527344 341.691406 454.625 346.480469 454.625 " clip-rule="nonzero"/></clipPath><clipPath id="197d4c985b"><path d="M 567.050781 193.316406 L 694 193.316406 L 694 230 L 567.050781 230 Z M 567.050781 193.316406 " clip-rule="nonzero"/></clipPath><clipPath id="18b716611e"><path d="M 585.109375 193.316406 L 679.132812 193.316406 C 683.921875 193.316406 688.515625 195.21875 691.902344 198.605469 C 695.289062 201.992188 697.191406 206.585938 697.191406 211.378906 C 697.191406 216.167969 695.289062 220.761719 691.902344 224.148438 C 688.515625 227.535156 683.921875 229.4375 679.132812 229.4375 L 585.109375 229.4375 C 580.320312 229.4375 575.726562 227.535156 572.339844 224.148438 C 568.953125 220.761719 567.050781 216.167969 567.050781 211.378906 C 567.050781 206.585938 568.953125 201.992188 572.339844 198.605469 C 575.726562 195.21875 580.320312 193.316406 585.109375 193.316406 " clip-rule="nonzero"/></clipPath></defs><rect x="-76.8" width="921.6" fill="#ffffff" y="-57.6" height="691.2" fill-opacity="1"/><rect x="-76.8" width="921.6" fill="#ffffff" y="-57.6" height="691.2" fill-opacity="1"/><rect x="-76.8" width="921.6" fill="#ffffff" y="-57.6" height="691.2" fill-opacity="1"/><g clip-path="url(#b43a7a27b8)"><g clip-path="url(#275fb6f101)"><path fill="#d9d9d9" d="M 46.179688 69.4375 L 222.644531 69.4375 L 222.644531 245.90625 L 46.179688 245.90625 Z M 46.179688 69.4375 " fill-opacity="1" fill-rule="nonzero"/></g></g><g fill="#000000" fill-opacity="1"><g transform="translate(96.955747, 164.689057)"><g><path d="M 0.671875 0 L 0.671875 -2.09375 L 3.78125 -2.09375 L 3.78125 -10.09375 L 3.578125 -10.15625 C 3.140625 -9.9375 2.707031 -9.765625 2.28125 -9.640625 C 1.851562 -9.523438 1.367188 -9.429688 0.828125 -9.359375 L 0.828125 -11.53125 C 2.253906 -11.832031 3.40625 -12.269531 4.28125 -12.84375 L 6.296875 -12.84375 L 6.296875 -2.09375 L 9.0625 -2.09375 L 9.0625 0 Z M 0.671875 0 "/></g></g><g transform="translate(106.439145, 164.689057)"><g><path d="M 0.625 -1.015625 C 0.625 -1.722656 0.703125 -2.320312 0.859375 -2.8125 C 1.015625 -3.300781 1.265625 -3.742188 1.609375 -4.140625 C 1.960938 -4.546875 2.460938 -4.976562 3.109375 -5.4375 L 4.828125 -6.6875 C 5.296875 -7.019531 5.660156 -7.304688 5.921875 -7.546875 C 6.179688 -7.796875 6.375 -8.054688 6.5 -8.328125 C 6.632812 -8.597656 6.703125 -8.90625 6.703125 -9.25 C 6.703125 -9.769531 6.539062 -10.171875 6.21875 -10.453125 C 5.90625 -10.734375 5.4375 -10.875 4.8125 -10.875 C 4.195312 -10.875 3.648438 -10.726562 3.171875 -10.4375 C 2.703125 -10.15625 2.3125 -9.757812 2 -9.25 L 1.84375 -9.21875 L 0.4375 -10.78125 C 0.894531 -11.457031 1.488281 -12 2.21875 -12.40625 C 2.957031 -12.820312 3.851562 -13.03125 4.90625 -13.03125 C 5.863281 -13.03125 6.664062 -12.867188 7.3125 -12.546875 C 7.957031 -12.234375 8.4375 -11.800781 8.75 -11.25 C 9.070312 -10.707031 9.234375 -10.082031 9.234375 -9.375 C 9.234375 -8.769531 9.101562 -8.210938 8.84375 -7.703125 C 8.59375 -7.203125 8.238281 -6.738281 7.78125 -6.3125 C 7.332031 -5.882812 6.757812 -5.425781 6.0625 -4.9375 L 4.53125 -3.875 C 4.070312 -3.539062 3.753906 -3.242188 3.578125 -2.984375 C 3.398438 -2.734375 3.3125 -2.445312 3.3125 -2.125 L 9.109375 -2.125 L 9.109375 0 L 0.625 0 Z M 0.625 -1.015625 "/></g></g><g transform="translate(116.467465, 164.689057)"><g><path d="M 4.265625 0 L 1.671875 0 L 6.109375 -10.53125 L 6.0625 -10.71875 L 0.359375 -10.71875 L 0.359375 -12.84375 L 8.6875 -12.84375 L 8.6875 -10.59375 Z M 4.265625 0 "/></g></g><g transform="translate(125.581722, 164.689057)"><g><path d="M 2.484375 0.078125 C 2.171875 0.078125 1.894531 0.015625 1.65625 -0.109375 C 1.414062 -0.234375 1.234375 -0.40625 1.109375 -0.625 C 0.984375 -0.851562 0.921875 -1.109375 0.921875 -1.390625 C 0.921875 -1.671875 0.984375 -1.921875 1.109375 -2.140625 C 1.234375 -2.367188 1.414062 -2.546875 1.65625 -2.671875 C 1.894531 -2.796875 2.171875 -2.859375 2.484375 -2.859375 C 2.796875 -2.859375 3.070312 -2.796875 3.3125 -2.671875 C 3.550781 -2.546875 3.734375 -2.367188 3.859375 -2.140625 C 3.984375 -1.921875 4.046875 -1.671875 4.046875 -1.390625 C 4.046875 -0.960938 3.898438 -0.609375 3.609375 -0.328125 C 3.328125 -0.0546875 2.953125 0.078125 2.484375 0.078125 Z M 2.484375 0.078125 "/></g></g><g transform="translate(130.547543, 164.689057)"><g><path d="M 6.28125 0.1875 C 5.226562 0.1875 4.3125 -0.046875 3.53125 -0.515625 C 2.757812 -0.984375 2.15625 -1.707031 1.71875 -2.6875 C 1.289062 -3.675781 1.078125 -4.921875 1.078125 -6.421875 C 1.078125 -7.929688 1.289062 -9.175781 1.71875 -10.15625 C 2.15625 -11.144531 2.757812 -11.867188 3.53125 -12.328125 C 4.3125 -12.796875 5.226562 -13.03125 6.28125 -13.03125 C 7.332031 -13.03125 8.242188 -12.796875 9.015625 -12.328125 C 9.796875 -11.867188 10.398438 -11.144531 10.828125 -10.15625 C 11.265625 -9.175781 11.484375 -7.929688 11.484375 -6.421875 C 11.484375 -4.921875 11.265625 -3.675781 10.828125 -2.6875 C 10.398438 -1.707031 9.796875 -0.984375 9.015625 -0.515625 C 8.242188 -0.046875 7.332031 0.1875 6.28125 0.1875 Z M 6.28125 -1.96875 C 6.851562 -1.96875 7.332031 -2.101562 7.71875 -2.375 C 8.101562 -2.65625 8.398438 -3.125 8.609375 -3.78125 C 8.816406 -4.4375 8.921875 -5.316406 8.921875 -6.421875 C 8.921875 -7.523438 8.816406 -8.40625 8.609375 -9.0625 C 8.398438 -9.71875 8.101562 -10.179688 7.71875 -10.453125 C 7.332031 -10.734375 6.851562 -10.875 6.28125 -10.875 C 5.707031 -10.875 5.222656 -10.734375 4.828125 -10.453125 C 4.441406 -10.179688 4.144531 -9.71875 3.9375 -9.0625 C 3.726562 -8.40625 3.625 -7.523438 3.625 -6.421875 C 3.625 -5.316406 3.726562 -4.4375 3.9375 -3.78125 C 4.144531 -3.125 4.441406 -2.65625 4.828125 -2.375 C 5.222656 -2.101562 5.707031 -1.96875 6.28125 -1.96875 Z M 6.28125 -1.96875 "/></g></g><g transform="translate(143.107112, 164.689057)"><g><path d="M 2.484375 0.078125 C 2.171875 0.078125 1.894531 0.015625 1.65625 -0.109375 C 1.414062 -0.234375 1.234375 -0.40625 1.109375 -0.625 C 0.984375 -0.851562 0.921875 -1.109375 0.921875 -1.390625 C 0.921875 -1.671875 0.984375 -1.921875 1.109375 -2.140625 C 1.234375 -2.367188 1.414062 -2.546875 1.65625 -2.671875 C 1.894531 -2.796875 2.171875 -2.859375 2.484375 -2.859375 C 2.796875 -2.859375 3.070312 -2.796875 3.3125 -2.671875 C 3.550781 -2.546875 3.734375 -2.367188 3.859375 -2.140625 C 3.984375 -1.921875 4.046875 -1.671875 4.046875 -1.390625 C 4.046875 -0.960938 3.898438 -0.609375 3.609375 -0.328125 C 3.328125 -0.0546875 2.953125 0.078125 2.484375 0.078125 Z M 2.484375 0.078125 "/></g></g><g transform="translate(148.072933, 164.689057)"><g><path d="M 6.28125 0.1875 C 5.226562 0.1875 4.3125 -0.046875 3.53125 -0.515625 C 2.757812 -0.984375 2.15625 -1.707031 1.71875 -2.6875 C 1.289062 -3.675781 1.078125 -4.921875 1.078125 -6.421875 C 1.078125 -7.929688 1.289062 -9.175781 1.71875 -10.15625 C 2.15625 -11.144531 2.757812 -11.867188 3.53125 -12.328125 C 4.3125 -12.796875 5.226562 -13.03125 6.28125 -13.03125 C 7.332031 -13.03125 8.242188 -12.796875 9.015625 -12.328125 C 9.796875 -11.867188 10.398438 -11.144531 10.828125 -10.15625 C 11.265625 -9.175781 11.484375 -7.929688 11.484375 -6.421875 C 11.484375 -4.921875 11.265625 -3.675781 10.828125 -2.6875 C 10.398438 -1.707031 9.796875 -0.984375 9.015625 -0.515625 C 8.242188 -0.046875 7.332031 0.1875 6.28125 0.1875 Z M 6.28125 -1.96875 C 6.851562 -1.96875 7.332031 -2.101562 7.71875 -2.375 C 8.101562 -2.65625 8.398438 -3.125 8.609375 -3.78125 C 8.816406 -4.4375 8.921875 -5.316406 8.921875 -6.421875 C 8.921875 -7.523438 8.816406 -8.40625 8.609375 -9.0625 C 8.398438 -9.71875 8.101562 -10.179688 7.71875 -10.453125 C 7.332031 -10.734375 6.851562 -10.875 6.28125 -10.875 C 5.707031 -10.875 5.222656 -10.734375 4.828125 -10.453125 C 4.441406 -10.179688 4.144531 -9.71875 3.9375 -9.0625 C 3.726562 -8.40625 3.625 -7.523438 3.625 -6.421875 C 3.625 -5.316406 3.726562 -4.4375 3.9375 -3.78125 C 4.144531 -3.125 4.441406 -2.65625 4.828125 -2.375 C 5.222656 -2.101562 5.707031 -1.96875 6.28125 -1.96875 Z M 6.28125 -1.96875 "/></g></g><g transform="translate(160.632502, 164.689057)"><g><path d="M 2.484375 0.078125 C 2.171875 0.078125 1.894531 0.015625 1.65625 -0.109375 C 1.414062 -0.234375 1.234375 -0.40625 1.109375 -0.625 C 0.984375 -0.851562 0.921875 -1.109375 0.921875 -1.390625 C 0.921875 -1.671875 0.984375 -1.921875 1.109375 -2.140625 C 1.234375 -2.367188 1.414062 -2.546875 1.65625 -2.671875 C 1.894531 -2.796875 2.171875 -2.859375 2.484375 -2.859375 C 2.796875 -2.859375 3.070312 -2.796875 3.3125 -2.671875 C 3.550781 -2.546875 3.734375 -2.367188 3.859375 -2.140625 C 3.984375 -1.921875 4.046875 -1.671875 4.046875 -1.390625 C 4.046875 -0.960938 3.898438 -0.609375 3.609375 -0.328125 C 3.328125 -0.0546875 2.953125 0.078125 2.484375 0.078125 Z M 2.484375 0.078125 "/></g></g><g transform="translate(165.598323, 164.689057)"><g><path d="M 0.671875 0 L 0.671875 -2.09375 L 3.78125 -2.09375 L 3.78125 -10.09375 L 3.578125 -10.15625 C 3.140625 -9.9375 2.707031 -9.765625 2.28125 -9.640625 C 1.851562 -9.523438 1.367188 -9.429688 0.828125 -9.359375 L 0.828125 -11.53125 C 2.253906 -11.832031 3.40625 -12.269531 4.28125 -12.84375 L 6.296875 -12.84375 L 6.296875 -2.09375 L 9.0625 -2.09375 L 9.0625 0 Z M 0.671875 0 "/></g></g></g><g clip-path="url(#99c3f0c5c2)"><g clip-path="url(#17630a2c38)"><path fill="#d9d9d9" d="M 305.152344 329.398438 L 481.621094 329.398438 L 481.621094 505.867188 L 305.152344 505.867188 Z M 305.152344 329.398438 " fill-opacity="1" fill-rule="nonzero"/></g></g><g fill="#000000" fill-opacity="1"><g transform="translate(355.508012, 424.64971)"><g><path d="M 0.671875 0 L 0.671875 -2.09375 L 3.78125 -2.09375 L 3.78125 -10.09375 L 3.578125 -10.15625 C 3.140625 -9.9375 2.707031 -9.765625 2.28125 -9.640625 C 1.851562 -9.523438 1.367188 -9.429688 0.828125 -9.359375 L 0.828125 -11.53125 C 2.253906 -11.832031 3.40625 -12.269531 4.28125 -12.84375 L 6.296875 -12.84375 L 6.296875 -2.09375 L 9.0625 -2.09375 L 9.0625 0 Z M 0.671875 0 "/></g></g><g transform="translate(364.99141, 424.64971)"><g><path d="M 0.625 -1.015625 C 0.625 -1.722656 0.703125 -2.320312 0.859375 -2.8125 C 1.015625 -3.300781 1.265625 -3.742188 1.609375 -4.140625 C 1.960938 -4.546875 2.460938 -4.976562 3.109375 -5.4375 L 4.828125 -6.6875 C 5.296875 -7.019531 5.660156 -7.304688 5.921875 -7.546875 C 6.179688 -7.796875 6.375 -8.054688 6.5 -8.328125 C 6.632812 -8.597656 6.703125 -8.90625 6.703125 -9.25 C 6.703125 -9.769531 6.539062 -10.171875 6.21875 -10.453125 C 5.90625 -10.734375 5.4375 -10.875 4.8125 -10.875 C 4.195312 -10.875 3.648438 -10.726562 3.171875 -10.4375 C 2.703125 -10.15625 2.3125 -9.757812 2 -9.25 L 1.84375 -9.21875 L 0.4375 -10.78125 C 0.894531 -11.457031 1.488281 -12 2.21875 -12.40625 C 2.957031 -12.820312 3.851562 -13.03125 4.90625 -13.03125 C 5.863281 -13.03125 6.664062 -12.867188 7.3125 -12.546875 C 7.957031 -12.234375 8.4375 -11.800781 8.75 -11.25 C 9.070312 -10.707031 9.234375 -10.082031 9.234375 -9.375 C 9.234375 -8.769531 9.101562 -8.210938 8.84375 -7.703125 C 8.59375 -7.203125 8.238281 -6.738281 7.78125 -6.3125 C 7.332031 -5.882812 6.757812 -5.425781 6.0625 -4.9375 L 4.53125 -3.875 C 4.070312 -3.539062 3.753906 -3.242188 3.578125 -2.984375 C 3.398438 -2.734375 3.3125 -2.445312 3.3125 -2.125 L 9.109375 -2.125 L 9.109375 0 L 0.625 0 Z M 0.625 -1.015625 "/></g></g><g transform="translate(375.01973, 424.64971)"><g><path d="M 4.265625 0 L 1.671875 0 L 6.109375 -10.53125 L 6.0625 -10.71875 L 0.359375 -10.71875 L 0.359375 -12.84375 L 8.6875 -12.84375 L 8.6875 -10.59375 Z M 4.265625 0 "/></g></g><g transform="translate(384.133987, 424.64971)"><g><path d="M 2.484375 0.078125 C 2.171875 0.078125 1.894531 0.015625 1.65625 -0.109375 C 1.414062 -0.234375 1.234375 -0.40625 1.109375 -0.625 C 0.984375 -0.851562 0.921875 -1.109375 0.921875 -1.390625 C 0.921875 -1.671875 0.984375 -1.921875 1.109375 -2.140625 C 1.234375 -2.367188 1.414062 -2.546875 1.65625 -2.671875 C 1.894531 -2.796875 2.171875 -2.859375 2.484375 -2.859375 C 2.796875 -2.859375 3.070312 -2.796875 3.3125 -2.671875 C 3.550781 -2.546875 3.734375 -2.367188 3.859375 -2.140625 C 3.984375 -1.921875 4.046875 -1.671875 4.046875 -1.390625 C 4.046875 -0.960938 3.898438 -0.609375 3.609375 -0.328125 C 3.328125 -0.0546875 2.953125 0.078125 2.484375 0.078125 Z M 2.484375 0.078125 "/></g></g><g transform="translate(389.099807, 424.64971)"><g><path d="M 6.28125 0.1875 C 5.226562 0.1875 4.3125 -0.046875 3.53125 -0.515625 C 2.757812 -0.984375 2.15625 -1.707031 1.71875 -2.6875 C 1.289062 -3.675781 1.078125 -4.921875 1.078125 -6.421875 C 1.078125 -7.929688 1.289062 -9.175781 1.71875 -10.15625 C 2.15625 -11.144531 2.757812 -11.867188 3.53125 -12.328125 C 4.3125 -12.796875 5.226562 -13.03125 6.28125 -13.03125 C 7.332031 -13.03125 8.242188 -12.796875 9.015625 -12.328125 C 9.796875 -11.867188 10.398438 -11.144531 10.828125 -10.15625 C 11.265625 -9.175781 11.484375 -7.929688 11.484375 -6.421875 C 11.484375 -4.921875 11.265625 -3.675781 10.828125 -2.6875 C 10.398438 -1.707031 9.796875 -0.984375 9.015625 -0.515625 C 8.242188 -0.046875 7.332031 0.1875 6.28125 0.1875 Z M 6.28125 -1.96875 C 6.851562 -1.96875 7.332031 -2.101562 7.71875 -2.375 C 8.101562 -2.65625 8.398438 -3.125 8.609375 -3.78125 C 8.816406 -4.4375 8.921875 -5.316406 8.921875 -6.421875 C 8.921875 -7.523438 8.816406 -8.40625 8.609375 -9.0625 C 8.398438 -9.71875 8.101562 -10.179688 7.71875 -10.453125 C 7.332031 -10.734375 6.851562 -10.875 6.28125 -10.875 C 5.707031 -10.875 5.222656 -10.734375 4.828125 -10.453125 C 4.441406 -10.179688 4.144531 -9.71875 3.9375 -9.0625 C 3.726562 -8.40625 3.625 -7.523438 3.625 -6.421875 C 3.625 -5.316406 3.726562 -4.4375 3.9375 -3.78125 C 4.144531 -3.125 4.441406 -2.65625 4.828125 -2.375 C 5.222656 -2.101562 5.707031 -1.96875 6.28125 -1.96875 Z M 6.28125 -1.96875 "/></g></g><g transform="translate(401.659377, 424.64971)"><g><path d="M 2.484375 0.078125 C 2.171875 0.078125 1.894531 0.015625 1.65625 -0.109375 C 1.414062 -0.234375 1.234375 -0.40625 1.109375 -0.625 C 0.984375 -0.851562 0.921875 -1.109375 0.921875 -1.390625 C 0.921875 -1.671875 0.984375 -1.921875 1.109375 -2.140625 C 1.234375 -2.367188 1.414062 -2.546875 1.65625 -2.671875 C 1.894531 -2.796875 2.171875 -2.859375 2.484375 -2.859375 C 2.796875 -2.859375 3.070312 -2.796875 3.3125 -2.671875 C 3.550781 -2.546875 3.734375 -2.367188 3.859375 -2.140625 C 3.984375 -1.921875 4.046875 -1.671875 4.046875 -1.390625 C 4.046875 -0.960938 3.898438 -0.609375 3.609375 -0.328125 C 3.328125 -0.0546875 2.953125 0.078125 2.484375 0.078125 Z M 2.484375 0.078125 "/></g></g><g transform="translate(406.625197, 424.64971)"><g><path d="M 6.28125 0.1875 C 5.226562 0.1875 4.3125 -0.046875 3.53125 -0.515625 C 2.757812 -0.984375 2.15625 -1.707031 1.71875 -2.6875 C 1.289062 -3.675781 1.078125 -4.921875 1.078125 -6.421875 C 1.078125 -7.929688 1.289062 -9.175781 1.71875 -10.15625 C 2.15625 -11.144531 2.757812 -11.867188 3.53125 -12.328125 C 4.3125 -12.796875 5.226562 -13.03125 6.28125 -13.03125 C 7.332031 -13.03125 8.242188 -12.796875 9.015625 -12.328125 C 9.796875 -11.867188 10.398438 -11.144531 10.828125 -10.15625 C 11.265625 -9.175781 11.484375 -7.929688 11.484375 -6.421875 C 11.484375 -4.921875 11.265625 -3.675781 10.828125 -2.6875 C 10.398438 -1.707031 9.796875 -0.984375 9.015625 -0.515625 C 8.242188 -0.046875 7.332031 0.1875 6.28125 0.1875 Z M 6.28125 -1.96875 C 6.851562 -1.96875 7.332031 -2.101562 7.71875 -2.375 C 8.101562 -2.65625 8.398438 -3.125 8.609375 -3.78125 C 8.816406 -4.4375 8.921875 -5.316406 8.921875 -6.421875 C 8.921875 -7.523438 8.816406 -8.40625 8.609375 -9.0625 C 8.398438 -9.71875 8.101562 -10.179688 7.71875 -10.453125 C 7.332031 -10.734375 6.851562 -10.875 6.28125 -10.875 C 5.707031 -10.875 5.222656 -10.734375 4.828125 -10.453125 C 4.441406 -10.179688 4.144531 -9.71875 3.9375 -9.0625 C 3.726562 -8.40625 3.625 -7.523438 3.625 -6.421875 C 3.625 -5.316406 3.726562 -4.4375 3.9375 -3.78125 C 4.144531 -3.125 4.441406 -2.65625 4.828125 -2.375 C 5.222656 -2.101562 5.707031 -1.96875 6.28125 -1.96875 Z M 6.28125 -1.96875 "/></g></g><g transform="translate(419.184767, 424.64971)"><g><path d="M 2.484375 0.078125 C 2.171875 0.078125 1.894531 0.015625 1.65625 -0.109375 C 1.414062 -0.234375 1.234375 -0.40625 1.109375 -0.625 C 0.984375 -0.851562 0.921875 -1.109375 0.921875 -1.390625 C 0.921875 -1.671875 0.984375 -1.921875 1.109375 -2.140625 C 1.234375 -2.367188 1.414062 -2.546875 1.65625 -2.671875 C 1.894531 -2.796875 2.171875 -2.859375 2.484375 -2.859375 C 2.796875 -2.859375 3.070312 -2.796875 3.3125 -2.671875 C 3.550781 -2.546875 3.734375 -2.367188 3.859375 -2.140625 C 3.984375 -1.921875 4.046875 -1.671875 4.046875 -1.390625 C 4.046875 -0.960938 3.898438 -0.609375 3.609375 -0.328125 C 3.328125 -0.0546875 2.953125 0.078125 2.484375 0.078125 Z M 2.484375 0.078125 "/></g></g><g transform="translate(424.150587, 424.64971)"><g><path d="M 0.625 -1.015625 C 0.625 -1.722656 0.703125 -2.320312 0.859375 -2.8125 C 1.015625 -3.300781 1.265625 -3.742188 1.609375 -4.140625 C 1.960938 -4.546875 2.460938 -4.976562 3.109375 -5.4375 L 4.828125 -6.6875 C 5.296875 -7.019531 5.660156 -7.304688 5.921875 -7.546875 C 6.179688 -7.796875 6.375 -8.054688 6.5 -8.328125 C 6.632812 -8.597656 6.703125 -8.90625 6.703125 -9.25 C 6.703125 -9.769531 6.539062 -10.171875 6.21875 -10.453125 C 5.90625 -10.734375 5.4375 -10.875 4.8125 -10.875 C 4.195312 -10.875 3.648438 -10.726562 3.171875 -10.4375 C 2.703125 -10.15625 2.3125 -9.757812 2 -9.25 L 1.84375 -9.21875 L 0.4375 -10.78125 C 0.894531 -11.457031 1.488281 -12 2.21875 -12.40625 C 2.957031 -12.820312 3.851562 -13.03125 4.90625 -13.03125 C 5.863281 -13.03125 6.664062 -12.867188 7.3125 -12.546875 C 7.957031 -12.234375 8.4375 -11.800781 8.75 -11.25 C 9.070312 -10.707031 9.234375 -10.082031 9.234375 -9.375 C 9.234375 -8.769531 9.101562 -8.210938 8.84375 -7.703125 C 8.59375 -7.203125 8.238281 -6.738281 7.78125 -6.3125 C 7.332031 -5.882812 6.757812 -5.425781 6.0625 -4.9375 L 4.53125 -3.875 C 4.070312 -3.539062 3.753906 -3.242188 3.578125 -2.984375 C 3.398438 -2.734375 3.3125 -2.445312 3.3125 -2.125 L 9.109375 -2.125 L 9.109375 0 L 0.625 0 Z M 0.625 -1.015625 "/></g></g></g><g clip-path="url(#53cd99c2cf)"><g clip-path="url(#21c3b24de2)"><path fill="#d9d9d9" d="M 542.421875 71.515625 L 718.886719 71.515625 L 718.886719 247.980469 L 542.421875 247.980469 Z M 542.421875 71.515625 " fill-opacity="1" fill-rule="nonzero"/></g></g><g fill="#000000" fill-opacity="1"><g transform="translate(592.470965, 166.764726)"><g><path d="M 0.671875 0 L 0.671875 -2.09375 L 3.78125 -2.09375 L 3.78125 -10.09375 L 3.578125 -10.15625 C 3.140625 -9.9375 2.707031 -9.765625 2.28125 -9.640625 C 1.851562 -9.523438 1.367188 -9.429688 0.828125 -9.359375 L 0.828125 -11.53125 C 2.253906 -11.832031 3.40625 -12.269531 4.28125 -12.84375 L 6.296875 -12.84375 L 6.296875 -2.09375 L 9.0625 -2.09375 L 9.0625 0 Z M 0.671875 0 "/></g></g><g transform="translate(601.954363, 166.764726)"><g><path d="M 0.625 -1.015625 C 0.625 -1.722656 0.703125 -2.320312 0.859375 -2.8125 C 1.015625 -3.300781 1.265625 -3.742188 1.609375 -4.140625 C 1.960938 -4.546875 2.460938 -4.976562 3.109375 -5.4375 L 4.828125 -6.6875 C 5.296875 -7.019531 5.660156 -7.304688 5.921875 -7.546875 C 6.179688 -7.796875 6.375 -8.054688 6.5 -8.328125 C 6.632812 -8.597656 6.703125 -8.90625 6.703125 -9.25 C 6.703125 -9.769531 6.539062 -10.171875 6.21875 -10.453125 C 5.90625 -10.734375 5.4375 -10.875 4.8125 -10.875 C 4.195312 -10.875 3.648438 -10.726562 3.171875 -10.4375 C 2.703125 -10.15625 2.3125 -9.757812 2 -9.25 L 1.84375 -9.21875 L 0.4375 -10.78125 C 0.894531 -11.457031 1.488281 -12 2.21875 -12.40625 C 2.957031 -12.820312 3.851562 -13.03125 4.90625 -13.03125 C 5.863281 -13.03125 6.664062 -12.867188 7.3125 -12.546875 C 7.957031 -12.234375 8.4375 -11.800781 8.75 -11.25 C 9.070312 -10.707031 9.234375 -10.082031 9.234375 -9.375 C 9.234375 -8.769531 9.101562 -8.210938 8.84375 -7.703125 C 8.59375 -7.203125 8.238281 -6.738281 7.78125 -6.3125 C 7.332031 -5.882812 6.757812 -5.425781 6.0625 -4.9375 L 4.53125 -3.875 C 4.070312 -3.539062 3.753906 -3.242188 3.578125 -2.984375 C 3.398438 -2.734375 3.3125 -2.445312 3.3125 -2.125 L 9.109375 -2.125 L 9.109375 0 L 0.625 0 Z M 0.625 -1.015625 "/></g></g><g transform="translate(611.982683, 166.764726)"><g><path d="M 4.265625 0 L 1.671875 0 L 6.109375 -10.53125 L 6.0625 -10.71875 L 0.359375 -10.71875 L 0.359375 -12.84375 L 8.6875 -12.84375 L 8.6875 -10.59375 Z M 4.265625 0 "/></g></g><g transform="translate(621.09694, 166.764726)"><g><path d="M 2.484375 0.078125 C 2.171875 0.078125 1.894531 0.015625 1.65625 -0.109375 C 1.414062 -0.234375 1.234375 -0.40625 1.109375 -0.625 C 0.984375 -0.851562 0.921875 -1.109375 0.921875 -1.390625 C 0.921875 -1.671875 0.984375 -1.921875 1.109375 -2.140625 C 1.234375 -2.367188 1.414062 -2.546875 1.65625 -2.671875 C 1.894531 -2.796875 2.171875 -2.859375 2.484375 -2.859375 C 2.796875 -2.859375 3.070312 -2.796875 3.3125 -2.671875 C 3.550781 -2.546875 3.734375 -2.367188 3.859375 -2.140625 C 3.984375 -1.921875 4.046875 -1.671875 4.046875 -1.390625 C 4.046875 -0.960938 3.898438 -0.609375 3.609375 -0.328125 C 3.328125 -0.0546875 2.953125 0.078125 2.484375 0.078125 Z M 2.484375 0.078125 "/></g></g><g transform="translate(626.06276, 166.764726)"><g><path d="M 6.28125 0.1875 C 5.226562 0.1875 4.3125 -0.046875 3.53125 -0.515625 C 2.757812 -0.984375 2.15625 -1.707031 1.71875 -2.6875 C 1.289062 -3.675781 1.078125 -4.921875 1.078125 -6.421875 C 1.078125 -7.929688 1.289062 -9.175781 1.71875 -10.15625 C 2.15625 -11.144531 2.757812 -11.867188 3.53125 -12.328125 C 4.3125 -12.796875 5.226562 -13.03125 6.28125 -13.03125 C 7.332031 -13.03125 8.242188 -12.796875 9.015625 -12.328125 C 9.796875 -11.867188 10.398438 -11.144531 10.828125 -10.15625 C 11.265625 -9.175781 11.484375 -7.929688 11.484375 -6.421875 C 11.484375 -4.921875 11.265625 -3.675781 10.828125 -2.6875 C 10.398438 -1.707031 9.796875 -0.984375 9.015625 -0.515625 C 8.242188 -0.046875 7.332031 0.1875 6.28125 0.1875 Z M 6.28125 -1.96875 C 6.851562 -1.96875 7.332031 -2.101562 7.71875 -2.375 C 8.101562 -2.65625 8.398438 -3.125 8.609375 -3.78125 C 8.816406 -4.4375 8.921875 -5.316406 8.921875 -6.421875 C 8.921875 -7.523438 8.816406 -8.40625 8.609375 -9.0625 C 8.398438 -9.71875 8.101562 -10.179688 7.71875 -10.453125 C 7.332031 -10.734375 6.851562 -10.875 6.28125 -10.875 C 5.707031 -10.875 5.222656 -10.734375 4.828125 -10.453125 C 4.441406 -10.179688 4.144531 -9.71875 3.9375 -9.0625 C 3.726562 -8.40625 3.625 -7.523438 3.625 -6.421875 C 3.625 -5.316406 3.726562 -4.4375 3.9375 -3.78125 C 4.144531 -3.125 4.441406 -2.65625 4.828125 -2.375 C 5.222656 -2.101562 5.707031 -1.96875 6.28125 -1.96875 Z M 6.28125 -1.96875 "/></g></g><g transform="translate(638.62233, 166.764726)"><g><path d="M 2.484375 0.078125 C 2.171875 0.078125 1.894531 0.015625 1.65625 -0.109375 C 1.414062 -0.234375 1.234375 -0.40625 1.109375 -0.625 C 0.984375 -0.851562 0.921875 -1.109375 0.921875 -1.390625 C 0.921875 -1.671875 0.984375 -1.921875 1.109375 -2.140625 C 1.234375 -2.367188 1.414062 -2.546875 1.65625 -2.671875 C 1.894531 -2.796875 2.171875 -2.859375 2.484375 -2.859375 C 2.796875 -2.859375 3.070312 -2.796875 3.3125 -2.671875 C 3.550781 -2.546875 3.734375 -2.367188 3.859375 -2.140625 C 3.984375 -1.921875 4.046875 -1.671875 4.046875 -1.390625 C 4.046875 -0.960938 3.898438 -0.609375 3.609375 -0.328125 C 3.328125 -0.0546875 2.953125 0.078125 2.484375 0.078125 Z M 2.484375 0.078125 "/></g></g><g transform="translate(643.58815, 166.764726)"><g><path d="M 6.28125 0.1875 C 5.226562 0.1875 4.3125 -0.046875 3.53125 -0.515625 C 2.757812 -0.984375 2.15625 -1.707031 1.71875 -2.6875 C 1.289062 -3.675781 1.078125 -4.921875 1.078125 -6.421875 C 1.078125 -7.929688 1.289062 -9.175781 1.71875 -10.15625 C 2.15625 -11.144531 2.757812 -11.867188 3.53125 -12.328125 C 4.3125 -12.796875 5.226562 -13.03125 6.28125 -13.03125 C 7.332031 -13.03125 8.242188 -12.796875 9.015625 -12.328125 C 9.796875 -11.867188 10.398438 -11.144531 10.828125 -10.15625 C 11.265625 -9.175781 11.484375 -7.929688 11.484375 -6.421875 C 11.484375 -4.921875 11.265625 -3.675781 10.828125 -2.6875 C 10.398438 -1.707031 9.796875 -0.984375 9.015625 -0.515625 C 8.242188 -0.046875 7.332031 0.1875 6.28125 0.1875 Z M 6.28125 -1.96875 C 6.851562 -1.96875 7.332031 -2.101562 7.71875 -2.375 C 8.101562 -2.65625 8.398438 -3.125 8.609375 -3.78125 C 8.816406 -4.4375 8.921875 -5.316406 8.921875 -6.421875 C 8.921875 -7.523438 8.816406 -8.40625 8.609375 -9.0625 C 8.398438 -9.71875 8.101562 -10.179688 7.71875 -10.453125 C 7.332031 -10.734375 6.851562 -10.875 6.28125 -10.875 C 5.707031 -10.875 5.222656 -10.734375 4.828125 -10.453125 C 4.441406 -10.179688 4.144531 -9.71875 3.9375 -9.0625 C 3.726562 -8.40625 3.625 -7.523438 3.625 -6.421875 C 3.625 -5.316406 3.726562 -4.4375 3.9375 -3.78125 C 4.144531 -3.125 4.441406 -2.65625 4.828125 -2.375 C 5.222656 -2.101562 5.707031 -1.96875 6.28125 -1.96875 Z M 6.28125 -1.96875 "/></g></g><g transform="translate(656.14772, 166.764726)"><g><path d="M 2.484375 0.078125 C 2.171875 0.078125 1.894531 0.015625 1.65625 -0.109375 C 1.414062 -0.234375 1.234375 -0.40625 1.109375 -0.625 C 0.984375 -0.851562 0.921875 -1.109375 0.921875 -1.390625 C 0.921875 -1.671875 0.984375 -1.921875 1.109375 -2.140625 C 1.234375 -2.367188 1.414062 -2.546875 1.65625 -2.671875 C 1.894531 -2.796875 2.171875 -2.859375 2.484375 -2.859375 C 2.796875 -2.859375 3.070312 -2.796875 3.3125 -2.671875 C 3.550781 -2.546875 3.734375 -2.367188 3.859375 -2.140625 C 3.984375 -1.921875 4.046875 -1.671875 4.046875 -1.390625 C 4.046875 -0.960938 3.898438 -0.609375 3.609375 -0.328125 C 3.328125 -0.0546875 2.953125 0.078125 2.484375 0.078125 Z M 2.484375 0.078125 "/></g></g><g transform="translate(661.11354, 166.764726)"><g><path d="M 5.234375 0.1875 C 3.859375 0.1875 2.765625 -0.101562 1.953125 -0.6875 C 1.148438 -1.269531 0.640625 -2.097656 0.421875 -3.171875 L 2.34375 -4.0625 L 2.546875 -4.03125 C 2.765625 -3.320312 3.070312 -2.800781 3.46875 -2.46875 C 3.875 -2.144531 4.4375 -1.984375 5.15625 -1.984375 C 5.84375 -1.984375 6.367188 -2.144531 6.734375 -2.46875 C 7.097656 -2.789062 7.28125 -3.257812 7.28125 -3.875 C 7.28125 -4.476562 7.097656 -4.941406 6.734375 -5.265625 C 6.378906 -5.585938 5.851562 -5.75 5.15625 -5.75 L 3.21875 -5.75 L 3.21875 -7.71875 L 4.90625 -7.71875 C 5.476562 -7.71875 5.929688 -7.863281 6.265625 -8.15625 C 6.609375 -8.445312 6.78125 -8.859375 6.78125 -9.390625 C 6.78125 -9.910156 6.617188 -10.304688 6.296875 -10.578125 C 5.984375 -10.847656 5.546875 -10.984375 4.984375 -10.984375 C 4.410156 -10.984375 3.898438 -10.847656 3.453125 -10.578125 C 3.015625 -10.304688 2.660156 -9.941406 2.390625 -9.484375 L 2.1875 -9.453125 L 0.859375 -11 C 1.304688 -11.613281 1.882812 -12.101562 2.59375 -12.46875 C 3.300781 -12.84375 4.144531 -13.03125 5.125 -13.03125 C 6.46875 -13.03125 7.492188 -12.75 8.203125 -12.1875 C 8.910156 -11.625 9.265625 -10.832031 9.265625 -9.8125 C 9.265625 -9.195312 9.117188 -8.671875 8.828125 -8.234375 C 8.546875 -7.796875 8.140625 -7.421875 7.609375 -7.109375 L 7.609375 -6.921875 C 9.085938 -6.398438 9.828125 -5.347656 9.828125 -3.765625 C 9.828125 -2.960938 9.65625 -2.265625 9.3125 -1.671875 C 8.976562 -1.085938 8.46875 -0.628906 7.78125 -0.296875 C 7.09375 0.0234375 6.242188 0.1875 5.234375 0.1875 Z M 5.234375 0.1875 "/></g></g></g><g clip-path="url(#197878358f)"><g clip-path="url(#ed3ba0d7ad)"><path fill="#ffde59" d="M 64.03125 193.316406 L 206.75 193.316406 L 206.75 232.960938 L 64.03125 232.960938 Z M 64.03125 193.316406 " fill-opacity="1" fill-rule="nonzero"/></g></g><g fill="#000000" fill-opacity="1"><g transform="translate(101.506321, 215.816041)"><g><path d="M 3.203125 0.140625 C 2.421875 0.140625 1.84375 -0.0703125 1.46875 -0.5 C 1.09375 -0.9375 0.90625 -1.554688 0.90625 -2.359375 L 0.90625 -7 L 2.65625 -7 L 2.65625 -2.578125 C 2.65625 -2.148438 2.75 -1.835938 2.9375 -1.640625 C 3.125 -1.453125 3.410156 -1.359375 3.796875 -1.359375 C 4.273438 -1.359375 4.648438 -1.515625 4.921875 -1.828125 C 5.191406 -2.148438 5.328125 -2.65625 5.328125 -3.34375 L 5.328125 -7 L 7.09375 -7 L 7.09375 0 L 5.40625 0 L 5.40625 -1.03125 L 5.265625 -1.0625 C 5.046875 -0.65625 4.773438 -0.351562 4.453125 -0.15625 C 4.128906 0.0390625 3.710938 0.140625 3.203125 0.140625 Z M 3.203125 0.140625 "/></g></g></g><g fill="#000000" fill-opacity="1"><g transform="translate(109.603497, 215.816041)"><g><path d="M 3.28125 0.140625 C 2.800781 0.140625 2.359375 0.0820312 1.953125 -0.03125 C 1.554688 -0.144531 1.21875 -0.300781 0.9375 -0.5 C 0.65625 -0.695312 0.445312 -0.921875 0.3125 -1.171875 L 1.296875 -2.234375 L 1.421875 -2.234375 C 1.660156 -1.921875 1.9375 -1.679688 2.25 -1.515625 C 2.570312 -1.359375 2.914062 -1.28125 3.28125 -1.28125 C 3.625 -1.28125 3.882812 -1.34375 4.0625 -1.46875 C 4.238281 -1.59375 4.328125 -1.769531 4.328125 -2 C 4.328125 -2.175781 4.265625 -2.320312 4.140625 -2.4375 C 4.015625 -2.5625 3.8125 -2.660156 3.53125 -2.734375 L 2.609375 -2.953125 C 1.910156 -3.117188 1.398438 -3.367188 1.078125 -3.703125 C 0.765625 -4.046875 0.609375 -4.484375 0.609375 -5.015625 C 0.609375 -5.441406 0.71875 -5.816406 0.9375 -6.140625 C 1.15625 -6.460938 1.46875 -6.707031 1.875 -6.875 C 2.28125 -7.050781 2.75 -7.140625 3.28125 -7.140625 C 3.914062 -7.140625 4.441406 -7.046875 4.859375 -6.859375 C 5.273438 -6.679688 5.597656 -6.4375 5.828125 -6.125 L 4.890625 -5.109375 L 4.765625 -5.109375 C 4.566406 -5.335938 4.34375 -5.5 4.09375 -5.59375 C 3.851562 -5.695312 3.582031 -5.75 3.28125 -5.75 C 2.59375 -5.75 2.25 -5.535156 2.25 -5.109375 C 2.25 -4.921875 2.3125 -4.769531 2.4375 -4.65625 C 2.570312 -4.539062 2.800781 -4.445312 3.125 -4.375 L 3.984375 -4.1875 C 4.691406 -4.039062 5.207031 -3.796875 5.53125 -3.453125 C 5.863281 -3.117188 6.03125 -2.664062 6.03125 -2.09375 C 6.03125 -1.65625 5.921875 -1.265625 5.703125 -0.921875 C 5.484375 -0.585938 5.164062 -0.328125 4.75 -0.140625 C 4.332031 0.046875 3.84375 0.140625 3.28125 0.140625 Z M 3.28125 0.140625 "/></g></g></g><g fill="#000000" fill-opacity="1"><g transform="translate(116.057129, 215.816041)"><g><path d="M 4.4375 -3.734375 L 0.546875 -3.734375 L 0.546875 -5.28125 L 4.4375 -5.28125 Z M 4.4375 -3.734375 "/></g></g></g><g fill="#000000" fill-opacity="1"><g transform="translate(121.06393, 215.816041)"><g><path d="M 6.921875 -3.109375 L 2.421875 -3.109375 C 2.472656 -2.492188 2.644531 -2.046875 2.9375 -1.765625 C 3.238281 -1.492188 3.644531 -1.359375 4.15625 -1.359375 C 4.550781 -1.359375 4.875 -1.429688 5.125 -1.578125 C 5.375 -1.734375 5.578125 -1.960938 5.734375 -2.265625 L 5.859375 -2.265625 L 7.03125 -1.515625 C 6.800781 -1.023438 6.457031 -0.625 6 -0.3125 C 5.539062 -0.0078125 4.925781 0.140625 4.15625 0.140625 C 3.425781 0.140625 2.796875 0.00390625 2.265625 -0.265625 C 1.742188 -0.546875 1.335938 -0.957031 1.046875 -1.5 C 0.765625 -2.050781 0.625 -2.71875 0.625 -3.5 C 0.625 -4.289062 0.773438 -4.957031 1.078125 -5.5 C 1.378906 -6.050781 1.785156 -6.460938 2.296875 -6.734375 C 2.804688 -7.003906 3.382812 -7.140625 4.03125 -7.140625 C 5.019531 -7.140625 5.773438 -6.875 6.296875 -6.34375 C 6.828125 -5.820312 7.09375 -5.050781 7.09375 -4.03125 C 7.09375 -3.664062 7.078125 -3.382812 7.046875 -3.1875 Z M 5.40625 -4.234375 C 5.394531 -4.773438 5.269531 -5.164062 5.03125 -5.40625 C 4.800781 -5.644531 4.46875 -5.765625 4.03125 -5.765625 C 3.132812 -5.765625 2.609375 -5.253906 2.453125 -4.234375 Z M 5.40625 -4.234375 "/></g></g></g><g fill="#000000" fill-opacity="1"><g transform="translate(128.672489, 215.816041)"><g><path d="M 2.734375 0.140625 C 2.285156 0.140625 1.894531 0.0546875 1.5625 -0.109375 C 1.226562 -0.273438 0.972656 -0.519531 0.796875 -0.84375 C 0.617188 -1.164062 0.53125 -1.550781 0.53125 -2 C 0.53125 -2.40625 0.617188 -2.75 0.796875 -3.03125 C 0.972656 -3.3125 1.25 -3.539062 1.625 -3.71875 C 2 -3.90625 2.484375 -4.046875 3.078125 -4.140625 C 3.503906 -4.210938 3.828125 -4.285156 4.046875 -4.359375 C 4.265625 -4.441406 4.410156 -4.535156 4.484375 -4.640625 C 4.554688 -4.742188 4.59375 -4.875 4.59375 -5.03125 C 4.59375 -5.25 4.515625 -5.414062 4.359375 -5.53125 C 4.203125 -5.65625 3.941406 -5.71875 3.578125 -5.71875 C 3.191406 -5.71875 2.820312 -5.628906 2.46875 -5.453125 C 2.113281 -5.285156 1.8125 -5.0625 1.5625 -4.78125 L 1.421875 -4.78125 L 0.6875 -5.890625 C 1.039062 -6.273438 1.472656 -6.578125 1.984375 -6.796875 C 2.503906 -7.023438 3.066406 -7.140625 3.671875 -7.140625 C 4.597656 -7.140625 5.265625 -6.941406 5.671875 -6.546875 C 6.085938 -6.148438 6.296875 -5.59375 6.296875 -4.875 L 6.296875 -1.828125 C 6.296875 -1.515625 6.4375 -1.359375 6.71875 -1.359375 C 6.820312 -1.359375 6.925781 -1.378906 7.03125 -1.421875 L 7.109375 -1.390625 L 7.25 -0.171875 C 7.144531 -0.0976562 7.003906 -0.0390625 6.828125 0 C 6.660156 0.03125 6.472656 0.046875 6.265625 0.046875 C 5.847656 0.046875 5.519531 -0.03125 5.28125 -0.1875 C 5.050781 -0.351562 4.882812 -0.609375 4.78125 -0.953125 L 4.640625 -0.953125 C 4.296875 -0.222656 3.660156 0.140625 2.734375 0.140625 Z M 3.28125 -1.1875 C 3.6875 -1.1875 4.007812 -1.320312 4.25 -1.59375 C 4.5 -1.863281 4.625 -2.242188 4.625 -2.734375 L 4.625 -3.4375 L 4.5 -3.46875 C 4.394531 -3.382812 4.253906 -3.3125 4.078125 -3.25 C 3.910156 -3.195312 3.671875 -3.140625 3.359375 -3.078125 C 2.972656 -3.015625 2.695312 -2.90625 2.53125 -2.75 C 2.363281 -2.601562 2.28125 -2.382812 2.28125 -2.09375 C 2.28125 -1.800781 2.367188 -1.578125 2.546875 -1.421875 C 2.722656 -1.265625 2.96875 -1.1875 3.28125 -1.1875 Z M 3.28125 -1.1875 "/></g></g></g><g fill="#000000" fill-opacity="1"><g transform="translate(136.0526, 215.816041)"><g><path d="M 3.28125 0.140625 C 2.800781 0.140625 2.359375 0.0820312 1.953125 -0.03125 C 1.554688 -0.144531 1.21875 -0.300781 0.9375 -0.5 C 0.65625 -0.695312 0.445312 -0.921875 0.3125 -1.171875 L 1.296875 -2.234375 L 1.421875 -2.234375 C 1.660156 -1.921875 1.9375 -1.679688 2.25 -1.515625 C 2.570312 -1.359375 2.914062 -1.28125 3.28125 -1.28125 C 3.625 -1.28125 3.882812 -1.34375 4.0625 -1.46875 C 4.238281 -1.59375 4.328125 -1.769531 4.328125 -2 C 4.328125 -2.175781 4.265625 -2.320312 4.140625 -2.4375 C 4.015625 -2.5625 3.8125 -2.660156 3.53125 -2.734375 L 2.609375 -2.953125 C 1.910156 -3.117188 1.398438 -3.367188 1.078125 -3.703125 C 0.765625 -4.046875 0.609375 -4.484375 0.609375 -5.015625 C 0.609375 -5.441406 0.71875 -5.816406 0.9375 -6.140625 C 1.15625 -6.460938 1.46875 -6.707031 1.875 -6.875 C 2.28125 -7.050781 2.75 -7.140625 3.28125 -7.140625 C 3.914062 -7.140625 4.441406 -7.046875 4.859375 -6.859375 C 5.273438 -6.679688 5.597656 -6.4375 5.828125 -6.125 L 4.890625 -5.109375 L 4.765625 -5.109375 C 4.566406 -5.335938 4.34375 -5.5 4.09375 -5.59375 C 3.851562 -5.695312 3.582031 -5.75 3.28125 -5.75 C 2.59375 -5.75 2.25 -5.535156 2.25 -5.109375 C 2.25 -4.921875 2.3125 -4.769531 2.4375 -4.65625 C 2.570312 -4.539062 2.800781 -4.445312 3.125 -4.375 L 3.984375 -4.1875 C 4.691406 -4.039062 5.207031 -3.796875 5.53125 -3.453125 C 5.863281 -3.117188 6.03125 -2.664062 6.03125 -2.09375 C 6.03125 -1.65625 5.921875 -1.265625 5.703125 -0.921875 C 5.484375 -0.585938 5.164062 -0.328125 4.75 -0.140625 C 4.332031 0.046875 3.84375 0.140625 3.28125 0.140625 Z M 3.28125 0.140625 "/></g></g></g><g fill="#000000" fill-opacity="1"><g transform="translate(142.506232, 215.816041)"><g><path d="M 4.828125 -1.671875 L 5.28125 -0.375 C 5.09375 -0.21875 4.851562 -0.09375 4.5625 0 C 4.28125 0.09375 3.957031 0.140625 3.59375 0.140625 C 2.832031 0.140625 2.253906 -0.0664062 1.859375 -0.484375 C 1.472656 -0.898438 1.28125 -1.5 1.28125 -2.28125 L 1.28125 -5.609375 L 0.203125 -5.609375 L 0.203125 -7.015625 L 1.28125 -7.015625 L 1.28125 -8.375 L 3.03125 -8.65625 L 3.03125 -7.015625 L 5.015625 -7.015625 L 5.015625 -5.609375 L 3.03125 -5.609375 L 3.03125 -2.40625 C 3.03125 -2.0625 3.101562 -1.8125 3.25 -1.65625 C 3.394531 -1.5 3.601562 -1.421875 3.875 -1.421875 C 4.1875 -1.421875 4.460938 -1.503906 4.703125 -1.671875 Z M 4.828125 -1.671875 "/></g></g></g><g fill="#000000" fill-opacity="1"><g transform="translate(147.944544, 215.816041)"><g><path d="M 4.4375 -3.734375 L 0.546875 -3.734375 L 0.546875 -5.28125 L 4.4375 -5.28125 Z M 4.4375 -3.734375 "/></g></g></g><g fill="#000000" fill-opacity="1"><g transform="translate(152.951346, 215.816041)"><g><path d="M 0.453125 -0.734375 C 0.453125 -1.242188 0.503906 -1.675781 0.609375 -2.03125 C 0.722656 -2.382812 0.90625 -2.703125 1.15625 -2.984375 C 1.414062 -3.273438 1.78125 -3.585938 2.25 -3.921875 L 3.484375 -4.828125 C 3.828125 -5.066406 4.09375 -5.273438 4.28125 -5.453125 C 4.46875 -5.628906 4.609375 -5.8125 4.703125 -6 C 4.796875 -6.195312 4.84375 -6.421875 4.84375 -6.671875 C 4.84375 -7.054688 4.726562 -7.347656 4.5 -7.546875 C 4.269531 -7.753906 3.925781 -7.859375 3.46875 -7.859375 C 3.03125 -7.859375 2.640625 -7.753906 2.296875 -7.546875 C 1.953125 -7.335938 1.671875 -7.050781 1.453125 -6.6875 L 1.328125 -6.65625 L 0.3125 -7.78125 C 0.644531 -8.269531 1.078125 -8.660156 1.609375 -8.953125 C 2.140625 -9.253906 2.785156 -9.40625 3.546875 -9.40625 C 4.234375 -9.40625 4.8125 -9.289062 5.28125 -9.0625 C 5.75 -8.84375 6.097656 -8.535156 6.328125 -8.140625 C 6.554688 -7.742188 6.671875 -7.285156 6.671875 -6.765625 C 6.671875 -6.328125 6.578125 -5.925781 6.390625 -5.5625 C 6.203125 -5.195312 5.945312 -4.859375 5.625 -4.546875 C 5.300781 -4.242188 4.882812 -3.914062 4.375 -3.5625 L 3.28125 -2.796875 C 2.945312 -2.554688 2.710938 -2.34375 2.578125 -2.15625 C 2.453125 -1.976562 2.390625 -1.769531 2.390625 -1.53125 L 6.578125 -1.53125 L 6.578125 0 L 0.453125 0 Z M 0.453125 -0.734375 "/></g></g></g><g fill="#000000" fill-opacity="1"><g transform="translate(160.191851, 215.816041)"><g><path d="M 2.734375 0.140625 C 2.285156 0.140625 1.894531 0.0546875 1.5625 -0.109375 C 1.226562 -0.273438 0.972656 -0.519531 0.796875 -0.84375 C 0.617188 -1.164062 0.53125 -1.550781 0.53125 -2 C 0.53125 -2.40625 0.617188 -2.75 0.796875 -3.03125 C 0.972656 -3.3125 1.25 -3.539062 1.625 -3.71875 C 2 -3.90625 2.484375 -4.046875 3.078125 -4.140625 C 3.503906 -4.210938 3.828125 -4.285156 4.046875 -4.359375 C 4.265625 -4.441406 4.410156 -4.535156 4.484375 -4.640625 C 4.554688 -4.742188 4.59375 -4.875 4.59375 -5.03125 C 4.59375 -5.25 4.515625 -5.414062 4.359375 -5.53125 C 4.203125 -5.65625 3.941406 -5.71875 3.578125 -5.71875 C 3.191406 -5.71875 2.820312 -5.628906 2.46875 -5.453125 C 2.113281 -5.285156 1.8125 -5.0625 1.5625 -4.78125 L 1.421875 -4.78125 L 0.6875 -5.890625 C 1.039062 -6.273438 1.472656 -6.578125 1.984375 -6.796875 C 2.503906 -7.023438 3.066406 -7.140625 3.671875 -7.140625 C 4.597656 -7.140625 5.265625 -6.941406 5.671875 -6.546875 C 6.085938 -6.148438 6.296875 -5.59375 6.296875 -4.875 L 6.296875 -1.828125 C 6.296875 -1.515625 6.4375 -1.359375 6.71875 -1.359375 C 6.820312 -1.359375 6.925781 -1.378906 7.03125 -1.421875 L 7.109375 -1.390625 L 7.25 -0.171875 C 7.144531 -0.0976562 7.003906 -0.0390625 6.828125 0 C 6.660156 0.03125 6.472656 0.046875 6.265625 0.046875 C 5.847656 0.046875 5.519531 -0.03125 5.28125 -0.1875 C 5.050781 -0.351562 4.882812 -0.609375 4.78125 -0.953125 L 4.640625 -0.953125 C 4.296875 -0.222656 3.660156 0.140625 2.734375 0.140625 Z M 3.28125 -1.1875 C 3.6875 -1.1875 4.007812 -1.320312 4.25 -1.59375 C 4.5 -1.863281 4.625 -2.242188 4.625 -2.734375 L 4.625 -3.4375 L 4.5 -3.46875 C 4.394531 -3.382812 4.253906 -3.3125 4.078125 -3.25 C 3.910156 -3.195312 3.671875 -3.140625 3.359375 -3.078125 C 2.972656 -3.015625 2.695312 -2.90625 2.53125 -2.75 C 2.363281 -2.601562 2.28125 -2.382812 2.28125 -2.09375 C 2.28125 -1.800781 2.367188 -1.578125 2.546875 -1.421875 C 2.722656 -1.265625 2.96875 -1.1875 3.28125 -1.1875 Z M 3.28125 -1.1875 "/></g></g></g><g clip-path="url(#7b0190e7ad)"><g clip-path="url(#58db984954)"><path fill="#ffde59" d="M 328.417969 454.625 L 463.210938 454.625 L 463.210938 494.269531 L 328.417969 494.269531 Z M 328.417969 454.625 " fill-opacity="1" fill-rule="nonzero"/></g></g><g fill="#000000" fill-opacity="1"><g transform="translate(361.314361, 477.123192)"><g><path d="M 3.203125 0.140625 C 2.421875 0.140625 1.84375 -0.0703125 1.46875 -0.5 C 1.09375 -0.9375 0.90625 -1.554688 0.90625 -2.359375 L 0.90625 -7 L 2.65625 -7 L 2.65625 -2.578125 C 2.65625 -2.148438 2.75 -1.835938 2.9375 -1.640625 C 3.125 -1.453125 3.410156 -1.359375 3.796875 -1.359375 C 4.273438 -1.359375 4.648438 -1.515625 4.921875 -1.828125 C 5.191406 -2.148438 5.328125 -2.65625 5.328125 -3.34375 L 5.328125 -7 L 7.09375 -7 L 7.09375 0 L 5.40625 0 L 5.40625 -1.03125 L 5.265625 -1.0625 C 5.046875 -0.65625 4.773438 -0.351562 4.453125 -0.15625 C 4.128906 0.0390625 3.710938 0.140625 3.203125 0.140625 Z M 3.203125 0.140625 "/></g></g></g><g fill="#000000" fill-opacity="1"><g transform="translate(369.411536, 477.123192)"><g><path d="M 3.28125 0.140625 C 2.800781 0.140625 2.359375 0.0820312 1.953125 -0.03125 C 1.554688 -0.144531 1.21875 -0.300781 0.9375 -0.5 C 0.65625 -0.695312 0.445312 -0.921875 0.3125 -1.171875 L 1.296875 -2.234375 L 1.421875 -2.234375 C 1.660156 -1.921875 1.9375 -1.679688 2.25 -1.515625 C 2.570312 -1.359375 2.914062 -1.28125 3.28125 -1.28125 C 3.625 -1.28125 3.882812 -1.34375 4.0625 -1.46875 C 4.238281 -1.59375 4.328125 -1.769531 4.328125 -2 C 4.328125 -2.175781 4.265625 -2.320312 4.140625 -2.4375 C 4.015625 -2.5625 3.8125 -2.660156 3.53125 -2.734375 L 2.609375 -2.953125 C 1.910156 -3.117188 1.398438 -3.367188 1.078125 -3.703125 C 0.765625 -4.046875 0.609375 -4.484375 0.609375 -5.015625 C 0.609375 -5.441406 0.71875 -5.816406 0.9375 -6.140625 C 1.15625 -6.460938 1.46875 -6.707031 1.875 -6.875 C 2.28125 -7.050781 2.75 -7.140625 3.28125 -7.140625 C 3.914062 -7.140625 4.441406 -7.046875 4.859375 -6.859375 C 5.273438 -6.679688 5.597656 -6.4375 5.828125 -6.125 L 4.890625 -5.109375 L 4.765625 -5.109375 C 4.566406 -5.335938 4.34375 -5.5 4.09375 -5.59375 C 3.851562 -5.695312 3.582031 -5.75 3.28125 -5.75 C 2.59375 -5.75 2.25 -5.535156 2.25 -5.109375 C 2.25 -4.921875 2.3125 -4.769531 2.4375 -4.65625 C 2.570312 -4.539062 2.800781 -4.445312 3.125 -4.375 L 3.984375 -4.1875 C 4.691406 -4.039062 5.207031 -3.796875 5.53125 -3.453125 C 5.863281 -3.117188 6.03125 -2.664062 6.03125 -2.09375 C 6.03125 -1.65625 5.921875 -1.265625 5.703125 -0.921875 C 5.484375 -0.585938 5.164062 -0.328125 4.75 -0.140625 C 4.332031 0.046875 3.84375 0.140625 3.28125 0.140625 Z M 3.28125 0.140625 "/></g></g></g><g fill="#000000" fill-opacity="1"><g transform="translate(375.865168, 477.123192)"><g><path d="M 4.4375 -3.734375 L 0.546875 -3.734375 L 0.546875 -5.28125 L 4.4375 -5.28125 Z M 4.4375 -3.734375 "/></g></g></g><g fill="#000000" fill-opacity="1"><g transform="translate(380.87197, 477.123192)"><g><path d="M 6.921875 -3.109375 L 2.421875 -3.109375 C 2.472656 -2.492188 2.644531 -2.046875 2.9375 -1.765625 C 3.238281 -1.492188 3.644531 -1.359375 4.15625 -1.359375 C 4.550781 -1.359375 4.875 -1.429688 5.125 -1.578125 C 5.375 -1.734375 5.578125 -1.960938 5.734375 -2.265625 L 5.859375 -2.265625 L 7.03125 -1.515625 C 6.800781 -1.023438 6.457031 -0.625 6 -0.3125 C 5.539062 -0.0078125 4.925781 0.140625 4.15625 0.140625 C 3.425781 0.140625 2.796875 0.00390625 2.265625 -0.265625 C 1.742188 -0.546875 1.335938 -0.957031 1.046875 -1.5 C 0.765625 -2.050781 0.625 -2.71875 0.625 -3.5 C 0.625 -4.289062 0.773438 -4.957031 1.078125 -5.5 C 1.378906 -6.050781 1.785156 -6.460938 2.296875 -6.734375 C 2.804688 -7.003906 3.382812 -7.140625 4.03125 -7.140625 C 5.019531 -7.140625 5.773438 -6.875 6.296875 -6.34375 C 6.828125 -5.820312 7.09375 -5.050781 7.09375 -4.03125 C 7.09375 -3.664062 7.078125 -3.382812 7.046875 -3.1875 Z M 5.40625 -4.234375 C 5.394531 -4.773438 5.269531 -5.164062 5.03125 -5.40625 C 4.800781 -5.644531 4.46875 -5.765625 4.03125 -5.765625 C 3.132812 -5.765625 2.609375 -5.253906 2.453125 -4.234375 Z M 5.40625 -4.234375 "/></g></g></g><g fill="#000000" fill-opacity="1"><g transform="translate(388.480528, 477.123192)"><g><path d="M 2.734375 0.140625 C 2.285156 0.140625 1.894531 0.0546875 1.5625 -0.109375 C 1.226562 -0.273438 0.972656 -0.519531 0.796875 -0.84375 C 0.617188 -1.164062 0.53125 -1.550781 0.53125 -2 C 0.53125 -2.40625 0.617188 -2.75 0.796875 -3.03125 C 0.972656 -3.3125 1.25 -3.539062 1.625 -3.71875 C 2 -3.90625 2.484375 -4.046875 3.078125 -4.140625 C 3.503906 -4.210938 3.828125 -4.285156 4.046875 -4.359375 C 4.265625 -4.441406 4.410156 -4.535156 4.484375 -4.640625 C 4.554688 -4.742188 4.59375 -4.875 4.59375 -5.03125 C 4.59375 -5.25 4.515625 -5.414062 4.359375 -5.53125 C 4.203125 -5.65625 3.941406 -5.71875 3.578125 -5.71875 C 3.191406 -5.71875 2.820312 -5.628906 2.46875 -5.453125 C 2.113281 -5.285156 1.8125 -5.0625 1.5625 -4.78125 L 1.421875 -4.78125 L 0.6875 -5.890625 C 1.039062 -6.273438 1.472656 -6.578125 1.984375 -6.796875 C 2.503906 -7.023438 3.066406 -7.140625 3.671875 -7.140625 C 4.597656 -7.140625 5.265625 -6.941406 5.671875 -6.546875 C 6.085938 -6.148438 6.296875 -5.59375 6.296875 -4.875 L 6.296875 -1.828125 C 6.296875 -1.515625 6.4375 -1.359375 6.71875 -1.359375 C 6.820312 -1.359375 6.925781 -1.378906 7.03125 -1.421875 L 7.109375 -1.390625 L 7.25 -0.171875 C 7.144531 -0.0976562 7.003906 -0.0390625 6.828125 0 C 6.660156 0.03125 6.472656 0.046875 6.265625 0.046875 C 5.847656 0.046875 5.519531 -0.03125 5.28125 -0.1875 C 5.050781 -0.351562 4.882812 -0.609375 4.78125 -0.953125 L 4.640625 -0.953125 C 4.296875 -0.222656 3.660156 0.140625 2.734375 0.140625 Z M 3.28125 -1.1875 C 3.6875 -1.1875 4.007812 -1.320312 4.25 -1.59375 C 4.5 -1.863281 4.625 -2.242188 4.625 -2.734375 L 4.625 -3.4375 L 4.5 -3.46875 C 4.394531 -3.382812 4.253906 -3.3125 4.078125 -3.25 C 3.910156 -3.195312 3.671875 -3.140625 3.359375 -3.078125 C 2.972656 -3.015625 2.695312 -2.90625 2.53125 -2.75 C 2.363281 -2.601562 2.28125 -2.382812 2.28125 -2.09375 C 2.28125 -1.800781 2.367188 -1.578125 2.546875 -1.421875 C 2.722656 -1.265625 2.96875 -1.1875 3.28125 -1.1875 Z M 3.28125 -1.1875 "/></g></g></g><g fill="#000000" fill-opacity="1"><g transform="translate(395.860639, 477.123192)"><g><path d="M 3.28125 0.140625 C 2.800781 0.140625 2.359375 0.0820312 1.953125 -0.03125 C 1.554688 -0.144531 1.21875 -0.300781 0.9375 -0.5 C 0.65625 -0.695312 0.445312 -0.921875 0.3125 -1.171875 L 1.296875 -2.234375 L 1.421875 -2.234375 C 1.660156 -1.921875 1.9375 -1.679688 2.25 -1.515625 C 2.570312 -1.359375 2.914062 -1.28125 3.28125 -1.28125 C 3.625 -1.28125 3.882812 -1.34375 4.0625 -1.46875 C 4.238281 -1.59375 4.328125 -1.769531 4.328125 -2 C 4.328125 -2.175781 4.265625 -2.320312 4.140625 -2.4375 C 4.015625 -2.5625 3.8125 -2.660156 3.53125 -2.734375 L 2.609375 -2.953125 C 1.910156 -3.117188 1.398438 -3.367188 1.078125 -3.703125 C 0.765625 -4.046875 0.609375 -4.484375 0.609375 -5.015625 C 0.609375 -5.441406 0.71875 -5.816406 0.9375 -6.140625 C 1.15625 -6.460938 1.46875 -6.707031 1.875 -6.875 C 2.28125 -7.050781 2.75 -7.140625 3.28125 -7.140625 C 3.914062 -7.140625 4.441406 -7.046875 4.859375 -6.859375 C 5.273438 -6.679688 5.597656 -6.4375 5.828125 -6.125 L 4.890625 -5.109375 L 4.765625 -5.109375 C 4.566406 -5.335938 4.34375 -5.5 4.09375 -5.59375 C 3.851562 -5.695312 3.582031 -5.75 3.28125 -5.75 C 2.59375 -5.75 2.25 -5.535156 2.25 -5.109375 C 2.25 -4.921875 2.3125 -4.769531 2.4375 -4.65625 C 2.570312 -4.539062 2.800781 -4.445312 3.125 -4.375 L 3.984375 -4.1875 C 4.691406 -4.039062 5.207031 -3.796875 5.53125 -3.453125 C 5.863281 -3.117188 6.03125 -2.664062 6.03125 -2.09375 C 6.03125 -1.65625 5.921875 -1.265625 5.703125 -0.921875 C 5.484375 -0.585938 5.164062 -0.328125 4.75 -0.140625 C 4.332031 0.046875 3.84375 0.140625 3.28125 0.140625 Z M 3.28125 0.140625 "/></g></g></g><g fill="#000000" fill-opacity="1"><g transform="translate(402.314271, 477.123192)"><g><path d="M 4.828125 -1.671875 L 5.28125 -0.375 C 5.09375 -0.21875 4.851562 -0.09375 4.5625 0 C 4.28125 0.09375 3.957031 0.140625 3.59375 0.140625 C 2.832031 0.140625 2.253906 -0.0664062 1.859375 -0.484375 C 1.472656 -0.898438 1.28125 -1.5 1.28125 -2.28125 L 1.28125 -5.609375 L 0.203125 -5.609375 L 0.203125 -7.015625 L 1.28125 -7.015625 L 1.28125 -8.375 L 3.03125 -8.65625 L 3.03125 -7.015625 L 5.015625 -7.015625 L 5.015625 -5.609375 L 3.03125 -5.609375 L 3.03125 -2.40625 C 3.03125 -2.0625 3.101562 -1.8125 3.25 -1.65625 C 3.394531 -1.5 3.601562 -1.421875 3.875 -1.421875 C 4.1875 -1.421875 4.460938 -1.503906 4.703125 -1.671875 Z M 4.828125 -1.671875 "/></g></g></g><g fill="#000000" fill-opacity="1"><g transform="translate(407.752584, 477.123192)"><g><path d="M 4.4375 -3.734375 L 0.546875 -3.734375 L 0.546875 -5.28125 L 4.4375 -5.28125 Z M 4.4375 -3.734375 "/></g></g></g><g fill="#000000" fill-opacity="1"><g transform="translate(412.759385, 477.123192)"><g><path d="M 0.453125 -0.734375 C 0.453125 -1.242188 0.503906 -1.675781 0.609375 -2.03125 C 0.722656 -2.382812 0.90625 -2.703125 1.15625 -2.984375 C 1.414062 -3.273438 1.78125 -3.585938 2.25 -3.921875 L 3.484375 -4.828125 C 3.828125 -5.066406 4.09375 -5.273438 4.28125 -5.453125 C 4.46875 -5.628906 4.609375 -5.8125 4.703125 -6 C 4.796875 -6.195312 4.84375 -6.421875 4.84375 -6.671875 C 4.84375 -7.054688 4.726562 -7.347656 4.5 -7.546875 C 4.269531 -7.753906 3.925781 -7.859375 3.46875 -7.859375 C 3.03125 -7.859375 2.640625 -7.753906 2.296875 -7.546875 C 1.953125 -7.335938 1.671875 -7.050781 1.453125 -6.6875 L 1.328125 -6.65625 L 0.3125 -7.78125 C 0.644531 -8.269531 1.078125 -8.660156 1.609375 -8.953125 C 2.140625 -9.253906 2.785156 -9.40625 3.546875 -9.40625 C 4.234375 -9.40625 4.8125 -9.289062 5.28125 -9.0625 C 5.75 -8.84375 6.097656 -8.535156 6.328125 -8.140625 C 6.554688 -7.742188 6.671875 -7.285156 6.671875 -6.765625 C 6.671875 -6.328125 6.578125 -5.925781 6.390625 -5.5625 C 6.203125 -5.195312 5.945312 -4.859375 5.625 -4.546875 C 5.300781 -4.242188 4.882812 -3.914062 4.375 -3.5625 L 3.28125 -2.796875 C 2.945312 -2.554688 2.710938 -2.34375 2.578125 -2.15625 C 2.453125 -1.976562 2.390625 -1.769531 2.390625 -1.53125 L 6.578125 -1.53125 L 6.578125 0 L 0.453125 0 Z M 0.453125 -0.734375 "/></g></g></g><g fill="#000000" fill-opacity="1"><g transform="translate(419.99989, 477.123192)"><g><path d="M 4.890625 0.140625 C 4.003906 0.140625 3.34375 -0.195312 2.90625 -0.875 L 2.765625 -0.84375 L 2.765625 0 L 1.015625 0 L 1.015625 -9.8125 L 2.765625 -9.8125 L 2.765625 -6.171875 L 2.90625 -6.15625 C 3.144531 -6.488281 3.425781 -6.734375 3.75 -6.890625 C 4.082031 -7.054688 4.476562 -7.140625 4.9375 -7.140625 C 5.5 -7.140625 5.988281 -7.003906 6.40625 -6.734375 C 6.832031 -6.460938 7.164062 -6.054688 7.40625 -5.515625 C 7.644531 -4.972656 7.765625 -4.300781 7.765625 -3.5 C 7.765625 -2.695312 7.640625 -2.023438 7.390625 -1.484375 C 7.148438 -0.941406 6.8125 -0.535156 6.375 -0.265625 C 5.945312 0.00390625 5.453125 0.140625 4.890625 0.140625 Z M 4.359375 -1.359375 C 4.878906 -1.359375 5.273438 -1.53125 5.546875 -1.875 C 5.816406 -2.21875 5.953125 -2.757812 5.953125 -3.5 C 5.953125 -4.238281 5.816406 -4.78125 5.546875 -5.125 C 5.273438 -5.46875 4.878906 -5.640625 4.359375 -5.640625 C 3.867188 -5.640625 3.476562 -5.460938 3.1875 -5.109375 C 2.894531 -4.753906 2.75 -4.21875 2.75 -3.5 C 2.75 -2.78125 2.894531 -2.242188 3.1875 -1.890625 C 3.476562 -1.535156 3.867188 -1.359375 4.359375 -1.359375 Z M 4.359375 -1.359375 "/></g></g></g><g clip-path="url(#197d4c985b)"><g clip-path="url(#18b716611e)"><path fill="#ffde59" d="M 567.050781 193.316406 L 693.914062 193.316406 L 693.914062 232.960938 L 567.050781 232.960938 Z M 567.050781 193.316406 " fill-opacity="1" fill-rule="nonzero"/></g></g><g fill="#000000" fill-opacity="1"><g transform="translate(599.171061, 215.816041)"><g><path d="M 3.203125 0.140625 C 2.421875 0.140625 1.84375 -0.0703125 1.46875 -0.5 C 1.09375 -0.9375 0.90625 -1.554688 0.90625 -2.359375 L 0.90625 -7 L 2.65625 -7 L 2.65625 -2.578125 C 2.65625 -2.148438 2.75 -1.835938 2.9375 -1.640625 C 3.125 -1.453125 3.410156 -1.359375 3.796875 -1.359375 C 4.273438 -1.359375 4.648438 -1.515625 4.921875 -1.828125 C 5.191406 -2.148438 5.328125 -2.65625 5.328125 -3.34375 L 5.328125 -7 L 7.09375 -7 L 7.09375 0 L 5.40625 0 L 5.40625 -1.03125 L 5.265625 -1.0625 C 5.046875 -0.65625 4.773438 -0.351562 4.453125 -0.15625 C 4.128906 0.0390625 3.710938 0.140625 3.203125 0.140625 Z M 3.203125 0.140625 "/></g></g></g><g fill="#000000" fill-opacity="1"><g transform="translate(607.268236, 215.816041)"><g><path d="M 3.28125 0.140625 C 2.800781 0.140625 2.359375 0.0820312 1.953125 -0.03125 C 1.554688 -0.144531 1.21875 -0.300781 0.9375 -0.5 C 0.65625 -0.695312 0.445312 -0.921875 0.3125 -1.171875 L 1.296875 -2.234375 L 1.421875 -2.234375 C 1.660156 -1.921875 1.9375 -1.679688 2.25 -1.515625 C 2.570312 -1.359375 2.914062 -1.28125 3.28125 -1.28125 C 3.625 -1.28125 3.882812 -1.34375 4.0625 -1.46875 C 4.238281 -1.59375 4.328125 -1.769531 4.328125 -2 C 4.328125 -2.175781 4.265625 -2.320312 4.140625 -2.4375 C 4.015625 -2.5625 3.8125 -2.660156 3.53125 -2.734375 L 2.609375 -2.953125 C 1.910156 -3.117188 1.398438 -3.367188 1.078125 -3.703125 C 0.765625 -4.046875 0.609375 -4.484375 0.609375 -5.015625 C 0.609375 -5.441406 0.71875 -5.816406 0.9375 -6.140625 C 1.15625 -6.460938 1.46875 -6.707031 1.875 -6.875 C 2.28125 -7.050781 2.75 -7.140625 3.28125 -7.140625 C 3.914062 -7.140625 4.441406 -7.046875 4.859375 -6.859375 C 5.273438 -6.679688 5.597656 -6.4375 5.828125 -6.125 L 4.890625 -5.109375 L 4.765625 -5.109375 C 4.566406 -5.335938 4.34375 -5.5 4.09375 -5.59375 C 3.851562 -5.695312 3.582031 -5.75 3.28125 -5.75 C 2.59375 -5.75 2.25 -5.535156 2.25 -5.109375 C 2.25 -4.921875 2.3125 -4.769531 2.4375 -4.65625 C 2.570312 -4.539062 2.800781 -4.445312 3.125 -4.375 L 3.984375 -4.1875 C 4.691406 -4.039062 5.207031 -3.796875 5.53125 -3.453125 C 5.863281 -3.117188 6.03125 -2.664062 6.03125 -2.09375 C 6.03125 -1.65625 5.921875 -1.265625 5.703125 -0.921875 C 5.484375 -0.585938 5.164062 -0.328125 4.75 -0.140625 C 4.332031 0.046875 3.84375 0.140625 3.28125 0.140625 Z M 3.28125 0.140625 "/></g></g></g><g fill="#000000" fill-opacity="1"><g transform="translate(613.721868, 215.816041)"><g><path d="M 4.4375 -3.734375 L 0.546875 -3.734375 L 0.546875 -5.28125 L 4.4375 -5.28125 Z M 4.4375 -3.734375 "/></g></g></g><g fill="#000000" fill-opacity="1"><g transform="translate(618.728669, 215.816041)"><g><path d="M 6.921875 -3.109375 L 2.421875 -3.109375 C 2.472656 -2.492188 2.644531 -2.046875 2.9375 -1.765625 C 3.238281 -1.492188 3.644531 -1.359375 4.15625 -1.359375 C 4.550781 -1.359375 4.875 -1.429688 5.125 -1.578125 C 5.375 -1.734375 5.578125 -1.960938 5.734375 -2.265625 L 5.859375 -2.265625 L 7.03125 -1.515625 C 6.800781 -1.023438 6.457031 -0.625 6 -0.3125 C 5.539062 -0.0078125 4.925781 0.140625 4.15625 0.140625 C 3.425781 0.140625 2.796875 0.00390625 2.265625 -0.265625 C 1.742188 -0.546875 1.335938 -0.957031 1.046875 -1.5 C 0.765625 -2.050781 0.625 -2.71875 0.625 -3.5 C 0.625 -4.289062 0.773438 -4.957031 1.078125 -5.5 C 1.378906 -6.050781 1.785156 -6.460938 2.296875 -6.734375 C 2.804688 -7.003906 3.382812 -7.140625 4.03125 -7.140625 C 5.019531 -7.140625 5.773438 -6.875 6.296875 -6.34375 C 6.828125 -5.820312 7.09375 -5.050781 7.09375 -4.03125 C 7.09375 -3.664062 7.078125 -3.382812 7.046875 -3.1875 Z M 5.40625 -4.234375 C 5.394531 -4.773438 5.269531 -5.164062 5.03125 -5.40625 C 4.800781 -5.644531 4.46875 -5.765625 4.03125 -5.765625 C 3.132812 -5.765625 2.609375 -5.253906 2.453125 -4.234375 Z M 5.40625 -4.234375 "/></g></g></g><g fill="#000000" fill-opacity="1"><g transform="translate(626.337228, 215.816041)"><g><path d="M 2.734375 0.140625 C 2.285156 0.140625 1.894531 0.0546875 1.5625 -0.109375 C 1.226562 -0.273438 0.972656 -0.519531 0.796875 -0.84375 C 0.617188 -1.164062 0.53125 -1.550781 0.53125 -2 C 0.53125 -2.40625 0.617188 -2.75 0.796875 -3.03125 C 0.972656 -3.3125 1.25 -3.539062 1.625 -3.71875 C 2 -3.90625 2.484375 -4.046875 3.078125 -4.140625 C 3.503906 -4.210938 3.828125 -4.285156 4.046875 -4.359375 C 4.265625 -4.441406 4.410156 -4.535156 4.484375 -4.640625 C 4.554688 -4.742188 4.59375 -4.875 4.59375 -5.03125 C 4.59375 -5.25 4.515625 -5.414062 4.359375 -5.53125 C 4.203125 -5.65625 3.941406 -5.71875 3.578125 -5.71875 C 3.191406 -5.71875 2.820312 -5.628906 2.46875 -5.453125 C 2.113281 -5.285156 1.8125 -5.0625 1.5625 -4.78125 L 1.421875 -4.78125 L 0.6875 -5.890625 C 1.039062 -6.273438 1.472656 -6.578125 1.984375 -6.796875 C 2.503906 -7.023438 3.066406 -7.140625 3.671875 -7.140625 C 4.597656 -7.140625 5.265625 -6.941406 5.671875 -6.546875 C 6.085938 -6.148438 6.296875 -5.59375 6.296875 -4.875 L 6.296875 -1.828125 C 6.296875 -1.515625 6.4375 -1.359375 6.71875 -1.359375 C 6.820312 -1.359375 6.925781 -1.378906 7.03125 -1.421875 L 7.109375 -1.390625 L 7.25 -0.171875 C 7.144531 -0.0976562 7.003906 -0.0390625 6.828125 0 C 6.660156 0.03125 6.472656 0.046875 6.265625 0.046875 C 5.847656 0.046875 5.519531 -0.03125 5.28125 -0.1875 C 5.050781 -0.351562 4.882812 -0.609375 4.78125 -0.953125 L 4.640625 -0.953125 C 4.296875 -0.222656 3.660156 0.140625 2.734375 0.140625 Z M 3.28125 -1.1875 C 3.6875 -1.1875 4.007812 -1.320312 4.25 -1.59375 C 4.5 -1.863281 4.625 -2.242188 4.625 -2.734375 L 4.625 -3.4375 L 4.5 -3.46875 C 4.394531 -3.382812 4.253906 -3.3125 4.078125 -3.25 C 3.910156 -3.195312 3.671875 -3.140625 3.359375 -3.078125 C 2.972656 -3.015625 2.695312 -2.90625 2.53125 -2.75 C 2.363281 -2.601562 2.28125 -2.382812 2.28125 -2.09375 C 2.28125 -1.800781 2.367188 -1.578125 2.546875 -1.421875 C 2.722656 -1.265625 2.96875 -1.1875 3.28125 -1.1875 Z M 3.28125 -1.1875 "/></g></g></g><g fill="#000000" fill-opacity="1"><g transform="translate(633.717339, 215.816041)"><g><path d="M 3.28125 0.140625 C 2.800781 0.140625 2.359375 0.0820312 1.953125 -0.03125 C 1.554688 -0.144531 1.21875 -0.300781 0.9375 -0.5 C 0.65625 -0.695312 0.445312 -0.921875 0.3125 -1.171875 L 1.296875 -2.234375 L 1.421875 -2.234375 C 1.660156 -1.921875 1.9375 -1.679688 2.25 -1.515625 C 2.570312 -1.359375 2.914062 -1.28125 3.28125 -1.28125 C 3.625 -1.28125 3.882812 -1.34375 4.0625 -1.46875 C 4.238281 -1.59375 4.328125 -1.769531 4.328125 -2 C 4.328125 -2.175781 4.265625 -2.320312 4.140625 -2.4375 C 4.015625 -2.5625 3.8125 -2.660156 3.53125 -2.734375 L 2.609375 -2.953125 C 1.910156 -3.117188 1.398438 -3.367188 1.078125 -3.703125 C 0.765625 -4.046875 0.609375 -4.484375 0.609375 -5.015625 C 0.609375 -5.441406 0.71875 -5.816406 0.9375 -6.140625 C 1.15625 -6.460938 1.46875 -6.707031 1.875 -6.875 C 2.28125 -7.050781 2.75 -7.140625 3.28125 -7.140625 C 3.914062 -7.140625 4.441406 -7.046875 4.859375 -6.859375 C 5.273438 -6.679688 5.597656 -6.4375 5.828125 -6.125 L 4.890625 -5.109375 L 4.765625 -5.109375 C 4.566406 -5.335938 4.34375 -5.5 4.09375 -5.59375 C 3.851562 -5.695312 3.582031 -5.75 3.28125 -5.75 C 2.59375 -5.75 2.25 -5.535156 2.25 -5.109375 C 2.25 -4.921875 2.3125 -4.769531 2.4375 -4.65625 C 2.570312 -4.539062 2.800781 -4.445312 3.125 -4.375 L 3.984375 -4.1875 C 4.691406 -4.039062 5.207031 -3.796875 5.53125 -3.453125 C 5.863281 -3.117188 6.03125 -2.664062 6.03125 -2.09375 C 6.03125 -1.65625 5.921875 -1.265625 5.703125 -0.921875 C 5.484375 -0.585938 5.164062 -0.328125 4.75 -0.140625 C 4.332031 0.046875 3.84375 0.140625 3.28125 0.140625 Z M 3.28125 0.140625 "/></g></g></g><g fill="#000000" fill-opacity="1"><g transform="translate(640.170971, 215.816041)"><g><path d="M 4.828125 -1.671875 L 5.28125 -0.375 C 5.09375 -0.21875 4.851562 -0.09375 4.5625 0 C 4.28125 0.09375 3.957031 0.140625 3.59375 0.140625 C 2.832031 0.140625 2.253906 -0.0664062 1.859375 -0.484375 C 1.472656 -0.898438 1.28125 -1.5 1.28125 -2.28125 L 1.28125 -5.609375 L 0.203125 -5.609375 L 0.203125 -7.015625 L 1.28125 -7.015625 L 1.28125 -8.375 L 3.03125 -8.65625 L 3.03125 -7.015625 L 5.015625 -7.015625 L 5.015625 -5.609375 L 3.03125 -5.609375 L 3.03125 -2.40625 C 3.03125 -2.0625 3.101562 -1.8125 3.25 -1.65625 C 3.394531 -1.5 3.601562 -1.421875 3.875 -1.421875 C 4.1875 -1.421875 4.460938 -1.503906 4.703125 -1.671875 Z M 4.828125 -1.671875 "/></g></g></g><g fill="#000000" fill-opacity="1"><g transform="translate(645.609284, 215.816041)"><g><path d="M 4.4375 -3.734375 L 0.546875 -3.734375 L 0.546875 -5.28125 L 4.4375 -5.28125 Z M 4.4375 -3.734375 "/></g></g></g><g fill="#000000" fill-opacity="1"><g transform="translate(650.616085, 215.816041)"><g><path d="M 0.453125 -0.734375 C 0.453125 -1.242188 0.503906 -1.675781 0.609375 -2.03125 C 0.722656 -2.382812 0.90625 -2.703125 1.15625 -2.984375 C 1.414062 -3.273438 1.78125 -3.585938 2.25 -3.921875 L 3.484375 -4.828125 C 3.828125 -5.066406 4.09375 -5.273438 4.28125 -5.453125 C 4.46875 -5.628906 4.609375 -5.8125 4.703125 -6 C 4.796875 -6.195312 4.84375 -6.421875 4.84375 -6.671875 C 4.84375 -7.054688 4.726562 -7.347656 4.5 -7.546875 C 4.269531 -7.753906 3.925781 -7.859375 3.46875 -7.859375 C 3.03125 -7.859375 2.640625 -7.753906 2.296875 -7.546875 C 1.953125 -7.335938 1.671875 -7.050781 1.453125 -6.6875 L 1.328125 -6.65625 L 0.3125 -7.78125 C 0.644531 -8.269531 1.078125 -8.660156 1.609375 -8.953125 C 2.140625 -9.253906 2.785156 -9.40625 3.546875 -9.40625 C 4.234375 -9.40625 4.8125 -9.289062 5.28125 -9.0625 C 5.75 -8.84375 6.097656 -8.535156 6.328125 -8.140625 C 6.554688 -7.742188 6.671875 -7.285156 6.671875 -6.765625 C 6.671875 -6.328125 6.578125 -5.925781 6.390625 -5.5625 C 6.203125 -5.195312 5.945312 -4.859375 5.625 -4.546875 C 5.300781 -4.242188 4.882812 -3.914062 4.375 -3.5625 L 3.28125 -2.796875 C 2.945312 -2.554688 2.710938 -2.34375 2.578125 -2.15625 C 2.453125 -1.976562 2.390625 -1.769531 2.390625 -1.53125 L 6.578125 -1.53125 L 6.578125 0 L 0.453125 0 Z M 0.453125 -0.734375 "/></g></g></g><g fill="#000000" fill-opacity="1"><g transform="translate(657.85659, 215.816041)"><g><path d="M 4.078125 0.140625 C 3.398438 0.140625 2.800781 0 2.28125 -0.28125 C 1.757812 -0.570312 1.351562 -0.988281 1.0625 -1.53125 C 0.769531 -2.070312 0.625 -2.726562 0.625 -3.5 C 0.625 -4.269531 0.769531 -4.925781 1.0625 -5.46875 C 1.351562 -6.019531 1.753906 -6.4375 2.265625 -6.71875 C 2.785156 -7 3.378906 -7.140625 4.046875 -7.140625 C 5.523438 -7.140625 6.472656 -6.601562 6.890625 -5.53125 L 5.6875 -4.671875 L 5.546875 -4.671875 C 5.398438 -4.992188 5.210938 -5.234375 4.984375 -5.390625 C 4.753906 -5.554688 4.441406 -5.640625 4.046875 -5.640625 C 3.535156 -5.640625 3.140625 -5.460938 2.859375 -5.109375 C 2.578125 -4.765625 2.4375 -4.226562 2.4375 -3.5 C 2.4375 -2.78125 2.578125 -2.242188 2.859375 -1.890625 C 3.148438 -1.535156 3.554688 -1.359375 4.078125 -1.359375 C 4.460938 -1.359375 4.785156 -1.457031 5.046875 -1.65625 C 5.316406 -1.863281 5.507812 -2.160156 5.625 -2.546875 L 5.75 -2.5625 L 7 -1.875 C 6.820312 -1.28125 6.492188 -0.796875 6.015625 -0.421875 C 5.535156 -0.046875 4.890625 0.140625 4.078125 0.140625 Z M 4.078125 0.140625 "/></g></g></g><path fill="#000000" d="M 227.753906 156.15625 L 231.503906 156.179688 L 231.480469 159.929688 L 227.730469 159.90625 M 235.253906 156.207031 L 239.003906 156.230469 L 238.976562 159.980469 L 235.230469 159.957031 M 242.75 156.253906 L 246.5 156.28125 L 246.476562 160.03125 L 242.726562 160.003906 M 250.25 156.304688 L 254 156.328125 L 253.976562 160.078125 L 250.226562 160.054688 M 257.75 156.355469 L 261.496094 156.378906 L 261.472656 160.128906 L 257.722656 160.105469 M 265.246094 156.402344 L 268.996094 156.425781 L 268.972656 160.175781 L 265.222656 160.152344 M 272.746094 156.453125 L 276.496094 156.476562 L 276.46875 160.226562 L 272.722656 160.203125 M 280.242188 156.5 L 283.992188 156.527344 L 283.96875 160.277344 L 280.21875 160.25 M 287.742188 156.550781 L 291.492188 156.574219 L 291.46875 160.324219 L 287.71875 160.300781 M 295.242188 156.597656 L 298.988281 156.625 L 298.964844 160.375 L 295.214844 160.347656 M 302.738281 156.648438 L 306.488281 156.671875 L 306.464844 160.421875 L 302.714844 160.398438 M 310.238281 156.699219 L 313.988281 156.722656 L 313.960938 160.472656 L 310.214844 160.449219 M 317.738281 156.746094 L 321.484375 156.773438 L 321.460938 160.523438 L 317.710938 160.496094 M 325.234375 156.796875 L 328.984375 156.820312 L 328.960938 160.570312 L 325.210938 160.546875 M 332.734375 156.84375 L 336.484375 156.871094 L 336.457031 160.621094 L 332.707031 160.59375 M 340.230469 156.894531 L 343.980469 156.917969 L 343.957031 160.667969 L 340.207031 160.644531 M 347.730469 156.945312 L 351.480469 156.96875 L 351.453125 160.71875 L 347.707031 160.695312 M 355.230469 156.992188 L 358.976562 157.015625 L 358.953125 160.765625 L 355.203125 160.742188 M 362.726562 157.042969 L 366.476562 157.066406 L 366.453125 160.816406 L 362.703125 160.792969 M 370.226562 157.089844 L 373.976562 157.117188 L 373.949219 160.867188 L 370.199219 160.839844 M 377.722656 157.140625 L 381.472656 157.164062 L 381.449219 160.914062 L 377.699219 160.890625 M 385.222656 157.191406 L 388.972656 157.214844 L 388.945312 160.964844 L 385.199219 160.941406 M 392.722656 157.238281 L 396.46875 157.261719 L 396.445312 161.011719 L 392.695312 160.988281 M 400.21875 157.289062 L 403.96875 157.3125 L 403.945312 161.0625 L 400.195312 161.039062 M 407.71875 157.335938 L 411.46875 157.363281 L 411.441406 161.113281 L 407.691406 161.085938 M 415.214844 157.386719 L 418.964844 157.410156 L 418.941406 161.160156 L 415.191406 161.136719 M 422.714844 157.433594 L 426.464844 157.460938 L 426.4375 161.210938 L 422.691406 161.183594 M 430.214844 157.484375 L 433.960938 157.507812 L 433.9375 161.257812 L 430.1875 161.234375 M 437.710938 157.535156 L 441.460938 157.558594 L 441.4375 161.308594 L 437.6875 161.285156 M 445.210938 157.582031 L 448.960938 157.609375 L 448.933594 161.355469 L 445.183594 161.332031 M 452.707031 157.632812 L 456.457031 157.65625 L 456.433594 161.40625 L 452.683594 161.382812 M 460.207031 157.679688 L 463.957031 157.707031 L 463.929688 161.457031 L 460.183594 161.429688 M 467.707031 157.730469 L 471.453125 157.753906 L 471.429688 161.503906 L 467.679688 161.480469 M 475.203125 157.78125 L 478.953125 157.804688 L 478.929688 161.554688 L 475.179688 161.53125 M 482.703125 157.828125 L 486.453125 157.851562 L 486.425781 161.601562 L 482.675781 161.578125 M 490.199219 157.878906 L 493.949219 157.902344 L 493.925781 161.652344 L 490.175781 161.628906 M 497.699219 157.925781 L 501.449219 157.953125 L 501.421875 161.703125 L 497.675781 161.675781 M 505.199219 157.976562 L 508.945312 158 L 508.921875 161.75 L 505.171875 161.726562 M 512.695312 158.027344 L 516.445312 158.050781 L 516.421875 161.800781 L 512.671875 161.773438 M 520.195312 158.074219 L 523.945312 158.097656 L 523.917969 161.847656 L 520.167969 161.824219 M 527.691406 158.125 L 531.441406 158.148438 L 531.417969 161.898438 L 527.667969 161.875 M 535.191406 158.171875 L 538.941406 158.199219 L 538.917969 161.949219 L 535.167969 161.921875 " fill-opacity="1" fill-rule="nonzero"/><path stroke-linecap="round" transform="matrix(3.749225, 0.0245842, -0.0245887, 3.749919, 225.868042, 158.019681)" fill="none" stroke-linejoin="round" d="M 2.499829 -1.499794 L 0.499874 -0.000191901 L 2.499709 1.500272 " stroke="#000000" stroke-width="1" stroke-opacity="1" stroke-miterlimit="4"/><path stroke-linecap="round" transform="matrix(3.749225, 0.0245842, -0.0245887, 3.749919, 542.361601, 160.09497)" fill="none" stroke-linejoin="round" d="M -2.499485 -1.499597 L -0.499656 -0.000174733 L -2.499605 1.500469 " stroke="#000000" stroke-width="1" stroke-opacity="1" stroke-miterlimit="4"/><path fill="#000000" d="M 138.671875 246.621094 L 141.308594 249.289062 L 138.636719 251.921875 L 136.003906 249.253906 M 143.941406 251.957031 L 146.574219 254.628906 L 143.90625 257.261719 L 141.273438 254.59375 M 149.207031 257.296875 L 151.84375 259.964844 L 149.171875 262.597656 L 146.539062 259.929688 M 154.476562 262.632812 L 157.109375 265.300781 L 154.441406 267.9375 L 151.808594 265.269531 M 159.742188 267.972656 L 162.378906 270.640625 L 159.707031 273.273438 L 157.074219 270.605469 M 165.011719 273.308594 L 167.644531 275.976562 L 164.976562 278.613281 L 162.34375 275.941406 M 170.277344 278.648438 L 172.914062 281.316406 L 170.242188 283.949219 L 167.609375 281.28125 M 175.546875 283.984375 L 178.179688 286.652344 L 175.511719 289.289062 L 172.878906 286.617188 M 180.8125 289.324219 L 183.449219 291.992188 L 180.777344 294.625 L 178.144531 291.957031 M 186.082031 294.660156 L 188.714844 297.328125 L 186.046875 299.964844 L 183.414062 297.292969 M 191.351562 299.996094 L 193.984375 302.667969 L 191.3125 305.300781 L 188.679688 302.632812 M 196.617188 305.335938 L 199.25 308.003906 L 196.582031 310.636719 L 193.949219 307.96875 M 201.886719 310.671875 L 204.519531 313.34375 L 201.847656 315.976562 L 199.214844 313.308594 M 207.152344 316.011719 L 209.785156 318.679688 L 207.117188 321.3125 L 204.484375 318.644531 M 212.421875 321.347656 L 215.054688 324.015625 L 212.386719 326.652344 L 209.75 323.984375 M 217.6875 326.6875 L 220.320312 329.355469 L 217.652344 331.988281 L 215.019531 329.320312 M 222.957031 332.023438 L 225.589844 334.691406 L 222.921875 337.328125 L 220.285156 334.660156 M 228.222656 337.363281 L 230.855469 340.03125 L 228.1875 342.664062 L 225.554688 339.996094 M 233.492188 342.699219 L 236.125 345.367188 L 233.457031 348.003906 L 230.820312 345.332031 M 238.757812 348.039062 L 241.390625 350.707031 L 238.722656 353.339844 L 236.089844 350.671875 M 244.027344 353.375 L 246.660156 356.042969 L 243.992188 358.679688 L 241.355469 356.007812 M 249.292969 358.710938 L 251.925781 361.382812 L 249.257812 364.015625 L 246.625 361.347656 M 254.5625 364.050781 L 257.195312 366.71875 L 254.527344 369.351562 L 251.890625 366.683594 M 259.828125 369.386719 L 262.460938 372.058594 L 259.792969 374.691406 L 257.160156 372.023438 M 265.097656 374.726562 L 267.730469 377.394531 L 265.0625 380.027344 L 262.425781 377.359375 M 270.363281 380.0625 L 272.996094 382.734375 L 270.328125 385.367188 L 267.695312 382.699219 M 275.632812 385.402344 L 278.265625 388.070312 L 275.597656 390.703125 L 272.960938 388.035156 M 280.898438 390.738281 L 283.53125 393.40625 L 280.863281 396.042969 L 278.230469 393.375 M 286.167969 396.078125 L 288.800781 398.746094 L 286.132812 401.378906 L 283.496094 398.710938 M 291.433594 401.414062 L 294.066406 404.082031 L 291.398438 406.71875 L 288.765625 404.046875 M 296.703125 406.753906 L 299.335938 409.421875 L 296.667969 412.054688 L 294.03125 409.386719 M 301.96875 412.089844 L 304.601562 414.757812 L 301.933594 417.394531 L 299.300781 414.722656 " fill-opacity="1" fill-rule="nonzero"/><path stroke-linecap="round" transform="matrix(2.633809, 2.668859, -2.669119, 2.634066, 136.021986, 246.603262)" fill="none" stroke-linejoin="round" d="M 2.49983 -1.499863 L 0.500142 -0.000216668 L 2.499773 1.500251 " stroke="#000000" stroke-width="1" stroke-opacity="1" stroke-miterlimit="4"/><path stroke-linecap="round" transform="matrix(2.633809, 2.668859, -2.669119, 2.634066, 305.13485, 417.966627)" fill="none" stroke-linejoin="round" d="M -2.499802 -1.50006 L -0.500171 0.000407353 L -2.499859 1.500054 " stroke="#000000" stroke-width="1" stroke-opacity="1" stroke-miterlimit="4"/><path fill="#000000" d="M 484.367188 415.332031 L 486.828125 412.511719 L 489.65625 414.972656 L 487.195312 417.796875 M 489.289062 409.6875 L 491.75 406.863281 L 494.578125 409.328125 L 492.117188 412.152344 M 494.210938 404.042969 L 496.671875 401.21875 L 499.496094 403.683594 L 497.039062 406.507812 M 499.132812 398.394531 L 501.589844 395.574219 L 504.417969 398.039062 L 501.957031 400.859375 M 504.050781 392.75 L 506.511719 389.929688 L 509.339844 392.390625 L 506.878906 395.214844 M 508.972656 387.105469 L 511.433594 384.28125 L 514.257812 386.746094 L 511.800781 389.570312 M 513.894531 381.460938 L 516.351562 378.636719 L 519.179688 381.101562 L 516.71875 383.921875 M 518.8125 375.8125 L 521.273438 372.992188 L 524.101562 375.457031 L 521.640625 378.277344 M 523.734375 370.167969 L 526.195312 367.347656 L 529.023438 369.808594 L 526.5625 372.632812 M 528.65625 364.523438 L 531.117188 361.699219 L 533.941406 364.164062 L 531.480469 366.988281 M 533.574219 358.878906 L 536.035156 356.054688 L 538.863281 358.519531 L 536.402344 361.339844 M 538.496094 353.230469 L 540.957031 350.410156 L 543.785156 352.875 L 541.324219 355.695312 M 543.417969 347.585938 L 545.878906 344.761719 L 548.703125 347.226562 L 546.246094 350.050781 M 548.339844 341.941406 L 550.796875 339.117188 L 553.625 341.582031 L 551.164062 344.40625 M 553.257812 336.296875 L 555.71875 333.472656 L 558.546875 335.9375 L 556.085938 338.757812 M 558.179688 330.648438 L 560.640625 327.828125 L 563.464844 330.289062 L 561.007812 333.113281 M 563.101562 325.003906 L 565.5625 322.179688 L 568.386719 324.644531 L 565.925781 327.46875 M 568.019531 319.359375 L 570.480469 316.535156 L 573.308594 319 L 570.847656 321.824219 M 572.941406 313.714844 L 575.402344 310.890625 L 578.230469 313.355469 L 575.769531 316.175781 M 577.863281 308.066406 L 580.324219 305.246094 L 583.148438 307.707031 L 580.6875 310.53125 M 582.78125 302.421875 L 585.242188 299.597656 L 588.070312 302.0625 L 585.609375 304.886719 M 587.703125 296.777344 L 590.164062 293.953125 L 592.992188 296.417969 L 590.53125 299.242188 M 592.625 291.128906 L 595.085938 288.308594 L 597.910156 290.773438 L 595.453125 293.59375 M 597.546875 285.484375 L 600.003906 282.664062 L 602.832031 285.125 L 600.371094 287.949219 M 602.464844 279.839844 L 604.925781 277.015625 L 607.753906 279.480469 L 605.292969 282.304688 M 607.386719 274.195312 L 609.847656 271.371094 L 612.675781 273.835938 L 610.214844 276.65625 M 612.308594 268.546875 L 614.769531 265.726562 L 617.59375 268.191406 L 615.132812 271.011719 M 617.226562 262.902344 L 619.6875 260.082031 L 622.515625 262.542969 L 620.054688 265.367188 M 622.148438 257.257812 L 624.609375 254.433594 L 627.4375 256.898438 L 624.976562 259.722656 M 627.070312 251.613281 L 629.261719 249.097656 L 632.085938 251.5625 L 629.894531 254.074219 " fill-opacity="1" fill-rule="nonzero"/><path stroke-linecap="round" transform="matrix(2.460356, -2.822779, 2.826909, 2.463957, 484.55206, 417.976419)" fill="none" stroke-linejoin="round" d="M 2.499888 -1.500486 L 0.499549 0.000042654 L 2.499307 1.499928 " stroke="#000000" stroke-width="1" stroke-opacity="1" stroke-miterlimit="4"/><path stroke-linecap="round" transform="matrix(2.460356, -2.822779, 2.826909, 2.463957, 631.90351, 248.919413)" fill="none" stroke-linejoin="round" d="M -2.50026 -1.499963 L -0.500503 -0.0000774302 L -2.500055 1.499767 " stroke="#000000" stroke-width="1" stroke-opacity="1" stroke-miterlimit="4"/></svg>