<svg width="24" height="24" viewBox="0 0 24 24" fill="none" xmlns="http://www.w3.org/2000/svg">
<rect width="24" height="24" fill="white"/>
<path d="M13.6328 6.69531V6.40625H17.3828V6.69531H16.9844C16.5677 6.69531 16.2474 6.86979 16.0234 7.21875C15.9141 7.38021 15.8594 7.75521 15.8594 8.34375V12.6406C15.8594 13.7031 15.7526 14.5286 15.5391 15.1172C15.3307 15.7005 14.9167 16.2031 14.2969 16.625C13.6823 17.0417 12.8438 17.25 11.7812 17.25C10.625 17.25 9.7474 17.0495 9.14844 16.6484C8.54948 16.2474 8.125 15.7083 7.875 15.0312C7.70833 14.5677 7.625 13.6979 7.625 12.4219V8.28125C7.625 7.63021 7.53385 7.20312 7.35156 7C7.17448 6.79688 6.88542 6.69531 6.48438 6.69531H6.08594V6.40625H10.6641V6.69531H10.2578C9.82031 6.69531 9.50781 6.83333 9.32031 7.10938C9.1901 7.29688 9.125 7.6875 9.125 8.28125V12.8984C9.125 13.3099 9.16146 13.7812 9.23438 14.3125C9.3125 14.8438 9.45052 15.2578 9.64844 15.5547C9.84635 15.8516 10.1302 16.0964 10.5 16.2891C10.875 16.4818 11.3333 16.5781 11.875 16.5781C12.5677 16.5781 13.1875 16.4271 13.7344 16.125C14.2812 15.8229 14.6536 15.4375 14.8516 14.9688C15.0547 14.4948 15.1562 13.6953 15.1562 12.5703V8.28125C15.1562 7.61979 15.0833 7.20573 14.9375 7.03906C14.7344 6.8099 14.4323 6.69531 14.0312 6.69531H13.6328Z" fill="black"/>
<rect x="6" y="19" width="11" height="1" fill="black"/>
</svg>
