<svg id="Layer_1" data-name="Layer 1" xmlns="http://www.w3.org/2000/svg" xmlns:xlink="http://www.w3.org/1999/xlink" viewBox="0 0 1084 180"><defs><style>.cls-1{fill:none;}.cls-2{fill:#322965;}.cls-3{fill:#ff6e42;}.cls-4{fill:#312965;}.cls-5{clip-path:url(#clip-path);}.cls-6{fill:#5b5480;}.cls-7{fill:#f26e46;}.cls-8{fill:#f4896a;}.cls-9{fill:#ec5735;}</style><clipPath id="clip-path"><path class="cls-1" d="M210.1,89.5A89.82,89.82,0,1,1,119.6.37,89.82,89.82,0,0,1,210.1,89.5"/></clipPath></defs><title>yb</title><path class="cls-2" d="M323.36,147.68a2.45,2.45,0,0,1-.84-1.83,5.23,5.23,0,0,1,.52-2.09l10.3-24.13-25-59.1a4.86,4.86,0,0,1-.52-1.83,3.45,3.45,0,0,1,.91-2,2.56,2.56,0,0,1,1.95-.85h10.83a3.52,3.52,0,0,1,3.39,2.48l17.36,42.53,17.61-42.53a4,4,0,0,1,3.65-2.48h10.57a2.65,2.65,0,0,1,1.95.79,2.47,2.47,0,0,1,.79,1.82,5.23,5.23,0,0,1-.53,2.09L339.35,146a3.71,3.71,0,0,1-3.66,2.48H325.26A2.75,2.75,0,0,1,323.36,147.68Z"/><path class="cls-2" d="M394.27,117.15q-6.91-7.83-6.92-21.53V59a3,3,0,0,1,.92-2.29,3.13,3.13,0,0,1,2.21-.85h11.75A3.14,3.14,0,0,1,405.36,59V94.84q0,16.05,14,16,6.78,0,10.76-4.31t4-11.74V59a3,3,0,0,1,.91-2.29,3.17,3.17,0,0,1,2.22-.85H448.8A2.93,2.93,0,0,1,451.93,59v61.57a3.13,3.13,0,0,1-.85,2.22,3,3,0,0,1-2.28.91H438a3.11,3.11,0,0,1-3.13-3.13v-5.35Q427.67,125,413.18,125,401.18,125,394.27,117.15Z"/><path class="cls-2" d="M481,148.52q-7.17-3.84-10.17-8.8c-2-3.31-3-6.13-3-8.48a2.8,2.8,0,0,1,.92-2.15,3.13,3.13,0,0,1,2.22-.85h11.61a3.48,3.48,0,0,1,2,.58A4.18,4.18,0,0,1,486,131a15.22,15.22,0,0,0,4.3,5.8c1.92,1.61,4.87,2.42,8.87,2.42q7.83,0,11.48-3.46t3.66-12.07V114.8q-7,8.36-20,8.35-13.57,0-20.42-8.22t-7.37-22.44L466.41,89l.13-3.52q.52-14,7.44-22.44t20.35-8.48a26.78,26.78,0,0,1,12.13,2.61,24.44,24.44,0,0,1,8.61,7V59.1a3.08,3.08,0,0,1,1-2.35,3.23,3.23,0,0,1,2.28-.92H529a3,3,0,0,1,2.22.92,3.21,3.21,0,0,1,.91,2.35l.13,62.88q0,14.47-8.09,22.43t-24.39,8Q488.2,152.37,481,148.52Zm29.22-43.89a20.1,20.1,0,0,0,4-11.49c.08-.69.13-2.08.13-4.17s0-3.48-.13-4.17a20,20,0,0,0-4-11.48q-3.64-4.71-11-4.7-14.08,0-14.87,17.22L484.28,89q0,20.36,15,20.35Q506.59,109.32,510.24,104.63Z"/><path class="cls-2" d="M557,122.3a22,22,0,0,1-8.74-7.24,17.7,17.7,0,0,1,4-24.39q7.17-5.49,19.7-7.44l17.87-2.61V77.88c0-3.74-1-6.56-2.87-8.48s-5-2.87-9.13-2.87a13.24,13.24,0,0,0-6.91,1.57,21.55,21.55,0,0,0-4.24,3.19l-2.16,2.16a2,2,0,0,1-2,1.56H552.38a2.88,2.88,0,0,1-2-.78,2.69,2.69,0,0,1-.85-2.09c.09-2.17,1.15-4.63,3.2-7.37a24.88,24.88,0,0,1,9.45-7.17q6.39-3.08,15.79-3.07,15.39,0,22.44,6.91t7,18.14v41a3.16,3.16,0,0,1-.84,2.22,3,3,0,0,1-2.29.91H593.47a3,3,0,0,1-2.21-.91,3,3,0,0,1-.92-2.22v-5.09a21.33,21.33,0,0,1-8.08,6.85,28.49,28.49,0,0,1-13,2.68A27.76,27.76,0,0,1,557,122.3Zm28.38-14.54q4.56-4.7,4.56-13.57V91.58l-13,2.09q-15,2.34-15,10a7.31,7.31,0,0,0,3.46,6.46,14.71,14.71,0,0,0,8.29,2.28A15.67,15.67,0,0,0,585.39,107.76Z"/><path class="cls-2" d="M641.09,115.71v4.83a3.06,3.06,0,0,1-.91,2.22,3.19,3.19,0,0,1-2.35.91H627.39a3,3,0,0,1-2.22-.91,3.06,3.06,0,0,1-.91-2.22V34.18a3,3,0,0,1,.91-2.28,3.13,3.13,0,0,1,2.22-.85h11.35a2.93,2.93,0,0,1,3.13,3.13v29q7.3-8.61,20-8.61,13.18,0,20.29,8.54t7.5,22.38c.09,1,.13,2.48.13,4.3s0,3.18-.13,4.31q-.52,14.09-7.57,22.5T661.83,125Q648.27,125,641.09,115.71Zm30.66-22c.08-.87.13-2.18.13-3.92s0-3-.13-3.91q-.91-17.22-14.87-17.22-7.18,0-11,4.56a18,18,0,0,0-4,11.09c-.08,1-.13,2.74-.13,5.09s0,3.92.13,5a20.22,20.22,0,0,0,3.92,11.74q3.65,4.83,11.09,4.83Q670.83,110.89,671.75,93.67Z"/><path class="cls-2" d="M712,147.68a2.45,2.45,0,0,1-.84-1.83,5.23,5.23,0,0,1,.52-2.09L722,119.63l-25-59.1a4.92,4.92,0,0,1-.53-1.83,3.52,3.52,0,0,1,.92-2,2.56,2.56,0,0,1,1.95-.85H710.1a3.52,3.52,0,0,1,3.39,2.48l17.36,42.53,17.61-42.53a4,4,0,0,1,3.65-2.48h10.57a2.65,2.65,0,0,1,2,.79,2.47,2.47,0,0,1,.79,1.82,5.23,5.23,0,0,1-.53,2.09L728,146a3.69,3.69,0,0,1-3.65,2.48H713.89A2.75,2.75,0,0,1,712,147.68Z"/><path class="cls-2" d="M789.55,117.48q-6-6.2-6-18.2V69.79H773.24a3,3,0,0,1-2.21-.91,3,3,0,0,1-.92-2.22V59a3,3,0,0,1,.92-2.22,3,3,0,0,1,2.21-.92h10.31V34.18a2.94,2.94,0,0,1,.91-2.28,3.13,3.13,0,0,1,2.22-.85h10.83a3.08,3.08,0,0,1,2.28.85,3,3,0,0,1,.85,2.28V55.83H817A3.14,3.14,0,0,1,820.08,59v7.69A3.12,3.12,0,0,1,817,69.79H800.64V97.84q0,5.61,2,8.48c1.3,1.92,3.43,2.87,6.39,2.87h9.13a3,3,0,0,1,2.28.85,3.08,3.08,0,0,1,.85,2.28v8.22a3.13,3.13,0,0,1-.85,2.22,2.94,2.94,0,0,1-2.28.91h-10.7Q795.56,123.67,789.55,117.48Z"/><path class="cls-2" d="M839.06,116.63q-8.55-8.35-9.07-23.75l-.13-3.26q0-16.31,8.55-25.7t23.67-9.39q15.52,0,23.94,9.39t8.42,25v2.74a3,3,0,0,1-.92,2.22,3.16,3.16,0,0,1-2.34.91H847.86v1a20.25,20.25,0,0,0,4,12.07,12.26,12.26,0,0,0,10.24,4.76,14.73,14.73,0,0,0,12.14-6A7.27,7.27,0,0,1,876,105a5.57,5.57,0,0,1,2.22-.32h11.48a3.18,3.18,0,0,1,2,.65,2.15,2.15,0,0,1,.85,1.82q0,3.14-3.72,7.37a30.79,30.79,0,0,1-10.63,7.38,38.69,38.69,0,0,1-16,3.13Q847.6,125,839.06,116.63Zm37.37-32.88v-.26q0-7.69-3.84-12.33a13,13,0,0,0-10.51-4.63,12.75,12.75,0,0,0-10.43,4.63q-3.79,4.64-3.79,12.33v.26Z"/><path class="cls-3" d="M912.4,122.69a3.09,3.09,0,0,1-1-2.28V35.74a3.39,3.39,0,0,1,.91-2.41,3.08,3.08,0,0,1,2.35-1H949q19.31,0,30,9.2T990.21,68q.13,3.78.14,10c0,4.18-.05,7.48-.14,9.92q-1.31,35.75-40.57,35.74h-35A3.09,3.09,0,0,1,912.4,122.69ZM949,104.1q8.22,0,12.13-3.91t4.18-12.52q.26-3.8.26-9.79t-.26-9.65q-.27-8.36-4.5-12.33t-12.46-4h-12.4V104.1Z"/><path class="cls-3" d="M1006.19,122.69a3.12,3.12,0,0,1-1-2.28V35.74a3.39,3.39,0,0,1,.91-2.41,3.08,3.08,0,0,1,2.35-1h40.31q16.56,0,24.66,6.79t8.08,19.3a17.86,17.86,0,0,1-3.32,10.83,21.45,21.45,0,0,1-7.37,6.65,21.11,21.11,0,0,1,9,7.77,21.33,21.33,0,0,1,3.65,12.19q0,13.19-8.67,20.49t-24.86,7.3h-41.48A3.13,3.13,0,0,1,1006.19,122.69Zm39.86-54.2c3.22,0,5.69-.87,7.44-2.61a9.21,9.21,0,0,0,2.61-6.78,8.89,8.89,0,0,0-2.55-6.59c-1.69-1.7-4.2-2.55-7.5-2.55h-16.31V68.49Zm1.17,37.57q5.1,0,7.9-2.94a10.83,10.83,0,0,0-.07-14.61,10.46,10.46,0,0,0-7.83-2.93h-17.48v20.48Z"/><path class="cls-4" d="M210.1,89.5A89.82,89.82,0,1,1,119.6.37,89.82,89.82,0,0,1,210.1,89.5"/><g class="cls-5"><path class="cls-6" d="M131.73,0l.28.05-.28,0M130.2-.2h0m-.43-.06.4.06h0l-.17,0-.21,0m-.23,0h0l-.51-.07h0l.51.07m53.36,25.4-.29-.3c-1.41-1.33-2.78-2.52-4-3.58l-.57-.47a61,61,0,0,1,4.6,4l.47.44a1.41,1.41,0,0,0-.18-.14m22.71,34.36c0,.06,0,.11,0,.16v0l0-.12m-.76-1.92c.27.65.51,1.29.75,1.89l-.06-.15c0-.11-.09-.27-.13-.38l0-.1-.05-.13,0,0c-.15-.35-.29-.71-.45-1.08M200,47.23h0a56.88,56.88,0,0,0-3-5.07q1.38,2.16,2.61,4.37c.13.24.27.47.39.7M192.3,35.46h0l-.08-.12.08.11m-9.38-10.33.56.54-.4-.42a1.41,1.41,0,0,0-.18-.14l0,0m10.89,116.41-.34.47a57.79,57.79,0,0,0,3.46-5c-.56.86-1.6,2.47-3.12,4.54m6.89-11h0a53.69,53.69,0,0,0,2.94-6.07c0,.07-.07.14-.1.2-.9,2-1.85,4-2.84,5.87m5.93-13.94a.25.25,0,0,0,0,.07,54.69,54.69,0,0,0,1.67-5.78s0,0,0,0c-.49,2-1.05,3.9-1.66,5.77l0-.07m4.29-27.18v0m0-.39v0m0-.07v0m-1-12.81a42.15,42.15,0,0,1,.54,4.27c-.15-1.49-.33-2.91-.54-4.27M109.59,26.51c0-.14,0-.28,0-.41s0-.49,0-.74l-.8-.1-.85.41.18,1h1l.43-.21m-2.88-1.41.05-.06,0-.4c-.15.08-.24.2-.39.27s-.08.05-.32.09a2.36,2.36,0,0,0-.77.35c-.12.07-.24.14-.37.2.12.1.2.25.37.31a.92.92,0,0,0,.44,0,2.66,2.66,0,0,0,.7-.36c.08-.05.08-.05.32-.36M112.83,10l.78-.21-.67-.56-1.16-.06H111l0,.62.07.5,1.28.07.51-.36M128.47-.43h0l.15,0-1.13-.13-.27,0,.2,0h0l1.37.16h0l1,.13.49.07.55.08h0l.48.08.31.05.18,0L130-.24l.14,0-.6-.08L129-.37h.09l-.58-.07m2.47.34-.59-.08-.88-.12h-.12c.36,0,.74.08,1.1.15h0l.36,0h0l-.21,0,.85.13L131,0h0c.35.05.71.11,1.07.15-.26,0-.52-.07-.79-.13h0c.27,0,.54.06.8.12l.61.1.53.09.35.06c-.28-.06-.76-.14-1.47-.25l-.28,0-.14,0h0l-.82-.13m3.65.87a6.49,6.49,0,0,0-.78-.12l.23,0h0L132.71.5c.38.09.77.12,1.15.23l-.23,0-.69-.13-.16,0-.32-.05.39.07h0l-.16,0h0l1.71.32c-.43,0-.84-.15-1.26-.21-.27-.05-.28-.05-.36,0,.36.09,1.11.23,1.45.28h0l.25,0-.19-.06c.18,0,.34.05.7.12l-.05,0,.69.14c.19,0,.38.07.57.09l0,0-.08,0c.23,0,.42.18.65.1-.23-.11-.5-.08-.75-.19a1.76,1.76,0,0,0,.31,0c-.13,0-.13,0-1.78-.39m1.63.55-.16,0,.16,0h0m5.95,1.25-.3-.08a5,5,0,0,0-.61-.14l.06,0-1.07-.26,0,0c-.67-.17-1.34-.31-2-.47,0,0-1-.19-1.15-.21l.27.08c-.14,0-.26,0-.34-.05l-.79-.18c-.7.12-1.29-.27-1.94-.33h0c.31.08.61.14.91.2l.31.06c1.29.28,1.29.28,1.51.35a4.62,4.62,0,0,1-.87-.18l-.3-.07-.31-.06-.31-.07-.63-.12c.32.09.64.16,1,.24v0L135,1.27c-.28-.07-.53-.14-.81-.19l.59.15,0,0c1.32.47,2.71.59,4.06,1-.48-.1-1-.24-1.44-.32.23.07,1.88.48,2.09.5a5,5,0,0,0-.94-.27,5.2,5.2,0,0,1,1.12.25h.06c-.11-.05-.94-.29-1.24-.37L138,1.9l0,0c.39.08.39.08,1.15.28l.05,0L138.68,2l.23,0c.26.06.51.14.77.19l.26.07h-.21a.77.77,0,0,0,.25.09c0,.09,0,.09.53.22l.65.18-.11,0h0l.18,0c-.07,0-.07,0-.59-.22l0,0c.13,0,1.2.36,1.22.37h0a.29.29,0,0,0-.17,0,22.66,22.66,0,0,0,3.25.9l-.06,0-2.69-.89c-.51-.17-1-.31-1.5-.44a8.52,8.52,0,0,0-1.9-.52l.07,0c2.07.51,2.07.51,3.82,1l0,0c-.25-.1-.51-.17-.77-.25a7.75,7.75,0,0,1,1.12.3v0l-.71-.22,0,0-.14-.06M183.1,26l.08-.09-.07,0v0l-.19-.15-.2-.2h0l0,0s0,.11.42.43M161.68,10.21c-.4-.22-.81-.43-1.22-.63l0,0,.06,0,0,0,.14.07,1,.55v0m7.49,4.08L164,11.18h0c-.16-.1-.34-.19-.5-.28l.05,0,.64.36.07,0-.79-.44-.19-.1-.83-.44,0,0,.36.2a3,3,0,0,0-.49-.21l-.33-.18-.6-.33c-.36-.18-.73-.33-1.1-.5l0,0,.81.42c-.1,0-.29-.13-.48-.22l-.45-.24-.32-.16v.08c.69.33.69.34,1.13.57l.27.13.23.12h0c-.62-.33-.84-.45-1.19-.6h0l-.69-.34-.07,0,.06,0c.46.25,1.36.79,1.37.79l0,0a4,4,0,0,1-.72-.35c-.1,0-.11,0-.11,0a4.43,4.43,0,0,0,1.42.76c.25.12.45.23.65.34v0a2,2,0,0,0-.38-.1l-.06,0c1.05.56,1.13.61,1.33.74l-1.82-.85a3.74,3.74,0,0,0,.49.32,15.27,15.27,0,0,1,1.74,1c-.16,0-.16,0-.88-.43.25.19.87.61.88.61.23.13.49.22.71.35l.27.15.21.15a14.49,14.49,0,0,1-1.57-.78c.31.22.58.38.83.53l.1.08-.13,0c.2.28.54.37.81.55l-.08.08a3.15,3.15,0,0,0,.41.31l0,.05a4,4,0,0,0,.47.33l0,0,.24.18h.11c-.41-.44-.41-.44-.41-.48l-.22-.16,0-.07-.09-.11,0-.11a1.48,1.48,0,0,1,.55.29c.14.36,4.8,3.91,4.85,3.94l-.21-.15a7.77,7.77,0,0,0,1,1.13l.18-.06c.14.12.14.12,1.78,1.92a.82.82,0,0,1-.28-.06.5.5,0,0,0-.18,0l.39.34.5.37v.12l-.05.07h0a15.62,15.62,0,0,0,1,1.39l-.1.06c.36.91,1.3,1.31,1.93,2l0,.05.17.21.43.41.19,0c1.13-.12.71,1.57,1.83,1.52.45.46.45.46.51.6a5.26,5.26,0,0,0,1.17-.2c-.14-.2-.29-.4-.45-.59l.11-.05,0-.11c-.14-.15-.29-.29-.43-.43.09,0,.33.06,1.29,1a8,8,0,0,0,1.31-.49,7.66,7.66,0,0,0-1.2-1.43l-.23-.22c-.55-.49-1.26-.77-1.79-1.28s-1.23-1.09-1.85-1.61A49.58,49.58,0,0,0,171,16.08l.07,0h0l.76.49a4.15,4.15,0,0,0-.32-.27,5.7,5.7,0,0,1,.83.51l.82.59,0,0a15.23,15.23,0,0,1,1.76,1.36l-.12,0c.6.57.6.57,4.23,3.66l.24.2c.43.36,1.07.83,2.14,1.59h0l-.42-.46.12,0a1.46,1.46,0,0,0-.35-.4l-.09-.09,0-.14-.19-.19,0-.06.47.41,0,0,.22.2c.52.47,1,1,1.52,1.49a1.72,1.72,0,0,1-.42-.31,2.91,2.91,0,0,0,.25.42l-.11,0a6.31,6.31,0,0,0,.78.81c.2-.15.17-.37,0-.58l-.47-.44c-7-6.12-7.15-6.24-11.2-9l-1.43-1h0c-.54-.36-.54-.36-1.69-1.08.26.15.87.55.88.55h0M180.78,27h0c-.34.09-.71.18-1.13.27l0,0,.15.19c.07.08.16.13.24.21l.15.16.08,0h.07l.05,0h0l.14.1a3,3,0,0,0,.4.31l0-.15.08,0,.06,0c.06,0,.1.1.18.08s0-.22,0-.22l-.07-.1c-.06-.08-.08-.1-.06-.12s.09,0,.05-.11a4.54,4.54,0,0,0-.44-.63m1.79-.63a9.88,9.88,0,0,1-1.32.48c.27.26.59.45.85.71l.1.1c.6.67.6.67.81.81a6,6,0,0,1,.63.48l.21.22.19.21a8.05,8.05,0,0,0,1,.87,5.24,5.24,0,0,1,.72.84l.09.11.42.44.34-.12c-.73-.87-.73-.87-.8-1h0l.06,0c.09,0,.14.11.23.13-.06-.15-.28-.22-.23-.43h0q-.28-.35-.6-.66l.15-.07-.51-.54-.07,0,0,.06v0c-.15,0-.19-.19-.33-.24a12.53,12.53,0,0,0-1.3-1.48,4.2,4.2,0,0,1-.73-.89m9.65,9c-2.63-3.12-6.28-7.17-9.14-10.1a.45.45,0,0,1,.1.64l-.08.09.08,0h0c.39.31.56.82,1,1.06-.09-.21-.09-.21-.45-.6.31.14.31.14,2.18,2.12l0,.09a4.47,4.47,0,0,1-.65-.59c-.12-.09-.13-.09-.13-.08l-.31-.32c-.12-.1-.13-.09-.14-.08,1.15,1.3,2.19,2.7,3.45,3.9l.18.24a.71.71,0,0,0-.38-.09,14.28,14.28,0,0,0,1,1.18l0,.08c-.35-.29-.68-.61-1-.9a10.58,10.58,0,0,0,.64,1.31l-.13.16.09.17-.2.07a4.74,4.74,0,0,1-.7-.76c-.12-.1-.16-.09-.19-.08l.09.2a.53.53,0,0,1-.2.13c.06.24.06.24.49.78l-.12,0c-.26-.09-.26-.09-.72-.62l0,.07-.12,0-.33-.4a2.69,2.69,0,0,1-.27-.32c0-.16.06-.19.14-.2s.06,0,.56.31c0-.4-1.1-1.62-1.58-2.12-.14-.11-.17-.1-.21-.09-.06.22-.06.22.27.71l0,.07h0c-.22-.18-.22-.18-.7-.83l-.39-.46-.21,0a11.55,11.55,0,0,0-1.58-1.71c0,.49.7.71.57,1.27a2.91,2.91,0,0,0,.3.31l.23.24c.7.83,1.31,1.72,2.08,2.49l.22.26c.13.18.26.35.38.53s.55.54.82.83.28.37.41.52l-.11,0-.12.17-.13,0a1.08,1.08,0,0,0-.4,0,1.17,1.17,0,0,0,.08.38l-.1.19a5.44,5.44,0,0,1,.43.82H187l-.09,0-.07,0a.62.62,0,0,0,.17.51l.34.2.56.78c-.21.23-.21.23,0,1.14,0,.16,0,.16-.07.17l-.19,0a9.69,9.69,0,0,0,.85,1.48,1.13,1.13,0,0,0-.38.19,2.56,2.56,0,0,0,.39.85l-.39.06-.16-.1a.94.94,0,0,1-.41,0l-.16-.24a.65.65,0,0,0-.37-.18,4.16,4.16,0,0,0,.42.78A1.58,1.58,0,0,1,188,43l.21.24c.06.11.13.21.18.32a1.4,1.4,0,0,1-1.26-.28,1.41,1.41,0,0,1-.35.21c-.13.3-.2.46.22.9h.13c.46.5.72.44.85.41l.15,0c.46.36.89.75,1.35,1.12.25.44.49.89.73,1.34,1.81,2.1,1.81,2.1,2.41,4.45,0,.12-.08.29-.11.42-.2.13-.24.14-.27.14-.48-.25-1.05-.28-1.46-.66-.53,0-.92.08-1.33.13-.64-.05-.64-.05-.84-.22h-.11l-.08.18a1.44,1.44,0,0,1,.15.41,1.74,1.74,0,0,1-.7.19l0,.28c.73.85.77,2.05,1.57,2.87.26.62.47,1.15.68,1.69a8.52,8.52,0,0,0,.62,2.48,4.15,4.15,0,0,1,.24.34c0,.09.06.18.1.28l.09.28c0,.38,0,.53.31,1.33a.94.94,0,0,0,.49,0,.92.92,0,0,1,.39-.14,2.07,2.07,0,0,0,.45.39.86.86,0,0,0,.34-.25c.28.15.53.32.81.47a6,6,0,0,0,.69,1c0-.1,0-.23,0-.33l-.15,0,.1-.17c.9-.09.23-1.38,1.11-1.49.48-.61.39-1.52,1.18-2l-.36-.93a4.83,4.83,0,0,1-.92-2.4c0-.13-.06-.3-.09-.43a1,1,0,0,1,.29-.28c-.1-.54-.1-.54.28-1.15a1.2,1.2,0,0,0,.39-.13,6.45,6.45,0,0,0-.34-.82l-.12-.27c-.75-1.44-1.13-2.16-.2-1.87h.07a6.45,6.45,0,0,0,.54.37l.31,0,.1-.18a3.79,3.79,0,0,1-.34-1c.1-.11.12-.12.15-.13l.16-.14a3.56,3.56,0,0,0-.14-.8c1.32.3,1.28,1.7,2.09,2.41a1.64,1.64,0,0,1,.48.62,15.48,15.48,0,0,1,3.76,5.2c-.06.09-.06.09-.07.85a1.38,1.38,0,0,0-.65.16c.05.1.11.23.15.33.37.33.43.88.9,1.15a.78.78,0,0,0,.45,0l-.39-1.06a10.35,10.35,0,0,0-.7-3c0-.1-.08-.2-.13-.3l-.12.09a.81.81,0,0,1-.2-.32l-.17-.41.18-.09a1.55,1.55,0,0,1,.4.51c-.25-1.17-1.26-1.9-1.82-2.89-.48-.14-1.89-2.19-2-2.33l-.09,0a7.69,7.69,0,0,1-.46-.85h-.2a2,2,0,0,1-.46-.63l-.08-.28-.05-.21-.07-.13a5.78,5.78,0,0,1-.52-.86l.18-.08a32.12,32.12,0,0,1,3.05,3.52,26.81,26.81,0,0,1,1.73,2.61c1.26,2.58,1.26,2.58,1.47,2.72.22.42.37.79.52,1.15l-.07.06-.08-.21c0,.17,0,.39.61,1.34,0-.12-.06-.27-.09-.38l0-.19c.29.62.54,1.25.82,1.87.08.09.1.08.12.06a2.16,2.16,0,0,0-.21-.81l-.16-.39a5.22,5.22,0,0,1-.22-.61l.12.15h0a8.24,8.24,0,0,0-.42-1.14,2.39,2.39,0,0,0-.32-.78,6.24,6.24,0,0,0,.24.66c-.3-.41-1.2-2.25-1.2-2.27s-.08-.17-.12-.26l-.08-.21.06,0a4,4,0,0,0,.2.35l.05-.05,0,0a4.35,4.35,0,0,1-.45-1.18c.24.3.34.68.56,1,.07.13.15.32.22.46.26.74.64,1.43.93,2.16l.16.38a3.71,3.71,0,0,0,.17.4c.09.24.19.47.28.71l.05.13,0,.06,0,.13.06.13,0,.09c.08.2.15.39.22.6l.06.14.06.18c.1.27.19.53.3.8l0,.13,0,.09-.17-.48c0-.1-.09-.25-.13-.36s-.14-.37-.22-.56-.1-.29-.15-.41v0c-1.46-3.46-3.54-8-5.25-11.4-4.54-7.52-5.24-8.67-7.83-11.88M175,28.54l0-.05-.08.16c0,.11.08.21.06.32l-.06.07v0c0,.08.11.13.13.2s.06.27.12.39a3.25,3.25,0,0,0,.23.29l.2.1,0-.13-.06-.12c-.16-.3-.15-.32-.14-.34h.1c.08-.05.07-.06.07-.09s-.13-.13-.19-.19l0-.12a3,3,0,0,0-.34-.5m11.51,9c-.11-.15-.23-.31-.39-.5-.39-.26-.65-.65-1-.91l-.05.07c.09.12.35.46.26.67-.08,0-.08,0-1.12-1.31l-.29.06c-.44-.66-.91-1.34-1.2-1.24a2.5,2.5,0,0,1-.23-.23,6,6,0,0,1-.8-.61c-.34-.23-.54-.6-.88-.84s-.75-.17-1.05-.42l-.27-.66.11-.07a3.11,3.11,0,0,0-.2-.25c-.2-.23-.21-.54-.4-.78s-.49-.59-.75-.89l-1,.15c-.8-1.38-.89-1.53-1.06-1.57l-.08,0-.18.06c-.09.07-.18.07-.47.05.08.1.08.1.66.92.19.27.53.43.63.78-.29.16-.46-.19-.71-.15a1.35,1.35,0,0,0,1.1,1l.12.24.18.22a3.78,3.78,0,0,1,.51.68c-.23.21-.23.21.21.72a.85.85,0,0,0,.24-.08v-.08L179,33l.23,0a2.11,2.11,0,0,1-.3-.46,4.84,4.84,0,0,1,1,1.14l-.06,0,0,.14a3.41,3.41,0,0,0,.43.46l.55-.09-.07-.21c.73.25.86,1.11,1.53,1.41.25.42.84.63.78,1.23-.25,0-.46-.21-.73-.14h-.09l-.08,0,.09.25c0,.08.09.18.12.26l-.22,0c.26.35.27.38.41.39.34-.34.48-.06.68.37l-.11,0a2.36,2.36,0,0,0,.11.44l-.13.06h-.07c.1.17.42.73.66.7,0-.09.06-.19.11-.28l1,.16s.62.58-.13.64c-.1.14,0,.28,0,.42h-.07l-.18.15c.5.76.5.76.33,1.19l.19.14a1,1,0,0,0,.27-.23s0,0-.06-.39c.07,0,.07,0,.36.15l.34,0c-.33-.54-.33-.56-.36-.68a.37.37,0,0,0,.33-.05.66.66,0,0,0,.45,0,.66.66,0,0,0-.09-.39l0-.07c.27.06.42.29.66.36l.08,0c.1-.07.25-.05.35-.11s-.15-.28-.1-.45l.14,0,0-.14a7,7,0,0,0-.71-.82l-.08-.12c-.12-.18-.12-.18-.12-.28l.14-.06-.3-.49.19,0M178.59,35h0m1.79,0-1-1.1c-.22-.2-.29-.16-.33-.13a2.13,2.13,0,0,1-.25-.16h-.09c-.08,0-.07.14-.15.18s.08.26.07.4c-.22-.13-.43-.29-.64-.42l-.25.09c.28.38.53.79.82,1.16l-.07,0,0,.11-.15.05-.11.19a2.5,2.5,0,0,1-.24-.16l-.11.07L179,36.94a.93.93,0,0,0,.43,0l.5.74-.29.1a3.08,3.08,0,0,0,.16.47,5.43,5.43,0,0,1,.32.51l-.05.11c.19.61.78.89.87.74s.17-.27.47-.06c.1,0,.1,0-.07-.88l1.07-.14a2.54,2.54,0,0,1-.23-.34,2,2,0,0,0-.21-.24c-.24-.23-.23-.28-.22-.31l0,0a8.34,8.34,0,0,0-1.09-1.69l-.34-.47h.11a.43.43,0,0,0-.06-.42m29.2,39.26-1.49-6.86A17.39,17.39,0,0,0,207,65.43c-.21,1.43.66,2.67.75,4,0,0,0,0-.24-.11a5.06,5.06,0,0,0-.52-1,4.92,4.92,0,0,1-.5.22l-4.67-8.74c-.3.66-1,1-1.42,1.58-.59-.82-.59-.82-1.17-.91a4.77,4.77,0,0,0-.47,1.36,3.25,3.25,0,0,0-1.12.36c.13,1.14.13,1.14,0,1.53l-.52,0-.33.37-.12,0-.51-.08-.12,0a1.12,1.12,0,0,1-1.35-.4l-.37-.15a11,11,0,0,0,.4,2.6,4,4,0,0,1-1,.14c.21.8.42,1.6.62,2.4a1.26,1.26,0,0,0-1.08.6c.21,1.28.32,2.57.53,3.85.08.35.15.69.21,1l-1,.12a8.46,8.46,0,0,1-.55,2.61c-2.44,1.54-.28,4.55-2.16,6.27l-.17.09-.49.14c0,.24,0,.24-.84,4.58l.06,1.08c.54.07,1.1,0,1.65.1.06.15.15.35.22.5-.32,1.08-.32,1.08-.31,5,0,.21,0,.42,0,1-.16.66-.16.66-.79,1.3,0,.7.22,1.38.29,2.08,0,.2,0,.41,0,.61,0,1.36.2,1.66,1.23,2.93l.51,0a9.24,9.24,0,0,1,.42,1.54l.53.06c-.3,2.52-.3,2.52,1.73,3.67,0,.51-.12,1-.17,1.54.75.64,1.1,1.68,2.18,2,.31-.44.49-.94.76-1.39.31,0,.71-.1,1-.16l.18,0a2.35,2.35,0,0,1,1,0l.2.5c1.4-.23,1.46-2.3,3.15-2.12,0,0,.08,0,.26-.23a2.75,2.75,0,0,1,.69-.79l.46.23c-.11,2.07-.11,2.07.18,2.46.55-.13,1.05-.25,1.51-.38-.13.6-.26,1.2-.5,2.14-3.71,14.36-3.71,14.36-4.4,15.72-.08.18-.16.36-.25.54-1.46,3.25-2.42,5.39-9.88,16.68-.61.79-1.24,1.57-1.87,2.33a63.8,63.8,0,0,1-6.79,7.59l-.39.35c-.72.64-.72.64-1.18,1.07v0c-.87.77-.87.77-1.17,1.05l.2-.14c2.74-2.51,6.26-6,8.83-8.7,3.2-3.61,3.2-3.61,8.6-11.34,2.59-4,2.59-4,6.72-12.56,1.92-4.43,1.92-4.43,4.62-13.58A99.11,99.11,0,0,0,210.91,89c0-5,0-5-1.33-14.76m-43,55.41c.2-2.9-.2-3.1-.67-3.34a13.26,13.26,0,0,1-1.45,0c-1.39-.38-1.69-2.79-3.53-2.13l-1.79.07c-1.15-.59-2-1-2.2.1-.32.21-.65.42-1.49-.11.09-.29.09-.29.83-.81-2-1.27-2-1.27-3-1.4a1.25,1.25,0,0,1-.6-.14,1.79,1.79,0,0,0-1.59-.19c-.06.44-.11.88-.16,1.32l-1.19,0a3.93,3.93,0,0,1,.2-.88,5.3,5.3,0,0,0,.53-.53l.39-.28-.1-.37s-.65-.18-1.61-.5h-.31l-.33,0-.33.22c-.08.74-.13,1.23-1.31,1.09a4.8,4.8,0,0,1,.16-.84c1.93-2.09,1.93-2.09,1.46-3h-.8c0-.52.09-1,.13-1.56a13.68,13.68,0,0,0-.7-1.77s-3.1-1.42-3.91-1.87-1.52.16-2.28.14h-.58c-2.84-.46-3-1.08-3.61-2.74-.22,0-.22,0-1.77-.82A.53.53,0,0,0,135,109c-1.1-.14-1-.78-1-1.39a2.7,2.7,0,0,0-.62.08c-1.27.37-1.27.37-1.6.34a6.06,6.06,0,0,1-.11-1.13,1.94,1.94,0,0,0,.7-.32c-.3-.41-.36-.49-1.4-.65l-.71.54a.92.92,0,0,1-.24,0,1.53,1.53,0,0,0-1.23-.18c-.64,1.35-.64,1.35-1.13,1.46-.66-.42-1.11-1.12-2-1.25a9.68,9.68,0,0,1-1.93-.13l-.79-.15a1.11,1.11,0,0,0-.31-.9c-.93,0-1.59-1.07-2.66-.66a1.12,1.12,0,0,1-.44,1.08,1.72,1.72,0,0,0-1.39.57c-.38.9.4,1.77,0,2.67-1.54-.82-.22-2.42-.93-3.48.13-.57,1.37-1.51,1.38-1.52l-.15-.31h-.69c-.94.21-1.09.27-1,1.3-.6,0-1.18,0-2,.1a4.31,4.31,0,0,1-3.07,1.07,9.19,9.19,0,0,1-.13,1.89,1.4,1.4,0,0,1-1.18.38,3.21,3.21,0,0,0-.55,1.42c-1.18.8-1.44,1.46-1.48,1.78a2.59,2.59,0,0,0,.71.29c0,1.21,1.41,2.69-.09,3.63-.22,1.81-.22,1.81-.59,2.2l-.85.06c.07.3.15.71.19,1-.27.14-.63.33-.88.49,0,.17,0,.41,0,.58-.85.18-1.31.28-1.28,1.68a2.16,2.16,0,0,0-1.2.23,14.36,14.36,0,0,0,.12,2.36l.37.17a1.67,1.67,0,0,1,1.2-.1,2.4,2.4,0,0,1-.11.83,7.5,7.5,0,0,0-1.21.41c0,.62,0,.62-.85,1.18-.12.66-.12.66.48,1.4a2.45,2.45,0,0,1,0,.27c.15,2.66,3.86,2.78,4.14,5.35a3.59,3.59,0,0,0,.06.62c4.66,6.66,4.66,6.66,5.26,6.72,0,0,2.16.4,4.54,3.11.24,0,.57,0,.81,0,0,.82,0,1.63,0,2.42a2.77,2.77,0,0,0-.06.81l-.06.11a1.61,1.61,0,0,0,0,.37l.1.4a1.58,1.58,0,0,1-.14.43,1.69,1.69,0,0,0-.08.74l-.07.06a1.41,1.41,0,0,0,.1.44c0,.11,0,.26,0,.37v.12c0,.08,0,.15-.2.5a1.72,1.72,0,0,0,.18.74v.22a.7.7,0,0,1-.09.34c-.15.76-.79,1.35-.8,2.15a23.19,23.19,0,0,1-1,3,1,1,0,0,0,0,.2c.54,2.86.65,3.46-.71,4.6a3,3,0,0,0,0,.46c0,.11,0,.26,0,.38l0,.11c-.25.59-.82,1-1.11,1.54.67,1.1.5,1.46,0,2.52l.16.35a1.1,1.1,0,0,1,.14.59l-.39.11c-.26.76-.26.76-.18,1.05l.35.17h.54l.09-1.29h.67a1.34,1.34,0,0,1-.11.57l-.32.23a5.77,5.77,0,0,1,0,.8c-.06.07-.06.07-.25,1.42a2.37,2.37,0,0,1-.48-.4s0-.09-.06-.4c0,0,0,.05-.24.07,0,.14,0,.27.33.6a2,2,0,0,1,.26.7c-.28-.14-.53-.33-.81-.45,0,.13,0,.26-.31.51,0,.11,0,.26,0,.38a1.75,1.75,0,0,1,.74.24c0,.1-.05.26-.06.37l.37.06a2.53,2.53,0,0,1,.12.36c-.76.07-.76.07-1.11.29a1.3,1.3,0,0,0,.11.33l.27.28s0,0,0,.4a1.41,1.41,0,0,0,.41.61l-.24.1.2.09c.08,0,.16,0,.2.32l.39.09v.08l-.07.11c.26.45.76.65,1.09,1l.4,0s0,.05.22.22.54.08.77.13a1.31,1.31,0,0,1,.32.07l1,0a2.21,2.21,0,0,1,.45-.3,4.8,4.8,0,0,0-.76-.11c0-.06,0-.12-.32-.2,0-.22-.1-.52-.15-.74l0-.09a6.33,6.33,0,0,0-.12-.74s0-.06,0-.19a3.77,3.77,0,0,1,.12-.58,3.91,3.91,0,0,0,.68-.06c0-.11,0-.26,0-.37a16.14,16.14,0,0,1,1.86-1.33c0-.08,0-.16-.25-.26l-.39-.06c-.59-.57-.59-.57-.66-.86a.62.62,0,0,1,.1-.24,3.49,3.49,0,0,1,.74-.39h1a3,3,0,0,1,.35-.93,2.79,2.79,0,0,0,.61-1c.72,0,.72,0,1-.33,0,0,0-.09-.11-.28h-.07l-.09,0a1.38,1.38,0,0,1-.72.16c0-.23,0-.54,0-.77l.09-.46a2.3,2.3,0,0,1,.67.1l.33.22a1.69,1.69,0,0,0,1.15-.32c0-.05,0-.1.11-.35l.31-.21a2.1,2.1,0,0,0,0-.75c0-.12.07-.24.09-.37a10.63,10.63,0,0,0,1.12-.06h.43a5.16,5.16,0,0,0,.78-.17,5.07,5.07,0,0,1,1.24.09s1.55-1.06,2.21-1.65l.32-.33.18-.53a1.25,1.25,0,0,1-.39,0c0-.11.07-.23.17-.58a2.8,2.8,0,0,0-.89-.73c0-.11,0-.26-.06-.37l.83,0c3.08.48,3.08.48,4.35-.64,3.5-3.13,3.5-3.13,3.53-3.13a4.66,4.66,0,0,0-.43.66c.3,0,4.47-3,4.38-4.46-.05-.8-.1-1.55,3.65-3.68l1.14-.05a8.87,8.87,0,0,0,1.34-.86,13.7,13.7,0,0,0,2.91-.34A1.73,1.73,0,0,1,153,148c.41-.12.41-.12,3.45-3.71.18,0,.18,0,1.35-2.21a2,2,0,0,1,.25-.45,5.41,5.41,0,0,0,1-1.69,4,4,0,0,0,.15-.6c0-.11,0-.26.05-.37a4.15,4.15,0,0,0,.18-.78,3.76,3.76,0,0,1,.82-1.6s2.59-2.15,3.29-2.81l2.31-2.7a3.59,3.59,0,0,0,.8-1.48M127.31,94.79l.08,0c-.18-.17-.5-.06-.64-.31s0-.6,0-.9a7.41,7.41,0,0,1-1.88.31h-.63c-.33-.06-.61-.28-1-.31H123c-.28.08-.37.39-.65.47,0,0-1,0-1.09,0-.43,0-.61-.46-1-.53s-.81-.58-1.34-.6l-2.24-.09a6.2,6.2,0,0,0-1.21.16c0,.62,0,1.25,0,1.87A5.12,5.12,0,0,0,116.71,96h.67c.81,0,1.23-.81,2-.82.37,0,.69.17,1.06.17s.7-.17,1.06-.16a9.3,9.3,0,0,0,2.39-.27.69.69,0,0,1,.64,0,10.59,10.59,0,0,0,1.57.22h.64c.22,0,.36-.19.55-.29m-16.77.81.08-.09c-.09-.19.06-.45-.16-.62s-.37-.06-.55-.12-.35-.24-.55-.32l-.19,0h-1.81c.12.19.2.39.33.57l.17.17c.13.09.16.09.5,0s.85.32.85.32.11.17.11.39a.57.57,0,0,0,.06.25c.2,0,.41.1.62,0s.13-.06.54-.55M108.63,92h4.78a5.33,5.33,0,0,0-2.5-1.94h-.68a5.6,5.6,0,0,1-2,0c-.45-.17-.63-.63-1-.9a18.46,18.46,0,0,0-1.83-.93c-.72-.37-.72-.37-.83-.62s-.15-.35-.56-.37l-1.48,0c-.08,0-.08,0-.62.28-.28.15-.51-.09-.76-.11H99.74c-1.17-.06-1.17-.06-1.32.06-1.34,1,.77,2.83,2.37,2,.38-.19.63-.57,1.06-.69a4.93,4.93,0,0,1,1.13.06s1.29.41,1.45,1c.06.25.1.27.29.35a7.09,7.09,0,0,0,1.53.41c.41-.06.53,0,.73.36a2.26,2.26,0,0,0,1.65,1m53.69-72c-.26-.25-.52-.5-.79-.74a2.81,2.81,0,0,0-.5-.35c-.48-.19-.48-.19-.55-.15h-.08a6.49,6.49,0,0,1-.67-.72c-.18-.17-.39-.3-.58-.46l-.52.05c-.19.05-.13.19-.1.26s.13.32,0,.38l.07.16c-.3,0-.58-.14-.89-.11s-.43.23-.43.36,0,.16-.12.19l-.48,0-.37-.37-.36-.36a5.74,5.74,0,0,0-.55-.34l-.15.11c.11.12.24.24.36.35-.51-.15-.51-.15-.55-.14s-.59.08-.62.27c0,.36.69,1,1,.87l0-.18c.58-.13,1.15.42,1.62.86a2,2,0,0,0-1.31.1l.58.57.18-.12.54,0,.15.09.69.76.48.37.27,0a1.6,1.6,0,0,1,.7-.16l.28,0c.47-.13.67.3,1,.44a1.26,1.26,0,0,0,1,0l-.07-.43c-.22-.38-.22-.38-.25-.5s0-.14,0-.2h.21c.05-.23-.28-.45,0-.67.07-.07.07-.07.91-.15M140.41,47.09l.07-.14c-.08-.15-.18-.36-.25-.51-.63,0-.63,0-.83-.11a5.17,5.17,0,0,1-1.11-.69.8.8,0,0,0-.39-.29c-.35-.11-.71,0-1.07-.11a4,4,0,0,1-.57-.23c.12-.85.12-.85.21-1s.25-.1.38-.17a.64.64,0,0,0,0-.86.8.8,0,0,1-.19-.24,1.82,1.82,0,0,1-.4,0,1.21,1.21,0,0,0-.58.29c-.1.18.06.3.09.45a4.28,4.28,0,0,1,0,.62.4.4,0,0,1,0,.22,12.72,12.72,0,0,1-1.51,2.14,2.7,2.7,0,0,0-.55.79,1.37,1.37,0,0,0-.09.75c0,.22.18.4.22.61l3.87-.09c.32,0,.48.05.95.49a4.39,4.39,0,0,0,1.52,1c.07-.09.08-.11.28-.2s.38-.17,0-1.33a1.26,1.26,0,0,1,.06-1.37m-10.94-1.38,0,0c-.17-.06-.32-.18-.49-.23a1,1,0,0,0-.28,0,.82.82,0,0,1-.45,0,1.49,1.49,0,0,1-.71-.46c-.19-.22-.29-.26-.42-.26a2.53,2.53,0,0,1-.38,0l-.51.25a4,4,0,0,1,.55.25c.17.13.23.32.38.46l.14.09c.16.12.33.21.49.33s.26.24.39.34a.91.91,0,0,0,.34.15c.16,0,.43.1.93-.86M126.41.47c-.34-.07-.69-.07-1-.12h-.28a4.15,4.15,0,0,1,1,.34,4.34,4.34,0,0,0-.52-.07,3,3,0,0,1,.56.2h0l.05,0c.35.14.72.26,1.07.41-.54-.12-1-.37-1.56-.51L125.12.6a7.62,7.62,0,0,0-1.28-.31l-.08,0-.17,0a9.47,9.47,0,0,1,1.12.3h-.17l.15.08c-.23-.06-.47-.13-.7-.21l0-.07a1.11,1.11,0,0,0-.48,0,3.35,3.35,0,0,0-.34,0l.15.09h0l0,0h0l0,.07a3.89,3.89,0,0,1-.87-.32,1.32,1.32,0,0,0,.41-.06l-.17-.05a2.78,2.78,0,0,0,.39,0l-.35-.1L122.63,0l-.53-.1h0L121-.23s0,0,.14,0H121l-.39,0h-.2l0,0,.17,0h-.18l-.22,0h.08l-.35-.08.5,0-.73-.11h-.07l-.36,0h-.49l.29.09h-.09l0,0a3.24,3.24,0,0,1,.73.22l-.17,0h-.14a2.75,2.75,0,0,0-.54-.09l.14.08h-.25l.06.05.17.05L119,0l0,0,.12,0,.09,0,.09,0,.4.15-.06,0-.08,0-.08,0h-.08l-.07,0h0l-.07,0h-.14l0,0,.06,0,.2.07.08,0,.28.08H120l.06,0,.21.05.25.09.1,0,.08,0,.07,0,.22.1-.12,0-.06,0h0L120.66.6h-.09l-.14,0-.35-.08h0l-.09,0h0l-.08,0-.08,0-.17-.06h-.23a1,1,0,0,0-.35,0l.35.13h.07l.2.08.06,0,.09,0,.22.09.06,0,.23.1.08,0h-.14l-.08,0-.07,0-.07,0,0,0-.08,0-.08,0-.23-.08h0l-.05,0-.18-.07h0l-.1,0-.06,0-.08,0-.07,0-.09,0h-.13l.22.11.32.16,0,0,0,0,0,0,.21.16,0,0-.23-.05-.15-.1-.1-.11,0,0,0,0-.05,0-.07,0-.09-.05-.06,0,0,0-.16-.08-.06,0-.06,0-.06,0-.12,0v0l0,.05,0,0h0v0h0l0,0h-.15l0,0H118l0,0,0,0,0,0h.15l0,0,.06,0,0,0,0,0,.06,0,.12,0h.1l.15.07h0l.14.06,0,0h-.17l-.13,0-.06,0-.06,0,0,0-.14,0h0l-.17-.06-.14-.05,0,0-.06,0,0,0,0,0-.07,0v0h0v0h0l0,.06h0l.1.12.05,0,0,0,0,0,.24.29a.88.88,0,0,1-.24,0l0,0,0,0h-.31v.1l-.16.17,0,.11v0h-.19l0,0,0,0,0,0h0v.05l0,0h-.06V2.1l.21,0,0,0,0,0h.1l.17,0h.16l.07.16,0,0,0,0,0,.05.1.23v.18l0,0-.14,0h0l-.22.06-.09,0h-.18l-.19,0a.59.59,0,0,0-.29,0v.06s0,0,0,.16l0,0a.66.66,0,0,0-.29.06,2.94,2.94,0,0,1-.51.05l0,0h0l0,0v.14l0,.05,0,0h-.22c-.12.19-.12.19.15.52.28,0,.3,0,.44.19h.44l.18.1.07,0a.59.59,0,0,0,.32.11h.15l.13-.07.06,0h.26l.16,0h.17a1.11,1.11,0,0,1,0,.33l0,0L118,5h-.09l-.07,0h-.05l-.06,0h-.19l-.1,0-.18.06h-.06L116.82,5h-.07l0,.15h-.29l-.08.13.13.14.06,0a6.58,6.58,0,0,1,.78.29l-.08,0,0,0v.06l0,0,.15.06.06.06,0,.06,0,0,0,0,.07,0,.06,0,.2.09.06,0,.08.06.25,0h.09l0,0,0-.06a.92.92,0,0,1-.13-.24h.16a1.33,1.33,0,0,1,.34,0l.06,0h.05l.07,0,0,0,0-.12h.21l.07,0a1.39,1.39,0,0,0,.35,0l0-.07,0,0,0,0h.09l0,0,0-.06c.13-.1.2-.06.37,0l.06,0h.15l.17,0h0l.28.11.07.06.08,0h.42l.06,0a1.53,1.53,0,0,1,.27.11l.23.06h.11l.24.18.19.06.18,0,.21.16.25.44.13.11.07.06.09.07h.16l.09,0,.09,0,.1,0,.19.19,0,.07a1.38,1.38,0,0,1,.25.17l.11.07.1.09.08.07c.05,0,.05,0,.34.31.09.08.2.2.29.29l.09,0,.29.19a.86.86,0,0,0,.06.16c0,.12,0,.12.36.41a3.09,3.09,0,0,1,.21.41.47.47,0,0,0,.07.32l.32,0c0,.11.11.21,0,.3l-.13.1c.08.21.26.36.3.58h-.26c.05.1.1.2.17.32a.63.63,0,0,0,.5.24.93.93,0,0,1,.31,0l.17,0a2.09,2.09,0,0,0,.67-.1l-.07-.17c.71-.46,1,.69,1.67.67h.09a2.27,2.27,0,0,1,.92.56l0,.16h-.31l-.19,0h-.33c-.67.06-1.27-.53-2-.18a7.24,7.24,0,0,0,.73.62l-.09.14-.17,0s-.45.24,0,.63.94.24,1.35.51l.22-.06a1.07,1.07,0,0,1,.16-.32,2.4,2.4,0,0,1,.54,0,1.74,1.74,0,0,0-.42-.57c-.17,0-.35,0-.53,0l-.12-.13-.35,0v-.17h.41a2.32,2.32,0,0,0,.85.24h.45a.62.62,0,0,1,.48.28l.05.08-.08.14.09.15-.07.17a.42.42,0,0,0,.08.14,2.46,2.46,0,0,1,.6.44l.27.5-.45,0-.2,0a1.17,1.17,0,0,0-.12.31h-.41l-.15-.07-.16.07a1.8,1.8,0,0,1,.25.82l-.38-.07c-.07.22-.07.22-.38.32l-.07.15.08.16a1,1,0,0,0,.08.18c.4.43,1.2.38,1.42,1a.67.67,0,0,0-.33.21s.66,1.5,1.52,1.14l.06-.18h.17a1.07,1.07,0,0,1,.29,0c.18.12.18.12.23.43a.68.68,0,0,0-.19,0l-.13.1c.76,1.46.76,1.46,1,1.46.16-.16.16-.41.3-.59l.37,0A7.18,7.18,0,0,1,136,22c-.08.17-.25.24-.36.37-.64.79,5.05,5,5.74,5a.66.66,0,0,0,.31-.07,1.28,1.28,0,0,1,.33-.11h.1c1.24.25,3.12,2.46,3.69.84l-.09-.17-.17-.33c-.28-.6.11-1.3-.3-1.87s-.9-.85-1.14-1.42l-.05-.16a.83.83,0,0,1,.35-.14,1.23,1.23,0,0,0,.3-.07.8.8,0,0,0,.34-.11c-.33-.54-.33-.54-.16-.82h.17l.09-.15c-.19-.34-.39-.66-.58-1,.13-.7-.76-.72-.93-1.23.5-.1.5-.1.65-.28-.08-.23-.24-.41-.34-.63l1-.05a4.72,4.72,0,0,1-.49-.69l.54,0a4.59,4.59,0,0,0,.57.77,1.38,1.38,0,0,1,.55,0c.14-.27,0-.59.2-.86h.16a.45.45,0,0,0,.46-.21l-.13-.14a.56.56,0,0,1,.07-.59,3.59,3.59,0,0,1-.12-.35l.11-.09-.21-.5.15-.15-.16-.2,0-.17.12-.13a3.22,3.22,0,0,0-.52-.6l0,0h.18l.05,0,.06,0h0l.13.06.05,0,.16.09c1.21.33,1.21.33,1.61.21.14-.28,0-.54,0-.8a.9.9,0,0,1,.34-.1.57.57,0,0,1,.27-.17l.05-.16.12-.09c0-.38-.41-.61-.35-1a3.35,3.35,0,0,0,.63-.11.87.87,0,0,0-.36-.62L149,13l.05.16,0,.21h-.15c-.34-.08-.58-.35-.93-.39h-.11a2,2,0,0,1-1.46-.48c-.12-.1-.25-.2-.23-.36h0a.78.78,0,0,0,.48-.12,1,1,0,0,0-.15-.35c.65.15,1,.72,1.62,1l.17-.11-.24-.29c.15-.09.33-.1.47-.2a22.11,22.11,0,0,0-3.91-2l0-.18c.61.3.61.3.75.31a1.19,1.19,0,0,0,.26,0l-.76-.55-.23-.15c-.51-.4-.76-.6-1.13-.43l.08.15a.82.82,0,0,1-.37,0,.68.68,0,0,1-.17-.31,2.92,2.92,0,0,0-.66-.24l-.09-.1c.12,0,.25,0,.37,0l.56.36a.93.93,0,0,0,.38-.08l0-.17a.77.77,0,0,1,.2,0,.77.77,0,0,0,.37,0,2.63,2.63,0,0,0-1.37-.73l-.07.14c-.48-.12-.52-.18-.64-.36.29.06.32,0,.51-.06l-.17-.2.17,0s.08,0,.16-.13c-.76-.39-1.61-.59-2.34-1l0-.08.18,0-.76-.39c-.85-.35-1.78-.49-2.62-.89l-.17-.12-.15-.1.14-.08h.27l.56.19.11,0a8.1,8.1,0,0,0,1.41.67l0-.06L137.4,4.5a2.46,2.46,0,0,1-.32-.19l-.17-.06-.53-.2-.17.07H136a6.44,6.44,0,0,1-.7-.34l.17,0,.07-.08s-.84-.35-1.2-.21a1.08,1.08,0,0,1,.31.19,10.14,10.14,0,0,1-1-.42c0-.07,0-.07-1.45-.64h.15a2,2,0,0,1-.7-.32l0-.05c-.86-.32-1.66-.77-2.55-1l-.3-.08-.32,0A5.17,5.17,0,0,1,127.9,1l.35.06L128.2,1l-.89-.27,0-.06c-.29-.08-.49-.13-.93-.22m-9-.09-.21-.15-.08.06-.15,0-.15-.13L116.61,0l-.06,0h-.15l-.12.08L116.22,0l-.17,0s0,0-.11-.1l-.23-.07a.56.56,0,0,1,0,.16l0,0-.11-.12-.1,0c0,.11,0,.11,0,.14s-.12-.12-.19-.17l-.17,0s-.09.06-.13.27h-.07L114.8,0h-.12l-.08.1h-.12l-.39.09-.22.16.19,0c0,.07,0,.07.19.15l-.06.18a.24.24,0,0,1-.15,0L114,.55h-.21l0,0c0-.07,0-.13.06-.2l-.16,0V.24h-.05l-.12,0a2.54,2.54,0,0,1-.36.29H113l-.06-.08h-.07l-.41.18h-.2L112,.78l-.17,0-.22.14.08,0,0,0-.27.19.11.07c-.11.11-.11.11-.1.19.17,0,.28.14.45.15l.33-.21.18-.13.27,0-.3.16-.3.21-.17.23c.67,0,.67,0,1-.24l.22,0h.34l.28-.18.2-.16.11-.12c.11,0,.12,0,.37-.12l.17,0-.13,0-.51.33.28,0,.11,0,.11,0-.12.15a2.81,2.81,0,0,0-.29,0h-.24l-.18.08a4.39,4.39,0,0,0-.52.13H113l-.19,0-.12.19.17,0,.06.13,0,.21.39.09-.21,0-.26,0c-.29-.53-.29-.53-.63-.56l-.38-.06-.21.22,0,.18,0,.26.21.35.2.17.45.05c-.11.13-.33.1-.43.25l-.13.28-.26-.4-.26-.08-.41.05-.31.07-.39.16-.18.26-.13.2.25.08h.43l.39,0-.47.23-.05.28c.39.08.43.09,1.15-.37l-.27.32-.48.3-.4,0c-.14-.08-.41-.14-.48-.28a.43.43,0,0,0-.19-.21,1.87,1.87,0,0,0-.54,0c-.23.68-.23.68-.78.8l-.39.29,0,.43.3.21a5.05,5.05,0,0,1,.61-.23c.28,0,.46.22.73.21s.3-.22.5-.24c.1.13.1.13.77.08h.38c0,.07,0,.07-.15.3v.05a.81.81,0,0,0,.53,0h.29c.87-.37.87-.37,1-.63l0-.3-.42.19V5l.4-.08.19-.38,0-.33h.25c.58,0,.58,0,.63,0,.2-.22-.09-.4-.09-.6h.41c.1,0,.1,0,.16,0s0-.15-.13-.36c-.19,0-.33-.17-.53-.16l-.27.16-.23.14V3.09l.31-.13c0-.06,0-.06.3-.25h.24l.1.17c.42.08.42.08.84-.22l-.28-.27.32,0,.12.19.27,0,.3-.13-.15-.29-.2-.1h.54l.09-.18.22-.1c.16-.2.45-.3.53-.57l.21,0,0-.1-.19-.16a.64.64,0,0,1-.27.18c-.13-.09-.13-.09-.43-.06V.85l.18-.07h.47c.09-.07.21-.07.28-.17l.19,0a1.25,1.25,0,0,0-.12-.19m-6.18,2.56c.09-.11.16-.22.24-.33-.34-.19-.34-.19-.36-.22l.09-.2.14-.17,0-.13c-.19.12-.21.13-.26.13s.14-.18.16-.3-.2-.07-.18-.19,0-.08.09-.16a3.46,3.46,0,0,0,.19-.36V1h-.08a1,1,0,0,0-.44.15H111l0,0c-.21.19-.31.16-.36.15h-.21c-.22.06-.24.07-.23.18s0,.05-.23.18l-.17,0-.2,0-.32.24L109,2l-.34.25.17,0-.36.27,0,.19.27,0,.32-.09h.33l-.1.22a2,2,0,0,1-.39.11h-.28l-.35.14.07.21-.17.33.4.16.47-.07.28.13.28-.2h.18s.09,0,.21-.23l.24-.26.16.14c.09-.06.15-.15.24-.2s.06,0,.15,0,.11.08.19.06a1.41,1.41,0,0,0,.3-.2M108,5a2.34,2.34,0,0,0,.48-.18,2,2,0,0,0,0-.4l-.55.09-.49.37L108,5m3.89,2.46h0l.05-.5-.61-.22-.66-.18-.63.2-.89.21-.55.06-.64-.17-.6,0-.19-.46.24-.44.12-.41h-.56l-.44.07a2.77,2.77,0,0,0-.44,1.16l-.58.5,0,.38.26.4.78-.05.51-.24c.35.53.35.53,1.06.45h.94l.48-.13.28-.22.19.26c1.44-.09,1.44-.09,1.47-.37,0-.13,0-.22.37-.33m-9.92.68h.37l.09-.3-.46.29m2.57-.31.44-.47-.17-.26.07-.35-.37.06-.71.23-.35.31,0,.42.39,0,.23.19.44-.15m1.18-1.76.51-.31.18-.25,0-.32h-.4L105.81,5l-.46.06-.4.37.14.29.16.27.42,0m1.56-1.51.23-.26h-.82l-.45.23L106,4.7l.51,0,.34-.07.4-.07M107.1,4l.28-.19v-.3L107,3.44l0-.29-.36.16-.18.26-.41.45.25.08.38,0L107.1,4Zm.5-1.57.33-.1.35-.28,0-.09h-.17l-.39.24h.21l-.29.23M105.1,4.3l.36-.22.31-.3,0-.2.29-.29-.06-.15,0-.16-.26,0,.11-.18,0-.19-.25,0-.66.12L104.8,3H105v.11l-.38.29h-.29l-.29.27.23,0-.11.18.36-.12.14,0,.36.07-.15.38.23.11m-1.18.13.39-.1,0-.23H104l-.32.28.27,0Zm.07,1.7a.67.67,0,0,0,.18-.3s0-.25-.14-.25a1.09,1.09,0,0,0-.45.19l0-.35h-.35c-.05.3-.21,1.11-.58.84l.13-.56h-.32l-.36.34-.33.39,0-.34.47-.57-.23-.27-.61.47c-.07.09-.21.2-.21.31a1.14,1.14,0,0,1-.06.53l.29.23.4-.11.3-.06-.09.28-.37.57L102,7.3l.45,0,.35-.06.33-.34.45-.49a3.91,3.91,0,0,0,.44-.26m-3.85.92c.15-.14,0-.23-.06-.24l-.1.05a.4.4,0,0,1-.3.11l-.29.35a1.31,1.31,0,0,0,.35,0,2.46,2.46,0,0,0,.4-.24m1.93-2.11.39-.12.36-.45.05-.24a1.58,1.58,0,0,0-.8.81M113.35,18l.41-.62-.31-.66a8.23,8.23,0,0,0-1.27.07,3.48,3.48,0,0,0-.66.72l.32.59.72.09.79-.19m-8.67-8.52c.18-.16.45-.35.64-.5-.2-.23-.28-.25-.35-.26h-.5l-.38-.21c-.81,0-.81,0-.9.16-.28.45-.32.49-.8.63l-.6.88a9.72,9.72,0,0,1-.44.95L102,11l.6-.32.38-.51.52.16.56-.32.6-.55M100,11.66l.69-.59.08-.48-.08-.44-.2-.3c1-.38,1-.38.9-1l0-.28-.47,0-.37.38h-.19l-.23-.18-.53.12-.25.38v.43c-1,.88-1,.75-1,.22l-.37,0-.4.39.16.34.13.26.39.16a2,2,0,0,1-.17.54l0,.13c0,.14.42.38.45.38a4.09,4.09,0,0,0,.76-.44l.75,0M97,9.71l.61-.51,0-.25L97,8.75l-.53.3c0,.3,0,.37.06.39s0,.06-.09.54L97,9.71m-1.11-.54.49-.34-.35,0-.43.22.29.09Zm6.73-5.61c.34-.2.36-.23.36-.25a.24.24,0,0,1,0-.15h-.33l-.42.08-.75.27h.29l.38,0h.5m-1.12.51.5-.22h-.21l-.41,0-.42.08-.59.19-.6.47.09.06.37-.09h.45l.41-.2.2-.24.21,0m-1.67,0,.21,0,.55-.32,0-.16-.2,0-.39.24-.2.18ZM99.13,7l.9-.64.1-.24h-.24l-.38.27-.11-.16.13-.4.38-.28.36-.34H100l-.41.19-.34.08-.3.22c-.09.27-.09.27-.74.67l.24.09a.63.63,0,0,1-.62.25l-.44,0,.06-.25.38-.49-.06-.18h-.27l0-.21-.1-.07-.64.15L95.93,6l-.66.28-.74.31L94,7l.43,0,.23.15.45-.05L95.67,7l.41.15h.38a1.42,1.42,0,0,1-.7.17l-.43,0-.55.18-.34.28.06.18.59,0,1-.27.84-.36.49-.05.57,0,.58,0,.6-.33M98.06,5.15l.32.08L98.8,5l-.4,0,0-.06-.31.22M94.32,6.51l1.15-.58-.61.12-.77.35.23.11Zm3.91-1.78.71-.34-.13-.15-.67.25-.39,0-.2,0c-.78.28-1.52.63-2.3.93l-.32,0-.65.17-.5.35v.23l.66-.28-.17.24.5-.16.43-.22.29,0,.65-.33.6-.21-.46.37.38-.1.58-.15,1-.5m-2.91,9.54.4-.36-.26-.42L94.71,13v-.68l.64-.65-.1-.43.69-.85.17-.55-.28-.33-.51,0-.62.59-.33.44-.31.6-.42.25-.2,0,0-.27.37-.44.23-.37.19-.58-.35-.06-.32.39-.19.33-.46,0-.33.29-.47.06.43-.33.55-.39-.28,0-.19-.2-.43,0-.51.38L91.48,10l.37-.25.51-.49-.07-.11-.44,0-.73.32-.52.17L90,9.77l-.75.3-.56.51-.89.34-.34.3h.32l-.13.31.6-.16.6,0-.05.35-.73.16-.65.13-.56.29.22.38.64,0,.77,0c.21,0,.41,0,.62,0s.16.2.23.31a1.79,1.79,0,0,1-.45.37l-1-.09-1,0-1.09.36-.43.84.74.08.64,0-.39.81.15.36.9,0h.87l.89-.36L90,15.2l.94-.4.54-.23,0,.3L92,14.8l.52.62.63.07.67-.07.62-.54-.17-.47.42,0,.66-.11m-4.4,1.62.45-.55-1.16.26-1.33.52.56.2.83-.33.65-.1Zm.26-6.64L92,9l.52-.44L92.61,8l-.27-.09-.8.24-.15-.25-.08-.29-.46-.1-.88,0-.5.32-.83.59-1.49.9-2.42,1.2.34.42-.79,1,1.1-.51.54,0,.8-.35a14.27,14.27,0,0,1,3-1.53l1.51-.43m44.58,32.36.41-.52-.67-.47.28-.51-.16-1-1.33-.15-.37-.6-1.41,0-1,.64-.66.5-.67-.23.14-.73,1.22-.46,1.47-.39.56-.61-1,0-1.05-.45-1.33-.33-.9-.69-1-.68-.45-.63.51-.13.11-.46-1-1.07-1.16-1.17-1.64-2-.56-.92-.83,1.21c.05.35.08.69.12,1.05l-1,.4-.62.74-1,0-.28-.67-.71-.5-1,.23.22-1.16-.09-1.52-.1-.8-1.15-.05-.93-.57-.83-.83-1.42-.88-.53.42-1.21-.05-.49-.31h-1.36l-.6.57.43.83-.29,1.11.1.76.4,1h-.75l0,1-.54.55.63.46,1,.72.22,1.31c0,.5,0,1-.08,1.51l-.82,1.06-1.11.82-1.49.18.73,1.32c0,.56-.07,1.13-.12,1.7l.37,1-.3.8-.75,1-1.53.17-.74-1.44-.92-1.23c0-.35.07-.69.11-1l-.14-1.45.32-1.2-1.78-.24-1.33-.07-.62-.42-1.58-.43-.48-.71-1.23-.77-1.24-.82-2,.42-.24-.75-.26-1.7-.73-.47-.36-.67.88-2,1.34-1.47,1.26-1.29,1.19-.44,1-.65-.11-.71-1.13-.32-1.21-.52,1.52.27,1.21.37.66-.14.37-.73,1,.4.69-.14.22-.58.48-.24.43-.78-.73-.1-.94-.11-.21-.43-.92-.49.72.06,1.07.34.69.3.88-.28.73-.7-.41-.56h.77l.34.51-.54.56-.63,1c-.11.43-.23.88-.34,1.32l-.91.29.08.6.89.06a1,1,0,0,0,0,.57,3.24,3.24,0,0,0,1.12-.11l.48-.7,1.13.06.61.11.57.3h.92l.2-.75-.87-.2-.27-.93-1-.11-.68-.73-.71-.19c0-.18.08-.36.13-.53l.67.15.4-.38v-.42h.84l.43-.61.89-.58.35-.51-.32-.53-.18-.89.72-.13.32-.64-.38-.64-.62-.34-.73-.5h1l.19-.33.69.09.49.37.81,0,.75-.17-.51-.61.43-.12.54.7.72.08.24.66.54.13.28.5.59.26.31.64.7.26.59.66.14.81-.89.87-.78.88.4.86-1.4.19-.73-.18q-.39,0-.78,0l-1,.71c0,.26,0,.52-.08.78l1.17.21,1-.06L113,22l.44-.25.6.15,1.14.33,1.13,1.09.25.6.72.76h1l1.13,1,1.6,0,1.09.45,0-.62-1.82-1.26-.74-.55-.39-.6,1.13.54,2,.94,1,.55c0-.31-.08-.62-.12-.92l.41-.81-1-.49-.37-1.23L121,21.31l-1.57-1.51.42-.42.4-.38,2,1.38.81.9.83.13,0-1.06.89-.39,0-.42.64,0,.16-.46-.23-.69-1.24,0c0-.13,0-.25-.07-.37l-.88-.57-.53-.09-.84-.33h-.6l-.25-.49-.27-.43-1,0-.42,0-.09-.73h.69l.31-.33-.95-.25.08-.29.43-.09-.58-.48-.71-.2.21-.45L118,13l-.77,0-.13-.35-.62,0-.27-.07.5-.35L116,12l-.85.24-.55-.61,0-.34-.51,0v-.4l-.77-.29h-1l-.19.33-.54.07-.48-.11-.25.4-.51,0,.09-.52.4-.47-.31-.64-.06-.56h-.85l-.53.41-.59,0-.51.28-.32.57.16.63-.41.4.27.8-.48.08-.36-.7.15-.89.18-.58.65-.6L108.5,9h-.77l-.87.1-1.09.68-1,1-.65,1.3.7.17.53.05,0,.51-.58-.13-.74.2.29.64h.79l.46-.16.4.41.92.37-.7.2L106,15l.34.42-1.09,1.15-.62.84-.78.66-.45-.27-.07-1,.62-.61-.62-.95-1,.71-.49-1.32-.29-.18.39-.64.21-.73-.4-.09.28-.58-.33-.67-.79-.06-.37.38-.37,0-.76.6-.12.52-.34.4.3.71.43.46-.55.63-.68-.19-.16.74.69,0,1-.5c-.13.25-.25.51-.37.77l-1.73.76-.46,1.16-.55-.65.64-.79H97l.37-.74.48,0,.44-1.07-.77-.65-.7.74-.82.32.57.85-.79.45-.55.62-2.09,0-.69-.51-.64-.16-.46-.68-1,.45-1.38.49-.31.76-1,1.16L88,17.3l-.55-.56L86.24,17l-2-.36.32-.4,1.06-.3-.38-.78h-.7l-1-.8.15-.56L83,13.59h-.49l-.71.44-.55.09.79-1L80.75,14l-.33-.16,1-1.18-.24-.23-1.12.73-.93.45-.64.08-1.1.3-1.31.48,1.54-.77.85-.19.7-.21.68-.38-.11-.09-1.1.29-1.39.46h-.47l-.35,0-1.72.65-.51-.2.55-.81L74,13l.3-.43-.18-.21-.83.16.3-.43L73.14,12l0-.39-.39-.07-.21,0A92.62,92.62,0,0,0,55.18,24.6l.73-.19-.14.46-1.23.5-.84.68-.38.39-.61.68,1.74-.84.84-.16a4.76,4.76,0,0,1,1.21-1.24L57,25l-.27.85,0,.71L57,27l.76-.19.12.42.42.05L58.1,28l.17.73c0,.33,0,.79.06,1.13a4.84,4.84,0,0,1,.54-.17l.08.54-.27.81.51.41-.67.71.38.58-.61.67.29.33.43.17-.51.81-.16.91-.53,1-.36,1,.63.18L57.61,39l.15,1.16-.24.81.48.68.59.5.54.36L59,43.1l.51.88.36.75-.3,1.56L59,47.52l-.18-.82-.15-1.07.16-.65-.43-.68L58,44l.4-1-.56,0-.23-.54-.29-.28L57,41.92l-.56.08v.85l.3.54.22.74.65,1.23-.14,1.25-.21,1.59-.57,1.25-.77,1.7c-.25.65-.5,1.3-.74,2l-.6.44-.47,1.29.07,1.4-.62,1.3-.18,1,.12.92-.44,1.34L53.29,62l.53,1v2l.5.84-.07,1,.41,1.2,1,.06.56.84,1,.72.6,1.08v1.26L58,73.21l.22,2.11.59.94.76,1.09.15.77-.79.63.38.86.83.87,1.09,1,.59,1-.18.83.19.7.91.5.82,1,.59.8,0,.92.53-.28.17-1-.31-1.17-.8-.49-.05-1-.88-.88-.27-1.31-.25-1.23-.71-1-.12-1.21-.74-.42-.3-1.52-.72-1.3.12-1.64.72,0,.94.57.48.92-.13,1.41.88,1.93,1,1.55,1,1.11.68,1.1.09,1.22,1.11.8.77,1.19.57,1.25,1.31,1.74.48,1.5.72.72-.75.51-.22.92L71,92.65l1.27,1.22,1.58.59,1.65,1.16,2,1,2.19,1.23,1.79.59,1.14-.05.35-.62,1.29-.12,1.46.8,1.62,1.35.9,1.1,1.32,0H90l.75.32.84,1.16,1.65.56,0-.77.91.48c2.72,3.68,2.72,3.68,2.51,4.44l.54.62.66-.3.93.45c1.83,1.67,1.83,1.67,2.68,1.6l2.3,1.13,1.23.53L105,110l.59-.75,2.13.16.25.74.69-.07.37-1-.78-.91H106l-1.45-.08-2.13-.16-1-.68-1.4-1.45.05-1.15,0-1.52.42-1.92c0-.44,0-.88,0-1.32l-.7-1-1.37-.72-2,.14L94.89,98l-1.58.61-1-.71,1-.77V95.66l.37-.86.52-1.39c0-.52,0-1,0-1.57l.9-.61.16-1.17-.67-.46-2.23.13-1.41.2L90.27,91l-.61,1.62L89,94.11l-1.18.14-1.68.44-1.73.2-.8-1.11L82.18,93l-.49-1.27-1-1.65-.49-2.79-.13-2,.77-1.53L81.31,82l-.59-1.84,1.37-1.7,1.06,0,1.11-.88,1.14-1,1.47.26,1,.39.88-.36.66,1,1.3,0,1-.06L91.59,77,92,75.78l1.6,0,1.11-.13,2,.23.76,1.06h.67l.47-.6.59-.15.94.91.86,1.13,0,1.29.5.75.21.84.67.61.35.91.82.46.07,1,.76.23.47-.69.38-1.07-.43-1.28-.42-2-1-1.74c0-.75,0-1.49.15-2.61.14-.36.33-.83.48-1.19L105,72.1l1.26-.5,1.52-1.25,1.41-.95,1.36-.51.23-.94,1-.59-.86-1.58-.65-.72.31-.85-.57-.79,1-.5.85,1.14.52-1.15.6-1,.64-.65.65-2.1h1.93l1.21-.7,1.43-.15-.37-.83-.1-1.72.93-1.3h1.12l.34-.75,1.46,0,1.28-.75.78-1c2.3-.08,2.3-.08,3.4.26l-.44.44c-.6,0-1.2,0-1.83,0l-1,.75a5.52,5.52,0,0,0,.15,1.07l.8.33.8-.7.59-.42,1.16-.35,1.21-.62,1.23-.3.85-1.16.86-.81,0-.93-1.26.35-.74,1.41-1.51.1-1.29-.58-1.37-1-.82-1.69,1.07-.86L126,46l-1.66-.11-1.75.54-1.94,1.12-1.88,1.85-1.54,1.07.59-1,.92-1.07.59-.52-1.55-.38h1.93l.44-.92,1-.84,1.24-.08.46-1,1-.39,1.63,0,2.94-.11,1.53.22,1.16-.09,1-.85.85-1.15,1.82-.23.89-.39"/></g><path class="cls-7" d="M160.71,73.75A486.49,486.49,0,0,1,114.32,119C106.14,126,97.66,132.75,89,139.29S71.44,152,62.27,157.77c-4.62,2.87-9.31,5.63-14.1,8.23s-9.67,5.07-14.74,7.2a74.62,74.62,0,0,1-16,5,22.9,22.9,0,0,1-9,0A10.71,10.71,0,0,1,4,175.77a9.17,9.17,0,0,1-2.6-4.52,18.1,18.1,0,0,1,.54-9A45.2,45.2,0,0,1,5,154.4a109,109,0,0,1,8.44-14.06,225.5,225.5,0,0,1,20.62-25c-6.48,8.63-12.84,17.33-18.38,26.49a110.23,110.23,0,0,0-7.43,14.08,47.58,47.58,0,0,0-2.5,7.32,14.23,14.23,0,0,0-.24,6.94,4.81,4.81,0,0,0,1.44,2.34,6.17,6.17,0,0,0,2.64,1.18,18.8,18.8,0,0,0,7.09-.22,69.83,69.83,0,0,0,14.74-5,221.88,221.88,0,0,0,28-15.3c9.09-5.63,17.91-11.72,26.6-18s17.21-12.83,25.65-19.47C128.43,102.3,144.75,88.27,160.71,73.75Z"/><path class="cls-8" d="M192.87,64.42c-3.42,3-11.41-.63-17.86-8s-8.89-15.83-5.47-18.8L208.18,4l23.33,26.83Z"/><path class="cls-8" d="M231.51,30.82c-3.42,3-10.07-1.78-16.52-9.19S204.77,7,208.18,4c7.64-6.64,30.53-3,30.53-3S239.15,24.18,231.51,30.82Z"/><path class="cls-8" d="M208.61,73.1c5.18-4.5,6.93-28.39,6.93-28.39L187.56,69l11.08,12.74Z"/><rect class="cls-9" x="188.6" y="66.75" width="16.88" height="10.45" transform="translate(122.09 -123.96) rotate(49)"/><path class="cls-8" d="M163.13,20.78c5.17-4.5,29.08-2.91,29.08-2.91l-28,24.32L153.16,29.45Z"/><rect class="cls-9" x="154.2" y="27.17" width="16.88" height="10.45" transform="translate(244.89 176.39) rotate(-131)"/><path class="cls-9" d="M193.08,63.17a7.07,7.07,0,0,1-2-.05c-.35-.06-.72-.13-1.09-.23a15.42,15.42,0,0,1-2.34-.84,31.05,31.05,0,0,1-10.07-7.91,31,31,0,0,1-6.43-11.07,14.67,14.67,0,0,1-.51-2.43,11,11,0,0,1-.07-1.12,7.28,7.28,0,0,1,.22-2,5.71,5.71,0,0,1,.31-.85,4.09,4.09,0,0,1,1-1.35l-7.31,6.35c-3.42,3-1,11.39,5.48,18.8s14.43,11,17.85,8l7.31-6.36A4.1,4.1,0,0,1,194,63,6,6,0,0,1,193.08,63.17Z"/><path class="cls-9" d="M206.5,51.5a7.07,7.07,0,0,1-2,0,9.24,9.24,0,0,1-1.09-.23,13.52,13.52,0,0,1-2.34-.84A30.89,30.89,0,0,1,191,42.47a30.81,30.81,0,0,1-6.44-11.06,15,15,0,0,1-.51-2.44,10.86,10.86,0,0,1-.07-1.12,7.33,7.33,0,0,1,.22-2,5.21,5.21,0,0,1,.31-.84,4,4,0,0,1,1-1.36L178.23,30c-3.42,3-1,11.39,5.48,18.8s14.43,11,17.85,8l7.31-6.35a4.08,4.08,0,0,1-1.49.81A4.73,4.73,0,0,1,206.5,51.5Z"/><path class="cls-9" d="M219.93,39.84a8,8,0,0,1-2-.05c-.35-.06-.72-.14-1.09-.23a14.84,14.84,0,0,1-2.34-.85,30.76,30.76,0,0,1-10.06-7.91A30.88,30.88,0,0,1,198,19.74a14.78,14.78,0,0,1-.51-2.44,10.67,10.67,0,0,1-.07-1.11,6.9,6.9,0,0,1,.23-2,5.69,5.69,0,0,1,.3-.85A4.13,4.13,0,0,1,199,12l-7.31,6.36c-3.41,3-1,11.38,5.48,18.79s14.43,11,17.85,8l7.31-6.35a4.11,4.11,0,0,1-1.48.81A5.1,5.1,0,0,1,219.93,39.84Z"/></svg>