<svg class="header-icon" id="query-collection" viewBox="0 0 16 16">
  <path
    d="M6.54202 14.4C6.57512 14.4016 6.60793 14.3933 6.63628 14.3761C6.66462 14.359 6.68722 14.3338 6.70117 14.3037C6.71512 14.2737 6.7198 14.2402 6.71461 14.2074C6.70942 14.1747 6.69459 14.1443 6.67202 14.12C6.13985 13.5484 5.75938 12.8525 5.56536 12.096C5.55731 12.0635 5.53953 12.0342 5.5144 12.012C5.48926 11.9899 5.45797 11.9759 5.42469 11.972C3.90601 11.8551 2.44485 11.3405 1.18802 10.48C1.16365 10.46 1.13408 10.4474 1.10278 10.4435C1.07147 10.4397 1.03973 10.4449 1.01126 10.4585C0.982793 10.472 0.95878 10.4934 0.942032 10.5202C0.925284 10.5469 0.916493 10.5778 0.91669 10.6094V11.7534C0.91669 13.122 3.37869 14.2487 6.54202 14.4Z">
  </path>
  <path
    d="M5.74736 9.218C5.75686 9.19415 5.76072 9.16842 5.75863 9.14283C5.75655 9.11724 5.74859 9.09247 5.73536 9.07047C5.72213 9.04846 5.70399 9.02981 5.68237 9.01597C5.66074 9.00213 5.63621 8.99347 5.61069 8.99067C4.02754 8.89089 2.50019 8.36804 1.18802 7.47667C1.16365 7.45666 1.13408 7.444 1.10278 7.44019C1.07147 7.43637 1.03973 7.44155 1.01126 7.45512C0.982793 7.46869 0.95878 7.49008 0.942032 7.51681C0.925284 7.54353 0.916493 7.57447 0.91669 7.606V8.75C0.91669 9.926 2.72402 10.922 5.23136 11.2773C5.25561 11.2807 5.2803 11.2786 5.30369 11.2714C5.32708 11.2642 5.34859 11.2519 5.3667 11.2354C5.38482 11.2189 5.39911 11.1987 5.40855 11.1761C5.41799 11.1535 5.42237 11.1291 5.42136 11.1047C5.39649 10.4599 5.50757 9.81706 5.74736 9.218Z">
  </path>
  <path
    d="M7.25002 6.08333C4.91669 6.08333 2.47936 5.528 1.18802 4.476C1.16365 4.45598 1.13408 4.44333 1.10278 4.43951C1.07147 4.4357 1.03973 4.44088 1.01126 4.45445C0.982793 4.46801 0.95878 4.48941 0.942032 4.51613C0.925284 4.54285 0.916493 4.57379 0.91669 4.60533V5.75C0.91669 7.05533 3.14536 8.138 6.08536 8.36866C6.11459 8.37104 6.14394 8.36563 6.1704 8.35299C6.19687 8.34034 6.21951 8.3209 6.23602 8.29666C6.92352 7.2849 7.9803 6.58303 9.1795 6.34172C10.3787 6.10041 11.6247 6.3389 12.65 7.00599C12.6791 7.02485 12.7133 7.03421 12.748 7.03277C12.7826 7.03134 12.8159 7.01919 12.8434 6.99799C13.674 6.35266 13.6027 5.90466 13.5854 4.602C13.585 4.57069 13.5759 4.5401 13.5589 4.51378C13.542 4.48745 13.518 4.46645 13.4896 4.45321C13.4612 4.43996 13.4297 4.43501 13.3986 4.43892C13.3675 4.44284 13.3382 4.45546 13.314 4.47533C12.0227 5.528 9.58802 6.08333 7.25002 6.08333Z">
  </path>
  <path
    d="M7.25002 5.41665C10.7478 5.41665 13.5834 4.22274 13.5834 2.74998C13.5834 1.27722 10.7478 0.083313 7.25002 0.083313C3.75222 0.083313 0.916687 1.27722 0.916687 2.74998C0.916687 4.22274 3.75222 5.41665 7.25002 5.41665Z">
  </path>
  <path
    d="M13.232 13.1227C13.2051 13.0959 13.1882 13.0607 13.1842 13.0229C13.1802 12.9852 13.1893 12.9472 13.21 12.9153C13.7004 12.1474 13.89 11.2255 13.7424 10.3263C13.5947 9.42722 13.1203 8.61428 12.4101 8.04348C11.6999 7.47267 10.804 7.18421 9.89415 7.23343C8.98433 7.28265 8.12472 7.66609 7.48025 8.31018C6.83577 8.95427 6.45183 9.81366 6.40207 10.7234C6.35231 11.6332 6.64024 12.5294 7.21062 13.2399C7.78101 13.9504 8.59367 14.4253 9.4927 14.5735C10.3917 14.7216 11.3138 14.5326 12.082 14.0427C12.114 14.0223 12.152 14.0134 12.1897 14.0176C12.2274 14.0217 12.2625 14.0385 12.2893 14.0653L13.9453 15.7213C14.0072 15.7833 14.0807 15.8324 14.1616 15.866C14.2425 15.8995 14.3292 15.9168 14.4168 15.9168C14.5043 15.9168 14.5911 15.8996 14.672 15.8661C14.7529 15.8327 14.8264 15.7836 14.8883 15.7217C14.9503 15.6598 14.9994 15.5863 15.033 15.5054C15.0665 15.4245 15.0838 15.3378 15.0838 15.2502C15.0838 15.1627 15.0666 15.076 15.0331 14.995C14.9997 14.9141 14.9506 14.8406 14.8887 14.7787L13.232 13.1227ZM7.75001 10.9333C7.75001 10.4679 7.88805 10.0128 8.14667 9.62583C8.40529 9.23881 8.77287 8.93718 9.20292 8.75908C9.63297 8.58098 10.1062 8.53442 10.5627 8.62527C11.0192 8.71613 11.4385 8.94033 11.7676 9.26952C12.0967 9.5987 12.3208 10.0181 12.4115 10.4746C12.5023 10.9312 12.4556 11.4044 12.2774 11.8344C12.0991 12.2644 11.7974 12.6319 11.4103 12.8904C11.0232 13.1489 10.5682 13.2868 10.1027 13.2867C9.47882 13.286 8.88071 13.0378 8.43964 12.5966C7.99856 12.1554 7.75054 11.5572 7.75001 10.9333Z">
  </path>
</svg>
