<svg class="header-icon" id="workspaces" viewBox="0 0 16 16">
  <g clip-path="url(#clip0)">
    <path fill-rule="evenodd" clip-rule="evenodd"
      d="M5.51733 7.31942C5.51733 7.27508 5.51879 7.23108 5.52164 7.18748C5.53647 6.96135 5.58915 6.74548 5.67342 6.54629C5.80961 6.22432 5.96668 5.95438 6.30295 5.737C6.68548 5.48973 6.99728 5.5172 7.44841 5.5172H13.9589C14.9187 5.5172 15.7747 6.01404 15.9599 6.91915C15.9863 7.04842 16.0003 7.18228 16.0003 7.31942V14.0138C16.0003 15.1107 15.111 16 14.014 16H7.50355C6.4066 16 5.51733 15.1107 5.51733 14.0138V7.31942ZM14.8967 7.72422L6.62079 7.72408V14.0138C6.62079 14.3794 7.13788 14.8966 7.50355 14.8966H14.014C14.3797 14.8966 14.8967 14.3795 14.8967 14.0138V7.72422Z">
    </path>
    <path d="M7.72412 9.93115H12.1379V11.0346H7.72412V9.93115Z"></path>
    <path d="M7.72412 12.138H13.2414V13.2415H7.72412V12.138Z"></path>
    <path d="M2.20679 6.62079H4.4137V7.72422H2.20679V6.62079Z"></path>
    <path d="M2.20679 4.41388H4.96543V5.51734H2.20679V4.41388Z"></path>
    <path
      d="M9.3794 2.20691V4.41383H10.4829V1.98623C10.4829 0.889267 9.81427 0 8.71733 0H1.98622C0.88926 0 0 0.889267 0 1.98623V8.68053C0 9.77747 0.889267 10.4829 1.98623 10.4829H4.41383V9.3794H1.76553C1.39988 9.3794 1.10346 9.0462 1.10346 8.68053V2.20691H9.3794Z">
    </path>
  </g>
</svg>
