<svg class="header-icon" id="manual-segment" viewBox="0 0 16 16">
  <path
    d="M14.907 9.15109C15.4514 9.24182 15.8255 9.75938 15.6679 10.2883C14.6836 13.5915 11.6231 15.9999 8 15.9999C3.58172 15.9999 0 12.4182 0 7.99992C0 4.37687 2.40844 1.31633 5.71163 0.332001C6.24055 0.174388 6.7581 0.54851 6.84883 1.0929C6.93972 1.63822 6.5663 2.14592 6.04365 2.3261C3.69049 3.13732 2 5.3712 2 7.99992C2 11.3136 4.68629 13.9999 8 13.9999C10.6287 13.9999 12.8626 12.3094 13.6738 9.95627C13.854 9.43362 14.3617 9.0602 14.907 9.15109Z">
  </path>
  <path
    d="M14.9992 7.99997C15.5517 7.99997 16.0058 7.54942 15.9367 7.0013C15.481 3.38558 12.614 0.513325 8.998 0.0618513C8.44997 -0.00657207 8.00001 0.447712 8.00001 0.999995C8 1.55228 8.45108 1.99127 8.99582 2.08226C11.5119 2.50255 13.4979 4.48869 13.9179 7.00492C14.0087 7.54924 14.4474 7.99997 14.9992 7.99997Z">
  </path>
  <path
    d="M7.48979 5.94791L8.77095 4.66669H10.0522L8.77095 5.94791L9.09131 6.90885L10.0522 7.22914L11.3334 5.94791V7.22914L10.0522 8.51037H8.77095L6.23028 11.1964C5.87981 11.5669 5.29263 11.5751 4.932 11.2145C4.58527 10.8678 4.57748 10.308 4.91444 9.95178L7.48979 7.22914V5.94791Z">
  </path>
</svg>
