<svg class="header-icon" id="queue-draft" viewBox="0 0 16 16">
  <path
    d="M8.5 3.33331H4.5C4.22386 3.33331 4 3.55717 4 3.83331C4 4.10946 4.22386 4.33331 4.5 4.33331H8.5C8.77614 4.33331 9 4.10946 9 3.83331C9 3.55717 8.77614 3.33331 8.5 3.33331Z">
  </path>
  <path
    d="M9.00002 6.16669C9.00002 5.89054 8.77616 5.66669 8.50002 5.66669H3.16669C2.89054 5.66669 2.66669 5.89054 2.66669 6.16669C2.66669 6.44283 2.89054 6.66669 3.16669 6.66669H8.50002C8.77616 6.66669 9.00002 6.44283 9.00002 6.16669Z">
  </path>
  <path
    d="M3.16669 8C2.89054 8 2.66669 8.22386 2.66669 8.5C2.66669 8.77614 2.89054 9 3.16669 9H6.83335C7.1095 9 7.33335 8.77614 7.33335 8.5C7.33335 8.22386 7.1095 8 6.83335 8H3.16669Z">
  </path>
  <path
    d="M7.53333 11.77C7.50738 11.7078 7.44675 11.6671 7.37933 11.6667H1.66667C1.48257 11.6667 1.33333 11.5174 1.33333 11.3333V1.66667C1.33333 1.48257 1.48257 1.33333 1.66667 1.33333H10.3333C10.5174 1.33333 10.6667 1.48257 10.6667 1.66667V8.38C10.6668 8.44738 10.7075 8.50805 10.7698 8.53372C10.8321 8.5594 10.9037 8.54504 10.9513 8.49733L11.8047 7.644C11.9297 7.519 12 7.34946 12 7.17267V1.33333C12 0.596954 11.403 0 10.6667 0H1.33333C0.596954 0 0 0.596954 0 1.33333V11.6667C0 12.403 0.596954 13 1.33333 13H6.57867C6.72504 13 6.8543 12.9046 6.89733 12.7647C6.96081 12.5576 7.07545 12.3698 7.23067 12.2187L7.49733 11.952C7.54511 11.9042 7.55933 11.8324 7.53333 11.77Z">
  </path>
  <path
    d="M8.04133 13.4207C7.99767 13.3776 7.93397 13.3619 7.8753 13.3797C7.81664 13.3975 7.7724 13.446 7.76 13.506L7.34133 15.6C7.32131 15.6981 7.34643 15.8 7.40975 15.8775C7.47308 15.955 7.56789 16 7.668 16C7.6904 16.0002 7.71275 15.9979 7.73467 15.9933L9.83 15.574C9.89021 15.5618 9.93883 15.5175 9.95654 15.4587C9.97424 15.3998 9.95815 15.336 9.91467 15.2927L8.04133 13.4207Z">
  </path>
  <path
    d="M15.4854 7.84334C14.8037 7.16355 13.7004 7.16355 13.0187 7.84334L8.68536 12.1767C8.55524 12.3068 8.55524 12.5178 8.68536 12.648L10.6854 14.648C10.8155 14.7781 11.0265 14.7781 11.1567 14.648L15.49 10.3147C15.8172 9.98636 16.0005 9.54152 15.9996 9.07804C15.9987 8.61456 15.8137 8.17042 15.4854 7.84334Z">
  </path>
</svg>
