<?xml version="1.0" encoding="utf-8"?>
<!-- Generator: Adobe Illustrator 23.0.4, SVG Export Plug-In . SVG Version: 6.00 Build 0)  -->
<svg version="1.1" xmlns="http://www.w3.org/2000/svg" xmlns:xlink="http://www.w3.org/1999/xlink" x="0px" y="0px"
	 viewBox="0 0 400 200" style="enable-background:new 0 0 400 200;" xml:space="preserve">
<style type="text/css">
	.st0{fill:#F2F2F2;}
	.st1{fill:#B3B3B3;}
	.st2{fill:#E6E6E6;}
	.st3{fill:#555555;}
	.st4{font-family:'DejaVuSans-Bold';}
	.st5{font-size:16px;}
	.st6{fill:#FFFFFF;}
	.st7{font-size:14px;}
	.st8{font-family:'DejaVuSansCondensed-Bold';}
</style>
<g id="Fond">
	<rect class="st0" width="400" height="200"/>
	<g>
		<path class="st1" d="M61.55,162c0-0.19,0.05-0.38,0.14-0.55l1.68-2.91c0.19-0.34,0.55-0.55,0.95-0.55h3.35
			c0.39,0,0.75,0.21,0.95,0.55l1.68,2.91c0.19,0.33,0.19,0.76,0,1.09l-1.68,2.91c-0.19,0.34-0.55,0.55-0.95,0.55h-3.35
			c-0.39,0-0.75-0.21-0.95-0.55l-1.68-2.91C61.6,162.38,61.55,162.2,61.55,162 M69.88,162c0-0.09-0.02-0.18-0.07-0.26l-1.68-2.91
			c-0.09-0.16-0.26-0.26-0.45-0.26h-3.35c-0.19,0-0.36,0.1-0.45,0.26l-1.68,2.91c-0.09,0.16-0.09,0.37,0,0.52l1.68,2.91
			c0.09,0.16,0.26,0.26,0.45,0.26h3.35c0.19,0,0.36-0.1,0.45-0.26l1.68-2.91C69.86,162.18,69.88,162.09,69.88,162"/>
	</g>
	<g>
		<path class="st1" d="M35.77,157.99c0.04-0.07,0.09-0.13,0.15-0.17l1.14-0.74c0.13-0.09,0.3-0.1,0.44-0.02l1.21,0.62
			c0.14,0.07,0.23,0.21,0.24,0.37l0.07,1.36c0.01,0.16-0.07,0.31-0.2,0.39l-1.14,0.74c-0.13,0.09-0.3,0.1-0.44,0.02l-1.21-0.62
			c-0.14-0.07-0.23-0.21-0.24-0.37l-0.07-1.36C35.71,158.13,35.73,158.06,35.77,157.99 M38.78,159.52c0.02-0.03,0.02-0.07,0.02-0.11
			l-0.07-1.36c0-0.08-0.05-0.14-0.11-0.18l-1.21-0.62c-0.07-0.03-0.15-0.03-0.21,0.01l-1.14,0.74c-0.06,0.04-0.1,0.12-0.1,0.19
			l0.07,1.36c0,0.08,0.05,0.14,0.11,0.18l1.21,0.62c0.07,0.03,0.15,0.03,0.21-0.01l1.14-0.74
			C38.74,159.58,38.76,159.55,38.78,159.52"/>
	</g>
	<g>
		<path class="st1" d="M239.8,62.19c-0.13,0.13-0.29,0.22-0.47,0.27l-3.09,0.81c-0.36,0.09-0.74-0.01-1-0.27L233,60.72
			c-0.26-0.26-0.36-0.65-0.26-1.01l0.85-3.08c0.1-0.35,0.38-0.64,0.74-0.73l3.09-0.81c0.36-0.09,0.74,0.01,1,0.27l2.24,2.27
			c0.26,0.26,0.36,0.65,0.26,1.01l-0.85,3.08C240.03,61.91,239.94,62.06,239.8,62.19 M234.24,56.56c-0.06,0.06-0.11,0.14-0.13,0.23
			l-0.85,3.08c-0.05,0.17,0,0.36,0.12,0.48l2.24,2.27c0.12,0.13,0.31,0.18,0.48,0.13l3.09-0.81c0.17-0.04,0.31-0.18,0.35-0.35
			l0.85-3.08c0.05-0.17,0-0.36-0.12-0.48l-2.24-2.27c-0.12-0.13-0.31-0.18-0.48-0.13l-3.09,0.81
			C234.38,56.45,234.3,56.5,234.24,56.56"/>
	</g>
	<g>
		<path class="st1" d="M261.24,154.68c0.05,0.17,0.06,0.35,0.02,0.52l-0.71,3.03c-0.08,0.35-0.34,0.63-0.69,0.74l-2.97,0.9
			c-0.35,0.11-0.72,0.02-0.99-0.23l-2.27-2.13c-0.26-0.24-0.37-0.62-0.29-0.97l0.71-3.03c0.08-0.35,0.34-0.63,0.69-0.74l2.97-0.9
			c0.35-0.11,0.72-0.02,0.99,0.23l2.27,2.13C261.09,154.36,261.18,154.51,261.24,154.68 M253.85,156.92
			c0.02,0.08,0.07,0.15,0.14,0.22l2.27,2.13c0.12,0.12,0.31,0.16,0.47,0.11l2.97-0.9c0.17-0.05,0.29-0.19,0.33-0.36l0.71-3.03
			c0.04-0.16-0.02-0.35-0.14-0.46l-2.27-2.13c-0.12-0.12-0.31-0.16-0.47-0.11l-2.97,0.9c-0.17,0.05-0.29,0.19-0.33,0.36l-0.71,3.03
			C253.82,156.75,253.83,156.84,253.85,156.92"/>
	</g>
	<g>
		<path class="st1" d="M312.09,55.2c-0.11-0.07-0.2-0.16-0.26-0.27l-1.06-1.97c-0.12-0.23-0.12-0.51,0.02-0.73l1.17-1.9
			c0.14-0.22,0.38-0.35,0.64-0.34l2.23,0.07c0.25,0.01,0.5,0.16,0.62,0.38l1.06,1.97c0.12,0.23,0.12,0.51-0.02,0.73l-1.17,1.9
			c-0.14,0.22-0.38,0.35-0.64,0.34l-2.23-0.07C312.32,55.3,312.2,55.27,312.09,55.2 M315.01,50.49c-0.05-0.03-0.11-0.05-0.18-0.05
			l-2.23-0.07c-0.12-0.01-0.24,0.06-0.31,0.16l-1.17,1.9c-0.07,0.11-0.07,0.24-0.01,0.35l1.06,1.97c0.06,0.11,0.18,0.18,0.3,0.18
			l2.23,0.07c0.12,0.01,0.24-0.06,0.31-0.16l1.17-1.9c0.07-0.11,0.07-0.24,0.01-0.35l-1.06-1.97
			C315.1,50.56,315.06,50.52,315.01,50.49"/>
	</g>
	<g>
		<path class="st1" d="M312.35,34.32c0.03-0.15,0.11-0.29,0.21-0.41l1.84-1.99c0.21-0.23,0.53-0.33,0.84-0.26l2.64,0.59
			c0.31,0.07,0.56,0.3,0.65,0.6l0.81,2.59c0.09,0.3,0.02,0.63-0.19,0.86l-1.84,1.99c-0.21,0.23-0.53,0.33-0.84,0.26l-2.64-0.59
			c-0.31-0.07-0.56-0.3-0.65-0.6l-0.81-2.59C312.32,34.63,312.32,34.47,312.35,34.32 M318.91,35.79c0.02-0.07,0.01-0.15-0.01-0.22
			l-0.81-2.59c-0.04-0.14-0.16-0.26-0.31-0.29l-2.64-0.59c-0.15-0.03-0.3,0.02-0.4,0.13l-1.84,1.99c-0.1,0.11-0.14,0.27-0.09,0.41
			l0.81,2.59c0.04,0.14,0.16,0.26,0.31,0.29l2.64,0.59c0.15,0.03,0.3-0.02,0.4-0.13l1.84-1.99
			C318.86,35.93,318.9,35.86,318.91,35.79"/>
	</g>
	<g>
		<path class="st1" d="M320.59,15.92c-0.08,0.01-0.17,0.01-0.25-0.03l-1.38-0.53c-0.16-0.06-0.28-0.2-0.3-0.37l-0.23-1.46
			c-0.03-0.17,0.04-0.34,0.17-0.45l1.15-0.93c0.13-0.11,0.32-0.14,0.47-0.07l1.38,0.53c0.16,0.06,0.28,0.2,0.3,0.37l0.23,1.46
			c0.03,0.17-0.04,0.34-0.17,0.45l-1.15,0.93C320.75,15.87,320.67,15.9,320.59,15.92 M320.02,12.3c-0.04,0.01-0.08,0.02-0.11,0.05
			l-1.15,0.93c-0.06,0.05-0.1,0.13-0.08,0.21l0.23,1.46c0.01,0.08,0.07,0.15,0.15,0.18l1.38,0.53c0.07,0.03,0.17,0.01,0.23-0.04
			l1.15-0.93c0.06-0.05,0.1-0.13,0.08-0.21l-0.23-1.46c-0.01-0.08-0.07-0.15-0.15-0.18l-1.38-0.53
			C320.1,12.29,320.06,12.29,320.02,12.3"/>
	</g>
	<g>
		<path class="st1" d="M342.71,48.85c0.01,0.18-0.03,0.36-0.12,0.52l-1.48,2.82c-0.17,0.33-0.5,0.54-0.87,0.56l-3.18,0.13
			c-0.37,0.02-0.72-0.17-0.92-0.48l-1.7-2.69c-0.2-0.31-0.21-0.71-0.04-1.03l1.48-2.82c0.17-0.33,0.5-0.54,0.87-0.56l3.18-0.13
			c0.37-0.02,0.72,0.17,0.92,0.48l1.7,2.69C342.65,48.49,342.7,48.66,342.71,48.85 M334.82,49.17c0,0.09,0.03,0.17,0.08,0.25
			l1.7,2.69c0.09,0.15,0.26,0.24,0.44,0.23l3.18-0.13c0.18-0.01,0.34-0.11,0.42-0.27l1.48-2.82c0.08-0.15,0.07-0.35-0.02-0.5
			l-1.7-2.69c-0.09-0.15-0.26-0.24-0.44-0.23l-3.18,0.13c-0.18,0.01-0.34,0.11-0.42,0.27l-1.48,2.82
			C334.84,48.99,334.82,49.08,334.82,49.17"/>
	</g>
	<g>
		<path class="st1" d="M348.34,28.04c-0.34-0.04-0.65-0.17-0.93-0.37l-4.71-3.57c-0.55-0.41-0.84-1.09-0.75-1.77l0.73-5.86
			c0.09-0.68,0.53-1.27,1.16-1.53l5.45-2.3c0.62-0.26,1.37-0.17,1.9,0.24l4.71,3.57c0.55,0.41,0.84,1.09,0.75,1.77l-0.73,5.86
			c-0.09,0.68-0.53,1.27-1.16,1.53l-5.45,2.3C349.01,28.04,348.68,28.08,348.34,28.04 M350.17,13.5c-0.16-0.02-0.32,0-0.48,0.07
			l-5.45,2.3c-0.3,0.12-0.52,0.4-0.56,0.73l-0.73,5.86c-0.04,0.33,0.1,0.65,0.36,0.85l4.71,3.57c0.25,0.19,0.62,0.24,0.91,0.11
			l5.45-2.3c0.3-0.12,0.52-0.4,0.56-0.73l0.73-5.86c0.04-0.33-0.1-0.65-0.36-0.85l-4.71-3.57C350.48,13.58,350.32,13.52,350.17,13.5
			"/>
	</g>
	<g>
		<path class="st1" d="M368.25,5.64c-0.2-0.07-0.37-0.2-0.51-0.36l-2.36-2.85c-0.27-0.33-0.35-0.78-0.2-1.19l1.29-3.47
			c0.15-0.4,0.51-0.7,0.93-0.77l3.65-0.62c0.42-0.07,0.86,0.09,1.13,0.42l2.36,2.85c0.27,0.33,0.35,0.78,0.2,1.19l-1.29,3.47
			c-0.15,0.4-0.51,0.7-0.93,0.77l-3.65,0.62C368.66,5.73,368.45,5.71,368.25,5.64 M371.44-2.97c-0.09-0.03-0.2-0.04-0.3-0.03
			l-3.65,0.62c-0.2,0.03-0.38,0.17-0.45,0.37l-1.29,3.47c-0.07,0.19-0.03,0.41,0.1,0.57l2.36,2.85c0.13,0.15,0.35,0.23,0.54,0.2
			l3.65-0.62c0.2-0.03,0.38-0.17,0.45-0.37l1.29-3.47c0.07-0.19,0.03-0.41-0.1-0.57l-2.36-2.85C371.62-2.88,371.54-2.94,371.44-2.97
			"/>
	</g>
	<g>
		<path class="st1" d="M392.31,15.86c-0.44-0.36-0.77-0.81-0.97-1.35l-3.48-9.22c-0.41-1.06-0.21-2.28,0.51-3.16l6.24-7.61
			c0.73-0.89,1.88-1.32,3-1.13l9.73,1.6c1.11,0.18,2.08,0.97,2.47,2.03l3.48,9.22c0.41,1.06,0.21,2.28-0.51,3.16l-6.24,7.61
			c-0.73,0.89-1.88,1.32-3,1.13l-9.73-1.6C393.26,16.45,392.75,16.21,392.31,15.86 M407.8-3.04c-0.2-0.17-0.45-0.28-0.74-0.33
			l-9.73-1.6c-0.54-0.1-1.09,0.11-1.44,0.53l-6.24,7.61c-0.35,0.42-0.44,1.01-0.24,1.52l3.48,9.22c0.19,0.5,0.67,0.89,1.19,0.97
			l9.73,1.6c0.54,0.1,1.09-0.11,1.44-0.53l6.24-7.61c0.35-0.42,0.44-1.01,0.24-1.52l-3.48-9.22C408.16-2.65,408-2.87,407.8-3.04"/>
	</g>
	<g>
		<path class="st1" d="M373.61,19.09c-0.03-0.12-0.03-0.24,0-0.36l0.55-2.05c0.06-0.24,0.25-0.42,0.49-0.49l2.04-0.54
			c0.24-0.06,0.49,0.01,0.67,0.18l1.5,1.5c0.17,0.17,0.24,0.43,0.18,0.66l-0.55,2.05c-0.06,0.24-0.25,0.42-0.49,0.49l-2.04,0.54
			c-0.24,0.06-0.49-0.01-0.67-0.18l-1.5-1.5C373.7,19.31,373.64,19.21,373.61,19.09 M378.69,17.74c-0.01-0.06-0.04-0.11-0.09-0.15
			l-1.5-1.5c-0.08-0.08-0.2-0.12-0.32-0.09l-2.04,0.54c-0.11,0.03-0.2,0.12-0.23,0.23l-0.55,2.05c-0.03,0.11,0,0.24,0.08,0.32
			l1.5,1.5c0.08,0.08,0.2,0.12,0.32,0.09l2.04-0.54c0.11-0.03,0.2-0.12,0.23-0.23l0.55-2.05C378.7,17.85,378.7,17.79,378.69,17.74"
			/>
	</g>
	<g>
		<path class="st1" d="M382.66,34.95c0.09-0.02,0.19-0.02,0.28,0.01l1.6,0.49c0.18,0.06,0.33,0.21,0.37,0.4l0.37,1.63
			c0.04,0.19-0.02,0.39-0.16,0.52l-1.22,1.14c-0.14,0.13-0.35,0.18-0.53,0.12l-1.6-0.49c-0.18-0.06-0.33-0.21-0.37-0.4l-0.37-1.63
			c-0.04-0.19,0.02-0.39,0.16-0.52l1.22-1.14C382.48,35.01,382.57,34.97,382.66,34.95 M383.59,38.98c0.04-0.01,0.08-0.03,0.12-0.06
			l1.22-1.14c0.07-0.06,0.1-0.16,0.08-0.25l-0.37-1.63c-0.02-0.09-0.09-0.16-0.18-0.19l-1.6-0.49c-0.09-0.03-0.19,0-0.25,0.06
			l-1.22,1.14c-0.07,0.06-0.1,0.16-0.08,0.25l0.37,1.63c0.02,0.09,0.09,0.16,0.18,0.19l1.6,0.49
			C383.5,38.99,383.54,38.99,383.59,38.98"/>
	</g>
	<g>
		<path class="st1" d="M359.07,56.86c-0.04-0.08-0.06-0.17-0.06-0.26l0.09-1.6c0.01-0.18,0.12-0.35,0.28-0.44l1.43-0.72
			c0.17-0.08,0.37-0.07,0.52,0.03l1.34,0.88c0.15,0.1,0.25,0.28,0.23,0.46l-0.09,1.6c-0.01,0.18-0.12,0.35-0.28,0.44l-1.43,0.72
			c-0.17,0.08-0.37,0.07-0.52-0.03l-1.34-0.88C359.17,57.01,359.11,56.95,359.07,56.86 M362.61,55.07c-0.02-0.04-0.05-0.07-0.09-0.1
			l-1.34-0.88c-0.07-0.05-0.17-0.06-0.25-0.02l-1.43,0.72c-0.08,0.04-0.13,0.12-0.14,0.21l-0.09,1.6c0,0.09,0.04,0.18,0.11,0.22
			l1.34,0.88c0.07,0.05,0.17,0.06,0.25,0.02l1.43-0.72c0.08-0.04,0.13-0.12,0.14-0.21l0.09-1.6
			C362.64,55.15,362.63,55.11,362.61,55.07"/>
	</g>
	<g>
		<path class="st1" d="M290.76,37.47c-0.03,0.06-0.07,0.11-0.13,0.15l-0.99,0.66c-0.11,0.08-0.26,0.09-0.39,0.03l-1.06-0.53
			c-0.12-0.06-0.21-0.18-0.21-0.32l-0.08-1.18c-0.01-0.14,0.06-0.27,0.17-0.35l0.99-0.66c0.11-0.08,0.26-0.09,0.39-0.03l1.06,0.53
			c0.12,0.06,0.21,0.18,0.21,0.32l0.08,1.18C290.8,37.34,290.79,37.41,290.76,37.47 M288.12,36.16c-0.01,0.03-0.02,0.06-0.02,0.1
			l0.08,1.18c0,0.07,0.04,0.13,0.1,0.15l1.06,0.53c0.06,0.03,0.13,0.02,0.18-0.01l0.99-0.66c0.05-0.04,0.09-0.1,0.08-0.17
			l-0.08-1.18c0-0.07-0.04-0.13-0.1-0.15l-1.06-0.53c-0.06-0.03-0.13-0.02-0.18,0.01l-0.99,0.66
			C288.16,36.11,288.13,36.14,288.12,36.16"/>
	</g>
	<g>
		<path class="st1" d="M140.46,156.28c0.03-0.11,0.08-0.21,0.15-0.29l1.32-1.4c0.15-0.16,0.38-0.23,0.6-0.18l1.87,0.44
			c0.22,0.05,0.39,0.22,0.46,0.43l0.56,1.84c0.06,0.21,0.01,0.45-0.14,0.61l-1.32,1.4c-0.15,0.16-0.38,0.23-0.6,0.18l-1.87-0.44
			c-0.22-0.05-0.39-0.22-0.46-0.43l-0.56-1.84C140.44,156.5,140.44,156.39,140.46,156.28 M145.11,157.37
			c0.01-0.05,0.01-0.1-0.01-0.16l-0.56-1.84c-0.03-0.1-0.11-0.18-0.22-0.21l-1.87-0.44c-0.1-0.02-0.21,0.01-0.29,0.09l-1.32,1.4
			c-0.07,0.08-0.1,0.19-0.07,0.29l0.56,1.84c0.03,0.1,0.11,0.18,0.22,0.21l1.87,0.44c0.1,0.02,0.21-0.01,0.29-0.09l1.32-1.4
			C145.07,157.47,145.1,157.42,145.11,157.37"/>
	</g>
	<g>
		<path class="st2" d="M176.81,148.49c0.02-0.09,0.06-0.17,0.13-0.24l1.12-1.19c0.13-0.14,0.32-0.2,0.51-0.15l1.59,0.37
			c0.19,0.04,0.33,0.18,0.39,0.36l0.47,1.56c0.05,0.18,0.01,0.38-0.12,0.52l-1.12,1.19c-0.13,0.14-0.32,0.2-0.51,0.15l-1.59-0.37
			c-0.19-0.04-0.33-0.18-0.39-0.36l-0.47-1.56C176.79,148.67,176.79,148.58,176.81,148.49 M180.75,149.41
			c0.01-0.04,0.01-0.09,0-0.13l-0.47-1.56c-0.02-0.09-0.1-0.15-0.18-0.18l-1.59-0.37c-0.09-0.02-0.18,0.01-0.24,0.08l-1.12,1.19
			c-0.06,0.06-0.08,0.16-0.06,0.25l0.47,1.56c0.02,0.09,0.1,0.15,0.18,0.18l1.59,0.37c0.09,0.02,0.18-0.01,0.24-0.08l1.12-1.19
			C180.72,149.49,180.74,149.45,180.75,149.41"/>
	</g>
	<g>
		<path class="st1" d="M154.48,169.26c0.08,0.04,0.14,0.1,0.19,0.18l0.81,1.32c0.09,0.15,0.1,0.34,0.01,0.5l-0.74,1.36
			c-0.09,0.16-0.25,0.26-0.43,0.26l-1.55,0.04c-0.18,0-0.35-0.09-0.44-0.24l-0.81-1.32c-0.09-0.15-0.1-0.34-0.01-0.5l0.74-1.36
			c0.09-0.16,0.25-0.26,0.43-0.26l1.55-0.04C154.32,169.2,154.4,169.22,154.48,169.26 M152.65,172.63c0.04,0.02,0.08,0.03,0.12,0.03
			l1.55-0.04c0.09,0,0.17-0.05,0.21-0.12l0.74-1.36c0.04-0.08,0.04-0.17-0.01-0.24l-0.81-1.32c-0.04-0.07-0.13-0.12-0.21-0.12
			l-1.55,0.04c-0.09,0-0.17,0.05-0.21,0.12l-0.74,1.36c-0.04,0.08-0.04,0.17,0.01,0.24l0.81,1.32
			C152.58,172.58,152.61,172.61,152.65,172.63"/>
	</g>
	<g>
		<path class="st1" d="M127.74,166.19c-0.05-0.14-0.06-0.29-0.03-0.44l0.53-2.56c0.06-0.3,0.28-0.54,0.57-0.64l2.48-0.82
			c0.29-0.1,0.61-0.03,0.83,0.17l1.96,1.74c0.22,0.2,0.33,0.51,0.27,0.81l-0.53,2.56c-0.06,0.3-0.28,0.54-0.57,0.64l-2.48,0.82
			c-0.29,0.1-0.61,0.03-0.83-0.17l-1.96-1.74C127.87,166.46,127.79,166.33,127.74,166.19 M133.91,164.15
			c-0.02-0.07-0.06-0.13-0.12-0.18l-1.96-1.74c-0.11-0.1-0.26-0.13-0.4-0.09l-2.48,0.82c-0.14,0.05-0.24,0.16-0.27,0.31l-0.53,2.56
			c-0.03,0.14,0.02,0.29,0.13,0.39l1.96,1.74c0.11,0.1,0.26,0.13,0.4,0.09l2.48-0.82c0.14-0.05,0.24-0.16,0.27-0.31l0.53-2.56
			C133.93,164.29,133.93,164.22,133.91,164.15"/>
	</g>
	<g>
		<path class="st1" d="M116.24,161.33c-0.06-0.06-0.11-0.13-0.13-0.21l-0.45-1.39c-0.05-0.16-0.02-0.34,0.1-0.46l0.98-1.08
			c0.11-0.13,0.29-0.18,0.45-0.15l1.43,0.3c0.16,0.03,0.3,0.16,0.35,0.32l0.45,1.39c0.05,0.16,0.02,0.34-0.1,0.46l-0.98,1.08
			c-0.11,0.13-0.29,0.18-0.45,0.15l-1.43-0.3C116.38,161.43,116.3,161.39,116.24,161.33 M118.66,158.64
			c-0.03-0.03-0.07-0.04-0.11-0.05l-1.43-0.3c-0.08-0.02-0.16,0.01-0.22,0.07l-0.98,1.08c-0.05,0.06-0.07,0.15-0.05,0.22l0.45,1.39
			c0.02,0.07,0.09,0.14,0.17,0.15l1.43,0.3c0.08,0.02,0.16-0.01,0.22-0.07l0.98-1.08c0.05-0.06,0.07-0.15,0.05-0.22l-0.45-1.39
			C118.72,158.7,118.69,158.67,118.66,158.64"/>
	</g>
	<g>
		<path class="st1" d="M85.89,154.21c-0.09,0-0.18-0.02-0.26-0.07l-1.38-0.79c-0.16-0.09-0.26-0.26-0.26-0.45v-1.59
			c0-0.19,0.1-0.36,0.26-0.45l1.38-0.79c0.16-0.09,0.36-0.09,0.52,0l1.38,0.79c0.16,0.09,0.26,0.26,0.26,0.45v1.59
			c0,0.19-0.1,0.36-0.26,0.45l-1.38,0.79C86.07,154.18,85.99,154.21,85.89,154.21 M85.89,150.27c-0.04,0-0.09,0.01-0.13,0.03
			l-1.38,0.79c-0.08,0.04-0.13,0.13-0.13,0.21v1.59c0,0.09,0.05,0.17,0.13,0.21l1.38,0.79c0.07,0.04,0.17,0.04,0.25,0l1.38-0.79
			c0.08-0.04,0.13-0.13,0.13-0.21v-1.59c0-0.09-0.05-0.17-0.13-0.21l-1.38-0.79C85.98,150.28,85.94,150.27,85.89,150.27"/>
	</g>
	<g>
		<path class="st1" d="M271.16,61.92c0.08,0.01,0.16,0.04,0.23,0.09l1.19,0.85c0.14,0.1,0.21,0.26,0.2,0.43l-0.15,1.45
			c-0.02,0.17-0.12,0.32-0.28,0.39l-1.33,0.6c-0.15,0.07-0.34,0.05-0.47-0.05l-1.19-0.85c-0.14-0.1-0.21-0.26-0.2-0.43l0.15-1.45
			c0.02-0.17,0.12-0.32,0.28-0.39l1.33-0.6C270.99,61.93,271.08,61.91,271.16,61.92 M270.8,65.53c0.04,0,0.08,0,0.12-0.02l1.33-0.6
			c0.07-0.03,0.13-0.1,0.13-0.18l0.15-1.45c0.01-0.08-0.03-0.16-0.1-0.21l-1.19-0.85c-0.06-0.05-0.16-0.06-0.23-0.02l-1.33,0.6
			c-0.07,0.03-0.13,0.1-0.13,0.18l-0.15,1.45c-0.01,0.08,0.03,0.16,0.1,0.21l1.19,0.85C270.72,65.51,270.76,65.53,270.8,65.53"/>
	</g>
	<g>
		<path class="st1" d="M55.09,186.96c-0.12,0.06-0.25,0.08-0.39,0.07l-2.34-0.2c-0.27-0.02-0.51-0.19-0.63-0.44l-1-2.13
			c-0.12-0.25-0.09-0.54,0.07-0.76l1.34-1.93c0.15-0.22,0.42-0.35,0.69-0.32l2.34,0.2c0.27,0.02,0.51,0.19,0.63,0.44l1,2.13
			c0.12,0.25,0.09,0.54-0.07,0.76l-1.34,1.93C55.31,186.82,55.21,186.9,55.09,186.96 M52.61,181.68c-0.06,0.03-0.11,0.07-0.15,0.12
			l-1.34,1.93c-0.08,0.11-0.09,0.25-0.03,0.37l1,2.13c0.06,0.12,0.17,0.2,0.3,0.21l2.34,0.2c0.13,0.01,0.26-0.05,0.33-0.16
			l1.34-1.93c0.08-0.11,0.09-0.25,0.03-0.37l-1-2.13c-0.06-0.12-0.17-0.2-0.3-0.21l-2.34-0.2
			C52.73,181.64,52.67,181.65,52.61,181.68"/>
	</g>
	<g>
		<path class="st1" d="M95.55,178.13c-0.09-0.03-0.17-0.09-0.23-0.16l-1.08-1.29c-0.13-0.15-0.16-0.35-0.09-0.54l0.58-1.58
			c0.07-0.18,0.23-0.32,0.42-0.35l1.66-0.29c0.19-0.03,0.39,0.04,0.51,0.19l1.08,1.29c0.13,0.15,0.16,0.35,0.09,0.54l-0.58,1.58
			c-0.07,0.18-0.23,0.32-0.42,0.35l-1.66,0.29C95.74,178.17,95.64,178.16,95.55,178.13 M96.99,174.21
			c-0.04-0.02-0.09-0.02-0.14-0.01l-1.66,0.29c-0.09,0.01-0.17,0.08-0.2,0.17l-0.58,1.58c-0.03,0.09-0.01,0.19,0.05,0.26l1.08,1.29
			c0.06,0.07,0.16,0.11,0.25,0.09l1.66-0.29c0.09-0.01,0.17-0.08,0.2-0.17l0.58-1.58c0.03-0.09,0.01-0.19-0.05-0.26l-1.08-1.29
			C97.07,174.25,97.03,174.23,96.99,174.21"/>
	</g>
	<g>
		<path class="st1" d="M27.74,172.66c0.1,0.03,0.2,0.09,0.27,0.17l1.28,1.39c0.15,0.16,0.2,0.39,0.14,0.6l-0.56,1.81
			c-0.07,0.21-0.24,0.37-0.45,0.42l-1.85,0.42c-0.21,0.05-0.44-0.02-0.59-0.18l-1.28-1.39c-0.15-0.16-0.2-0.39-0.14-0.6l0.56-1.81
			c0.07-0.21,0.24-0.37,0.45-0.42l1.85-0.42C27.53,172.63,27.63,172.63,27.74,172.66 M26.34,177.15c0.05,0.02,0.1,0.02,0.15,0.01
			l1.85-0.42c0.1-0.02,0.19-0.1,0.22-0.2l0.56-1.81c0.03-0.1,0.01-0.21-0.07-0.29l-1.28-1.39c-0.07-0.07-0.18-0.11-0.28-0.09
			l-1.85,0.42c-0.1,0.02-0.19,0.1-0.22,0.2l-0.56,1.81c-0.03,0.1-0.01,0.21,0.07,0.29l1.28,1.39
			C26.25,177.11,26.29,177.13,26.34,177.15"/>
	</g>
</g>
<g id="Logo">
	<rect y="184" class="st3" width="400" height="16"/>
	<text transform="matrix(1 0 0 1 57.4153 138.2832)"><tspan x="0" y="0" class="st4 st5">Anonymising and Masking Data </tspan><tspan x="107.47" y="19.2" class="st4 st5">with PG</tspan></text>
	<g>
		<g>
			<g>
				<g>
					<path class="st3" d="M118.39,56.72h11.08c3.29,0,5.82,0.73,7.58,2.19c1.76,1.46,2.64,3.54,2.64,6.25
						c0,2.72-0.88,4.81-2.64,6.27c-1.76,1.46-4.29,2.19-7.58,2.19h-4.4v8.98h-6.67V56.72z M125.06,61.55v7.23h3.69
						c1.3,0,2.29-0.31,3-0.94c0.7-0.63,1.06-1.52,1.06-2.68c0-1.15-0.35-2.04-1.06-2.67c-0.7-0.62-1.7-0.94-3-0.94H125.06z"/>
					<path class="st3" d="M151.59,62.71c3.34,0,5.95,0.9,7.83,2.7c1.88,1.8,2.82,4.3,2.82,7.49s-0.94,5.69-2.82,7.49
						c-1.88,1.8-4.49,2.7-7.83,2.7c-3.35,0-5.97-0.9-7.86-2.7c-1.89-1.8-2.83-4.3-2.83-7.49s0.94-5.69,2.83-7.49
						S148.24,62.71,151.59,62.71z M151.59,67.15c-1.38,0-2.42,0.49-3.14,1.48c-0.72,0.99-1.08,2.41-1.08,4.27
						c0,1.86,0.36,3.29,1.08,4.27c0.72,0.99,1.77,1.48,3.14,1.48c1.35,0,2.38-0.5,3.1-1.48c0.72-0.99,1.07-2.41,1.07-4.27
						c0-1.86-0.36-3.29-1.07-4.27C153.98,67.65,152.94,67.15,151.59,67.15z"/>
					<path class="st3" d="M180.13,63.79v4.72c-1.33-0.55-2.61-0.97-3.85-1.25c-1.24-0.28-2.41-0.42-3.5-0.42
						c-1.18,0-2.06,0.15-2.62,0.44c-0.57,0.3-0.86,0.75-0.86,1.36c0,0.5,0.22,0.88,0.65,1.14c0.43,0.26,1.21,0.46,2.33,0.59
						l1.09,0.16c3.18,0.4,5.32,1.07,6.41,1.99c1.1,0.92,1.65,2.38,1.65,4.35c0,2.07-0.76,3.62-2.29,4.66
						c-1.52,1.04-3.8,1.56-6.83,1.56c-1.28,0-2.61-0.1-3.98-0.3s-2.78-0.5-4.22-0.91v-4.71c1.24,0.6,2.5,1.05,3.81,1.35
						c1.3,0.3,2.62,0.45,3.96,0.45c1.22,0,2.13-0.17,2.74-0.5c0.61-0.34,0.92-0.83,0.92-1.49c0-0.55-0.21-0.97-0.63-1.24
						c-0.42-0.27-1.26-0.48-2.52-0.63l-1.09-0.14c-2.76-0.35-4.7-0.99-5.81-1.92c-1.11-0.94-1.66-2.36-1.66-4.26
						c0-2.06,0.7-3.58,2.11-4.58c1.41-0.99,3.57-1.49,6.48-1.49c1.14,0,2.34,0.09,3.61,0.26C177.28,63.15,178.65,63.42,180.13,63.79
						z"/>
					<path class="st3" d="M191.1,57.67v5.51h6.4v4.44h-6.4v8.23c0,0.9,0.18,1.51,0.54,1.83c0.36,0.32,1.07,0.48,2.13,0.48h3.19v4.44
						h-5.32c-2.45,0-4.18-0.51-5.21-1.53c-1.02-1.02-1.54-2.76-1.54-5.21v-8.23h-3.08v-4.44h3.08v-5.51L191.1,57.67L191.1,57.67z"/>
					<path class="st3" d="M212.72,79.3c-0.86,1.13-1.8,1.97-2.83,2.5c-1.03,0.53-2.22,0.8-3.57,0.8c-2.37,0-4.33-0.93-5.88-2.8
						c-1.55-1.86-2.32-4.24-2.32-7.13c0-2.9,0.77-5.28,2.32-7.13c1.55-1.86,3.51-2.78,5.88-2.78c1.35,0,2.54,0.27,3.57,0.8
						c1.03,0.53,1.97,1.37,2.83,2.51v-2.88h6.24v17.46c0,3.12-0.98,5.5-2.95,7.15c-1.97,1.65-4.83,2.47-8.57,2.47
						c-1.22,0-2.39-0.09-3.52-0.28c-1.13-0.18-2.27-0.47-3.42-0.85V84.3c1.09,0.62,2.15,1.09,3.19,1.4c1.04,0.3,2.09,0.46,3.14,0.46
						c2.03,0,3.53-0.45,4.47-1.34c0.95-0.89,1.42-2.28,1.42-4.18L212.72,79.3L212.72,79.3z M208.63,67.22c-1.28,0-2.28,0.47-3,1.42
						c-0.72,0.95-1.07,2.29-1.07,4.02c0,1.78,0.35,3.13,1.04,4.05c0.7,0.92,1.7,1.38,3.03,1.38c1.3,0,2.3-0.47,3.02-1.42
						c0.72-0.94,1.07-2.28,1.07-4c0-1.73-0.36-3.07-1.07-4.02C210.93,67.7,209.93,67.22,208.63,67.22z"/>
					<path class="st3" d="M237.57,68.47c-0.54-0.25-1.08-0.44-1.62-0.56c-0.54-0.12-1.08-0.18-1.62-0.18
						c-1.59,0-2.82,0.51-3.68,1.54c-0.86,1.02-1.29,2.49-1.29,4.39v8.94h-6.21V63.19h6.21v3.19c0.8-1.27,1.71-2.2,2.75-2.78
						c1.03-0.58,2.27-0.87,3.72-0.87c0.21,0,0.43,0.01,0.67,0.02c0.24,0.02,0.6,0.06,1.06,0.11L237.57,68.47z"/>
					<path class="st3" d="M258.26,72.84v1.77h-14.51c0.15,1.46,0.67,2.55,1.58,3.28c0.9,0.73,2.16,1.09,3.78,1.09
						c1.3,0,2.64-0.19,4.01-0.58c1.37-0.39,2.78-0.98,4.22-1.76v4.78c-1.47,0.55-2.94,0.98-4.4,1.26c-1.47,0.28-2.94,0.42-4.4,0.42
						c-3.51,0-6.24-0.89-8.19-2.68c-1.95-1.78-2.92-4.29-2.92-7.51c0-3.17,0.95-5.66,2.87-7.47c1.91-1.82,4.54-2.72,7.9-2.72
						c3.05,0,5.49,0.92,7.32,2.76C257.35,67.31,258.26,69.76,258.26,72.84z M251.88,70.78c0-1.18-0.34-2.13-1.03-2.85
						c-0.69-0.72-1.58-1.08-2.7-1.08c-1.2,0-2.18,0.34-2.93,1.01c-0.75,0.68-1.22,1.65-1.4,2.92L251.88,70.78L251.88,70.78z"/>
					<path class="st3" d="M279.47,57.53v5.48c-1.42-0.64-2.81-1.12-4.16-1.44c-1.35-0.32-2.63-0.49-3.83-0.49
						c-1.59,0-2.77,0.22-3.54,0.66c-0.76,0.44-1.14,1.12-1.14,2.04c0,0.7,0.26,1.23,0.77,1.62c0.51,0.39,1.45,0.72,2.8,1l2.84,0.57
						c2.88,0.58,4.92,1.46,6.14,2.63c1.21,1.18,1.82,2.86,1.82,5.03c0,2.86-0.85,4.98-2.54,6.37c-1.69,1.39-4.28,2.09-7.76,2.09
						c-1.64,0-3.29-0.15-4.94-0.47c-1.65-0.31-3.3-0.78-4.96-1.39v-5.63c1.65,0.88,3.25,1.54,4.79,1.98
						c1.54,0.44,3.03,0.67,4.46,0.67c1.46,0,2.57-0.24,3.34-0.73c0.78-0.49,1.16-1.18,1.16-2.08c0-0.81-0.26-1.43-0.79-1.87
						c-0.53-0.44-1.58-0.83-3.14-1.18l-2.58-0.57c-2.59-0.55-4.48-1.44-5.68-2.65c-1.2-1.21-1.79-2.85-1.79-4.9
						c0-2.58,0.83-4.56,2.5-5.94c1.66-1.38,4.06-2.08,7.18-2.08c1.42,0,2.88,0.11,4.39,0.32C276.31,56.78,277.87,57.1,279.47,57.53z
						"/>
					<path class="st3" d="M297.79,83.06h-0.52c-4.26,0-7.58-1.18-9.95-3.54c-2.37-2.36-3.55-5.64-3.55-9.84
						c0-4.2,1.18-7.48,3.54-9.86c2.36-2.38,5.62-3.57,9.77-3.57c4.19,0,7.46,1.18,9.8,3.54c2.34,2.36,3.51,5.66,3.51,9.9
						c0,2.91-0.62,5.42-1.86,7.52c-1.24,2.1-3.03,3.69-5.37,4.75l5.22,5.82h-6.36L297.79,83.06z M297.07,61.09
						c-2.03,0-3.61,0.75-4.73,2.26c-1.12,1.5-1.68,3.62-1.68,6.34c0,2.77,0.55,4.9,1.65,6.37c1.1,1.47,2.69,2.21,4.77,2.21
						c2.05,0,3.63-0.75,4.75-2.25c1.12-1.5,1.68-3.61,1.68-6.33c0-2.73-0.56-4.84-1.68-6.34C300.71,61.84,299.12,61.09,297.07,61.09
						z"/>
					<path class="st3" d="M313.66,56.72h6.67v20.84h11.72v5.04h-18.39L313.66,56.72L313.66,56.72z"/>
					<path class="st3" d="M134.09,109.38h-10.43l-1.65,4.71h-6.71l9.59-25.88h7.95l9.58,25.88h-6.71L134.09,109.38z M125.32,104.57
						h7.09l-3.54-10.3L125.32,104.57z"/>
					<path class="st3" d="M163.33,102.27v11.82h-6.24v-1.92v-7.13c0-1.68-0.04-2.83-0.11-3.47c-0.07-0.64-0.21-1.1-0.39-1.4
						c-0.24-0.4-0.57-0.72-0.99-0.94s-0.89-0.34-1.42-0.34c-1.3,0-2.31,0.5-3.05,1.5c-0.74,1-1.11,2.38-1.11,4.15v9.55h-6.21V94.67
						h6.21v2.84c0.94-1.13,1.93-1.97,2.98-2.5c1.05-0.54,2.21-0.81,3.48-0.81c2.24,0,3.94,0.69,5.1,2.06
						C162.75,97.65,163.33,99.64,163.33,102.27z"/>
					<path class="st3" d="M176.55,94.21c3.34,0,5.95,0.9,7.83,2.7c1.88,1.8,2.82,4.3,2.82,7.49s-0.94,5.69-2.82,7.49
						c-1.88,1.8-4.49,2.7-7.83,2.7c-3.35,0-5.97-0.9-7.86-2.7c-1.89-1.8-2.83-4.3-2.83-7.49s0.94-5.69,2.83-7.49
						C170.57,95.11,173.2,94.21,176.55,94.21z M176.55,98.65c-1.38,0-2.42,0.49-3.14,1.48c-0.72,0.99-1.08,2.41-1.08,4.27
						c0,1.86,0.36,3.29,1.08,4.27c0.72,0.99,1.77,1.48,3.14,1.48c1.35,0,2.38-0.5,3.1-1.48c0.72-0.99,1.07-2.41,1.07-4.27
						c0-1.86-0.36-3.29-1.07-4.27C178.93,99.14,177.9,98.65,176.55,98.65z"/>
					<path class="st3" d="M209.44,102.27v11.82h-6.24v-1.92v-7.13c0-1.68-0.04-2.83-0.11-3.47c-0.07-0.64-0.21-1.1-0.39-1.4
						c-0.24-0.4-0.57-0.72-0.99-0.94c-0.42-0.22-0.89-0.34-1.42-0.34c-1.3,0-2.31,0.5-3.05,1.5c-0.74,1-1.11,2.38-1.11,4.15v9.55
						h-6.21V94.67h6.21v2.84c0.94-1.13,1.93-1.97,2.98-2.5c1.05-0.54,2.21-0.81,3.48-0.81c2.24,0,3.94,0.69,5.1,2.06
						C208.86,97.65,209.44,99.64,209.44,102.27z"/>
					<path class="st3" d="M210.87,94.68h6.21l5.22,13.17l4.44-13.17h6.21l-8.17,21.25c-0.82,2.16-1.78,3.67-2.87,4.53
						c-1.09,0.86-2.53,1.29-4.33,1.29h-3.59v-4.07h1.94c1.05,0,1.82-0.17,2.3-0.5c0.48-0.34,0.85-0.94,1.12-1.8l0.17-0.54
						L210.87,94.68z"/>
					<path class="st3" d="M252.77,97.9c0.79-1.2,1.72-2.12,2.8-2.75c1.08-0.63,2.27-0.94,3.56-0.94c2.23,0,3.93,0.69,5.1,2.06
						c1.17,1.38,1.75,3.38,1.75,6v11.82h-6.24v-10.12c0.01-0.15,0.02-0.3,0.03-0.47c0.01-0.16,0.01-0.39,0.01-0.7
						c0-1.38-0.2-2.37-0.61-2.99c-0.41-0.62-1.06-0.93-1.96-0.93c-1.18,0-2.09,0.49-2.73,1.46c-0.64,0.97-0.98,2.38-1,4.21v9.53
						h-6.24v-10.12c0-2.15-0.18-3.53-0.55-4.15c-0.37-0.62-1.03-0.93-1.98-0.93c-1.19,0-2.11,0.49-2.76,1.46
						c-0.65,0.98-0.97,2.37-0.97,4.19v9.55h-6.24V94.67h6.24v2.84c0.76-1.1,1.64-1.92,2.62-2.48c0.99-0.55,2.08-0.83,3.27-0.83
						c1.34,0,2.53,0.32,3.55,0.97C251.46,95.82,252.24,96.73,252.77,97.9z"/>
					<path class="st3" d="M270,87.12h6.21v5.06H270V87.12z M270,94.68h6.21v19.41H270V94.68z"/>
					<path class="st3" d="M279.44,94.68h16.94v4.33l-10.23,10.64h10.23v4.44h-17.37v-4.33l10.23-10.64h-9.79L279.44,94.68
						L279.44,94.68z"/>
					<path class="st3" d="M318.66,104.33v1.77h-14.51c0.15,1.46,0.67,2.55,1.58,3.28c0.9,0.73,2.16,1.09,3.78,1.09
						c1.3,0,2.64-0.19,4.01-0.58c1.37-0.39,2.78-0.98,4.22-1.76v4.78c-1.47,0.55-2.94,0.98-4.4,1.26c-1.47,0.28-2.94,0.42-4.4,0.42
						c-3.51,0-6.24-0.89-8.19-2.68c-1.95-1.78-2.92-4.29-2.92-7.51c0-3.17,0.95-5.66,2.87-7.47c1.91-1.82,4.54-2.72,7.9-2.72
						c3.05,0,5.49,0.92,7.32,2.76C317.74,98.8,318.66,101.26,318.66,104.33z M312.28,102.27c0-1.18-0.34-2.13-1.03-2.85
						c-0.69-0.72-1.58-1.08-2.7-1.08c-1.2,0-2.18,0.34-2.93,1.01s-1.22,1.65-1.4,2.92L312.28,102.27L312.28,102.27z"/>
					<path class="st3" d="M336,99.96c-0.54-0.25-1.08-0.44-1.62-0.56c-0.54-0.12-1.08-0.18-1.62-0.18c-1.59,0-2.82,0.51-3.68,1.54
						c-0.86,1.02-1.29,2.49-1.29,4.39v8.94h-6.21V94.68h6.21v3.19c0.8-1.27,1.71-2.2,2.75-2.78c1.03-0.58,2.27-0.87,3.72-0.87
						c0.21,0,0.43,0.01,0.67,0.02c0.24,0.02,0.6,0.06,1.06,0.11L336,99.96z"/>
				</g>
			</g>
		</g>
		<g>
			<path class="st3" d="M104.21,71.13l-15.68-9.06c-1.79-1.03-4.1-1.03-5.89,0l-15.68,9.06c-1.82,1.05-2.95,3.01-2.95,5.1v18.11
				c0,2.1,1.13,4.06,2.95,5.1l15.68,9.06c0.9,0.52,1.91,0.79,2.95,0.79s2.05-0.27,2.95-0.79l15.68-9.06
				c1.82-1.05,2.95-3.01,2.95-5.1V76.24C107.15,74.14,106.02,72.18,104.21,71.13z M104.09,94.35c0,1.01-0.54,1.94-1.41,2.45
				l-15.68,9.06c-0.86,0.5-1.97,0.5-2.83,0L68.48,96.8c-0.87-0.5-1.41-1.44-1.41-2.45V76.24c0-1.01,0.54-1.94,1.41-2.45l15.68-9.06
				c0.43-0.25,0.92-0.38,1.41-0.38s0.98,0.13,1.41,0.38l15.68,9.06c0.87,0.5,1.41,1.44,1.41,2.45L104.09,94.35L104.09,94.35z"/>
			<polygon class="st3" points="90.24,69.67 85.58,73.5 80.91,69.67 77.7,81.04 72.02,81.04 72.02,82.34 99.14,82.34 99.14,81.04 
				93.45,81.04 			"/>
			<path class="st3" d="M74.99,86.69c-1.74,0-3.14,1.41-3.14,3.14v0.08c0,1.83,0.88,3.44,2.22,4.48l3.3-7.71H74.99z"/>
			<path class="st3" d="M78.7,86.69l-3.58,8.36c0.31,0.15,0.64,0.26,0.98,0.35l3.73-8.7H78.7z"/>
			<path class="st3" d="M93.57,86.69l-3.58,8.36c0.31,0.15,0.64,0.26,0.98,0.35l3.73-8.7H93.57z"/>
			<path class="st3" d="M89.86,86.69c-1.14,0-2.13,0.61-2.68,1.51c-0.41-0.12-0.93-0.2-1.6-0.2c-0.67,0-1.18,0.08-1.6,0.2
				c-0.55-0.9-1.54-1.51-2.68-1.51h-1.11l-3.77,8.8c0.36,0.07,0.73,0.11,1.11,0.11h1.24c3.14,0,5.68-2.54,5.68-5.68v-0.08
				c0-0.14-0.02-0.27-0.04-0.4c0.31-0.08,0.7-0.13,1.17-0.13s0.86,0.05,1.17,0.13c-0.02,0.13-0.04,0.26-0.04,0.4v0.08
				c0,1.83,0.88,3.44,2.22,4.48l3.3-7.71H89.86z"/>
			<path class="st3" d="M96.17,86.69h-1.11l-3.77,8.8c0.36,0.07,0.73,0.11,1.11,0.11h1.24c3.14,0,5.68-2.54,5.68-5.68v-0.08
				C99.31,88.1,97.9,86.69,96.17,86.69z"/>
		</g>
	</g>
</g>
<g id="Ne_change_jamais">
	<text transform="matrix(0.7 0 0 0.7 61.157 196.2832)" class="st6 st4 st7">open</text>
	<text transform="matrix(1 0 0 1 94.1145 196.2832)" class="st6 st4 st7"> </text>
	<text transform="matrix(0.7 0 0 0.7 99.8987 196.2832)" class="st6 st4 st7">source</text>
	<text transform="matrix(1 0 0 1 148.5002 196.2832)" class="st6 st4 st7"> </text>
	<text transform="matrix(0.7 0 0 0.7 154.2839 196.2832)" class="st6 st4 st7">tools</text>
	<text transform="matrix(1 0 0 1 194.1184 196.2832)" class="st6 st4 st7"> </text>
	<text transform="matrix(0.7 0 0 0.7 199.9026 196.2832)" class="st6 st4 st7">for</text>
	<text transform="matrix(1 0 0 1 224.385 196.2832)" class="st6 st4 st7"> </text>
	<text transform="matrix(0.7 0 0 0.7 230.1692 196.2832)" class="st6 st4 st7">the</text>
	<text transform="matrix(1 0 0 1 253.6614 196.2832)" class="st6 st4 st7"> </text>
	<text transform="matrix(0.7 0 0 0.7 259.4451 196.2832)" class="st6 st4 st7">postgresql</text>
	<text transform="matrix(1 0 0 1 106.0309 23.9698)" class="st1 st8 st7">Powered by</text>
	<g>
		<text transform="matrix(1 0 0 1 211.0309 23.9698)" class="st1 st4 st7">Dalibo Labs</text>
	</g>
	<g>
		<path class="st1" d="M200.01,28c-0.41,0-0.8-0.1-1.15-0.3l-6.12-3.53c-0.71-0.41-1.15-1.16-1.15-1.99v-7.05
			c0-0.82,0.44-1.58,1.15-1.99l6.12-3.53c0.7-0.41,1.6-0.41,2.29,0l6.12,3.53c0.71,0.41,1.15,1.16,1.15,1.99v7.05
			c0,0.82-0.44,1.58-1.15,1.99l-6.12,3.53C200.8,27.9,200.41,28,200.01,28 M200.01,10.49c-0.19,0-0.38,0.05-0.56,0.15l-6.12,3.53
			c-0.34,0.19-0.56,0.56-0.56,0.95v7.05c0,0.39,0.22,0.76,0.56,0.95l6.12,3.53c0.33,0.19,0.77,0.19,1.1,0l6.12-3.53
			c0.34-0.19,0.56-0.56,0.56-0.95v-7.05c0-0.39-0.22-0.76-0.56-0.95l-6.12-3.53C200.39,10.54,200.2,10.49,200.01,10.49"/>
		<path class="st1" d="M200.01,23.77c-2.03,0-3.68-1.66-3.68-3.68c0-1.57,1-2.91,2.39-3.44c0.14-0.05,0.28-0.1,0.43-0.13v-0.44
			v-2.19h-0.22c-0.09,0-0.16-0.08-0.16-0.16s0.08-0.16,0.16-0.16h2.16c0.09,0,0.16,0.08,0.16,0.16s-0.08,0.16-0.16,0.16l0,0h-0.68
			c-0.11,0-0.22,0.1-0.22,0.22c0,0.11,0.1,0.22,0.22,0.22h0.47v1.76v0.44c0.15,0.04,0.29,0.08,0.43,0.13
			c1.39,0.53,2.39,1.87,2.39,3.44C203.69,22.11,202.03,23.77,200.01,23.77 M201.55,16.01v-1.6c0.23-0.15,0.38-0.42,0.38-0.71
			c0-0.47-0.38-0.85-0.85-0.85h-2.16c-0.47,0-0.85,0.38-0.85,0.85c0,0.29,0.15,0.56,0.38,0.71v1.6c-1.7,0.65-2.81,2.25-2.81,4.08
			c0,2.41,1.96,4.37,4.37,4.37c2.41,0,4.37-1.96,4.37-4.37C204.36,18.26,203.25,16.66,201.55,16.01"/>
		<path class="st1" d="M200.01,23.23c1.68,0,3.05-1.37,3.05-3.05v-0.01c-1.54,0.56-2.41,0.11-2.85-0.06
			c-0.49-0.19-0.94-0.44-2.1-0.47c-0.51-0.01-0.87,0.16-1.14,0.42c0,0.04,0,0.09,0,0.13C196.96,21.87,198.32,23.23,200.01,23.23"/>
		<path class="st1" d="M202.88,19.83c0.03-0.01,0.03-0.04,0-0.04c-0.41-0.18-0.77-0.3-1.03-0.3c-0.3,0-0.76,0.14-1.25,0.34
			c-0.03,0.01-0.01,0.04,0,0.04C201.08,20.04,201.8,20.18,202.88,19.83"/>
	</g>
</g>
</svg>
