<svg xmlns="http://www.w3.org/2000/svg" xmlns:v="http://vecta.io" xmlns:xlink="http://www.w3.org/1999/xlink" viewBox="0 0 111 82" stroke="#000" stroke-linecap="round" stroke-linejoin="round" fill="#fff" fill-rule="evenodd" font-family="Roboto" font-size="14px" text-anchor="middle" width="300" height="300"><defs><style type="text/css"></style></defs><use xlink:href="#nlZzhrsMJJk2iYv_ha8mMQ.sym" x="0.5" y="0.5"><title>Container Service</title></use><symbol id="nlZzhrsMJJk2iYv_ha8mMQ.sym" overflow="visible" v:tags="azure, cloud, container"><title>Container Service</title><desc>A pre-configured environment.</desc><g id="j4rmrkxifl" class="Group.cls" transform="translate(0 0)" v:size="111,82,0.5,0.5"><g id="j4rmrkptef" transform="translate(33.4399 0)"><path d="M 16.9399 20.3241 L 0 26.8106 L 0 0 L 16.9399 5.8377 Z" fill="#804998" stroke="none"></path></g><g id="j4rmrkqfeg" transform="translate(18.260199999999998 0.2164)"><path d="M 0 4.3243 L 0 21.8375 L 12.5399 26.5942 L 12.5399 0 L 0 4.3243 Z M 1.3197 20.5405 L 0.6602 20.3241 L 0.6602 5.8377 L 1.3197 5.6213 L 1.9797 5.4054 L 2.6399 5.189 L 2.6399 20.9729 L 1.9797 20.7564 L 1.3197 20.5405 Z M 4.6197 21.4052 L 3.7399 21.1888 L 3.7399 4.9726 L 4.6197 4.7567 L 5.5 4.5402 L 6.3798 4.3243 L 6.3798 22.0539 L 5.5 21.8375 L 4.6197 21.4052 Z M 8.5798 22.7027 L 7.4797 22.2698 L 7.4797 3.8915 L 8.5798 3.6756 L 9.6798 3.2432 L 11 2.8104 L 11 23.3509 L 9.6798 22.9186 L 8.5798 22.7027 Z" fill="#804998" stroke="none"></path></g><g id="j4rmrkr6eh" transform="translate(72.8202 0)"><path d="M 16.9399 20.3241 L 0 26.8106 L 0 0 L 16.9399 5.8377 Z" fill="#804998" stroke="none"></path></g><g id="j4rmrkrnei" transform="translate(57.6399 0.2164)"><path d="M 0 4.3243 L 0 21.8375 L 12.5399 26.5942 L 12.5399 0 L 0 4.3243 Z M 1.3202 20.5405 L 0.6602 20.3241 L 0.6602 5.8377 L 1.3202 5.6213 L 1.9804 5.4054 L 2.6399 5.189 L 2.6399 20.9729 L 1.9804 20.7564 L 1.3202 20.5405 Z M 4.6203 21.4052 L 3.7399 21.1888 L 3.7399 4.9726 L 4.6203 4.7567 L 5.5 4.5402 L 6.3803 4.3243 L 6.3803 22.0539 L 5.5 21.8375 L 4.6203 21.4052 Z M 8.5803 22.7027 L 7.4804 22.2698 L 7.4804 3.8915 L 8.5803 3.6756 L 9.6803 3.2432 L 11 2.8104 L 11 23.3509 L 9.6803 22.9186 L 8.5803 22.7027 Z" fill="#804998" stroke="none"></path></g><g id="j4rmrkrvej" transform="translate(33.4399 53.1894)"><path d="M 16.9399 20.3241 L 0 26.8106 L 0 0 L 16.9399 5.8377 Z" fill="#804998" stroke="none"></path></g><g id="j4rmrks6ek" transform="translate(18.2602 53.4053)"><path d="M 0 4.3243 L 0 21.838 L 12.5399 26.5947 L 12.5399 0 L 0 4.3243 Z M 1.3197 20.5405 L 0.6602 20.3246 L 0.6602 5.8377 L 1.3197 5.6218 L 1.9797 5.4054 L 2.6399 5.1895 L 2.6399 20.9729 L 1.9797 20.757 L 1.3197 20.5405 Z M 4.6197 21.4057 L 3.7399 21.1893 L 3.7399 4.9731 L 4.6197 4.7567 L 5.5 4.5408 L 6.3798 4.3243 L 6.3798 22.0539 L 5.5 21.838 L 4.6197 21.4057 Z M 8.5798 22.7027 L 7.4797 22.2704 L 7.4797 3.892 L 8.5798 3.6756 L 9.6798 3.2432 L 11 2.8109 L 11 23.3515 L 9.6798 22.9191 L 8.5798 22.7027 Z" fill="#804998" stroke="none"></path></g><g id="j4rmrkseel" transform="translate(72.8202 53.1894)"><path d="M 16.9399 20.3241 L 0 26.8106 L 0 0 L 16.9399 5.8377 Z" fill="#804998" stroke="none"></path></g><g id="j4rmrkspem" transform="translate(57.6399 53.4053)"><path d="M 0 4.3243 L 0 21.838 L 12.5399 26.5947 L 12.5399 0 L 0 4.3243 Z M 1.3202 20.5405 L 0.6602 20.3246 L 0.6602 5.8377 L 1.3202 5.6218 L 1.9804 5.4054 L 2.6399 5.1895 L 2.6399 20.9729 L 1.9804 20.757 L 1.3202 20.5405 Z M 4.6203 21.4057 L 3.7399 21.1893 L 3.7399 4.9731 L 4.6203 4.7567 L 5.5 4.5408 L 6.3803 4.3243 L 6.3803 22.0539 L 5.5 21.838 L 4.6203 21.4057 Z M 8.5803 22.7027 L 7.4804 22.2704 L 7.4804 3.892 L 8.5803 3.6756 L 9.6803 3.2432 L 11 2.8109 L 11 23.3515 L 9.6803 22.9191 L 8.5803 22.7027 Z" fill="#804998" stroke="none"></path></g><g id="j4rmrkt5en" transform="translate(54.5601 26.5947)"><path d="M 16.7197 20.3241 L 0 26.5947 L 0 0 L 16.7197 5.8377 Z" fill="#804998" stroke="none"></path></g><g id="j4rmrktheo" transform="translate(39.1601 26.5947)"><path d="M 0 4.3243 L 0 21.8375 L 12.5399 26.5947 L 12.5399 0 L 0 4.3243 Z M 1.3197 20.5405 L 0.6602 20.3241 L 0.6602 5.8377 L 1.3197 5.6213 L 1.9797 5.4054 L 2.6399 5.189 L 2.6399 20.9729 L 1.9797 20.7564 L 1.3197 20.5405 Z M 4.6197 21.6216 L 3.7399 21.4052 L 3.7399 5.189 L 4.6197 4.9731 L 5.5 4.7567 L 6.3798 4.5402 L 6.3798 22.2704 L 5.5 22.0539 L 4.6197 21.6216 Z M 8.5798 22.9186 L 7.4797 22.4863 L 7.4797 4.1079 L 8.5798 3.892 L 9.6798 3.4591 L 11 3.0268 L 11 23.5674 L 9.6798 23.135 L 8.5798 22.9186 Z" fill="#804998" stroke="none"></path></g><g id="j4rmrktrep" transform="translate(15.4 26.5947)"><path d="M 16.7202 20.3241 L 0 26.5947 L 0 0 L 16.7202 5.8377 Z" fill="#804998" stroke="none"></path></g><g id="j4rmrku6eq" transform="translate(0 26.5947)"><path d="M 0 4.3243 L 0 21.8375 L 12.5399 26.5947 L 12.5399 0 L 0 4.3243 Z M 1.3202 20.5405 L 0.6602 20.3241 L 0.6602 5.8377 L 1.3202 5.6213 L 1.9797 5.4054 L 2.6399 5.189 L 2.6399 20.9729 L 1.9797 20.7564 L 1.3202 20.5405 Z M 4.6203 21.6216 L 3.7399 21.4052 L 3.7399 5.189 L 4.6203 4.9731 L 5.5 4.7567 L 6.3798 4.5402 L 6.3798 22.2704 L 5.5 22.0539 L 4.6203 21.6216 Z M 8.5798 22.9186 L 7.4797 22.4863 L 7.4797 4.1079 L 8.5798 3.892 L 9.6798 3.4591 L 11 3.0268 L 11 23.5674 L 9.6798 23.135 L 8.5798 22.9186 Z" fill="#804998" stroke="none"></path></g><g id="j4rmrkuder" transform="translate(93.2798 26.5947)"><path d="M 16.7202 20.3241 L 0 26.5947 L 0 0 L 16.7202 5.8377 Z" fill="#804998" stroke="none"></path></g><g id="j4rmrkukes" transform="translate(33.4399 0)"><path d="M 16.9399 20.3241 L 0 26.8106 L 0 0 L 16.9399 5.8377 Z" opacity="0.2" stroke="none"></path></g><g id="j4rmrkutet" transform="translate(72.8202 0)"><path d="M 16.9399 20.3241 L 0 26.8106 L 0 0 L 16.9399 5.8377 Z" opacity="0.2" stroke="none"></path></g><g id="j4rmrkv0eu" transform="translate(33.4399 53.1894)"><path d="M 16.9399 20.3241 L 0 26.8106 L 0 0 L 16.9399 5.8377 Z" opacity="0.2" stroke="none"></path></g><g id="j4rmrkv6ev" transform="translate(72.8202 53.1894)"><path d="M 16.9399 20.3241 L 0 26.8106 L 0 0 L 16.9399 5.8377 Z" opacity="0.2" stroke="none"></path></g><g id="j4rmrkvfew" transform="translate(54.5601 26.5947)"><path d="M 16.7197 20.3241 L 0 26.5947 L 0 0 L 16.7197 5.8377 Z" opacity="0.2" stroke="none"></path></g><g id="j4rmrkvmex" transform="translate(15.4 26.5947)"><path d="M 16.7202 20.3241 L 0 26.5947 L 0 0 L 16.7202 5.8377 Z" opacity="0.2" stroke="none"></path></g><g id="j4rmrkvsey" transform="translate(93.2798 26.5947)"><path d="M 16.7202 20.3241 L 0 26.5947 L 0 0 L 16.7202 5.8377 Z" opacity="0.2" stroke="none"></path></g><g id="j4rmrkw4ez" transform="translate(77.8798 26.5947)"><path d="M 0 4.3243 L 0 21.8375 L 12.5404 26.5947 L 12.5404 0 L 0 4.3243 Z M 1.3202 20.5405 L 0.6602 20.3241 L 0.6602 5.8377 L 1.3202 5.6213 L 1.9804 5.4054 L 2.6404 5.189 L 2.6404 20.9729 L 1.9804 20.7564 L 1.3202 20.5405 Z M 4.6203 21.6216 L 3.7404 21.4052 L 3.7404 5.189 L 4.6203 4.9731 L 5.5 4.7567 L 6.3803 4.5402 L 6.3803 22.2704 L 5.5 22.0539 L 4.6203 21.6216 Z M 8.5803 22.9186 L 7.4804 22.4863 L 7.4804 4.1079 L 8.5803 3.892 L 9.6803 3.4591 L 11 3.0268 L 11 23.5674 L 9.6803 23.135 L 8.5803 22.9186 Z" fill="#804998" stroke="none"></path></g></g></symbol></svg>