<svg width="89" height="86" viewBox="0 0 89 86" fill="none" xmlns="http://www.w3.org/2000/svg">
<g clip-path="url(#clip0)">
<path d="M50.8821 25.0095C48.6895 11.9285 43.5181 2.7439 37.5 2.7439C31.4819 2.7439 26.3105 11.9285 24.1179 25.0095H50.8821ZM22.9839 39.072C22.9839 42.324 23.1653 45.4441 23.4829 48.447H51.502C51.8196 45.4441 52.001 42.324 52.001 39.072C52.001 35.8201 51.8196 32.7 51.502 29.697H23.4829C23.1653 32.7 22.9839 35.8201 22.9839 39.072ZM72.0816 25.0095C67.757 15.0632 59.002 7.37281 48.1905 4.26734C51.88 9.21851 54.4204 16.6746 55.751 25.0095H72.0816ZM26.7944 4.26734C15.998 7.37281 7.22782 15.0632 2.91835 25.0095H19.249C20.5645 16.6746 23.1048 9.21851 26.7944 4.26734ZM73.6996 29.697H56.3558C56.6734 32.7732 56.8548 35.9226 56.8548 39.072C56.8548 42.2214 56.6734 45.3709 56.3558 48.447H73.6845C74.5161 45.4441 74.9849 42.324 74.9849 39.072C74.9849 35.8201 74.5161 32.7 73.6996 29.697ZM18.1452 39.072C18.1452 35.9226 18.3266 32.7732 18.6442 29.697H1.3004C0.483871 32.7 0 35.8201 0 39.072C0 42.324 0.483871 45.4441 1.3004 48.447H18.629C18.3266 45.3709 18.1452 42.2214 18.1452 39.072ZM24.1179 53.1345C26.3105 66.2156 31.4819 75.4001 37.5 75.4001C43.5181 75.4001 48.6895 66.2156 50.8821 53.1345H24.1179ZM48.2056 73.8767C59.002 70.7712 67.7722 63.0808 72.0968 53.1345H55.7661C54.4355 61.4695 51.8952 68.9255 48.2056 73.8767ZM2.91835 53.1345C7.24294 63.0808 15.998 70.7712 26.8095 73.8767C23.12 68.9255 20.5796 61.4695 19.249 53.1345H2.91835Z" fill="#004B8D" fill-opacity="0.6"/>
</g>
<path d="M83 46H59L51 38H31C27.6862 38 25 40.6862 25 44V80C25 83.3138 27.6862 86 31 86H83C86.3138 86 89 83.3138 89 80V52C89 48.6862 86.3138 46 83 46Z" fill="#FFB032"/>
<rect x="31" y="49" width="52" height="7" rx="3" fill="white"/>
<rect x="25" y="52" width="64" height="34" rx="6" fill="#F8CF2E"/>
<defs>
<clipPath id="clip0">
<rect width="75" height="75" fill="white"/>
</clipPath>
</defs>
</svg>
